<?xml version="1.0" standalone="no"?>
<!DOCTYPE svg PUBLIC "-//W3C//DTD SVG 1.1//EN" "http://www.w3.org/Graphics/SVG/1.1/DTD/svg11.dtd" >
<svg>
<metadata>
Created by FontForge 20110222 at Tue Sep  3 17:35:59 2013
 By Zoltan Hawryluk
Copyright (c) 2011 Natanael Gama (exo@ndiscovered.com), with Reserved Font Name "Exo"
</metadata>
<defs>
<font id="Exo-ExtraLight" horiz-adv-x="549" >
  <font-face 
    font-family="Exo"
    font-weight="200"
    font-stretch="normal"
    units-per-em="1000"
    panose-1="2 0 3 3 0 0 0 0 0 0"
    ascent="800"
    descent="-200"
    x-height="531"
    cap-height="732"
    bbox="-111 -272.63 1328 1002"
    underline-thickness="50"
    underline-position="-50"
    stemh="41"
    stemv="41"
    unicode-range="U+000D-FB06"
  />
<missing-glyph horiz-adv-x="784" 
d="M113 0v531h558v-531h-558zM648 518h-511l257 -242zM127 22l256 244l-256 241v-485zM140 13h507l-253 243zM657 506l-252 -240l252 -241v481z" />
    <glyph glyph-name="fi" unicode="fi" horiz-adv-x="598" 
d="M25 487v28l98 13v56c0 118 63 202 183 202c40 0 123 -9 183 -24v-26c-1 0 -172 9 -172 9c-83 4 -153 -40 -153 -161v-56l367 -8v-520h-41v487h-326v-487h-41v487h-98z" />
    <glyph glyph-name="fl" unicode="fl" horiz-adv-x="719" 
d="M25 490v29l98 12v53c0 108 44 202 164 202h249v-595c0 -133 46 -141 80 -148c0 0 72 -14 79 -14v-27h-74c-87 0 -126 54 -126 189v555h-199c-79 0 -132 -42 -132 -162v-53h147v-41h-148v-490h-41v490h-97z" />
    <glyph glyph-name=".notdef" horiz-adv-x="784" 
d="M113 0v531h558v-531h-558zM648 518h-511l257 -242zM127 22l256 244l-256 241v-485zM140 13h507l-253 243zM657 506l-252 -240l252 -241v481z" />
    <glyph glyph-name=".notdef" horiz-adv-x="784" 
d="M113 0v531h558v-531h-558zM648 518h-511l257 -242zM127 22l256 244l-256 241v-485zM140 13h507l-253 243zM657 506l-252 -240l252 -241v481z" />
    <glyph glyph-name="uni000D" unicode="&#xd;" horiz-adv-x="939" 
 />
    <glyph glyph-name="space" unicode=" " horiz-adv-x="269" 
 />
    <glyph glyph-name="exclam" unicode="!" horiz-adv-x="263" 
d="M107 731h45l-6 -535h-33zM101 16v60c0 10 5 16 16 16h26c10 0 16 -7 16 -16v-60c0 -10 -7 -16 -16 -16h-26c-9 0 -16 7 -16 16z" />
    <glyph glyph-name="quotedbl" unicode="&#x22;" horiz-adv-x="302" 
d="M186 665v67h42v-67l-7 -134h-26zM74 665v67h42v-67l-7 -134h-26z" />
    <glyph glyph-name="numbersign" unicode="#" horiz-adv-x="665" 
d="M226 269l179 -1l30 193h-179zM25 244l4 25h172l30 192h-172l5 25h171l39 246h26l-40 -246h180l38 246h26l-39 -246h177l-4 -25h-178l-30 -193h177l-4 -25h-177l-38 -243h-26l39 243l-180 1l-38 -244h-25l38 244h-171z" />
    <glyph glyph-name="dollar" unicode="$" horiz-adv-x="581" 
d="M68 494v66c1 148 85 180 202 178v86h31v-88c59 -4 143 -14 183 -19v-28c-59 3 -222 8 -222 8c-93 4 -153 -22 -153 -137v-66c0 -93 56 -114 132 -114h113c135 0 160 -74 160 -156v-68c0 -145 -105 -167 -213 -164v-81h-31v83c-61 4 -149 10 -183 16v29
c43 -3 137 -6 230 -6c78 0 156 18 156 123v68c0 75 -31 114 -119 114h-112c-152 0 -174 82 -174 156z" />
    <glyph glyph-name="percent" unicode="%" horiz-adv-x="954" 
d="M578 128c0 -73 28 -93 95 -93h101c71 0 97 19 97 93v133c0 68 -22 93 -95 93h-101c-72 0 -97 -19 -97 -93v-133zM546 128v133c0 85 28 125 129 125h101c98 0 127 -40 127 -125v-133c0 -85 -28 -125 -129 -125h-101c-98 0 -127 40 -127 125zM237 0l438 732h38l-438 -732
h-38zM84 474c0 -73 28 -93 95 -93h101c71 0 97 19 97 93v133c0 68 -22 93 -95 93h-101c-72 0 -97 -19 -97 -93v-133zM52 474v133c0 85 28 125 129 125h101c98 0 127 -40 127 -125v-133c0 -85 -28 -125 -129 -125h-101c-98 0 -127 40 -127 125z" />
    <glyph glyph-name="ampersand" unicode="&#x26;" horiz-adv-x="647" 
d="M121 106c55 -72 159 -98 228 -34l77 72l-194 260l-78 -65c-87 -72 -92 -155 -33 -233zM87 82c-77 98 -51 210 36 284l86 73l-63 85c-79 107 -4 189 69 203c78 13 195 2 267 -8v-26h-203c-91 0 -171 -50 -93 -155l270 -367l141 139l13 -13l-62 -94l-66 -64l102 -139h-50
l-82 111l-72 -67c-80 -75 -215 -66 -293 38z" />
    <glyph glyph-name="quotesingle" unicode="'" horiz-adv-x="137" 
d="M48 665v67h42v-67l-7 -134h-27z" />
    <glyph glyph-name="parenleft" unicode="(" horiz-adv-x="321" 
d="M92 326c0 274 159 534 159 534h46s-164 -262 -164 -534c0 -300 164 -536 164 -536h-46s-159 220 -159 536z" />
    <glyph glyph-name="parenright" unicode=")" horiz-adv-x="321" 
d="M25 -210c0 0 163 236 163 536c0 272 -163 534 -163 534h45s159 -260 159 -534c0 -316 -159 -536 -159 -536h-45z" />
    <glyph glyph-name="asterisk" unicode="*" horiz-adv-x="459" 
d="M272 558l115 81l12 -20l-99 -92zM228 489l22 36l116 -86l-13 -18zM196 721l22 8l69 -121l-39 -18zM138 411l30 134l41 -8l-50 -133zM62 583v23l141 12l2 -40z" />
    <glyph glyph-name="plus" unicode="+" horiz-adv-x="519" 
d="M62 336v40h176v178h41v-178h179v-40h-179v-178h-41v178h-176z" />
    <glyph glyph-name="comma" unicode="," horiz-adv-x="204" 
d="M74 17v59c0 12 6 18 17 18h24c12 0 16 -8 16 -18v-104c0 -59 -54 -47 -54 -47v15c20 0 22 12 22 20v40h-8c-9 0 -17 6 -17 17z" />
    <glyph glyph-name="hyphen" unicode="-" horiz-adv-x="343" 
d="M25 270v40h294v-40h-294z" />
    <glyph glyph-name="period" unicode="." horiz-adv-x="206" 
d="M74 16v60c0 10 6 16 17 16h25c11 0 16 -6 16 -16v-60c0 -11 -7 -16 -16 -16h-25c-9 0 -17 7 -17 16z" />
    <glyph glyph-name="slash" unicode="/" horiz-adv-x="369" 
d="M25 -72l281 842h39l-281 -842h-39z" />
    <glyph glyph-name="zero" unicode="0" horiz-adv-x="655" 
d="M127 162c0 -84 55 -121 131 -121h144c90 0 127 47 127 121v408c0 75 -38 121 -127 121h-144c-83 0 -131 -47 -131 -121v-408zM86 162v408c0 108 77 162 172 162h144c122 0 168 -73 168 -162v-408c0 -119 -69 -162 -168 -162h-144c-91 0 -172 42 -172 162z" />
    <glyph glyph-name="one" unicode="1" horiz-adv-x="356" 
d="M49 620v27l168 85h41v-732h-41v686z" />
    <glyph glyph-name="two" unicode="2" horiz-adv-x="597" 
d="M49 700v29c103 13 213 13 284 13c146 0 203 -93 203 -210c0 -186 -347 -449 -405 -491h405v-41h-480v38c102 77 438 329 438 495c0 117 -59 167 -162 167h-283z" />
    <glyph glyph-name="three" unicode="3" horiz-adv-x="597" 
d="M37 693v25c70 18 181 18 298 16c116 -2 171 -73 171 -165v-69c0 -94 -68 -128 -101 -135c35 -12 101 -51 101 -145v-59c0 -109 -56 -168 -178 -168c-114 0 -229 1 -285 17l1 25h281c70 0 138 20 138 126v59c0 93 -79 121 -135 123l-223 7v29l223 7c75 2 137 37 137 114
v69c0 87 -62 124 -134 124h-294z" />
    <glyph glyph-name="four" unicode="4" horiz-adv-x="584" 
d="M25 233l311 499h48l-301 -486h346v226l19 75h22v-301h90v-29l-90 -13v-202h-41v202h-385z" />
    <glyph glyph-name="five" unicode="5" horiz-adv-x="633" 
d="M94 11v28h304c70 0 122 48 122 129v100c0 44 -10 127 -123 127h-153c-53 0 -111 -46 -111 -108h-38l22 445h423v-41h-385l-15 -309c10 16 49 53 107 54c67 2 120 0 151 0c118 0 163 -69 163 -166v-104c0 -137 -101 -170 -163 -170c-124 0 -211 1 -304 15z" />
    <glyph glyph-name="six" unicode="6" horiz-adv-x="631" 
d="M121 371c0 -135 15 -331 147 -331h129c58 0 121 16 121 109v117c0 90 -55 105 -121 105h-276zM80 384c0 260 83 354 172 354c101 0 209 -3 282 -12v-29h-275c-115 0 -137 -197 -138 -299c85 10 202 15 276 15c135 0 161 -66 161 -147v-118c0 -112 -67 -149 -161 -149
h-129c-109 0 -188 78 -188 385z" />
    <glyph glyph-name="seven" unicode="7" horiz-adv-x="538" 
d="M37 691v41h445l19 -32l-247 -700h-48l245 691h-414z" />
    <glyph glyph-name="eight" unicode="8" horiz-adv-x="647" 
d="M133 494c0 -89 69 -100 124 -100h139c89 0 119 57 119 100v68c0 98 -40 134 -121 134h-126c-94 0 -135 -35 -135 -134v-68zM133 151c0 -78 54 -110 135 -110h125c55 0 122 29 122 110v105c0 89 -71 98 -119 98h-139c-46 0 -124 -23 -124 -98v-105zM92 154v99
c0 75 56 107 95 111c-79 17 -95 82 -95 135v65c0 134 73 173 176 173h126c107 0 162 -50 162 -173v-65c0 -43 -25 -110 -86 -118c65 -17 86 -73 86 -129v-98c0 -130 -99 -154 -163 -154h-125c-172 0 -176 113 -176 154z" />
    <glyph glyph-name="nine" unicode="9" horiz-adv-x="631" 
d="M114 468c0 -90 55 -105 121 -105h276c0 135 -15 331 -147 331h-129c-58 0 -121 -16 -121 -109v-117zM74 468v118c0 112 67 149 161 149h129c109 0 188 -78 188 -385c0 -260 -83 -354 -172 -354c-101 0 -212 1 -282 12v29h276c115 0 136 196 137 298
c-85 -10 -202 -14 -276 -14c-135 0 -161 66 -161 147z" />
    <glyph glyph-name="colon" unicode=":" horiz-adv-x="209" 
d="M74 453v61c0 10 6 17 17 17h25c11 0 16 -7 16 -17v-61c0 -11 -7 -15 -16 -15h-25c-9 0 -17 6 -17 15zM74 16v60c0 10 6 16 17 16h25c11 0 16 -6 16 -16v-60c0 -11 -7 -16 -16 -16h-25c-9 0 -17 7 -17 16z" />
    <glyph glyph-name="semicolon" unicode=";" horiz-adv-x="206" 
d="M75 454v61c0 10 5 16 16 16h25c11 0 17 -6 17 -16v-61c0 -11 -8 -15 -17 -15h-25c-9 0 -16 6 -16 15zM74 17v59c0 11 7 18 17 18h24c11 0 16 -8 16 -18v-104c0 -59 -54 -47 -54 -47v15c20 0 22 12 22 20v40h-8c-9 0 -17 8 -17 17z" />
    <glyph glyph-name="less" unicode="&#x3c;" horiz-adv-x="478" 
d="M62 334v41l354 182v-45l-301 -157l301 -168v-46z" />
    <glyph glyph-name="equal" unicode="=" horiz-adv-x="476" 
d="M25 454v41h427v-41h-427zM25 212v41h427v-41h-427z" />
    <glyph glyph-name="greater" unicode="&#x3e;" horiz-adv-x="478" 
d="M62 141v46l301 168l-301 157v45l354 -182v-41z" />
    <glyph glyph-name="question" unicode="?" horiz-adv-x="535" 
d="M177 16v60c0 10 5 16 16 16h26c10 0 15 -7 15 -16v-60c0 -10 -6 -16 -15 -16h-26c-9 0 -16 7 -16 16zM25 698v28c86 10 168 15 262 13c155 2 199 -74 199 -185v-101c0 -135 -89 -176 -259 -156v-102h-43v136h119c85 1 142 33 142 122v101c0 106 -48 144 -163 144h-257z
" />
    <glyph glyph-name="at" unicode="@" horiz-adv-x="858" 
d="M271 114c0 -47 38 -82 94 -82c59 -1 151 36 201 60v175l-202 -12c-40 -3 -93 -19 -93 -96c-1 -1 -1 -44 0 -45zM80 0v348c0 36 2 164 168 164h205c71 0 153 -30 153 -140v-372h-29l-10 64c-2 0 -118 -73 -209 -73c-74 -2 -129 49 -128 117v53c0 80 46 133 129 133
c81 0 207 -1 207 0c0 0 1 75 0 76c0 73 -45 101 -116 101h-202c-73 0 -127 -28 -127 -123v-348c0 -108 69 -136 127 -136h329c96 0 136 46 136 136v512c0 88 -47 147 -136 147h-394v25c48 10 162 17 288 16h106c106 -2 177 -63 177 -188v-512c0 -98 -39 -178 -177 -178h-329
c-102 0 -168 62 -168 178z" />
    <glyph glyph-name="A" unicode="A" horiz-adv-x="662" 
d="M203 277h289l-141 401zM56 0l272 732h47l261 -732h-47l-82 236h-319l-84 -236h-48z" />
    <glyph glyph-name="B" unicode="B" horiz-adv-x="597" 
d="M140 404h221c87 0 147 50 149 143c3 111 -61 144 -149 144h-221v-287zM140 42h221c68 0 153 25 153 164c0 86 -64 157 -153 156h-221v-320zM98 0v732h263c147 0 190 -87 190 -185c0 -89 -50 -152 -116 -164c44 -10 120 -65 120 -179c0 -102 -40 -204 -194 -204h-263z" />
    <glyph glyph-name="C" unicode="C" horiz-adv-x="572" 
d="M68 368c0 231 41 372 243 372c52 0 154 -11 224 -24v-30c-1 0 -132 13 -224 13c-140 0 -202 -66 -202 -333c0 -206 57 -331 203 -331c105 0 223 10 223 10v-29c-70 -13 -172 -22 -224 -22c-185 0 -243 159 -243 374z" />
    <glyph glyph-name="D" unicode="D" horiz-adv-x="666" 
d="M139 42h219c155 0 218 172 218 322c0 229 -81 327 -218 327h-219v-649zM98 0v732h260c226 0 259 -219 259 -369c0 -166 -71 -363 -259 -363h-260z" />
    <glyph glyph-name="E" unicode="E" horiz-adv-x="576" 
d="M98 123v479c0 98 61 132 126 130l304 -12v-29h-304c-59 0 -85 -30 -85 -89v-218l349 -7v-29l-349 -7v-218c0 -79 49 -85 95 -85h294v-29l-294 -12c-66 -3 -136 13 -136 126z" />
    <glyph glyph-name="F" unicode="F" horiz-adv-x="576" 
d="M98 0v602c0 98 61 132 126 130l304 -12v-29h-304c-59 0 -85 -30 -85 -89v-218l349 -7v-29l-349 -7v-341h-41z" />
    <glyph glyph-name="G" unicode="G" horiz-adv-x="617" 
d="M68 370c0 200 24 370 223 370c52 0 181 -14 251 -27v-33c-6 0 -155 19 -251 19c-154 0 -182 -119 -182 -331c0 -239 40 -331 187 -332c77 0 221 48 221 48v263h-198v26c40 11 90 16 171 16c21 0 44 -1 68 -3v-386h-28l-11 52c-33 -18 -133 -57 -223 -57
c-207 -2 -228 166 -228 375z" />
    <glyph glyph-name="H" unicode="H" horiz-adv-x="655" 
d="M98 0v732h41v-358h410v358h41v-732h-41v334h-410v-334h-41z" />
    <glyph glyph-name="I" unicode="I" horiz-adv-x="204" 
d="M98 0v732h41v-732h-41z" />
    <glyph glyph-name="J" unicode="J" horiz-adv-x="352" 
d="M43 21l4 28c83 -24 199 -46 199 116v567h41v-567c0 -47 -5 -114 -52 -147c-46 -33 -140 -31 -192 3z" />
    <glyph glyph-name="K" unicode="K" horiz-adv-x="592" 
d="M98 0v732h41v-344h129l237 344h50l-250 -365l250 -367h-51l-237 346h-127v-346h-42z" />
    <glyph glyph-name="L" unicode="L" horiz-adv-x="558" 
d="M98 126v606h41v-606c0 -79 49 -85 95 -85h287v-41h-287c-66 0 -136 13 -136 126z" />
    <glyph glyph-name="M" unicode="M" horiz-adv-x="798" 
d="M68 0l69 732h59l207 -663l202 663h59l75 -732h-41l-69 667l-204 -667h-44l-208 667l-64 -667h-41z" />
    <glyph glyph-name="N" unicode="N" horiz-adv-x="670" 
d="M98 0v732h43l423 -655v655h41v-732h-41l-425 655v-655h-41z" />
    <glyph glyph-name="O" unicode="O" horiz-adv-x="675" 
d="M121 361c0 -284 61 -324 233 -324c166 0 231 44 231 324c0 316 -79 335 -231 335c-143 0 -233 -11 -233 -335zM80 361c0 343 103 376 274 376c173 0 272 -33 272 -376c0 -323 -92 -365 -272 -365s-274 32 -274 365z" />
    <glyph glyph-name="P" unicode="P" horiz-adv-x="582" 
d="M115 356h243c70 0 135 22 134 172c-1 146 -72 162 -134 162h-243v-334zM74 0v732h284c79 0 176 -25 176 -204c0 -206 -102 -214 -176 -214c-40 0 -238 11 -243 14v-328h-41z" />
    <glyph glyph-name="Q" unicode="Q" horiz-adv-x="675" 
d="M337 -33h27c41 -69 115 -68 174 -48v-43c-72 -27 -182 -5 -201 91zM121 361c0 -284 60 -324 232 -324c166 0 232 44 232 324c0 316 -80 335 -232 335c-143 0 -232 -11 -232 -335zM80 361c0 343 101 376 273 376c173 0 273 -33 273 -376c0 -323 -93 -365 -273 -365
s-273 32 -273 365z" />
    <glyph glyph-name="R" unicode="R" horiz-adv-x="580" 
d="M115 358h247c68 0 132 15 132 167c0 146 -67 165 -132 165h-247v-332zM74 0v732h288c84 0 174 -32 174 -207c0 -189 -91 -206 -148 -209l158 -316h-43l-160 315c-35 1 -225 9 -228 11v-326h-41z" />
    <glyph glyph-name="S" unicode="S" horiz-adv-x="585" 
d="M80 494v66c0 145 83 178 195 178c53 0 186 -14 231 -21v-29c-64 4 -231 9 -231 9c-93 4 -154 -23 -154 -137v-66c0 -100 51 -114 132 -114h123c133 0 160 -74 160 -156v-68c0 -142 -97 -164 -196 -164c-49 0 -194 10 -240 18v31c43 -4 147 -8 240 -8c73 0 155 16 155 123
v68c0 75 -31 114 -119 114h-121c-157 0 -175 76 -175 156z" />
    <glyph glyph-name="T" unicode="T" horiz-adv-x="595" 
d="M46 691v41h515v-41h-240v-691h-41v691h-234z" />
    <glyph glyph-name="U" unicode="U" horiz-adv-x="680" 
d="M98 320v412h41v-412c0 -285 91 -284 221 -284c116 0 214 11 214 284v412h42v-412c0 -323 -135 -325 -256 -325c-136 0 -262 -5 -262 325z" />
    <glyph glyph-name="V" unicode="V" horiz-adv-x="662" 
d="M56 732h44l240 -676l251 676h45l-273 -732h-47z" />
    <glyph glyph-name="W" unicode="W" horiz-adv-x="967" 
d="M56 732h44l240 -672l223 672h46l-91 -278l152 -396l228 674h43l-246 -732h-47l-152 389l-133 -389h-47z" />
    <glyph glyph-name="X" unicode="X" horiz-adv-x="575" 
d="M56 732h48l197 -331l200 331h48l-221 -366l216 -366h-48l-195 327l-194 -327h-48l215 366z" />
    <glyph glyph-name="Y" unicode="Y" horiz-adv-x="622" 
d="M56 732h45l215 -422l234 422h46l-260 -472v-260h-41v260z" />
    <glyph glyph-name="Z" unicode="Z" horiz-adv-x="553" 
d="M43 0v41l420 650h-420v41h473v-41l-420 -650h420v-41h-473z" />
    <glyph glyph-name="bracketleft" unicode="[" horiz-adv-x="324" 
d="M105 -38v708c0 60 15 172 136 172h60v-41h-60c-56 0 -95 -41 -95 -131v-708c0 -73 27 -131 95 -131h60v-41h-60c-121 0 -136 112 -136 172z" />
    <glyph glyph-name="backslash" unicode="\" horiz-adv-x="369" 
d="M25 770h39l281 -842h-39z" />
    <glyph glyph-name="bracketright" unicode="]" horiz-adv-x="324" 
d="M25 -169h60c68 0 95 58 95 131v708c0 90 -39 131 -95 131h-60v41h60c121 0 136 -112 136 -172v-708c0 -60 -15 -172 -136 -172h-60v41z" />
    <glyph glyph-name="asciicircum" unicode="^" horiz-adv-x="401" 
d="M62 531l127 130h37l115 -130h-36l-98 100l-109 -100h-36z" />
    <glyph glyph-name="underscore" unicode="_" horiz-adv-x="663" 
d="M25 -1v41h614v-41h-614z" />
    <glyph glyph-name="grave" unicode="`" horiz-adv-x="214" 
d="M25 664h49l116 -133h-32z" />
    <glyph glyph-name="a" unicode="a" horiz-adv-x="519" 
d="M90 131c0 -72 48 -95 92 -96c80 -1 235 57 235 57v199l-235 -12c-68 -3 -92 -43 -92 -94v-54zM49 126v61c0 83 51 133 133 133c0 0 235 -1 235 0c0 0 1 66 0 67c0 66 -29 114 -113 115c-72 1 -145 -7 -238 -19v27c62 16 139 30 239 31c83 1 153 -44 153 -154v-387h-28
l-13 64c-2 0 -139 -70 -235 -70c-73 0 -133 47 -133 132z" />
    <glyph glyph-name="b" unicode="b" horiz-adv-x="552" 
d="M114 87c53 -25 117 -52 196 -52c78 0 140 69 140 228c0 191 -63 235 -140 235s-127 -11 -196 -29v-382zM74 0v785h39v-286c64 26 152 40 197 40c151 0 181 -140 181 -276c0 -122 -36 -269 -181 -269c-68 0 -170 43 -196 65l-14 -59h-26z" />
    <glyph glyph-name="c" unicode="c" horiz-adv-x="500" 
d="M62 266c0 232 72 270 174 270c52 0 143 -12 208 -26v-28s-119 13 -208 13c-80 0 -133 -26 -133 -233c0 -188 52 -226 133 -226c92 0 216 18 216 18v-30c-81 -23 -133 -28 -216 -29c-99 0 -174 38 -174 271z" />
    <glyph glyph-name="d" unicode="d" horiz-adv-x="552" 
d="M103 263c0 -164 62 -228 140 -228c79 0 143 27 196 52v382c-69 18 -119 29 -196 29s-140 -42 -140 -235zM62 263c0 136 30 276 181 276c45 0 133 -14 197 -40v286h39v-785h-27l-13 59c-26 -22 -128 -65 -196 -65c-145 0 -181 147 -181 269z" />
    <glyph glyph-name="e" unicode="e" horiz-adv-x="525" 
d="M103 282h237c52 0 95 8 95 65c0 135 -46 147 -161 147c-130 0 -171 -20 -171 -212zM62 268c0 235 59 267 212 267c122 0 202 -12 202 -188c0 -78 -47 -105 -136 -105h-237c0 -176 49 -206 133 -206c92 0 155 6 230 17v-30c-81 -23 -147 -29 -230 -28
c-136 1 -174 73 -174 273z" />
    <glyph glyph-name="f" unicode="f" horiz-adv-x="389" 
d="M25 490v29l90 12v99c0 54 3 156 103 156c36 0 107 -3 147 -15v-26l-136 1c-67 0 -73 -48 -73 -116v-99h168v-41h-168v-490h-41v490h-90z" />
    <glyph glyph-name="g" unicode="g" horiz-adv-x="566" 
d="M98 344c0 -87 43 -138 125 -138h101c98 0 128 73 128 138c-1 99 -40 148 -100 148h-129c-100 0 -125 -64 -125 -148zM97 -116c0 -99 78 -114 116 -114h150c66 0 110 29 110 107v55c0 55 -24 96 -104 96h-202c-47 0 -70 22 -70 22v-166zM59 118c0 31 23 69 76 73
c-64 30 -77 96 -77 153c0 130 56 189 172 189h312v-28l-101 -13c16 -15 51 -47 51 -148c0 -60 -23 -179 -165 -179h-156c-16 0 -73 -5 -73 -48c0 -35 41 -49 67 -49h208c91 0 140 -54 140 -134v-57c0 -60 -19 -147 -150 -147h-150c-94 0 -157 53 -157 154v91l21 92
c-14 13 -18 33 -18 51z" />
    <glyph glyph-name="h" unicode="h" 
d="M74 0v784h41v-315c59 37 128 71 209 71c106 0 164 -82 164 -170v-370h-41v370c0 78 -47 129 -123 129c-85 0 -134 -21 -209 -60v-439h-41z" />
    <glyph glyph-name="i" unicode="i" horiz-adv-x="179" 
d="M68 0v531h41v-531h-41zM62 620v60c0 10 5 16 16 16h24c10 0 15 -7 15 -16v-60c0 -10 -6 -15 -15 -15h-24c-9 0 -16 6 -16 15z" />
    <glyph glyph-name="j" unicode="j" horiz-adv-x="203" 
d="M82 -270v801h41v-535c1 -86 -1 -181 -17 -266h-24zM74 620v60c0 10 5 16 16 16h24c10 0 16 -7 16 -16v-60c0 -10 -7 -15 -16 -15h-24c-9 0 -16 6 -16 15z" />
    <glyph glyph-name="k" unicode="k" horiz-adv-x="498" 
d="M74 0v782h41v-456h53l246 205h60l-266 -227l265 -304h-54l-251 284h-53v-284h-41z" />
    <glyph glyph-name="l" unicode="l" horiz-adv-x="298" 
d="M74 189v594h41v-594c0 -133 49 -143 80 -148c0 0 72 -14 79 -14v-27h-74c-82 0 -126 54 -126 189z" />
    <glyph glyph-name="m" unicode="m" horiz-adv-x="919" 
d="M74 0v531h27l14 -63c59 37 127 71 207 71c67 0 119 -33 144 -81c52 40 146 81 229 81c101 0 164 -77 164 -170v-369h-41v369c0 72 -47 129 -123 129c-82 0 -151 -25 -220 -65c7 -16 11 -46 11 -64v-369h-41v369c0 72 -47 129 -123 129c-84 0 -132 -20 -207 -59v-439h-41z
" />
    <glyph glyph-name="n" unicode="n" 
d="M74 0v531h27l14 -62c59 37 128 71 209 71c106 0 164 -82 164 -170v-370h-41v370c0 75 -47 129 -123 129c-85 0 -134 -21 -209 -60v-439h-41z" />
    <glyph glyph-name="o" unicode="o" horiz-adv-x="571" 
d="M103 258c0 -199 63 -222 182 -222c121 0 184 29 184 222c0 208 -64 237 -184 237c-117 0 -182 -19 -182 -237zM62 258c0 217 59 278 223 278c175 0 225 -83 225 -278s-53 -263 -225 -263c-177 0 -223 73 -223 263z" />
    <glyph glyph-name="p" unicode="p" horiz-adv-x="552" 
d="M114 62c69 -18 119 -29 196 -29s140 44 140 235c0 159 -62 228 -140 228c-79 0 -143 -27 -196 -52v-382zM74 -269v800h26l14 -59c26 22 128 65 196 65c145 0 181 -147 181 -269c0 -136 -30 -276 -181 -276c-45 0 -132 14 -196 40v-301h-40z" />
    <glyph glyph-name="q" unicode="q" horiz-adv-x="556" 
d="M103 268c0 -136 22 -237 143 -237c74 0 114 8 197 29v436h-197c-116 0 -143 -116 -143 -228zM62 268c0 168 59 269 184 269c106 0 190 -9 238 -16v-791h-41v299c-64 -26 -152 -39 -197 -39c-153 0 -184 120 -184 278z" />
    <glyph glyph-name="r" unicode="r" horiz-adv-x="424" 
d="M74 0v531h26l15 -67c61 35 124 73 211 73c29 0 57 -1 74 -8v-40c-20 4 -45 7 -74 7c-86 0 -134 -29 -211 -66v-430h-41z" />
    <glyph glyph-name="s" unicode="s" horiz-adv-x="504" 
d="M49 361v46c0 82 35 129 138 129c52 0 189 -6 241 -11v-29h-241c-77 0 -97 -30 -97 -89v-46c0 -75 35 -76 97 -76h138c80 0 130 -45 130 -120v-49c0 -109 -66 -121 -130 -121c-49 0 -216 9 -254 13v28h254c31 0 89 -2 89 80v49c0 44 -27 79 -89 79h-138
c-94 0 -138 14 -138 117z" />
    <glyph glyph-name="t" unicode="t" horiz-adv-x="359" 
d="M25 491v30l89 11l11 148h30v-148h168v-41h-168v-302c0 -133 49 -143 80 -148c0 0 72 -14 79 -14v-27h-74c-82 0 -126 54 -126 189v302h-89z" />
    <glyph glyph-name="u" unicode="u" 
d="M62 162v370h41v-370c0 -75 47 -129 123 -129c85 0 134 20 209 59v440h41v-531h-27l-14 62c-59 -37 -128 -71 -209 -71c-106 0 -164 82 -164 170z" />
    <glyph glyph-name="v" unicode="v" horiz-adv-x="525" 
d="M25 531h43l193 -472l196 472h44l-219 -531h-42z" />
    <glyph glyph-name="w" unicode="w" horiz-adv-x="785" 
d="M25 531h44l182 -474l173 474h43l-67 -189l129 -285l189 474h43l-209 -531h-43l-129 289l-106 -289h-44z" />
    <glyph glyph-name="x" unicode="x" horiz-adv-x="494" 
d="M29 0l192 266l-192 265h53l165 -230l166 230h53l-193 -266l190 -265h-50l-166 229l-165 -229h-53z" />
    <glyph glyph-name="y" unicode="y" horiz-adv-x="537" 
d="M26 531h44l142 -415c31 -87 89 -73 89 -73l165 488h44l-233 -699l-56 -102h-24l90 270c-21 1 -86 7 -118 110z" />
    <glyph glyph-name="z" unicode="z" horiz-adv-x="468" 
d="M37 490v41h396v-41l-328 -448h328c1 -1 0 -41 0 -41h-381v41l328 448h-343z" />
    <glyph glyph-name="braceleft" unicode="{" horiz-adv-x="309" 
d="M25 313v41c33 3 90 10 90 66v236c0 96 37 186 170 186v-41c-80 0 -129 -34 -129 -145v-236c0 -48 -37 -79 -82 -86c45 -6 81 -41 81 -83v-289c0 -97 46 -132 130 -131v-41c-149 0 -171 94 -171 172v285c0 46 -49 69 -89 66z" />
    <glyph glyph-name="bar" unicode="|" horiz-adv-x="250" 
d="M106 -72v842h41v-842h-41z" />
    <glyph glyph-name="braceright" unicode="}" horiz-adv-x="309" 
d="M25 -169c84 -1 130 34 130 131v289c0 42 36 77 81 83c-45 7 -82 38 -82 86v236c0 111 -49 145 -129 145v41c133 0 170 -90 170 -186v-236c0 -56 57 -63 90 -66v-41c-40 3 -89 -20 -89 -66v-285c0 -78 -22 -172 -171 -172v41z" />
    <glyph glyph-name="asciitilde" unicode="~" horiz-adv-x="461" 
d="M62 572c36 31 66 61 110 61c41 0 84 -60 119 -60c39 0 73 31 97 49l12 -19c-31 -30 -63 -65 -109 -65c-43 0 -85 60 -120 60c-38 0 -63 -23 -99 -45z" />
    <glyph glyph-name="exclamdown" unicode="&#xa1;" horiz-adv-x="267" 
d="M108 -270l6 534h33l6 -534h-45zM102 386v60c0 10 7 14 16 14h24c9 0 16 -6 16 -15v-58c0 -9 -5 -18 -16 -18h-24c-11 0 -16 7 -16 17z" />
    <glyph glyph-name="cent" unicode="&#xa2;" horiz-adv-x="488" 
d="M49 266c0 240 77 273 192 271v86h32v-89c50 -4 112 -13 159 -24v-28s-119 14 -208 14c-80 0 -134 -27 -134 -234c0 -188 53 -227 134 -227c92 0 215 18 215 18v-30c-64 -19 -108 -25 -166 -27v-83h-32v81c-115 -1 -192 29 -192 272z" />
    <glyph glyph-name="sterling" unicode="&#xa3;" horiz-adv-x="599" 
d="M62 0v29l72 12v302h-72v25l72 11v126c0 214 97 227 228 227c57 0 176 -11 176 -11v-29h-174c-130 0 -189 -14 -189 -187v-126l283 -11v-25h-283v-302h361v-41h-474z" />
    <glyph glyph-name="currency" unicode="&#xa4;" horiz-adv-x="463" 
d="M98 314c0 -75 58 -140 133 -140s133 65 133 140c0 74 -59 132 -133 132c-72 0 -133 -60 -133 -132zM63 464l19 18l45 -45c28 24 65 39 104 39c41 0 77 -14 105 -38l46 45l17 -20l-45 -44c24 -27 39 -64 39 -104s-14 -78 -37 -108l43 -43l-20 -18l-41 42
c-28 -27 -65 -44 -107 -44s-80 18 -108 45l-41 -42l-18 19l41 42c-23 29 -36 67 -36 107s15 76 40 104z" />
    <glyph glyph-name="yen" unicode="&#xa5;" horiz-adv-x="589" 
d="M25 732h46l214 -370l231 370h49l-259 -411h198v-29h-199v-80h199v-29h-199v-183h-41v183h-187v29h187v80h-187v29h186z" />
    <glyph glyph-name="brokenbar" unicode="&#xa6;" horiz-adv-x="252" 
d="M106 429v341h41v-341h-41zM106 -72v328h41v-328h-41z" />
    <glyph glyph-name="section" unicode="&#xa7;" horiz-adv-x="556" 
d="M109 353c0 -65 24 -65 89 -65h159c85 0 91 10 91 66c1 1 0 62 0 62c0 55 -13 70 -91 70h-159c-63 0 -89 -2 -89 -72v-61zM68 353v62c0 48 10 84 51 93c-39 9 -51 47 -51 82v70c0 98 66 124 130 124c49 0 216 -9 254 -13v-28h-254c-66 0 -89 -32 -89 -83v-70
c0 -54 34 -64 89 -64h159c113 0 134 -36 133 -110v-62c0 -36 -4 -84 -49 -89c45 -9 48 -49 48 -82v-73c0 -109 -74 -118 -138 -118c-49 0 -208 9 -246 13v28h246c59 0 97 15 97 77v73c0 53 -13 63 -91 63h-159c-80 0 -130 5 -130 107z" />
    <glyph glyph-name="dieresis" unicode="&#xa8;" horiz-adv-x="434" 
d="M316 582c0 16 13 28 29 28s29 -12 29 -28s-13 -29 -29 -29s-29 13 -29 29zM62 582c0 16 12 28 28 28s29 -12 29 -28s-13 -29 -29 -29s-28 13 -28 29z" />
    <glyph glyph-name="copyright" unicode="&#xa9;" horiz-adv-x="845" 
d="M244 365c0 161 63 218 144 218c41 0 122 -9 178 -19v-24c-63 9 -145 12 -178 12c-70 0 -113 -56 -113 -190c0 -112 28 -184 113 -184c72 0 141 7 184 16v-24c-64 -18 -117 -23 -184 -23c-79 0 -144 41 -144 218zM99 368c-1 -152 63 -337 205 -337h261
c101 0 182 115 182 337c0 167 -38 333 -182 333h-261c-104 0 -203 -72 -205 -333zM68 368c0 163 44 364 236 364h261c196 0 213 -240 213 -364c0 -193 -62 -368 -213 -368h-261c-184 0 -236 234 -236 368z" />
    <glyph glyph-name="ordfeminine" unicode="&#xaa;" horiz-adv-x="361" 
d="M69 469c0 -46 32 -63 74 -63c60 0 148 42 148 42v129l-148 -6c-36 -1 -74 -15 -74 -68v-34zM37 463v46c0 54 38 90 100 90c0 0 154 -1 154 0c0 0 1 31 0 32c0 53 -30 78 -92 78c-54 0 -88 -4 -150 -13v21c44 11 83 21 158 22c63 1 116 -30 116 -103v-258h-20l-12 49
c-2 0 -90 -53 -154 -53c-52 0 -100 31 -100 89zM37 283v28h288v-28h-288z" />
    <glyph glyph-name="guillemotleft" unicode="&#xab;" horiz-adv-x="548" 
d="M247 354l206 204l28 -29l-177 -175l182 -179l-29 -30zM62 354l205 204l29 -29l-177 -175l183 -179l-30 -30z" />
    <glyph glyph-name="logicalnot" unicode="&#xac;" horiz-adv-x="530" 
d="M62 272v42h406v-155h-41v113h-365z" />
    <glyph glyph-name="uni00AD" unicode="&#xad;" horiz-adv-x="363" 
d="M25 270v40h314v-40h-314z" />
    <glyph glyph-name="registered" unicode="&#xae;" horiz-adv-x="845" 
d="M308 366h152c63 0 90 13 90 86c0 78 -39 97 -90 97h-152v-183zM277 153v427h177c66 0 127 -21 127 -127c0 -115 -73 -111 -106 -115l105 -185h-36l-104 185l-132 7v-192h-31zM99 368c-1 -152 63 -337 205 -337h261c101 0 182 115 182 337c0 167 -38 333 -182 333h-261
c-104 0 -203 -72 -205 -333zM68 368c0 163 44 364 236 364h261c196 0 213 -240 213 -364c0 -193 -62 -368 -213 -368h-261c-184 0 -236 234 -236 368z" />
    <glyph glyph-name="macron" unicode="&#xaf;" horiz-adv-x="388" 
d="M62 531v31h265v-31h-265z" />
    <glyph glyph-name="degree" unicode="&#xb0;" horiz-adv-x="326" 
d="M87 632c0 -42 35 -76 77 -76s75 34 75 76s-33 77 -75 77s-77 -35 -77 -77zM62 632c0 57 46 103 102 103s100 -46 100 -103s-44 -102 -100 -102s-102 45 -102 102z" />
    <glyph glyph-name="plusminus" unicode="&#xb1;" horiz-adv-x="532" 
d="M69 403v41h177v177h41v-177h178v-41h-178v-178h-41v178h-177zM69 120v41h396v-41h-396z" />
    <glyph glyph-name="twosuperior" unicode="&#xb2;" horiz-adv-x="402" 
d="M39 822c-2 0 -1 24 0 23c66 8 111 10 183 10c98 0 130 -58 130 -136c0 -123 -211 -281 -250 -313h249v-33h-309v29c67 54 275 206 275 314c0 64 -20 106 -103 106h-175z" />
    <glyph glyph-name="threesuperior" unicode="&#xb3;" horiz-adv-x="426" 
d="M37 817v22c50 13 119 11 195 11c87 0 121 -52 121 -112v-35c0 -54 -47 -85 -71 -90c23 -8 71 -39 71 -97v-28c0 -71 -27 -119 -126 -119c-74 0 -139 0 -186 13v20h178c72 0 101 21 101 90v23c0 57 -51 82 -97 83l-142 4v23l142 5c56 2 98 29 98 76v31c0 64 -45 80 -93 80
h-191z" />
    <glyph glyph-name="acute" unicode="&#xb4;" horiz-adv-x="214" 
d="M25 531l116 133h49l-133 -133h-32z" />
    <glyph glyph-name="uni00B5" unicode="&#xb5;" horiz-adv-x="611" 
d="M111 162v370h41v-370c0 -75 47 -129 123 -129c85 0 134 20 209 59v440h41v-531h-27l-14 62c-59 -37 -128 -71 -209 -71c-56 0 -98 24 -123 59v-321h-41v432z" />
    <glyph glyph-name="paragraph" unicode="&#xb6;" horiz-adv-x="575" 
d="M90 501c0 -93 87 -105 115 -105h54v295h-54c-78 0 -115 -48 -115 -101v-89zM49 499v93c0 95 79 140 156 140h345v-43h-69v-689h-41v691h-140v-961h-41v637c-7 -4 -25 -13 -54 -12c-103 0 -156 66 -156 144z" />
    <glyph glyph-name="periodcentered" unicode="&#xb7;" horiz-adv-x="266" 
d="M105 369v27c0 10 5 16 16 16h25c11 0 17 -6 17 -16v-27c0 -11 -8 -16 -17 -16h-25c-9 0 -16 7 -16 16z" />
    <glyph glyph-name="cedilla" unicode="&#xb8;" horiz-adv-x="261" 
d="M62 -156l39 9c45 9 66 26 65 110h34c0 -101 -19 -136 -101 -136h-37v17z" />
    <glyph glyph-name="onesuperior" unicode="&#xb9;" horiz-adv-x="260" 
d="M20 771v23l128 55h33v-476h-33v441z" />
    <glyph glyph-name="ordmasculine" unicode="&#xba;" horiz-adv-x="384" 
d="M68 550c0 -122 32 -145 125 -145c90 0 121 16 122 145c1 132 -25 155 -122 155c-93 0 -125 -15 -125 -155zM48 284v28h289v-28h-289zM37 550c0 142 29 187 156 187s154 -45 154 -187c0 -128 -27 -177 -154 -177s-156 49 -156 177z" />
    <glyph glyph-name="guillemotright" unicode="&#xbb;" horiz-adv-x="548" 
d="M247 175l182 179l-177 175l30 29l204 -204l-210 -209zM62 175l182 179l-176 175l28 29l206 -204l-211 -209z" />
    <glyph glyph-name="onequarter" unicode="&#xbc;" horiz-adv-x="885" 
d="M486 165l197 310h37l-183 -290h231v121l16 48h17v-169h59v-23l-59 -11v-151h-33v151h-272zM215 0l373 757h34l-373 -757h-34zM20 654v23l128 55h33v-476h-33v441z" />
    <glyph glyph-name="onehalf" unicode="&#xbd;" horiz-adv-x="954" 
d="M592 450c-2 0 -1 24 0 23c66 8 111 10 183 10c98 0 130 -58 130 -136c0 -123 -211 -281 -250 -313h249v-33h-309v29c67 54 275 206 275 314c0 64 -20 106 -103 106h-175zM204 0l374 757h34l-374 -757h-34zM20 654v23l128 55h33v-476h-33v441z" />
    <glyph glyph-name="threequarters" unicode="&#xbe;" horiz-adv-x="1007" 
d="M570 166l196 309h36l-183 -291h234v123l14 48h17v-171h60v-21l-60 -12v-150h-31v150h-273zM326 0l373 757h34l-373 -757h-34zM37 700v22c50 13 119 11 195 11c87 0 121 -52 121 -112v-35c0 -54 -47 -85 -71 -90c23 -8 71 -39 71 -97v-28c0 -71 -27 -119 -126 -119
c-74 0 -139 0 -186 13v20h178c72 0 101 21 101 90v23c0 57 -51 82 -97 83l-142 4v23l142 5c56 2 98 29 98 76v31c0 64 -45 80 -93 80h-191z" />
    <glyph glyph-name="questiondown" unicode="&#xbf;" horiz-adv-x="534" 
d="M300 395v59c0 10 7 16 16 16h24c9 0 16 -6 16 -15v-60c0 -10 -5 -16 -15 -16h-27c-10 1 -14 7 -14 16zM49 19c-1 129 88 175 258 155c0 1 1 100 0 102h43v-136c-20 0 -98 1 -118 0c-85 -1 -137 -39 -138 -123v-101c0 -97 44 -144 158 -143h258c-1 0 1 -28 0 -28
c-86 -10 -168 -15 -262 -13c-161 -2 -199 79 -199 185v102z" />
    <glyph glyph-name="Agrave" unicode="&#xc0;" horiz-adv-x="662" 
d="M203 930h49l116 -133h-32zM203 277h289l-141 401zM56 0l272 732h47l261 -732h-47l-82 236h-319l-84 -236h-48z" />
    <glyph glyph-name="Aacute" unicode="&#xc1;" horiz-adv-x="662" 
d="M336 797l116 133h49l-133 -133h-32zM203 277h289l-141 401zM56 0l272 732h47l261 -732h-47l-82 236h-319l-84 -236h-48z" />
    <glyph glyph-name="Acircumflex" unicode="&#xc2;" horiz-adv-x="662" 
d="M212 797l127 130h37l115 -130h-36l-98 100l-109 -100h-36zM203 277h289l-141 401zM56 0l272 732h47l261 -732h-47l-82 236h-319l-84 -236h-48z" />
    <glyph glyph-name="Atilde" unicode="&#xc3;" horiz-adv-x="662" 
d="M183 831c36 31 70 60 110 60c43 -1 89 -60 120 -60c34 0 70 29 96 47l12 -19c-33 -30 -67 -63 -109 -62c-47 1 -86 60 -120 60c-40 0 -63 -23 -99 -45zM203 277h289l-141 401zM56 0l272 732h47l261 -732h-47l-82 236h-319l-84 -236h-48z" />
    <glyph glyph-name="Adieresis" unicode="&#xc4;" horiz-adv-x="662" 
d="M450 826c0 16 13 28 29 28s29 -12 29 -28s-13 -29 -29 -29s-29 13 -29 29zM196 826c0 16 12 28 28 28s29 -12 29 -28s-13 -29 -29 -29s-28 13 -28 29zM203 277h289l-141 401zM56 0l272 732h47l261 -732h-47l-82 236h-319l-84 -236h-48z" />
    <glyph glyph-name="Aring" unicode="&#xc5;" horiz-adv-x="662" 
d="M276 832c0 -42 35 -76 77 -76s75 34 75 76s-33 77 -75 77s-77 -35 -77 -77zM251 832c0 57 46 103 102 103s100 -46 100 -103c0 -50 -34 -91 -80 -100h2l261 -732h-47l-82 236h-319l-84 -236h-48l272 732h5c-47 9 -82 50 -82 100zM203 277h289l-141 401z" />
    <glyph glyph-name="AE" unicode="&#xc6;" horiz-adv-x="928" 
d="M250 284h219v371zM37 0l349 595c66 114 107 140 208 137l286 -12v-29h-286c-93 0 -83 -36 -84 -95v-214l330 -6v-30l-330 -6v-218c0 -79 49 -83 95 -83h275v-30l-275 -13c-65 -3 -136 12 -136 125v123h-242l-143 -244h-47z" />
    <glyph glyph-name="Ccedilla" unicode="&#xc7;" horiz-adv-x="572" 
d="M215 -155l39 9c45 9 66 26 65 110h34c0 -101 -19 -136 -101 -136h-37v17zM68 368c0 231 41 372 243 372c52 0 154 -11 224 -24v-30c-1 0 -132 13 -224 13c-140 0 -202 -66 -202 -333c0 -206 57 -331 203 -331c105 0 223 10 223 10v-29c-70 -13 -172 -22 -224 -22
c-185 0 -243 159 -243 374z" />
    <glyph glyph-name="Egrave" unicode="&#xc8;" horiz-adv-x="576" 
d="M192 925h49l116 -133h-32zM98 123v479c0 98 61 132 126 130l304 -12v-29h-304c-59 0 -85 -30 -85 -89v-218l349 -7v-29l-349 -7v-218c0 -79 49 -85 95 -85h294v-29l-294 -12c-66 -3 -136 13 -136 126z" />
    <glyph glyph-name="Eacute" unicode="&#xc9;" horiz-adv-x="576" 
d="M317 792l116 133h49l-133 -133h-32zM98 123v479c0 98 61 132 126 130l304 -12v-29h-304c-59 0 -85 -30 -85 -89v-218l349 -7v-29l-349 -7v-218c0 -79 49 -85 95 -85h294v-29l-294 -12c-66 -3 -136 13 -136 126z" />
    <glyph glyph-name="Ecircumflex" unicode="&#xca;" horiz-adv-x="576" 
d="M190 797l127 130h37l115 -130h-36l-98 100l-109 -100h-36zM98 123v479c0 98 61 132 126 130l304 -12v-29h-304c-59 0 -85 -30 -85 -89v-218l349 -7v-29l-349 -7v-218c0 -79 49 -85 95 -85h294v-29l-294 -12c-66 -3 -136 13 -136 126z" />
    <glyph glyph-name="Edieresis" unicode="&#xcb;" horiz-adv-x="576" 
d="M420 843c0 16 13 28 29 28s29 -12 29 -28s-13 -29 -29 -29s-29 13 -29 29zM166 843c0 16 12 28 28 28s29 -12 29 -28s-13 -29 -29 -29s-28 13 -28 29zM98 123v479c0 98 61 132 126 130l304 -12v-29h-304c-59 0 -85 -30 -85 -89v-218l349 -7v-29l-349 -7v-218
c0 -79 49 -85 95 -85h294v-29l-294 -12c-66 -3 -136 13 -136 126z" />
    <glyph glyph-name="Igrave" unicode="&#xcc;" horiz-adv-x="204" 
d="M-30 930h49l116 -133h-32zM98 0v732h41v-732h-41z" />
    <glyph glyph-name="Iacute" unicode="&#xcd;" horiz-adv-x="204" 
d="M103 797l116 133h49l-133 -133h-32zM98 0v732h41v-732h-41z" />
    <glyph glyph-name="Icircumflex" unicode="&#xce;" horiz-adv-x="204" 
d="M-20 797l127 130h37l115 -130h-36l-98 100l-109 -100h-36zM98 0v732h41v-732h-41z" />
    <glyph glyph-name="Idieresis" unicode="&#xcf;" horiz-adv-x="204" 
d="M217 826c0 16 13 28 29 28s29 -12 29 -28s-13 -29 -29 -29s-29 13 -29 29zM-37 826c0 16 12 28 28 28s29 -12 29 -28s-13 -29 -29 -29s-28 13 -28 29zM98 0v732h41v-732h-41z" />
    <glyph glyph-name="Eth" unicode="&#xd0;" horiz-adv-x="666" 
d="M139 42h213c155 0 217 172 217 322c0 227 -83 325 -217 325h-213v-302h153v-28h-153v-317zM33 359v28h65v345h254c226 0 259 -219 259 -369c0 -166 -71 -363 -259 -363h-254v359h-65z" />
    <glyph glyph-name="Ntilde" unicode="&#xd1;" horiz-adv-x="670" 
d="M183 831c36 31 70 60 110 60c43 -1 89 -60 120 -60c34 0 70 29 96 47l12 -19c-33 -30 -67 -63 -109 -62c-47 1 -86 60 -120 60c-40 0 -63 -23 -99 -45zM98 0v732h43l423 -655v655h41v-732h-41l-425 655v-655h-41z" />
    <glyph glyph-name="Ograve" unicode="&#xd2;" horiz-adv-x="675" 
d="M205 930h49l116 -133h-32zM121 361c0 -284 61 -324 233 -324c166 0 231 44 231 324c0 316 -79 335 -231 335c-143 0 -233 -11 -233 -335zM80 361c0 343 103 376 274 376c173 0 272 -33 272 -376c0 -323 -92 -365 -272 -365s-274 32 -274 365z" />
    <glyph glyph-name="Oacute" unicode="&#xd3;" horiz-adv-x="675" 
d="M338 797l116 133h49l-133 -133h-32zM121 361c0 -284 61 -324 233 -324c166 0 231 44 231 324c0 316 -79 335 -231 335c-143 0 -233 -11 -233 -335zM80 361c0 343 103 376 274 376c173 0 272 -33 272 -376c0 -323 -92 -365 -272 -365s-274 32 -274 365z" />
    <glyph glyph-name="Ocircumflex" unicode="&#xd4;" horiz-adv-x="675" 
d="M214 797l127 130h37l115 -130h-36l-98 100l-109 -100h-36zM121 361c0 -284 61 -324 233 -324c166 0 231 44 231 324c0 316 -79 335 -231 335c-143 0 -233 -11 -233 -335zM80 361c0 343 103 376 274 376c173 0 272 -33 272 -376c0 -323 -92 -365 -272 -365
s-274 32 -274 365z" />
    <glyph glyph-name="Otilde" unicode="&#xd5;" horiz-adv-x="675" 
d="M185 831c36 31 70 60 110 60c43 -1 89 -60 120 -60c34 0 70 29 96 47l12 -19c-33 -30 -67 -63 -109 -62c-47 1 -86 60 -120 60c-40 0 -63 -23 -99 -45zM121 361c0 -284 61 -324 233 -324c166 0 231 44 231 324c0 316 -79 335 -231 335c-143 0 -233 -11 -233 -335zM80 361
c0 343 103 376 274 376c173 0 272 -33 272 -376c0 -323 -92 -365 -272 -365s-274 32 -274 365z" />
    <glyph glyph-name="Odieresis" unicode="&#xd6;" horiz-adv-x="675" 
d="M452 826c0 16 13 28 29 28s29 -12 29 -28s-13 -29 -29 -29s-29 13 -29 29zM198 826c0 16 12 28 28 28s29 -12 29 -28s-13 -29 -29 -29s-28 13 -28 29zM121 361c0 -284 61 -324 233 -324c166 0 231 44 231 324c0 316 -79 335 -231 335c-143 0 -233 -11 -233 -335zM80 361
c0 343 103 376 274 376c173 0 272 -33 272 -376c0 -323 -92 -365 -272 -365s-274 32 -274 365z" />
    <glyph glyph-name="multiply" unicode="&#xd7;" horiz-adv-x="444" 
d="M69 230l126 126l-126 125l29 30l126 -126l126 126l29 -29l-126 -126l125 -126l-29 -29l-125 126l-126 -126z" />
    <glyph glyph-name="Oslash" unicode="&#xd8;" horiz-adv-x="675" 
d="M185 80c37 -35 90 -43 168 -43c166 0 232 44 232 324c0 139 -15 221 -46 269zM121 361c0 -133 14 -212 46 -259l353 551c-39 39 -95 43 -167 43c-143 0 -232 -11 -232 -335zM80 361c0 343 101 376 273 376c80 0 144 -7 190 -49l28 44h33l-41 -64c41 -53 63 -146 63 -307
c0 -323 -93 -365 -273 -365c-83 0 -147 7 -192 47l-28 -43h-32l40 63c-40 52 -61 141 -61 298z" />
    <glyph glyph-name="Ugrave" unicode="&#xd9;" horiz-adv-x="680" 
d="M208 930h49l116 -133h-32zM98 320v412h41v-412c0 -285 91 -284 221 -284c116 0 214 11 214 284v412h42v-412c0 -323 -135 -325 -256 -325c-136 0 -262 -5 -262 325z" />
    <glyph glyph-name="Uacute" unicode="&#xda;" horiz-adv-x="680" 
d="M341 797l116 133h49l-133 -133h-32zM98 320v412h41v-412c0 -285 91 -284 221 -284c116 0 214 11 214 284v412h42v-412c0 -323 -135 -325 -256 -325c-136 0 -262 -5 -262 325z" />
    <glyph glyph-name="Ucircumflex" unicode="&#xdb;" horiz-adv-x="680" 
d="M218 797l127 130h37l115 -130h-36l-98 100l-109 -100h-36zM98 320v412h41v-412c0 -285 91 -284 221 -284c116 0 214 11 214 284v412h42v-412c0 -323 -135 -325 -256 -325c-136 0 -262 -5 -262 325z" />
    <glyph glyph-name="Udieresis" unicode="&#xdc;" horiz-adv-x="680" 
d="M455 826c0 16 13 28 29 28s29 -12 29 -28s-13 -29 -29 -29s-29 13 -29 29zM201 826c0 16 12 28 28 28s29 -12 29 -28s-13 -29 -29 -29s-28 13 -28 29zM98 320v412h41v-412c0 -285 91 -284 221 -284c116 0 214 11 214 284v412h42v-412c0 -323 -135 -325 -256 -325
c-136 0 -262 -5 -262 325z" />
    <glyph glyph-name="Yacute" unicode="&#xdd;" horiz-adv-x="622" 
d="M310 797l116 133h49l-133 -133h-32zM56 732h45l215 -422l234 422h46l-260 -472v-260h-41v260z" />
    <glyph glyph-name="Thorn" unicode="&#xde;" horiz-adv-x="555" 
d="M115 190h210c80 0 135 38 135 187c-1 152 -80 169 -135 170h-210v-357zM74 0v729h41v-141h210c79 0 176 -34 176 -213c0 -204 -102 -226 -176 -226c-44 1 -143 2 -210 13v-162h-41z" />
    <glyph glyph-name="germandbls" unicode="&#xdf;" horiz-adv-x="567" 
d="M74 0v566c0 116 71 211 213 211c295 0 236 -235 127 -311c-68 -53 -112 -70 -112 -118c0 -98 241 -20 242 -169v-47c0 -97 -74 -140 -158 -140c-68 0 -137 10 -173 16v30c39 -1 105 -5 174 -5c89 0 115 57 116 99v47c1 109 -242 23 -242 169c0 58 29 78 129 149
c33 23 63 67 70 111c15 88 -57 128 -173 128c-103 0 -172 -56 -172 -170v-566h-41z" />
    <glyph glyph-name="agrave" unicode="&#xe0;" horiz-adv-x="519" 
d="M121 734h49l116 -133h-32zM90 131c0 -72 48 -95 92 -96c80 -1 235 57 235 57v199l-235 -12c-68 -3 -92 -43 -92 -94v-54zM49 126v61c0 83 51 133 133 133c0 0 235 -1 235 0c0 0 1 66 0 67c0 66 -29 114 -113 115c-72 1 -145 -7 -238 -19v27c62 16 139 30 239 31
c83 1 153 -44 153 -154v-387h-28l-13 64c-2 0 -139 -70 -235 -70c-73 0 -133 47 -133 132z" />
    <glyph glyph-name="aacute" unicode="&#xe1;" horiz-adv-x="519" 
d="M248 601l116 133h49l-133 -133h-32zM90 131c0 -72 48 -95 92 -96c80 -1 235 57 235 57v199l-235 -12c-68 -3 -92 -43 -92 -94v-54zM49 126v61c0 83 51 133 133 133c0 0 235 -1 235 0c0 0 1 66 0 67c0 66 -29 114 -113 115c-72 1 -145 -7 -238 -19v27c62 16 139 30 239 31
c83 1 153 -44 153 -154v-387h-28l-13 64c-2 0 -139 -70 -235 -70c-73 0 -133 47 -133 132z" />
    <glyph glyph-name="acircumflex" unicode="&#xe2;" horiz-adv-x="519" 
d="M128 601l127 130h37l115 -130h-36l-98 100l-109 -100h-36zM90 131c0 -72 48 -95 92 -96c80 -1 235 57 235 57v199l-235 -12c-68 -3 -92 -43 -92 -94v-54zM49 126v61c0 83 51 133 133 133c0 0 235 -1 235 0c0 0 1 66 0 67c0 66 -29 114 -113 115c-72 1 -145 -7 -238 -19
v27c62 16 139 30 239 31c83 1 153 -44 153 -154v-387h-28l-13 64c-2 0 -139 -70 -235 -70c-73 0 -133 47 -133 132z" />
    <glyph glyph-name="atilde" unicode="&#xe3;" horiz-adv-x="519" 
d="M93 642c36 31 70 60 110 60c43 -1 89 -60 120 -60c34 0 70 29 96 47l12 -19c-33 -30 -67 -63 -109 -62c-47 1 -86 60 -120 60c-40 0 -63 -23 -99 -45zM90 131c0 -72 48 -95 92 -96c80 -1 235 57 235 57v199l-235 -12c-68 -3 -92 -43 -92 -94v-54zM49 126v61
c0 83 51 133 133 133c0 0 235 -1 235 0c0 0 1 66 0 67c0 66 -29 114 -113 115c-72 1 -145 -7 -238 -19v27c62 16 139 30 239 31c83 1 153 -44 153 -154v-387h-28l-13 64c-2 0 -139 -70 -235 -70c-73 0 -133 47 -133 132z" />
    <glyph glyph-name="adieresis" unicode="&#xe4;" horiz-adv-x="519" 
d="M364 652c0 16 13 28 29 28s29 -12 29 -28s-13 -29 -29 -29s-29 13 -29 29zM110 652c0 16 12 28 28 28s29 -12 29 -28s-13 -29 -29 -29s-28 13 -28 29zM90 131c0 -72 48 -95 92 -96c80 -1 235 57 235 57v199l-235 -12c-68 -3 -92 -43 -92 -94v-54zM49 126v61
c0 83 51 133 133 133c0 0 235 -1 235 0c0 0 1 66 0 67c0 66 -29 114 -113 115c-72 1 -145 -7 -238 -19v27c62 16 139 30 239 31c83 1 153 -44 153 -154v-387h-28l-13 64c-2 0 -139 -70 -235 -70c-73 0 -133 47 -133 132z" />
    <glyph glyph-name="aring" unicode="&#xe5;" horiz-adv-x="519" 
d="M187 673c0 -42 35 -76 77 -76s75 34 75 76s-33 77 -75 77s-77 -35 -77 -77zM162 673c0 57 46 103 102 103s100 -46 100 -103s-44 -102 -100 -102s-102 45 -102 102zM90 131c0 -72 48 -95 92 -96c80 -1 235 57 235 57v199l-235 -12c-68 -3 -92 -43 -92 -94v-54zM49 126v61
c0 83 51 133 133 133c0 0 235 -1 235 0c0 0 1 66 0 67c0 66 -29 114 -113 115c-72 1 -145 -7 -238 -19v27c62 16 139 30 239 31c83 1 153 -44 153 -154v-387h-28l-13 64c-2 0 -139 -70 -235 -70c-73 0 -133 47 -133 132z" />
    <glyph glyph-name="ae" unicode="&#xe6;" horiz-adv-x="882" 
d="M459 291h238c57 0 96 9 96 66c0 135 -42 138 -161 138c-136 0 -172 -26 -173 -204zM90 133c0 -72 48 -95 92 -96c80 -1 235 62 235 62v165l-235 -9c-68 -3 -92 -43 -92 -94v-28zM49 128v33c0 83 51 133 133 133c0 0 235 -1 235 0c0 0 1 94 0 95c0 66 -29 114 -113 115
c-72 1 -144 -7 -238 -19v27c60 17 139 30 239 31c64 1 120 -27 141 -90c26 68 89 83 185 83c122 0 203 -3 203 -179c0 -78 -48 -106 -137 -106h-238c-1 -168 4 -213 134 -214c92 -1 156 6 231 17v-30c-81 -23 -148 -28 -231 -28c-115 0 -139 43 -158 70
c-2 0 -157 -70 -253 -70c-73 0 -133 47 -133 132z" />
    <glyph glyph-name="ccedilla" unicode="&#xe7;" horiz-adv-x="500" 
d="M164 -154l40 8c44 9 66 26 65 110h34c0 -101 -19 -136 -101 -136h-38v18zM62 266c0 232 72 271 174 271c52 0 143 -13 208 -27v-28s-119 14 -208 14c-80 0 -133 -27 -133 -234c0 -188 52 -227 133 -227c92 0 216 18 216 18v-30c-81 -23 -133 -28 -216 -29
c-99 0 -174 39 -174 272z" />
    <glyph glyph-name="egrave" unicode="&#xe8;" horiz-adv-x="525" 
d="M135 726h49l116 -133h-32zM103 282h237c52 0 95 8 95 65c0 135 -46 147 -161 147c-130 0 -171 -20 -171 -212zM62 268c0 235 59 267 212 267c122 0 202 -12 202 -188c0 -78 -47 -105 -136 -105h-237c0 -176 49 -206 133 -206c92 0 155 6 230 17v-30
c-81 -23 -147 -29 -230 -28c-136 1 -174 73 -174 273z" />
    <glyph glyph-name="eacute" unicode="&#xe9;" horiz-adv-x="525" 
d="M261 593l116 133h49l-133 -133h-32zM103 282h237c52 0 95 8 95 65c0 135 -46 147 -161 147c-130 0 -171 -20 -171 -212zM62 268c0 235 59 267 212 267c122 0 202 -12 202 -188c0 -78 -47 -105 -136 -105h-237c0 -176 49 -206 133 -206c92 0 155 6 230 17v-30
c-81 -23 -147 -29 -230 -28c-136 1 -174 73 -174 273z" />
    <glyph glyph-name="ecircumflex" unicode="&#xea;" horiz-adv-x="525" 
d="M133 593l127 130h37l115 -130h-36l-98 100l-109 -100h-36zM103 282h237c52 0 95 8 95 65c0 135 -46 147 -161 147c-130 0 -171 -20 -171 -212zM62 268c0 235 59 267 212 267c122 0 202 -12 202 -188c0 -78 -47 -105 -136 -105h-237c0 -176 49 -206 133 -206
c92 0 155 6 230 17v-30c-81 -23 -147 -29 -230 -28c-136 1 -174 73 -174 273z" />
    <glyph glyph-name="edieresis" unicode="&#xeb;" horiz-adv-x="525" 
d="M374 644c0 16 13 28 29 28s29 -12 29 -28s-13 -29 -29 -29s-29 13 -29 29zM120 644c0 16 12 28 28 28s29 -12 29 -28s-13 -29 -29 -29s-28 13 -28 29zM103 282h237c52 0 95 8 95 65c0 135 -46 147 -161 147c-130 0 -171 -20 -171 -212zM62 268c0 235 59 267 212 267
c122 0 202 -12 202 -188c0 -78 -47 -105 -136 -105h-237c0 -176 49 -206 133 -206c92 0 155 6 230 17v-30c-81 -23 -147 -29 -230 -28c-136 1 -174 73 -174 273z" />
    <glyph glyph-name="igrave" unicode="&#xec;" horiz-adv-x="188" 
d="M-55 729h49l116 -133h-32zM74 0v531h41v-531h-41z" />
    <glyph glyph-name="iacute" unicode="&#xed;" horiz-adv-x="188" 
d="M78 596l116 133h49l-133 -133h-32zM74 0v531h41v-531h-41z" />
    <glyph glyph-name="icircumflex" unicode="&#xee;" horiz-adv-x="188" 
d="M-45 596l127 130h37l115 -130h-36l-98 100l-109 -100h-36zM74 0v531h41v-531h-41z" />
    <glyph glyph-name="idieresis" unicode="&#xef;" horiz-adv-x="188" 
d="M193 625c0 16 13 28 29 28s29 -12 29 -28s-13 -29 -29 -29s-29 13 -29 29zM-61 625c0 16 12 28 28 28s29 -12 29 -28s-13 -29 -29 -29s-28 13 -28 29zM74 0v531h41v-531h-41z" />
    <glyph glyph-name="eth" unicode="&#xf0;" horiz-adv-x="539" 
d="M90 264c0 -194 53 -221 137 -221h80c112 0 139 94 139 221c0 124 -16 226 -139 226h-80c-81 0 -137 -37 -137 -226zM49 264c0 170 43 267 178 267h80c59 0 106 -31 117 -49c-12 54 -36 133 -93 190l-155 -62l-12 29l139 56c-45 34 -100 52 -170 52v36
c95 0 161 -27 213 -72l124 49l13 -29l-112 -44c98 -110 116 -291 116 -423c0 -199 -73 -264 -180 -264h-80c-137 0 -178 85 -178 264z" />
    <glyph glyph-name="ntilde" unicode="&#xf1;" 
d="M112 634c36 31 70 60 110 60c43 -1 89 -60 120 -60c34 0 70 29 96 47l12 -19c-33 -30 -67 -63 -109 -62c-47 1 -86 60 -120 60c-40 0 -63 -23 -99 -45zM74 0v531h27l14 -62c59 37 128 71 209 71c106 0 164 -82 164 -170v-370h-41v370c0 75 -47 129 -123 129
c-85 0 -134 -21 -209 -60v-439h-41z" />
    <glyph glyph-name="ograve" unicode="&#xf2;" horiz-adv-x="571" 
d="M140 729h49l116 -133h-32zM103 258c0 -199 63 -222 182 -222c121 0 184 29 184 222c0 208 -64 237 -184 237c-117 0 -182 -19 -182 -237zM62 258c0 217 59 278 223 278c175 0 225 -83 225 -278s-53 -263 -225 -263c-177 0 -223 73 -223 263z" />
    <glyph glyph-name="oacute" unicode="&#xf3;" horiz-adv-x="571" 
d="M269 596l116 133h49l-133 -133h-32zM103 258c0 -199 63 -222 182 -222c121 0 184 29 184 222c0 208 -64 237 -184 237c-117 0 -182 -19 -182 -237zM62 258c0 217 59 278 223 278c175 0 225 -83 225 -278s-53 -263 -225 -263c-177 0 -223 73 -223 263z" />
    <glyph glyph-name="ocircumflex" unicode="&#xf4;" horiz-adv-x="571" 
d="M148 596l127 130h37l115 -130h-36l-98 100l-109 -100h-36zM103 258c0 -199 63 -222 182 -222c121 0 184 29 184 222c0 208 -64 237 -184 237c-117 0 -182 -19 -182 -237zM62 258c0 217 59 278 223 278c175 0 225 -83 225 -278s-53 -263 -225 -263
c-177 0 -223 73 -223 263z" />
    <glyph glyph-name="otilde" unicode="&#xf5;" horiz-adv-x="571" 
d="M120 630c36 31 70 60 110 60c43 -1 89 -60 120 -60c34 0 70 29 96 47l12 -19c-33 -30 -67 -63 -109 -62c-47 1 -86 60 -120 60c-40 0 -63 -23 -99 -45zM103 258c0 -199 63 -222 182 -222c121 0 184 29 184 222c0 208 -64 237 -184 237c-117 0 -182 -19 -182 -237zM62 258
c0 217 59 278 223 278c175 0 225 -83 225 -278s-53 -263 -225 -263c-177 0 -223 73 -223 263z" />
    <glyph glyph-name="odieresis" unicode="&#xf6;" horiz-adv-x="571" 
d="M384 625c0 16 13 28 29 28s29 -12 29 -28s-13 -29 -29 -29s-29 13 -29 29zM130 625c0 16 12 28 28 28s29 -12 29 -28s-13 -29 -29 -29s-28 13 -28 29zM103 258c0 -199 63 -222 182 -222c121 0 184 29 184 222c0 208 -64 237 -184 237c-117 0 -182 -19 -182 -237zM62 258
c0 217 59 278 223 278c175 0 225 -83 225 -278s-53 -263 -225 -263c-177 0 -223 73 -223 263z" />
    <glyph glyph-name="divide" unicode="&#xf7;" horiz-adv-x="539" 
d="M245 487v46c0 10 5 17 16 17h24c10 0 16 -8 16 -17v-46c0 -10 -7 -16 -16 -16h-24c-9 0 -16 7 -16 16zM245 164v46c0 10 5 16 16 16h24c10 0 16 -7 16 -16v-46c0 -10 -7 -16 -16 -16h-24c-9 0 -16 7 -16 16zM62 332v42h416v-42h-416z" />
    <glyph glyph-name="oslash" unicode="&#xf8;" horiz-adv-x="571" 
d="M153 70c31 -28 75 -34 132 -34c121 0 184 27 184 222c0 94 -13 152 -38 187zM103 258c0 -83 10 -134 32 -167l276 373c-31 26 -73 31 -126 31c-117 0 -182 -20 -182 -237zM62 258c0 217 59 278 223 278c67 0 117 -12 151 -39l25 34h34l-39 -52c40 -45 54 -117 54 -221
c0 -195 -53 -263 -225 -263c-73 0 -123 13 -158 41l-26 -36h-32l39 54c-35 42 -46 108 -46 204z" />
    <glyph glyph-name="ugrave" unicode="&#xf9;" 
d="M123 729h49l116 -133h-32zM62 162v370h41v-370c0 -75 47 -129 123 -129c85 0 134 20 209 59v440h41v-531h-27l-14 62c-59 -37 -128 -71 -209 -71c-106 0 -164 82 -164 170z" />
    <glyph glyph-name="uacute" unicode="&#xfa;" 
d="M253 596l116 133h49l-133 -133h-32zM62 162v370h41v-370c0 -75 47 -129 123 -129c85 0 134 20 209 59v440h41v-531h-27l-14 62c-59 -37 -128 -71 -209 -71c-106 0 -164 82 -164 170z" />
    <glyph glyph-name="ucircumflex" unicode="&#xfb;" 
d="M130 596l127 130h37l115 -130h-36l-98 100l-109 -100h-36zM62 162v370h41v-370c0 -75 47 -129 123 -129c85 0 134 20 209 59v440h41v-531h-27l-14 62c-59 -37 -128 -71 -209 -71c-106 0 -164 82 -164 170z" />
    <glyph glyph-name="udieresis" unicode="&#xfc;" 
d="M367 625c0 16 13 28 29 28s29 -12 29 -28s-13 -29 -29 -29s-29 13 -29 29zM113 625c0 16 12 28 28 28s29 -12 29 -28s-13 -29 -29 -29s-28 13 -28 29zM62 162v370h41v-370c0 -75 47 -129 123 -129c85 0 134 20 209 59v440h41v-531h-27l-14 62c-59 -37 -128 -71 -209 -71
c-106 0 -164 82 -164 170z" />
    <glyph glyph-name="yacute" unicode="&#xfd;" horiz-adv-x="537" 
d="M252 596l116 133h49l-133 -133h-32zM26 531h44l142 -415c31 -87 89 -73 89 -73l165 488h44l-233 -699l-56 -102h-24l90 270c-21 1 -86 7 -118 110z" />
    <glyph glyph-name="thorn" unicode="&#xfe;" horiz-adv-x="559" 
d="M127 59c82 -23 135 -27 209 -28c92 0 133 66 133 238c0 157 -54 230 -133 230c-69 -1 -147 -32 -209 -56v-384zM86 -270v1052h41v-311c26 19 141 69 209 69c136 0 174 -137 174 -273c0 -134 -20 -277 -174 -277c-45 0 -145 13 -209 39v-299h-41z" />
    <glyph glyph-name="ydieresis" unicode="&#xff;" horiz-adv-x="537" 
d="M366 625c0 16 13 28 29 28s29 -12 29 -28s-13 -29 -29 -29s-29 13 -29 29zM112 625c0 16 12 28 28 28s29 -12 29 -28s-13 -29 -29 -29s-28 13 -28 29zM26 531h44l142 -415c31 -87 89 -73 89 -73l165 488h44l-233 -699l-56 -102h-24l90 270c-21 1 -86 7 -118 110z" />
    <glyph glyph-name="bullet" unicode="&#x2022;" horiz-adv-x="317" 
d="M105 358v46c0 21 11 36 33 36h41c25 0 35 -14 35 -36v-46c0 -24 -15 -32 -35 -32h-41c-20 0 -33 12 -33 32z" />
    <glyph glyph-name="quoteleft" unicode="&#x2018;" horiz-adv-x="203" 
d="M70 578v102c0 68 60 54 60 54v-16c-23 1 -24 -16 -24 -25v-33h9c10 0 19 -7 19 -20v-62c0 -14 -6 -21 -19 -21h-27c-14 0 -18 10 -18 21z" />
    <glyph glyph-name="quoteright" unicode="&#x2019;" horiz-adv-x="203" 
d="M70 652v63c0 14 7 20 20 20h26c14 0 19 -9 19 -20l-1 -103c0 -68 -60 -54 -60 -54v17c23 -1 24 15 24 24v34h-9c-10 0 -19 6 -19 19z" />
    <glyph glyph-name="quotesinglbase" unicode="&#x201a;" horiz-adv-x="203" 
d="M70 19v62c0 14 6 21 19 21h27c14 0 18 -10 18 -21v-103c0 -68 -60 -54 -60 -54v17c23 -1 24 15 24 24v35h-9c-10 0 -19 6 -19 19z" />
    <glyph glyph-name="quotedblleft" unicode="&#x201c;" horiz-adv-x="310" 
d="M64 578v102c0 68 60 54 60 54v-16c-23 1 -24 -16 -24 -25v-33h8c10 0 20 -7 20 -20v-62c0 -14 -7 -21 -20 -21h-26c-14 0 -18 10 -18 21zM182 578v102c0 68 61 54 61 54v-16c-23 1 -24 -16 -24 -25v-33h9c10 0 19 -7 19 -20v-62c0 -14 -6 -21 -19 -21h-26
c-14 0 -20 10 -20 21z" />
    <glyph glyph-name="quotedblright" unicode="&#x201d;" horiz-adv-x="309" 
d="M182 652v63c0 14 7 20 20 20h27c14 0 18 -9 18 -20v-103c0 -68 -61 -54 -61 -54v17c23 -1 25 15 25 24v34h-9c-10 0 -20 6 -20 19zM64 652v63c0 14 6 20 19 20h26c14 0 19 -9 19 -20v-103c0 -68 -60 -54 -60 -54v17c23 -1 23 15 23 24v34h-8c-10 0 -19 6 -19 19z" />
    <glyph glyph-name="quotedblbase" unicode="&#x201e;" horiz-adv-x="309" 
d="M182 20v62c0 14 7 21 20 21h27c14 0 18 -10 18 -21v-102c0 -68 -61 -54 -61 -54v16c23 -1 25 16 25 25v34h-9c-10 0 -20 6 -20 19zM64 20v62c0 14 6 21 19 21h26c14 0 19 -10 19 -21v-102c0 -68 -60 -54 -60 -54v16c23 -1 23 16 23 25v34h-8c-10 0 -19 6 -19 19z" />
    <glyph glyph-name="exclamdown.alt" horiz-adv-x="263" 
d="M108 0l6 535h33l6 -535h-45zM101 655v60c0 10 7 16 16 16h26c9 0 16 -7 16 -16v-60c0 -10 -5 -16 -16 -16h-26c-10 0 -16 7 -16 16z" />
    <glyph glyph-name="zerosuperior" unicode="&#x2070;" horiz-adv-x="495" 
d="M107 486c0 -66 26 -81 88 -81h109c73 0 84 25 84 81v247c0 53 -19 81 -84 81h-109c-66 0 -88 -23 -88 -81v-247zM74 482v255c0 84 46 110 117 110h117c83 0 113 -43 113 -110v-255c0 -96 -49 -110 -113 -110h-117c-59 0 -117 10 -117 110z" />
    <glyph glyph-name="foursuperior" unicode="&#x2074;" horiz-adv-x="411" 
d="M20 538l196 309h37l-183 -289h232v121l16 48h17v-169h59v-23l-59 -12v-150h-33v150h-272z" />
    <glyph glyph-name="fivesuperior" unicode="&#x2075;" horiz-adv-x="440" 
d="M68 377v25h211c52 0 80 28 80 84v56c0 40 -5 78 -78 78h-112c-39 0 -71 -29 -72 -65h-29l15 292h295v-33h-265l-11 -200c29 50 116 39 181 39c77 0 109 -36 109 -107v-64c0 -82 -46 -114 -109 -114c-81 0 -162 0 -215 9z" />
    <glyph glyph-name="sixsuperior" unicode="&#x2076;" horiz-adv-x="461" 
d="M100 604c0 -127 29 -199 98 -199h106c50 0 74 26 74 75v68c0 50 -28 56 -74 56h-204zM67 622c2 197 58 227 122 230c67 3 159 -1 206 -8v-25h-204c-75 0 -90 -92 -91 -192c55 6 158 10 206 10c88 0 105 -36 105 -87v-73c0 -72 -44 -105 -105 -105h-107
c-72 0 -134 37 -132 250z" />
    <glyph glyph-name="sevensuperior" unicode="&#x2077;" horiz-adv-x="374" 
d="M18 816v33h325l12 -20l-183 -456h-35l177 443h-296z" />
    <glyph glyph-name="eightsuperior" unicode="&#x2078;" horiz-adv-x="495" 
d="M114 699c0 -50 35 -70 72 -70h124c42 0 72 29 72 70v32c0 72 -28 88 -84 88h-97c-60 0 -87 -20 -87 -88v-32zM114 479c0 -54 20 -75 80 -75h112c48 0 76 19 76 75v50c0 48 -39 67 -68 67h-122c-46 0 -78 -25 -78 -66v-51zM81 475v58c0 48 40 72 67 75
c-51 11 -67 53 -67 87v40c0 92 49 117 116 117h110c70 0 108 -31 108 -117v-40c0 -27 -15 -72 -63 -78c34 -6 63 -45 63 -84v-58c0 -84 -50 -104 -105 -104h-120c-92 0 -109 50 -109 104z" />
    <glyph glyph-name="ninesuperior" unicode="&#x2079;" horiz-adv-x="461" 
d="M89 677c0 -50 28 -56 74 -56h204c0 127 -28 199 -97 199h-107c-50 0 -74 -26 -74 -75v-68zM56 675v73c0 72 44 105 105 105h107c72 0 134 -37 132 -250c-2 -197 -57 -227 -122 -230c-67 -3 -155 -1 -206 8v25h203c76 0 91 92 92 192c-55 -6 -158 -9 -206 -9
c-88 0 -105 35 -105 86z" />
    <glyph glyph-name="zeroinferior" unicode="&#x2080;" horiz-adv-x="495" 
d="M107 -86c0 -66 26 -81 88 -81h109c73 0 84 25 84 81v247c0 53 -19 81 -84 81h-109c-66 0 -88 -23 -88 -81v-247zM74 -90v255c0 84 46 110 117 110h117c83 0 113 -43 113 -110v-255c0 -96 -49 -110 -113 -110h-117c-59 0 -117 10 -117 110z" />
    <glyph glyph-name="oneinferior" unicode="&#x2081;" horiz-adv-x="260" 
d="M20 199v23l128 55h33v-476h-33v441z" />
    <glyph glyph-name="twoinferior" unicode="&#x2082;" horiz-adv-x="402" 
d="M39 250c-2 0 -1 24 0 23c66 8 111 10 183 10c98 0 130 -58 130 -136c0 -123 -211 -281 -250 -313h249v-33h-309v29c67 54 275 206 275 314c0 64 -20 106 -103 106h-175z" />
    <glyph glyph-name="threeinferior" unicode="&#x2083;" horiz-adv-x="426" 
d="M37 245v22c50 13 119 11 195 11c87 0 121 -52 121 -112v-35c0 -54 -47 -85 -71 -90c23 -8 71 -39 71 -97v-28c0 -71 -27 -119 -126 -119c-74 0 -139 0 -186 13v20h178c72 0 101 21 101 90v23c0 57 -51 82 -97 83l-142 4v23l142 5c56 2 98 29 98 76v31c0 64 -45 80 -93 80
h-191z" />
    <glyph glyph-name="fourinferior" unicode="&#x2084;" horiz-adv-x="411" 
d="M20 -34l196 309h37l-183 -289h232v121l16 48h17v-169h59v-23l-59 -12v-150h-33v150h-272z" />
    <glyph glyph-name="fiveinferior" unicode="&#x2085;" horiz-adv-x="440" 
d="M68 -17l15 292h295v-33h-265l-11 -200c29 50 116 39 181 39c77 0 109 -36 109 -107v-64c0 -82 -46 -114 -109 -114c-81 0 -162 0 -215 9v25h211c52 0 80 28 80 84v56c0 40 -5 78 -78 78h-112c-39 0 -71 -29 -72 -65h-29z" />
    <glyph glyph-name="sixinferior" unicode="&#x2086;" horiz-adv-x="461" 
d="M100 32c0 -127 29 -199 98 -199h106c50 0 74 26 74 75v68c0 50 -28 56 -74 56h-204zM67 50c2 197 58 227 122 230c67 3 157 0 206 -8v-25h-204c-75 0 -90 -92 -91 -192c55 6 158 10 206 10c88 0 105 -36 105 -87v-73c0 -72 -44 -105 -105 -105h-107
c-72 0 -134 37 -132 250z" />
    <glyph glyph-name="seveninferior" unicode="&#x2087;" horiz-adv-x="374" 
d="M18 244v33h325l12 -20l-183 -456h-35l177 443h-296z" />
    <glyph glyph-name="eightinferior" unicode="&#x2088;" horiz-adv-x="495" 
d="M114 127c0 -50 35 -70 72 -70h124c42 0 72 29 72 70v32c0 72 -28 88 -84 88h-97c-60 0 -87 -20 -87 -88v-32zM114 -42v-51c0 -54 20 -75 80 -75h112c48 0 76 19 76 75v50c0 48 -39 67 -68 67h-122c-46 0 -78 -25 -78 -66zM81 -39c0 48 40 72 67 75c-51 11 -67 53 -67 87
v40c0 92 49 117 116 117h110c70 0 108 -31 108 -117v-40c0 -27 -15 -72 -63 -78c34 -6 63 -45 63 -84v-58c0 -84 -50 -104 -105 -104h-120c-92 0 -109 50 -109 104v58z" />
    <glyph glyph-name="nineinferior" unicode="&#x2089;" horiz-adv-x="461" 
d="M89 105c0 -50 28 -56 74 -56h204c0 127 -28 199 -97 199h-107c-50 0 -74 -26 -74 -75v-68zM56 103v73c0 72 44 105 105 105h107c72 0 134 -37 132 -250c-2 -197 -57 -227 -122 -230c-67 -3 -156 0 -206 8v25h203c76 0 91 92 92 192c-55 -6 -158 -9 -206 -9
c-88 0 -105 35 -105 86z" />
    <glyph glyph-name="zero.oldstyle" horiz-adv-x="655" 
d="M127 162c0 -84 55 -121 131 -121h144c90 0 127 47 127 121v307c0 75 -38 121 -127 121h-144c-83 0 -131 -47 -131 -121v-307zM86 162v307c0 108 77 162 172 162h144c122 0 168 -71 168 -162v-307c0 -119 -69 -162 -168 -162h-144c-91 0 -172 42 -172 162z" />
    <glyph glyph-name="one.oldstyle" horiz-adv-x="350" 
d="M37 520v27l168 85h41v-632h-41v586z" />
    <glyph glyph-name="two.oldstyle" horiz-adv-x="597" 
d="M50 598v27c67 10 168 18 283 13c140 0 203 -74 203 -187c0 -167 -336 -380 -395 -410h389v-41h-474v38c104 56 438 263 438 415c0 105 -66 146 -169 145h-275z" />
    <glyph glyph-name="three.oldstyle" horiz-adv-x="622" 
d="M62 594v25c70 18 181 18 298 16c116 -2 171 -73 171 -165v-69c0 -94 -69 -128 -102 -135c35 -12 102 -51 102 -145v-59c0 -109 -57 -168 -179 -168c-114 0 -228 1 -284 17v25h282c70 0 137 22 137 126v59c0 93 -79 121 -135 123l-222 7v29l222 7c75 2 137 37 137 114v69
c0 87 -61 124 -133 124h-294z" />
    <glyph glyph-name="four.oldstyle" horiz-adv-x="584" 
d="M25 132l311 499h48l-301 -486h346v226l19 75h22v-301h90v-29l-90 -13v-202h-41v202h-385z" />
    <glyph glyph-name="five.oldstyle" horiz-adv-x="654" 
d="M94 -62h304c70 0 122 48 122 129v100c0 44 -10 127 -123 127h-153c-53 0 -111 -46 -111 -108h-38l22 445h423v-41h-385l-15 -308c10 16 49 52 107 53c67 2 120 0 151 0c118 0 163 -69 163 -166v-104c0 -137 -101 -170 -163 -170c-124 0 -211 1 -304 15v28z" />
    <glyph glyph-name="six.oldstyle" horiz-adv-x="631" 
d="M121 371c0 -135 15 -331 147 -331h129c58 0 121 16 121 109v117c0 90 -55 105 -121 105h-276zM80 384c0 260 83 354 172 354c101 0 209 -3 282 -12v-29h-275c-115 0 -137 -197 -138 -299c85 10 202 15 276 15c135 0 161 -66 161 -147v-118c0 -112 -67 -149 -161 -149
h-129c-109 0 -188 78 -188 385z" />
    <glyph glyph-name="seven.oldstyle" horiz-adv-x="538" 
d="M37 590v41h445l19 -31l-247 -701h-48l245 691h-414z" />
    <glyph glyph-name="eight.oldstyle" horiz-adv-x="647" 
d="M133 494c0 -89 69 -100 124 -100h139c89 0 119 57 119 100v68c0 98 -40 134 -121 134h-126c-94 0 -135 -35 -135 -134v-68zM133 151c0 -78 54 -110 135 -110h125c55 0 122 29 122 110v105c0 89 -71 98 -119 98h-139c-46 0 -124 -23 -124 -98v-105zM92 154v99
c0 75 56 107 95 111c-79 17 -95 82 -95 135v65c0 134 73 173 176 173h126c107 0 162 -50 162 -173v-65c0 -43 -25 -110 -86 -118c65 -17 86 -73 86 -129v-98c0 -130 -99 -154 -163 -154h-125c-172 0 -176 113 -176 154z" />
    <glyph glyph-name="nine.oldstyle" horiz-adv-x="631" 
d="M114 365c0 -90 55 -105 121 -105h276c0 135 -15 331 -147 331h-129c-58 0 -121 -16 -121 -109v-117zM74 365v118c0 112 67 149 161 149h129c109 0 188 -78 188 -385c0 -260 -83 -354 -172 -354c-101 0 -209 1 -282 12v29h276c115 0 136 197 137 299
c-85 -10 -202 -15 -276 -15c-135 0 -161 66 -161 147z" />
    <glyph glyph-name="Euro" unicode="&#x20ac;" horiz-adv-x="600" 
d="M25 266v25l88 5v127l-88 5v23l88 6c0 72 -10 283 234 283c52 0 155 -10 225 -23v-30s-142 13 -225 12c-174 -1 -194 -112 -193 -242l267 -5v-24l-267 -5v-127l267 -5v-25s-270 -3 -267 -5c-2 -135 72 -224 193 -226c105 -2 229 14 229 14v-29c-81 -20 -145 -26 -229 -26
c-77 0 -234 41 -234 267z" />
    <glyph glyph-name="endash" unicode="&#x2013;" horiz-adv-x="522" 
d="M25 266v42h473v-42h-473z" />
    <glyph glyph-name="emdash" unicode="&#x2014;" horiz-adv-x="745" 
d="M25 268v42h696v-42h-696z" />
    <glyph glyph-name="breve" unicode="&#x2d8;" horiz-adv-x="351" 
d="M62 644h25c0 -51 42 -90 89 -89c52 1 91 36 91 89h25c0 -76 -61 -114 -116 -114s-114 42 -114 114z" />
    <glyph glyph-name="ogonek" unicode="&#x2db;" horiz-adv-x="246" 
d="M142 0h21c-101 -53 -91 -152 22 -151v-30c-115 -16 -192 116 -43 181z" />
    <glyph glyph-name="caron" unicode="&#x2c7;" horiz-adv-x="401" 
d="M62 661h35l102 -100l106 100h36l-123 -130h-38z" />
    <glyph glyph-name="hungarumlaut" unicode="&#x2dd;" horiz-adv-x="356" 
d="M162 531l116 133h50l-133 -133h-33zM25 531l116 133h49l-133 -133h-32z" />
    <glyph glyph-name="dotaccent" unicode="&#x2d9;" horiz-adv-x="179" 
d="M58 571v59c0 10 5 16 16 16h24c10 0 16 -7 16 -16v-59c0 -10 -7 -16 -16 -16h-24c-9 0 -16 7 -16 16z" />
    <glyph glyph-name="Aogonek" unicode="&#x104;" horiz-adv-x="662" 
d="M203 277h289l-141 401zM56 0l272 732h47l261 -732h-12c-101 -53 -91 -152 22 -151v-30c-115 -16 -192 116 -43 181h-14l-82 236h-319l-84 -236h-48z" />
    <glyph glyph-name="Lcaron" unicode="&#x13d;" horiz-adv-x="558" 
d="M222 705v67h41v-67l-7 -134h-26zM98 126v606h41v-606c0 -79 49 -85 95 -85h287v-41h-287c-66 0 -136 13 -136 126z" />
    <glyph glyph-name="Sacute" unicode="&#x15a;" horiz-adv-x="585" 
d="M293 798l116 133h49l-133 -133h-32zM80 494v66c0 145 83 178 195 178c53 0 186 -14 231 -21v-29c-64 4 -231 9 -231 9c-93 4 -154 -23 -154 -137v-66c0 -100 51 -114 132 -114h123c133 0 160 -74 160 -156v-68c0 -142 -97 -164 -196 -164c-49 0 -194 10 -240 18v31
c43 -4 147 -8 240 -8c73 0 155 16 155 123v68c0 75 -31 114 -119 114h-121c-157 0 -175 76 -175 156z" />
    <glyph glyph-name="Scaron" unicode="&#x160;" horiz-adv-x="585" 
d="M177 928h35l102 -100l106 100h36l-123 -130h-38zM80 494v66c0 145 83 178 195 178c53 0 186 -14 231 -21v-29c-64 4 -231 9 -231 9c-93 4 -154 -23 -154 -137v-66c0 -100 51 -114 132 -114h123c133 0 160 -74 160 -156v-68c0 -142 -97 -164 -196 -164
c-49 0 -194 10 -240 18v31c43 -4 147 -8 240 -8c73 0 155 16 155 123v68c0 75 -31 114 -119 114h-121c-157 0 -175 76 -175 156z" />
    <glyph glyph-name="Scedilla" unicode="&#x15e;" horiz-adv-x="585" 
d="M204 -164l39 9c45 9 66 26 65 110h34c0 -101 -19 -136 -101 -136h-37v17zM80 494v66c0 145 83 178 195 178c53 0 186 -14 231 -21v-29c-64 4 -231 9 -231 9c-93 4 -154 -23 -154 -137v-66c0 -100 51 -114 132 -114h123c133 0 160 -74 160 -156v-68
c0 -142 -97 -164 -196 -164c-49 0 -194 10 -240 18v31c43 -4 147 -8 240 -8c73 0 155 16 155 123v68c0 75 -31 114 -119 114h-121c-157 0 -175 76 -175 156z" />
    <glyph glyph-name="Tcaron" unicode="&#x164;" horiz-adv-x="595" 
d="M161 927h35l102 -100l106 100h36l-123 -130h-38zM46 691v41h515v-41h-240v-691h-41v691h-234z" />
    <glyph glyph-name="Zacute" unicode="&#x179;" horiz-adv-x="553" 
d="M277 797l116 133h49l-133 -133h-32zM43 0v41l420 650h-420v41h473v-41l-420 -650h420v-41h-473z" />
    <glyph glyph-name="Zcaron" unicode="&#x17d;" horiz-adv-x="553" 
d="M140 927h35l102 -100l106 100h36l-123 -130h-38zM43 0v41l420 650h-420v41h473v-41l-420 -650h420v-41h-473z" />
    <glyph glyph-name="Zdotaccent" unicode="&#x17b;" horiz-adv-x="553" 
d="M252 813v59c0 10 5 16 16 16h24c10 0 16 -7 16 -16v-59c0 -10 -7 -16 -16 -16h-24c-9 0 -16 7 -16 16zM43 0v41l420 650h-420v41h473v-41l-420 -650h420v-41h-473z" />
    <glyph glyph-name="aogonek" unicode="&#x105;" horiz-adv-x="546" 
d="M103 131c0 -72 48 -95 92 -96c80 -1 235 57 235 57v199l-235 -12c-68 -3 -92 -43 -92 -94v-54zM62 126v61c0 83 51 133 133 133c0 0 235 -1 235 0c0 0 1 66 0 67c0 66 -29 114 -113 115c-72 1 -145 -7 -238 -19v27c62 16 139 30 239 31c83 1 153 -44 153 -154v-387h-3
c-101 -53 -91 -152 22 -151v-30c-115 -16 -192 116 -43 181h-4l-13 64c-2 0 -139 -70 -235 -70c-73 0 -133 47 -133 132z" />
    <glyph glyph-name="lcaron" unicode="&#x13e;" horiz-adv-x="298" 
d="M207 715v67h41v-67l-7 -134h-26zM74 189v594h41v-594c0 -119 30 -139 80 -148c0 0 72 -14 79 -14v-27h-77c-83 0 -123 48 -123 189z" />
    <glyph glyph-name="sacute" unicode="&#x15b;" horiz-adv-x="504" 
d="M240 601l116 133h49l-133 -133h-32zM49 361v46c0 82 35 129 138 129c52 0 189 -6 241 -11v-29h-241c-77 0 -97 -30 -97 -89v-46c0 -75 35 -76 97 -76h138c80 0 130 -45 130 -120v-49c0 -109 -66 -121 -130 -121c-49 0 -216 9 -254 13v28h254c31 0 89 -2 89 80v49
c0 44 -27 79 -89 79h-138c-94 0 -138 14 -138 117z" />
    <glyph glyph-name="scaron" unicode="&#x161;" horiz-adv-x="504" 
d="M120 731h35l102 -100l106 100h36l-123 -130h-38zM49 361v46c0 82 35 129 138 129c52 0 189 -6 241 -11v-29h-241c-77 0 -97 -30 -97 -89v-46c0 -75 35 -76 97 -76h138c80 0 130 -45 130 -120v-49c0 -109 -66 -121 -130 -121c-49 0 -216 9 -254 13v28h254
c31 0 89 -2 89 80v49c0 44 -27 79 -89 79h-138c-94 0 -138 14 -138 117z" />
    <glyph glyph-name="scedilla" unicode="&#x15f;" horiz-adv-x="504" 
d="M147 -158l39 9c45 9 66 26 65 110h34c0 -101 -19 -136 -101 -136h-37v17zM49 361v46c0 82 35 129 138 129c52 0 189 -6 241 -11v-29h-241c-77 0 -97 -30 -97 -89v-46c0 -75 35 -76 97 -76h138c80 0 130 -45 130 -120v-49c0 -109 -66 -121 -130 -121c-49 0 -216 9 -254 13
v28h254c31 0 89 -2 89 80v49c0 44 -27 79 -89 79h-138c-94 0 -138 14 -138 117z" />
    <glyph glyph-name="tcaron" unicode="&#x165;" horiz-adv-x="347" 
d="M230 754l26 45l16 -23l-3 -90l-22 -88l-12 45zM25 491v30l89 11l11 148h30v-148h168v-41h-168v-301c0 -133 43 -141 80 -148c0 0 72 -14 79 -14v-27h-78c-76 0 -122 48 -122 189v301h-89z" />
    <glyph glyph-name="zacute" unicode="&#x17a;" horiz-adv-x="468" 
d="M219 593l116 133h49l-133 -133h-32zM37 490v41h396v-41l-328 -448h328c1 -1 0 -41 0 -41h-381v41l328 448h-343z" />
    <glyph glyph-name="zcaron" unicode="&#x17e;" horiz-adv-x="468" 
d="M110 726h35l102 -100l106 100h36l-123 -130h-38zM37 490v41h396v-41l-328 -448h328c1 -1 0 -41 0 -41h-381v41l328 448h-343z" />
    <glyph glyph-name="zdotaccent" unicode="&#x17c;" horiz-adv-x="468" 
d="M207 612v59c0 10 5 16 16 16h24c10 0 16 -7 16 -16v-59c0 -10 -7 -16 -16 -16h-24c-9 0 -16 7 -16 16zM37 490v41h396v-41l-328 -448h328c1 -1 0 -41 0 -41h-381v41l328 448h-343z" />
    <glyph glyph-name="Racute" unicode="&#x154;" horiz-adv-x="580" 
d="M273 792l116 133h49l-133 -133h-32zM115 358h247c68 0 132 15 132 167c0 146 -67 165 -132 165h-247v-332zM74 0v732h288c84 0 174 -32 174 -207c0 -189 -91 -206 -148 -209l158 -316h-43l-160 315c-35 1 -225 9 -228 11v-326h-41z" />
    <glyph glyph-name="Abreve" unicode="&#x102;" horiz-adv-x="662" 
d="M242 911h25c0 -51 42 -90 89 -89c52 1 91 36 91 89h25c0 -76 -61 -114 -116 -114s-114 42 -114 114zM203 277h289l-141 401zM56 0l272 732h47l261 -732h-47l-82 236h-319l-84 -236h-48z" />
    <glyph glyph-name="Lacute" unicode="&#x139;" horiz-adv-x="558" 
d="M106 794l116 133h49l-133 -133h-32zM98 126v606h41v-606c0 -79 49 -85 95 -85h287v-41h-287c-66 0 -136 13 -136 126z" />
    <glyph glyph-name="Cacute" unicode="&#x106;" horiz-adv-x="572" 
d="M310 800l116 133h49l-133 -133h-32zM68 368c0 231 41 372 243 372c52 0 154 -11 224 -24v-30c-1 0 -132 13 -224 13c-140 0 -202 -66 -202 -333c0 -206 57 -331 203 -331c105 0 223 10 223 10v-29c-70 -13 -172 -22 -224 -22c-185 0 -243 159 -243 374z" />
    <glyph glyph-name="Ccaron" unicode="&#x10c;" horiz-adv-x="572" 
d="M198 930h35l102 -100l106 100h36l-123 -130h-38zM68 368c0 231 41 372 243 372c52 0 154 -11 224 -24v-30c-1 0 -132 13 -224 13c-140 0 -202 -66 -202 -333c0 -206 57 -331 203 -331c105 0 223 10 223 10v-29c-70 -13 -172 -22 -224 -22c-185 0 -243 159 -243 374z" />
    <glyph glyph-name="Eogonek" unicode="&#x118;" horiz-adv-x="576" 
d="M98 123v479c0 98 61 132 126 130l304 -12v-29h-304c-59 0 -85 -30 -85 -89v-218l349 -7v-29l-349 -7v-218c0 -79 49 -85 95 -85h294v-28v-1h-2c-99 -53 -88 -151 24 -150v-30c-114 -16 -190 113 -48 179l-268 -11c-66 -3 -136 13 -136 126z" />
    <glyph glyph-name="Ecaron" unicode="&#x11a;" horiz-adv-x="576" 
d="M193 922h35l102 -100l106 100h36l-123 -130h-38zM98 123v479c0 98 61 132 126 130l304 -12v-29h-304c-59 0 -85 -30 -85 -89v-218l349 -7v-29l-349 -7v-218c0 -79 49 -85 95 -85h294v-29l-294 -12c-66 -3 -136 13 -136 126z" />
    <glyph glyph-name="Dcaron" unicode="&#x10e;" horiz-adv-x="666" 
d="M204 922h35l102 -100l106 100h36l-123 -130h-38zM139 42h219c155 0 218 172 218 322c0 229 -81 327 -218 327h-219v-649zM98 0v732h260c226 0 259 -219 259 -369c0 -166 -71 -363 -259 -363h-260z" />
    <glyph glyph-name="Nacute" unicode="&#x143;" horiz-adv-x="670" 
d="M344 797l116 133h49l-133 -133h-32zM98 0v732h43l423 -655v655h41v-732h-41l-425 655v-655h-41z" />
    <glyph glyph-name="Ncaron" unicode="&#x147;" horiz-adv-x="670" 
d="M216 927h35l102 -100l106 100h36l-123 -130h-38zM98 0v732h43l423 -655v655h41v-732h-41l-425 655v-655h-41z" />
    <glyph glyph-name="Ohungarumlaut" unicode="&#x150;" horiz-adv-x="675" 
d="M406 797l116 133h50l-133 -133h-33zM269 797l116 133h49l-133 -133h-32zM121 361c0 -284 61 -324 233 -324c166 0 231 44 231 324c0 316 -79 335 -231 335c-143 0 -233 -11 -233 -335zM80 361c0 343 103 376 274 376c173 0 272 -33 272 -376c0 -323 -92 -365 -272 -365
s-274 32 -274 365z" />
    <glyph glyph-name="Rcaron" unicode="&#x158;" horiz-adv-x="580" 
d="M155 924h35l102 -100l106 100h36l-123 -130h-38zM115 358h247c68 0 132 15 132 167c0 146 -67 165 -132 165h-247v-332zM74 0v732h288c84 0 174 -32 174 -207c0 -189 -91 -206 -148 -209l158 -316h-43l-160 315c-35 1 -225 9 -228 11v-326h-41z" />
    <glyph glyph-name="Uring" unicode="&#x16e;" horiz-adv-x="680" 
d="M281 899c0 -42 35 -76 77 -76s75 34 75 76s-33 77 -75 77s-77 -35 -77 -77zM256 899c0 57 46 103 102 103s100 -46 100 -103s-44 -102 -100 -102s-102 45 -102 102zM98 320v412h41v-412c0 -285 91 -284 221 -284c116 0 214 11 214 284v412h42v-412
c0 -323 -135 -325 -256 -325c-136 0 -262 -5 -262 325z" />
    <glyph glyph-name="Uhungarumlaut" unicode="&#x170;" horiz-adv-x="680" 
d="M409 797l116 133h50l-133 -133h-33zM272 797l116 133h49l-133 -133h-32zM98 320v412h41v-412c0 -285 91 -284 221 -284c116 0 214 11 214 284v412h42v-412c0 -323 -135 -325 -256 -325c-136 0 -262 -5 -262 325z" />
    <glyph glyph-name="Tcommaaccent" unicode="&#x162;" horiz-adv-x="595" 
d="M179 -165l39 9c45 9 66 26 65 110h34c0 -101 -19 -136 -101 -136h-37v17zM46 691v41h515v-41h-240v-691h-41v691h-234z" />
    <glyph glyph-name="racute" unicode="&#x155;" horiz-adv-x="424" 
d="M228 597l116 133h49l-133 -133h-32zM74 0v531h26l15 -67c61 35 124 73 211 73c29 0 57 -1 74 -8v-40c-20 4 -45 7 -74 7c-86 0 -134 -29 -211 -66v-430h-41z" />
    <glyph glyph-name="abreve" unicode="&#x103;" horiz-adv-x="519" 
d="M156 715h25c0 -51 42 -90 89 -89c52 1 91 36 91 89h25c0 -76 -61 -114 -116 -114s-114 42 -114 114zM90 131c0 -72 48 -95 92 -96c80 -1 235 57 235 57v199l-235 -12c-68 -3 -92 -43 -92 -94v-54zM49 126v61c0 83 51 133 133 133c0 0 235 -1 235 0c0 0 1 66 0 67
c0 66 -29 114 -113 115c-72 1 -145 -7 -238 -19v27c62 16 139 30 239 31c83 1 153 -44 153 -154v-387h-28l-13 64c-2 0 -139 -70 -235 -70c-73 0 -133 47 -133 132z" />
    <glyph glyph-name="lacute" unicode="&#x13a;" horiz-adv-x="298" 
d="M89 843l116 133h49l-133 -133h-32zM74 189v594h41v-594c0 -133 49 -143 80 -148c0 0 72 -14 79 -14v-27h-74c-82 0 -126 54 -126 189z" />
    <glyph glyph-name="cacute" unicode="&#x107;" horiz-adv-x="500" 
d="M255 597l116 133h49l-133 -133h-32zM62 266c0 232 72 270 174 270c52 0 143 -12 208 -26v-28s-119 13 -208 13c-80 0 -133 -26 -133 -233c0 -188 52 -226 133 -226c92 0 216 18 216 18v-30c-81 -23 -133 -28 -216 -29c-99 0 -174 38 -174 271z" />
    <glyph glyph-name="ccaron" unicode="&#x10d;" horiz-adv-x="500" 
d="M140 727h35l102 -100l106 100h36l-123 -130h-38zM62 266c0 232 72 270 174 270c52 0 143 -12 208 -26v-28s-119 13 -208 13c-80 0 -133 -26 -133 -233c0 -188 52 -226 133 -226c92 0 216 18 216 18v-30c-81 -23 -133 -28 -216 -29c-99 0 -174 38 -174 271z" />
    <glyph glyph-name="eogonek" unicode="&#x119;" horiz-adv-x="525" 
d="M103 282h237c52 0 95 8 95 65c0 135 -46 147 -161 147c-130 0 -171 -20 -171 -212zM62 268c0 235 59 267 212 267c122 0 202 -12 202 -188c0 -78 -47 -105 -136 -105h-237c0 -176 49 -206 133 -206c92 0 155 6 230 17v-30c-101 -53 -91 -152 22 -151v-30
c-109 -15 -184 102 -65 170c-63 -14 -119 -18 -187 -17c-136 1 -174 73 -174 273z" />
    <glyph glyph-name="ecaron" unicode="&#x11b;" horiz-adv-x="525" 
d="M145 724h35l102 -100l106 100h36l-123 -130h-38zM103 282h237c52 0 95 8 95 65c0 135 -46 147 -161 147c-130 0 -171 -20 -171 -212zM62 268c0 235 59 267 212 267c122 0 202 -12 202 -188c0 -78 -47 -105 -136 -105h-237c0 -176 49 -206 133 -206c92 0 155 6 230 17v-30
c-81 -23 -147 -29 -230 -28c-136 1 -174 73 -174 273z" />
    <glyph glyph-name="dcaron" unicode="&#x10f;" horiz-adv-x="552" 
d="M537 737l26 44l16 -22l-4 -90l-22 -89l-11 46zM103 263c0 -164 62 -228 140 -228c79 0 143 27 196 52v382c-69 18 -119 29 -196 29s-140 -42 -140 -235zM62 263c0 136 30 276 181 276c45 0 133 -14 197 -40v286h39v-785h-27l-13 59c-26 -22 -128 -65 -196 -65
c-145 0 -181 147 -181 269z" />
    <glyph glyph-name="nacute" unicode="&#x144;" 
d="M264 600l116 133h49l-133 -133h-32zM74 0v531h27l14 -62c59 37 128 71 209 71c106 0 164 -82 164 -170v-370h-41v370c0 75 -47 129 -123 129c-85 0 -134 -21 -209 -60v-439h-41z" />
    <glyph glyph-name="ncaron" unicode="&#x148;" 
d="M145 730h35l102 -100l106 100h36l-123 -130h-38zM74 0v531h27l14 -62c59 37 128 71 209 71c106 0 164 -82 164 -170v-370h-41v370c0 75 -47 129 -123 129c-85 0 -134 -21 -209 -60v-439h-41z" />
    <glyph glyph-name="ohungarumlaut" unicode="&#x151;" horiz-adv-x="571" 
d="M338 596l116 133h50l-133 -133h-33zM201 596l116 133h49l-133 -133h-32zM103 258c0 -199 63 -222 182 -222c121 0 184 29 184 222c0 208 -64 237 -184 237c-117 0 -182 -19 -182 -237zM62 258c0 217 59 278 223 278c175 0 225 -83 225 -278s-53 -263 -225 -263
c-177 0 -223 73 -223 263z" />
    <glyph glyph-name="rcaron" unicode="&#x159;" horiz-adv-x="424" 
d="M98 727h35l102 -100l106 100h36l-123 -130h-38zM74 0v531h26l15 -67c61 35 124 73 211 73c29 0 57 -1 74 -8v-40c-20 4 -45 7 -74 7c-86 0 -134 -29 -211 -66v-430h-41z" />
    <glyph glyph-name="uring" unicode="&#x16f;" 
d="M193 698c0 -42 35 -76 77 -76s75 34 75 76s-33 77 -75 77s-77 -35 -77 -77zM168 698c0 57 46 103 102 103s100 -46 100 -103s-44 -102 -100 -102s-102 45 -102 102zM62 162v370h41v-370c0 -75 47 -129 123 -129c85 0 134 20 209 59v440h41v-531h-27l-14 62
c-59 -37 -128 -71 -209 -71c-106 0 -164 82 -164 170z" />
    <glyph glyph-name="uhungarumlaut" unicode="&#x171;" 
d="M321 596l116 133h50l-133 -133h-33zM184 596l116 133h49l-133 -133h-32zM62 162v370h41v-370c0 -75 47 -129 123 -129c85 0 134 20 209 59v440h41v-531h-27l-14 62c-59 -37 -128 -71 -209 -71c-106 0 -164 82 -164 170z" />
    <glyph glyph-name="tcommaaccent" unicode="&#x163;" horiz-adv-x="359" 
d="M86 -170l39 9c45 9 66 26 65 110h34c0 -101 -19 -136 -101 -136h-37v17zM25 491v30l89 11l11 148h30v-148h168v-41h-168v-302c0 -133 49 -143 80 -148c0 0 72 -14 79 -14v-27h-74c-82 0 -126 54 -126 189v302h-89z" />
    <glyph glyph-name="Lslash" unicode="&#x141;" horiz-adv-x="557" 
d="M16 346v35l82 36v315h41v-298l127 55v-33l-127 -55v-275c0 -79 49 -85 95 -85h287v-41h-287c-66 0 -136 13 -136 126v256z" />
    <glyph glyph-name="lslash" unicode="&#x142;" horiz-adv-x="308" 
d="M11 389v34l73 36v324h41v-305l136 67l-1 -34l-135 -67v-255c0 -119 33 -140 80 -148c0 0 72 -14 79 -14v-27h-77c-77 0 -123 48 -123 189v236z" />
    <glyph glyph-name="Dcroat" unicode="&#x110;" horiz-adv-x="666" 
d="M139 42h213c155 0 217 172 217 322c0 227 -83 325 -217 325h-213v-302h153v-28h-153v-317zM33 359v28h65v345h254c226 0 259 -219 259 -369c0 -166 -71 -363 -259 -363h-254v359h-65z" />
    <glyph glyph-name="dcroat" unicode="&#x111;" horiz-adv-x="552" 
d="M103 263c0 -159 62 -228 140 -228c79 0 143 27 196 52v382c-69 18 -119 29 -196 29s-140 -44 -140 -235zM62 263c0 136 30 276 181 276c45 0 133 -14 197 -40v133h-128v28h128v125h39v-125h80v-28h-80v-632h-26l-14 59c-26 -22 -128 -65 -196 -65
c-145 0 -181 147 -181 269z" />
    <glyph glyph-name="questiondown.alt" horiz-adv-x="535" 
d="M302 656v61c0 10 6 15 15 15h26c9 0 16 -6 16 -15v-61c0 -10 -5 -16 -16 -16h-26c-10 0 -15 7 -15 16zM49 178v102c0 135 89 176 259 156c0 1 1 100 0 102h43v-136c-20 0 -99 1 -119 0c-85 -1 -142 -33 -142 -122v-102c0 -106 48 -143 163 -143h257v-28
c-86 -10 -168 -15 -262 -13c-155 -2 -199 73 -199 184z" />
    <glyph glyph-name="at.alt" horiz-adv-x="859" 
d="M272 207c0 -47 38 -82 94 -82c59 -1 150 35 200 59v176l-201 -12c-40 -3 -93 -19 -93 -96c0 -1 -1 -44 0 -45zM80 441c0 36 3 164 169 164h205c71 0 153 -30 153 -140v-372h-30l-9 64c-2 0 -118 -73 -209 -73c-74 -2 -129 49 -128 117v53c0 80 46 133 129 133
c81 0 206 -1 206 0c0 0 1 75 0 76c0 73 -44 101 -115 101h-202c-73 0 -127 -28 -127 -123v-348c0 -108 69 -136 127 -136h329c96 0 136 46 136 136v512c0 88 -47 147 -136 147h-394v25c48 10 162 17 288 16l106 -1c106 -2 177 -62 177 -187v-512c0 -98 -39 -178 -177 -178
h-329c-102 0 -168 62 -168 178z" />
    <glyph glyph-name="oe" unicode="&#x153;" horiz-adv-x="932" 
d="M510 282h237c52 0 95 8 95 65c0 135 -46 147 -161 147c-130 0 -173 -23 -171 -212zM103 258c0 -199 63 -222 182 -222c131 0 183 37 183 225c0 198 -61 234 -183 234c-117 0 -182 -19 -182 -237zM62 258c0 217 59 278 223 278c113 0 173 -36 201 -113
c26 96 86 112 195 112c122 0 202 -12 202 -188c0 -78 -47 -105 -136 -105h-237c-1 -172 48 -206 133 -206c92 0 155 6 230 17v-30c-81 -23 -147 -29 -230 -28c-88 1 -134 32 -156 109c-28 -79 -89 -109 -202 -109c-177 0 -223 73 -223 263z" />
    <glyph glyph-name="OE" unicode="&#x152;" horiz-adv-x="1054" 
d="M80 361c0 343 102 376 273 376c112 0 193 -14 235 -120c6 86 60 118 123 115l284 -12v-29h-284c-59 0 -85 -30 -85 -89c0 0 -1 -169 0 -218l329 -7v-29l-329 -7v-218c0 -79 49 -85 95 -85h274v-29l-274 -12c-67 -3 -127 14 -134 115c-41 -99 -119 -116 -234 -116
c-180 0 -273 32 -273 365zM121 361c0 -284 60 -324 232 -324c178 0 232 54 232 330c0 302 -76 329 -232 329c-143 0 -232 -11 -232 -335z" />
    <glyph glyph-name="Ydieresis" unicode="&#x178;" horiz-adv-x="622" 
d="M424 826c0 16 13 28 29 28s29 -12 29 -28s-13 -29 -29 -29s-29 13 -29 29zM170 826c0 16 12 28 28 28s29 -12 29 -28s-13 -29 -29 -29s-28 13 -28 29zM56 732h45l215 -422l234 422h46l-260 -472v-260h-41v260z" />
    <glyph glyph-name="g.salt" horiz-adv-x="560" 
d="M103 268c0 -146 28 -237 143 -237c74 0 116 11 199 32v433h-199c-111 0 -143 -108 -143 -228zM62 268c0 168 59 269 184 269c106 0 193 -12 240 -16v-625c0 -124 -89 -175 -158 -168l-238 24v26l238 -10c54 -3 117 35 117 128v133c-64 -26 -154 -39 -199 -39
c-153 0 -184 120 -184 278z" />
    <glyph glyph-name="guilsinglleft" unicode="&#x2039;" horiz-adv-x="355" 
d="M62 354l206 203l28 -28l-178 -175l184 -179l-30 -29z" />
    <glyph glyph-name="guilsinglright" unicode="&#x203a;" horiz-adv-x="355" 
d="M62 175l182 179l-178 175l30 28l206 -203l-212 -208z" />
    <glyph glyph-name="perthousand" unicode="&#x2030;" horiz-adv-x="1379" 
d="M1003 128c0 -73 28 -93 95 -93h101c71 0 97 19 97 93v133c0 68 -22 93 -95 93h-101c-72 0 -97 -19 -97 -93v-133zM971 128v133c0 85 28 125 129 125h101c98 0 127 -40 127 -125v-133c0 -85 -28 -125 -129 -125h-101c-98 0 -127 40 -127 125zM578 128c0 -73 28 -93 95 -93
h101c71 0 97 19 97 93v133c0 68 -22 93 -95 93h-101c-72 0 -97 -19 -97 -93v-133zM546 128v133c0 85 28 125 129 125h101c98 0 127 -40 127 -125v-133c0 -85 -28 -125 -129 -125h-101c-98 0 -127 40 -127 125zM237 0l438 732h38l-438 -732h-38zM84 474c0 -73 28 -93 95 -93
h101c71 0 97 19 97 93v133c0 68 -22 93 -95 93h-101c-72 0 -97 -19 -97 -93v-133zM52 474v133c0 85 28 125 129 125h101c98 0 127 -40 127 -125v-133c0 -85 -28 -125 -129 -125h-101c-98 0 -127 40 -127 125z" />
    <glyph glyph-name="dagger" unicode="&#x2020;" horiz-adv-x="393" 
d="M25 504v29l150 7l6 230h31l6 -230l151 -7v-29l-151 -7l-7 -569h-31l-5 569z" />
    <glyph glyph-name="daggerdbl" unicode="&#x2021;" horiz-adv-x="417" 
d="M25 187v29l152 7l-2 274l-150 7v29l150 7l7 230h30l6 -230l151 -7v-29l-151 -7l-3 -274l154 -7v-29l-155 -7l-3 -252h-31l-2 252z" />
    <glyph glyph-name="trademark" unicode="&#x2122;" horiz-adv-x="699" 
d="M323 383l27 349h28l128 -296l115 296h30l31 -349h-30l-25 278l-108 -278h-25l-120 279l-21 -279h-30zM25 701v31h259v-31h-114v-318h-31v318h-114z" />
    <glyph glyph-name="notequal" unicode="&#x2260;" horiz-adv-x="476" 
d="M25 212v43h138l120 197h-258v43h284l46 75h32l-46 -75h111v-43h-136l-120 -197h256v-43h-283l-52 -86h-32l52 86h-112z" />
    <glyph glyph-name="infinity" unicode="&#x221e;" horiz-adv-x="809" 
d="M423 342c40 -67 100 -132 172 -132c93 0 112 56 112 131c0 77 -14 132 -112 132c-58 0 -134 -72 -172 -131zM103 341c0 -86 26 -131 112 -131c81 0 140 84 170 132c-43 64 -112 131 -170 131c-93 0 -112 -41 -112 -132zM62 341c0 87 15 173 153 173
c76 0 151 -77 189 -135c35 56 115 135 191 135c138 0 153 -93 153 -173c0 -92 -26 -172 -153 -172c-86 0 -154 71 -191 138c-39 -73 -104 -138 -189 -138c-127 0 -153 80 -153 172z" />
    <glyph glyph-name="lessequal" unicode="&#x2264;" horiz-adv-x="498" 
d="M62 414v41l354 182v-45l-301 -157l301 -168v-46zM62 120v41h377v-41h-377z" />
    <glyph glyph-name="greaterequal" unicode="&#x2265;" horiz-adv-x="498" 
d="M83 221v46l301 168l-301 157v45l356 -182v-41zM62 120v41h377v-41h-377z" />
    <glyph glyph-name="circumflex" unicode="&#x2c6;" horiz-adv-x="401" 
d="M62 531l127 130h37l115 -130h-36l-98 100l-109 -100h-36z" />
    <glyph glyph-name="tilde" unicode="&#x2dc;" horiz-adv-x="461" 
d="M62 572c36 31 70 60 110 60c43 -1 89 -60 120 -60c34 0 70 29 96 47l12 -19c-33 -30 -67 -63 -109 -62c-47 1 -86 60 -120 60c-40 0 -63 -23 -99 -45z" />
    <glyph glyph-name="ring" unicode="&#x2da;" horiz-adv-x="326" 
d="M87 632c0 -42 35 -76 77 -76s75 34 75 76s-33 77 -75 77s-77 -35 -77 -77zM62 632c0 57 46 103 102 103s100 -46 100 -103s-44 -102 -100 -102s-102 45 -102 102z" />
    <glyph glyph-name="ellipsis" unicode="&#x2026;" horiz-adv-x="810" 
d="M644 16v60c0 10 6 16 17 16h25c11 0 16 -6 16 -16v-60c0 -11 -7 -16 -16 -16h-25c-9 0 -17 7 -17 16zM372 16v60c0 10 6 16 17 16h25c11 0 16 -6 16 -16v-60c0 -11 -7 -16 -16 -16h-25c-9 0 -17 7 -17 16zM100 16v60c0 10 6 16 17 16h25c11 0 16 -6 16 -16v-60
c0 -11 -7 -16 -16 -16h-25c-9 0 -17 7 -17 16z" />
    <glyph glyph-name="fraction" unicode="&#x2044;" horiz-adv-x="185" 
d="M-111 0l373 757h34l-373 -757h-34z" />
    <glyph glyph-name="dotlessi" unicode="&#x131;" horiz-adv-x="188" 
d="M74 0v531h41v-531h-41z" />
    <glyph glyph-name="ampersand.salt" horiz-adv-x="940" 
d="M236 210h243c68 0 89 7 89 71c0 61 -20 70 -89 70h-129c-68 0 -114 -22 -114 -141zM95 286c0 -64 55 -75 100 -76c0 117 44 182 155 182h129c61 0 130 -1 130 -111c0 -97 -40 -112 -130 -112h-243c0 -116 59 -127 147 -128h144c98 0 192 25 192 146v304h-454
c-116 0 -170 -9 -170 -116v-89zM54 286v89c0 137 77 157 211 157h454l13 148h28v-149h155v-27l-155 -13v-304c0 -163 -130 -187 -233 -187h-144c-111 0 -188 21 -188 169c-60 0 -141 22 -141 117z" />
    <glyph glyph-name="a.superior" horiz-adv-x="368" 
d="M71 467c0 -43 35 -60 69 -60c60 0 148 49 148 49v121l-148 -9c-43 -2 -69 -23 -69 -61v-40zM38 463v46c0 54 38 90 100 90c0 0 150 0 150 1c0 0 1 30 0 31c0 53 -30 76 -86 76c-54 0 -94 -1 -152 -7v23c50 11 80 14 155 16c62 1 115 -30 115 -103v-258h-21l-11 56
c-2 0 -87 -60 -150 -60c-52 0 -100 31 -100 89z" />
    <glyph glyph-name="b.superior" horiz-adv-x="388" 
d="M80 453c33 -17 74 -46 133 -46c66 0 98 49 98 147c0 118 -27 152 -96 152c-58 0 -89 -11 -135 -22v-231zM47 378v524h33v-193c48 20 105 30 139 30c114 0 125 -94 125 -185c0 -82 -19 -180 -128 -180c-64 0 -117 41 -136 56l-12 -52h-21z" />
    <glyph glyph-name="c.superior" horiz-adv-x="357" 
d="M38 555c0 155 54 182 131 182c39 0 92 -9 142 -20v-23s-89 10 -140 10c-60 0 -100 -15 -100 -151c0 -110 29 -147 101 -147c75 0 144 13 144 13v-24c-46 -15 -85 -21 -147 -22c-74 0 -131 26 -131 182z" />
    <glyph glyph-name="d.superior" horiz-adv-x="386" 
d="M71 554c0 -98 32 -147 98 -147c59 0 101 29 134 46v232c-46 11 -77 21 -135 21c-69 0 -97 -34 -97 -152zM38 554c0 91 11 185 125 185c34 0 92 -10 140 -30v194h33v-525h-22l-11 52c-19 -15 -73 -56 -137 -56c-109 0 -128 98 -128 180z" />
    <glyph glyph-name="e.superior" horiz-adv-x="388" 
d="M71 569h165c41 0 76 5 76 40c0 72 -25 91 -113 91c-81 0 -128 -13 -128 -131zM38 557c0 133 40 176 161 176c76 0 146 -6 146 -125c0 -50 -31 -71 -107 -71h-167c0 -114 39 -131 105 -131c69 0 104 3 161 13v-23c-61 -17 -105 -23 -167 -23c-91 0 -132 38 -132 184z" />
    <glyph glyph-name="f.superior" horiz-adv-x="326" 
d="M32 687v21l74 10v80c0 36 7 105 97 105c37 0 60 -4 92 -10v-22h-78c-63 0 -78 -27 -78 -77v-75h124v-32h-124v-309h-33v309h-74z" />
    <glyph glyph-name="g.superior" horiz-adv-x="414" 
d="M78 603c0 -50 31 -92 91 -92h52c58 0 92 36 92 92c0 53 -28 97 -81 97h-63c-76 0 -91 -54 -91 -97zM75 300c0 -61 32 -82 85 -82h89c52 0 75 25 75 77v5c0 45 -38 55 -74 59l-141 16c-14 1 -34 8 -34 8v-83zM43 291v42l14 59c-16 14 -18 32 -18 50c0 25 18 52 66 55
c-31 12 -60 54 -60 106c0 86 48 129 121 129h211v-18l-74 -14c16 -7 44 -42 44 -97c0 -53 -25 -123 -122 -123h-93c-11 0 -59 -3 -60 -36c-1 -22 10 -35 38 -38l149 -17c59 -7 98 -32 98 -86v-8c0 -41 -12 -109 -101 -109h-104c-64 0 -109 34 -109 105z" />
    <glyph glyph-name="h.superior" horiz-adv-x="393" 
d="M47 378v523h33v-216c37 25 89 54 150 54c81 0 116 -55 116 -114v-247h-33v243c0 56 -40 85 -87 85c-59 0 -99 -20 -146 -43v-285h-33z" />
    <glyph glyph-name="i.superior" horiz-adv-x="129" 
d="M46 378v356h33v-356h-33zM42 794v36c0 9 5 15 14 15h16c9 0 13 -7 13 -15v-36c0 -9 -5 -13 -13 -13h-16c-8 0 -14 5 -14 13z" />
    <glyph glyph-name="j.superior" horiz-adv-x="131" 
d="M47 196v537h34v-358c1 -58 -3 -124 -13 -179h-21zM43 795v37c0 9 5 14 14 14h16c9 0 13 -6 13 -14v-37c0 -9 -5 -13 -13 -13h-16c-8 0 -14 5 -14 13z" />
    <glyph glyph-name="k.superior" horiz-adv-x="358" 
d="M47 378v521h33v-308h49l146 140h46l-162 -156l166 -197h-43l-151 180h-51v-180h-33z" />
    <glyph glyph-name="l.superior" horiz-adv-x="245" 
d="M46 504v396h33v-393c0 -76 24 -90 67 -97c0 0 64 -10 66 -10v-22h-67c-73 0 -99 41 -99 126z" />
    <glyph glyph-name="m.superior" horiz-adv-x="650" 
d="M47 378v354h26l7 -48c37 25 88 54 148 54c50 0 87 -22 103 -54c36 27 93 54 155 54c77 0 117 -52 117 -114v-246h-33v242c0 55 -40 85 -87 85c-57 0 -103 -19 -143 -41c5 -11 7 -30 7 -43v-243h-33v242c0 55 -40 85 -87 85c-60 0 -100 -20 -147 -43v-284h-33z" />
    <glyph glyph-name="n.superior" horiz-adv-x="393" 
d="M47 378v354h25l7 -47c37 25 90 54 151 54c81 0 116 -55 116 -114v-247h-33v244c0 56 -39 84 -86 84c-60 0 -100 -20 -147 -43v-285h-33z" />
    <glyph glyph-name="o.superior" horiz-adv-x="393" 
d="M71 550c0 -116 37 -142 124 -142c97 0 121 43 121 142c0 121 -30 152 -123 152c-98 0 -122 -42 -122 -152zM38 550c0 119 28 185 157 185c126 0 153 -65 153 -185c0 -110 -27 -175 -153 -175c-128 0 -157 63 -157 175z" />
    <glyph glyph-name="p.superior" horiz-adv-x="387" 
d="M79 425c44 -11 80 -22 136 -22c68 0 95 34 95 153c0 99 -31 148 -96 148c-57 0 -103 -29 -135 -46v-233zM47 195v538h22l10 -52c19 15 75 56 138 56c107 0 126 -99 126 -181c0 -91 -13 -186 -124 -186c-33 0 -93 10 -140 30v-205h-32z" />
    <glyph glyph-name="q.superior" horiz-adv-x="389" 
d="M71 556c0 -88 23 -157 113 -157c56 0 59 7 121 21v287h-121c-85 0 -113 -68 -113 -151zM38 556c0 114 45 183 139 183c80 0 126 -9 161 -12v-533h-33v203c-48 -20 -94 -30 -128 -30c-115 0 -139 96 -139 189z" />
    <glyph glyph-name="r.superior" horiz-adv-x="330" 
d="M47 378v354h21l12 -51c39 24 88 55 151 55c22 0 47 -2 56 -6v-31c-9 2 -34 4 -56 4c-62 0 -99 -19 -151 -44v-281h-33z" />
    <glyph glyph-name="s.superior" horiz-adv-x="373" 
d="M38 616v35c0 57 25 91 95 91c36 0 140 -9 176 -13v-22l-168 2c-61 1 -70 -24 -70 -66v-24c0 -49 18 -49 65 -49h106c59 0 89 -26 89 -79v-37c0 -72 -46 -87 -90 -87c-34 0 -160 13 -186 16v21l175 -3c22 -1 68 -6 68 62v25c0 37 -17 49 -61 49h-106c-63 0 -93 8 -93 79z
" />
    <glyph glyph-name="t.superior" horiz-adv-x="311" 
d="M33 701v22l74 9l12 101h21v-99h112v-33h-112v-196c0 -70 15 -90 69 -97l57 -8v-21h-59c-71 0 -100 32 -100 124v198h-74z" />
    <glyph glyph-name="u.superior" horiz-adv-x="392" 
d="M45 492v245h33v-244c0 -54 39 -84 86 -84c59 0 97 19 144 42v286h33v-354h-25l-8 46c-37 -25 -86 -53 -147 -53c-81 0 -116 57 -116 116z" />
    <glyph glyph-name="v.superior" horiz-adv-x="413" 
d="M31 732h37l140 -307l135 307h37l-157 -354h-31z" />
    <glyph glyph-name="w.superior" horiz-adv-x="620" 
d="M31 732h37l140 -307l135 307h37l-52 -118l87 -189l136 307h36l-157 -354h-31l-90 195l-86 -195h-31z" />
    <glyph glyph-name="x.superior" horiz-adv-x="380" 
d="M32 378l138 178l-137 176h40l117 -149l115 149h41l-136 -176l138 -178h-41l-116 152l-118 -152h-41z" />
    <glyph glyph-name="y.superior" horiz-adv-x="419" 
d="M31 733h37l112 -277c12 -29 28 -46 48 -46l122 323h37l-175 -469l-45 -68h-20l69 180c-33 6 -57 37 -69 66z" />
    <glyph glyph-name="z.superior" horiz-adv-x="373" 
d="M38 702v30h290v-24l-239 -299h238c1 -1 0 -30 0 -30h-278v30l235 293h-246z" />
    <glyph glyph-name="zero.tnum" horiz-adv-x="625" 
d="M111 162c0 -84 55 -121 131 -121h144c90 0 127 47 127 121v408c0 75 -38 121 -127 121h-144c-83 0 -131 -47 -131 -121v-408zM70 162v408c0 108 77 162 172 162h144c122 0 168 -73 168 -162v-408c0 -119 -69 -162 -168 -162h-144c-91 0 -172 42 -172 162z" />
    <glyph glyph-name="one.tnum" horiz-adv-x="624" 
d="M156 619v27l173 86h41v-689h174v-44h-396v44h181v643z" />
    <glyph glyph-name="two.tnum" horiz-adv-x="624" 
d="M69 700v29c103 13 213 13 284 13c146 0 203 -93 203 -210c0 -186 -347 -449 -405 -491h405v-41h-480v38c102 77 438 329 438 495c0 117 -59 167 -162 167h-283z" />
    <glyph glyph-name="three.tnum" horiz-adv-x="624" 
d="M81 693v25c70 18 181 18 298 16c116 -2 171 -73 171 -165v-69c0 -94 -69 -128 -102 -135c35 -12 102 -51 102 -145v-59c0 -109 -56 -168 -178 -168c-114 0 -229 1 -285 17l1 25h281c70 0 138 20 138 126v59c0 93 -79 121 -135 123l-223 7v29l223 7c75 2 137 37 137 114
v69c0 87 -62 124 -134 124h-294z" />
    <glyph glyph-name="four.tnum" horiz-adv-x="624" 
d="M53 233l312 499h47l-301 -486h346v226l19 75h22v-301h90v-29l-90 -13v-202h-41v202h-385z" />
    <glyph glyph-name="five.tnum" horiz-adv-x="624" 
d="M89 11v28h304c70 0 122 48 122 129v100c0 44 -10 127 -123 127h-153c-53 0 -111 -46 -111 -108h-38l22 445h423v-41h-385l-15 -309c10 16 48 53 106 54c67 2 121 0 152 0c118 0 163 -69 163 -166v-104c0 -137 -101 -170 -163 -170c-124 0 -211 1 -304 15z" />
    <glyph glyph-name="six.tnum" horiz-adv-x="624" 
d="M130 371c0 -135 15 -331 147 -331h129c58 0 121 16 121 109v117c0 90 -55 105 -121 105h-276zM89 384c0 260 83 354 172 354c101 0 208 -3 282 -12v-29h-276c-115 0 -136 -197 -137 -299c85 10 202 15 276 15c135 0 161 -66 161 -147v-118c0 -112 -67 -149 -161 -149
h-129c-109 0 -188 78 -188 385z" />
    <glyph glyph-name="seven.tnum" horiz-adv-x="625" 
d="M85 691v41h445l20 -32l-247 -700h-49l245 691h-414z" />
    <glyph glyph-name="eight.tnum" horiz-adv-x="624" 
d="M121 494c0 -89 69 -100 124 -100h139c89 0 119 57 119 100v68c0 98 -40 134 -121 134h-126c-94 0 -135 -35 -135 -134v-68zM121 151c0 -78 54 -110 135 -110h125c55 0 122 29 122 110v105c0 89 -71 98 -119 98h-139c-46 0 -124 -23 -124 -98v-105zM80 154v99
c0 75 56 107 95 111c-79 17 -95 82 -95 135v65c0 134 73 173 176 173h126c107 0 162 -50 162 -173v-65c0 -43 -25 -110 -86 -118c65 -17 86 -73 86 -129v-98c0 -130 -99 -154 -163 -154h-125c-172 0 -176 113 -176 154z" />
    <glyph glyph-name="nine.tnum" horiz-adv-x="624" 
d="M105 468c0 -90 55 -105 121 -105h276c0 135 -15 331 -147 331h-129c-58 0 -121 -16 -121 -109v-117zM65 468v118c0 112 67 149 161 149h129c109 0 188 -78 188 -385c0 -260 -83 -354 -172 -354c-101 0 -207 1 -282 12v29h276c115 0 136 196 137 298
c-85 -10 -202 -14 -276 -14c-135 0 -161 66 -161 147z" />
    <glyph glyph-name="zero.tosf" horiz-adv-x="624" 
d="M112 162c0 -84 55 -121 131 -121h144c90 0 127 47 127 121v307c0 75 -38 121 -127 121h-144c-83 0 -131 -47 -131 -121v-307zM71 162v307c0 108 77 162 172 162h144c122 0 168 -71 168 -162v-307c0 -119 -69 -162 -168 -162h-144c-91 0 -172 42 -172 162z" />
    <glyph glyph-name="one.tosf" horiz-adv-x="624" 
d="M158 520v27l168 85h41v-589h173v-44h-390v44h176v543z" />
    <glyph glyph-name="two.tosf" horiz-adv-x="624" 
d="M69 598v27c67 10 168 18 283 13c140 0 203 -74 203 -187c0 -167 -336 -380 -395 -410h389v-41h-474v38c104 56 438 263 438 415c0 105 -66 146 -169 145h-275z" />
    <glyph glyph-name="three.tosf" horiz-adv-x="624" 
d="M81 594v25c70 18 181 18 298 16c116 -2 171 -73 171 -165v-69c0 -94 -69 -129 -102 -136c35 -12 102 -50 102 -144v-59c0 -109 -56 -168 -178 -168c-114 0 -229 0 -285 16l1 26h281c70 0 138 20 138 126v59c0 93 -79 121 -135 123l-223 7v29l223 7c75 2 137 37 137 114
v69c0 87 -62 124 -134 124h-294z" />
    <glyph glyph-name="four.tosf" horiz-adv-x="624" 
d="M55 132l312 499h47l-301 -486h346v226l19 75h22v-301h90v-29l-90 -13v-202h-41v202h-385z" />
    <glyph glyph-name="five.tosf" horiz-adv-x="624" 
d="M94 -62h304c70 0 122 48 122 129v100c0 44 -10 127 -123 127h-153c-53 0 -111 -46 -111 -108h-38l22 445h423v-41h-385l-15 -308c10 16 49 52 107 53c67 2 120 0 151 0c118 0 163 -69 163 -166v-104c0 -137 -101 -170 -163 -170c-124 0 -211 1 -304 15v28z" />
    <glyph glyph-name="six.tosf" horiz-adv-x="624" 
d="M126 371c0 -135 15 -331 147 -331h129c58 0 121 16 121 109v117c0 90 -55 105 -121 105h-276zM85 384c0 260 83 354 172 354c101 0 208 -3 282 -12v-29h-276c-115 0 -136 -197 -137 -299c85 10 202 15 276 15c135 0 161 -66 161 -147v-118c0 -112 -67 -149 -161 -149
h-129c-109 0 -188 78 -188 385z" />
    <glyph glyph-name="seven.tosf" horiz-adv-x="624" 
d="M82 590v41h445l20 -31l-247 -701h-49l245 691h-414z" />
    <glyph glyph-name="eight.tosf" horiz-adv-x="624" 
d="M125 494c0 -89 69 -100 124 -100h139c89 0 119 57 119 100v68c0 98 -40 134 -121 134h-126c-94 0 -135 -35 -135 -134v-68zM125 151c0 -78 54 -110 135 -110h125c55 0 122 29 122 110v105c0 89 -71 98 -119 98h-139c-46 0 -124 -23 -124 -98v-105zM84 154v99
c0 75 56 107 95 111c-79 17 -95 82 -95 135v65c0 134 73 173 176 173h126c107 0 162 -50 162 -173v-65c0 -43 -25 -110 -86 -118c65 -17 86 -73 86 -129v-98c0 -130 -99 -154 -163 -154h-125c-172 0 -176 113 -176 154z" />
    <glyph glyph-name="nine.tosf" horiz-adv-x="624" 
d="M111 365c0 -90 55 -105 121 -105h276c0 135 -15 331 -147 331h-129c-58 0 -121 -16 -121 -109v-117zM71 365v118c0 112 67 149 161 149h129c109 0 188 -78 188 -385c0 -260 -83 -354 -172 -354c-101 0 -209 1 -282 12v29h276c115 0 136 197 137 299
c-85 -10 -202 -15 -276 -15c-135 0 -161 66 -161 147z" />
    <glyph glyph-name="partialdiff" unicode="&#x2202;" horiz-adv-x="664" 
d="M111 229c0 -133 95 -193 199 -193c179 0 213 234 213 328c-34 19 -124 44 -200 44c-140 0 -212 -54 -212 -179zM70 227c0 151 86 221 253 221c51 0 134 -8 200 -55c-4 201 -59 306 -224 306c-77 0 -146 -31 -183 -54l-12 24c67 44 113 71 198 71c193 0 262 -137 262 -353
c0 -197 -70 -392 -252 -392c-131 0 -242 74 -242 232z" />
    <glyph glyph-name="summation" unicode="&#x2211;" horiz-adv-x="573" 
d="M49 -156l214 426l-214 421v41h500v-41h-450l213 -421l-213 -426h450v-44h-500v44z" />
    <glyph glyph-name="product" unicode="&#x220f;" horiz-adv-x="607" 
d="M25 691v41h557v-41h-87v-691h-41v691h-302v-691h-41v691h-86z" />
    <glyph glyph-name="pi" unicode="&#x3c0;" horiz-adv-x="615" 
d="M25 490v41h517v-41h-129v-324c0 -94 26 -129 85 -129h92v-24c-46 -14 -57 -18 -92 -18c-83 0 -126 39 -126 171v324h-220v-490h-41v490h-86z" />
    <glyph glyph-name="integral" unicode="&#x222b;" horiz-adv-x="450" 
d="M25 -163h94c87 0 85 104 85 251v418c0 159 6 294 123 294c61 0 72 -7 99 -15v-26h-95c-89 0 -86 -125 -86 -253v-418c0 -159 1 -292 -119 -292c-41 0 -85 4 -101 15v26z" />
    <glyph glyph-name="Omega" unicode="&#x3a9;" horiz-adv-x="788" 
d="M79 388c0 154 53 351 315 351c248 0 309 -174 309 -356c0 -117 -36 -253 -163 -342l168 -10v-31h-228v42c142 94 182 211 182 343c0 163 -50 313 -268 313s-274 -148 -274 -318c0 -143 37 -222 185 -338v-42h-220v31l166 11c-161 116 -172 233 -172 346z" />
    <glyph glyph-name="radical" unicode="&#x221a;" horiz-adv-x="604" 
d="M25 317v41h113l136 -296l265 738h41l-285 -800h-35l-147 317h-88z" />
    <glyph glyph-name="florin" unicode="&#x192;" horiz-adv-x="597" 
d="M25 -188l4 25h80c96 0 121 152 136 251l51 325h-102l7 42h102l8 51c24 150 53 294 170 294c49 0 86 -14 92 -16l-4 -25h-88c-88 0 -108 -136 -128 -253l-8 -52h143l-7 -41h-143l-51 -325c-20 -131 -46 -292 -178 -292c-39 0 -78 12 -84 16z" />
    <glyph glyph-name="approxequal" unicode="&#x2248;" horiz-adv-x="492" 
d="M62 427c36 31 72 62 120 62c46 0 92 -60 134 -60s73 29 104 48l12 -19c-35 -31 -69 -65 -117 -65s-92 61 -134 61s-69 -24 -109 -46zM62 251c36 31 72 62 120 62c46 0 92 -61 134 -61s73 30 104 49l12 -19c-35 -31 -69 -66 -117 -66s-92 61 -134 61s-69 -24 -109 -46z
" />
    <glyph glyph-name="uni2206" unicode="&#x2206;" horiz-adv-x="733" 
d="M89 41h557l-272 633zM25 0l328 732h39l317 -732h-684z" />
    <glyph glyph-name="lozenge" unicode="&#x25ca;" horiz-adv-x="531" 
d="M73 373l196 -323l191 323l-191 314zM25 373l223 359h41l218 -359l-218 -373h-41z" />
    <glyph glyph-name="cdotaccent" unicode="&#x10b;" horiz-adv-x="500" 
d="M254 614v59c0 10 5 16 16 16h24c10 0 16 -7 16 -16v-59c0 -10 -7 -16 -16 -16h-24c-9 0 -16 7 -16 16zM62 266c0 232 72 270 174 270c52 0 143 -12 208 -26v-28s-119 13 -208 13c-80 0 -133 -26 -133 -233c0 -188 52 -226 133 -226c92 0 216 18 216 18v-30
c-81 -23 -133 -28 -216 -29c-99 0 -174 38 -174 271z" />
    <glyph glyph-name="ccircumflex" unicode="&#x109;" horiz-adv-x="500" 
d="M134 597l127 130h37l115 -130h-36l-98 100l-109 -100h-36zM62 266c0 232 72 270 174 270c52 0 143 -12 208 -26v-28s-119 13 -208 13c-80 0 -133 -26 -133 -233c0 -188 52 -226 133 -226c92 0 216 18 216 18v-30c-81 -23 -133 -28 -216 -29c-99 0 -174 38 -174 271z" />
    <glyph glyph-name="Hbar" unicode="&#x126;" horiz-adv-x="661" 
d="M139 374h410v156h-410v-156zM35 530v28h63v174h41v-174h410v174h41v-174h63v-28h-63v-530h-41v334h-410v-334h-41v530h-63z" />
    <glyph glyph-name="Hcircumflex" unicode="&#x124;" horiz-adv-x="655" 
d="M205 797l127 130h37l115 -130h-36l-98 100l-109 -100h-36zM98 0v732h41v-358h410v358h41v-732h-41v334h-410v-334h-41z" />
    <glyph glyph-name="Idotaccent" unicode="&#x130;" horiz-adv-x="204" 
d="M91 813v59c0 10 5 16 16 16h24c10 0 16 -7 16 -16v-59c0 -10 -7 -16 -16 -16h-24c-9 0 -16 7 -16 16zM98 0v732h41v-732h-41z" />
    <glyph glyph-name="Gbreve" unicode="&#x11e;" horiz-adv-x="617" 
d="M225 914h25c0 -51 42 -90 89 -89c52 1 91 36 91 89h25c0 -76 -61 -114 -116 -114s-114 42 -114 114zM68 370c0 200 24 370 223 370c52 0 181 -14 251 -27v-33c-6 0 -155 19 -251 19c-154 0 -182 -119 -182 -331c0 -239 40 -331 187 -332c77 0 221 48 221 48v263h-198v26
c40 11 90 16 171 16c21 0 44 -1 68 -3v-386h-28l-11 52c-33 -18 -133 -57 -223 -57c-207 -2 -228 166 -228 375z" />
    <glyph glyph-name="Jcircumflex" unicode="&#x134;" horiz-adv-x="352" 
d="M127 797l127 130h37l115 -130h-36l-98 100l-109 -100h-36zM43 21l4 28c83 -24 199 -46 199 116v567h41v-567c0 -47 -5 -114 -52 -147c-46 -33 -140 -31 -192 3z" />
    <glyph glyph-name="hbar" unicode="&#x127;" 
d="M1 624v27h73v133h42v-133h140v-27h-140v-155c59 37 135 71 211 71c105 1 161 -81 161 -169v-371h-42v370c-1 76 -42 130 -125 130c-76 -1 -130 -22 -205 -61v-439h-42v624h-73z" />
    <glyph glyph-name="hcircumflex" unicode="&#x125;" 
d="M-35 844l127 130h37l115 -130h-36l-98 100l-109 -100h-36zM87 0v784h41v-315c59 37 128 71 209 71c106 0 164 -82 164 -170v-370h-41v370c0 78 -47 129 -123 129c-85 0 -134 -21 -209 -60v-439h-41z" />
    <glyph glyph-name="jcircumflex" unicode="&#x135;" horiz-adv-x="185" 
d="M70 -270v801h42v-535c1 -86 -1 -177 -16 -266h-26zM-53 597l127 140h38l114 -140h-32l-102 108l-112 -108h-33z" />
    <glyph glyph-name="Cdotaccent" unicode="&#x10a;" horiz-adv-x="572" 
d="M316 817v59c0 10 5 16 16 16h24c10 0 16 -7 16 -16v-59c0 -10 -7 -16 -16 -16h-24c-9 0 -16 7 -16 16zM68 368c0 231 41 372 243 372c52 0 154 -11 224 -24v-30c-1 0 -132 13 -224 13c-140 0 -202 -66 -202 -333c0 -206 57 -331 203 -331c105 0 223 10 223 10v-29
c-70 -13 -172 -22 -224 -22c-185 0 -243 159 -243 374z" />
    <glyph glyph-name="Ccircumflex" unicode="&#x108;" horiz-adv-x="572" 
d="M193 800l127 130h37l115 -130h-36l-98 100l-109 -100h-36zM68 368c0 231 41 372 243 372c52 0 154 -11 224 -24v-30c-1 0 -132 13 -224 13c-140 0 -202 -66 -202 -333c0 -206 57 -331 203 -331c105 0 223 10 223 10v-29c-70 -13 -172 -22 -224 -22
c-185 0 -243 159 -243 374z" />
    <glyph glyph-name="Gdotaccent" unicode="&#x120;" horiz-adv-x="617" 
d="M309 816v59c0 10 5 16 16 16h24c10 0 16 -7 16 -16v-59c0 -10 -7 -16 -16 -16h-24c-9 0 -16 7 -16 16zM68 370c0 200 24 370 223 370c52 0 181 -14 251 -27v-33c-6 0 -155 19 -251 19c-154 0 -182 -119 -182 -331c0 -239 40 -331 187 -332c77 0 221 48 221 48v263h-198
v26c40 11 90 16 171 16c21 0 44 -1 68 -3v-386h-28l-11 52c-33 -18 -133 -57 -223 -57c-207 -2 -228 166 -228 375z" />
    <glyph glyph-name="Gcircumflex" unicode="&#x11c;" horiz-adv-x="617" 
d="M191 800l127 130h37l115 -130h-36l-98 100l-109 -100h-36zM68 370c0 200 24 370 223 370c52 0 181 -14 251 -27v-33c-6 0 -155 19 -251 19c-154 0 -182 -119 -182 -331c0 -239 40 -331 187 -332c77 0 221 48 221 48v263h-198v26c40 11 90 16 171 16c21 0 44 -1 68 -3
v-386h-28l-11 52c-33 -18 -133 -57 -223 -57c-207 -2 -228 166 -228 375z" />
    <glyph glyph-name="Ubreve" unicode="&#x16c;" horiz-adv-x="680" 
d="M242 911h25c0 -51 42 -90 89 -89c52 1 91 36 91 89h25c0 -76 -61 -114 -116 -114s-114 42 -114 114zM98 320v412h41v-412c0 -285 91 -284 221 -284c116 0 214 11 214 284v412h42v-412c0 -323 -135 -325 -256 -325c-136 0 -262 -5 -262 325z" />
    <glyph glyph-name="Scircumflex" unicode="&#x15c;" horiz-adv-x="585" 
d="M169 798l127 130h37l115 -130h-36l-98 100l-109 -100h-36zM80 494v66c0 145 83 178 195 178c53 0 186 -14 231 -21v-29c-64 4 -231 9 -231 9c-93 4 -154 -23 -154 -137v-66c0 -100 51 -114 132 -114h123c133 0 160 -74 160 -156v-68c0 -142 -97 -164 -196 -164
c-49 0 -194 10 -240 18v31c43 -4 147 -8 240 -8c73 0 155 16 155 123v68c0 75 -31 114 -119 114h-121c-157 0 -175 76 -175 156z" />
    <glyph glyph-name="ubreve" unicode="&#x16d;" 
d="M157 710h25c0 -51 42 -90 89 -89c52 1 91 36 91 89h25c0 -76 -61 -114 -116 -114s-114 42 -114 114zM62 162v370h41v-370c0 -75 47 -129 123 -129c85 0 134 20 209 59v440h41v-531h-27l-14 62c-59 -37 -128 -71 -209 -71c-106 0 -164 82 -164 170z" />
    <glyph glyph-name="scircumflex" unicode="&#x15d;" horiz-adv-x="504" 
d="M111 596l127 130h37l115 -130h-36l-98 100l-109 -100h-36zM49 361v46c0 82 35 129 138 129c52 0 189 -6 241 -11v-29h-241c-77 0 -97 -30 -97 -89v-46c0 -75 35 -76 97 -76h138c80 0 130 -45 130 -120v-49c0 -109 -66 -121 -130 -121c-49 0 -216 9 -254 13v28h254
c31 0 89 -2 89 80v49c0 44 -27 79 -89 79h-138c-94 0 -138 14 -138 117z" />
    <glyph glyph-name="gbreve" unicode="&#x11f;" horiz-adv-x="566" 
d="M162 710h25c0 -51 42 -90 89 -89c52 1 91 36 91 89h25c0 -76 -61 -114 -116 -114s-114 42 -114 114zM98 344c0 -87 43 -138 125 -138h101c98 0 128 73 128 138c-1 99 -40 148 -100 148h-129c-100 0 -125 -64 -125 -148zM97 -116c0 -99 78 -114 116 -114h150
c66 0 110 29 110 107v55c0 55 -24 96 -104 96h-202c-47 0 -70 22 -70 22v-166zM59 118c0 31 23 69 76 73c-64 30 -77 96 -77 153c0 130 56 189 172 189h312v-28l-101 -13c16 -15 51 -47 51 -148c0 -60 -23 -179 -165 -179h-156c-16 0 -73 -5 -73 -48c0 -35 41 -49 67 -49
h208c91 0 140 -54 140 -134v-57c0 -60 -19 -147 -150 -147h-150c-94 0 -157 53 -157 154v91l21 92c-14 13 -18 33 -18 51z" />
    <glyph glyph-name="gdotaccent" unicode="&#x121;" horiz-adv-x="566" 
d="M256 613v59c0 10 5 16 16 16h24c10 0 16 -7 16 -16v-59c0 -10 -7 -16 -16 -16h-24c-9 0 -16 7 -16 16zM98 344c0 -87 43 -138 125 -138h101c98 0 128 73 128 138c-1 99 -40 148 -100 148h-129c-100 0 -125 -64 -125 -148zM97 -116c0 -99 78 -114 116 -114h150
c66 0 110 29 110 107v55c0 55 -24 96 -104 96h-202c-47 0 -70 22 -70 22v-166zM59 118c0 31 23 69 76 73c-64 30 -77 96 -77 153c0 130 56 189 172 189h312v-28l-101 -13c16 -15 51 -47 51 -148c0 -60 -23 -179 -165 -179h-156c-16 0 -73 -5 -73 -48c0 -35 41 -49 67 -49
h208c91 0 140 -54 140 -134v-57c0 -60 -19 -147 -150 -147h-150c-94 0 -157 53 -157 154v91l21 92c-14 13 -18 33 -18 51z" />
    <glyph glyph-name="gcircumflex" unicode="&#x11d;" horiz-adv-x="566" 
d="M141 597l127 130h37l115 -130h-36l-98 100l-109 -100h-36zM98 344c0 -87 43 -138 125 -138h101c98 0 128 73 128 138c-1 99 -40 148 -100 148h-129c-100 0 -125 -64 -125 -148zM97 -116c0 -99 78 -114 116 -114h150c66 0 110 29 110 107v55c0 55 -24 96 -104 96h-202
c-47 0 -70 22 -70 22v-166zM59 118c0 31 23 69 76 73c-64 30 -77 96 -77 153c0 130 56 189 172 189h312v-28l-101 -13c16 -15 51 -47 51 -148c0 -60 -23 -179 -165 -179h-156c-16 0 -73 -5 -73 -48c0 -35 41 -49 67 -49h208c91 0 140 -54 140 -134v-57
c0 -60 -19 -147 -150 -147h-150c-94 0 -157 53 -157 154v91l21 92c-14 13 -18 33 -18 51z" />
    <glyph glyph-name="gbreve.salt" horiz-adv-x="560" 
d="M175 707h25c0 -51 42 -90 89 -89c52 1 91 36 91 89h25c0 -76 -61 -114 -116 -114s-114 42 -114 114zM103 268c0 -146 28 -237 143 -237c74 0 116 11 199 32v433h-199c-111 0 -143 -108 -143 -228zM62 268c0 168 59 269 184 269c106 0 193 -12 240 -16v-625
c0 -124 -89 -175 -158 -168l-238 24v26l238 -10c54 -3 117 35 117 128v133c-64 -26 -154 -39 -199 -39c-153 0 -184 120 -184 278z" />
    <glyph glyph-name="gdotaccent.salt" horiz-adv-x="560" 
d="M267 613v59c0 10 5 16 16 16h24c10 0 16 -7 16 -16v-59c0 -10 -7 -16 -16 -16h-24c-9 0 -16 7 -16 16zM103 268c0 -146 28 -237 143 -237c74 0 116 11 199 32v433h-199c-111 0 -143 -108 -143 -228zM62 268c0 168 59 269 184 269c106 0 193 -12 240 -16v-625
c0 -124 -89 -175 -158 -168l-238 24v26l238 -10c54 -3 117 35 117 128v133c-64 -26 -154 -39 -199 -39c-153 0 -184 120 -184 278z" />
    <glyph glyph-name="gcircumflex.salt" horiz-adv-x="560" 
d="M155 596l127 130h37l115 -130h-36l-98 100l-109 -100h-36zM103 268c0 -146 28 -237 143 -237c74 0 116 11 199 32v433h-199c-111 0 -143 -108 -143 -228zM62 268c0 168 59 269 184 269c106 0 193 -12 240 -16v-625c0 -124 -89 -175 -158 -168l-238 24v26l238 -10
c54 -3 117 35 117 128v133c-64 -26 -154 -39 -199 -39c-153 0 -184 120 -184 278z" />
    <glyph glyph-name="f_f" unicode="&#xfb00;" horiz-adv-x="762" 
d="M25 490v27l97 14v89c0 55 5 156 125 156c38 0 77 -9 120 -19v-26c-1 0 -113 5 -113 5c-65 3 -91 -36 -91 -116v-89h326v99c0 54 3 156 103 156c36 0 107 -8 147 -20v-26c-1 0 -136 6 -136 6c-67 3 -73 -55 -73 -116v-99h167v-41h-168v-491h-41v491h-325v-490h-41v490h-97
z" />
    <glyph glyph-name="f_f_i" unicode="&#xfb03;" horiz-adv-x="964" 
d="M25 490v27l97 14v89c0 55 5 156 125 156c38 0 77 -9 120 -19v-26c-1 0 -113 5 -113 5c-65 3 -91 -36 -91 -116v-89h320v53c0 118 63 202 183 202c40 0 122 -9 182 -24v-26c-1 0 -171 9 -171 9c-83 4 -153 -40 -153 -161v-53l367 -8v-523h-41v490h-327v-490h-41v490h-319
v-490h-41v490h-97z" />
    <glyph glyph-name="ffl" unicode="&#xfb04;" horiz-adv-x="1076" 
d="M25 490v27l97 14v89c0 55 5 156 125 156c38 0 77 -9 120 -19v-26c-1 0 -113 5 -113 5c-65 3 -91 -36 -91 -116v-89h317v53c0 108 44 201 164 201h249v-594c0 -133 46 -141 80 -148c0 0 72 -14 79 -14v-27h-74c-87 0 -126 54 -126 189v556h-198c-79 0 -133 -43 -133 -163
v-53h147v-41h-147v-490h-41v490h-317v-490h-41v490h-97z" />
    <glyph glyph-name="c_t" horiz-adv-x="816" 
d="M49 263c0 230 76 268 175 268h359l12 148h29v-148h168v-41h-168l1 -303c0 -137 46 -142 81 -148c0 0 70 -14 75 -14v-27h-71c-88 0 -126 54 -126 189l-1 302h-359c-77 0 -134 -28 -134 -230c0 -188 53 -225 134 -225c92 0 215 18 215 18v-30c-81 -23 -132 -28 -215 -29
c-99 0 -175 37 -175 270z" />
    <glyph glyph-name="s_t" unicode="&#xfb06;" horiz-adv-x="861" 
d="M49 354v47c0 82 35 131 138 131h433l12 148h29v-148h168v-40h-168v-304c0 -137 46 -142 81 -148c0 0 70 -13 75 -13v-28h-71c-88 0 -126 54 -126 189v304l-433 -1c-77 0 -97 -31 -97 -90v-47c0 -75 35 -74 97 -74h138c80 0 130 -40 130 -112v-47
c0 -109 -66 -128 -130 -128c-49 0 -216 9 -254 13v28h254c31 0 89 5 89 87v47c0 44 -27 71 -89 71h-138c-94 0 -138 12 -138 115z" />
    <glyph glyph-name="t_t" horiz-adv-x="717" 
d="M25 491v30l89 11l11 148h30v-148h329l12 147h29v-148h169v-41h-169v-301c0 -137 46 -142 81 -148c0 0 71 -13 76 -13v-28h-71c-88 0 -127 54 -127 189v301l-329 1v-302c0 -137 46 -142 81 -148c0 0 70 -14 75 -14v-27h-71c-88 0 -126 54 -126 189v302h-89z" />
    <glyph glyph-name="f_t" horiz-adv-x="746" 
d="M25 490v29l91 12v99c0 54 3 156 103 156c36 0 107 -3 147 -15v-26l-136 1c-67 0 -73 -48 -73 -116v-99h357l11 149h30v-149h168v-41h-168v-301c0 -137 46 -142 81 -148c0 0 71 -14 76 -14v-27h-71c-88 0 -127 54 -127 189v301h-358v-490h-41v490h-90z" />
    <glyph glyph-name="t_y" horiz-adv-x="914" 
d="M25 491v30l89 11l11 148h30v-148h161c116 -1 139 -32 168 -112l108 -301c30 -84 89 -74 89 -74l165 489h45l-233 -699l-56 -102h-25l92 270c-22 1 -85 10 -120 110l-105 292c-26 72 -51 85 -128 85h-161v-301c0 -137 46 -142 81 -148c0 0 70 -14 75 -14v-27h-71
c-88 0 -126 54 -126 189v302h-89z" />
    <glyph glyph-name="f_y" horiz-adv-x="936" 
d="M25 490v29l91 12v99c0 54 3 156 103 156c36 0 107 -7 147 -19v-25l-136 4c-67 2 -73 -48 -73 -116v-99l177 1c116 -1 140 -32 169 -112l110 -301c30 -84 89 -73 89 -73l165 488h45l-233 -699l-57 -102h-25l92 270c-22 1 -84 10 -119 110l-107 292c-26 72 -52 85 -129 85
h-178v-490h-41v490h-90z" />
    <glyph glyph-name="kgreenlandic" unicode="&#x138;" horiz-adv-x="488" 
d="M74 0v531h41v-245h104l194 245h51l-208 -265l194 -266h-52l-180 245h-103v-245h-41z" />
    <glyph glyph-name="Rcommaaccent" unicode="&#x156;" horiz-adv-x="580" 
d="M268 -130v53c0 11 5 17 15 17h21c11 0 15 -8 15 -17v-93c0 -53 -49 -42 -49 -42v13c18 0 20 11 20 18v36h-7c-8 0 -15 5 -15 15zM115 358h247c68 0 132 15 132 167c0 146 -67 165 -132 165h-247v-332zM74 0v732h288c84 0 174 -32 174 -207c0 -189 -91 -206 -148 -209
l158 -316h-43l-160 315c-35 1 -225 9 -228 11v-326h-41z" />
    <glyph glyph-name="Itilde" unicode="&#x128;" horiz-adv-x="204" 
d="M-50 831c36 31 70 60 110 60c43 -1 89 -60 120 -60c34 0 70 29 96 47l12 -19c-33 -30 -67 -63 -109 -62c-47 1 -86 60 -120 60c-40 0 -63 -23 -99 -45zM98 0v732h41v-732h-41z" />
    <glyph glyph-name="Lcommaaccent" unicode="&#x13b;" horiz-adv-x="558" 
d="M291 -130v53c0 11 5 17 15 17h22c10 0 14 -8 14 -17v-93c0 -53 -49 -42 -49 -42v13c18 0 20 11 20 18v36h-7c-8 0 -15 5 -15 15zM98 126v606h41v-606c0 -79 49 -85 95 -85h287v-41h-287c-66 0 -136 13 -136 126z" />
    <glyph glyph-name="Emacron" unicode="&#x112;" horiz-adv-x="576" 
d="M196 795v31h265v-31h-265zM98 123v479c0 98 61 132 126 130l304 -12v-29h-304c-59 0 -85 -30 -85 -89v-218l349 -7v-29l-349 -7v-218c0 -79 49 -85 95 -85h294v-29l-294 -12c-66 -3 -136 13 -136 126z" />
    <glyph glyph-name="Gcommaaccent" unicode="&#x122;" horiz-adv-x="617" 
d="M302 -135v53c0 11 5 17 15 17h21c11 0 15 -8 15 -17v-93c0 -53 -49 -43 -49 -43v14c18 0 20 11 20 18v36h-7c-8 0 -15 5 -15 15zM68 370c0 200 24 370 223 370c52 0 181 -14 251 -27v-33c-6 0 -155 19 -251 19c-154 0 -182 -119 -182 -331c0 -239 40 -331 187 -332
c77 0 221 48 221 48v263h-198v26c40 11 90 16 171 16c21 0 44 -1 68 -3v-386h-28l-11 52c-33 -18 -133 -57 -223 -57c-207 -2 -228 166 -228 375z" />
    <glyph glyph-name="Tbar" unicode="&#x166;" horiz-adv-x="595" 
d="M43 691v41h515v-41h-240v-260h140v-28h-140v-403h-41v403h-127v28h127v260h-234z" />
    <glyph glyph-name="rcommaaccent" unicode="&#x157;" horiz-adv-x="424" 
d="M66 -130v53c0 11 5 17 15 17h21c11 0 15 -8 15 -17v-93c0 -53 -49 -42 -49 -42v13c18 0 20 11 20 18v36h-7c-8 0 -15 5 -15 15zM71 0v531h26l15 -67c61 35 124 73 211 73c29 0 57 -1 74 -8v-40c-20 4 -45 7 -74 7c-86 0 -134 -29 -211 -66v-430h-41z" />
    <glyph glyph-name="itilde" unicode="&#x129;" horiz-adv-x="188" 
d="M-75 630c36 31 70 60 110 60c43 -1 89 -60 120 -60c34 0 70 29 96 47l12 -19c-33 -30 -67 -63 -109 -62c-47 1 -86 60 -120 60c-40 0 -63 -23 -99 -45zM74 0v531h41v-531h-41z" />
    <glyph glyph-name="lcommaaccent" unicode="&#x13c;" horiz-adv-x="298" 
d="M123 -130v53c0 11 5 17 15 17h22c10 0 14 -8 14 -17v-93c0 -53 -49 -42 -49 -42v13c18 0 20 11 20 18v36h-7c-8 0 -15 5 -15 15zM74 189v594h41v-594c0 -133 49 -143 80 -148c0 0 72 -14 79 -14v-27h-74c-82 0 -126 54 -126 189z" />
    <glyph glyph-name="emacron" unicode="&#x113;" horiz-adv-x="525" 
d="M139 596v31h265v-31h-265zM103 282h237c52 0 95 8 95 65c0 135 -46 147 -161 147c-130 0 -171 -20 -171 -212zM62 268c0 235 59 267 212 267c122 0 202 -12 202 -188c0 -78 -47 -105 -136 -105h-237c0 -176 49 -206 133 -206c92 0 155 6 230 17v-30
c-81 -23 -147 -29 -230 -28c-136 1 -174 73 -174 273z" />
    <glyph glyph-name="gcommaaccent" unicode="&#x123;" horiz-adv-x="565" 
d="M99 344c0 -87 42 -138 124 -138h101c98 0 128 73 127 138c-1 99 -39 148 -99 148h-129c-100 0 -124 -65 -124 -148zM97 -116c0 -99 78 -113 116 -113h150c66 0 109 35 109 113v28c0 55 -40 81 -108 90l-193 26c-42 6 -74 23 -74 23v-167zM57 117c0 35 25 71 78 74
c-64 29 -77 96 -77 153c0 130 56 189 172 189h312v-28l-101 -13c16 -16 51 -47 51 -148c0 -60 -23 -179 -165 -179h-156c-16 0 -72 -4 -72 -47c0 -35 50 -47 72 -50l197 -25c77 -10 145 -47 145 -126v-33c0 -60 -19 -154 -150 -154h-150c-94 0 -157 53 -157 154v91l21 90
c-17 15 -20 38 -20 52zM257 608v94c0 53 48 42 48 42v-13c-18 0 -19 -12 -19 -19v-35h7c8 0 15 -6 15 -16v-53c0 -11 -5 -16 -15 -16h-21c-11 0 -15 7 -15 16z" />
    <glyph glyph-name="gcommaaccent.salt" horiz-adv-x="560" 
d="M103 268c0 -146 28 -237 143 -237c74 0 116 11 199 32v433h-199c-111 0 -143 -108 -143 -228zM62 268c0 168 59 269 184 269c106 0 193 -12 240 -16v-625c0 -124 -89 -175 -158 -168l-238 24v26l238 -10c54 -3 117 35 117 128v133c-64 -26 -154 -39 -199 -39
c-153 0 -184 120 -184 278zM270 608v94c0 53 48 42 48 42v-13c-18 0 -19 -12 -19 -19v-35h7c8 0 15 -6 15 -16v-53c0 -11 -5 -16 -15 -16h-22c-11 0 -14 7 -14 16z" />
    <glyph glyph-name="tbar" unicode="&#x167;" horiz-adv-x="347" 
d="M25 491v30l89 11l11 148h30v-148h168v-41h-168v-162h118v-28h-118v-111c0 -137 40 -140 81 -148c0 0 70 -13 75 -13v-28h-75c-82 0 -122 48 -122 189v111h-81v28h81v162h-89z" />
    <glyph glyph-name="Eng" unicode="&#x14a;" horiz-adv-x="669" 
d="M98 0v732h43l422 -650v650h41v-732v-84c0 -152 -63 -173 -181 -173v31c76 12 140 6 140 146v80l-422 653l-1 -653h-42z" />
    <glyph glyph-name="eng" unicode="&#x14b;" horiz-adv-x="561" 
d="M74 0v531h25l16 -62c61 35 121 71 202 71c106 0 171 -82 171 -170v-370v-90c-3 -130 -98 -152 -156 -163l-18 23c64 16 131 49 133 139v91v370c0 69 -53 129 -130 129c-83 0 -136 -28 -202 -62v-437h-41z" />
    <glyph glyph-name="Amacron" unicode="&#x100;" horiz-adv-x="662" 
d="M219 797v31h265v-31h-265zM203 277h289l-141 401zM56 0l272 732h47l261 -732h-47l-82 236h-319l-84 -236h-48z" />
    <glyph glyph-name="Iogonek" unicode="&#x12e;" horiz-adv-x="204" 
d="M98 0v732h41v-732h-8c-101 -53 -91 -152 22 -151v-30c-115 -16 -192 116 -43 181h-12z" />
    <glyph glyph-name="Edotaccent" unicode="&#x116;" horiz-adv-x="576" 
d="M302 812v59c0 10 5 16 16 16h24c10 0 16 -7 16 -16v-59c0 -10 -7 -16 -16 -16h-24c-9 0 -16 7 -16 16zM98 123v479c0 98 61 132 126 130l304 -12v-29h-304c-59 0 -85 -30 -85 -89v-218l349 -7v-29l-349 -7v-218c0 -79 49 -85 95 -85h294v-29l-294 -12
c-66 -3 -136 13 -136 126z" />
    <glyph glyph-name="Imacron" unicode="&#x12a;" horiz-adv-x="204" 
d="M-14 797v31h265v-31h-265zM98 0v732h41v-732h-41z" />
    <glyph glyph-name="Ncommaaccent" unicode="&#x145;" horiz-adv-x="670" 
d="M327 -133v53c0 11 5 17 15 17h22c10 0 14 -8 14 -17v-93c0 -53 -49 -43 -49 -43v14c18 0 20 11 20 18v36h-7c-8 0 -15 5 -15 15zM98 0v732h43l423 -655v655h41v-732h-41l-425 655v-655h-41z" />
    <glyph glyph-name="Omacron" unicode="&#x14c;" horiz-adv-x="675" 
d="M221 797v31h265v-31h-265zM121 361c0 -284 61 -324 233 -324c166 0 231 44 231 324c0 316 -79 335 -231 335c-143 0 -233 -11 -233 -335zM80 361c0 343 103 376 274 376c173 0 272 -33 272 -376c0 -323 -92 -365 -272 -365s-274 32 -274 365z" />
    <glyph glyph-name="Kcommaaccent" unicode="&#x136;" horiz-adv-x="592" 
d="M290 -131v53c0 11 5 17 15 17h21c11 0 15 -8 15 -17v-93c0 -53 -49 -43 -49 -43v14c18 0 20 11 20 18v36h-7c-8 0 -15 5 -15 15zM98 0v732h41v-344h129l237 344h50l-250 -365l250 -367h-51l-237 346h-127v-346h-42z" />
    <glyph glyph-name="Uogonek" unicode="&#x172;" horiz-adv-x="680" 
d="M98 320v412h41v-412c0 -285 91 -284 221 -284c116 0 214 11 214 284v412h42v-412c0 -318 -130 -325 -250 -325c-99 -53 -88 -151 24 -150v-30c-114 -16 -191 115 -45 180c-130 0 -247 7 -247 325z" />
    <glyph glyph-name="Utilde" unicode="&#x168;" horiz-adv-x="680" 
d="M188 830c36 31 70 60 110 60c43 -1 89 -60 120 -60c34 0 70 29 96 47l12 -19c-33 -30 -67 -63 -109 -62c-47 1 -86 60 -120 60c-40 0 -63 -23 -99 -45zM98 320v412h41v-412c0 -285 91 -284 221 -284c116 0 214 11 214 284v412h42v-412c0 -323 -135 -325 -256 -325
c-136 0 -262 -5 -262 325z" />
    <glyph glyph-name="Umacron" unicode="&#x16a;" horiz-adv-x="680" 
d="M224 797v31h265v-31h-265zM98 320v412h41v-412c0 -285 91 -284 221 -284c116 0 214 11 214 284v412h42v-412c0 -323 -135 -325 -256 -325c-136 0 -262 -5 -262 325z" />
    <glyph glyph-name="amacron" unicode="&#x101;" horiz-adv-x="519" 
d="M135 601v31h265v-31h-265zM90 131c0 -72 48 -95 92 -96c80 -1 235 57 235 57v199l-235 -12c-68 -3 -92 -43 -92 -94v-54zM49 126v61c0 83 51 133 133 133c0 0 235 -1 235 0c0 0 1 66 0 67c0 66 -29 114 -113 115c-72 1 -145 -7 -238 -19v27c62 16 139 30 239 31
c83 1 153 -44 153 -154v-387h-28l-13 64c-2 0 -139 -70 -235 -70c-73 0 -133 47 -133 132z" />
    <glyph glyph-name="iogonek" unicode="&#x12f;" horiz-adv-x="179" 
d="M81 0v531h41v-531h-8c-101 -53 -91 -152 22 -151v-30c-115 -16 -192 116 -43 181h-12zM75 620v60c0 10 5 16 16 16h24c10 0 15 -7 15 -16v-60c0 -10 -6 -15 -15 -15h-24c-9 0 -16 6 -16 15z" />
    <glyph glyph-name="edotaccent" unicode="&#x117;" horiz-adv-x="525" 
d="M256 612v59c0 10 5 16 16 16h24c10 0 16 -7 16 -16v-59c0 -10 -7 -16 -16 -16h-24c-9 0 -16 7 -16 16zM103 282h237c52 0 95 8 95 65c0 135 -46 147 -161 147c-130 0 -171 -20 -171 -212zM62 268c0 235 59 267 212 267c122 0 202 -12 202 -188c0 -78 -47 -105 -136 -105
h-237c0 -176 49 -206 133 -206c92 0 155 6 230 17v-30c-81 -23 -147 -29 -230 -28c-136 1 -174 73 -174 273z" />
    <glyph glyph-name="imacron" unicode="&#x12b;" horiz-adv-x="188" 
d="M-38 596v31h265v-31h-265zM74 0v531h41v-531h-41z" />
    <glyph glyph-name="ncommaaccent" unicode="&#x146;" 
d="M256 -130v53c0 11 5 17 15 17h21c11 0 15 -8 15 -17v-93c0 -53 -49 -42 -49 -42v13c18 0 20 11 20 18v36h-7c-8 0 -15 5 -15 15zM74 0v531h27l14 -62c59 37 128 71 209 71c106 0 164 -82 164 -170v-370h-41v370c0 75 -47 129 -123 129c-85 0 -134 -21 -209 -60v-439h-41z
" />
    <glyph glyph-name="omacron" unicode="&#x14d;" horiz-adv-x="571" 
d="M153 596v31h265v-31h-265zM103 258c0 -199 63 -222 182 -222c121 0 184 29 184 222c0 208 -64 237 -184 237c-117 0 -182 -19 -182 -237zM62 258c0 217 59 278 223 278c175 0 225 -83 225 -278s-53 -263 -225 -263c-177 0 -223 73 -223 263z" />
    <glyph glyph-name="kcommaaccent" unicode="&#x137;" horiz-adv-x="498" 
d="M245 -130v53c0 11 5 17 15 17h22c10 0 14 -8 14 -17v-93c0 -53 -49 -42 -49 -42v13c18 0 20 11 20 18v36h-7c-8 0 -15 5 -15 15zM74 0v782h41v-456h53l246 205h60l-266 -227l265 -304h-54l-251 284h-53v-284h-41z" />
    <glyph glyph-name="uogonek" unicode="&#x173;" horiz-adv-x="604" 
d="M78 162v370h41v-370c0 -75 47 -129 123 -129c85 0 134 20 209 59v440h41v-531h-2c-101 -53 -91 -152 22 -151v-30c-115 -16 -192 116 -43 181h-4l-14 62c-59 -37 -128 -71 -209 -71c-106 0 -164 82 -164 170z" />
    <glyph glyph-name="utilde" unicode="&#x169;" 
d="M100 630c36 31 70 60 110 60c43 -1 89 -60 120 -60c34 0 70 29 96 47l12 -19c-33 -30 -67 -63 -109 -62c-47 1 -86 60 -120 60c-40 0 -63 -23 -99 -45zM62 162v370h41v-370c0 -75 47 -129 123 -129c85 0 134 20 209 59v440h41v-531h-27l-14 62c-59 -37 -128 -71 -209 -71
c-106 0 -164 82 -164 170z" />
    <glyph glyph-name="umacron" unicode="&#x16b;" 
d="M136 596v31h265v-31h-265zM62 162v370h41v-370c0 -75 47 -129 123 -129c85 0 134 20 209 59v440h41v-531h-27l-14 62c-59 -37 -128 -71 -209 -71c-106 0 -164 82 -164 170z" />
    <glyph glyph-name="exclam.smcp" horiz-adv-x="263" 
d="M107 570h45l-6 -404h-33zM101 16v60c0 10 5 16 16 16h26c10 0 16 -7 16 -16v-60c0 -10 -7 -16 -16 -16h-26c-9 0 -16 7 -16 16z" />
    <glyph glyph-name="quotedbl.smcp" horiz-adv-x="301" 
d="M186 541v67h42v-67l-7 -134h-26zM74 541v67h42v-67l-7 -134h-26z" />
    <glyph glyph-name="numbersign.smcp" horiz-adv-x="568" 
d="M189 211h150l25 145h-151zM25 187l4 24h134l25 145h-138l4 25h138l32 189h25l-32 -189h150l32 189h25l-31 -189h153l-4 -25h-153l-24 -145h156l-4 -24h-156l-32 -188h-25l31 188h-150l-32 -188h-25l32 188h-135z" />
    <glyph glyph-name="dollar.smcp" horiz-adv-x="525" 
d="M62 397v31c0 134 94 147 186 147v65h34v-66c37 -1 121 -7 158 -12v-29h-206c-98 0 -131 -33 -131 -105v-31c0 -67 56 -92 121 -92h82c106 0 155 -67 155 -132v-38c0 -107 -99 -143 -179 -139v-65h-34v66c-42 4 -139 9 -168 14v28h218c48 0 121 21 121 96v38
c0 54 -47 93 -113 93h-82c-119 0 -162 55 -162 131z" />
    <glyph glyph-name="percent.smcp" horiz-adv-x="785" 
d="M481 125c0 -73 28 -93 95 -93h45c71 0 97 19 97 93v63c0 68 -22 93 -95 93h-45c-72 0 -97 -19 -97 -93v-63zM449 125v63c0 85 28 125 129 125h45c98 0 127 -40 127 -125v-63c0 -85 -28 -125 -129 -125h-45c-98 0 -127 40 -127 125zM202 0l341 570h38l-341 -570h-38z
M68 384c0 -73 28 -93 95 -93h45c71 0 97 19 97 93v62c0 68 -22 93 -95 93h-45c-72 0 -97 -19 -97 -93v-62zM36 384v62c0 85 28 125 129 125h45c98 0 127 -40 127 -125v-62c0 -85 -28 -125 -129 -125h-45c-98 0 -127 40 -127 125z" />
    <glyph glyph-name="ampersand.smcp" horiz-adv-x="535" 
d="M109 86c40 -53 118 -73 171 -21l64 59l-143 185l-65 -53c-70 -58 -66 -118 -27 -170zM76 62c-58 78 -45 160 31 223l69 57l-44 57c-66 88 -13 159 49 170c44 7 105 6 218 -9v-26h-168c-96 0 -106 -59 -61 -118l203 -264l102 98l12 -14l-58 -85l-31 -32l91 -119h-48
l-72 92l-62 -58c-63 -58 -169 -59 -231 28z" />
    <glyph glyph-name="quotesingle.smcp" horiz-adv-x="189" 
d="M74 540v67h42v-67l-7 -134h-26z" />
    <glyph glyph-name="asterisk.smcp" horiz-adv-x="458" 
d="M272 413l114 80l13 -20l-99 -92zM228 342l22 37l116 -86l-13 -18zM196 575l22 8l69 -121l-39 -18zM137 265l31 134l41 -9l-50 -132zM62 437v23l141 12l1 -41z" />
    <glyph glyph-name="zero.smcp" horiz-adv-x="595" 
d="M127 162c0 -90 66 -121 131 -121h84c101 0 127 59 127 121v246c0 73 -38 121 -127 121h-84c-83 0 -131 -43 -131 -121v-246zM86 162v246c0 112 77 162 172 162h84c154 0 168 -114 168 -162v-246c0 -119 -69 -162 -168 -162h-84c-91 0 -172 42 -172 162z" />
    <glyph glyph-name="one.smcp" horiz-adv-x="347" 
d="M49 474v26l159 85h41v-585h-41v539z" />
    <glyph glyph-name="two.smcp" horiz-adv-x="524" 
d="M49 529v25c102 13 110 17 222 17c140 0 193 -74 193 -187c0 -154 -225 -285 -325 -343h320v-41h-404v39c110 68 366 206 366 346c0 87 -37 147 -157 145c-50 0 -215 -1 -215 -1z" />
    <glyph glyph-name="three.smcp" horiz-adv-x="528" 
d="M37 532v26c51 17 176 16 267 15c86 -1 132 -62 132 -143v-35c0 -74 -47 -106 -73 -112c29 -10 73 -48 73 -116v-30c0 -95 -43 -142 -138 -142c-89 0 -214 0 -256 15v26h245c63 0 106 19 106 101v30c0 74 -57 94 -98 95l-205 6v32l205 4c46 1 100 20 100 91v35
c0 61 -34 102 -102 102h-256z" />
    <glyph glyph-name="four.smcp" horiz-adv-x="534" 
d="M25 185l216 385h47l-206 -370h297v181l19 75h22v-256h90v-30l-90 -13v-155h-41v155h-332z" />
    <glyph glyph-name="five.smcp" horiz-adv-x="569" 
d="M94 16v26h246c82 0 117 41 117 110v49c0 54 -10 103 -111 103h-100c-58 0 -114 -38 -114 -92h-37l17 358h360v-41h-320l-12 -234c16 23 56 49 106 49h100c118 0 152 -56 152 -141v-53c0 -113 -73 -150 -158 -151c-99 -1 -199 4 -246 17z" />
    <glyph glyph-name="six.smcp" horiz-adv-x="570" 
d="M121 285c0 -107 14 -244 119 -244h123c44 0 94 16 94 90v85c0 55 -32 69 -94 69h-242zM80 301c0 220 86 275 154 276c79 1 169 -2 246 -11v-30h-245c-100 0 -114 -162 -114 -220c66 8 184 10 242 10c106 0 135 -43 135 -110v-89c0 -92 -62 -127 -135 -127h-123
c-85 0 -160 49 -160 301z" />
    <glyph glyph-name="seven.smcp" horiz-adv-x="483" 
d="M37 529v41h389l21 -32l-196 -538h-46l194 529h-362z" />
    <glyph glyph-name="eight.smcp" horiz-adv-x="604" 
d="M133 402c0 -76 55 -92 96 -92h150c64 0 95 43 95 92v32c0 73 -27 100 -90 100h-152c-68 0 -99 -13 -99 -100v-32zM133 131c0 -60 27 -90 97 -90h153c54 0 90 31 90 90v44c0 78 -52 93 -94 93h-150c-41 0 -96 -14 -96 -90v-47zM92 133v47c0 80 52 99 82 103
c-53 15 -82 65 -82 120v33c0 106 46 139 136 139h160c83 0 126 -44 126 -139v-33c0 -59 -34 -101 -78 -109c45 -6 78 -61 78 -116v-45c0 -101 -63 -133 -127 -133h-161c-131 0 -134 92 -134 133z" />
    <glyph glyph-name="nine.smcp" horiz-adv-x="570" 
d="M115 356c0 -55 32 -69 94 -69h241c0 107 -14 244 -119 244h-122c-44 0 -94 -16 -94 -90v-85zM74 356v89c0 92 62 127 135 127h122c85 0 160 -49 160 -301c0 -220 -86 -275 -154 -276c-79 -1 -167 0 -245 11v30h245c100 0 113 162 113 220c-66 -8 -183 -10 -241 -10
c-106 0 -135 43 -135 110z" />
    <glyph glyph-name="question.smcp" horiz-adv-x="468" 
d="M160 16v60c0 10 5 16 16 16h25c11 0 17 -6 17 -16v-60c0 -11 -8 -16 -17 -16h-25c-9 0 -16 7 -16 16zM25 529v30c77 9 120 13 204 12c139 0 191 -55 191 -150v-49c0 -113 -100 -145 -209 -131c0 -1 -1 -74 0 -75h-43v111c15 0 65 -1 80 0c61 1 131 17 131 95v49
c0 87 -54 108 -157 108h-197z" />
    <glyph glyph-name="at.smcp" horiz-adv-x="858" 
d="M271 156c0 -47 38 -82 94 -82c59 -1 151 36 201 60v175l-202 -12c-40 -3 -93 -19 -93 -96c-1 -1 -1 -44 0 -45zM80 42v348c0 36 2 164 168 164h205c71 0 153 -30 153 -140v-372h-29l-10 64c-2 0 -118 -73 -209 -73c-74 -2 -129 49 -128 117v53c0 80 46 133 129 133
c81 0 207 -1 207 0c0 0 1 75 0 76c0 73 -45 101 -116 101h-202c-73 0 -127 -28 -127 -123v-348c0 -108 69 -136 127 -136h329c96 0 136 46 136 136v512c0 88 -47 147 -136 147h-394v25c48 10 162 17 288 16h106c106 -2 177 -63 177 -188v-512c0 -98 -39 -178 -177 -178h-329
c-102 0 -168 62 -168 178z" />
    <glyph glyph-name="a.smcp" horiz-adv-x="581" 
d="M178 213h240l-115 302zM43 0l240 570h41l220 -570h-45l-67 172h-272l-72 -172h-45z" />
    <glyph glyph-name="b.smcp" horiz-adv-x="548" 
d="M139 314h204c64 0 113 30 113 107c0 90 -62 109 -113 109h-204v-216zM139 42h204c50 0 116 10 116 115c0 70 -51 116 -116 116c0 0 -192 -1 -204 0v-231zM98 0v571h245c124 0 154 -83 154 -150c0 -90 -56 -116 -89 -129c21 -4 92 -45 92 -135c0 -85 -31 -157 -157 -157
h-245z" />
    <glyph glyph-name="c.smcp" horiz-adv-x="528" 
d="M68 295c0 145 34 283 204 283c43 0 168 -10 219 -22v-29c-15 3 -154 10 -219 10c-116 0 -163 -81 -163 -242c0 -162 39 -257 163 -258c73 2 219 10 219 10v-29c-58 -11 -142 -22 -219 -22c-181 0 -204 161 -204 299z" />
    <glyph glyph-name="d.smcp" horiz-adv-x="610" 
d="M139 41h193c141 0 178 107 178 242c0 183 -88 248 -178 248h-193v-490zM98 0v572h234c176 -2 219 -166 219 -289c0 -282 -159 -283 -219 -283h-234z" />
    <glyph glyph-name="e.smcp" horiz-adv-x="525" 
d="M98 83v398c0 61 40 90 104 90l274 -10v-30h-272c-56 0 -65 -24 -65 -55v-170l306 -6v-30l-306 -6v-173c0 -49 37 -52 52 -52h285v-29l-294 -12c-50 0 -84 33 -84 85z" />
    <glyph glyph-name="f.smcp" horiz-adv-x="525" 
d="M98 0v481c0 61 40 90 104 90l274 -10v-30h-272c-56 0 -64 -25 -65 -55v-171l306 -6v-30l-306 -7v-262h-41z" />
    <glyph glyph-name="g.smcp" horiz-adv-x="575" 
d="M68 286c0 184 41 293 213 293c43 0 157 -11 221 -25v-30c-62 6 -132 14 -221 14c-123 0 -172 -59 -172 -250c0 -143 55 -254 172 -254c81 0 172 41 194 58v178h-191v26c62 8 84 15 165 15c21 0 43 -1 67 -3v-308h-29l-11 51c-53 -34 -135 -58 -195 -58
c-207 -1 -213 243 -213 293z" />
    <glyph glyph-name="h.smcp" horiz-adv-x="602" 
d="M98 -1v571h41v-274h358v274h41v-571h-41v255h-358v-255h-41z" />
    <glyph glyph-name="i.smcp" horiz-adv-x="204" 
d="M98 0v570h41v-570h-41z" />
    <glyph glyph-name="j.smcp" horiz-adv-x="332" 
d="M43 20l4 28c90 -20 179 -31 179 120v402h41v-402c0 -47 -7 -118 -54 -151c-49 -34 -123 -22 -170 3z" />
    <glyph glyph-name="k.smcp" horiz-adv-x="542" 
d="M98 -1v571h41v-270h113l203 270h50l-216 -290l216 -281h-50l-204 259h-112v-259h-41z" />
    <glyph glyph-name="l.smcp" horiz-adv-x="511" 
d="M98 86v484h41v-476c0 -42 24 -53 58 -53h277v-41h-290c-53 0 -86 31 -86 86z" />
    <glyph glyph-name="m.smcp" horiz-adv-x="737" 
d="M68 0l66 571h44l198 -499l198 499h41l63 -571h-41l-53 486l-193 -486h-31l-195 493l-58 -493h-39z" />
    <glyph glyph-name="n.smcp" horiz-adv-x="613" 
d="M98 0v571h38l372 -495v495h40v-571h-37l-372 497v-497h-41z" />
    <glyph glyph-name="o.smcp" horiz-adv-x="606" 
d="M109 285c-1 -214 52 -249 198 -249c143 0 202 45 199 251c-4 218 -46 247 -199 247c-134 0 -197 -28 -198 -249zM68 280c0 244 73 295 239 295c164 0 240 -32 240 -288c0 -245 -72 -292 -240 -292c-161 0 -239 36 -239 285z" />
    <glyph glyph-name="p.smcp" horiz-adv-x="532" 
d="M115 280h217c65 0 111 16 111 130c1 83 -48 118 -111 118h-217v-248zM74 0v569h258c71 0 152 -38 152 -155c0 -175 -94 -173 -157 -174l-212 10v-250h-41z" />
    <glyph glyph-name="q.smcp" horiz-adv-x="606" 
d="M295 -33h27c41 -69 114 -68 173 -48v-43c-72 -27 -181 -5 -200 91zM109 285c0 -214 52 -249 198 -249c143 0 199 45 199 251c0 220 -51 247 -199 247c-133 0 -198 -27 -198 -249zM68 280c0 244 73 295 239 295c164 0 240 -32 240 -288c0 -245 -72 -292 -240 -292
c-161 0 -239 36 -239 285z" />
    <glyph glyph-name="r.smcp" horiz-adv-x="532" 
d="M115 285h224c35 0 105 21 105 123s-73 122 -112 122h-217v-245zM74 0v571h258c60 0 153 -28 153 -162c0 -96 -55 -159 -129 -161l138 -248h-47l-135 244c-30 2 -196 10 -197 12v-256h-41z" />
    <glyph glyph-name="s.smcp" horiz-adv-x="538" 
d="M68 374v64c0 82 35 135 138 135c52 0 179 -8 246 -17v-28s-148 5 -246 5c-69 0 -97 -33 -97 -95v-64c0 -75 38 -74 97 -74h143c87 0 130 -37 130 -112v-70c0 -109 -75 -128 -130 -128c-49 0 -222 6 -259 18v28s163 -5 259 -5c68 0 89 54 89 87v70c0 52 -27 72 -89 72
h-143c-94 0 -138 18 -138 114z" />
    <glyph glyph-name="t.smcp" horiz-adv-x="533" 
d="M43 529v41h453v-41h-206v-529h-41v529h-206z" />
    <glyph glyph-name="u.smcp" horiz-adv-x="622" 
d="M98 260v310h42v-310c0 -180 56 -224 190 -224c122 0 186 48 186 224v310h42v-310c0 -233 -108 -265 -228 -265c-131 0 -233 26 -232 265z" />
    <glyph glyph-name="v.smcp" horiz-adv-x="593" 
d="M43 570h45l214 -508l209 508h45l-235 -570h-39z" />
    <glyph glyph-name="w.smcp" horiz-adv-x="833" 
d="M43 570h45l189 -509l185 509h44l-64 -178l126 -331l186 509h42l-208 -570h-39l-129 333l-121 -333h-41z" />
    <glyph glyph-name="x.smcp" horiz-adv-x="552" 
d="M43 0l210 285l-208 285h53l181 -247l182 247h53l-209 -285l209 -285h-52l-184 247l-183 -247h-52z" />
    <glyph glyph-name="y.smcp" horiz-adv-x="563" 
d="M43 570h47l196 -336l193 336h47l-220 -380v-191h-41v191z" />
    <glyph glyph-name="z.smcp" horiz-adv-x="499" 
d="M43 0v41l367 488h-367v41h419v-41l-363 -488h363v-41h-419z" />
    <glyph glyph-name="grave.smcp" horiz-adv-x="214" 
d="M25 664h49l116 -133h-32z" />
    <glyph glyph-name="aogonek.smcp" horiz-adv-x="613" 
d="M189 213h240l-115 302zM54 0l240 570h41l220 -570h-10c-101 -53 -91 -152 22 -151v-30c-115 -16 -192 116 -43 181h-14l-67 172h-272l-72 -172h-45z" />
    <glyph glyph-name="rcommaaccent.smcp" horiz-adv-x="532" 
d="M253 -130v53c0 11 5 17 15 17h22c10 0 14 -8 14 -17v-93c0 -53 -49 -42 -49 -42v13c18 0 20 11 20 18v36h-7c-8 0 -15 5 -15 15zM115 285h224c35 0 105 21 105 123s-73 122 -112 122h-217v-245zM74 0v571h258c60 0 153 -28 153 -162c0 -96 -55 -159 -129 -161l138 -248
h-47l-135 244c-30 2 -196 10 -197 12v-256h-41z" />
    <glyph glyph-name="itilde.smcp" horiz-adv-x="204" 
d="M-52 664c36 31 70 60 110 60c43 -1 89 -60 120 -60c34 0 70 29 96 47l12 -19c-33 -30 -67 -63 -109 -62c-47 1 -86 60 -120 60c-40 0 -63 -23 -99 -45zM98 0v570h41v-570h-41z" />
    <glyph glyph-name="lcommaaccent.smcp" horiz-adv-x="511" 
d="M267 -130v53c0 11 5 17 15 17h22c10 0 14 -8 14 -17v-93c0 -53 -49 -42 -49 -42v13c18 0 20 11 20 18v36h-7c-8 0 -15 5 -15 15zM98 86v484h41v-476c0 -42 24 -53 58 -53h277v-41h-290c-53 0 -86 31 -86 86z" />
    <glyph glyph-name="dieresis.smcp" horiz-adv-x="434" 
d="M316 582c0 16 13 28 29 28s29 -12 29 -28s-13 -30 -29 -30s-29 14 -29 30zM62 582c0 16 12 28 28 28s29 -12 29 -28s-13 -30 -29 -30s-28 14 -28 30z" />
    <glyph glyph-name="scaron.smcp" horiz-adv-x="538" 
d="M139 763h35l102 -100l106 100h36l-123 -130h-38zM68 374v64c0 82 35 135 138 135c52 0 179 -8 246 -17v-28s-148 5 -246 5c-69 0 -97 -33 -97 -95v-64c0 -75 38 -74 97 -74h143c87 0 130 -37 130 -112v-70c0 -109 -75 -128 -130 -128c-49 0 -222 6 -259 18v28
s163 -5 259 -5c68 0 89 54 89 87v70c0 52 -27 72 -89 72h-143c-94 0 -138 18 -138 114z" />
    <glyph glyph-name="emacron.smcp" horiz-adv-x="525" 
d="M166 632v31h265v-31h-265zM98 83v398c0 61 40 90 104 90l274 -10v-30h-272c-56 0 -65 -24 -65 -55v-170l306 -6v-30l-306 -6v-173c0 -49 37 -52 52 -52h285v-29l-294 -12c-50 0 -84 33 -84 85z" />
    <glyph glyph-name="gcommaaccent.smcp" horiz-adv-x="576" 
d="M67 286c0 184 44 293 218 293c43 0 145 -11 209 -25v-30c-41 4 -151 14 -208 14c-126 0 -178 -57 -178 -250c0 -161 58 -252 176 -254c84 -1 158 33 183 52v184h-189v26c62 8 82 15 163 15c21 0 43 -1 67 -3v-308c-3 -1 -23 1 -28 0l-12 47c-53 -34 -126 -54 -186 -54
c-214 -1 -215 243 -215 293zM274 -133v53c0 11 5 17 15 17h21c11 0 15 -8 15 -17v-93c0 -53 -49 -43 -49 -43v14c18 0 20 11 20 18v36h-7c-8 0 -15 5 -15 15z" />
    <glyph glyph-name="tbar.smcp" horiz-adv-x="501" 
d="M25 529v41h452v-41h-206v-190h114v-28h-114v-311h-41v311h-116v28h116v190h-205z" />
    <glyph glyph-name="zcaron.smcp" horiz-adv-x="499" 
d="M113 760h35l102 -100l106 100h36l-123 -130h-38zM43 0v41l367 488h-367v41h419v-41l-363 -488h363v-41h-419z" />
    <glyph glyph-name="macron.smcp" horiz-adv-x="415" 
d="M62 531v31h292v-31h-292z" />
    <glyph glyph-name="degree.smcp" horiz-adv-x="325" 
d="M87 470c0 -42 35 -75 77 -75s75 33 75 75s-33 77 -75 77s-77 -35 -77 -77zM62 470c0 57 46 103 102 103s100 -46 100 -103s-44 -102 -100 -102s-102 45 -102 102z" />
    <glyph glyph-name="acute.smcp" horiz-adv-x="214" 
d="M25 531l116 133h49l-133 -133h-32z" />
    <glyph glyph-name="caron.smcp" horiz-adv-x="401" 
d="M62 671h31l102 -107l113 107h33l-127 -140h-39z" />
    <glyph glyph-name="eng.smcp" horiz-adv-x="614" 
d="M98 0v571h39l371 -498v498h41v-571v-50c-1 -132 -57 -165 -171 -165v33c73 7 131 12 131 132v51l-370 496v-497h-41z" />
    <glyph glyph-name="amacron.smcp" horiz-adv-x="581" 
d="M170 630v31h265v-31h-265zM178 213h240l-115 302zM43 0l240 570h41l220 -570h-45l-67 172h-272l-72 -172h-45z" />
    <glyph glyph-name="aacute.smcp" horiz-adv-x="581" 
d="M287 630l116 133h49l-133 -133h-32zM178 213h240l-115 302zM43 0l240 570h41l220 -570h-45l-67 172h-272l-72 -172h-45z" />
    <glyph glyph-name="acircumflex.smcp" horiz-adv-x="581" 
d="M164 630l127 130h37l115 -130h-36l-98 100l-109 -100h-36zM178 213h240l-115 302zM43 0l240 570h41l220 -570h-45l-67 172h-272l-72 -172h-45z" />
    <glyph glyph-name="atilde.smcp" horiz-adv-x="581" 
d="M134 664c36 31 70 60 110 60c43 -1 89 -60 120 -60c34 0 70 29 96 47l12 -19c-33 -30 -67 -63 -109 -62c-47 1 -86 60 -120 60c-40 0 -63 -23 -99 -45zM178 213h240l-115 302zM43 0l240 570h41l220 -570h-45l-67 172h-272l-72 -172h-45z" />
    <glyph glyph-name="adieresis.smcp" horiz-adv-x="581" 
d="M401 659c0 16 13 28 29 28s29 -12 29 -28s-13 -29 -29 -29s-29 13 -29 29zM147 659c0 16 12 28 28 28s29 -12 29 -28s-13 -29 -29 -29s-28 13 -28 29zM178 213h240l-115 302zM43 0l240 570h41l220 -570h-45l-67 172h-272l-72 -172h-45z" />
    <glyph glyph-name="aring.smcp" horiz-adv-x="581" 
d="M227 670c0 -42 35 -76 77 -76s75 34 75 76s-33 77 -75 77s-77 -35 -77 -77zM202 670c0 57 46 103 102 103s100 -46 100 -103c0 -50 -34 -91 -80 -100l220 -570h-45l-67 172h-272l-72 -172h-45l240 570h1c-47 9 -82 50 -82 100zM178 213h240l-115 302z" />
    <glyph glyph-name="ae.smcp" horiz-adv-x="810" 
d="M219 233h172v273zM28 0l298 482c45 72 75 81 170 85l264 -10v-30h-262c-56 0 -64 -11 -65 -54v-171l296 -7v-30l-296 -7v-170c0 -49 37 -52 52 -52l275 -1v-29l-282 -11c-53 -1 -87 30 -87 84v113h-195l-120 -192h-48z" />
    <glyph glyph-name="iogonek.smcp" horiz-adv-x="204" 
d="M103 0v570h41v-570h-7c-101 -53 -91 -152 22 -151v-30c-115 -16 -192 116 -43 181h-13z" />
    <glyph glyph-name="ccaron.smcp" horiz-adv-x="528" 
d="M169 773h35l102 -100l106 100h36l-123 -130h-38zM68 295c0 145 34 283 204 283c43 0 168 -10 219 -22v-29c-15 3 -154 10 -219 10c-116 0 -163 -81 -163 -242c0 -162 39 -257 163 -258c73 2 219 10 219 10v-29c-58 -11 -142 -22 -219 -22c-181 0 -204 161 -204 299z" />
    <glyph glyph-name="eacute.smcp" horiz-adv-x="525" 
d="M287 631l116 133h49l-133 -133h-32zM98 83v398c0 61 40 90 104 90l274 -10v-30h-272c-56 0 -65 -24 -65 -55v-170l306 -6v-30l-306 -6v-173c0 -49 37 -52 52 -52h285v-29l-294 -12c-50 0 -84 33 -84 85z" />
    <glyph glyph-name="eogonek.smcp" horiz-adv-x="525" 
d="M98 83v398c0 61 40 90 104 90l274 -10v-30h-272c-56 0 -65 -24 -65 -55v-170l306 -6v-30l-306 -6v-173c0 -49 37 -52 52 -52h285v-29c-101 -53 -91 -152 22 -151v-30c-114 -16 -191 115 -45 180l-271 -11c-50 0 -84 33 -84 85z" />
    <glyph glyph-name="edieresis.smcp" horiz-adv-x="525" 
d="M392 683c0 16 13 28 29 28s29 -12 29 -28s-13 -29 -29 -29s-29 13 -29 29zM138 683c0 16 12 28 28 28s29 -12 29 -28s-13 -29 -29 -29s-28 13 -28 29zM98 83v398c0 61 40 90 104 90l274 -10v-30h-272c-56 0 -65 -24 -65 -55v-170l306 -6v-30l-306 -6v-173
c0 -49 37 -52 52 -52h285v-29l-294 -12c-50 0 -84 33 -84 85z" />
    <glyph glyph-name="edotaccent.smcp" horiz-adv-x="525" 
d="M276 648v59c0 10 5 16 16 16h24c10 0 16 -7 16 -16v-59c0 -10 -7 -16 -16 -16h-24c-9 0 -16 7 -16 16zM98 83v398c0 61 40 90 104 90l274 -10v-30h-272c-56 0 -65 -24 -65 -55v-170l306 -6v-30l-306 -6v-173c0 -49 37 -52 52 -52h285v-29l-294 -12c-50 0 -84 33 -84 85z
" />
    <glyph glyph-name="iacute.smcp" horiz-adv-x="204" 
d="M106 630l116 133h49l-133 -133h-32zM98 0v570h41v-570h-41z" />
    <glyph glyph-name="icircumflex.smcp" horiz-adv-x="204" 
d="M-21 630l127 130h37l115 -130h-36l-98 100l-109 -100h-36zM98 0v570h41v-570h-41z" />
    <glyph glyph-name="imacron.smcp" horiz-adv-x="204" 
d="M-6 630v31h265v-31h-265zM105 0v570h41v-570h-41z" />
    <glyph glyph-name="dcroat.smcp" horiz-adv-x="603" 
d="M133 41h175c141 0 178 105 178 242c0 184 -86 247 -176 247h-177v-226h116v-28h-116v-235zM25 276v28h65v268h224c173 -1 216 -166 216 -289c0 -282 -162 -283 -217 -283h-223v276h-65z" />
    <glyph glyph-name="ncommaaccent.smcp" horiz-adv-x="613" 
d="M300 -131v53c0 11 5 17 15 17h21c11 0 15 -8 15 -17v-93c0 -53 -49 -43 -49 -43v14c18 0 20 11 20 18v36h-7c-8 0 -15 5 -15 15zM98 0v571h38l372 -495v495h40v-571h-37l-372 497v-497h-41z" />
    <glyph glyph-name="omacron.smcp" horiz-adv-x="606" 
d="M175 639v31h265v-31h-265zM109 285c-1 -214 52 -249 198 -249c143 0 202 45 199 251c-4 218 -46 247 -199 247c-134 0 -197 -28 -198 -249zM68 280c0 244 73 295 239 295c164 0 240 -32 240 -288c0 -245 -72 -292 -240 -292c-161 0 -239 36 -239 285z" />
    <glyph glyph-name="kcommaaccent.smcp" horiz-adv-x="542" 
d="M262 -131v53c0 11 5 17 15 17h21c11 0 15 -8 15 -17v-93c0 -53 -49 -43 -49 -43v14c18 0 20 11 20 18v36h-7c-8 0 -15 5 -15 15zM98 -1v571h41v-270h113l203 270h50l-216 -290l216 -281h-50l-204 259h-112v-259h-41z" />
    <glyph glyph-name="ocircumflex.smcp" horiz-adv-x="606" 
d="M166 633l127 130h37l115 -130h-36l-98 100l-109 -100h-36zM109 285c-1 -214 52 -249 198 -249c143 0 202 45 199 251c-4 218 -46 247 -199 247c-134 0 -197 -28 -198 -249zM68 280c0 244 73 295 239 295c164 0 240 -32 240 -288c0 -245 -72 -292 -240 -292
c-161 0 -239 36 -239 285z" />
    <glyph glyph-name="otilde.smcp" horiz-adv-x="606" 
d="M143 669c36 31 70 60 110 60c43 -1 89 -60 120 -60c34 0 70 29 96 47l12 -19c-33 -30 -67 -63 -109 -62c-47 1 -86 60 -120 60c-40 0 -63 -23 -99 -45zM109 285c-1 -214 52 -249 198 -249c143 0 202 45 199 251c-4 218 -46 247 -199 247c-134 0 -197 -28 -198 -249z
M68 280c0 244 73 295 239 295c164 0 240 -32 240 -288c0 -245 -72 -292 -240 -292c-161 0 -239 36 -239 285z" />
    <glyph glyph-name="odieresis.smcp" horiz-adv-x="606" 
d="M404 664c0 16 13 28 29 28s29 -12 29 -28s-13 -29 -29 -29s-29 13 -29 29zM150 664c0 16 12 28 28 28s29 -12 29 -28s-13 -29 -29 -29s-28 13 -28 29zM109 285c-1 -214 52 -249 198 -249c143 0 202 45 199 251c-4 218 -46 247 -199 247c-134 0 -197 -28 -198 -249z
M68 280c0 244 73 295 239 295c164 0 240 -32 240 -288c0 -245 -72 -292 -240 -292c-161 0 -239 36 -239 285z" />
    <glyph glyph-name="oslash.smcp" horiz-adv-x="601" 
d="M155 78c31 -33 79 -42 150 -42c141 0 197 42 197 251c0 104 -11 166 -40 201c-31 -39 -277 -371 -307 -410zM109 285c0 -88 8 -147 30 -184c30 39 274 367 304 406c-31 22 -77 27 -138 27c-133 0 -196 -30 -196 -249zM64 0c6 8 41 55 47 63c-29 42 -43 110 -43 217
c0 244 71 295 237 295c71 0 124 -5 163 -33c2 3 20 25 22 28h35c-5 -7 -31 -40 -36 -47c37 -40 54 -112 54 -236c0 -245 -70 -292 -238 -292c-79 0 -137 8 -176 47c-3 -4 -29 -38 -32 -42h-33z" />
    <glyph glyph-name="uogonek.smcp" horiz-adv-x="567" 
d="M122 260v310h42v-310c0 -180 56 -224 190 -224c122 0 186 48 186 224v310h42v-310c0 -228 -103 -264 -220 -265c-93 -54 -81 -148 29 -147v-30c-113 -16 -189 111 -51 177c-124 2 -219 35 -218 265z" />
    <glyph glyph-name="uacute.smcp" horiz-adv-x="622" 
d="M312 630l116 133h49l-133 -133h-32zM98 260v310h42v-310c0 -180 56 -224 190 -224c122 0 186 48 186 224v310h42v-310c0 -233 -108 -265 -228 -265c-131 0 -233 26 -232 265z" />
    <glyph glyph-name="ucircumflex.smcp" horiz-adv-x="622" 
d="M188 630l127 130h37l115 -130h-36l-98 100l-109 -100h-36zM98 260v310h42v-310c0 -180 56 -224 190 -224c122 0 186 48 186 224v310h42v-310c0 -233 -108 -265 -228 -265c-131 0 -233 26 -232 265z" />
    <glyph glyph-name="udieresis.smcp" horiz-adv-x="622" 
d="M425 659c0 16 13 28 29 28s29 -12 29 -28s-13 -29 -29 -29s-29 13 -29 29zM171 659c0 16 12 28 28 28s29 -12 29 -28s-13 -29 -29 -29s-28 13 -28 29zM98 260v310h42v-310c0 -180 56 -224 190 -224c122 0 186 48 186 224v310h42v-310c0 -233 -108 -265 -228 -265
c-131 0 -233 26 -232 265z" />
    <glyph glyph-name="utilde.smcp" horiz-adv-x="622" 
d="M158 664c36 31 70 60 110 60c43 -1 89 -60 120 -60c34 0 70 29 96 47l12 -19c-33 -30 -67 -63 -109 -62c-47 1 -86 60 -120 60c-40 0 -63 -23 -99 -45zM98 260v310h42v-310c0 -180 56 -224 190 -224c122 0 186 48 186 224v310h42v-310c0 -233 -108 -265 -228 -265
c-131 0 -233 26 -232 265z" />
    <glyph glyph-name="umacron.smcp" horiz-adv-x="622" 
d="M194 630v31h265v-31h-265zM98 260v310h42v-310c0 -180 56 -224 190 -224c122 0 186 48 186 224v310h42v-310c0 -233 -108 -265 -228 -265c-131 0 -233 26 -232 265z" />
    <glyph glyph-name="germandbls.smcp" horiz-adv-x="996" 
d="M535 441c0 82 35 132 138 132c52 0 176 -8 243 -17v-28s-145 5 -243 5c-69 0 -97 -30 -97 -92v-67c0 -75 38 -74 97 -74h140c87 0 130 -37 130 -112v-70c0 -109 -75 -128 -130 -128c-49 0 -219 6 -256 18v28s160 -5 256 -5c68 0 89 44 89 87v70c0 52 -27 72 -89 72h-140
c-94 0 -138 18 -138 114v67zM46 374c0 -96 44 -114 138 -114h140c62 0 89 -20 89 -72v-70c0 -43 -21 -87 -89 -87c-96 0 -256 5 -256 5v-28c37 -12 207 -18 256 -18c55 0 130 19 130 128v70c0 75 -43 112 -130 112h-140c-59 0 -97 -1 -97 74v67c0 62 28 92 97 92
c98 0 243 -5 243 -5v28c-67 9 -191 17 -243 17c-103 0 -138 -50 -138 -132v-67z" />
    <glyph glyph-name="agrave.smcp" horiz-adv-x="581" 
d="M134 764h49l116 -133h-32zM178 213h240l-115 302zM43 0l240 570h41l220 -570h-45l-67 172h-272l-72 -172h-45z" />
    <glyph glyph-name="ccedilla.smcp" horiz-adv-x="528" 
d="M186 -157l39 9c45 9 66 26 65 110h34c0 -101 -19 -136 -101 -136h-37v17zM68 295c0 145 34 283 204 283c43 0 168 -10 219 -22v-29c-15 3 -154 10 -219 10c-116 0 -163 -81 -163 -242c0 -162 39 -257 163 -258c73 2 219 10 219 10v-29c-58 -11 -142 -22 -219 -22
c-181 0 -204 161 -204 299z" />
    <glyph glyph-name="eth.smcp" horiz-adv-x="608" 
d="M143 41h175c141 0 179 105 179 242c0 184 -87 247 -177 247h-177v-226h116v-28h-116v-235zM35 276v28h66v268h224c173 -1 215 -166 215 -289c0 -282 -162 -283 -217 -283h-222v276h-66z" />
    <glyph glyph-name="egrave.smcp" horiz-adv-x="525" 
d="M159 765h49l116 -133h-32zM98 83v398c0 61 40 90 104 90l274 -10v-30h-272c-56 0 -65 -24 -65 -55v-170l306 -6v-30l-306 -6v-173c0 -49 37 -52 52 -52h285v-29l-294 -12c-50 0 -84 33 -84 85z" />
    <glyph glyph-name="ecircumflex.smcp" horiz-adv-x="525" 
d="M159 632l127 130h37l115 -130h-36l-98 100l-109 -100h-36zM98 83v398c0 61 40 90 104 90l274 -10v-30h-272c-56 0 -65 -24 -65 -55v-170l306 -6v-30l-306 -6v-173c0 -49 37 -52 52 -52h285v-29l-294 -12c-50 0 -84 33 -84 85z" />
    <glyph glyph-name="igrave.smcp" horiz-adv-x="204" 
d="M-25 763h49l116 -133h-32zM99 0v570h41v-570h-41z" />
    <glyph glyph-name="idieresis.smcp" horiz-adv-x="204" 
d="M215 659c0 16 13 28 29 28s29 -12 29 -28s-13 -29 -29 -29s-29 13 -29 29zM-39 659c0 16 12 28 28 28s29 -12 29 -28s-13 -29 -29 -29s-28 13 -28 29zM98 0v570h41v-570h-41z" />
    <glyph glyph-name="ntilde.smcp" horiz-adv-x="613" 
d="M151 665c36 31 70 60 110 60c43 -1 89 -60 120 -60c34 0 70 29 96 47l12 -19c-33 -30 -67 -63 -109 -62c-47 1 -86 60 -120 60c-40 0 -63 -23 -99 -45zM98 0v571h38l372 -495v495h40v-571h-37l-372 497v-497h-41z" />
    <glyph glyph-name="ograve.smcp" horiz-adv-x="606" 
d="M163 768h49l116 -133h-32zM109 285c-1 -214 52 -249 198 -249c143 0 202 45 199 251c-4 218 -46 247 -199 247c-134 0 -197 -28 -198 -249zM68 280c0 244 73 295 239 295c164 0 240 -32 240 -288c0 -245 -72 -292 -240 -292c-161 0 -239 36 -239 285z" />
    <glyph glyph-name="oacute.smcp" horiz-adv-x="606" 
d="M296 635l116 133h49l-133 -133h-32zM109 285c-1 -214 52 -249 198 -249c143 0 202 45 199 251c-4 218 -46 247 -199 247c-134 0 -197 -28 -198 -249zM68 280c0 244 73 295 239 295c164 0 240 -32 240 -288c0 -245 -72 -292 -240 -292c-161 0 -239 36 -239 285z" />
    <glyph glyph-name="ugrave.smcp" horiz-adv-x="622" 
d="M182 763h49l116 -133h-32zM98 260v310h42v-310c0 -180 56 -224 190 -224c122 0 186 48 186 224v310h42v-310c0 -233 -108 -265 -228 -265c-131 0 -233 26 -232 265z" />
    <glyph glyph-name="yacute.smcp" horiz-adv-x="563" 
d="M263 630l116 133h49l-133 -133h-32zM43 570h47l196 -336l193 336h47l-220 -380v-191h-41v191z" />
    <glyph glyph-name="thorn.smcp" horiz-adv-x="556" 
d="M133 151h196c65 0 105 28 105 143c0 82 -39 129 -105 131h-196v-274zM92 0v569h41v-103h196c50 0 146 -23 146 -173c0 -171 -84 -184 -146 -184c-33 0 -145 -2 -196 12v-121h-41z" />
    <glyph glyph-name="quotesinglbase.smcp" horiz-adv-x="196" 
d="M69 20v64c0 15 7 22 20 22h29c15 0 20 -10 20 -22v-106c0 -71 -65 -57 -65 -57v18c24 -1 25 16 25 25v36h-9c-11 0 -20 6 -20 20z" />
    <glyph glyph-name="quotedblleft.smcp" horiz-adv-x="315" 
d="M63 410v106c0 72 64 56 64 56v-17c-24 1 -25 -17 -25 -26v-34h9c11 0 20 -7 20 -21v-64c0 -15 -7 -22 -20 -22h-28c-15 0 -20 10 -20 22zM185 410v106c0 72 65 56 65 56v-17c-24 1 -26 -17 -26 -26v-34h9c11 0 20 -7 20 -21v-64c0 -15 -7 -22 -20 -22h-29
c-15 0 -19 10 -19 22z" />
    <glyph glyph-name="quotedblright.smcp" horiz-adv-x="315" 
d="M185 487v65c0 15 7 22 20 22h28c15 0 20 -10 20 -22v-106c0 -72 -64 -57 -64 -57v18c24 -1 25 16 25 25v35h-9c-11 0 -20 6 -20 20zM63 487v65c0 15 7 22 20 22h29c15 0 19 -10 19 -22v-106c0 -72 -64 -57 -64 -57v18c24 -1 25 16 25 25v35h-9c-11 0 -20 6 -20 20z" />
    <glyph glyph-name="quotedblbase.smcp" horiz-adv-x="315" 
d="M185 20v64c0 15 7 22 20 22h28c15 0 20 -10 20 -22v-106c0 -71 -64 -56 -64 -56v17c24 -1 25 16 25 25v36h-9c-11 0 -20 6 -20 20zM63 20v64c0 15 7 22 20 22h29c15 0 19 -10 19 -22v-106c0 -71 -64 -56 -64 -56v17c24 -1 25 16 25 25v36h-9c-11 0 -20 6 -20 20z" />
    <glyph glyph-name="exclamdown.smcp" horiz-adv-x="263" 
d="M108 0l6 404h33l6 -404h-45zM101 494v60c0 10 6 16 15 16h27c9 0 16 -7 16 -16v-60c0 -10 -5 -16 -16 -16h-27c-10 0 -15 7 -15 16z" />
    <glyph glyph-name="ordmasculine.smcp" horiz-adv-x="428" 
d="M89 394c0 -124 38 -144 126 -144c91 0 123 21 124 144c1 136 -33 154 -124 154c-98 0 -126 -24 -126 -154zM67 157v32h293v-32h-293zM56 394c0 142 32 187 159 187s157 -45 157 -187c0 -128 -30 -177 -157 -177s-159 49 -159 177z" />
    <glyph glyph-name="ordfeminine.smcp" horiz-adv-x="420" 
d="M166 360h135l-63 177zM77 223l142 349h37l126 -349h-33l-38 107h-157l-42 -107h-35zM74 159v32h311v-32h-311z" />
    <glyph glyph-name="Euro.smcp" horiz-adv-x="513" 
d="M20 210v23l68 6v82l-68 6v21l68 7c0 56 3 222 193 222c41 0 133 -13 188 -23v-29s-124 11 -188 11c-134 0 -152 -96 -152 -181l186 -6v-23l-186 -5v-82l186 -5v-24s-188 -4 -186 -6c0 -109 61 -167 152 -167c80 0 191 15 191 15v-29c-63 -18 -126 -28 -191 -28
c-86 0 -193 50 -193 209z" />
    <glyph glyph-name="lcaron.smcp" horiz-adv-x="511" 
d="M220 543v67h42v-67l-8 -134h-26zM98 86v484h41v-476c0 -42 24 -53 58 -53h277v-41h-290c-53 0 -86 31 -86 86z" />
    <glyph glyph-name="sacute.smcp" horiz-adv-x="538" 
d="M252 639l116 133h49l-133 -133h-32zM68 374v64c0 82 35 135 138 135c52 0 179 -8 246 -17v-28s-148 5 -246 5c-69 0 -97 -33 -97 -95v-64c0 -75 38 -74 97 -74h143c87 0 130 -37 130 -112v-70c0 -109 -75 -128 -130 -128c-49 0 -222 6 -259 18v28s163 -5 259 -5
c68 0 89 54 89 87v70c0 52 -27 72 -89 72h-143c-94 0 -138 18 -138 114z" />
    <glyph glyph-name="scedilla.smcp" horiz-adv-x="538" 
d="M162 -160l39 9c45 9 66 26 65 110h34c0 -101 -19 -136 -101 -136h-37v17zM68 374v64c0 82 35 135 138 135c52 0 179 -8 246 -17v-28s-148 5 -246 5c-69 0 -97 -33 -97 -95v-64c0 -75 38 -74 97 -74h143c87 0 130 -37 130 -112v-70c0 -109 -75 -128 -130 -128
c-49 0 -222 6 -259 18v28s163 -5 259 -5c68 0 89 54 89 87v70c0 52 -27 72 -89 72h-143c-94 0 -138 18 -138 114z" />
    <glyph glyph-name="tcaron.smcp" horiz-adv-x="563" 
d="M163 773h35l102 -100l106 100h36l-123 -130h-38zM71 529v41h453v-41h-206v-529h-41v529h-206z" />
    <glyph glyph-name="zacute.smcp" horiz-adv-x="499" 
d="M237 630l116 133h49l-133 -133h-32zM43 0v41l367 488h-367v41h419v-41l-363 -488h363v-41h-419z" />
    <glyph glyph-name="zdotaccent.smcp" horiz-adv-x="499" 
d="M225 646v59c0 10 5 16 16 16h24c10 0 16 -7 16 -16v-59c0 -10 -7 -16 -16 -16h-24c-9 0 -16 7 -16 16zM43 0v41l367 488h-367v41h419v-41l-363 -488h363v-41h-419z" />
    <glyph glyph-name="racute.smcp" horiz-adv-x="532" 
d="M260 631l116 133h49l-133 -133h-32zM115 285h224c35 0 105 21 105 123s-73 122 -112 122h-217v-245zM74 0v571h258c60 0 153 -28 153 -162c0 -96 -55 -159 -129 -161l138 -248h-47l-135 244c-30 2 -196 10 -197 12v-256h-41z" />
    <glyph glyph-name="abreve.smcp" horiz-adv-x="581" 
d="M188 744h25c0 -51 42 -90 89 -89c52 1 91 36 91 89h25c0 -76 -61 -114 -116 -114s-114 42 -114 114zM178 213h240l-115 302zM43 0l240 570h41l220 -570h-45l-67 172h-272l-72 -172h-45z" />
    <glyph glyph-name="lacute.smcp" horiz-adv-x="511" 
d="M106 630l116 133h49l-133 -133h-32zM98 86v484h41v-476c0 -42 24 -53 58 -53h277v-41h-290c-53 0 -86 31 -86 86z" />
    <glyph glyph-name="cacute.smcp" horiz-adv-x="528" 
d="M264 643l116 133h49l-133 -133h-32zM68 295c0 145 34 283 204 283c43 0 168 -10 219 -22v-29c-15 3 -154 10 -219 10c-116 0 -163 -81 -163 -242c0 -162 39 -257 163 -258c73 2 219 10 219 10v-29c-58 -11 -142 -22 -219 -22c-181 0 -204 161 -204 299z" />
    <glyph glyph-name="ecaron.smcp" horiz-adv-x="525" 
d="M157 761h35l102 -100l106 100h36l-123 -130h-38zM98 83v398c0 61 40 90 104 90l274 -10v-30h-272c-56 0 -65 -24 -65 -55v-170l306 -6v-30l-306 -6v-173c0 -49 37 -52 52 -52h285v-29l-294 -12c-50 0 -84 33 -84 85z" />
    <glyph glyph-name="dcaron.smcp" horiz-adv-x="604" 
d="M193 762h35l102 -100l106 100h36l-123 -130h-38zM159 41h193c141 0 178 107 178 242c0 183 -88 248 -178 248h-193v-490zM118 0v572h234c176 -2 219 -166 219 -289c0 -282 -159 -283 -219 -283h-234z" />
    <glyph glyph-name="nacute.smcp" horiz-adv-x="613" 
d="M313 631l116 133h49l-133 -133h-32zM98 0v571h38l372 -495v495h40v-571h-37l-372 497v-497h-41z" />
    <glyph glyph-name="ncaron.smcp" horiz-adv-x="613" 
d="M185 761h35l102 -100l106 100h36l-123 -130h-38zM98 0v571h38l372 -495v495h40v-571h-37l-372 497v-497h-41z" />
    <glyph glyph-name="ohungarumlaut.smcp" horiz-adv-x="606" 
d="M359 635l116 133h50l-133 -133h-33zM222 635l116 133h49l-133 -133h-32zM109 285c-1 -214 52 -249 198 -249c143 0 202 45 199 251c-4 218 -46 247 -199 247c-134 0 -197 -28 -198 -249zM68 280c0 244 73 295 239 295c164 0 240 -32 240 -288c0 -245 -72 -292 -240 -292
c-161 0 -239 36 -239 285z" />
    <glyph glyph-name="rcaron.smcp" horiz-adv-x="532" 
d="M135 761h35l102 -100l106 100h36l-123 -130h-38zM115 285h224c35 0 105 21 105 123s-73 122 -112 122h-217v-245zM74 0v571h258c60 0 153 -28 153 -162c0 -96 -55 -159 -129 -161l138 -248h-47l-135 244c-30 2 -196 10 -197 12v-256h-41z" />
    <glyph glyph-name="uring.smcp" horiz-adv-x="622" 
d="M252 722c0 -42 35 -76 77 -76s75 34 75 76s-33 77 -75 77s-77 -35 -77 -77zM227 722c0 57 46 103 102 103s100 -46 100 -103s-44 -102 -100 -102s-102 45 -102 102zM98 260v310h42v-310c0 -180 56 -224 190 -224c122 0 186 48 186 224v310h42v-310
c0 -233 -108 -265 -228 -265c-131 0 -233 26 -232 265z" />
    <glyph glyph-name="uhungarumlaut.smcp" horiz-adv-x="622" 
d="M378 630l116 133h50l-133 -133h-33zM241 630l116 133h49l-133 -133h-32zM98 260v310h42v-310c0 -180 56 -224 190 -224c122 0 186 48 186 224v310h42v-310c0 -233 -108 -265 -228 -265c-131 0 -233 26 -232 265z" />
    <glyph glyph-name="tcommaaccent.smcp" horiz-adv-x="533" 
d="M143 -166l39 9c45 9 66 26 65 110h34c0 -101 -19 -136 -101 -136h-37v17zM43 529v41h453v-41h-206v-529h-41v529h-206z" />
    <glyph glyph-name="lslash.smcp" horiz-adv-x="508" 
d="M39 257v34l62 26v253h41v-237l116 48v-34l-116 -48v-205c0 -42 23 -53 57 -53h277v-41h-289c-53 0 -86 31 -86 86v196z" />
    <glyph glyph-name="questiondown.smcp" horiz-adv-x="506" 
d="M271 494v60c0 11 7 16 16 16h26c9 0 16 -7 16 -16v-60c0 -10 -5 -16 -16 -16h-26c-11 0 -16 6 -16 16zM69 149v50c0 113 100 145 209 131c0 1 1 74 0 75h43v-112c-15 0 -65 1 -80 0c-61 -1 -131 -16 -131 -94v-50c0 -87 54 -109 157 -109h197v-29
c-77 -9 -120 -13 -204 -12c-139 0 -191 55 -191 150z" />
    <glyph glyph-name="oe.smcp" horiz-adv-x="903" 
d="M90 285c0 -214 52 -249 198 -249c143 0 199 45 199 251c0 220 -51 247 -199 247c-133 0 -198 -27 -198 -249zM49 280c0 244 73 295 239 295c101 0 167 -13 202 -84c5 54 40 80 101 80l268 -10v-30h-266c-56 0 -65 -24 -65 -55v-170l300 -6v-30l-300 -6v-173
c0 -49 37 -52 52 -52h279v-29l-288 -12c-53 0 -81 35 -82 85c-31 -66 -100 -88 -201 -88c-161 0 -239 36 -239 285z" />
    <glyph glyph-name="ydieresis.smcp" horiz-adv-x="563" 
d="M383 659c0 16 13 28 29 28s29 -12 29 -28s-13 -29 -29 -29s-29 13 -29 29zM129 659c0 16 12 28 28 28s29 -12 29 -28s-13 -29 -29 -29s-28 13 -28 29zM43 570h47l196 -336l193 336h47l-220 -380v-191h-41v191z" />
    <glyph glyph-name="sterling.smcp" horiz-adv-x="538" 
d="M62 0v26l56 10v228h-56v23l56 10v94c0 91 37 180 196 180l164 -11v-28h-162c-120 0 -157 -56 -157 -143v-90l257 -11v-26h-257v-222h319v-40h-416z" />
    <glyph glyph-name="yen.smcp" horiz-adv-x="500" 
d="M25 571h46l180 -285l177 285h48l-195 -313h162v-32h-172v-57h172v-32h-172v-137h-41v137h-165v32h165v57h-165v32h155z" />
    <glyph glyph-name="perthousand.smcp" horiz-adv-x="1150" 
d="M833 125c0 -73 28 -93 95 -93h46c71 0 97 19 97 93v63c0 68 -22 93 -95 93h-46c-72 0 -97 -19 -97 -93v-63zM801 125v63c0 85 28 125 129 125h46c98 0 127 -40 127 -125v-63c0 -85 -28 -125 -129 -125h-46c-98 0 -127 40 -127 125zM481 125c0 -73 28 -93 95 -93h46
c71 0 97 19 97 93v63c0 68 -22 93 -95 93h-46c-72 0 -97 -19 -97 -93v-63zM449 125v63c0 85 28 125 129 125h46c98 0 127 -40 127 -125v-63c0 -85 -28 -125 -129 -125h-46c-98 0 -127 40 -127 125zM202 0l341 570h38l-341 -570h-38zM68 384c0 -73 28 -93 95 -93h45
c71 0 97 19 97 93v62c0 68 -22 93 -95 93h-45c-72 0 -97 -19 -97 -93v-62zM36 384v62c0 85 28 125 129 125h45c98 0 127 -40 127 -125v-62c0 -85 -28 -125 -129 -125h-45c-98 0 -127 40 -127 125z" />
    <glyph glyph-name="circumflex.smcp" horiz-adv-x="401" 
d="M62 531l127 130h37l114 -130h-35l-98 100l-109 -100h-36z" />
    <glyph glyph-name="tilde.smcp" horiz-adv-x="461" 
d="M62 572c36 31 70 60 110 60c43 -1 89 -60 120 -60c34 0 70 29 96 47l12 -19c-33 -30 -67 -63 -109 -62c-47 1 -86 60 -120 60c-40 0 -63 -23 -99 -45z" />
    <glyph glyph-name="ring.smcp" horiz-adv-x="325" 
d="M87 632c0 -42 35 -76 77 -76s75 34 75 76s-33 76 -75 76s-77 -34 -77 -76zM62 632c0 57 46 103 102 103s100 -46 100 -103s-44 -102 -100 -102s-102 45 -102 102z" />
    <glyph glyph-name="hbar.smcp" horiz-adv-x="602" 
d="M139 296h357v116h-357v-116zM49 412v25h49v133h41v-133h357v133h41v-133h51v-25h-51v-413h-41v256h-357v-256h-41v413h-49z" />
    <glyph glyph-name="hcircumflex.smcp" horiz-adv-x="602" 
d="M177 630l127 130h37l115 -130h-36l-98 100l-109 -100h-36zM98 -1v571h41v-274h358v274h41v-571h-41v255h-358v-255h-41z" />
    <glyph glyph-name="gbreve.smcp" horiz-adv-x="575" 
d="M183 753h25c0 -51 42 -90 89 -89c52 1 91 36 91 89h25c0 -76 -61 -114 -116 -114s-114 42 -114 114zM68 286c0 184 41 293 213 293c43 0 157 -11 221 -25v-30c-62 6 -132 14 -221 14c-123 0 -172 -59 -172 -250c0 -143 55 -254 172 -254c81 0 172 41 194 58v178h-191v26
c62 8 84 15 165 15c21 0 43 -1 67 -3v-308h-29l-11 51c-53 -34 -135 -58 -195 -58c-207 -1 -213 243 -213 293z" />
    <glyph glyph-name="jcircumflex.smcp" horiz-adv-x="332" 
d="M98 630l127 130h37l115 -130h-36l-98 100l-109 -100h-36zM43 20l4 28c90 -20 179 -31 179 120v402h41v-402c0 -47 -7 -118 -54 -151c-49 -34 -123 -22 -170 3z" />
    <glyph glyph-name="cdotaccent.smcp" horiz-adv-x="528" 
d="M274 659v59c0 10 5 16 16 16h24c10 0 16 -7 16 -16v-59c0 -10 -7 -16 -16 -16h-24c-9 0 -16 7 -16 16zM68 295c0 145 34 283 204 283c43 0 168 -10 219 -22v-29c-15 3 -154 10 -219 10c-116 0 -163 -81 -163 -242c0 -162 39 -257 163 -258c73 2 219 10 219 10v-29
c-58 -11 -142 -22 -219 -22c-181 0 -204 161 -204 299z" />
    <glyph glyph-name="ccircumflex.smcp" horiz-adv-x="528" 
d="M168 643l127 130h37l115 -130h-36l-98 100l-109 -100h-36zM68 295c0 145 34 283 204 283c43 0 168 -10 219 -22v-29c-15 3 -154 10 -219 10c-116 0 -163 -81 -163 -242c0 -162 39 -257 163 -258c73 2 219 10 219 10v-29c-58 -11 -142 -22 -219 -22
c-181 0 -204 161 -204 299z" />
    <glyph glyph-name="gdotaccent.smcp" horiz-adv-x="575" 
d="M279 655v59c0 10 5 16 16 16h24c10 0 16 -7 16 -16v-59c0 -10 -7 -16 -16 -16h-24c-9 0 -16 7 -16 16zM68 286c0 184 41 293 213 293c43 0 157 -11 221 -25v-30c-62 6 -132 14 -221 14c-123 0 -172 -59 -172 -250c0 -143 55 -254 172 -254c81 0 172 41 194 58v178h-191
v26c62 8 84 15 165 15c21 0 43 -1 67 -3v-308h-29l-11 51c-53 -34 -135 -58 -195 -58c-207 -1 -213 243 -213 293z" />
    <glyph glyph-name="gcircumflex.smcp" horiz-adv-x="575" 
d="M172 639l127 130h37l115 -130h-36l-98 100l-109 -100h-36zM68 286c0 184 41 293 213 293c43 0 157 -11 221 -25v-30c-62 6 -132 14 -221 14c-123 0 -172 -59 -172 -250c0 -143 55 -254 172 -254c81 0 172 41 194 58v178h-191v26c62 8 84 15 165 15c21 0 43 -1 67 -3v-308
h-29l-11 51c-53 -34 -135 -58 -195 -58c-207 -1 -213 243 -213 293z" />
    <glyph glyph-name="ubreve.smcp" horiz-adv-x="622" 
d="M213 744h25c0 -51 42 -90 89 -89c52 1 91 36 91 89h25c0 -76 -61 -114 -116 -114s-114 42 -114 114zM98 260v310h42v-310c0 -180 56 -224 190 -224c122 0 186 48 186 224v310h42v-310c0 -233 -108 -265 -228 -265c-131 0 -233 26 -232 265z" />
    <glyph glyph-name="scircumflex.smcp" horiz-adv-x="538" 
d="M121 635l127 130h37l115 -130h-36l-98 100l-109 -100h-36zM68 374v64c0 82 35 135 138 135c52 0 179 -8 246 -17v-28s-148 5 -246 5c-69 0 -97 -33 -97 -95v-64c0 -75 38 -74 97 -74h143c87 0 130 -37 130 -112v-70c0 -109 -75 -128 -130 -128c-49 0 -222 6 -259 18v28
s163 -5 259 -5c68 0 89 54 89 87v70c0 52 -27 72 -89 72h-143c-94 0 -138 18 -138 114z" />
    <glyph glyph-name="Idotaccent.smcp" horiz-adv-x="196" 
d="M95 0v570h41v-570h-41zM88 677v59c0 10 5 16 16 16h24c10 0 16 -7 16 -16v-59c0 -10 -7 -16 -16 -16h-24c-9 0 -16 7 -16 16z" />
    <glyph glyph-name="periodcentered.smcp" horiz-adv-x="266" 
d="M109 301v28c0 10 6 16 17 16h25c11 0 16 -6 16 -16v-28c0 -11 -7 -15 -16 -15h-25c-9 0 -17 6 -17 15z" />
    <glyph glyph-name="bullet.smcp" horiz-adv-x="317" 
d="M105 299v47c0 21 11 35 33 35h41c25 0 35 -13 35 -35v-47c0 -24 -15 -32 -35 -32h-41c-20 0 -33 12 -33 32z" />
    <glyph glyph-name="quoteleft.smcp" horiz-adv-x="206" 
d="M69 410v106c0 72 64 56 64 56v-17c-24 1 -25 -17 -25 -26v-35h9c11 0 21 -6 21 -20v-64c0 -15 -8 -22 -21 -22h-28c-15 0 -20 10 -20 22z" />
    <glyph glyph-name="quoteright.smcp" horiz-adv-x="206" 
d="M69 487v65c0 15 7 22 20 22h29c15 0 20 -10 20 -22v-106c0 -72 -65 -57 -65 -57v18c24 -1 25 16 25 25v35h-9c-11 0 -20 6 -20 20z" />
    <glyph glyph-name="uni1E02" unicode="&#x1e02;" horiz-adv-x="597" 
d="M288 812v59c0 10 5 16 16 16h24c10 0 16 -7 16 -16v-59c0 -10 -7 -16 -16 -16h-24c-9 0 -16 7 -16 16zM140 404h221c87 0 147 50 149 143c3 111 -61 144 -149 144h-221v-287zM140 42h221c68 0 153 25 153 164c0 86 -64 157 -153 156h-221v-320zM98 0v732h263
c147 0 190 -87 190 -185c0 -89 -50 -152 -116 -164c44 -10 120 -65 120 -179c0 -102 -40 -204 -194 -204h-263z" />
    <glyph glyph-name="uni1E03" unicode="&#x1e03;" horiz-adv-x="552" 
d="M67 864v59c0 10 5 16 16 16h24c10 0 16 -7 16 -16v-59c0 -10 -7 -16 -16 -16h-24c-9 0 -16 7 -16 16zM114 87c53 -25 117 -52 196 -52c78 0 140 69 140 228c0 191 -63 235 -140 235s-127 -11 -196 -29v-382zM74 0v785h39v-286c64 26 152 40 197 40
c151 0 181 -140 181 -276c0 -122 -36 -269 -181 -269c-68 0 -170 43 -196 65l-14 -59h-26z" />
    <glyph glyph-name="uni1E0A" unicode="&#x1e0a;" horiz-adv-x="666" 
d="M305 815v59c0 10 5 16 16 16h24c10 0 16 -7 16 -16v-59c0 -10 -7 -16 -16 -16h-24c-9 0 -16 7 -16 16zM139 42h219c155 0 218 172 218 322c0 229 -81 327 -218 327h-219v-649zM98 0v732h260c226 0 259 -219 259 -369c0 -166 -71 -363 -259 -363h-260z" />
    <glyph glyph-name="Wgrave" unicode="&#x1e80;" horiz-adv-x="967" 
d="M353 928h49l116 -133h-32zM56 732h44l240 -672l223 672h46l-91 -278l152 -396l228 674h43l-246 -732h-47l-152 389l-133 -389h-47z" />
    <glyph glyph-name="Wacute" unicode="&#x1e82;" horiz-adv-x="967" 
d="M486 795l116 133h49l-133 -133h-32zM56 732h44l240 -672l223 672h46l-91 -278l152 -396l228 674h43l-246 -732h-47l-152 389l-133 -389h-47z" />
    <glyph glyph-name="uni1E0B" unicode="&#x1e0b;" horiz-adv-x="552" 
d="M431 862v59c0 10 5 16 16 16h24c10 0 16 -7 16 -16v-59c0 -10 -7 -16 -16 -16h-24c-9 0 -16 7 -16 16zM103 263c0 -164 62 -228 140 -228c79 0 143 27 196 52v382c-69 18 -119 29 -196 29s-140 -42 -140 -235zM62 263c0 136 30 276 181 276c45 0 133 -14 197 -40v286h39
v-785h-27l-13 59c-26 -22 -128 -65 -196 -65c-145 0 -181 147 -181 269z" />
    <glyph glyph-name="Ygrave" unicode="&#x1ef2;" horiz-adv-x="622" 
d="M177 930h49l116 -133h-32zM56 732h45l215 -422l234 422h46l-260 -472v-260h-41v260z" />
    <glyph glyph-name="uni1E1E" unicode="&#x1e1e;" horiz-adv-x="576" 
d="M281 831v59c0 10 5 16 16 16h24c10 0 16 -7 16 -16v-59c0 -10 -7 -16 -16 -16h-24c-9 0 -16 7 -16 16zM98 0v602c0 98 61 132 126 130l304 -12v-29h-304c-59 0 -85 -30 -85 -89v-218l349 -7v-29l-349 -7v-341h-41z" />
    <glyph glyph-name="uni1E1F" unicode="&#x1e1f;" horiz-adv-x="389" 
d="M220 869v59c0 10 5 16 16 16h24c10 0 16 -7 16 -16v-59c0 -10 -7 -16 -16 -16h-24c-9 0 -16 7 -16 16zM25 490v29l90 12v99c0 54 3 156 103 156c36 0 107 -3 147 -15v-26l-136 1c-67 0 -73 -48 -73 -116v-99h168v-41h-168v-490h-41v490h-90z" />
    <glyph glyph-name="uni1E40" unicode="&#x1e40;" horiz-adv-x="798" 
d="M373 813v59c0 10 5 16 16 16h24c10 0 16 -7 16 -16v-59c0 -10 -7 -16 -16 -16h-24c-9 0 -16 7 -16 16zM68 0l69 732h59l207 -663l202 663h59l75 -732h-41l-69 667l-204 -667h-44l-208 667l-64 -667h-41z" />
    <glyph glyph-name="uni1E41" unicode="&#x1e41;" horiz-adv-x="919" 
d="M437 615v59c0 10 5 16 16 16h24c10 0 16 -7 16 -16v-59c0 -10 -7 -16 -16 -16h-24c-9 0 -16 7 -16 16zM74 0v531h27l14 -63c59 37 127 71 207 71c67 0 119 -33 144 -81c52 40 146 81 229 81c101 0 164 -77 164 -170v-369h-41v369c0 72 -47 129 -123 129
c-82 0 -151 -25 -220 -65c7 -16 11 -46 11 -64v-369h-41v369c0 72 -47 129 -123 129c-84 0 -132 -20 -207 -59v-439h-41z" />
    <glyph glyph-name="uni1E56" unicode="&#x1e56;" horiz-adv-x="582" 
d="M271 842v59c0 10 5 16 16 16h24c10 0 16 -7 16 -16v-59c0 -10 -7 -16 -16 -16h-24c-9 0 -16 7 -16 16zM115 356h243c70 0 135 22 134 172c-1 146 -72 162 -134 162h-243v-334zM74 0v732h284c79 0 176 -25 176 -204c0 -206 -102 -214 -176 -214c-40 0 -238 11 -243 14
v-328h-41z" />
    <glyph glyph-name="wgrave" unicode="&#x1e81;" horiz-adv-x="785" 
d="M252 727h49l116 -133h-32zM25 531h44l182 -474l173 474h43l-67 -189l129 -285l189 474h43l-209 -531h-43l-129 289l-106 -289h-44z" />
    <glyph glyph-name="uni1E57" unicode="&#x1e57;" horiz-adv-x="552" 
d="M261 617v59c0 10 5 16 16 16h24c10 0 16 -7 16 -16v-59c0 -10 -7 -16 -16 -16h-24c-9 0 -16 7 -16 16zM114 62c69 -18 119 -29 196 -29s140 44 140 235c0 159 -62 228 -140 228c-79 0 -143 -27 -196 -52v-382zM74 -269v800h26l14 -59c26 22 128 65 196 65
c145 0 181 -147 181 -269c0 -136 -30 -276 -181 -276c-45 0 -132 14 -196 40v-301h-40z" />
    <glyph glyph-name="wacute" unicode="&#x1e83;" horiz-adv-x="785" 
d="M385 594l116 133h49l-133 -133h-32zM25 531h44l182 -474l173 474h43l-67 -189l129 -285l189 474h43l-209 -531h-43l-129 289l-106 -289h-44z" />
    <glyph glyph-name="uni1E60" unicode="&#x1e60;" horiz-adv-x="585" 
d="M282 818v59c0 10 5 16 16 16h24c10 0 16 -7 16 -16v-59c0 -10 -7 -16 -16 -16h-24c-9 0 -16 7 -16 16zM80 494v66c0 145 83 178 195 178c53 0 186 -14 231 -21v-29c-64 4 -231 9 -231 9c-93 4 -154 -23 -154 -137v-66c0 -100 51 -114 132 -114h123
c133 0 160 -74 160 -156v-68c0 -142 -97 -164 -196 -164c-49 0 -194 10 -240 18v31c43 -4 147 -8 240 -8c73 0 155 16 155 123v68c0 75 -31 114 -119 114h-121c-157 0 -175 76 -175 156z" />
    <glyph glyph-name="ygrave" unicode="&#x1ef3;" horiz-adv-x="537" 
d="M122 729h49l116 -133h-32zM26 531h44l142 -415c31 -87 89 -73 89 -73l165 488h44l-233 -699l-56 -102h-24l90 270c-21 1 -86 7 -118 110z" />
    <glyph glyph-name="Wdieresis" unicode="&#x1e84;" horiz-adv-x="967" 
d="M600 825c0 16 13 28 29 28s29 -12 29 -28s-13 -29 -29 -29s-29 13 -29 29zM346 825c0 16 12 28 28 28s29 -12 29 -28s-13 -29 -29 -29s-28 13 -28 29zM56 732h44l240 -672l223 672h46l-91 -278l152 -396l228 674h43l-246 -732h-47l-152 389l-133 -389h-47z" />
    <glyph glyph-name="wdieresis" unicode="&#x1e85;" horiz-adv-x="785" 
d="M499 624c0 16 13 28 29 28s29 -12 29 -28s-13 -29 -29 -29s-29 13 -29 29zM245 624c0 16 12 28 28 28s29 -12 29 -28s-13 -29 -29 -29s-28 13 -28 29zM25 531h44l182 -474l173 474h43l-67 -189l129 -285l189 474h43l-209 -531h-43l-129 289l-106 -289h-44z" />
    <glyph glyph-name="uni1E61" unicode="&#x1e61;" horiz-adv-x="504" 
d="M234 616v59c0 10 5 16 16 16h24c10 0 16 -7 16 -16v-59c0 -10 -7 -16 -16 -16h-24c-9 0 -16 7 -16 16zM49 361v46c0 82 35 129 138 129c52 0 189 -6 241 -11v-29h-241c-77 0 -97 -30 -97 -89v-46c0 -75 35 -76 97 -76h138c80 0 130 -45 130 -120v-49
c0 -109 -66 -121 -130 -121c-49 0 -216 9 -254 13v28h254c31 0 89 -2 89 80v49c0 44 -27 79 -89 79h-138c-94 0 -138 14 -138 117z" />
    <glyph glyph-name="Wcircumflex" unicode="&#x174;" horiz-adv-x="967" 
d="M362 795l127 130h37l115 -130h-36l-98 100l-109 -100h-36zM56 732h44l240 -672l223 672h46l-91 -278l152 -396l228 674h43l-246 -732h-47l-152 389l-133 -389h-47z" />
    <glyph glyph-name="uni1E6A" unicode="&#x1e6a;" horiz-adv-x="595" 
d="M272 813v59c0 10 5 16 16 16h24c10 0 16 -7 16 -16v-59c0 -10 -7 -16 -16 -16h-24c-9 0 -16 7 -16 16zM46 691v41h515v-41h-240v-691h-41v691h-234z" />
    <glyph glyph-name="Ycircumflex" unicode="&#x176;" horiz-adv-x="622" 
d="M183 795l127 130h37l115 -130h-36l-98 100l-109 -100h-36zM56 732h45l215 -422l234 422h46l-260 -472v-260h-41v260z" />
    <glyph glyph-name="ycircumflex" unicode="&#x177;" horiz-adv-x="537" 
d="M129 596l127 130h37l115 -130h-36l-98 100l-109 -100h-36zM26 531h44l142 -415c31 -87 89 -73 89 -73l165 488h44l-233 -699l-56 -102h-24l90 270c-21 1 -86 7 -118 110z" />
    <glyph glyph-name="wcircumflex" unicode="&#x175;" horiz-adv-x="785" 
d="M262 594l127 130h37l115 -130h-36l-98 100l-109 -100h-36zM25 531h44l182 -474l173 474h43l-67 -189l129 -285l189 474h43l-209 -531h-43l-129 289l-106 -289h-44z" />
    <glyph glyph-name="uni1E6B" unicode="&#x1e6b;" horiz-adv-x="359" 
d="M112 757v59c0 10 5 16 16 16h24c10 0 16 -7 16 -16v-59c0 -10 -7 -16 -16 -16h-24c-9 0 -16 7 -16 16zM25 491v30l89 11l11 148h30v-148h168v-41h-168v-302c0 -133 49 -143 80 -148c0 0 72 -14 79 -14v-27h-74c-82 0 -126 54 -126 189v302h-89z" />
    <glyph glyph-name="uni1E03.smcp" horiz-adv-x="548" 
d="M262 647v59c0 10 5 16 16 16h24c10 0 16 -7 16 -16v-59c0 -10 -7 -16 -16 -16h-24c-9 0 -16 7 -16 16zM139 314h204c64 0 113 30 113 107c0 90 -62 109 -113 109h-204v-216zM139 42h204c50 0 116 10 116 115c0 70 -51 116 -116 116c0 0 -192 -1 -204 0v-231zM98 0v571
h245c124 0 154 -83 154 -150c0 -90 -56 -116 -89 -129c21 -4 92 -45 92 -135c0 -85 -31 -157 -157 -157h-245z" />
    <glyph glyph-name="uni1E0B.smcp" horiz-adv-x="610" 
d="M273 648v59c0 10 5 16 16 16h24c10 0 16 -7 16 -16v-59c0 -10 -7 -16 -16 -16h-24c-9 0 -16 7 -16 16zM139 41h193c141 0 178 107 178 242c0 183 -88 248 -178 248h-193v-490zM98 0v572h234c176 -2 219 -166 219 -289c0 -282 -159 -283 -219 -283h-234z" />
    <glyph glyph-name="uni1E1F.smcp" horiz-adv-x="525" 
d="M267 648v59c0 10 5 16 16 16h24c10 0 16 -7 16 -16v-59c0 -10 -7 -16 -16 -16h-24c-9 0 -16 7 -16 16zM98 0v481c0 61 40 90 104 90l274 -10v-30h-272c-56 0 -64 -25 -65 -55v-171l306 -6v-30l-306 -7v-262h-41z" />
    <glyph glyph-name="uni1E41.smcp" horiz-adv-x="737" 
d="M352 647v59c0 10 5 16 16 16h24c10 0 16 -7 16 -16v-59c0 -10 -7 -16 -16 -16h-24c-9 0 -16 7 -16 16zM68 0l66 571h44l198 -499l198 499h41l63 -571h-41l-53 486l-193 -486h-31l-195 493l-58 -493h-39z" />
    <glyph glyph-name="wgrave.smcp" horiz-adv-x="833" 
d="M273 763h49l116 -133h-32zM43 570h45l189 -509l185 509h44l-64 -178l126 -331l186 509h42l-208 -570h-39l-129 333l-121 -333h-41z" />
    <glyph glyph-name="uni1E57.smcp" horiz-adv-x="532" 
d="M248 645v59c0 10 5 16 16 16h24c10 0 16 -7 16 -16v-59c0 -10 -7 -16 -16 -16h-24c-9 0 -16 7 -16 16zM115 280h217c65 0 111 16 111 130c1 83 -48 118 -111 118h-217v-248zM74 0v569h258c71 0 152 -38 152 -155c0 -175 -94 -173 -157 -174l-212 10v-250h-41z" />
    <glyph glyph-name="wacute.smcp" horiz-adv-x="833" 
d="M406 630l116 133h49l-133 -133h-32zM43 570h45l189 -509l185 509h44l-64 -178l126 -331l186 509h42l-208 -570h-39l-129 333l-121 -333h-41z" />
    <glyph glyph-name="ygrave.smcp" horiz-adv-x="563" 
d="M137 763h49l116 -133h-32zM43 570h47l196 -336l193 336h47l-220 -380v-191h-41v191z" />
    <glyph glyph-name="wdieresis.smcp" horiz-adv-x="833" 
d="M520 660c0 16 13 28 29 28s29 -12 29 -28s-13 -29 -29 -29s-29 13 -29 29zM266 660c0 16 12 28 28 28s29 -12 29 -28s-13 -29 -29 -29s-28 13 -28 29zM43 570h45l189 -509l185 509h44l-64 -178l126 -331l186 509h42l-208 -570h-39l-129 333l-121 -333h-41z" />
    <glyph glyph-name="uni1E61.smcp" horiz-adv-x="538" 
d="M241 649v59c0 10 5 16 16 16h24c10 0 16 -7 16 -16v-59c0 -10 -7 -16 -16 -16h-24c-9 0 -16 7 -16 16zM68 374v64c0 82 35 135 138 135c52 0 179 -8 246 -17v-28s-148 5 -246 5c-69 0 -97 -33 -97 -95v-64c0 -75 38 -74 97 -74h143c87 0 130 -37 130 -112v-70
c0 -109 -75 -128 -130 -128c-49 0 -222 6 -259 18v28s163 -5 259 -5c68 0 89 54 89 87v70c0 52 -27 72 -89 72h-143c-94 0 -138 18 -138 114z" />
    <glyph glyph-name="wcircumflex.smcp" horiz-adv-x="833" 
d="M282 630l127 130h37l115 -130h-36l-98 100l-109 -100h-36zM43 570h45l189 -509l185 509h44l-64 -178l126 -331l186 509h42l-208 -570h-39l-129 333l-121 -333h-41z" />
    <glyph glyph-name="uni1E6B.smcp" horiz-adv-x="533" 
d="M240 646v59c0 10 5 16 16 16h24c10 0 16 -7 16 -16v-59c0 -10 -7 -16 -16 -16h-24c-9 0 -16 7 -16 16zM43 529v41h453v-41h-206v-529h-41v529h-206z" />
    <glyph glyph-name="ycircumflex.smcp" horiz-adv-x="563" 
d="M145 630l127 130h37l115 -130h-36l-98 100l-109 -100h-36zM43 570h47l196 -336l193 336h47l-220 -380v-191h-41v191z" />
    <glyph glyph-name="uni0338" unicode="&#x338;" horiz-adv-x="654" 
d="M170 70c21 -20 52 -29 88 -29h144c90 0 126 47 126 121v408c0 31 -6 58 -20 78zM127 162c0 -28 6 -51 18 -69l337 572c-18 18 -44 26 -80 26h-144c-83 0 -131 -47 -131 -121v-408zM86 162v408c0 108 77 162 172 162h144c122 0 167 -73 167 -162v-408
c0 -119 -68 -162 -167 -162h-144c-91 0 -172 42 -172 162z" />
    <glyph glyph-name="afii61352" unicode="&#x2116;" horiz-adv-x="1087" 
d="M88 0v651c0 102 131 116 165 29l245 -614c18 -47 81 -36 84 20v482c0 122 51 167 135 167h189c102 -3 132 -61 132 -182c0 -107 -29 -172 -132 -172h-66c-103 0 -132 58 -132 234h33c0 -166 29 -201 101 -201h61c67 0 102 37 102 139c0 134 -48 145 -105 146h-185
c-70 0 -92 -59 -92 -129v-491c0 -88 -126 -125 -163 -30l-245 614c-20 53 -85 37 -85 -18v-645h-42z" />
    <glyph glyph-name="afii61289" unicode="&#x2113;" horiz-adv-x="406" 
d="M135 350c63 71 175 182 147 290c-20 79 -147 79 -147 -14v-276zM37 248c19 17 38 36 57 56v328c1 67 52 107 113 107c80 0 125 -66 123 -141c-2 -101 -95 -214 -195 -304v-106c0 -123 29 -139 80 -148c0 0 74 -14 79 -14v-27h-77c-84 0 -123 50 -123 189v72
c-11 -12 -33 -26 -43 -31z" />
    <glyph glyph-name="estimated" unicode="&#x212e;" horiz-adv-x="749" 
d="M185 284c0 -9 4 -9 9 -9h357c12 0 13 -3 13 7v133c0 42 -104 99 -190 99c-108 0 -189 -70 -189 -93v-137zM74 266c0 78 29 140 84 192c56 50 120 75 217 75c89 0 150 -21 208 -66s89 -120 93 -209h-479c-7 0 -12 2 -12 -11v-133c0 -27 76 -93 190 -93c76 0 148 36 191 84
h56c-38 -40 -73 -67 -113 -83c-42 -16 -72 -22 -134 -22c-96 0 -163 23 -218 74s-83 114 -83 192z" />
    <glyph glyph-name="c_k" horiz-adv-x="982" 
d="M49 266c0 232 73 271 175 271c52 0 143 -13 208 -27v-28s-119 14 -208 14c-80 0 -134 -27 -134 -234c0 -188 67 -227 155 -227c98 0 237 122 315 194v553h41v-518l293 267h59l-246 -225l251 -305h-52l-228 277l-77 -70v-208h-41v172c-131 -114 -229 -179 -315 -178
c-99 1 -196 39 -196 272z" />
    <glyph glyph-name="N.salt" horiz-adv-x="687" 
d="M98 0v652c0 102 129 116 163 28l236 -613c19 -52 83 -35 84 13v652h41v-653c0 -93 -128 -122 -163 -29l-237 615c-17 47 -82 38 -82 -17v-648h-42z" />
    <glyph glyph-name="M.salt" horiz-adv-x="806" 
d="M68 0l40 652c0 102 125 118 152 28l123 -410c11 -35 43 -30 51 0l110 411c26 87 149 75 154 -28l49 -653h-41l-51 657c-3 48 -59 55 -72 9l-110 -410c-18 -66 -108 -70 -129 0l-122 409c-15 50 -69 36 -72 -9l-42 -656h-40z" />
    <glyph glyph-name="uni1E40.salt" horiz-adv-x="806" 
d="M388 816v59c0 10 5 16 16 16h24c10 0 16 -7 16 -16v-59c0 -10 -7 -16 -16 -16h-24c-9 0 -16 7 -16 16zM68 0l40 652c0 102 125 118 152 28l123 -410c11 -35 43 -30 51 0l110 411c26 87 149 75 154 -28l49 -653h-41l-51 657c-3 48 -59 55 -72 9l-110 -410
c-18 -66 -108 -70 -129 0l-122 409c-15 50 -69 36 -72 -9l-42 -656h-40z" />
    <glyph glyph-name="Ntilde.salt" horiz-adv-x="687" 
d="M202 838c36 31 70 60 110 60c43 -1 89 -60 120 -60c34 0 70 29 96 47l12 -19c-33 -30 -67 -63 -109 -62c-47 1 -86 60 -120 60c-40 0 -63 -23 -99 -45zM98 0v652c0 102 129 116 163 28l236 -613c19 -52 83 -35 84 13v652h41v-653c0 -93 -128 -122 -163 -29l-237 615
c-17 47 -82 38 -82 -17v-648h-42z" />
    <glyph glyph-name="Nacute.salt" horiz-adv-x="687" 
d="M359 797l116 133h49l-133 -133h-32zM98 0v652c0 102 129 116 163 28l236 -613c19 -52 83 -35 84 13v652h41v-653c0 -93 -128 -122 -163 -29l-237 615c-17 47 -82 38 -82 -17v-648h-42z" />
    <glyph glyph-name="Ncaron.salt" horiz-adv-x="687" 
d="M242 927h35l102 -100l106 100h36l-123 -130h-38zM98 0v652c0 102 129 116 163 28l236 -613c19 -52 83 -35 84 13v652h41v-653c0 -93 -128 -122 -163 -29l-237 615c-17 47 -82 38 -82 -17v-648h-42z" />
    <glyph glyph-name="Ncommaaccent.salt" horiz-adv-x="687" 
d="M319 -137v53c0 11 5 17 15 17h22c10 0 14 -8 14 -17v-93c0 -53 -49 -43 -49 -43v14c18 0 20 11 20 18v36h-7c-8 0 -15 5 -15 15zM98 0v652c0 102 129 116 163 28l236 -613c19 -52 83 -35 84 13v652h41v-653c0 -93 -128 -122 -163 -29l-237 615c-17 47 -82 38 -82 -17
v-648h-42z" />
    <glyph glyph-name="minus" unicode="&#x2212;" horiz-adv-x="445" 
d="M25 336v40h396v-40h-396z" />
    <glyph glyph-name="zero.numerator" horiz-adv-x="495" 
d="M107 369c0 -66 26 -81 88 -81h109c73 0 84 25 84 81v247c0 53 -19 81 -84 81h-109c-66 0 -88 -23 -88 -81v-247zM74 365v255c0 84 46 110 117 110h117c83 0 113 -43 113 -110v-255c0 -96 -49 -110 -113 -110h-117c-59 0 -117 10 -117 110z" />
    <glyph glyph-name="one.numerator" horiz-adv-x="260" 
d="M20 654v23l128 55h33v-476h-33v441z" />
    <glyph glyph-name="two.numerator" horiz-adv-x="402" 
d="M39 705c-2 0 -1 24 0 23c66 8 111 10 183 10c98 0 130 -58 130 -136c0 -123 -211 -281 -250 -313h249v-33h-309v29c67 54 275 206 275 314c0 64 -20 106 -103 106h-175z" />
    <glyph glyph-name="three.numerator" horiz-adv-x="426" 
d="M37 700v22c50 13 119 11 195 11c87 0 121 -52 121 -112v-35c0 -54 -47 -85 -71 -90c23 -8 71 -39 71 -97v-28c0 -71 -27 -119 -126 -119c-74 0 -139 0 -186 13v20h178c72 0 101 21 101 90v23c0 57 -51 82 -97 83l-142 4v23l142 5c56 2 98 29 98 76v31c0 64 -45 80 -93 80
h-191z" />
    <glyph glyph-name="four.numerator" horiz-adv-x="411" 
d="M20 421l196 309h37l-183 -289h232v121l16 48h17v-169h59v-23l-59 -12v-150h-33v150h-272z" />
    <glyph glyph-name="five.numerator" horiz-adv-x="440" 
d="M68 260v25h211c52 0 80 28 80 84v56c0 40 -5 78 -78 78h-112c-39 0 -71 -29 -72 -65h-29l15 292h295v-33h-265l-11 -200c29 50 116 39 181 39c77 0 109 -36 109 -107v-64c0 -82 -46 -114 -109 -114c-81 0 -162 0 -215 9z" />
    <glyph glyph-name="six.numerator" horiz-adv-x="461" 
d="M100 487c0 -127 29 -199 98 -199h106c50 0 74 26 74 75v68c0 50 -28 56 -74 56h-204zM67 505c2 197 58 227 122 230c67 3 160 -1 206 -8v-25h-204c-75 0 -90 -92 -91 -192c55 6 158 10 206 10c88 0 105 -36 105 -87v-73c0 -72 -44 -105 -105 -105h-107
c-72 0 -134 37 -132 250z" />
    <glyph glyph-name="seven.numerator" horiz-adv-x="374" 
d="M18 699v33h325l12 -20l-183 -456h-35l177 443h-296z" />
    <glyph glyph-name="eight.numerator" horiz-adv-x="495" 
d="M114 582c0 -50 35 -70 72 -70h124c42 0 72 29 72 70v32c0 72 -28 88 -84 88h-97c-60 0 -87 -20 -87 -88v-32zM114 362c0 -54 20 -75 80 -75h112c48 0 76 19 76 75v50c0 48 -39 67 -68 67h-122c-46 0 -78 -25 -78 -66v-51zM81 358v58c0 48 40 72 67 75
c-51 11 -67 53 -67 87v40c0 92 49 117 116 117h110c70 0 108 -31 108 -117v-40c0 -27 -15 -72 -63 -78c34 -6 63 -45 63 -84v-58c0 -84 -50 -104 -105 -104h-120c-92 0 -109 50 -109 104z" />
    <glyph glyph-name="nine.numerator" horiz-adv-x="461" 
d="M89 560c0 -50 28 -56 74 -56h204c0 127 -28 199 -97 199h-107c-50 0 -74 -26 -74 -75v-68zM56 558v73c0 72 44 105 105 105h107c72 0 134 -37 132 -250c-2 -197 -57 -227 -122 -230c-67 -3 -158 -1 -206 8v25h203c76 0 91 92 92 192c-55 -6 -158 -9 -206 -9
c-88 0 -105 35 -105 86z" />
    <glyph glyph-name="zero.denominator" horiz-adv-x="495" 
d="M74 110v255c0 84 46 110 117 110h117c83 0 113 -43 113 -110v-255c0 -96 -49 -110 -113 -110h-117c-59 0 -117 10 -117 110zM107 114c0 -66 26 -81 88 -81h109c73 0 84 25 84 81v247c0 53 -19 81 -84 81h-109c-66 0 -88 -23 -88 -81v-247z" />
    <glyph glyph-name="one.denominator" horiz-adv-x="260" 
d="M20 399v23l128 55h33v-476h-33v441z" />
    <glyph glyph-name="two.denominator" horiz-adv-x="402" 
d="M39 450c-2 0 -1 24 0 23c66 8 111 10 183 10c98 0 130 -58 130 -136c0 -123 -211 -281 -250 -313h249v-33h-309v29c67 54 275 206 275 314c0 64 -20 106 -103 106h-175z" />
    <glyph glyph-name="three.denominator" horiz-adv-x="426" 
d="M37 445v22c50 13 119 11 195 11c87 0 121 -52 121 -112v-35c0 -54 -47 -85 -71 -90c23 -8 71 -39 71 -97v-28c0 -71 -27 -119 -126 -119c-74 0 -139 0 -186 13v20h178c72 0 101 21 101 90v23c0 57 -51 82 -97 83l-142 4v23l142 5c56 2 98 29 98 76v31c0 64 -45 80 -93 80
h-191z" />
    <glyph glyph-name="four.denominator" horiz-adv-x="411" 
d="M20 166l196 309h37l-183 -289h232v121l16 48h17v-169h59v-23l-59 -12v-150h-33v150h-272z" />
    <glyph glyph-name="five.denominator" horiz-adv-x="440" 
d="M68 5v25h211c52 0 80 28 80 84v56c0 40 -5 78 -78 78h-112c-39 0 -71 -29 -72 -65h-29l15 292h295v-33h-265l-11 -200c29 50 116 39 181 39c77 0 109 -36 109 -107v-64c0 -82 -46 -114 -109 -114c-81 0 -162 0 -215 9z" />
    <glyph glyph-name="six.denominator" horiz-adv-x="461" 
d="M67 250c2 197 58 227 122 230c67 3 158 0 206 -8v-25h-204c-75 0 -90 -92 -91 -192c55 6 158 10 206 10c88 0 105 -36 105 -87v-73c0 -72 -44 -105 -105 -105h-107c-72 0 -134 37 -132 250zM100 232c0 -127 29 -199 98 -199h106c50 0 74 26 74 75v68c0 50 -28 56 -74 56
h-204z" />
    <glyph glyph-name="seven.denominator" horiz-adv-x="374" 
d="M18 444v33h325l12 -20l-183 -456h-35l177 443h-296z" />
    <glyph glyph-name="eight.denominator" horiz-adv-x="495" 
d="M81 103v58c0 48 40 72 67 75c-51 11 -67 53 -67 87v40c0 92 49 117 116 117h110c70 0 108 -31 108 -117v-40c0 -27 -15 -72 -63 -78c34 -6 63 -45 63 -84v-58c0 -84 -50 -104 -105 -104h-120c-92 0 -109 50 -109 104zM114 107c0 -54 20 -75 80 -75h112c48 0 76 19 76 75
v50c0 48 -39 67 -68 67h-122c-46 0 -78 -25 -78 -66v-51zM114 327c0 -50 35 -70 72 -70h124c42 0 72 29 72 70v32c0 72 -28 88 -84 88h-97c-60 0 -87 -20 -87 -88v-32z" />
    <glyph glyph-name="nine.denominator" horiz-adv-x="461" 
d="M56 303v73c0 72 44 105 105 105h107c72 0 134 -37 132 -250c-2 -197 -57 -227 -122 -230c-67 -3 -158 0 -206 8v25h203c76 0 91 92 92 192c-55 -6 -158 -9 -206 -9c-88 0 -105 35 -105 86zM89 305c0 -50 28 -56 74 -56h204c0 127 -28 199 -97 199h-107
c-50 0 -74 -26 -74 -75v-68z" />
    <glyph glyph-name="c_h" horiz-adv-x="1042" 
d="M49 266c0 232 73 271 175 271c52 0 143 -13 208 -27v-28s-119 14 -208 14c-80 0 -134 -27 -134 -234c0 -188 53 -227 134 -227c174 0 343 -26 343 171v578h41v-314c57 36 128 71 210 71c106 0 164 -82 164 -170v-370h-42v370c0 78 -46 129 -122 129
c-88 0 -140 -23 -210 -60v-234c0 -242 -205 -210 -384 -212c-102 0 -175 39 -175 272z" />
    <glyph glyph-name="m.salt" horiz-adv-x="901" 
d="M74 0v483c111 44 142 57 250 57c50 0 90 -18 118 -47c92 36 135 47 235 47c106 0 164 -82 164 -170v-370h-41v370c0 75 -49 129 -123 129c-70 0 -128 -7 -214 -38c17 -26 25 -58 25 -91v-370h-41v370c0 75 -49 129 -123 129c-71 0 -120 -7 -209 -40v-459h-41z" />
    <glyph glyph-name="n.salt" 
d="M74 0v483c111 44 142 57 250 57c106 0 164 -82 164 -170v-370h-41v370c0 75 -49 129 -123 129c-71 0 -120 -7 -209 -40v-459h-41z" />
    <glyph glyph-name="ntilde.salt" 
d="M74 0v483c111 44 142 57 250 57c106 0 164 -82 164 -170v-370h-41v370c0 75 -49 129 -123 129c-71 0 -120 -7 -209 -40v-459h-41zM112 634c36 31 70 60 110 60c43 -1 89 -60 120 -60c34 0 70 29 96 47l12 -19c-33 -30 -67 -63 -109 -62c-47 1 -86 60 -120 60
c-40 0 -63 -23 -99 -45z" />
    <glyph glyph-name="ncommaaccent.salt" 
d="M74 0v483c111 44 142 57 250 57c106 0 164 -82 164 -170v-370h-41v370c0 75 -49 129 -123 129c-71 0 -120 -7 -209 -40v-459h-41zM250 -130v53c0 11 5 17 15 17h21c11 0 15 -8 15 -17v-93c0 -53 -49 -42 -49 -42v13c18 0 20 11 20 18v36h-7c-8 0 -15 5 -15 15z" />
    <glyph glyph-name="ncaron.salt" 
d="M74 0v483c111 44 142 57 250 57c106 0 164 -82 164 -170v-370h-41v370c0 75 -49 129 -123 129c-71 0 -120 -7 -209 -40v-459h-41zM141 730h35l102 -100l106 100h36l-123 -130h-38zM297 600z" />
    <glyph glyph-name="nacute.salt" 
d="M74 0v483c111 44 142 57 250 57c106 0 164 -82 164 -170v-370h-41v370c0 75 -49 129 -123 129c-71 0 -120 -7 -209 -40v-459h-41zM268 600l116 133h49l-133 -133h-32z" />
    <glyph glyph-name="uni1E41.salt" horiz-adv-x="901" 
d="M74 0v483c111 44 142 57 250 57c50 0 90 -18 118 -47c92 36 135 47 235 47c106 0 164 -82 164 -170v-370h-41v370c0 75 -49 129 -123 129c-70 0 -128 -7 -214 -38c17 -26 25 -58 25 -91v-370h-41v370c0 75 -49 129 -123 129c-71 0 -120 -7 -209 -40v-459h-41zM432 616v59
c0 10 5 16 16 16h24c10 0 16 -7 16 -16v-59c0 -10 -7 -16 -16 -16h-24c-9 0 -16 7 -16 16z" />
    <glyph glyph-name="r.salt" horiz-adv-x="427" 
d="M74 0v483c90 39 165 69 328 55v-41c-102 10 -188 -1 -287 -38v-459h-41z" />
    <glyph glyph-name="racute.salt" horiz-adv-x="427" 
d="M74 0v483c90 39 165 69 328 55v-41c-102 10 -188 -1 -287 -38v-459h-41zM229 601l116 133h49l-133 -133h-32z" />
    <glyph glyph-name="rcaron.salt" horiz-adv-x="427" 
d="M74 0v483c90 39 165 69 328 55v-41c-102 10 -188 -1 -287 -38v-459h-41zM105 731h35l102 -100l106 100h36l-123 -130h-38zM261 601z" />
    <glyph glyph-name="rcommaaccent.salt" horiz-adv-x="427" 
d="M69 0v483c90 39 165 69 328 55v-41c-102 10 -188 -1 -287 -38v-459h-41zM63 -131v53c0 11 5 17 15 17h22c10 0 14 -8 14 -17v-93c0 -53 -49 -43 -49 -43v14c18 0 20 11 20 18v36h-7c-8 0 -15 5 -15 15z" />
    <glyph glyph-name="x.salt" horiz-adv-x="518" 
d="M25 0l154 214c44 60 34 80 -10 136l-144 181h49l125 -155c58 -71 67 -112 17 -181l-142 -195h-49zM302 195c-51 70 -43 108 17 181l125 155h50l-145 -181c-48 -60 -53 -76 -10 -136l155 -214h-50z" />
    <glyph glyph-name="X.salt" horiz-adv-x="608" 
d="M25 0l201 298c40 59 25 115 -18 172l-183 262h47l173 -245c43 -61 66 -140 21 -203l-193 -284h-48zM342 284c-45 63 -22 142 21 203l173 245h47l-183 -262c-43 -57 -58 -113 -18 -172l201 -298h-48z" />
    <glyph glyph-name="a.salt" horiz-adv-x="539" 
d="M62 131v64c0 77 40 122 136 122h238c0 168 -65 179 -136 179c-72 0 -146 -5 -228 -11v29c70 12 131 24 230 23c140 -1 175 -67 175 -268v-113c0 -104 -49 -156 -155 -156h-124c-61 0 -136 18 -136 131zM103 131c0 -59 26 -90 95 -90h124c93 0 114 49 114 115v132
l-238 -12c-60 -3 -95 -20 -95 -81v-64z" />
    <glyph glyph-name="agrave.salt" horiz-adv-x="539" 
d="M62 131v64c0 77 40 122 136 122h238c0 168 -65 179 -136 179c-72 0 -146 -5 -228 -11v29c70 12 131 24 230 23c140 -1 175 -67 175 -268v-113c0 -104 -49 -156 -155 -156h-124c-61 0 -136 18 -136 131zM103 131c0 -59 26 -90 95 -90h124c93 0 114 49 114 115v132
l-238 -12c-60 -3 -95 -20 -95 -81v-64zM141 730h49l116 -133h-32z" />
    <glyph glyph-name="aacute.salt" horiz-adv-x="539" 
d="M62 131v64c0 77 40 122 136 122h238c0 168 -65 179 -136 179c-72 0 -146 -5 -228 -11v29c70 12 131 24 230 23c140 -1 175 -67 175 -268v-113c0 -104 -49 -156 -155 -156h-124c-61 0 -136 18 -136 131zM103 131c0 -59 26 -90 95 -90h124c93 0 114 49 114 115v132
l-238 -12c-60 -3 -95 -20 -95 -81v-64zM266 597l116 133h49l-133 -133h-32z" />
    <glyph glyph-name="atilde.salt" horiz-adv-x="539" 
d="M62 131v64c0 77 40 122 136 122h238c0 168 -65 179 -136 179c-72 0 -146 -5 -228 -11v29c70 12 131 24 230 23c140 -1 175 -67 175 -268v-113c0 -104 -49 -156 -155 -156h-124c-61 0 -136 18 -136 131zM103 131c0 -59 26 -90 95 -90h124c93 0 114 49 114 115v132
l-238 -12c-60 -3 -95 -20 -95 -81v-64zM116 631c36 31 70 60 110 60c43 -1 89 -60 120 -60c34 0 70 29 96 47l12 -19c-33 -30 -67 -63 -109 -62c-47 1 -86 60 -120 60c-40 0 -63 -23 -99 -45z" />
    <glyph glyph-name="aring.salt" horiz-adv-x="539" 
d="M62 131v64c0 77 40 122 136 122h238c0 168 -65 179 -136 179c-72 0 -146 -5 -228 -11v29c70 12 131 24 230 23c140 -1 175 -67 175 -268v-113c0 -104 -49 -156 -155 -156h-124c-61 0 -136 18 -136 131zM103 131c0 -59 26 -90 95 -90h124c93 0 114 49 114 115v132
l-238 -12c-60 -3 -95 -20 -95 -81v-64zM181 699c0 57 46 103 102 103s100 -46 100 -103s-44 -102 -100 -102s-102 45 -102 102zM206 699c0 -42 35 -76 77 -76s75 34 75 76s-33 77 -75 77s-77 -35 -77 -77z" />
    <glyph glyph-name="acircumflex.salt" horiz-adv-x="539" 
d="M62 131v64c0 77 40 122 136 122h238c0 168 -65 179 -136 179c-72 0 -146 -5 -228 -11v29c70 12 131 24 230 23c140 -1 175 -67 175 -268v-113c0 -104 -49 -156 -155 -156h-124c-61 0 -136 18 -136 131zM103 131c0 -59 26 -90 95 -90h124c93 0 114 49 114 115v132
l-238 -12c-60 -3 -95 -20 -95 -81v-64zM143 597l127 130h37l115 -130h-36l-98 100l-109 -100h-36zM307 727z" />
    <glyph glyph-name="adieresis.salt" horiz-adv-x="539" 
d="M62 131v64c0 77 40 122 136 122h238c0 168 -65 179 -136 179c-72 0 -146 -5 -228 -11v29c70 12 131 24 230 23c140 -1 175 -67 175 -268v-113c0 -104 -49 -156 -155 -156h-124c-61 0 -136 18 -136 131zM103 131c0 -59 26 -90 95 -90h124c93 0 114 49 114 115v132
l-238 -12c-60 -3 -95 -20 -95 -81v-64zM117 626c0 16 12 28 28 28s29 -12 29 -28s-13 -29 -29 -29s-28 13 -28 29zM371 626c0 16 13 28 29 28s29 -12 29 -28s-13 -29 -29 -29s-29 13 -29 29z" />
    <glyph glyph-name="aogonek.salt" horiz-adv-x="562" 
d="M78 131v64c0 77 40 122 136 122h238c0 168 -65 179 -136 179c-72 0 -146 -5 -228 -11v29c70 12 131 24 230 23c140 -1 175 -67 175 -268v-113c0 -104 -49 -156 -155 -156h-124c-61 0 -136 18 -136 131zM119 131c0 -59 26 -90 95 -90h124c93 0 114 49 114 115v132
l-238 -12c-60 -3 -95 -20 -95 -81v-64zM404 18h21c-101 -53 -91 -152 22 -151v-30c-115 -16 -192 116 -43 181z" />
    <glyph glyph-name="abreve.salt" horiz-adv-x="539" 
d="M62 131v64c0 77 40 122 136 122h238c0 168 -65 179 -136 179c-72 0 -146 -5 -228 -11v29c70 12 131 24 230 23c140 -1 175 -67 175 -268v-113c0 -104 -49 -156 -155 -156h-124c-61 0 -136 18 -136 131zM103 131c0 -59 26 -90 95 -90h124c93 0 114 49 114 115v132
l-238 -12c-60 -3 -95 -20 -95 -81v-64zM162 711h25c0 -51 42 -90 89 -89c52 1 91 36 91 89h25c0 -76 -61 -114 -116 -114s-114 42 -114 114z" />
    <glyph glyph-name="amacron.salt" horiz-adv-x="539" 
d="M62 131v64c0 77 40 122 136 122h238c0 168 -65 179 -136 179c-72 0 -146 -5 -228 -11v29c70 12 131 24 230 23c140 -1 175 -67 175 -268v-113c0 -104 -49 -156 -155 -156h-124c-61 0 -136 18 -136 131zM103 131c0 -59 26 -90 95 -90h124c93 0 114 49 114 115v132
l-238 -12c-60 -3 -95 -20 -95 -81v-64zM145 597v31h265v-31h-265z" />
    <glyph glyph-name="u.salt" 
d="M62 161v370h41v-370c0 -75 49 -129 123 -129c71 0 134 8 209 32v467h41v-493c-104 -38 -142 -47 -250 -47c-106 0 -164 82 -164 170z" />
    <glyph glyph-name="uhungarumlaut.salt" 
d="M62 161v370h41v-370c0 -75 49 -129 123 -129c71 0 134 8 209 32v467h41v-493c-104 -38 -142 -47 -250 -47c-106 0 -164 82 -164 170zM184 596l116 133h49l-133 -133h-32zM321 596l116 133h50l-133 -133h-33z" />
    <glyph glyph-name="ugrave.salt" 
d="M62 161v370h41v-370c0 -75 49 -129 123 -129c71 0 134 8 209 32v467h41v-493c-104 -38 -142 -47 -250 -47c-106 0 -164 82 -164 170zM120 729h49l116 -133h-32z" />
    <glyph glyph-name="uacute.salt" 
d="M62 161v370h41v-370c0 -75 49 -129 123 -129c71 0 134 8 209 32v467h41v-493c-104 -38 -142 -47 -250 -47c-106 0 -164 82 -164 170zM253 596l116 133h49l-133 -133h-32z" />
    <glyph glyph-name="utilde.salt" 
d="M62 161v370h41v-370c0 -75 49 -129 123 -129c71 0 134 8 209 32v467h41v-493c-104 -38 -142 -47 -250 -47c-106 0 -164 82 -164 170zM100 630c36 31 70 60 110 60c43 -1 89 -60 120 -60c34 0 70 29 96 47l12 -19c-33 -30 -67 -63 -109 -62c-47 1 -86 60 -120 60
c-40 0 -63 -23 -99 -45z" />
    <glyph glyph-name="uring.salt" 
d="M62 161v370h41v-370c0 -75 49 -129 123 -129c71 0 134 8 209 32v467h41v-493c-104 -38 -142 -47 -250 -47c-106 0 -164 82 -164 170zM168 698c0 57 46 103 102 103s100 -46 100 -103s-44 -102 -100 -102s-102 45 -102 102zM193 698c0 -42 35 -76 77 -76s75 34 75 76
s-33 77 -75 77s-77 -35 -77 -77z" />
    <glyph glyph-name="ucircumflex.salt" 
d="M62 161v370h41v-370c0 -75 49 -129 123 -129c71 0 134 8 209 32v467h41v-493c-104 -38 -142 -47 -250 -47c-106 0 -164 82 -164 170zM130 596l127 130h37l115 -130h-36l-98 100l-109 -100h-36zM294 726z" />
    <glyph glyph-name="udieresis.salt" 
d="M62 161v370h41v-370c0 -75 49 -129 123 -129c71 0 134 8 209 32v467h41v-493c-104 -38 -142 -47 -250 -47c-106 0 -164 82 -164 170zM113 625c0 16 12 28 28 28s29 -12 29 -28s-13 -29 -29 -29s-28 13 -28 29zM367 625c0 16 13 28 29 28s29 -12 29 -28s-13 -29 -29 -29
s-29 13 -29 29z" />
    <glyph glyph-name="uogonek.salt" horiz-adv-x="618" 
d="M78 161v370h41v-370c0 -75 49 -129 123 -129c71 0 134 8 209 32v467h41v-493c-104 -38 -142 -47 -250 -47c-106 0 -164 82 -164 170zM471 39h21c-101 -53 -91 -152 22 -151v-30c-115 -16 -192 116 -43 181z" />
    <glyph glyph-name="ubreve.salt" 
d="M62 161v370h41v-370c0 -75 49 -129 123 -129c71 0 134 8 209 32v467h41v-493c-104 -38 -142 -47 -250 -47c-106 0 -164 82 -164 170zM154 710h25c0 -51 42 -90 89 -89c52 1 91 36 91 89h25c0 -76 -61 -114 -116 -114s-114 42 -114 114z" />
    <glyph glyph-name="umacron.salt" 
d="M62 161v370h41v-370c0 -75 49 -129 123 -129c71 0 134 8 209 32v467h41v-493c-104 -38 -142 -47 -250 -47c-106 0 -164 82 -164 170zM136 596v31h265v-31h-265z" />
    <glyph glyph-name="b.salt" horiz-adv-x="560" 
d="M74 3v780h41v-287c64 26 155 39 200 39c153 0 184 -120 184 -278c0 -168 -59 -269 -184 -269c-106 0 -193 8 -241 15zM115 29h200c116 0 143 116 143 228c0 136 -22 237 -143 237c-74 0 -117 -8 -200 -29v-436z" />
    <glyph glyph-name="d.salt" horiz-adv-x="560" 
d="M62 257c0 158 31 278 184 278c45 0 135 -13 199 -39v287h41v-780c-48 -7 -134 -15 -240 -15c-125 0 -184 101 -184 269zM103 257c0 -112 27 -228 143 -228h199v436c-83 21 -125 29 -199 29c-121 0 -143 -101 -143 -237z" />
    <glyph glyph-name="f.salt" horiz-adv-x="372" 
d="M74 0v630c0 54 4 156 124 156c49 0 101 -2 150 -17v-22h-140c-82 0 -93 -55 -93 -117v-116h170v-40h-170v-474h-41z" />
    <glyph glyph-name="p.salt" horiz-adv-x="560" 
d="M74 -270v796c48 7 135 16 241 16c125 0 184 -101 184 -269c0 -158 -31 -278 -184 -278c-45 0 -136 13 -200 39v-304h-41zM115 65c83 -21 126 -29 200 -29c121 0 143 101 143 237c0 112 -27 228 -143 228h-200v-436z" />
    <glyph glyph-name="t.salt" horiz-adv-x="326" 
d="M74 190v490h41v-148h187v-41h-187v-301c0 -101 31 -138 92 -148c0 0 72 -14 79 -14v-27h-78c-79 0 -134 48 -134 189z" />
    <glyph glyph-name="uni1E03.salt" horiz-adv-x="560" 
d="M74 3v780h41v-287c64 26 155 39 200 39c153 0 184 -120 184 -278c0 -168 -59 -269 -184 -269c-106 0 -193 8 -241 15zM115 29h200c116 0 143 116 143 228c0 136 -22 237 -143 237c-74 0 -117 -8 -200 -29v-436zM68 859v59c0 10 5 16 16 16h24c10 0 16 -7 16 -16v-59
c0 -10 -7 -16 -16 -16h-24c-9 0 -16 7 -16 16z" />
    <glyph glyph-name="uni1E0B.salt" horiz-adv-x="560" 
d="M62 257c0 158 31 278 184 278c45 0 135 -13 199 -39v287h41v-780c-48 -7 -134 -15 -240 -15c-125 0 -184 101 -184 269zM103 257c0 -112 27 -228 143 -228h199v436c-83 21 -125 29 -199 29c-121 0 -143 -101 -143 -237zM436 859v59c0 10 5 16 16 16h24c10 0 16 -7 16 -16
v-59c0 -10 -7 -16 -16 -16h-24c-9 0 -16 7 -16 16z" />
    <glyph glyph-name="uni1E1F.salt" horiz-adv-x="372" 
d="M74 0v630c0 54 4 156 124 156c49 0 101 -2 150 -17v-22h-140c-82 0 -93 -55 -93 -117v-116h170v-40h-170v-474h-41zM197 862v59c0 10 5 16 16 16h24c10 0 16 -7 16 -16v-59c0 -10 -7 -16 -16 -16h-24c-9 0 -16 7 -16 16z" />
    <glyph glyph-name="uni1E57.salt" horiz-adv-x="560" 
d="M74 -270v796c48 7 135 16 241 16c125 0 184 -101 184 -269c0 -158 -31 -278 -184 -278c-45 0 -136 13 -200 39v-304h-41zM115 65c83 -21 126 -29 200 -29c121 0 143 101 143 237c0 112 -27 228 -143 228h-200v-436zM259 618v59c0 10 5 16 16 16h24c10 0 16 -7 16 -16v-59
c0 -10 -7 -16 -16 -16h-24c-9 0 -16 7 -16 16z" />
    <glyph glyph-name="dcroat.salt" horiz-adv-x="551" 
d="M62 257c0 158 31 278 184 278c45 0 135 -13 199 -39v136h-140v28h140v123h41v-123h66v-28h-66v-629c-48 -7 -134 -15 -240 -15c-125 0 -184 101 -184 269zM103 257c0 -112 27 -228 143 -228h199v436c-83 21 -125 29 -199 29c-121 0 -143 -101 -143 -237z" />
    <glyph glyph-name="tbar.salt" horiz-adv-x="326" 
d="M74 190v490h41v-148h187v-41h-187v-182h137v-28h-137v-91c0 -101 31 -138 92 -148c0 0 72 -14 79 -14v-27h-78c-79 0 -134 48 -134 189z" />
    <glyph glyph-name="tcommaaccent.salt" horiz-adv-x="326" 
d="M74 190v490h41v-148h187v-41h-187v-301c0 -101 31 -138 92 -148c0 0 72 -14 79 -14v-27h-78c-79 0 -134 48 -134 189zM96 -173l39 9c45 9 66 26 65 110h34c0 -101 -19 -136 -101 -136h-37v17z" />
    <glyph glyph-name="tcaron.salt" horiz-adv-x="326" 
d="M74 190v490h41v-148h187v-41h-187v-301c0 -101 31 -138 92 -148c0 0 72 -14 79 -14v-27h-78c-79 0 -134 48 -134 189zM188 734v67h42v-67l-7 -134h-26z" />
    <glyph glyph-name="dcaron.salt" horiz-adv-x="580" 
d="M62 257c0 158 31 278 184 278c45 0 135 -13 199 -39v287h41v-780c-48 -7 -134 -15 -240 -15c-125 0 -184 101 -184 269zM103 257c0 -112 27 -228 143 -228h199v436c-83 21 -125 29 -199 29c-121 0 -143 -101 -143 -237zM551 716v67h42v-67l-8 -134h-26z" />
    <glyph glyph-name="hyphen.alt" horiz-adv-x="363" 
d="M25 340v40h314v-40h-314z" />
    <glyph glyph-name="uni00AD.alt" horiz-adv-x="363" 
d="M25 340v40h314v-40h-314z" />
    <glyph glyph-name="endash.alt" horiz-adv-x="522" 
d="M25 336v42h473v-42h-473z" />
    <glyph glyph-name="emdash.alt" horiz-adv-x="745" 
d="M25 338v42h696v-42h-696z" />
    <glyph glyph-name="hyphen.smcp" horiz-adv-x="363" 
d="M25 254v42h314v-42h-314z" />
    <glyph glyph-name="uni00AD.smcp" horiz-adv-x="363" 
d="M25 254v42h314v-42h-314z" />
    <glyph glyph-name="endash.smcp" horiz-adv-x="522" 
d="M25 252v42h473v-42h-473z" />
    <glyph glyph-name="emdash.smcp" horiz-adv-x="745" 
d="M25 256v42h696v-42h-696z" />
    <glyph glyph-name="parenleft.alt" horiz-adv-x="321" 
d="M92 336c0 274 159 534 159 534h46s-164 -262 -164 -534c0 -300 164 -536 164 -536h-46s-159 220 -159 536z" />
    <glyph glyph-name="parenright.alt" horiz-adv-x="321" 
d="M25 -200c0 0 163 236 163 536c0 272 -163 534 -163 534h45s159 -260 159 -534c0 -316 -159 -536 -159 -536h-45z" />
    <glyph glyph-name="parenleft.smcp" horiz-adv-x="283" 
d="M92 266c-1 116 53 282 118 366h44c-73 -101 -122 -256 -122 -366c0 -134 55 -274 110 -348h-46c-60 82 -103 228 -104 348z" />
    <glyph glyph-name="parenright.smcp" horiz-adv-x="283" 
d="M25 632h44c65 -84 120 -250 119 -366c-1 -120 -45 -266 -105 -348h-46c55 74 110 214 110 348c0 110 -49 265 -122 366z" />
    </font>
</defs>
</svg>
