<?xml version="1.0" standalone="no"?>
<!DOCTYPE svg PUBLIC "-//W3C//DTD SVG 1.1//EN" "http://www.w3.org/Graphics/SVG/1.1/DTD/svg11.dtd" >
<svg>
<metadata>
Created by FontForge 20110222 at Tue Sep  3 17:36:00 2013
 By Zoltan Hawryluk
Copyright (c) 2011 Natanael Gama (exo@ndiscovered.com), with Reserved Font Name "Exo"
</metadata>
<defs>
<font id="Exo-Medium" horiz-adv-x="545" >
  <font-face 
    font-family="Exo"
    font-weight="500"
    font-stretch="normal"
    units-per-em="1000"
    panose-1="2 0 6 3 0 0 0 0 0 0"
    ascent="800"
    descent="-200"
    x-height="531"
    cap-height="732"
    bbox="-84 -272.857 1341 1002"
    underline-thickness="50"
    underline-position="-50"
    stemh="84"
    stemv="92"
    unicode-range="U+000D-FB06"
  />
<missing-glyph horiz-adv-x="744" 
d="M93 0v531h558v-531h-558zM628 518h-511l257 -242zM107 22l256 244l-256 241v-485zM120 13h507l-253 243zM637 506l-252 -240l252 -241v481z" />
    <glyph glyph-name="fi" unicode="fi" horiz-adv-x="613" 
d="M19 448v66l94 17v49c0 119 78 205 202 206c49 0 154 -17 201 -32v-59c-1 0 -175 10 -175 10c-62 3 -136 -21 -136 -126v-48l357 -10v-521h-93v448h-264v-448h-92v448h-94z" />
    <glyph glyph-name="fl" unicode="fl" horiz-adv-x="718" 
d="M19 448v66l95 17v51c0 119 52 204 172 204h277v-591c0 -84 14 -100 54 -112c0 0 76 -21 83 -21v-62h-96c-94 0 -133 48 -133 189v516h-165c-62 0 -100 -22 -100 -123v-51h138v-83h-140v-448h-92v448h-93z" />
    <glyph glyph-name=".notdef" horiz-adv-x="744" 
d="M93 0v531h558v-531h-558zM628 518h-511l257 -242zM107 22l256 244l-256 241v-485zM120 13h507l-253 243zM637 506l-252 -240l252 -241v481z" />
    <glyph glyph-name=".notdef" horiz-adv-x="744" 
d="M93 0v531h558v-531h-558zM628 518h-511l257 -242zM107 22l256 244l-256 241v-485zM120 13h507l-253 243zM637 506l-252 -240l252 -241v481z" />
    <glyph glyph-name="uni000D" unicode="&#xd;" horiz-adv-x="934" 
 />
    <glyph glyph-name="space" unicode=" " horiz-adv-x="250" 
 />
    <glyph glyph-name="exclam" unicode="!" horiz-adv-x="270" 
d="M82 731h103l-9 -535h-86zM78 23v66c0 15 8 25 24 25h64c15 0 23 -11 23 -25v-66c0 -15 -9 -23 -23 -23h-64c-14 0 -24 9 -24 23z" />
    <glyph glyph-name="quotedbl" unicode="&#x22;" horiz-adv-x="397" 
d="M227 665v67h91v-67l-10 -134h-70zM79 665v67h92v-67l-10 -134h-70z" />
    <glyph glyph-name="numbersign" unicode="#" horiz-adv-x="696" 
d="M250 290l154 -1l24 154h-154zM19 226l9 64h158l24 153h-157l10 64h158l37 225h64l-37 -225h154l36 225h64l-36 -225h176l-11 -64h-176l-24 -154h176l-10 -64h-177l-37 -225h-64l37 225l-155 1l-37 -226h-64l37 226h-155z" />
    <glyph glyph-name="dollar" unicode="$" horiz-adv-x="573" 
d="M51 492v65c2 141 84 179 191 181v86h66v-89c64 -4 145 -16 187 -22v-72c-52 1 -225 9 -235 9c-68 2 -117 -9 -117 -96v-58c0 -72 47 -90 98 -90h120c140 0 161 -97 161 -178v-63c0 -144 -109 -178 -214 -173v-82h-66v86c-66 6 -134 16 -168 22v70c40 -1 145 -7 238 -7
c41 0 118 8 118 83v60c0 53 -16 90 -78 90h-120c-153 0 -181 104 -181 178z" />
    <glyph glyph-name="percent" unicode="%" horiz-adv-x="956" 
d="M632 133c0 -45 13 -57 58 -57h93c55 0 61 16 61 57v121c0 47 -15 57 -59 57h-93c-53 0 -60 -13 -60 -57v-121zM558 129v130c0 85 29 126 130 126h101c98 0 129 -41 129 -126v-130c0 -85 -30 -127 -131 -127h-101c-98 0 -128 42 -128 127zM222 0l440 732h79l-439 -732h-80
zM113 480c0 -45 14 -57 59 -57h93c54 0 60 15 60 57v121c0 47 -14 57 -58 57h-93c-53 0 -61 -14 -61 -57v-121zM39 476v130c0 84 30 126 131 126h101c98 0 128 -42 128 -126v-130c0 -86 -29 -127 -130 -127h-101c-98 0 -129 41 -129 127z" />
    <glyph glyph-name="ampersand" unicode="&#x26;" horiz-adv-x="648" 
d="M152 133c36 -46 110 -72 161 -24l72 68l-141 188l-71 -60c-73 -60 -62 -120 -21 -172zM75 82c-74 96 -49 211 38 285l81 69l-60 82c-79 107 0 204 73 212c117 13 197 -3 269 -20v-64h-192c-84 0 -113 -29 -49 -116l216 -294l117 118l30 -34l-54 -107l-40 -45l122 -168
h-108l-79 107l-71 -65c-77 -71 -222 -63 -293 40z" />
    <glyph glyph-name="quotesingle" unicode="'" horiz-adv-x="195" 
d="M51 665v67h93v-67l-10 -134h-72z" />
    <glyph glyph-name="parenleft" unicode="(" horiz-adv-x="346" 
d="M70 326c0 288 164 534 164 534h94s-166 -259 -166 -534c0 -302 166 -536 166 -536h-94s-164 208 -164 536z" />
    <glyph glyph-name="parenright" unicode=")" horiz-adv-x="346" 
d="M19 -210c0 0 166 234 166 536c0 275 -166 534 -166 534h94s164 -246 164 -534c0 -328 -164 -536 -164 -536h-94z" />
    <glyph glyph-name="asterisk" unicode="*" horiz-adv-x="436" 
d="M248 571l120 77l22 -39l-92 -97zM203 473l43 65l110 -91l-24 -35zM173 718l43 17l73 -120l-71 -31zM112 415l24 135l75 -18l-58 -131zM47 566v44l139 28l5 -77z" />
    <glyph glyph-name="plus" unicode="+" horiz-adv-x="507" 
d="M46 313v86h164v165h86v-165h166v-86h-166v-165h-86v165h-164z" />
    <glyph glyph-name="comma" unicode="," horiz-adv-x="267" 
d="M79 25v63c0 18 9 27 25 27h60c18 0 24 -12 24 -27v-99c0 -99 -104 -77 -104 -77v36c30 0 31 19 31 30v22h-11c-14 0 -25 8 -25 25z" />
    <glyph glyph-name="hyphen" unicode="-" horiz-adv-x="354" 
d="M20 247v86h314v-86h-314z" />
    <glyph glyph-name="period" unicode="." horiz-adv-x="269" 
d="M79 23v66c0 15 8 25 24 25h62c18 0 25 -9 25 -25v-66c0 -18 -11 -23 -25 -23h-62c-14 0 -24 9 -24 23z" />
    <glyph glyph-name="slash" unicode="/" horiz-adv-x="415" 
d="M19 -72l281 842h97l-281 -842h-97z" />
    <glyph glyph-name="zero" unicode="0" horiz-adv-x="639" 
d="M157 173c0 -66 48 -84 92 -84h146c59 0 87 29 87 83v388c0 46 -19 83 -86 83h-148c-67 0 -91 -41 -91 -83v-387zM65 166v398c0 111 76 168 176 168h164c125 0 169 -78 169 -166v-400c0 -118 -67 -166 -170 -166h-164c-96 0 -175 46 -175 166z" />
    <glyph glyph-name="one" unicode="1" horiz-adv-x="364" 
d="M37 584v64l161 84h92v-732h-92v633z" />
    <glyph glyph-name="two" unicode="2" horiz-adv-x="594" 
d="M37 652v68c99 14 188 22 304 22c147 0 207 -107 207 -214c0 -188 -264 -389 -335 -439h335v-89h-504v83c105 71 411 293 411 446c0 71 -36 123 -127 123h-291z" />
    <glyph glyph-name="three" unicode="3" horiz-adv-x="591" 
d="M28 645v61c88 31 203 30 320 28c110 -2 173 -72 173 -168v-64c0 -74 -25 -121 -68 -138c44 -25 68 -70 68 -146v-54c0 -111 -58 -171 -180 -171c-114 0 -219 -3 -307 28l1 62h286c57 0 107 8 107 86v52c0 73 -45 95 -101 97l-231 8v72l231 10c69 4 103 33 103 92v60
c0 63 -51 85 -103 85h-299z" />
    <glyph glyph-name="four" unicode="4" horiz-adv-x="607" 
d="M19 224l304 508h106l-273 -460h256v197l35 75h57v-272h85v-72l-85 -20v-178h-92v178h-359z" />
    <glyph glyph-name="five" unicode="5" horiz-adv-x="601" 
d="M71 20v70h298c68 0 85 47 85 87v98c0 33 -2 88 -83 88h-138c-38 0 -76 -20 -76 -71h-84l22 440h428v-89h-342l-11 -221c16 17 44 25 73 28c50 7 111 1 139 0c118 -1 164 -72 164 -170v-111c0 -137 -102 -173 -169 -173c-124 0 -172 1 -306 24z" />
    <glyph glyph-name="six" unicode="6" horiz-adv-x="619" 
d="M153 345c0 -96 5 -257 109 -257h129c48 0 81 10 81 76v109c0 58 -36 72 -80 72h-239zM61 384c0 265 88 351 172 353c101 3 212 -5 306 -19v-69h-278c-91 0 -107 -155 -108 -237c78 11 171 20 246 20c138 0 164 -72 164 -154v-126c0 -114 -68 -153 -165 -153h-148
c-110 1 -189 70 -189 385z" />
    <glyph glyph-name="seven" unicode="7" horiz-adv-x="548" 
d="M28 643v89h462l30 -52l-259 -680h-106l249 643h-376z" />
    <glyph glyph-name="eight" unicode="8" horiz-adv-x="631" 
d="M162 494c0 -63 50 -78 84 -78h143c69 0 81 43 81 78v62c0 70 -29 94 -82 94h-132c-59 0 -94 -10 -94 -94v-62zM162 160c0 -47 26 -72 94 -72h131c43 0 83 23 83 72v95c0 52 -37 76 -80 76h-144c-45 0 -84 -19 -84 -76v-95zM70 158v91c0 70 41 96 83 109
c-65 24 -83 87 -83 141v65c0 135 76 173 179 173h148c108 0 165 -49 165 -173v-62c0 -23 -4 -102 -75 -116c56 -10 75 -90 75 -133v-94c0 -135 -98 -159 -166 -159h-147c-175 0 -179 113 -179 158z" />
    <glyph glyph-name="nine" unicode="9" horiz-adv-x="619" 
d="M147 463c0 -58 36 -72 81 -72h239c0 96 -6 257 -109 257h-130c-48 0 -81 -10 -81 -76v-109zM56 459v125c0 114 68 153 166 153h147c111 -1 190 -70 190 -385c0 -265 -89 -351 -172 -353c-101 -2 -219 1 -307 19v69h279c91 0 106 155 108 238c-78 -12 -171 -21 -247 -21
c-137 0 -164 72 -164 155z" />
    <glyph glyph-name="colon" unicode=":" horiz-adv-x="269" 
d="M79 441v66c0 15 8 25 24 25h62c18 0 25 -9 25 -25v-66c0 -18 -11 -23 -25 -23h-62c-14 0 -24 9 -24 23zM79 23v66c0 15 8 25 24 25h62c18 0 25 -9 25 -25v-66c0 -18 -11 -23 -25 -23h-62c-14 0 -24 9 -24 23z" />
    <glyph glyph-name="semicolon" unicode=";" horiz-adv-x="271" 
d="M81 442v66c0 15 8 25 24 25h62c18 0 25 -9 25 -25v-66c0 -18 -11 -23 -25 -23h-62c-14 0 -24 9 -24 23zM79 25v63c0 15 10 27 25 27h60c16 0 24 -12 24 -27v-99c0 -99 -104 -77 -104 -77v36c30 0 31 19 31 30v22h-11c-14 0 -25 12 -25 25z" />
    <glyph glyph-name="less" unicode="&#x3c;" horiz-adv-x="468" 
d="M47 307v93l375 158v-94l-263 -110l263 -120v-96z" />
    <glyph glyph-name="equal" unicode="=" horiz-adv-x="467" 
d="M20 415v86h427v-86h-427zM20 204v86h427v-86h-427z" />
    <glyph glyph-name="greater" unicode="&#x3e;" horiz-adv-x="468" 
d="M47 138v96l262 120l-262 110v94l375 -158v-93z" />
    <glyph glyph-name="question" unicode="?" horiz-adv-x="541" 
d="M168 23v66c0 15 8 25 24 25h63c16 0 24 -11 24 -25v-66c0 -15 -10 -23 -24 -23h-63c-14 0 -24 9 -24 23zM19 649v69c99 14 167 26 282 21c152 0 203 -90 203 -188v-93c0 -136 -99 -184 -238 -165v-98h-86v171h135c49 2 98 27 98 92v88c0 73 -38 103 -129 103h-265z" />
    <glyph glyph-name="at" unicode="@" horiz-adv-x="850" 
d="M312 122c0 -21 26 -47 58 -46c54 -1 110 26 154 50v112l-156 -15c-37 -4 -56 -28 -56 -61v-40zM61 3v336c0 49 11 173 178 173h209c75 0 159 -27 159 -144v-368h-65l-16 62c-2 0 -80 -71 -172 -71c-76 -2 -128 53 -128 121v50c0 83 48 135 134 135c63 0 164 -1 164 0
c0 0 1 67 0 67c0 53 -27 64 -78 64h-207c-48 0 -94 -10 -94 -90v-332c0 -90 54 -104 94 -104h345c82 0 103 36 103 104v497c0 77 -42 115 -103 115h-404v57c48 10 166 28 292 27h112c107 -1 187 -62 187 -199v-497c0 -112 -46 -190 -186 -190h-346c-105 0 -178 61 -178 187z
" />
    <glyph glyph-name="A" unicode="A" horiz-adv-x="676" 
d="M241 280h220l-108 320zM42 0l263 732h97l252 -732h-105l-60 193h-277l-63 -193h-107z" />
    <glyph glyph-name="B" unicode="B" horiz-adv-x="598" 
d="M168 426h192c68 0 105 37 105 111c0 89 -58 107 -105 107h-192v-218zM168 88h193c47 0 110 14 110 122c0 69 -32 130 -110 130h-193v-252zM75 0v732h287c148 0 195 -103 195 -192c0 -72 -23 -140 -95 -160c49 -10 101 -65 101 -173c0 -111 -46 -207 -200 -207h-288z" />
    <glyph glyph-name="C" unicode="C" horiz-adv-x="576" 
d="M51 368c0 234 47 372 246 372c66 0 174 -11 247 -27v-73c-1 0 -145 11 -238 11c-119 0 -163 -48 -163 -285c0 -164 35 -283 163 -283c105 0 238 7 238 7v-72c-69 -15 -181 -24 -247 -24c-185 0 -246 154 -246 374z" />
    <glyph glyph-name="D" unicode="D" horiz-adv-x="658" 
d="M167 90h187c121 0 170 122 170 274c0 209 -64 280 -170 280h-187v-554zM75 0v732h282c221 0 259 -210 259 -369c0 -179 -70 -363 -259 -363h-282z" />
    <glyph glyph-name="E" unicode="E" horiz-adv-x="567" 
d="M74 129v467c0 106 67 139 135 136c0 0 300 -14 318 -16v-74h-309c-52 0 -52 -29 -52 -56v-176l319 -10v-75l-319 -10v-176c1 -53 33 -52 62 -52h299v-73c-16 -2 -308 -17 -308 -17c-66 -4 -145 13 -145 132z" />
    <glyph glyph-name="F" unicode="F" horiz-adv-x="567" 
d="M74 0v595c0 104 65 140 135 137c0 0 300 -14 318 -16v-74h-309c-52 0 -52 -29 -52 -56v-176l319 -10v-75l-319 -10v-315h-92z" />
    <glyph glyph-name="G" unicode="G" horiz-adv-x="614" 
d="M51 370c0 203 37 370 236 370c68 0 181 -12 261 -28v-73c-6 0 -149 13 -252 13c-126 0 -153 -88 -153 -284c0 -213 36 -283 154 -284c74 -1 174 46 174 46v181h-150v61c41 12 95 24 174 24c21 0 44 0 68 -2v-394h-68l-22 49c-37 -23 -95 -53 -184 -54
c-207 -4 -238 164 -238 375z" />
    <glyph glyph-name="H" unicode="H" horiz-adv-x="637" 
d="M75 0v732h92v-334h323v334h92v-732h-92v310h-323v-310h-92z" />
    <glyph glyph-name="I" unicode="I" horiz-adv-x="222" 
d="M75 0v732h92v-732h-92z" />
    <glyph glyph-name="J" unicode="J" horiz-adv-x="358" 
d="M33 22l3 69c79 -16 174 -39 174 91v550h92v-567c0 -47 -2 -115 -52 -147c-53 -34 -165 -30 -217 4z" />
    <glyph glyph-name="K" unicode="K" horiz-adv-x="601" 
d="M75 0v732h90v-322h76l218 322h110l-245 -365l245 -367h-110l-218 322h-75v-322h-91z" />
    <glyph glyph-name="L" unicode="L" horiz-adv-x="552" 
d="M75 130v602h92v-591c0 -53 33 -52 62 -52h291v-89h-305c-69 0 -140 18 -140 130z" />
    <glyph glyph-name="M" unicode="M" horiz-adv-x="813" 
d="M51 0l53 732h127l175 -579l171 579h126l59 -732h-91l-46 568l-169 -568h-98l-174 568l-41 -568h-92z" />
    <glyph glyph-name="N" unicode="N" horiz-adv-x="679" 
d="M75 0v732h94l363 -561v561h92v-732h-92l-364 560v-560h-93z" />
    <glyph glyph-name="O" unicode="O" horiz-adv-x="674" 
d="M153 361c0 -241 46 -276 195 -276c145 0 193 41 193 276c0 280 -64 287 -193 287c-127 0 -195 -6 -195 -287zM61 361c0 343 119 376 287 376c173 0 285 -33 285 -376c0 -323 -105 -365 -285 -365s-287 32 -287 365z" />
    <glyph glyph-name="P" unicode="P" horiz-adv-x="586" 
d="M150 378h209c50 0 93 17 93 138c-2 119 -58 128 -93 128h-209v-266zM58 0v732h304c83 0 183 -32 183 -216c0 -213 -106 -227 -183 -226c-40 1 -207 18 -212 20v-310h-92z" />
    <glyph glyph-name="Q" unicode="Q" horiz-adv-x="674" 
d="M312 -33h60c53 -47 108 -42 166 -22v-89c-79 -26 -212 3 -226 111zM153 361c0 -241 44 -276 193 -276c145 0 195 41 195 276c0 280 -66 287 -195 287c-126 0 -193 -6 -193 -287zM61 361c0 343 114 376 285 376c173 0 287 -33 287 -376c0 -323 -107 -365 -287 -365
s-285 32 -285 365z" />
    <glyph glyph-name="R" unicode="R" horiz-adv-x="596" 
d="M150 385h218c47 0 88 4 88 125c0 118 -44 134 -88 134h-218v-259zM58 0v732h314c100 0 177 -54 177 -222c0 -188 -93 -205 -124 -212l150 -298h-101l-145 293l-179 14v-307h-92z" />
    <glyph glyph-name="S" unicode="S" horiz-adv-x="585" 
d="M61 492v65c0 145 86 181 198 181c67 1 215 -17 259 -25v-74c-64 4 -239 10 -249 10c-67 3 -116 -4 -116 -95v-58c0 -82 36 -90 95 -90h135c136 0 161 -97 161 -178v-63c0 -149 -103 -173 -202 -173c-70 0 -205 14 -259 26v74c40 -4 158 -11 251 -11c42 0 118 3 118 83v60
c0 53 -16 90 -78 90h-132c-165 0 -181 99 -181 178z" />
    <glyph glyph-name="T" unicode="T" horiz-adv-x="582" 
d="M41 643v89h517v-89h-215v-643h-92v643h-210z" />
    <glyph glyph-name="U" unicode="U" horiz-adv-x="673" 
d="M75 320v412h92v-412c0 -233 68 -236 182 -236c97 0 176 11 176 236v412h93v-412c0 -323 -148 -325 -269 -325c-136 0 -274 -8 -274 325z" />
    <glyph glyph-name="V" unicode="V" horiz-adv-x="674" 
d="M42 732h99l201 -596l210 596h99l-261 -732h-98z" />
    <glyph glyph-name="W" unicode="W" horiz-adv-x="970" 
d="M42 732h99l200 -587l167 587h102l-63 -222l128 -370l173 592h99l-221 -732h-98l-127 354l-111 -354h-98z" />
    <glyph glyph-name="X" unicode="X" horiz-adv-x="608" 
d="M42 732h101l169 -291l172 291h101l-217 -362l212 -370h-101l-167 291l-166 -291h-101l211 370z" />
    <glyph glyph-name="Y" unicode="Y" horiz-adv-x="637" 
d="M42 732h100l177 -375l195 375h100l-250 -481v-251h-92v251z" />
    <glyph glyph-name="Z" unicode="Z" horiz-adv-x="561" 
d="M33 0v89l379 554h-379v89h496v-89l-375 -554h375v-89h-496z" />
    <glyph glyph-name="bracketleft" unicode="[" horiz-adv-x="324" 
d="M79 -30v696c0 70 22 176 145 176h82v-86h-73c-38 0 -62 -35 -62 -95v-690c0 -60 24 -95 62 -95h73v-86h-82c-128 0 -145 114 -145 180z" />
    <glyph glyph-name="backslash" unicode="\" horiz-adv-x="415" 
d="M19 770h97l281 -842h-97z" />
    <glyph glyph-name="bracketright" unicode="]" horiz-adv-x="324" 
d="M19 -124h72c38 0 62 35 62 95v690c0 60 -24 95 -62 95h-72v86h81c124 0 145 -106 145 -176v-696c0 -66 -17 -180 -145 -180h-81v86z" />
    <glyph glyph-name="asciicircum" unicode="^" horiz-adv-x="389" 
d="M47 531l114 131h80l102 -131h-77l-67 68l-74 -68h-78z" />
    <glyph glyph-name="underscore" unicode="_" horiz-adv-x="674" 
d="M20 -1v86h634v-86h-634z" />
    <glyph glyph-name="grave" unicode="`" horiz-adv-x="242" 
d="M19 666h102l103 -135h-75z" />
    <glyph glyph-name="a" unicode="a" horiz-adv-x="519" 
d="M129 138c0 -47 25 -60 57 -60c74 0 194 49 194 49v130l-196 -14c-41 -4 -55 -32 -55 -62v-43zM37 129v58c0 79 48 136 139 136c0 0 204 -1 204 0c0 0 1 57 0 58c0 60 -30 77 -79 77c-65 0 -164 -5 -247 -11v63c71 21 156 30 255 31c91 1 163 -43 163 -159v-382h-70
l-22 62c-3 -3 -117 -68 -205 -68c-81 1 -138 54 -138 135z" />
    <glyph glyph-name="b" unicode="b" horiz-adv-x="554" 
d="M147 123c48 -21 105 -43 177 -43c59 0 92 58 92 184c0 156 -34 191 -92 191c-69 0 -116 -7 -177 -24v-308zM56 0v785h90v-285c60 25 143 39 188 39c150 0 174 -132 174 -276c0 -133 -33 -269 -174 -269c-67 0 -159 42 -187 64l-21 -58h-70z" />
    <glyph glyph-name="c" unicode="c" horiz-adv-x="498" 
d="M47 266c0 228 73 270 175 270c52 0 157 -10 232 -28v-62s-127 6 -216 6c-61 0 -99 -10 -99 -190c0 -148 27 -182 99 -182c92 0 223 10 223 10v-65c-80 -27 -156 -29 -239 -30c-99 0 -175 42 -175 271z" />
    <glyph glyph-name="d" unicode="d" horiz-adv-x="554" 
d="M139 264c0 -126 33 -184 92 -184c72 0 129 22 177 43v308c-61 17 -108 24 -177 24c-58 0 -92 -35 -92 -191zM47 263c0 145 24 276 174 276c45 0 127 -14 187 -39v285h91v-785h-70l-21 58c-28 -22 -120 -64 -187 -64c-141 0 -174 135 -174 269z" />
    <glyph glyph-name="e" unicode="e" horiz-adv-x="525" 
d="M139 301h199c40 0 58 16 58 46c0 95 -17 105 -114 105c-103 0 -144 -2 -143 -151zM47 268c0 235 67 267 232 267c133 0 209 -13 209 -189c0 -82 -44 -126 -140 -126h-209c0 -117 26 -141 104 -141c89 0 160 -1 235 11v-67c-80 -24 -173 -28 -256 -28
c-135 0 -175 69 -175 273z" />
    <glyph glyph-name="f" unicode="f" horiz-adv-x="401" 
d="M19 448v66l93 17v99c0 64 12 156 132 156c49 0 91 -8 138 -24v-58c-1 0 -115 1 -115 1c-62 1 -63 -34 -63 -84v-90h140v-83h-140v-448h-92v448h-93z" />
    <glyph glyph-name="g" unicode="g" horiz-adv-x="555" 
d="M138 344c0 -49 15 -110 85 -110h86c73 0 91 63 89 110c-2 66 -19 104 -90 104h-80c-75 0 -90 -53 -90 -104zM136 -111c0 -68 44 -75 80 -75h131c57 0 71 31 71 74v53c0 42 -11 63 -64 63h-174c-28 0 -44 7 -44 7v-122zM45 112c0 35 18 76 59 86c-44 28 -58 93 -58 146
c0 127 66 189 176 189h315v-63l-75 -18c11 -22 28 -42 28 -112c0 -65 -25 -191 -169 -191h-147c-16 0 -41 -3 -41 -28s18 -32 41 -32h199c86 0 137 -54 137 -143v-62c0 -64 -24 -154 -155 -154h-150c-94 0 -161 50 -161 154v80l41 61c-28 19 -40 53 -40 87z" />
    <glyph glyph-name="h" unicode="h" 
d="M56 0v784h92v-314c56 35 108 70 189 70c110 0 162 -83 162 -174v-366h-92v366c0 62 -34 90 -81 90c-74 0 -111 -19 -178 -54v-402h-92z" />
    <glyph glyph-name="i" unicode="i" horiz-adv-x="205" 
d="M55 0v531h92v-531h-92zM47 615v63c0 16 8 26 24 26h65c15 0 23 -12 23 -26v-63c0 -15 -9 -23 -23 -23h-65c-14 0 -24 9 -24 23z" />
    <glyph glyph-name="j" unicode="j" horiz-adv-x="224" 
d="M66 -270v801h92v-535c1 -86 -1 -186 -29 -266h-63zM56 615v63c0 16 8 26 24 26h65c15 0 23 -12 23 -26v-63c0 -15 -9 -23 -23 -23h-65c-14 0 -24 9 -24 23z" />
    <glyph glyph-name="k" unicode="k" horiz-adv-x="515" 
d="M56 0v782h92v-437h37l189 186h123l-226 -227l226 -304h-112l-200 262h-37v-262h-92z" />
    <glyph glyph-name="l" unicode="l" horiz-adv-x="303" 
d="M56 189v594h92v-588c0 -84 22 -103 54 -112c0 0 76 -21 83 -21v-62h-95c-80 0 -134 48 -134 189z" />
    <glyph glyph-name="m" unicode="m" horiz-adv-x="891" 
d="M56 0v531h69l23 -62c57 35 103 68 183 68c65 0 121 -28 144 -75c51 41 121 75 208 75c99 0 162 -71 162 -175v-362h-92v363c0 56 -34 90 -81 90c-72 0 -120 -12 -178 -52v-37v-364h-92v363c0 56 -35 90 -82 90c-71 0 -105 -18 -172 -53v-400h-92z" />
    <glyph glyph-name="n" unicode="n" 
d="M56 0v531h69l23 -61c57 35 108 70 189 70c110 0 162 -83 162 -174v-366h-92v366c0 62 -35 90 -81 90c-74 0 -111 -19 -178 -54v-402h-92z" />
    <glyph glyph-name="o" unicode="o" horiz-adv-x="565" 
d="M139 258c0 -166 49 -178 144 -178c100 0 144 13 144 178c0 179 -36 194 -144 194c-104 0 -144 -15 -144 -194zM47 258c0 217 60 278 236 278c180 0 236 -67 236 -278c0 -197 -55 -263 -236 -263c-180 0 -236 73 -236 263z" />
    <glyph glyph-name="p" unicode="p" horiz-adv-x="554" 
d="M147 100c60 -17 108 -24 177 -24c58 0 92 35 92 190c0 127 -33 185 -92 185c-72 0 -130 -22 -177 -43v-308zM56 -270v801h70l21 -57c27 21 120 63 187 63c141 0 174 -137 174 -269c0 -141 -24 -276 -174 -276c-45 0 -128 14 -188 38v-300h-90z" />
    <glyph glyph-name="q" unicode="q" horiz-adv-x="555" 
d="M139 269c0 -91 -3 -195 102 -195c66 0 94 4 166 24v356h-166c-100 0 -102 -122 -102 -185zM47 268c0 173 62 269 187 269c106 0 217 -18 265 -25v-782h-92v299c-58 -26 -128 -39 -173 -39c-153 0 -187 115 -187 278z" />
    <glyph glyph-name="r" unicode="r" horiz-adv-x="423" 
d="M56 0v531h70l22 -67c54 35 108 73 186 73c27 0 57 -2 70 -8v-90c-13 3 -46 5 -75 5c-74 0 -115 -17 -181 -58v-386h-92z" />
    <glyph glyph-name="s" unicode="s" horiz-adv-x="506" 
d="M37 355v46c0 82 35 135 138 135c66 0 218 -9 267 -19v-66h-255c-56 0 -58 -21 -58 -52v-40c0 -50 25 -51 58 -51h149c91 0 133 -56 133 -132v-50c0 -109 -66 -131 -130 -131c-63 0 -242 12 -280 22v64h268c3 0 50 -5 50 48v42c0 32 -10 50 -50 50h-149
c-94 0 -141 31 -141 134z" />
    <glyph glyph-name="t" unicode="t" horiz-adv-x="379" 
d="M19 449v62l95 21l20 148h72v-148h145v-83h-145v-253c0 -85 22 -104 54 -112c0 0 76 -21 83 -21v-62h-97c-78 0 -132 48 -132 189v259h-95z" />
    <glyph glyph-name="u" unicode="u" 
d="M47 166v365h92v-366c0 -63 35 -89 81 -89c74 0 110 18 178 54v401h92v-531h-69l-23 60c-59 -34 -108 -69 -189 -69c-111 0 -162 83 -162 175z" />
    <glyph glyph-name="v" unicode="v" horiz-adv-x="543" 
d="M19 531h99l153 -407l155 407h99l-207 -531h-97z" />
    <glyph glyph-name="w" unicode="w" horiz-adv-x="807" 
d="M19 531h99l144 -407l126 407h96l-49 -163l108 -244l147 407h99l-194 -531h-97l-107 242l-80 -242h-101z" />
    <glyph glyph-name="x" unicode="x" horiz-adv-x="537" 
d="M22 0l190 266l-190 265h114l131 -192l135 192h113l-192 -268l184 -263h-105l-133 190l-133 -190h-114z" />
    <glyph glyph-name="y" unicode="y" horiz-adv-x="560" 
d="M20 531h99l118 -403c17 -54 61 -39 63 -39l140 442h100l-221 -699l-74 -102h-61l89 270c-35 0 -99 12 -130 117z" />
    <glyph glyph-name="z" unicode="z" horiz-adv-x="460" 
d="M28 445v86h405v-86l-269 -358h269c1 -1 0 -86 0 -86h-390v86l275 358h-290z" />
    <glyph glyph-name="braceleft" unicode="{" horiz-adv-x="320" 
d="M19 295v77c33 3 85 4 85 53v231c0 100 60 186 198 186v-86c-60 0 -106 -21 -106 -112v-221c0 -52 -37 -81 -88 -89c51 -8 87 -42 87 -86v-276c0 -64 40 -101 107 -98v-84c-153 0 -199 87 -199 172v280c0 41 -44 56 -84 53z" />
    <glyph glyph-name="bar" unicode="|" horiz-adv-x="245" 
d="M80 -72v842h86v-842h-86z" />
    <glyph glyph-name="braceright" unicode="}" horiz-adv-x="320" 
d="M19 -126c66 -3 106 34 106 98v276c0 44 37 78 87 86c-50 8 -88 37 -88 89v221c0 91 -46 112 -105 112v86c137 0 197 -86 197 -186v-231c0 -49 53 -50 86 -53v-77c-40 3 -85 -12 -85 -53v-280c0 -85 -45 -172 -198 -172v84z" />
    <glyph glyph-name="asciitilde" unicode="~" horiz-adv-x="432" 
d="M47 576c37 33 64 69 118 69c44 0 66 -35 106 -35c39 0 67 23 93 40l22 -47c-26 -26 -62 -72 -114 -72c-45 0 -71 35 -110 35s-58 -20 -93 -35z" />
    <glyph glyph-name="exclamdown" unicode="&#xa1;" horiz-adv-x="270" 
d="M82 -270l8 532h86l9 -532h-103zM79 376v62c0 14 10 22 24 23h59c12 -1 24 -12 24 -26v-58c-1 -13 -5 -27 -23 -27h-60c-15 0 -24 10 -24 26z" />
    <glyph glyph-name="cent" unicode="&#xa2;" horiz-adv-x="489" 
d="M37 266c0 234 75 276 189 272v96h67v-101c50 -6 107 -15 152 -25v-62s-127 7 -216 7c-62 0 -100 -11 -100 -191c0 -148 28 -184 100 -184c92 0 223 10 223 10v-64c-54 -19 -106 -26 -159 -28v-92h-68v89c-111 -1 -188 37 -188 273z" />
    <glyph glyph-name="sterling" unicode="&#xa3;" horiz-adv-x="592" 
d="M47 0v72l70 17v237h-70v52l70 18v103c0 216 98 233 236 233c57 0 193 -16 193 -16v-72h-193c-112 0 -144 -4 -144 -142v-106l258 -16v-54h-258v-237h336v-89h-498z" />
    <glyph glyph-name="currency" unicode="&#xa4;" horiz-adv-x="455" 
d="M127 312c0 -54 42 -101 97 -101c54 0 97 47 97 101s-44 97 -97 97s-97 -44 -97 -97zM48 446l42 39l42 -42c26 18 58 29 92 29c36 0 69 -12 96 -32l48 47l38 -42l-47 -48c15 -24 23 -52 23 -83c0 -35 -10 -68 -28 -95l52 -51l-44 -41l-50 50c-25 -18 -55 -29 -88 -29
s-63 10 -88 28l-47 -47l-40 44l46 45c-19 27 -29 60 -29 96c0 33 9 62 26 87z" />
    <glyph glyph-name="yen" unicode="&#xa5;" horiz-adv-x="609" 
d="M19 732h100l177 -336l192 336h103l-239 -406h161v-66h-172v-46h172v-65h-172v-149h-92v149h-163v65h163v46h-163v66h153z" />
    <glyph glyph-name="brokenbar" unicode="&#xa6;" horiz-adv-x="246" 
d="M80 429v341h86v-341h-86zM80 -72v328h86v-328h-86z" />
    <glyph glyph-name="section" unicode="&#xa7;" horiz-adv-x="549" 
d="M143 357c0 -43 19 -47 53 -47h154c55 0 55 20 55 48c1 1 0 55 0 55c0 33 -2 51 -55 51h-154c-42 0 -53 -8 -53 -53v-54zM52 348v55c0 47 7 86 49 99c-40 14 -50 54 -50 88v64c0 98 63 130 133 130c57 0 234 -13 276 -19v-67h-265c-32 0 -51 -10 -52 -46v-60
c0 -34 26 -44 52 -44h164c113 0 140 -50 139 -127v-54c0 -30 -3 -86 -47 -95c42 -6 46 -53 46 -86v-68c0 -113 -74 -126 -138 -126c-58 0 -229 13 -271 19v67h259c32 0 57 4 58 41v63c0 38 -16 44 -53 44h-165c-83 0 -135 21 -135 122z" />
    <glyph glyph-name="dieresis" unicode="&#xa8;" horiz-adv-x="453" 
d="M302 582c0 29 24 52 53 52s52 -23 52 -52s-23 -53 -52 -53s-53 24 -53 53zM47 582c0 29 24 52 53 52s52 -23 52 -52s-23 -53 -52 -53s-53 24 -53 53z" />
    <glyph glyph-name="copyright" unicode="&#xa9;" horiz-adv-x="808" 
d="M229 365c0 161 62 218 144 218c41 0 123 -12 179 -24v-58c-63 9 -140 12 -173 12c-54 0 -79 -47 -79 -151c0 -84 15 -145 80 -145c70 0 143 11 178 16v-58c-62 -19 -117 -28 -184 -28c-79 0 -145 41 -145 218zM123 368c0 -145 49 -297 163 -298h258c80 1 141 94 141 298
c0 120 -9 294 -140 294h-259c-89 0 -163 -56 -163 -294zM51 368c0 168 37 364 235 364h259c197 0 212 -226 212 -364c0 -203 -61 -368 -212 -368h-259c-185 0 -235 221 -235 368z" />
    <glyph glyph-name="ordfeminine" unicode="&#xaa;" horiz-adv-x="364" 
d="M101 478c0 -29 17 -37 41 -37c56 0 118 30 118 30v79l-119 -9c-30 -3 -40 -21 -40 -39v-24zM28 464v43c0 53 36 91 103 91c0 0 129 -1 129 0c0 0 1 27 0 28c0 37 -21 48 -58 48c-58 0 -100 -5 -162 -8v49c55 10 98 23 172 24c69 1 123 -29 123 -106v-255h-51l-23 48
c-2 -3 -73 -52 -131 -52c-57 0 -102 35 -102 90zM28 266v62h309v-62h-309z" />
    <glyph glyph-name="guillemotleft" unicode="&#xab;" horiz-adv-x="557" 
d="M242 354l206 203l59 -58l-149 -145l153 -149l-58 -59zM47 354l206 203l58 -58l-148 -145l153 -149l-58 -59z" />
    <glyph glyph-name="logicalnot" unicode="&#xac;" horiz-adv-x="518" 
d="M46 252v84h426v-177h-84v93h-342z" />
    <glyph glyph-name="uni00AD" unicode="&#xad;" horiz-adv-x="354" 
d="M20 247v86h314v-86h-314z" />
    <glyph glyph-name="registered" unicode="&#xae;" horiz-adv-x="808" 
d="M329 382h107c52 0 62 12 62 68c0 58 -33 60 -62 60h-107v-128zM257 153v427h179c66 0 134 -23 134 -130c0 -110 -56 -122 -91 -130l90 -167h-80l-89 167l-71 12v-179h-72zM123 368c0 -145 49 -297 163 -298h258c80 1 141 94 141 298c0 120 -9 294 -140 294h-259
c-89 0 -163 -56 -163 -294zM51 368c0 168 37 364 235 364h259c197 0 212 -226 212 -364c0 -203 -61 -368 -212 -368h-259c-185 0 -235 221 -235 368z" />
    <glyph glyph-name="macron" unicode="&#xaf;" horiz-adv-x="385" 
d="M47 531v67h292v-67h-292z" />
    <glyph glyph-name="degree" unicode="&#xb0;" horiz-adv-x="296" 
d="M97 632c0 -28 23 -51 52 -51c28 0 51 23 51 51s-23 52 -51 52c-29 0 -52 -24 -52 -52zM47 632c0 57 46 103 102 103s101 -46 101 -103s-45 -102 -101 -102s-102 45 -102 102z" />
    <glyph glyph-name="plusminus" unicode="&#xb1;" horiz-adv-x="519" 
d="M52 386v86h164v164h86v-164h166v-86h-166v-166h-86v166h-164zM52 82v86h416v-86h-416z" />
    <glyph glyph-name="twosuperior" unicode="&#xb2;" horiz-adv-x="390" 
d="M30 810c-2 0 0 56 0 56c64 9 111 16 187 16c100 0 134 -59 134 -138c0 -120 -147 -238 -190 -273h190v-73h-318v69c65 50 241 169 241 271c0 51 -18 72 -76 72h-168z" />
    <glyph glyph-name="threesuperior" unicode="&#xb3;" horiz-adv-x="406" 
d="M28 806v53c58 20 123 18 200 18c86 0 123 -55 123 -118v-34c0 -47 -22 -78 -51 -89c30 -16 51 -46 51 -95v-27c0 -72 -31 -120 -128 -120c-75 0 -133 -2 -191 19l1 53c27 0 172 1 172 1c54 0 71 14 71 55v20c0 46 -31 61 -67 62l-137 5v58l137 7c45 2 68 20 68 58v19
c0 39 -24 55 -68 55h-181z" />
    <glyph glyph-name="acute" unicode="&#xb4;" horiz-adv-x="242" 
d="M19 531l102 135h103l-130 -135h-75z" />
    <glyph glyph-name="uni00B5" unicode="&#xb5;" horiz-adv-x="592" 
d="M84 166v365h92v-366c0 -63 35 -89 82 -89c73 0 110 18 177 54v401h92v-531h-68l-24 60c-56 -32 -104 -65 -177 -67c-32 -1 -59 7 -82 20v-283h-92v436z" />
    <glyph glyph-name="paragraph" unicode="&#xb6;" horiz-adv-x="579" 
d="M119 504c0 -59 48 -68 76 -68h52v214h-52c-61 0 -76 -35 -76 -65v-81zM37 499v93c0 95 77 140 156 140h368v-84h-64v-648h-82v650h-86v-920h-82v642c-6 -2 -24 -18 -54 -17c-104 0 -156 66 -156 144z" />
    <glyph glyph-name="periodcentered" unicode="&#xb7;" horiz-adv-x="269" 
d="M79 350v66c0 15 8 25 24 25h62c18 0 25 -9 25 -25v-66c0 -18 -11 -23 -25 -23h-62c-14 0 -24 9 -24 23z" />
    <glyph glyph-name="cedilla" unicode="&#xb8;" horiz-adv-x="249" 
d="M47 -131l50 15c28 12 32 41 32 79h74c0 -102 -22 -137 -104 -137h-52v43z" />
    <glyph glyph-name="onesuperior" unicode="&#xb9;" horiz-adv-x="270" 
d="M15 767v54l121 55h74v-478h-74v401z" />
    <glyph glyph-name="ordmasculine" unicode="&#xba;" horiz-adv-x="391" 
d="M103 550c0 -104 35 -108 93 -108c62 0 91 2 93 108c1 114 -30 118 -93 118c-64 0 -93 -2 -93 -118zM40 269v61h311v-61h-311zM28 550c0 142 40 187 168 187c129 0 167 -45 167 -187c0 -128 -38 -177 -167 -177c-128 0 -168 49 -168 177z" />
    <glyph glyph-name="guillemotright" unicode="&#xbb;" horiz-adv-x="557" 
d="M242 205l152 149l-148 145l59 58l206 -203l-211 -208zM47 205l152 149l-148 145l59 58l206 -203l-211 -208z" />
    <glyph glyph-name="onequarter" unicode="&#xbc;" horiz-adv-x="910" 
d="M498 143l199 333h83l-170 -288h150v116l27 49h48v-165h56v-60l-56 -15v-114h-75v114h-239zM208 0l366 738h74l-365 -738h-75zM15 625v53l121 56h74v-478h-74v401z" />
    <glyph glyph-name="onehalf" unicode="&#xbd;" horiz-adv-x="978" 
d="M618 411c-2 0 -1 58 0 57c65 8 111 16 188 16c100 0 134 -59 134 -139c0 -119 -148 -237 -190 -273h190v-72h-319v68c65 51 242 171 242 274c0 49 -18 69 -76 69h-169zM202 0l366 738h75l-366 -738h-75zM15 625v53l121 56h74v-478h-74v401z" />
    <glyph glyph-name="threequarters" unicode="&#xbe;" horiz-adv-x="1026" 
d="M585 144l198 332h79l-169 -290h157v119l24 49h48v-168h56v-58l-56 -14v-114h-72v114h-243zM308 0l365 738h75l-365 -738h-75zM28 663v53c58 21 124 19 201 19c85 -1 123 -56 123 -118v-34c0 -47 -22 -79 -51 -89c30 -17 51 -46 51 -96v-26c0 -73 -31 -120 -128 -120
c-75 0 -134 -2 -192 18l1 53c27 0 173 1 173 1c54 0 71 14 71 55v20c0 47 -31 62 -67 63l-138 5v57l138 7c45 2 68 21 68 58v20c0 39 -24 54 -68 54h-182z" />
    <glyph glyph-name="questiondown" unicode="&#xbf;" horiz-adv-x="543" 
d="M264 385v61c0 14 11 24 24 25h58c14 -1 24 -9 24 -23v-63c-1 -14 -8 -24 -21 -25h-65c-13 3 -20 12 -20 25zM37 17c-1 120 97 180 237 161c0 3 2 93 0 98h87l1 -171c-49 1 -86 2 -135 0s-83 -42 -87 -95c0 0 -1 -70 -1 -87c0 -50 32 -104 119 -102c42 0 266 1 266 1
c-2 0 0 -69 -1 -68c-100 -15 -167 -27 -282 -22c-167 -1 -204 105 -204 191v94z" />
    <glyph glyph-name="Agrave" unicode="&#xc0;" horiz-adv-x="676" 
d="M186 932h103l102 -135h-75zM241 280h220l-108 320zM42 0l263 732h97l252 -732h-105l-60 193h-277l-63 -193h-107z" />
    <glyph glyph-name="Aacute" unicode="&#xc1;" horiz-adv-x="676" 
d="M316 797l103 135h102l-130 -135h-75zM241 280h220l-108 320zM42 0l263 732h97l252 -732h-105l-60 193h-277l-63 -193h-107z" />
    <glyph glyph-name="Acircumflex" unicode="&#xc2;" horiz-adv-x="676" 
d="M205 797l115 131h80l102 -131h-77l-68 68l-74 -68h-78zM241 280h220l-108 320zM42 0l263 732h97l252 -732h-105l-60 193h-277l-63 -193h-107z" />
    <glyph glyph-name="Atilde" unicode="&#xc3;" horiz-adv-x="676" 
d="M184 842c38 33 75 65 119 65c49 -2 77 -34 106 -35c27 -1 61 19 92 37l22 -47c-31 -26 -71 -66 -114 -64c-54 2 -72 35 -109 34c-43 -1 -58 -20 -94 -35zM241 280h220l-108 320zM42 0l263 732h97l252 -732h-105l-60 193h-277l-63 -193h-107z" />
    <glyph glyph-name="Adieresis" unicode="&#xc4;" horiz-adv-x="676" 
d="M428 850c0 29 24 52 54 52c29 0 52 -23 52 -52s-23 -53 -52 -53c-30 0 -54 24 -54 53zM173 850c0 29 24 52 54 52c29 0 52 -23 52 -52s-23 -53 -52 -53c-30 0 -54 24 -54 53zM241 280h220l-108 320zM42 0l263 732h97l252 -732h-105l-60 193h-277l-63 -193h-107z" />
    <glyph glyph-name="Aring" unicode="&#xc5;" horiz-adv-x="676" 
d="M302 832c0 -28 24 -51 52 -51s51 23 51 51c0 29 -23 52 -51 52s-52 -23 -52 -52zM252 832c0 57 46 103 102 103s101 -46 101 -103c0 -50 -35 -91 -82 -100h29l252 -732h-105l-60 193h-277l-63 -193h-107l263 732h30c-47 9 -83 50 -83 100zM241 280h220l-108 320z" />
    <glyph glyph-name="AE" unicode="&#xc6;" horiz-adv-x="930" 
d="M279 306h158v320zM28 0l294 596c73 147 157 137 248 136c0 0 300 -14 318 -16v-75h-309c-49 0 -49 -26 -50 -53v-183l317 -10v-74l-317 -10v-174c0 -53 33 -48 62 -48l296 -1v-76c-15 -2 -305 -17 -305 -17c-67 -4 -145 13 -145 126v97h-201l-107 -218h-101z" />
    <glyph glyph-name="Ccedilla" unicode="&#xc7;" horiz-adv-x="576" 
d="M190 -130l50 15c28 12 32 41 32 79h74c0 -102 -22 -138 -104 -138h-52v44zM51 368c0 234 47 372 246 372c66 0 174 -11 247 -27v-73c-1 0 -145 11 -238 11c-119 0 -163 -48 -163 -285c0 -164 35 -283 163 -283c105 0 238 7 238 7v-72c-69 -15 -181 -24 -247 -24
c-185 0 -246 154 -246 374z" />
    <glyph glyph-name="Egrave" unicode="&#xc8;" horiz-adv-x="567" 
d="M173 927h102l103 -134h-75zM74 129v467c0 106 67 139 135 136c0 0 300 -14 318 -16v-74h-309c-52 0 -52 -29 -52 -56v-176l319 -10v-75l-319 -10v-176c1 -53 33 -52 62 -52h299v-73c-16 -2 -308 -17 -308 -17c-66 -4 -145 13 -145 132z" />
    <glyph glyph-name="Eacute" unicode="&#xc9;" horiz-adv-x="567" 
d="M284 793l102 134h103l-130 -134h-75zM74 129v467c0 106 67 139 135 136c0 0 300 -14 318 -16v-74h-309c-52 0 -52 -29 -52 -56v-176l319 -10v-75l-319 -10v-176c1 -53 33 -52 62 -52h299v-73c-16 -2 -308 -17 -308 -17c-66 -4 -145 13 -145 132z" />
    <glyph glyph-name="Ecircumflex" unicode="&#xca;" horiz-adv-x="567" 
d="M168 797l115 131h80l102 -131h-77l-68 68l-74 -68h-78zM74 129v467c0 106 67 139 135 136c0 0 300 -14 318 -16v-74h-309c-52 0 -52 -29 -52 -56v-176l319 -10v-75l-319 -10v-176c1 -53 33 -52 62 -52h299v-73c-16 -2 -308 -17 -308 -17c-66 -4 -145 13 -145 132z" />
    <glyph glyph-name="Edieresis" unicode="&#xcb;" horiz-adv-x="567" 
d="M391 846c0 29 24 52 53 52s52 -23 52 -52s-23 -53 -52 -53s-53 24 -53 53zM136 846c0 29 24 52 53 52s52 -23 52 -52s-23 -53 -52 -53s-53 24 -53 53zM74 129v467c0 106 67 139 135 136c0 0 300 -14 318 -16v-74h-309c-52 0 -52 -29 -52 -56v-176l319 -10v-75l-319 -10
v-176c1 -53 33 -52 62 -52h299v-73c-16 -2 -308 -17 -308 -17c-66 -4 -145 13 -145 132z" />
    <glyph glyph-name="Igrave" unicode="&#xcc;" horiz-adv-x="222" 
d="M-47 932h103l102 -135h-75zM75 0v732h92v-732h-92z" />
    <glyph glyph-name="Iacute" unicode="&#xcd;" horiz-adv-x="222" 
d="M83 797l103 135h102l-130 -135h-75zM75 0v732h92v-732h-92z" />
    <glyph glyph-name="Icircumflex" unicode="&#xce;" horiz-adv-x="222" 
d="M-28 797l115 131h80l102 -131h-77l-68 68l-74 -68h-78zM75 0v732h92v-732h-92z" />
    <glyph glyph-name="Idieresis" unicode="&#xcf;" horiz-adv-x="222" 
d="M196 850c0 29 24 52 53 52s52 -23 52 -52s-23 -53 -52 -53s-53 24 -53 53zM-60 850c0 29 25 52 54 52s52 -23 52 -52s-23 -53 -52 -53s-54 24 -54 53zM75 0v732h92v-732h-92z" />
    <glyph glyph-name="Eth" unicode="&#xd0;" horiz-adv-x="658" 
d="M167 90h188c121 0 166 122 166 274c0 206 -67 276 -166 276l-188 -1v-237h131v-58h-131v-254zM10 344v58h65v329c0 1 232 1 283 1c221 0 258 -210 258 -369c0 -179 -69 -363 -258 -363h-283v344h-65z" />
    <glyph glyph-name="Ntilde" unicode="&#xd1;" horiz-adv-x="679" 
d="M179 842c38 33 76 65 119 65c49 -2 77 -34 107 -35c26 -1 61 19 91 37l23 -47c-31 -26 -71 -66 -115 -64c-54 2 -72 35 -108 34c-43 -1 -59 -20 -95 -35zM75 0v732h94l363 -561v561h92v-732h-92l-364 560v-560h-93z" />
    <glyph glyph-name="Ograve" unicode="&#xd2;" horiz-adv-x="674" 
d="M180 932h103l102 -135h-75zM153 361c0 -241 46 -276 195 -276c145 0 193 41 193 276c0 280 -64 287 -193 287c-127 0 -195 -6 -195 -287zM61 361c0 343 119 376 287 376c173 0 285 -33 285 -376c0 -323 -105 -365 -285 -365s-287 32 -287 365z" />
    <glyph glyph-name="Oacute" unicode="&#xd3;" horiz-adv-x="674" 
d="M310 797l103 135h102l-130 -135h-75zM153 361c0 -241 46 -276 195 -276c145 0 193 41 193 276c0 280 -64 287 -193 287c-127 0 -195 -6 -195 -287zM61 361c0 343 119 376 287 376c173 0 285 -33 285 -376c0 -323 -105 -365 -285 -365s-287 32 -287 365z" />
    <glyph glyph-name="Ocircumflex" unicode="&#xd4;" horiz-adv-x="674" 
d="M199 797l115 131h80l102 -131h-77l-68 68l-74 -68h-78zM153 361c0 -241 46 -276 195 -276c145 0 193 41 193 276c0 280 -64 287 -193 287c-127 0 -195 -6 -195 -287zM61 361c0 343 119 376 287 376c173 0 285 -33 285 -376c0 -323 -105 -365 -285 -365s-287 32 -287 365z
" />
    <glyph glyph-name="Otilde" unicode="&#xd5;" horiz-adv-x="674" 
d="M178 842c38 33 75 65 119 65c49 -2 77 -34 107 -35c26 -1 60 19 91 37l22 -47c-31 -26 -71 -66 -114 -64c-54 2 -72 35 -109 34c-43 -1 -58 -20 -94 -35zM153 361c0 -241 46 -276 195 -276c145 0 193 41 193 276c0 280 -64 287 -193 287c-127 0 -195 -6 -195 -287z
M61 361c0 343 119 376 287 376c173 0 285 -33 285 -376c0 -323 -105 -365 -285 -365s-287 32 -287 365z" />
    <glyph glyph-name="Odieresis" unicode="&#xd6;" horiz-adv-x="674" 
d="M422 850c0 29 24 52 54 52c29 0 52 -23 52 -52s-23 -53 -52 -53c-30 0 -54 24 -54 53zM167 850c0 29 24 52 54 52c29 0 52 -23 52 -52s-23 -53 -52 -53c-30 0 -54 24 -54 53zM153 361c0 -241 46 -276 195 -276c145 0 193 41 193 276c0 280 -64 287 -193 287
c-127 0 -195 -6 -195 -287zM61 361c0 343 119 376 287 376c173 0 285 -33 285 -376c0 -323 -105 -365 -285 -365s-287 32 -287 365z" />
    <glyph glyph-name="multiply" unicode="&#xd7;" horiz-adv-x="459" 
d="M52 239l117 116l-117 117l61 61l117 -117l117 117l61 -60l-118 -118l117 -116l-61 -61l-116 116l-116 -115z" />
    <glyph glyph-name="Oslash" unicode="&#xd8;" horiz-adv-x="676" 
d="M213 115c30 -24 73 -30 135 -30c146 0 194 41 194 276c0 108 -9 174 -30 216zM154 361c0 -96 8 -157 27 -196l297 459c-31 23 -75 24 -130 24c-126 0 -194 -6 -194 -287zM62 361c0 343 115 376 286 376c72 0 133 -5 181 -37l21 32h65l-46 -70c42 -54 65 -145 65 -301
c0 -323 -106 -365 -286 -365c-77 0 -141 6 -188 39l-23 -35h-65l48 74c-38 53 -58 141 -58 287z" />
    <glyph glyph-name="Ugrave" unicode="&#xd9;" horiz-adv-x="673" 
d="M179 932h102l103 -135h-75zM75 320v412h92v-412c0 -233 68 -236 182 -236c97 0 176 11 176 236v412h93v-412c0 -323 -148 -325 -269 -325c-136 0 -274 -8 -274 325z" />
    <glyph glyph-name="Uacute" unicode="&#xda;" horiz-adv-x="673" 
d="M309 797l102 135h103l-130 -135h-75zM75 320v412h92v-412c0 -233 68 -236 182 -236c97 0 176 11 176 236v412h93v-412c0 -323 -148 -325 -269 -325c-136 0 -274 -8 -274 325z" />
    <glyph glyph-name="Ucircumflex" unicode="&#xdb;" horiz-adv-x="673" 
d="M198 797l114 131h80l102 -131h-76l-68 68l-74 -68h-78zM75 320v412h92v-412c0 -233 68 -236 182 -236c97 0 176 11 176 236v412h93v-412c0 -323 -148 -325 -269 -325c-136 0 -274 -8 -274 325z" />
    <glyph glyph-name="Udieresis" unicode="&#xdc;" horiz-adv-x="673" 
d="M421 850c0 29 24 52 53 52s52 -23 52 -52s-23 -53 -52 -53s-53 24 -53 53zM166 850c0 29 24 52 53 52s53 -23 53 -52s-24 -53 -53 -53s-53 24 -53 53zM75 320v412h92v-412c0 -233 68 -236 182 -236c97 0 176 11 176 236v412h93v-412c0 -323 -148 -325 -269 -325
c-136 0 -274 -8 -274 325z" />
    <glyph glyph-name="Yacute" unicode="&#xdd;" horiz-adv-x="637" 
d="M290 797l103 135h103l-130 -135h-76zM42 732h100l177 -375l195 375h100l-250 -481v-251h-92v251z" />
    <glyph glyph-name="Thorn" unicode="&#xde;" horiz-adv-x="554" 
d="M148 236h172c52 0 95 19 95 140c-2 119 -60 124 -95 124h-172v-264zM56 0v729h92v-141h184c79 -1 176 -34 176 -213c0 -204 -102 -226 -176 -226c-52 0 -69 -5 -184 19v-168h-92z" />
    <glyph glyph-name="germandbls" unicode="&#xdf;" horiz-adv-x="570" 
d="M56 0v566c0 116 81 212 228 212c292 0 266 -241 159 -326c-52 -46 -86 -65 -86 -104c0 -63 195 -26 195 -170v-43c1 -112 -93 -143 -161 -143s-129 14 -166 19v71c39 -1 99 -6 160 -6c37 0 73 24 75 64v41c0 74 -194 27 -194 167c0 64 22 91 112 159c32 24 48 55 48 95
c0 73 -76 88 -141 88c-76 0 -137 -36 -137 -138v-552h-92z" />
    <glyph glyph-name="agrave" unicode="&#xe0;" horiz-adv-x="519" 
d="M99 736h103l102 -135h-75zM129 138c0 -47 25 -60 57 -60c74 0 194 49 194 49v130l-196 -14c-41 -4 -55 -32 -55 -62v-43zM37 129v58c0 79 48 136 139 136c0 0 204 -1 204 0c0 0 1 57 0 58c0 60 -30 77 -79 77c-65 0 -164 -5 -247 -11v63c71 21 156 30 255 31
c91 1 163 -43 163 -159v-382h-70l-22 62c-3 -3 -117 -68 -205 -68c-81 1 -138 54 -138 135z" />
    <glyph glyph-name="aacute" unicode="&#xe1;" horiz-adv-x="519" 
d="M225 601l102 135h103l-130 -135h-75zM129 138c0 -47 25 -60 57 -60c74 0 194 49 194 49v130l-196 -14c-41 -4 -55 -32 -55 -62v-43zM37 129v58c0 79 48 136 139 136c0 0 204 -1 204 0c0 0 1 57 0 58c0 60 -30 77 -79 77c-65 0 -164 -5 -247 -11v63c71 21 156 30 255 31
c91 1 163 -43 163 -159v-382h-70l-22 62c-3 -3 -117 -68 -205 -68c-81 1 -138 54 -138 135z" />
    <glyph glyph-name="acircumflex" unicode="&#xe2;" horiz-adv-x="519" 
d="M116 601l114 131h80l102 -131h-77l-68 68l-73 -68h-78zM129 138c0 -47 25 -60 57 -60c74 0 194 49 194 49v130l-196 -14c-41 -4 -55 -32 -55 -62v-43zM37 129v58c0 79 48 136 139 136c0 0 204 -1 204 0c0 0 1 57 0 58c0 60 -30 77 -79 77c-65 0 -164 -5 -247 -11v63
c71 21 156 30 255 31c91 1 163 -43 163 -159v-382h-70l-22 62c-3 -3 -117 -68 -205 -68c-81 1 -138 54 -138 135z" />
    <glyph glyph-name="atilde" unicode="&#xe3;" horiz-adv-x="519" 
d="M90 646c38 33 75 65 118 65c50 -2 78 -34 107 -35c27 -1 61 19 92 37l22 -47c-31 -26 -71 -66 -114 -64c-54 2 -72 35 -109 34c-43 -1 -58 -20 -94 -35zM129 138c0 -47 25 -60 57 -60c74 0 194 49 194 49v130l-196 -14c-41 -4 -55 -32 -55 -62v-43zM37 129v58
c0 79 48 136 139 136c0 0 204 -1 204 0c0 0 1 57 0 58c0 60 -30 77 -79 77c-65 0 -164 -5 -247 -11v63c71 21 156 30 255 31c91 1 163 -43 163 -159v-382h-70l-22 62c-3 -3 -117 -68 -205 -68c-81 1 -138 54 -138 135z" />
    <glyph glyph-name="adieresis" unicode="&#xe4;" horiz-adv-x="519" 
d="M337 654c0 29 24 53 53 53c30 0 53 -24 53 -53s-23 -53 -53 -53c-29 0 -53 24 -53 53zM82 654c0 29 24 53 53 53c30 0 53 -24 53 -53s-23 -53 -53 -53c-29 0 -53 24 -53 53zM129 138c0 -47 25 -60 57 -60c74 0 194 49 194 49v130l-196 -14c-41 -4 -55 -32 -55 -62v-43z
M37 129v58c0 79 48 136 139 136c0 0 204 -1 204 0c0 0 1 57 0 58c0 60 -30 77 -79 77c-65 0 -164 -5 -247 -11v63c71 21 156 30 255 31c91 1 163 -43 163 -159v-382h-70l-22 62c-3 -3 -117 -68 -205 -68c-81 1 -138 54 -138 135z" />
    <glyph glyph-name="aring" unicode="&#xe5;" horiz-adv-x="519" 
d="M212 678c0 -29 24 -51 52 -51s51 22 51 51c0 28 -23 51 -51 51s-52 -23 -52 -51zM162 678c0 56 46 102 102 102s101 -46 101 -102c0 -58 -45 -102 -101 -102s-102 44 -102 102zM129 138c0 -47 25 -60 57 -60c74 0 194 49 194 49v130l-196 -14c-41 -4 -55 -32 -55 -62v-43
zM37 129v58c0 79 48 136 139 136c0 0 204 -1 204 0c0 0 1 57 0 58c0 60 -30 77 -79 77c-65 0 -164 -5 -247 -11v63c71 21 156 30 255 31c91 1 163 -43 163 -159v-382h-70l-22 62c-3 -3 -117 -68 -205 -68c-81 1 -138 54 -138 135z" />
    <glyph glyph-name="ae" unicode="&#xe6;" horiz-adv-x="863" 
d="M477 308h199c40 0 58 15 58 46c0 95 -17 103 -114 103c-102 0 -143 0 -143 -149zM129 142c0 -47 25 -58 57 -58c74 0 194 48 194 48v116l-196 -14c-41 -4 -55 -33 -55 -62v-30zM37 134v38c0 80 48 137 139 137c0 0 204 -1 204 0c0 0 1 76 0 77c0 60 -30 78 -79 78
c-67 0 -162 -6 -247 -12v63c67 23 156 30 255 31c53 1 102 -16 130 -54c38 41 96 48 178 48c133 0 209 -14 209 -188c0 -81 -44 -123 -140 -123h-209c0 -117 27 -145 104 -145c89 0 160 0 235 11v-67c-79 -24 -173 -28 -256 -28c-84 0 -117 27 -152 70
c-4 -6 -146 -71 -233 -71c-81 1 -138 54 -138 135z" />
    <glyph glyph-name="ccedilla" unicode="&#xe7;" horiz-adv-x="498" 
d="M170 -131l51 15c28 12 31 41 31 79h75c0 -102 -22 -138 -104 -138h-53v44zM47 266c0 228 73 272 175 272c52 0 157 -12 232 -30v-62s-127 7 -216 7c-61 0 -99 -11 -99 -191c0 -148 27 -184 99 -184c92 0 223 10 223 10v-64c-80 -28 -156 -30 -239 -31
c-99 0 -175 44 -175 273z" />
    <glyph glyph-name="egrave" unicode="&#xe8;" horiz-adv-x="525" 
d="M112 730h103l102 -134h-75zM139 301h199c40 0 58 16 58 46c0 95 -17 105 -114 105c-103 0 -144 -2 -143 -151zM47 268c0 235 67 267 232 267c133 0 209 -13 209 -189c0 -82 -44 -126 -140 -126h-209c0 -117 26 -141 104 -141c89 0 160 -1 235 11v-67
c-80 -24 -173 -28 -256 -28c-135 0 -175 69 -175 273z" />
    <glyph glyph-name="eacute" unicode="&#xe9;" horiz-adv-x="525" 
d="M234 596l102 134h103l-130 -134h-75zM139 301h199c40 0 58 16 58 46c0 95 -17 105 -114 105c-103 0 -144 -2 -143 -151zM47 268c0 235 67 267 232 267c133 0 209 -13 209 -189c0 -82 -44 -126 -140 -126h-209c0 -117 26 -141 104 -141c89 0 160 -1 235 11v-67
c-80 -24 -173 -28 -256 -28c-135 0 -175 69 -175 273z" />
    <glyph glyph-name="ecircumflex" unicode="&#xea;" horiz-adv-x="525" 
d="M124 596l114 132h80l102 -132h-77l-68 68l-73 -68h-78zM139 301h199c40 0 58 16 58 46c0 95 -17 105 -114 105c-103 0 -144 -2 -143 -151zM47 268c0 235 67 267 232 267c133 0 209 -13 209 -189c0 -82 -44 -126 -140 -126h-209c0 -117 26 -141 104 -141
c89 0 160 -1 235 11v-67c-80 -24 -173 -28 -256 -28c-135 0 -175 69 -175 273z" />
    <glyph glyph-name="edieresis" unicode="&#xeb;" horiz-adv-x="525" 
d="M344 649c0 29 24 53 53 53c30 0 53 -24 53 -53s-23 -53 -53 -53c-29 0 -53 24 -53 53zM89 649c0 29 24 53 53 53c30 0 53 -24 53 -53s-23 -53 -53 -53c-29 0 -53 24 -53 53zM139 301h199c40 0 58 16 58 46c0 95 -17 105 -114 105c-103 0 -144 -2 -143 -151zM47 268
c0 235 67 267 232 267c133 0 209 -13 209 -189c0 -82 -44 -126 -140 -126h-209c0 -117 26 -141 104 -141c89 0 160 -1 235 11v-67c-80 -24 -173 -28 -256 -28c-135 0 -175 69 -175 273z" />
    <glyph glyph-name="igrave" unicode="&#xec;" horiz-adv-x="204" 
d="M-65 730h102l103 -134h-75zM56 0v531h92v-531h-92z" />
    <glyph glyph-name="iacute" unicode="&#xed;" horiz-adv-x="204" 
d="M65 596l102 134h103l-130 -134h-75zM56 0v531h92v-531h-92z" />
    <glyph glyph-name="icircumflex" unicode="&#xee;" horiz-adv-x="204" 
d="M-46 596l114 132h80l102 -132h-77l-67 68l-74 -68h-78zM56 0v531h92v-531h-92z" />
    <glyph glyph-name="idieresis" unicode="&#xef;" horiz-adv-x="204" 
d="M177 649c0 29 24 53 53 53s52 -24 52 -53s-23 -53 -52 -53s-53 24 -53 53zM-78 649c0 29 24 53 53 53s52 -24 52 -53s-23 -53 -52 -53s-53 24 -53 53zM56 0v531h92v-531h-92z" />
    <glyph glyph-name="eth" unicode="&#xf0;" horiz-adv-x="538" 
d="M129 264c0 -163 39 -173 95 -173h89c78 0 96 61 96 173c0 141 -18 178 -96 178h-89c-61 0 -95 -27 -95 -178zM37 264c0 170 46 267 181 267h88c6 0 56 0 71 -13c-13 43 -35 88 -69 122l-137 -57l-25 59l99 42c-41 20 -90 22 -129 20v79c98 0 168 -19 222 -59l111 46
l26 -60l-84 -34c97 -118 110 -302 110 -412c0 -199 -75 -264 -182 -264h-101c-137 0 -181 85 -181 264z" />
    <glyph glyph-name="ntilde" unicode="&#xf1;" 
d="M108 645c38 33 75 65 119 65c49 -2 77 -34 106 -35c27 -1 61 19 92 37l22 -47c-31 -26 -71 -66 -114 -64c-54 2 -72 35 -109 34c-43 -1 -58 -19 -94 -35zM56 0v531h69l23 -61c57 35 108 70 189 70c110 0 162 -83 162 -174v-366h-92v366c0 62 -35 90 -81 90
c-74 0 -111 -19 -178 -54v-402h-92z" />
    <glyph glyph-name="ograve" unicode="&#xf2;" horiz-adv-x="565" 
d="M124 730h102l103 -134h-75zM139 258c0 -166 49 -178 144 -178c100 0 144 13 144 178c0 179 -36 194 -144 194c-104 0 -144 -15 -144 -194zM47 258c0 217 60 278 236 278c180 0 236 -67 236 -278c0 -197 -55 -263 -236 -263c-180 0 -236 73 -236 263z" />
    <glyph glyph-name="oacute" unicode="&#xf3;" horiz-adv-x="565" 
d="M245 596l103 134h102l-130 -134h-75zM139 258c0 -166 49 -178 144 -178c100 0 144 13 144 178c0 179 -36 194 -144 194c-104 0 -144 -15 -144 -194zM47 258c0 217 60 278 236 278c180 0 236 -67 236 -278c0 -197 -55 -263 -236 -263c-180 0 -236 73 -236 263z" />
    <glyph glyph-name="ocircumflex" unicode="&#xf4;" horiz-adv-x="565" 
d="M139 596l114 132h80l102 -132h-77l-67 68l-74 -68h-78zM139 258c0 -166 49 -178 144 -178c100 0 144 13 144 178c0 179 -36 194 -144 194c-104 0 -144 -15 -144 -194zM47 258c0 217 60 278 236 278c180 0 236 -67 236 -278c0 -197 -55 -263 -236 -263
c-180 0 -236 73 -236 263z" />
    <glyph glyph-name="otilde" unicode="&#xf5;" horiz-adv-x="565" 
d="M121 641c38 33 75 65 119 65c49 -2 77 -34 106 -35c27 -1 61 19 92 37l22 -47c-31 -26 -71 -66 -114 -64c-54 2 -72 35 -109 34c-43 -1 -58 -19 -94 -35zM139 258c0 -166 49 -178 144 -178c100 0 144 13 144 178c0 179 -36 194 -144 194c-104 0 -144 -15 -144 -194z
M47 258c0 217 60 278 236 278c180 0 236 -67 236 -278c0 -197 -55 -263 -236 -263c-180 0 -236 73 -236 263z" />
    <glyph glyph-name="odieresis" unicode="&#xf6;" horiz-adv-x="565" 
d="M359 649c0 29 24 53 53 53s52 -24 52 -53s-23 -53 -52 -53s-53 24 -53 53zM104 649c0 29 24 53 53 53s52 -24 52 -53s-23 -53 -52 -53s-53 24 -53 53zM139 258c0 -166 49 -178 144 -178c100 0 144 13 144 178c0 179 -36 194 -144 194c-104 0 -144 -15 -144 -194zM47 258
c0 217 60 278 236 278c180 0 236 -67 236 -278c0 -197 -55 -263 -236 -263c-180 0 -236 73 -236 263z" />
    <glyph glyph-name="divide" unicode="&#xf7;" horiz-adv-x="511" 
d="M205 474v57c0 15 8 25 24 25h56c16 0 24 -11 24 -25v-57c0 -16 -10 -23 -24 -23h-56c-14 0 -24 9 -24 23zM205 168v58c0 14 8 24 24 24h56c16 0 24 -10 24 -24v-58c0 -15 -10 -23 -24 -23h-56c-14 0 -24 9 -24 23zM47 310v86h417v-86h-417z" />
    <glyph glyph-name="oslash" unicode="&#xf8;" horiz-adv-x="571" 
d="M188 99c23 -17 57 -19 98 -19c100 0 144 13 144 178c0 68 -6 110 -20 137zM142 258c0 -52 6 -88 17 -112l216 292c-21 11 -50 14 -89 14c-104 0 -144 -15 -144 -194zM50 258c0 217 60 278 236 278c61 0 108 -7 144 -26l16 21h69l-42 -56c35 -43 49 -112 49 -217
c0 -197 -55 -263 -236 -263c-67 0 -117 10 -153 32l-21 -27h-64l46 63c-32 42 -44 105 -44 195z" />
    <glyph glyph-name="ugrave" unicode="&#xf9;" 
d="M109 730h103l102 -134h-75zM47 166v365h92v-366c0 -63 35 -89 81 -89c74 0 110 18 178 54v401h92v-531h-69l-23 60c-59 -34 -108 -69 -189 -69c-111 0 -162 83 -162 175z" />
    <glyph glyph-name="uacute" unicode="&#xfa;" 
d="M231 596l102 134h103l-130 -134h-75zM47 166v365h92v-366c0 -63 35 -89 81 -89c74 0 110 18 178 54v401h92v-531h-69l-23 60c-59 -34 -108 -69 -189 -69c-111 0 -162 83 -162 175z" />
    <glyph glyph-name="ucircumflex" unicode="&#xfb;" 
d="M120 596l114 132h80l102 -132h-77l-67 68l-74 -68h-78zM47 166v365h92v-366c0 -63 35 -89 81 -89c74 0 110 18 178 54v401h92v-531h-69l-23 60c-59 -34 -108 -69 -189 -69c-111 0 -162 83 -162 175z" />
    <glyph glyph-name="udieresis" unicode="&#xfc;" 
d="M343 649c0 29 24 53 53 53s52 -24 52 -53s-23 -53 -52 -53s-53 24 -53 53zM88 649c0 29 24 53 53 53s52 -24 52 -53s-23 -53 -52 -53s-53 24 -53 53zM47 166v365h92v-366c0 -63 35 -89 81 -89c74 0 110 18 178 54v401h92v-531h-69l-23 60c-59 -34 -108 -69 -189 -69
c-111 0 -162 83 -162 175z" />
    <glyph glyph-name="yacute" unicode="&#xfd;" horiz-adv-x="560" 
d="M242 596l103 134h102l-130 -134h-75zM20 531h99l118 -403c17 -54 61 -39 63 -39l140 442h100l-221 -699l-74 -102h-61l89 270c-35 0 -99 12 -130 117z" />
    <glyph glyph-name="thorn" unicode="&#xfe;" horiz-adv-x="554" 
d="M157 96c72 -21 127 -20 176 -23c56 0 92 36 92 193c0 123 -35 186 -92 186c-60 -3 -121 -23 -176 -46v-310zM65 -270v1052h92v-310c28 21 119 66 186 66c133 0 174 -128 174 -272c0 -139 -22 -277 -174 -277c-45 0 -126 13 -186 39v-298h-92z" />
    <glyph glyph-name="ydieresis" unicode="&#xff;" horiz-adv-x="560" 
d="M354 649c0 29 24 53 54 53c29 0 52 -24 52 -53s-23 -53 -52 -53c-30 0 -54 24 -54 53zM99 649c0 29 24 53 54 53c29 0 52 -24 52 -53s-23 -53 -52 -53c-30 0 -54 24 -54 53zM20 531h99l118 -403c17 -54 61 -39 63 -39l140 442h100l-221 -699l-74 -102h-61l89 270
c-35 0 -99 12 -130 117z" />
    <glyph glyph-name="bullet" unicode="&#x2022;" horiz-adv-x="311" 
d="M79 336v90c0 21 11 35 33 35h85c25 0 35 -13 35 -35v-90c0 -24 -15 -32 -35 -32h-85c-20 0 -33 12 -33 32z" />
    <glyph glyph-name="quoteleft" unicode="&#x2018;" horiz-adv-x="267" 
d="M75 546v108c0 108 111 86 111 86v-41c-32 1 -33 -21 -33 -33v-26h12c15 0 27 -8 27 -27v-67c0 -20 -10 -30 -27 -30h-65c-19 0 -25 14 -25 30z" />
    <glyph glyph-name="quoteright" unicode="&#x2019;" horiz-adv-x="267" 
d="M75 646v67c0 19 10 29 27 29h65c19 0 25 -13 25 -29v-108c0 -109 -111 -87 -111 -87v40c32 0 33 23 33 35v25h-12c-15 0 -27 9 -27 28z" />
    <glyph glyph-name="quotesinglbase" unicode="&#x201a;" horiz-adv-x="267" 
d="M75 27v67c0 20 10 30 27 30h65c19 0 25 -14 25 -30v-108c0 -109 -111 -87 -111 -87v41c32 -1 33 22 33 34v25h-12c-15 0 -27 9 -27 28z" />
    <glyph glyph-name="quotedblleft" unicode="&#x201c;" horiz-adv-x="420" 
d="M68 546v108c0 108 112 86 112 86v-41c-33 1 -34 -22 -34 -33v-26h12c15 0 28 -8 28 -27v-67c0 -20 -10 -30 -28 -30h-64c-20 0 -26 14 -26 30zM235 546v108c0 108 112 86 112 86v-41c-33 1 -34 -22 -34 -33v-26h12c15 0 27 -8 27 -27v-67c0 -20 -9 -30 -27 -30h-64
c-20 0 -26 14 -26 30z" />
    <glyph glyph-name="quotedblright" unicode="&#x201d;" horiz-adv-x="420" 
d="M235 645v67c0 20 9 30 27 30h64c20 0 26 -14 26 -30v-108c0 -108 -112 -86 -112 -86v40c33 -1 34 23 34 34v26h-12c-15 0 -27 8 -27 27zM68 645v67c0 20 9 30 27 30h64c20 0 27 -14 27 -30v-108c0 -108 -113 -86 -113 -86v40c33 -1 34 23 34 34v26h-12
c-15 0 -27 8 -27 27z" />
    <glyph glyph-name="quotedblbase" unicode="&#x201e;" horiz-adv-x="420" 
d="M235 27v67c0 20 9 30 27 30h64c20 0 26 -14 26 -30v-108c0 -109 -112 -87 -112 -87v41c33 -1 34 22 34 34v25h-12c-15 0 -27 9 -27 28zM68 27v67c0 20 9 30 27 30h64c20 0 27 -14 27 -30v-108c0 -109 -113 -87 -113 -87v41c33 -1 34 22 34 34v25h-12c-15 0 -27 9 -27 28z
" />
    <glyph glyph-name="exclamdown.alt" horiz-adv-x="270" 
d="M83 0l9 535h85l9 -535h-103zM79 642v66c0 15 9 23 23 23h64c14 0 24 -9 24 -23v-66c0 -15 -8 -25 -24 -25h-64c-15 0 -23 11 -23 25z" />
    <glyph glyph-name="zerosuperior" unicode="&#x2070;" horiz-adv-x="467" 
d="M132 519c0 -39 11 -49 55 -49h96c47 0 54 15 54 49v234c0 33 -9 49 -53 49h-98c-49 0 -54 -22 -54 -49v-234zM56 510v251c0 84 47 113 121 113h117c86 0 116 -45 116 -112v-252c0 -93 -49 -112 -116 -112h-117c-65 0 -121 15 -121 112z" />
    <glyph glyph-name="foursuperior" unicode="&#x2074;" horiz-adv-x="420" 
d="M15 542l198 332h82l-171 -286h152v116l27 48h48v-164h56v-61l-56 -12v-116h-75v113h-239z" />
    <glyph glyph-name="fivesuperior" unicode="&#x2075;" horiz-adv-x="418" 
d="M51 408v59h206c37 0 49 22 49 51v50c0 21 1 57 -48 57h-102c-24 0 -42 -13 -42 -45h-62l15 294h299v-72h-231l-7 -125c30 28 110 19 142 19c78 -1 111 -51 111 -122v-64c0 -84 -50 -116 -114 -116c-82 0 -128 -1 -216 14z" />
    <glyph glyph-name="sixsuperior" unicode="&#x2076;" horiz-adv-x="439" 
d="M126 611c0 -36 3 -140 65 -140h91c32 0 45 13 45 46v54c0 33 -15 40 -44 40h-157zM51 649c2 194 60 226 124 231c67 6 151 -4 210 -13v-59h-195c-60 0 -63 -87 -64 -140c50 7 117 14 166 14c91 0 109 -50 109 -105v-71c0 -75 -45 -108 -110 -108h-106
c-74 0 -135 39 -134 251z" />
    <glyph glyph-name="sevensuperior" unicode="&#x2077;" horiz-adv-x="375" 
d="M14 804v72h327l19 -35l-182 -443h-83l168 406h-249z" />
    <glyph glyph-name="eightsuperior" unicode="&#x2078;" horiz-adv-x="465" 
d="M136 725c0 -40 24 -50 47 -50h99c44 0 47 28 47 50v29c0 45 -16 54 -51 54h-88c-41 0 -54 -11 -54 -54v-29zM136 510c0 -29 10 -41 48 -41h101c28 0 44 11 44 41v46c0 34 -15 48 -43 48h-103c-30 0 -47 -12 -47 -48v-46zM62 503v54c0 46 26 65 55 73
c-44 16 -55 57 -55 92v40c0 93 52 117 120 117h110c73 0 112 -31 112 -116v-39c1 -14 -2 -66 -49 -75c37 -6 49 -60 49 -88v-57c0 -88 -52 -107 -109 -107h-119c-99 0 -114 54 -114 106z" />
    <glyph glyph-name="ninesuperior" unicode="&#x2079;" horiz-adv-x="439" 
d="M117 708c0 -34 14 -41 43 -41h158c0 36 -1 141 -63 141h-94c-31 0 -44 -13 -44 -47v-53zM42 701v72c0 74 46 108 110 108h106c75 0 136 -39 134 -253c-2 -194 -56 -225 -122 -231c-67 -6 -143 -1 -212 12v60h195c59 0 64 88 65 141c-51 -7 -117 -15 -166 -15
c-92 0 -110 51 -110 106z" />
    <glyph glyph-name="zeroinferior" unicode="&#x2080;" horiz-adv-x="467" 
d="M132 -78c0 -39 11 -50 55 -50h96c47 0 54 15 54 50v233c0 34 -9 49 -53 49h-98c-49 0 -54 -21 -54 -49v-233zM56 -87v250c0 85 47 114 121 114h117c86 0 116 -46 116 -113v-251c0 -94 -49 -113 -116 -113h-117c-65 0 -121 16 -121 113z" />
    <glyph glyph-name="oneinferior" unicode="&#x2081;" horiz-adv-x="270" 
d="M15 170v54l121 54h74v-477h-74v401z" />
    <glyph glyph-name="twoinferior" unicode="&#x2082;" horiz-adv-x="391" 
d="M30 212c-2 0 0 57 0 57c65 8 111 16 188 16c100 0 134 -59 134 -139c0 -119 -148 -238 -191 -273h191v-72h-319v68c65 51 242 169 242 272c0 50 -19 71 -76 71h-169z" />
    <glyph glyph-name="threeinferior" unicode="&#x2083;" horiz-adv-x="407" 
d="M28 208v53c58 21 124 19 201 19c85 0 123 -55 123 -118v-34c0 -47 -22 -79 -51 -89c30 -17 51 -46 51 -96v-26c0 -73 -31 -120 -128 -120c-75 0 -134 -2 -192 18l1 53c27 0 173 1 173 1c54 0 71 15 71 55v20c0 47 -31 62 -67 63l-138 5v57l138 7c45 2 68 21 68 58v20
c0 39 -24 54 -68 54h-182z" />
    <glyph glyph-name="fourinferior" unicode="&#x2084;" horiz-adv-x="421" 
d="M15 -55l198 332h83l-170 -287h151v116l27 49h48v-165h56v-61l-56 -11v-117h-75v114h-240z" />
    <glyph glyph-name="fiveinferior" unicode="&#x2085;" horiz-adv-x="418" 
d="M52 -16l15 293h299v-73h-231l-7 -124c30 27 110 19 143 18c78 -1 111 -50 111 -122v-64c0 -83 -51 -116 -115 -116c-82 0 -127 -1 -216 15v59h207c36 0 49 21 49 51v49c0 22 1 57 -48 57h-102c-25 0 -42 -12 -42 -43h-63z" />
    <glyph glyph-name="sixinferior" unicode="&#x2086;" horiz-adv-x="439" 
d="M126 14c0 -36 3 -141 65 -141h91c32 0 45 14 45 47v53c0 34 -15 41 -44 41h-157zM51 52c2 194 60 225 124 230c67 5 146 0 210 -12v-59h-195c-60 0 -63 -88 -64 -140c50 7 116 14 166 14c91 0 109 -51 109 -105v-72c0 -74 -45 -107 -110 -107h-106
c-74 0 -135 38 -134 251z" />
    <glyph glyph-name="seveninferior" unicode="&#x2087;" horiz-adv-x="375" 
d="M14 206v72h327l19 -35l-182 -442h-83l168 405h-249z" />
    <glyph glyph-name="eightinferior" unicode="&#x2088;" horiz-adv-x="465" 
d="M136 127c0 -40 24 -50 47 -50h99c44 0 47 29 47 50v30c0 44 -16 53 -51 53h-88c-41 0 -54 -11 -54 -53v-30zM136 -41v-46c0 -30 10 -42 48 -42h101c28 0 44 11 44 42v46c0 33 -15 47 -43 47h-103c-30 0 -47 -11 -47 -47zM62 -40c0 46 26 65 55 73c-44 15 -55 56 -55 91
v41c0 92 52 117 120 117h110c73 0 112 -31 112 -117v-38c1 -15 -2 -66 -49 -75c37 -7 49 -61 49 -89v-57c0 -88 -52 -107 -109 -107h-119c-99 0 -114 54 -114 106v55z" />
    <glyph glyph-name="nineinferior" unicode="&#x2089;" horiz-adv-x="439" 
d="M117 110c0 -34 14 -41 43 -41h158c0 37 -1 142 -63 142h-94c-31 0 -44 -14 -44 -47v-54zM42 104v71c0 75 46 108 110 108h106c75 0 136 -38 134 -252c-2 -194 -56 -225 -122 -231c-67 -6 -145 -1 -212 12v59h195c59 0 64 88 65 141c-51 -7 -117 -14 -166 -14
c-92 0 -110 51 -110 106z" />
    <glyph glyph-name="zero.oldstyle" horiz-adv-x="639" 
d="M157 173c0 -66 48 -84 92 -84h146c59 0 87 29 87 83v287c0 46 -19 83 -86 83h-148c-67 0 -91 -40 -91 -83v-286zM65 166v297c0 112 76 168 176 168h164c125 0 169 -73 169 -166v-299c0 -118 -67 -166 -170 -166h-164c-96 0 -175 46 -175 166z" />
    <glyph glyph-name="one.oldstyle" horiz-adv-x="359" 
d="M28 484v63l161 85h92v-632h-92v533z" />
    <glyph glyph-name="two.oldstyle" horiz-adv-x="594" 
d="M38 549v68c96 15 184 26 303 22c143 0 207 -72 207 -189c0 -166 -267 -330 -324 -361h320v-89h-500v83c121 68 411 229 411 365c0 69 -36 104 -127 101h-290z" />
    <glyph glyph-name="three.oldstyle" horiz-adv-x="609" 
d="M47 550v61c88 31 202 30 319 28c110 -2 174 -72 174 -168v-65c0 -72 -26 -120 -69 -137c45 -25 69 -69 69 -145v-55c0 -111 -59 -171 -181 -171c-114 0 -218 -3 -306 28l1 62h286c56 0 106 12 106 86v52c0 73 -45 95 -100 98l-231 6v74l231 10c69 2 102 32 102 91v60
c0 63 -50 85 -102 85h-299z" />
    <glyph glyph-name="four.oldstyle" horiz-adv-x="607" 
d="M19 124l304 508h106l-273 -460h256v197l35 75h57v-272h85v-72l-85 -20v-178h-92v178h-359z" />
    <glyph glyph-name="five.oldstyle" horiz-adv-x="617" 
d="M71 -10h298c68 0 85 47 85 87v98c0 33 -2 88 -83 88h-138c-38 0 -76 -20 -76 -71h-84l22 440h428v-89h-342l-11 -221c16 17 44 25 73 28c50 7 111 1 139 0c118 -1 164 -72 164 -170v-111c0 -137 -102 -173 -169 -173c-124 0 -172 1 -306 24v70z" />
    <glyph glyph-name="six.oldstyle" horiz-adv-x="619" 
d="M153 345c0 -96 5 -257 109 -257h129c48 0 81 10 81 76v109c0 58 -36 72 -80 72h-239zM61 384c0 265 88 351 172 353c101 3 212 -5 306 -19v-69h-278c-91 0 -107 -155 -108 -237c78 11 171 20 246 20c138 0 164 -72 164 -154v-126c0 -114 -68 -153 -165 -153h-148
c-110 1 -189 70 -189 385z" />
    <glyph glyph-name="seven.oldstyle" horiz-adv-x="548" 
d="M28 543v89h462l30 -52l-259 -680h-106l249 643h-376z" />
    <glyph glyph-name="eight.oldstyle" horiz-adv-x="631" 
d="M162 494c0 -63 50 -78 84 -78h143c69 0 81 43 81 78v62c0 70 -29 94 -82 94h-132c-59 0 -94 -10 -94 -94v-62zM162 160c0 -47 26 -72 94 -72h131c43 0 83 23 83 72v95c0 52 -37 76 -80 76h-144c-45 0 -84 -19 -84 -76v-95zM70 158v91c0 70 41 96 83 109
c-65 24 -83 87 -83 141v65c0 135 76 173 179 173h148c108 0 165 -49 165 -173v-62c0 -23 -4 -102 -75 -116c56 -10 75 -90 75 -133v-94c0 -135 -98 -159 -166 -159h-147c-175 0 -179 113 -179 158z" />
    <glyph glyph-name="nine.oldstyle" horiz-adv-x="619" 
d="M147 358c0 -58 36 -72 81 -72h239c0 96 -6 257 -109 257h-130c-48 0 -81 -10 -81 -76v-109zM56 354v125c0 114 68 153 166 153h147c111 -1 190 -70 190 -385c0 -265 -89 -351 -172 -353c-101 -2 -211 1 -307 19v69h279c91 0 106 155 108 238c-78 -12 -171 -21 -247 -21
c-137 0 -164 72 -164 155z" />
    <glyph glyph-name="Euro" unicode="&#x20ac;" horiz-adv-x="612" 
d="M19 254v52l85 8v92l-85 8v48l85 10c0 72 -7 268 237 268c52 0 177 -16 249 -32v-70s-158 14 -240 14c-145 0 -154 -71 -154 -180l234 -8v-52l-234 -6v-92l234 -8v-52s-237 -6 -234 -8c0 -127 65 -166 154 -166c95 0 244 18 244 18v-68c-79 -25 -164 -36 -253 -36
c-77 0 -237 26 -237 252z" />
    <glyph glyph-name="endash" unicode="&#x2013;" horiz-adv-x="513" 
d="M20 244v87h473v-87h-473z" />
    <glyph glyph-name="emdash" unicode="&#x2014;" horiz-adv-x="736" 
d="M20 246v87h696v-87h-696z" />
    <glyph glyph-name="breve" unicode="&#x2d8;" horiz-adv-x="322" 
d="M47 644h50c0 -38 31 -64 64 -64c38 0 66 24 66 64h50c0 -75 -59 -114 -116 -114s-114 43 -114 114z" />
    <glyph glyph-name="ogonek" unicode="&#x2db;" horiz-adv-x="219" 
d="M125 0h44c-82 -66 -68 -117 4 -118v-64c-112 -19 -195 116 -48 182z" />
    <glyph glyph-name="caron" unicode="&#x2c7;" horiz-adv-x="389" 
d="M47 662h78l75 -68l66 68h77l-103 -131h-80z" />
    <glyph glyph-name="hungarumlaut" unicode="&#x2dd;" horiz-adv-x="385" 
d="M159 531l103 135h102l-130 -135h-75zM19 531l102 135h103l-130 -135h-75z" />
    <glyph glyph-name="dotaccent" unicode="&#x2d9;" horiz-adv-x="196" 
d="M47 553v60c0 15 8 25 24 25h56c15 0 23 -11 23 -25v-60c0 -15 -9 -23 -23 -23h-56c-14 0 -24 9 -24 23z" />
    <glyph glyph-name="Aogonek" unicode="&#x104;" horiz-adv-x="676" 
d="M241 280h220l-108 320zM42 0l263 732h97l252 -732h-28c-82 -66 -68 -117 5 -118v-64c-113 -19 -196 116 -49 182h-33l-60 193h-277l-63 -193h-107z" />
    <glyph glyph-name="Lcaron" unicode="&#x13d;" horiz-adv-x="552" 
d="M240 705v67h80v-67l-10 -134h-59zM75 130v602h92v-591c0 -53 33 -52 62 -52h291v-89h-305c-70 0 -140 18 -140 130z" />
    <glyph glyph-name="Sacute" unicode="&#x15a;" horiz-adv-x="585" 
d="M269 798l103 135h102l-130 -135h-75zM61 492v65c0 145 86 181 198 181c67 1 215 -17 259 -25v-74c-64 4 -239 10 -249 10c-67 3 -116 -4 -116 -95v-58c0 -82 36 -90 95 -90h135c136 0 161 -97 161 -178v-63c0 -149 -103 -173 -202 -173c-70 0 -205 14 -259 26v74
c40 -4 158 -11 251 -11c42 0 118 3 118 83v60c0 53 -16 90 -78 90h-132c-165 0 -181 99 -181 178z" />
    <glyph glyph-name="Scaron" unicode="&#x160;" horiz-adv-x="585" 
d="M158 930h78l75 -68l66 68h78l-104 -132h-80zM61 492v65c0 145 86 181 198 181c67 1 215 -17 259 -25v-74c-64 4 -239 10 -249 10c-67 3 -116 -4 -116 -95v-58c0 -82 36 -90 95 -90h135c136 0 161 -97 161 -178v-63c0 -149 -103 -173 -202 -173c-70 0 -205 14 -259 26v74
c40 -4 158 -11 251 -11c42 0 118 3 118 83v60c0 53 -16 90 -78 90h-132c-165 0 -181 99 -181 178z" />
    <glyph glyph-name="Scedilla" unicode="&#x15e;" horiz-adv-x="585" 
d="M196 -139l51 15c28 12 31 41 31 79h74c0 -102 -22 -137 -104 -137h-52v43zM61 492v65c0 145 86 181 198 181c67 1 215 -17 259 -25v-74c-64 4 -239 10 -249 10c-67 3 -116 -4 -116 -95v-58c0 -82 36 -90 95 -90h135c136 0 161 -97 161 -178v-63
c0 -149 -103 -173 -202 -173c-70 0 -205 14 -259 26v74c40 -4 158 -11 251 -11c42 0 118 3 118 83v60c0 53 -16 90 -78 90h-132c-165 0 -181 99 -181 178z" />
    <glyph glyph-name="Tcaron" unicode="&#x164;" horiz-adv-x="582" 
d="M143 928h78l75 -68l66 68h78l-104 -131h-80zM41 643v89h517v-89h-215v-643h-92v643h-210z" />
    <glyph glyph-name="Zacute" unicode="&#x179;" horiz-adv-x="561" 
d="M243 797l103 135h102l-130 -135h-75zM33 0v89l379 554h-379v89h496v-89l-375 -554h375v-89h-496z" />
    <glyph glyph-name="Zcaron" unicode="&#x17d;" horiz-adv-x="561" 
d="M132 928h78l76 -68l66 68h77l-103 -131h-80zM33 0v89l379 554h-379v89h496v-89l-375 -554h375v-89h-496z" />
    <glyph glyph-name="Zdotaccent" unicode="&#x17b;" horiz-adv-x="561" 
d="M229 820v60c0 15 8 25 24 25h56c15 0 23 -11 23 -25v-60c0 -15 -9 -23 -23 -23h-56c-14 0 -24 9 -24 23zM33 0v89l379 554h-379v89h496v-89l-375 -554h375v-89h-496z" />
    <glyph glyph-name="aogonek" unicode="&#x105;" horiz-adv-x="519" 
d="M129 138c0 -47 25 -60 57 -60c74 0 194 49 194 49v130l-196 -14c-41 -4 -55 -32 -55 -62v-43zM37 129v58c0 79 48 136 139 136c0 0 204 -1 204 0c0 0 1 57 0 58c0 60 -30 77 -79 77c-65 0 -164 -5 -247 -11v63c71 21 156 30 255 31c91 1 163 -43 163 -159v-382h-12
c-82 -66 -68 -117 5 -118v-64c-113 -19 -196 116 -48 182h-15l-22 62c-3 -3 -117 -68 -205 -68c-81 1 -138 54 -138 135z" />
    <glyph glyph-name="lcaron" unicode="&#x13e;" horiz-adv-x="315" 
d="M221 714v67h80v-67l-10 -134h-59zM56 189v594h92v-588c0 -84 14 -100 54 -112c0 0 76 -21 83 -21v-62h-95c-95 0 -134 48 -134 189z" />
    <glyph glyph-name="sacute" unicode="&#x15b;" horiz-adv-x="506" 
d="M214 600l102 135h103l-130 -135h-75zM37 355v46c0 82 35 135 138 135c66 0 218 -9 267 -19v-66h-255c-56 0 -58 -21 -58 -52v-40c0 -50 25 -51 58 -51h149c91 0 133 -56 133 -132v-50c0 -109 -66 -131 -130 -131c-63 0 -242 12 -280 22v64h268c3 0 50 -5 50 48v42
c0 32 -10 50 -50 50h-149c-94 0 -141 31 -141 134z" />
    <glyph glyph-name="scaron" unicode="&#x161;" horiz-adv-x="506" 
d="M109 732h78l75 -68l66 68h77l-103 -132h-80zM37 355v46c0 82 35 135 138 135c66 0 218 -9 267 -19v-66h-255c-56 0 -58 -21 -58 -52v-40c0 -50 25 -51 58 -51h149c91 0 133 -56 133 -132v-50c0 -109 -66 -131 -130 -131c-63 0 -242 12 -280 22v64h268c3 0 50 -5 50 48v42
c0 32 -10 50 -50 50h-149c-94 0 -141 31 -141 134z" />
    <glyph glyph-name="scedilla" unicode="&#x15f;" horiz-adv-x="506" 
d="M131 -133l50 15c28 12 32 41 32 79h74c0 -102 -22 -137 -104 -137h-52v43zM37 355v46c0 82 35 135 138 135c66 0 218 -9 267 -19v-66h-255c-56 0 -58 -21 -58 -52v-40c0 -50 25 -51 58 -51h149c91 0 133 -56 133 -132v-50c0 -109 -66 -131 -130 -131
c-63 0 -242 12 -280 22v64h268c3 0 50 -5 50 48v42c0 32 -10 50 -50 50h-149c-94 0 -141 31 -141 134z" />
    <glyph glyph-name="tcaron" unicode="&#x165;" horiz-adv-x="380" 
d="M266 800h81v-67l-11 -134h-58l-11 134zM19 449v62l95 21l20 148h72v-148h145v-83h-145v-253c0 -85 22 -104 54 -112c0 0 76 -21 83 -21v-62h-97c-78 0 -132 48 -132 189v259h-95z" />
    <glyph glyph-name="zacute" unicode="&#x17a;" horiz-adv-x="460" 
d="M193 596l103 134h102l-130 -134h-75zM28 445v86h405v-86l-269 -358h269c1 -1 0 -86 0 -86h-390v86l275 358h-290z" />
    <glyph glyph-name="zcaron" unicode="&#x17e;" horiz-adv-x="460" 
d="M82 728h78l76 -68l66 68h77l-104 -132h-80zM28 445v86h405v-86l-269 -358h269c1 -1 0 -86 0 -86h-390v86l275 358h-290z" />
    <glyph glyph-name="zdotaccent" unicode="&#x17c;" horiz-adv-x="460" 
d="M179 619v60c0 15 8 25 24 25h56c15 0 23 -11 23 -25v-60c0 -15 -9 -23 -23 -23h-56c-14 0 -24 9 -24 23zM28 445v86h405v-86l-269 -358h269c1 -1 0 -86 0 -86h-390v86l275 358h-290z" />
    <glyph glyph-name="Racute" unicode="&#x154;" horiz-adv-x="596" 
d="M257 793l102 134h103l-130 -134h-75zM150 385h218c47 0 88 4 88 125c0 118 -44 134 -88 134h-218v-259zM58 0v732h314c100 0 177 -54 177 -222c0 -188 -93 -205 -124 -212l150 -298h-101l-145 293l-179 14v-307h-92z" />
    <glyph glyph-name="Abreve" unicode="&#x102;" horiz-adv-x="676" 
d="M239 911h50c0 -38 31 -64 64 -64c38 0 66 24 66 64h50c0 -75 -59 -114 -116 -114s-114 43 -114 114zM241 280h220l-108 320zM42 0l263 732h97l252 -732h-105l-60 193h-277l-63 -193h-107z" />
    <glyph glyph-name="Lacute" unicode="&#x139;" horiz-adv-x="552" 
d="M83 797l103 135h102l-130 -135h-75zM75 130v602h92v-591c0 -53 33 -52 62 -52h291v-89h-305c-69 0 -140 18 -140 130z" />
    <glyph glyph-name="Cacute" unicode="&#x106;" horiz-adv-x="576" 
d="M292 800l103 134h102l-130 -134h-75zM51 368c0 234 47 372 246 372c66 0 174 -11 247 -27v-73c-1 0 -145 11 -238 11c-119 0 -163 -48 -163 -285c0 -164 35 -283 163 -283c105 0 238 7 238 7v-72c-69 -15 -181 -24 -247 -24c-185 0 -246 154 -246 374z" />
    <glyph glyph-name="Ccaron" unicode="&#x10c;" horiz-adv-x="576" 
d="M187 932h78l75 -68l66 68h77l-103 -132h-80zM51 368c0 234 47 372 246 372c66 0 174 -11 247 -27v-73c-1 0 -145 11 -238 11c-119 0 -163 -48 -163 -285c0 -164 35 -283 163 -283c105 0 238 7 238 7v-72c-69 -15 -181 -24 -247 -24c-185 0 -246 154 -246 374z" />
    <glyph glyph-name="Eogonek" unicode="&#x118;" horiz-adv-x="567" 
d="M74 129v467c0 106 67 139 135 136c0 0 300 -14 318 -16v-74h-309c-52 0 -52 -29 -52 -56v-176l319 -10v-75l-319 -10v-176c1 -53 33 -52 62 -52h299v-73h-1h1c-83 -66 -69 -117 4 -118v-65c-111 -18 -193 113 -55 180c-88 -5 -257 -14 -257 -14c-66 -4 -145 13 -145 132z
" />
    <glyph glyph-name="Ecaron" unicode="&#x11a;" horiz-adv-x="567" 
d="M168 924h78l75 -68l66 68h77l-103 -131h-80zM74 129v467c0 106 67 139 135 136c0 0 300 -14 318 -16v-74h-309c-52 0 -52 -29 -52 -56v-176l319 -10v-75l-319 -10v-176c1 -53 33 -52 62 -52h299v-73c-16 -2 -308 -17 -308 -17c-66 -4 -145 13 -145 132z" />
    <glyph glyph-name="Dcaron" unicode="&#x10e;" horiz-adv-x="658" 
d="M170 924h78l75 -68l66 68h77l-103 -131h-80zM167 90h187c121 0 170 122 170 274c0 209 -64 280 -170 280h-187v-554zM75 0v732h282c221 0 259 -210 259 -369c0 -179 -70 -363 -259 -363h-282z" />
    <glyph glyph-name="Nacute" unicode="&#x143;" horiz-adv-x="679" 
d="M320 797l103 135h102l-130 -135h-75zM75 0v732h94l363 -561v561h92v-732h-92l-364 560v-560h-93z" />
    <glyph glyph-name="Ncaron" unicode="&#x147;" horiz-adv-x="679" 
d="M209 928h78l76 -68l66 68h77l-103 -131h-80zM75 0v732h94l363 -561v561h92v-732h-92l-364 560v-560h-93z" />
    <glyph glyph-name="Ohungarumlaut" unicode="&#x150;" horiz-adv-x="674" 
d="M380 797l103 135h103l-130 -135h-76zM240 797l102 135h103l-130 -135h-75zM153 361c0 -241 46 -276 195 -276c145 0 193 41 193 276c0 280 -64 287 -193 287c-127 0 -195 -6 -195 -287zM61 361c0 343 119 376 287 376c173 0 285 -33 285 -376c0 -323 -105 -365 -285 -365
s-287 32 -287 365z" />
    <glyph glyph-name="Rcaron" unicode="&#x158;" horiz-adv-x="596" 
d="M144 928h78l75 -68l66 68h77l-103 -131h-80zM150 385h218c47 0 88 4 88 125c0 118 -44 134 -88 134h-218v-259zM58 0v732h314c100 0 177 -54 177 -222c0 -188 -93 -205 -124 -212l150 -298h-101l-145 293l-179 14v-307h-92z" />
    <glyph glyph-name="Uring" unicode="&#x16e;" horiz-adv-x="673" 
d="M295 899c0 -28 23 -51 52 -51c28 0 51 23 51 51s-23 52 -51 52c-29 0 -52 -24 -52 -52zM245 899c0 57 46 103 102 103s101 -46 101 -103s-45 -102 -101 -102s-102 45 -102 102zM75 320v412h92v-412c0 -233 68 -236 182 -236c97 0 176 11 176 236v412h93v-412
c0 -323 -148 -325 -269 -325c-136 0 -274 -8 -274 325z" />
    <glyph glyph-name="Uhungarumlaut" unicode="&#x170;" horiz-adv-x="673" 
d="M379 797l103 135h102l-130 -135h-75zM238 797l103 135h102l-130 -135h-75zM75 320v412h92v-412c0 -233 68 -236 182 -236c97 0 176 11 176 236v412h93v-412c0 -323 -148 -325 -269 -325c-136 0 -274 -8 -274 325z" />
    <glyph glyph-name="Tcommaaccent" unicode="&#x162;" horiz-adv-x="582" 
d="M154 -141l50 15c28 12 32 41 32 79h74c0 -102 -22 -138 -104 -138h-52v44zM41 643v89h517v-89h-215v-643h-92v643h-210z" />
    <glyph glyph-name="racute" unicode="&#x155;" horiz-adv-x="423" 
d="M209 598l102 134h103l-130 -134h-75zM56 0v531h70l22 -67c54 35 108 73 186 73c27 0 57 -2 70 -8v-90c-13 3 -46 5 -75 5c-74 0 -115 -17 -181 -58v-386h-92z" />
    <glyph glyph-name="abreve" unicode="&#x103;" horiz-adv-x="519" 
d="M157 715h50c0 -38 31 -64 64 -64c38 0 66 24 66 64h50c0 -75 -58 -114 -116 -114c-57 0 -114 43 -114 114zM129 138c0 -47 25 -60 57 -60c74 0 194 49 194 49v130l-196 -14c-41 -4 -55 -32 -55 -62v-43zM37 129v58c0 79 48 136 139 136c0 0 204 -1 204 0c0 0 1 57 0 58
c0 60 -30 77 -79 77c-65 0 -164 -5 -247 -11v63c71 21 156 30 255 31c91 1 163 -43 163 -159v-382h-70l-22 62c-3 -3 -117 -68 -205 -68c-81 1 -138 54 -138 135z" />
    <glyph glyph-name="lacute" unicode="&#x13a;" horiz-adv-x="303" 
d="M91 843l103 135h102l-130 -135h-75zM56 189v594h92v-588c0 -84 22 -103 54 -112c0 0 76 -21 83 -21v-62h-95c-80 0 -134 48 -134 189z" />
    <glyph glyph-name="cacute" unicode="&#x107;" horiz-adv-x="498" 
d="M233 598l102 134h103l-130 -134h-75zM47 266c0 228 73 270 175 270c52 0 157 -10 232 -28v-62s-127 6 -216 6c-61 0 -99 -10 -99 -190c0 -148 27 -182 99 -182c92 0 223 10 223 10v-65c-80 -27 -156 -29 -239 -30c-99 0 -175 42 -175 271z" />
    <glyph glyph-name="ccaron" unicode="&#x10d;" horiz-adv-x="498" 
d="M121 729h77l76 -68l66 68h77l-103 -131h-80zM47 266c0 228 73 270 175 270c52 0 157 -10 232 -28v-62s-127 6 -216 6c-61 0 -99 -10 -99 -190c0 -148 27 -182 99 -182c92 0 223 10 223 10v-65c-80 -27 -156 -29 -239 -30c-99 0 -175 42 -175 271z" />
    <glyph glyph-name="eogonek" unicode="&#x119;" horiz-adv-x="525" 
d="M139 301h199c40 0 58 16 58 46c0 95 -17 105 -114 105c-103 0 -144 -2 -143 -151zM47 268c0 235 67 267 232 267c133 0 209 -13 209 -189c0 -82 -44 -126 -140 -126h-209c0 -117 26 -141 104 -141c89 0 160 -1 235 11v-67c-82 -66 -68 -117 4 -118v-65
c-104 -17 -182 97 -78 166c-61 -9 -124 -11 -182 -11c-135 0 -175 69 -175 273z" />
    <glyph glyph-name="ecaron" unicode="&#x11b;" horiz-adv-x="525" 
d="M128 723h77l76 -68l66 68h77l-103 -131h-80zM139 301h199c40 0 58 16 58 46c0 95 -17 105 -114 105c-103 0 -144 -2 -143 -151zM47 268c0 235 67 267 232 267c133 0 209 -13 209 -189c0 -82 -44 -126 -140 -126h-209c0 -117 26 -141 104 -141c89 0 160 -1 235 11v-67
c-80 -24 -173 -28 -256 -28c-135 0 -175 69 -175 273z" />
    <glyph glyph-name="dcaron" unicode="&#x10f;" horiz-adv-x="568" 
d="M547 780h81v-67l-11 -134h-59l-10 134zM139 264c0 -126 33 -184 92 -184c72 0 129 22 177 43v308c-60 17 -108 24 -177 24c-58 0 -92 -35 -92 -191zM47 263c0 145 24 276 174 276c45 0 127 -14 187 -39v285h91v-785h-70l-21 58c-28 -22 -120 -64 -187 -64
c-141 0 -174 135 -174 269z" />
    <glyph glyph-name="nacute" unicode="&#x144;" 
d="M237 600l103 134h102l-130 -134h-75zM56 0v531h69l23 -61c57 35 108 70 189 70c110 0 162 -83 162 -174v-366h-92v366c0 62 -35 90 -81 90c-74 0 -111 -19 -178 -54v-402h-92z" />
    <glyph glyph-name="ncaron" unicode="&#x148;" 
d="M139 732h78l75 -68l66 68h77l-103 -132h-80zM56 0v531h69l23 -61c57 35 108 70 189 70c110 0 162 -83 162 -174v-366h-92v366c0 62 -35 90 -81 90c-74 0 -111 -19 -178 -54v-402h-92z" />
    <glyph glyph-name="ohungarumlaut" unicode="&#x151;" horiz-adv-x="565" 
d="M316 596l102 134h103l-130 -134h-75zM175 596l103 134h102l-130 -134h-75zM139 258c0 -166 49 -178 144 -178c100 0 144 13 144 178c0 179 -36 194 -144 194c-104 0 -144 -15 -144 -194zM47 258c0 217 60 278 236 278c180 0 236 -67 236 -278c0 -197 -55 -263 -236 -263
c-180 0 -236 73 -236 263z" />
    <glyph glyph-name="rcaron" unicode="&#x159;" horiz-adv-x="423" 
d="M82 728h77l76 -68l66 68h77l-103 -131h-80zM56 0v531h70l22 -67c54 35 108 73 186 73c27 0 57 -2 70 -8v-90c-13 3 -46 5 -75 5c-74 0 -115 -17 -181 -58v-386h-92z" />
    <glyph glyph-name="uring" unicode="&#x16f;" 
d="M217 698c0 -28 23 -51 52 -51c28 0 51 23 51 51s-23 52 -51 52c-29 0 -52 -24 -52 -52zM167 698c0 57 46 103 102 103s101 -46 101 -103s-45 -102 -101 -102s-102 45 -102 102zM47 166v365h92v-366c0 -63 35 -89 81 -89c74 0 110 18 178 54v401h92v-531h-69l-23 60
c-59 -34 -108 -69 -189 -69c-111 0 -162 83 -162 175z" />
    <glyph glyph-name="uhungarumlaut" unicode="&#x171;" 
d="M301 596l103 134h102l-130 -134h-75zM160 596l103 134h102l-130 -134h-75zM47 166v365h92v-366c0 -63 35 -89 81 -89c74 0 110 18 178 54v401h92v-531h-69l-23 60c-59 -34 -108 -69 -189 -69c-111 0 -162 83 -162 175z" />
    <glyph glyph-name="tcommaaccent" unicode="&#x163;" horiz-adv-x="379" 
d="M82 -143l51 15c28 12 31 41 31 79h75c0 -102 -22 -137 -104 -137h-53v43zM19 449v62l95 21l20 148h72v-148h145v-83h-145v-253c0 -85 22 -104 54 -112c0 0 76 -21 83 -21v-62h-97c-78 0 -132 48 -132 189v259h-95z" />
    <glyph glyph-name="Lslash" unicode="&#x141;" horiz-adv-x="559" 
d="M2 316v64l81 35v317h92v-277l133 57l-1 -64l-132 -57v-250c0 -53 33 -52 62 -52h291v-89h-304c-70 0 -141 18 -141 130v221z" />
    <glyph glyph-name="lslash" unicode="&#x142;" horiz-adv-x="337" 
d="M10 364v64l79 33v322h92v-282l135 59l-1 -64l-134 -58v-243c0 -84 22 -103 54 -112c0 0 76 -21 83 -21v-62h-96c-79 0 -133 48 -133 189v209z" />
    <glyph glyph-name="Dcroat" unicode="&#x110;" horiz-adv-x="658" 
d="M167 90h188c121 0 166 122 166 274c0 206 -67 276 -166 276l-188 -1v-237h131v-58h-131v-254zM10 344v58h65v329c0 1 232 1 283 1c221 0 258 -210 258 -369c0 -179 -69 -363 -258 -363h-283v344h-65z" />
    <glyph glyph-name="dcroat" unicode="&#x111;" horiz-adv-x="556" 
d="M138 264c0 -126 33 -184 92 -184c72 0 129 22 177 43v308c-60 17 -108 24 -177 24c-58 0 -92 -35 -92 -191zM46 263c0 145 24 276 174 276c45 0 127 -14 187 -39v113h-118v57h118v115h91v-115h70v-57h-70v-613h-70l-21 58c-28 -22 -120 -64 -187 -64
c-141 0 -174 135 -174 269z" />
    <glyph glyph-name="questiondown.alt" horiz-adv-x="541" 
d="M265 644v66c0 15 10 23 24 23h63c14 0 24 -9 24 -23v-66c0 -15 -8 -25 -24 -25h-63c-16 0 -24 10 -24 25zM37 182v93c0 135 99 183 239 165c0 2 2 93 0 98h85v-171c-49 1 -85 1 -134 0c-49 -2 -99 -27 -99 -92v-89c0 -72 39 -103 130 -103l265 1v-69
c-100 -14 -167 -26 -282 -21c-152 0 -204 90 -204 188z" />
    <glyph glyph-name="at.alt" horiz-adv-x="852" 
d="M313 207c0 -21 25 -47 57 -47c55 0 111 26 155 51v111l-156 -14c-37 -4 -57 -28 -56 -61v-40zM61 424c0 49 12 173 179 173h209c75 0 159 -27 159 -145v-367h-65l-16 62c-2 0 -81 -71 -172 -71c-77 -2 -129 53 -128 121v50c0 83 48 135 134 135c63 0 164 -1 164 0
c0 0 1 67 0 67c0 52 -27 63 -78 63h-207c-48 0 -94 -10 -94 -90v-331c0 -90 54 -105 94 -105h345c82 0 103 37 103 105v497c0 77 -42 115 -103 115h-404v57c48 10 166 28 292 27l112 -1c107 -1 187 -61 187 -198v-497c0 -112 -46 -190 -186 -190h-346
c-105 0 -178 61 -178 187z" />
    <glyph glyph-name="oe" unicode="&#x153;" horiz-adv-x="903" 
d="M518 301h199c40 0 57 16 57 46c0 95 -17 105 -114 105c-103 0 -147 -10 -142 -151zM139 258c0 -166 49 -178 144 -178c126 0 143 34 143 188c0 153 -30 184 -143 184c-104 0 -144 -15 -144 -194zM47 258c0 217 60 278 236 278c91 0 150 -18 186 -64c35 53 96 63 189 63
c132 0 208 -13 208 -189c0 -82 -44 -126 -140 -126h-208c-3 -106 24 -141 104 -141c88 0 160 -1 234 11v-67c-79 -24 -172 -28 -256 -28c-65 0 -108 17 -134 59c-35 -42 -94 -59 -183 -59c-180 0 -236 73 -236 263z" />
    <glyph glyph-name="OE" unicode="&#x152;" horiz-adv-x="1042" 
d="M61 361c0 343 118 376 286 376c90 0 163 -9 212 -67c21 47 67 65 117 62c0 0 298 -14 315 -16v-74h-306c-52 0 -52 -29 -52 -56v-176l317 -10v-75l-317 -10v-176c1 -53 33 -52 62 -52h296v-73c-15 -2 -305 -17 -305 -17c-51 -3 -106 6 -130 63c-47 -53 -119 -64 -209 -64
c-180 0 -286 32 -286 365zM153 361c0 -241 45 -276 194 -276c145 0 194 41 194 276c0 280 -65 287 -194 287c-126 0 -194 -6 -194 -287z" />
    <glyph glyph-name="Ydieresis" unicode="&#x178;" horiz-adv-x="637" 
d="M403 850c0 29 24 52 53 52s52 -23 52 -52s-23 -53 -52 -53s-53 24 -53 53zM148 850c0 29 24 52 53 52s52 -23 52 -52s-23 -53 -52 -53s-53 24 -53 53zM42 732h100l177 -375l195 375h100l-250 -481v-251h-92v251z" />
    <glyph glyph-name="g.salt" horiz-adv-x="555" 
d="M139 271c0 -90 -3 -195 102 -195c66 0 94 4 166 24v355h-166c-100 0 -102 -121 -102 -184zM47 270c0 172 62 268 187 268c106 0 217 -18 265 -25v-605c0 -127 -87 -189 -172 -180l-254 24v61h249c53 0 85 31 85 95v123c-58 -26 -128 -39 -173 -39
c-153 0 -187 115 -187 278z" />
    <glyph glyph-name="guilsinglleft" unicode="&#x2039;" horiz-adv-x="356" 
d="M47 354l206 203l58 -58l-148 -145l153 -149l-58 -59z" />
    <glyph glyph-name="guilsinglright" unicode="&#x203a;" horiz-adv-x="356" 
d="M47 205l152 149l-148 145l59 58l206 -203l-211 -208z" />
    <glyph glyph-name="perthousand" unicode="&#x2030;" horiz-adv-x="1380" 
d="M1055 133c0 -45 14 -57 59 -57h93c55 0 60 16 60 57v121c0 47 -14 57 -58 57h-93c-53 0 -61 -13 -61 -57v-121zM981 129v130c0 85 30 126 131 126h101c98 0 128 -41 128 -126v-130c0 -85 -29 -127 -130 -127h-101c-98 0 -129 42 -129 127zM632 133c0 -45 13 -57 58 -57
h93c55 0 61 16 61 57v121c0 47 -15 57 -59 57h-93c-53 0 -60 -13 -60 -57v-121zM558 129v130c0 85 29 126 130 126h101c98 0 129 -41 129 -126v-130c0 -85 -30 -127 -131 -127h-101c-98 0 -128 42 -128 127zM222 0l440 732h79l-439 -732h-80zM113 480c0 -45 14 -57 59 -57
h93c54 0 60 15 60 57v121c0 47 -14 57 -58 57h-93c-53 0 -61 -14 -61 -57v-121zM39 476v130c0 84 30 126 131 126h101c98 0 128 -42 128 -126v-130c0 -86 -29 -127 -130 -127h-101c-98 0 -129 41 -129 127z" />
    <glyph glyph-name="dagger" unicode="&#x2020;" horiz-adv-x="399" 
d="M19 479v73l133 10l8 208h80l9 -208l132 -10v-73l-132 -11l-10 -540h-80l-7 540z" />
    <glyph glyph-name="daggerdbl" unicode="&#x2021;" horiz-adv-x="417" 
d="M19 166v73l134 11l-1 218l-133 11v73l133 10l9 208h79l9 -208l132 -10v-73l-132 -11l-3 -218l135 -11v-73l-138 -11l-4 -227h-80l-4 227z" />
    <glyph glyph-name="trademark" unicode="&#x2122;" horiz-adv-x="695" 
d="M317 383l30 349h71l84 -228l72 228h74l34 -349h-72l-17 197l-59 -197h-61l-70 198l-15 -198h-71zM19 664v68h265v-68h-97v-281h-71v281h-97z" />
    <glyph glyph-name="notequal" unicode="&#x2260;" horiz-adv-x="464" 
d="M19 204v91h148l70 116h-218v90h272l44 72h64l-44 -72h91v-90h-145l-70 -116h215v-91h-269l-50 -83h-64l50 83h-94z" />
    <glyph glyph-name="infinity" unicode="&#x221e;" horiz-adv-x="779" 
d="M430 341c30 -45 71 -91 134 -91c68 0 86 40 86 91s-7 92 -86 92c-52 0 -104 -46 -134 -92zM130 341c0 -51 14 -91 85 -91c63 0 103 46 134 91c-30 46 -83 92 -134 92c-81 0 -85 -41 -85 -92zM47 341c0 87 28 173 166 173c76 0 137 -44 176 -102c38 59 102 102 178 102
c138 0 166 -86 166 -173c0 -92 -39 -172 -166 -172c-75 0 -133 27 -179 105c-45 -78 -101 -105 -175 -105c-127 0 -166 80 -166 172z" />
    <glyph glyph-name="lessequal" unicode="&#x2264;" horiz-adv-x="468" 
d="M47 387v93l375 154v-93l-263 -107l263 -117v-95zM47 98v83h375v-83h-375z" />
    <glyph glyph-name="greaterequal" unicode="&#x2265;" horiz-adv-x="468" 
d="M48 222v95l262 117l-262 107v93l375 -154v-93zM47 98v83h376v-83h-376z" />
    <glyph glyph-name="circumflex" unicode="&#x2c6;" horiz-adv-x="389" 
d="M47 531l114 131h80l102 -131h-77l-68 68l-73 -68h-78z" />
    <glyph glyph-name="tilde" unicode="&#x2dc;" horiz-adv-x="432" 
d="M47 576c37 33 75 65 118 65c50 -2 77 -34 107 -35c27 -1 61 19 92 37l22 -47c-31 -26 -71 -66 -114 -64c-54 2 -72 35 -109 34c-43 -1 -58 -20 -94 -35z" />
    <glyph glyph-name="ring" unicode="&#x2da;" horiz-adv-x="296" 
d="M97 632c0 -28 23 -51 52 -51c28 0 51 23 51 51s-23 52 -51 52c-29 0 -52 -24 -52 -52zM47 632c0 57 46 103 102 103s101 -46 101 -103s-45 -102 -101 -102s-102 45 -102 102z" />
    <glyph glyph-name="ellipsis" unicode="&#x2026;" horiz-adv-x="813" 
d="M538 23v66c0 15 8 25 24 25h62c18 0 25 -9 25 -25v-66c0 -18 -11 -23 -25 -23h-62c-14 0 -24 9 -24 23zM348 23v66c0 15 8 25 24 25h62c18 0 25 -9 25 -25v-66c0 -18 -11 -23 -25 -23h-62c-14 0 -24 9 -24 23zM157 23v66c0 15 8 25 24 25h62c18 0 25 -9 25 -25v-66
c0 -18 -11 -23 -25 -23h-62c-14 0 -24 9 -24 23z" />
    <glyph glyph-name="fraction" unicode="&#x2044;" horiz-adv-x="257" 
d="M-84 0l351 738h74l-350 -738h-75z" />
    <glyph glyph-name="dotlessi" unicode="&#x131;" horiz-adv-x="204" 
d="M56 0v531h92v-531h-92z" />
    <glyph glyph-name="ampersand.salt" horiz-adv-x="955" 
d="M288 238h195c43 0 56 -1 56 41c0 36 -6 43 -56 43h-112c-52 0 -83 -3 -83 -84zM133 296c0 -42 32 -58 63 -58c0 121 60 166 174 166h114c69 0 147 -11 147 -128c0 -102 -47 -120 -148 -120h-195c0 -74 52 -68 101 -71h163c83 0 149 33 149 111v270h-437
c-97 0 -131 -6 -131 -83v-87zM41 295v88c0 145 79 168 222 168h438l18 142h74v-144h143v-63l-143 -20v-270c0 -157 -130 -196 -241 -196h-164c-110 0 -192 25 -192 156c-71 0 -155 36 -155 139z" />
    <glyph glyph-name="a.superior" horiz-adv-x="372" 
d="M102 478c0 -28 17 -37 41 -37c56 0 118 33 118 33v78l-119 -11c-30 -3 -40 -21 -40 -39v-24zM29 464v43c0 53 36 91 103 91c0 0 129 0 129 1c0 0 1 26 0 27c0 37 -22 48 -58 48c-52 0 -98 -4 -162 -8v49c57 17 99 21 172 24c69 1 123 -29 123 -106v-255h-52l-22 48
c-2 -3 -74 -52 -131 -52s-102 35 -102 90z" />
    <glyph glyph-name="b.superior" horiz-adv-x="399" 
d="M110 471c36 -13 59 -27 112 -27c45 0 69 31 69 112c0 98 -25 116 -69 116c-52 0 -67 -6 -112 -16v-185zM35 378v524h75v-191c45 19 91 29 125 29c112 0 131 -89 131 -185c0 -90 -26 -181 -131 -181c-50 0 -104 32 -125 48l-22 -44h-53z" />
    <glyph glyph-name="c.superior" horiz-adv-x="360" 
d="M29 555c0 152 53 182 130 182c38 0 109 -9 165 -22v-52s-81 5 -147 5c-45 0 -73 -1 -73 -115c0 -91 20 -111 73 -111c68 0 152 7 152 7v-53c-60 -20 -109 -22 -170 -23c-74 0 -130 29 -130 182z" />
    <glyph glyph-name="d.superior" horiz-adv-x="396" 
d="M104 556c0 -80 24 -112 68 -112c54 0 76 14 111 27v185c-45 12 -59 16 -111 16c-43 0 -68 -17 -68 -116zM29 555c0 98 17 186 130 186c34 0 81 -10 125 -29v192h73v-526h-52l-22 44c-21 -16 -75 -48 -124 -48c-106 0 -130 91 -130 181z" />
    <glyph glyph-name="e.superior" horiz-adv-x="391" 
d="M104 586h138c30 0 43 9 43 27c0 47 -19 55 -90 55c-66 0 -92 -16 -91 -82zM29 557c0 109 23 179 164 179c94 0 166 -10 166 -130c0 -57 -39 -87 -106 -87h-149c0 -63 13 -77 73 -77c66 0 119 -2 174 6v-52c-59 -18 -129 -23 -191 -23c-92 0 -131 41 -131 184z" />
    <glyph glyph-name="f.superior" horiz-adv-x="324" 
d="M24 666v55l71 9v67c0 43 12 106 102 106c37 0 67 -7 103 -17v-49c-1 0 -84 1 -84 1c-45 1 -46 -21 -46 -52v-52h100v-68h-102v-288h-74v288h-70z" />
    <glyph glyph-name="g.superior" horiz-adv-x="417" 
d="M107 604c-1 -33 10 -71 63 -71h57c51 0 57 45 57 71c0 36 -18 63 -57 63h-55c-49 0 -64 -25 -65 -63zM104 304c0 -47 26 -49 53 -49h93c36 0 47 13 47 44v5c0 29 -21 39 -55 44l-110 13l-28 3v-60zM30 292v43l30 41c-22 13 -29 39 -29 62c0 22 11 57 46 61
c-36 19 -45 69 -45 105c0 88 50 129 123 129h234v-44l-48 -21c7 -9 18 -42 18 -69c0 -54 -25 -133 -122 -133h-108c-11 0 -26 -2 -26 -20s11 -20 26 -22l140 -16c63 -6 101 -45 101 -104v-8c0 -41 -12 -109 -105 -109h-122c-65 0 -113 33 -113 105z" />
    <glyph glyph-name="h.superior" horiz-adv-x="403" 
d="M35 378v523h75v-214c42 25 75 53 136 53c83 0 121 -56 121 -118v-244h-75v234c0 40 -27 59 -60 59c-49 0 -71 -12 -122 -35v-258h-75z" />
    <glyph glyph-name="i.superior" horiz-adv-x="151" 
d="M36 378v356h75v-356h-75zM32 792v50c0 11 6 19 18 19h51c11 0 17 -8 17 -19v-50c0 -11 -6 -17 -17 -17h-51c-11 0 -18 6 -18 17z" />
    <glyph glyph-name="j.superior" horiz-adv-x="153" 
d="M36 196v537h77v-358c1 -58 -3 -119 -21 -179h-56zM33 796v49c0 11 6 19 18 19h51c11 0 17 -8 17 -19v-49c0 -12 -6 -18 -17 -18h-51c-11 0 -18 6 -18 18z" />
    <glyph glyph-name="k.superior" horiz-adv-x="394" 
d="M35 378v521h75v-292h24l136 123h99l-170 -154l169 -198h-92l-136 163h-30v-163h-75z" />
    <glyph glyph-name="l.superior" horiz-adv-x="232" 
d="M35 504v396h74v-384c0 -55 8 -66 38 -74c0 0 54 -14 59 -14v-50h-72c-70 0 -99 32 -99 126z" />
    <glyph glyph-name="m.superior" horiz-adv-x="664" 
d="M35 378v354h55l19 -48c43 26 75 52 132 52c49 0 91 -21 108 -57c37 31 91 57 156 57c71 0 123 -48 123 -117v-241h-74v231c0 36 -27 58 -60 58c-51 0 -82 -8 -125 -33v-23v-233h-75v231c0 36 -28 58 -61 58c-51 0 -73 -11 -123 -34v-255h-75z" />
    <glyph glyph-name="n.superior" horiz-adv-x="403" 
d="M35 378v354h52l22 -45c42 26 76 52 137 52c83 0 121 -56 121 -117v-244h-75v234c0 41 -26 59 -59 59c-50 0 -72 -12 -123 -35v-258h-75z" />
    <glyph glyph-name="o.superior" horiz-adv-x="398" 
d="M104 550c0 -95 32 -106 94 -106c60 0 92 8 92 106c0 100 -26 116 -94 116c-67 0 -92 -20 -92 -116zM29 550c0 123 39 185 169 185c128 0 166 -62 166 -185c0 -113 -38 -175 -166 -175c-129 0 -169 61 -169 175z" />
    <glyph glyph-name="p.superior" horiz-adv-x="396" 
d="M108 453c41 -11 67 -16 115 -16c40 0 65 17 65 118c0 81 -24 114 -65 114c-49 0 -83 -14 -115 -28v-188zM35 194v541h53l20 -43c19 15 81 47 128 47c100 0 127 -93 127 -183c0 -96 -21 -187 -127 -187c-32 0 -86 9 -128 29v-204h-73z" />
    <glyph glyph-name="q.superior" horiz-adv-x="399" 
d="M104 557c0 -53 -2 -122 77 -122c49 0 51 3 105 16v220h-105c-74 0 -77 -74 -77 -114zM29 556c0 118 47 183 140 183c80 0 156 -13 191 -18v-527h-74v203c-43 -21 -83 -30 -117 -30c-114 0 -140 90 -140 189z" />
    <glyph glyph-name="r.superior" horiz-adv-x="328" 
d="M35 378v354h58l16 -51c41 26 77 55 133 55c21 0 43 -2 53 -6v-72c-10 2 -34 4 -56 4c-52 0 -80 -12 -129 -37v-247h-75z" />
    <glyph glyph-name="s.superior" horiz-adv-x="375" 
d="M29 615v34c0 56 25 92 95 92c43 0 160 -9 198 -15v-55h-182c-37 0 -38 -13 -38 -33v-21c0 -30 17 -31 39 -31h111c62 0 90 -39 90 -91v-37c0 -75 -45 -90 -89 -90c-38 0 -182 11 -207 18v53h189c2 0 35 -10 35 29v22c0 20 -8 31 -35 31h-111c-63 0 -95 24 -95 94z" />
    <glyph glyph-name="t.superior" horiz-adv-x="305" 
d="M25 666v52l71 13l16 102h58v-99h104v-68h-104v-152c0 -60 7 -64 38 -71c0 0 51 -12 53 -12v-52h-66c-69 0 -99 32 -99 124v163h-71z" />
    <glyph glyph-name="u.superior" horiz-adv-x="397" 
d="M34 493v239h74v-234c0 -38 28 -58 60 -58c47 0 65 9 116 32v260h74v-354h-52l-22 46c-43 -28 -68 -53 -128 -53c-83 0 -122 61 -122 122z" />
    <glyph glyph-name="v.superior" horiz-adv-x="418" 
d="M23 732h80l107 -254l104 254h80l-151 -354h-66z" />
    <glyph glyph-name="w.superior" horiz-adv-x="610" 
d="M23 732h80l107 -254l102 254h78l-48 -113l61 -141l102 254h80l-150 -354h-65l-66 147l-62 -147h-65z" />
    <glyph glyph-name="x.superior" horiz-adv-x="407" 
d="M24 378l138 179l-138 175h87l93 -119l88 119h88l-133 -175l135 -179h-87l-90 124l-93 -124h-88z" />
    <glyph glyph-name="y.superior" horiz-adv-x="438" 
d="M23 733h78l97 -260c7 -17 15 -29 34 -29l102 289h79l-162 -469l-58 -68h-54l69 180c-39 2 -65 38 -77 72z" />
    <glyph glyph-name="z.superior" horiz-adv-x="374" 
d="M29 663v69h311v-64l-200 -220h199c1 -1 0 -69 0 -69h-299v69l200 215h-211z" />
    <glyph glyph-name="zero.tnum" horiz-adv-x="618" 
d="M146 173c0 -66 48 -84 92 -84h146c59 0 88 29 88 83v388c0 46 -20 83 -87 83h-148c-67 0 -91 -41 -91 -83v-387zM54 166v398c0 111 76 168 176 168h164c125 0 170 -78 170 -166v-400c0 -118 -68 -166 -170 -166h-164c-97 0 -176 46 -176 166z" />
    <glyph glyph-name="one.tnum" horiz-adv-x="611" 
d="M121 582v63l173 87h92v-646h158v-86h-416v86h165v547z" />
    <glyph glyph-name="two.tnum" horiz-adv-x="615" 
d="M52 652v68c99 14 188 22 304 22c147 0 207 -107 207 -214c0 -188 -264 -389 -335 -439h335v-89h-504v83c105 71 411 293 411 446c0 71 -36 123 -127 123h-291z" />
    <glyph glyph-name="three.tnum" horiz-adv-x="615" 
d="M62 645v61c88 31 202 30 319 28c110 -2 173 -72 173 -168v-64c0 -74 -26 -121 -69 -138c45 -25 69 -70 69 -146v-54c0 -111 -59 -171 -181 -171c-114 0 -217 -3 -305 28v62h286c57 0 106 8 106 86v52c0 73 -45 95 -100 97l-230 8v72l230 10c69 4 102 33 102 92v60
c0 63 -50 85 -102 85h-298z" />
    <glyph glyph-name="four.tnum" horiz-adv-x="623" 
d="M26 224l306 508h106l-274 -460h256v197l35 75h57v-272h86v-72l-86 -20v-178h-92v178h-360z" />
    <glyph glyph-name="five.tnum" horiz-adv-x="617" 
d="M71 20v70h298c68 0 85 47 85 87v98c0 33 -2 88 -83 88h-138c-38 0 -76 -20 -76 -71h-84l22 440h428v-89h-342l-11 -221c16 17 42 24 71 28c50 6 113 1 141 0c118 -1 164 -72 164 -170v-111c0 -137 -102 -173 -169 -173c-124 0 -172 1 -306 24z" />
    <glyph glyph-name="six.tnum" horiz-adv-x="616" 
d="M149 345c0 -96 6 -257 109 -257h129c48 0 81 10 81 76v109c0 58 -36 72 -80 72h-239zM57 384c0 265 88 351 172 353c101 3 208 -5 306 -19v-69h-278c-91 0 -106 -155 -108 -237c78 11 171 20 246 20c138 0 164 -72 164 -154v-126c0 -114 -68 -153 -165 -153h-147
c-111 1 -190 70 -190 385z" />
    <glyph glyph-name="seven.tnum" horiz-adv-x="617" 
d="M63 643v89h462l30 -52l-260 -680h-105l249 643h-376z" />
    <glyph glyph-name="eight.tnum" horiz-adv-x="618" 
d="M156 494c0 -63 50 -78 84 -78h143c69 0 80 43 80 78v62c0 70 -28 94 -82 94h-132c-59 0 -93 -10 -93 -94v-62zM156 160c0 -47 26 -72 93 -72h131c43 0 83 23 83 72v95c0 52 -37 76 -80 76h-143c-46 0 -84 -19 -84 -76v-95zM64 158v91c0 70 40 96 83 109
c-66 24 -83 87 -83 141v65c0 135 76 173 178 173h148c109 0 165 -49 165 -173v-62c1 -23 -4 -102 -75 -116c56 -10 76 -90 75 -133v-94c0 -135 -97 -159 -166 -159h-147c-174 0 -178 113 -178 158z" />
    <glyph glyph-name="nine.tnum" horiz-adv-x="616" 
d="M148 463c0 -58 36 -72 81 -72h238c0 96 -5 257 -108 257h-130c-48 0 -81 -10 -81 -76v-109zM57 459v125c0 114 68 153 165 153h148c111 -1 189 -70 189 -385c0 -265 -88 -351 -172 -353c-100 -2 -206 1 -306 19v69h278c91 0 107 155 108 238c-77 -12 -171 -21 -246 -21
c-138 0 -164 72 -164 155z" />
    <glyph glyph-name="zero.tosf" horiz-adv-x="618" 
d="M146 173c0 -66 48 -84 92 -84h146c59 0 88 29 88 83v287c0 46 -20 83 -87 83h-148c-67 0 -91 -40 -91 -83v-286zM54 166v297c0 112 76 168 176 168h164c125 0 170 -73 170 -166v-299c0 -118 -68 -166 -170 -166h-164c-97 0 -176 46 -176 166z" />
    <glyph glyph-name="one.tosf" horiz-adv-x="613" 
d="M131 484v63l161 85h92v-546h150v-86h-399v86h157v447z" />
    <glyph glyph-name="two.tosf" horiz-adv-x="614" 
d="M52 549v68c96 15 184 26 304 22c142 0 206 -72 206 -189c0 -166 -267 -330 -324 -361h320v-89h-500v83c121 68 411 229 411 365c0 69 -36 104 -127 101h-290z" />
    <glyph glyph-name="three.tosf" horiz-adv-x="615" 
d="M62 549v61c88 31 202 30 319 28c110 -2 173 -72 173 -168v-64c0 -73 -26 -121 -69 -138c45 -25 69 -69 69 -145v-55c0 -111 -59 -171 -181 -171c-114 0 -217 -3 -305 28v62h286c57 0 106 8 106 86v52c0 73 -45 95 -100 98l-230 7v73l230 10c69 3 102 32 102 91v60
c0 63 -50 85 -102 85h-298z" />
    <glyph glyph-name="four.tosf" horiz-adv-x="623" 
d="M26 124l306 508h106l-274 -460h256v197l35 75h57v-272h86v-72l-86 -20v-178h-92v178h-360z" />
    <glyph glyph-name="five.tosf" horiz-adv-x="617" 
d="M81 -10h298c68 0 85 47 85 87v98c0 33 -2 88 -83 88h-138c-38 0 -76 -20 -76 -71h-84l22 440h428v-89h-342l-11 -221c16 17 44 25 73 28c50 7 111 1 139 0c118 -1 164 -72 164 -170v-111c0 -137 -102 -173 -169 -173c-124 0 -172 1 -306 24v70z" />
    <glyph glyph-name="six.tosf" horiz-adv-x="616" 
d="M149 345c0 -96 6 -257 109 -257h129c48 0 81 10 81 76v109c0 58 -36 72 -80 72h-239zM57 384c0 265 88 351 172 353c101 3 208 -5 306 -19v-69h-278c-91 0 -106 -155 -108 -237c78 11 171 20 246 20c138 0 164 -72 164 -154v-126c0 -114 -68 -153 -165 -153h-147
c-111 1 -190 70 -190 385z" />
    <glyph glyph-name="seven.tosf" horiz-adv-x="617" 
d="M63 543v89h462l30 -52l-260 -680h-105l249 643h-376z" />
    <glyph glyph-name="eight.tosf" horiz-adv-x="618" 
d="M156 494c0 -63 50 -78 84 -78h143c69 0 80 43 80 78v62c0 70 -28 94 -82 94h-132c-59 0 -93 -10 -93 -94v-62zM156 160c0 -47 26 -72 93 -72h131c43 0 83 23 83 72v95c0 52 -37 76 -80 76h-143c-46 0 -84 -19 -84 -76v-95zM64 158v91c0 70 40 96 83 109
c-66 24 -83 87 -83 141v65c0 135 76 173 178 173h148c109 0 165 -49 165 -173v-62c1 -23 -4 -102 -75 -116c56 -10 76 -90 75 -133v-94c0 -135 -97 -159 -166 -159h-147c-174 0 -178 113 -178 158z" />
    <glyph glyph-name="nine.tosf" horiz-adv-x="616" 
d="M148 358c0 -58 36 -72 81 -72h238c0 96 -5 257 -108 257h-130c-48 0 -81 -10 -81 -76v-109zM57 354v125c0 114 68 153 165 153h148c111 -1 189 -70 189 -385c0 -265 -88 -351 -172 -353c-100 -2 -210 1 -306 19v69h278c91 0 107 155 108 238c-77 -12 -171 -21 -246 -21
c-138 0 -164 72 -164 155z" />
    <glyph glyph-name="partialdiff" unicode="&#x2202;" horiz-adv-x="642" 
d="M145 230c0 -97 74 -146 157 -146c135 0 169 187 170 256c-31 17 -90 36 -159 36c-123 0 -168 -62 -168 -146zM53 227c0 151 92 238 254 238c51 0 113 -11 166 -57c-9 189 -63 243 -181 243c-73 0 -143 -28 -180 -51l-23 62c67 44 121 78 206 78c195 0 271 -137 271 -353
c0 -202 -76 -392 -264 -392c-132 0 -249 74 -249 232z" />
    <glyph glyph-name="summation" unicode="&#x2211;" horiz-adv-x="581" 
d="M37 -108l214 378l-214 373v89h526v-89h-414l213 -373l-213 -378h414v-92h-526v92z" />
    <glyph glyph-name="product" unicode="&#x220f;" horiz-adv-x="645" 
d="M19 643v89h608v-89h-84v-643h-92v643h-257v-643h-92v643h-83z" />
    <glyph glyph-name="pi" unicode="&#x3c0;" horiz-adv-x="640" 
d="M19 442v89h554v-89h-118v-270c0 -72 22 -92 69 -92h97v-54c-25 -17 -64 -31 -112 -31c-90 0 -146 43 -146 175v272h-169v-442h-92v442h-83z" />
    <glyph glyph-name="integral" unicode="&#x222b;" horiz-adv-x="441" 
d="M19 -120h82c70 0 72 113 73 208v418c0 160 27 294 144 294c65 0 87 -18 105 -25v-59h-81c-69 0 -75 -113 -76 -210v-418c0 -163 -20 -292 -140 -292c-46 0 -86 11 -107 25v59z" />
    <glyph glyph-name="Omega" unicode="&#x3a9;" horiz-adv-x="774" 
d="M61 390c0 154 65 349 327 349c248 0 321 -173 321 -355c0 -116 -9 -214 -117 -294l122 -10v-80h-234v92c129 88 137 167 137 293c0 133 -41 265 -229 265c-190 0 -235 -134 -235 -270c0 -125 5 -181 140 -288v-92h-226v82l127 10c-133 85 -133 186 -133 298z" />
    <glyph glyph-name="radical" unicode="&#x221a;" horiz-adv-x="636" 
d="M19 272v89h141l118 -234l245 673h95l-290 -800h-86l-141 272h-82z" />
    <glyph glyph-name="florin" unicode="&#x192;" horiz-adv-x="592" 
d="M19 -179l8 59h83c70 0 92 113 106 208l47 303h-97l14 84h98l4 31c26 160 74 294 191 294c55 0 93 -22 101 -25l-9 -59h-81c-69 0 -91 -113 -107 -210l-5 -32h134l-14 -83h-134l-47 -303c-26 -163 -59 -292 -189 -292c-44 0 -95 20 -103 25z" />
    <glyph glyph-name="approxequal" unicode="&#x2248;" horiz-adv-x="525" 
d="M47 431c39 33 83 71 147 71c60 0 89 -37 149 -37c47 0 67 19 113 39l22 -48c-38 -29 -77 -72 -137 -72c-58 0 -89 38 -149 38c-51 0 -76 -23 -124 -38zM47 253c39 33 83 71 147 71c60 0 89 -37 149 -37c47 0 67 19 113 39l22 -48c-38 -29 -77 -72 -137 -72
c-58 0 -89 38 -149 38c-51 0 -76 -23 -124 -38z" />
    <glyph glyph-name="uni2206" unicode="&#x2206;" horiz-adv-x="721" 
d="M153 88h426l-209 516zM19 0l311 732h74l299 -732h-684z" />
    <glyph glyph-name="lozenge" unicode="&#x25ca;" horiz-adv-x="519" 
d="M121 373l142 -253l136 253l-136 243zM19 373l207 359h74l201 -359l-201 -373h-74z" />
    <glyph glyph-name="cdotaccent" unicode="&#x10b;" horiz-adv-x="498" 
d="M239 622v60c0 15 8 25 24 25h56c15 0 23 -11 23 -25v-60c0 -15 -9 -23 -23 -23h-56c-14 0 -24 9 -24 23zM47 266c0 228 73 270 175 270c52 0 157 -10 232 -28v-62s-127 6 -216 6c-61 0 -99 -10 -99 -190c0 -148 27 -182 99 -182c92 0 223 10 223 10v-65
c-80 -27 -156 -29 -239 -30c-99 0 -175 42 -175 271z" />
    <glyph glyph-name="ccircumflex" unicode="&#x109;" horiz-adv-x="498" 
d="M131 598l115 131h80l102 -131h-77l-68 68l-74 -68h-78zM47 266c0 228 73 270 175 270c52 0 157 -10 232 -28v-62s-127 6 -216 6c-61 0 -99 -10 -99 -190c0 -148 27 -182 99 -182c92 0 223 10 223 10v-65c-80 -27 -156 -29 -239 -30c-99 0 -175 42 -175 271z" />
    <glyph glyph-name="Hbar" unicode="&#x126;" horiz-adv-x="665" 
d="M171 398h323v118h-323v-118zM18 516v57h61v159h92v-159h323v159h92v-159h60v-57h-60v-516h-92v310h-323v-310h-92v516h-61z" />
    <glyph glyph-name="Hcircumflex" unicode="&#x124;" horiz-adv-x="637" 
d="M180 797l114 131h80l102 -131h-76l-68 68l-74 -68h-78zM75 0v732h92v-334h323v334h92v-732h-92v310h-323v-310h-92z" />
    <glyph glyph-name="Idotaccent" unicode="&#x130;" horiz-adv-x="222" 
d="M69 820v60c0 15 8 25 24 25h56c15 0 23 -11 23 -25v-60c0 -15 -9 -23 -23 -23h-56c-14 0 -24 9 -24 23zM75 0v732h92v-732h-92z" />
    <glyph glyph-name="Gbreve" unicode="&#x11e;" horiz-adv-x="614" 
d="M218 914h50c0 -38 32 -64 64 -64c38 0 66 24 66 64h50c0 -75 -58 -114 -116 -114c-57 0 -114 43 -114 114zM51 370c0 203 37 370 236 370c68 0 181 -12 261 -28v-73c-6 0 -149 13 -252 13c-126 0 -153 -88 -153 -284c0 -213 36 -283 154 -284c74 -1 174 46 174 46v181
h-150v61c41 12 95 24 174 24c21 0 44 0 68 -2v-394h-68l-22 49c-37 -23 -95 -53 -184 -54c-207 -4 -238 164 -238 375z" />
    <glyph glyph-name="Jcircumflex" unicode="&#x134;" horiz-adv-x="358" 
d="M108 797l115 131h80l102 -131h-77l-68 68l-74 -68h-78zM33 22l3 69c79 -16 174 -39 174 91v550h92v-567c0 -47 -2 -115 -52 -147c-53 -34 -165 -30 -217 4z" />
    <glyph glyph-name="hbar" unicode="&#x127;" horiz-adv-x="549" 
d="M-14 608v58h74v118h94v-118h129v-58h-129v-138c59 35 126 71 194 70c108 3 155 -81 155 -173v-367h-95v365c-2 57 -22 92 -85 92c-51 -2 -101 -20 -168 -55v-402h-95v608h-74z" />
    <glyph glyph-name="hcircumflex" unicode="&#x125;" 
d="M-58 844l114 131h80l102 -131h-77l-68 68l-73 -68h-78zM45 0v784h91v-314c57 35 108 70 189 70c111 0 163 -83 163 -174v-366h-92v366c0 62 -34 90 -82 90c-73 0 -110 -19 -177 -54v-402h-92z" />
    <glyph glyph-name="jcircumflex" unicode="&#x135;" horiz-adv-x="224" 
d="M65 -270v801h96v-535c1 -86 -3 -176 -29 -266h-67zM-37 598l114 157h80l102 -157h-68l-77 85l-82 -85h-69z" />
    <glyph glyph-name="Cdotaccent" unicode="&#x10a;" horiz-adv-x="576" 
d="M285 825v60c0 15 8 25 24 25h56c15 0 23 -11 23 -25v-60c0 -15 -9 -23 -23 -23h-56c-14 0 -24 9 -24 23zM51 368c0 234 47 372 246 372c66 0 174 -11 247 -27v-73c-1 0 -145 11 -238 11c-119 0 -163 -48 -163 -285c0 -164 35 -283 163 -283c105 0 238 7 238 7v-72
c-69 -15 -181 -24 -247 -24c-185 0 -246 154 -246 374z" />
    <glyph glyph-name="Ccircumflex" unicode="&#x108;" horiz-adv-x="576" 
d="M181 800l115 132h80l102 -132h-77l-68 68l-74 -68h-78zM51 368c0 234 47 372 246 372c66 0 174 -11 247 -27v-73c-1 0 -145 11 -238 11c-119 0 -163 -48 -163 -285c0 -164 35 -283 163 -283c105 0 238 7 238 7v-72c-69 -15 -181 -24 -247 -24c-185 0 -246 154 -246 374z
" />
    <glyph glyph-name="Gdotaccent" unicode="&#x120;" horiz-adv-x="614" 
d="M276 823v60c0 15 8 25 24 25h56c15 0 23 -11 23 -25v-60c0 -15 -9 -23 -23 -23h-56c-14 0 -24 9 -24 23zM51 370c0 203 37 370 236 370c68 0 181 -12 261 -28v-73c-6 0 -149 13 -252 13c-126 0 -153 -88 -153 -284c0 -213 36 -283 154 -284c74 -1 174 46 174 46v181h-150
v61c41 12 95 24 174 24c21 0 44 0 68 -2v-394h-68l-22 49c-37 -23 -95 -53 -184 -54c-207 -4 -238 164 -238 375z" />
    <glyph glyph-name="Gcircumflex" unicode="&#x11c;" horiz-adv-x="614" 
d="M187 800l115 132h80l102 -132h-77l-68 68l-74 -68h-78zM51 370c0 203 37 370 236 370c68 0 181 -12 261 -28v-73c-6 0 -149 13 -252 13c-126 0 -153 -88 -153 -284c0 -213 36 -283 154 -284c74 -1 174 46 174 46v181h-150v61c41 12 95 24 174 24c21 0 44 0 68 -2v-394
h-68l-22 49c-37 -23 -95 -53 -184 -54c-207 -4 -238 164 -238 375z" />
    <glyph glyph-name="Ubreve" unicode="&#x16c;" horiz-adv-x="673" 
d="M231 911h50c0 -38 31 -64 64 -64c38 0 66 24 66 64h50c0 -75 -58 -114 -116 -114c-57 0 -114 43 -114 114zM75 320v412h92v-412c0 -233 68 -236 182 -236c97 0 176 11 176 236v412h93v-412c0 -323 -148 -325 -269 -325c-136 0 -274 -8 -274 325z" />
    <glyph glyph-name="Scircumflex" unicode="&#x15c;" horiz-adv-x="585" 
d="M164 798l114 132h80l102 -132h-77l-67 68l-74 -68h-78zM61 492v65c0 145 86 181 198 181c67 1 215 -17 259 -25v-74c-64 4 -239 10 -249 10c-67 3 -116 -4 -116 -95v-58c0 -82 36 -90 95 -90h135c136 0 161 -97 161 -178v-63c0 -149 -103 -173 -202 -173
c-70 0 -205 14 -259 26v74c40 -4 158 -11 251 -11c42 0 118 3 118 83v60c0 53 -16 90 -78 90h-132c-165 0 -181 99 -181 178z" />
    <glyph glyph-name="ubreve" unicode="&#x16d;" 
d="M160 710h50c0 -38 31 -64 64 -64c38 0 66 24 66 64h50c0 -75 -59 -114 -116 -114s-114 43 -114 114zM47 166v365h92v-366c0 -63 35 -89 81 -89c74 0 110 18 178 54v401h92v-531h-69l-23 60c-59 -34 -108 -69 -189 -69c-111 0 -162 83 -162 175z" />
    <glyph glyph-name="scircumflex" unicode="&#x15d;" horiz-adv-x="506" 
d="M105 596l115 132h80l102 -132h-77l-68 68l-74 -68h-78zM37 355v46c0 82 35 135 138 135c66 0 218 -9 267 -19v-66h-255c-56 0 -58 -21 -58 -52v-40c0 -50 25 -51 58 -51h149c91 0 133 -56 133 -132v-50c0 -109 -66 -131 -130 -131c-63 0 -242 12 -280 22v64h268
c3 0 50 -5 50 48v42c0 32 -10 50 -50 50h-149c-94 0 -141 31 -141 134z" />
    <glyph glyph-name="gbreve" unicode="&#x11f;" horiz-adv-x="555" 
d="M160 711h50c0 -38 31 -64 64 -64c38 0 66 24 66 64h50c0 -75 -58 -114 -116 -114c-57 0 -114 42 -114 114zM138 344c0 -49 15 -110 85 -110h86c73 0 91 63 89 110c-2 66 -19 104 -90 104h-80c-75 0 -90 -53 -90 -104zM136 -111c0 -68 44 -75 80 -75h131c57 0 71 31 71 74
v53c0 42 -11 63 -64 63h-174c-28 0 -44 7 -44 7v-122zM45 112c0 35 18 76 59 86c-44 28 -58 93 -58 146c0 127 66 189 176 189h315v-63l-75 -18c11 -22 28 -42 28 -112c0 -65 -25 -191 -169 -191h-147c-16 0 -41 -3 -41 -28s18 -32 41 -32h199c86 0 137 -54 137 -143v-62
c0 -64 -24 -154 -155 -154h-150c-94 0 -161 50 -161 154v80l41 61c-28 19 -40 53 -40 87z" />
    <glyph glyph-name="gdotaccent" unicode="&#x121;" horiz-adv-x="555" 
d="M227 622v60c0 15 8 25 24 25h56c15 0 23 -11 23 -25v-60c0 -15 -9 -23 -23 -23h-56c-14 0 -24 9 -24 23zM138 344c0 -49 15 -110 85 -110h86c73 0 91 63 89 110c-2 66 -19 104 -90 104h-80c-75 0 -90 -53 -90 -104zM136 -111c0 -68 44 -75 80 -75h131c57 0 71 31 71 74
v53c0 42 -11 63 -64 63h-174c-28 0 -44 7 -44 7v-122zM45 112c0 35 18 76 59 86c-44 28 -58 93 -58 146c0 127 66 189 176 189h315v-63l-75 -18c11 -22 28 -42 28 -112c0 -65 -25 -191 -169 -191h-147c-16 0 -41 -3 -41 -28s18 -32 41 -32h199c86 0 137 -54 137 -143v-62
c0 -64 -24 -154 -155 -154h-150c-94 0 -161 50 -161 154v80l41 61c-28 19 -40 53 -40 87z" />
    <glyph glyph-name="gcircumflex" unicode="&#x11d;" horiz-adv-x="555" 
d="M128 597l114 131h80l102 -131h-77l-68 68l-73 -68h-78zM138 344c0 -49 15 -110 85 -110h86c73 0 91 63 89 110c-2 66 -19 104 -90 104h-80c-75 0 -90 -53 -90 -104zM136 -111c0 -68 44 -75 80 -75h131c57 0 71 31 71 74v53c0 42 -11 63 -64 63h-174c-28 0 -44 7 -44 7
v-122zM45 112c0 35 18 76 59 86c-44 28 -58 93 -58 146c0 127 66 189 176 189h315v-63l-75 -18c11 -22 28 -42 28 -112c0 -65 -25 -191 -169 -191h-147c-16 0 -41 -3 -41 -28s18 -32 41 -32h199c86 0 137 -54 137 -143v-62c0 -64 -24 -154 -155 -154h-150
c-94 0 -161 50 -161 154v80l41 61c-28 19 -40 53 -40 87z" />
    <glyph glyph-name="gbreve.salt" horiz-adv-x="555" 
d="M178 708h50c0 -37 31 -64 64 -64c38 0 66 25 66 64h50c0 -74 -59 -114 -116 -114s-114 43 -114 114zM139 271c0 -90 -3 -195 102 -195c66 0 94 4 166 24v355h-166c-100 0 -102 -121 -102 -184zM47 270c0 172 62 268 187 268c106 0 217 -18 265 -25v-605
c0 -127 -87 -189 -172 -180l-254 24v61h249c53 0 85 31 85 95v123c-58 -26 -128 -39 -173 -39c-153 0 -187 115 -187 278z" />
    <glyph glyph-name="gdotaccent.salt" horiz-adv-x="555" 
d="M241 619v60c0 15 8 25 24 25h56c15 0 23 -11 23 -25v-60c0 -15 -9 -23 -23 -23h-56c-14 0 -24 9 -24 23zM139 271c0 -90 -3 -195 102 -195c66 0 94 4 166 24v355h-166c-100 0 -102 -121 -102 -184zM47 270c0 172 62 268 187 268c106 0 217 -18 265 -25v-605
c0 -127 -87 -189 -172 -180l-254 24v61h249c53 0 85 31 85 95v123c-58 -26 -128 -39 -173 -39c-153 0 -187 115 -187 278z" />
    <glyph glyph-name="gcircumflex.salt" horiz-adv-x="555" 
d="M149 594l115 132h80l102 -132h-77l-68 68l-74 -68h-78zM139 271c0 -90 -3 -195 102 -195c66 0 94 4 166 24v355h-166c-100 0 -102 -121 -102 -184zM47 270c0 172 62 268 187 268c106 0 217 -18 265 -25v-605c0 -127 -87 -189 -172 -180l-254 24v61h249c53 0 85 31 85 95
v123c-58 -26 -128 -39 -173 -39c-153 0 -187 115 -187 278z" />
    <glyph glyph-name="f_f" unicode="&#xfb00;" horiz-adv-x="785" 
d="M19 448v66l99 17v89c0 57 9 156 129 156c49 0 92 -9 140 -24v-58c-1 0 -114 1 -114 1c-61 1 -63 -35 -63 -83v-81h287v99c0 64 12 156 132 156c49 0 91 -8 138 -24v-58c-1 0 -115 1 -115 1c-62 1 -63 -34 -63 -84v-90h138v-83h-140v-448h-92v448h-287v-448h-92v448h-97z
" />
    <glyph glyph-name="f_f_i" unicode="&#xfb03;" horiz-adv-x="981" 
d="M19 448v66l99 17v89c0 57 9 156 129 156c49 0 92 -9 140 -24v-58c-1 0 -114 1 -114 1c-61 1 -62 -35 -63 -83l-2 -81h270v49c0 119 78 205 202 206c49 0 153 -17 200 -32v-59c-1 0 -174 10 -174 10c-62 3 -136 -21 -136 -126v-48l356 -10v-521h-93v448h-264v-448h-92v448
h-269v-448h-92v448h-97z" />
    <glyph glyph-name="ffl" unicode="&#xfb04;" horiz-adv-x="1083" 
d="M19 448v66l99 17v89c0 57 9 156 129 156c49 0 92 -9 140 -24v-58c-1 0 -114 1 -114 1c-61 1 -63 -35 -63 -83l-2 -81h271v51c0 119 52 202 172 202h277v-589c0 -84 14 -100 54 -112c0 0 76 -21 83 -21v-62h-95c-95 0 -134 48 -134 189v516h-165c-62 0 -100 -22 -100 -123
v-51h139v-83h-141v-448h-92v448h-269v-448h-92v448h-97z" />
    <glyph glyph-name="c_t" horiz-adv-x="857" 
d="M37 261c0 232 75 272 177 272h388l19 147h73v-148h145v-85h-145v-251c0 -95 14 -102 55 -112c0 0 72 -19 74 -19v-64h-89c-93 0 -132 49 -132 189v257h-372c-60 0 -101 -7 -101 -190c0 -149 28 -179 100 -179c92 0 223 10 223 10v-65c-80 -24 -149 -29 -239 -30
c-100 0 -176 35 -176 268z" />
    <glyph glyph-name="s_t" unicode="&#xfb06;" horiz-adv-x="885" 
d="M37 350v48c0 82 37 134 140 134h448l19 148h73v-148h145v-81h-145v-255c0 -95 14 -102 55 -112c0 0 72 -19 74 -19v-64h-89c-93 0 -132 49 -132 189v259l-438 -1c-56 0 -58 -21 -58 -53v-41c0 -50 25 -51 58 -51h149c91 0 133 -56 133 -132v-45
c0 -109 -66 -131 -130 -131c-55 0 -242 12 -280 22v64h268c3 0 50 -5 50 48v37c0 32 -10 50 -50 50h-149c-94 0 -141 31 -141 134z" />
    <glyph glyph-name="t_t" horiz-adv-x="742" 
d="M19 449v62l95 21l20 148h72v-148h281l20 148h72v-148h145v-83h-145v-253c1 -95 14 -101 56 -112c0 0 71 -19 73 -19v-64h-88c-93 0 -133 49 -133 189v259h-281v-253c1 -95 14 -101 56 -112c0 0 71 -19 73 -19v-64h-89c-92 0 -132 49 -132 189v259h-95z" />
    <glyph glyph-name="f_t" horiz-adv-x="764" 
d="M19 448v66l95 17v99c0 64 12 156 132 156c49 0 91 -8 138 -24v-58c-1 0 -115 1 -115 1c-62 1 -63 -34 -63 -84v-89h303l19 148h73v-148h145v-83h-145v-253c1 -95 14 -101 55 -112c0 0 72 -19 74 -19v-64h-89c-92 0 -132 49 -132 189v259h-305v-449h-92v448h-93z" />
    <glyph glyph-name="t_y" horiz-adv-x="951" 
d="M19 449v62l95 21l20 148h72v-148h152c118 0 142 -32 170 -115l102 -289c16 -46 61 -39 63 -39l139 442h101l-219 -699l-76 -102h-64l95 270c-39 0 -100 18 -134 117l-96 269c-14 43 -35 63 -92 63h-141v-253c1 -95 14 -102 56 -112c0 0 71 -19 73 -19v-64h-89
c-92 0 -132 49 -132 189v259h-95z" />
    <glyph glyph-name="f_y" horiz-adv-x="975" 
d="M19 448v66l95 17v99c0 64 12 156 132 156c49 0 91 -17 138 -32v-59c-1 0 -115 10 -115 10c-62 5 -63 -34 -63 -84v-90h167c119 0 145 -32 174 -114l107 -288c15 -46 61 -39 62 -39l139 442h101l-219 -699l-77 -102h-64l96 270c-39 0 -101 18 -134 117l-100 268
c-15 43 -38 62 -95 62h-159v-448h-92v448h-93z" />
    <glyph glyph-name="kgreenlandic" unicode="&#x138;" horiz-adv-x="531" 
d="M56 0v531h92v-227h75l178 227h112l-207 -267l192 -264h-112l-166 222h-71l-1 -222h-92z" />
    <glyph glyph-name="Rcommaaccent" unicode="&#x156;" horiz-adv-x="596" 
d="M250 -150v57c0 16 8 24 23 24h54c16 0 21 -11 21 -24v-90c0 -89 -93 -69 -93 -69v33c27 -1 28 17 28 27v19h-10c-13 0 -23 8 -23 23zM150 385h218c47 0 88 4 88 125c0 118 -44 134 -88 134h-218v-259zM58 0v732h314c100 0 177 -54 177 -222c0 -188 -93 -205 -124 -212
l150 -298h-101l-145 293l-179 14v-307h-92z" />
    <glyph glyph-name="Itilde" unicode="&#x128;" horiz-adv-x="222" 
d="M-49 842c38 33 75 65 119 65c49 -2 77 -34 107 -35c26 -1 60 19 91 37l22 -47c-31 -26 -71 -66 -114 -64c-54 2 -72 35 -108 34c-44 -1 -59 -20 -95 -35zM75 0v732h92v-732h-92z" />
    <glyph glyph-name="Lcommaaccent" unicode="&#x13b;" horiz-adv-x="552" 
d="M256 -150v56c0 16 8 25 23 25h54c16 0 21 -11 21 -25v-89c0 -89 -93 -69 -93 -69v33c27 -1 28 16 28 26v20h-10c-13 0 -23 7 -23 23zM75 130v602h92v-591c0 -53 33 -52 62 -52h291v-89h-305c-69 0 -140 18 -140 130z" />
    <glyph glyph-name="Emacron" unicode="&#x112;" horiz-adv-x="567" 
d="M171 795v68h292v-68h-292zM74 129v467c0 106 67 139 135 136c0 0 300 -14 318 -16v-74h-309c-52 0 -52 -29 -52 -56v-176l319 -10v-75l-319 -10v-176c1 -53 33 -52 62 -52h299v-73c-16 -2 -308 -17 -308 -17c-66 -4 -145 13 -145 132z" />
    <glyph glyph-name="Gcommaaccent" unicode="&#x122;" horiz-adv-x="614" 
d="M270 -156v56c0 17 8 25 23 25h54c16 0 21 -11 21 -25v-89c0 -89 -93 -69 -93 -69v33c27 -1 28 17 28 27v19h-10c-13 0 -23 7 -23 23zM51 370c0 203 37 370 236 370c68 0 181 -12 261 -28v-73c-6 0 -149 13 -252 13c-126 0 -153 -88 -153 -284c0 -213 36 -283 154 -284
c74 -1 174 46 174 46v181h-150v61c41 12 95 24 174 24c21 0 44 0 68 -2v-394h-68l-22 49c-37 -23 -95 -53 -184 -54c-207 -4 -238 164 -238 375z" />
    <glyph glyph-name="Tbar" unicode="&#x166;" horiz-adv-x="579" 
d="M31 643v89h517v-89h-215v-202h114v-57h-114v-384h-92v384h-114v57h114v202h-210z" />
    <glyph glyph-name="rcommaaccent" unicode="&#x157;" horiz-adv-x="423" 
d="M51 -151v57c0 16 8 24 23 24h54c16 0 21 -11 21 -24v-90c0 -89 -93 -69 -93 -69v33c27 -1 28 17 28 26v20h-10c-13 0 -23 8 -23 23zM55 0v531h70l22 -67c54 35 108 73 185 73c28 0 58 -2 70 -8v-90c-12 3 -45 5 -74 5c-74 0 -116 -17 -181 -58v-386h-92z" />
    <glyph glyph-name="itilde" unicode="&#x129;" horiz-adv-x="204" 
d="M-68 641c38 33 76 65 119 65c49 -2 77 -34 107 -35c26 -1 61 19 91 37l23 -47c-32 -26 -71 -66 -115 -64c-54 2 -72 35 -108 34c-43 -1 -59 -19 -95 -35zM56 0v531h92v-531h-92z" />
    <glyph glyph-name="lcommaaccent" unicode="&#x13c;" horiz-adv-x="303" 
d="M120 -151v57c0 16 8 24 23 24h54c16 0 21 -10 21 -24v-89c0 -89 -93 -69 -93 -69v33c27 -1 28 16 28 26v20h-10c-13 0 -23 7 -23 22zM56 189v594h92v-588c0 -84 22 -103 54 -112c0 0 76 -21 83 -21v-62h-95c-80 0 -134 48 -134 189z" />
    <glyph glyph-name="emacron" unicode="&#x113;" horiz-adv-x="525" 
d="M128 595v68h292v-68h-292zM139 301h199c40 0 58 16 58 46c0 95 -17 105 -114 105c-103 0 -144 -2 -143 -151zM47 268c0 235 67 267 232 267c133 0 209 -13 209 -189c0 -82 -44 -126 -140 -126h-209c0 -117 26 -141 104 -141c89 0 160 -1 235 11v-67
c-80 -24 -173 -28 -256 -28c-135 0 -175 69 -175 273z" />
    <glyph glyph-name="gcommaaccent" unicode="&#x123;" horiz-adv-x="555" 
d="M138 344c0 -49 15 -112 85 -112h86c73 0 91 65 89 112c-2 67 -19 106 -90 106h-80c-75 0 -90 -55 -90 -106zM136 -111c0 -68 44 -75 80 -75h131c57 0 71 31 71 74v26c0 42 -33 62 -81 68l-148 19c-19 3 -53 8 -53 8v-120zM45 111c0 36 18 78 59 87c-44 28 -58 93 -58 146
c0 127 66 189 176 189h315v-63l-75 -18c11 -22 28 -42 28 -112c0 -65 -25 -191 -169 -191h-147c-16 0 -41 -5 -41 -30s19 -29 41 -32l187 -23c88 -11 149 -58 149 -147v-33c0 -64 -24 -154 -155 -154h-150c-94 0 -161 50 -161 154v82l43 60c-28 19 -42 51 -42 85zM225 617
v89c0 90 93 70 93 70v-33c-27 1 -28 -17 -28 -27v-20h10c13 0 23 -7 23 -22v-57c0 -16 -8 -24 -23 -24h-54c-16 0 -21 11 -21 24z" />
    <glyph glyph-name="gcommaaccent.salt" horiz-adv-x="555" 
d="M139 271c0 -90 -3 -195 102 -195c66 0 94 4 166 24v355h-166c-100 0 -102 -121 -102 -184zM47 270c0 172 62 268 187 268c106 0 217 -18 265 -25v-605c0 -127 -87 -189 -172 -180l-254 24v61h249c53 0 85 31 85 95v123c-58 -26 -128 -39 -173 -39
c-153 0 -187 115 -187 278zM240 617v89c0 90 93 70 93 70v-33c-27 1 -28 -17 -28 -27v-20h10c13 0 23 -7 23 -22v-57c0 -16 -8 -24 -23 -24h-54c-16 0 -21 11 -21 24z" />
    <glyph glyph-name="tbar" unicode="&#x167;" horiz-adv-x="369" 
d="M19 449v62l95 21l20 148h72v-148h145v-83h-145v-127h99v-57h-99v-69c1 -95 14 -101 56 -112c0 0 71 -19 73 -19v-64h-89c-92 0 -132 49 -132 189v75h-78v57h78v127h-95z" />
    <glyph glyph-name="Eng" unicode="&#x14a;" horiz-adv-x="677" 
d="M75 0v732h94l361 -552v552h92v-732v-81c0 -158 -106 -178 -225 -176v69c57 14 133 9 133 120v68l-361 560l-2 -560h-92z" />
    <glyph glyph-name="eng" unicode="&#x14b;" horiz-adv-x="555" 
d="M56 0v531h69l23 -61c59 35 108 70 189 70c110 0 162 -83 162 -174v-366l-1 -84c-7 -142 -106 -167 -172 -184l-31 48c43 22 110 48 112 132v88v366c0 62 -35 90 -81 90c-74 0 -111 -19 -178 -54v-402h-92z" />
    <glyph glyph-name="Amacron" unicode="&#x100;" horiz-adv-x="676" 
d="M208 797v67h292v-67h-292zM241 280h220l-108 320zM42 0l263 732h97l252 -732h-105l-60 193h-277l-63 -193h-107z" />
    <glyph glyph-name="Iogonek" unicode="&#x12e;" horiz-adv-x="222" 
d="M75 0v732h92v-732h-21c-82 -66 -68 -117 5 -118v-64c-113 -19 -196 116 -49 182h-27z" />
    <glyph glyph-name="Edotaccent" unicode="&#x116;" horiz-adv-x="567" 
d="M270 817v60c0 15 8 25 24 25h56c15 0 23 -11 23 -25v-60c0 -15 -9 -23 -23 -23h-56c-14 0 -24 9 -24 23zM74 129v467c0 106 67 139 135 136c0 0 300 -14 318 -16v-74h-309c-52 0 -52 -29 -52 -56v-176l319 -10v-75l-319 -10v-176c1 -53 33 -52 62 -52h299v-73
c-16 -2 -308 -17 -308 -17c-66 -4 -145 13 -145 132z" />
    <glyph glyph-name="Imacron" unicode="&#x12a;" horiz-adv-x="222" 
d="M-25 797v67h292v-67h-292zM75 0v732h92v-732h-92z" />
    <glyph glyph-name="Ncommaaccent" unicode="&#x145;" horiz-adv-x="679" 
d="M299 -151v57c0 16 8 24 22 24h54c16 0 22 -11 22 -24v-90c0 -89 -94 -69 -94 -69v33c27 -1 28 17 28 26v20h-10c-12 0 -22 8 -22 23zM75 0v732h94l363 -561v561h92v-732h-92l-364 560v-560h-93z" />
    <glyph glyph-name="Omacron" unicode="&#x14c;" horiz-adv-x="674" 
d="M202 797v67h292v-67h-292zM153 361c0 -241 46 -276 195 -276c145 0 193 41 193 276c0 280 -64 287 -193 287c-127 0 -195 -6 -195 -287zM61 361c0 343 119 376 287 376c173 0 285 -33 285 -376c0 -323 -105 -365 -285 -365s-287 32 -287 365z" />
    <glyph glyph-name="Kcommaaccent" unicode="&#x136;" horiz-adv-x="601" 
d="M259 -151v57c0 16 8 24 23 24h54c16 0 21 -11 21 -24v-90c0 -89 -93 -69 -93 -69v33c27 -1 27 17 27 26v20h-9c-13 0 -23 8 -23 23zM75 0v732h90v-322h76l218 322h110l-245 -365l245 -367h-110l-218 322h-75v-322h-91z" />
    <glyph glyph-name="Uogonek" unicode="&#x172;" horiz-adv-x="673" 
d="M75 320v412h92v-412c0 -233 68 -236 182 -236c97 0 176 11 176 236v412h93v-412c0 -309 -136 -324 -254 -325c-80 -65 -65 -116 7 -116v-65c-112 -18 -195 114 -52 181c-126 1 -244 16 -244 325z" />
    <glyph glyph-name="Utilde" unicode="&#x168;" horiz-adv-x="673" 
d="M176 838c38 33 76 65 119 65c49 -2 77 -34 107 -35c26 -1 60 19 91 37l23 -47c-32 -26 -72 -66 -115 -64c-54 2 -72 35 -108 34c-44 -1 -59 -20 -95 -35zM75 320v412h92v-412c0 -233 68 -236 182 -236c97 0 176 11 176 236v412h93v-412c0 -323 -148 -325 -269 -325
c-136 0 -274 -8 -274 325z" />
    <glyph glyph-name="Umacron" unicode="&#x16a;" horiz-adv-x="673" 
d="M200 797v67h292v-67h-292zM75 320v412h92v-412c0 -233 68 -236 182 -236c97 0 176 11 176 236v412h93v-412c0 -323 -148 -325 -269 -325c-136 0 -274 -8 -274 325z" />
    <glyph glyph-name="amacron" unicode="&#x101;" horiz-adv-x="519" 
d="M126 601v67h292v-67h-292zM129 138c0 -47 25 -60 57 -60c74 0 194 49 194 49v130l-196 -14c-41 -4 -55 -32 -55 -62v-43zM37 129v58c0 79 48 136 139 136c0 0 204 -1 204 0c0 0 1 57 0 58c0 60 -30 77 -79 77c-65 0 -164 -5 -247 -11v63c71 21 156 30 255 31
c91 1 163 -43 163 -159v-382h-70l-22 62c-3 -3 -117 -68 -205 -68c-81 1 -138 54 -138 135z" />
    <glyph glyph-name="iogonek" unicode="&#x12f;" horiz-adv-x="205" 
d="M55 0v531h92v-531h-19c-82 -66 -68 -117 4 -118v-64c-112 -19 -196 116 -48 182h-29zM47 615v63c0 16 8 26 24 26h65c15 0 23 -12 23 -26v-63c0 -15 -9 -23 -23 -23h-65c-14 0 -24 9 -24 23z" />
    <glyph glyph-name="edotaccent" unicode="&#x117;" horiz-adv-x="525" 
d="M221 619v60c0 15 8 25 24 25h56c15 0 23 -11 23 -25v-60c0 -15 -9 -23 -23 -23h-56c-14 0 -24 9 -24 23zM139 301h199c40 0 58 16 58 46c0 95 -17 105 -114 105c-103 0 -144 -2 -143 -151zM47 268c0 235 67 267 232 267c133 0 209 -13 209 -189c0 -82 -44 -126 -140 -126
h-209c0 -117 26 -141 104 -141c89 0 160 -1 235 11v-67c-80 -24 -173 -28 -256 -28c-135 0 -175 69 -175 273z" />
    <glyph glyph-name="imacron" unicode="&#x12b;" horiz-adv-x="204" 
d="M-44 596v68h292v-68h-292zM56 0v531h92v-531h-92z" />
    <glyph glyph-name="ncommaaccent" unicode="&#x146;" 
d="M229 -151v57c0 16 8 24 22 24h54c17 0 22 -11 22 -24v-90c0 -89 -94 -69 -94 -69v33c27 -1 28 17 28 26v20h-10c-12 0 -22 8 -22 23zM56 0v531h69l23 -61c57 35 108 70 189 70c110 0 162 -83 162 -174v-366h-92v366c0 62 -35 90 -81 90c-74 0 -111 -19 -178 -54v-402h-92
z" />
    <glyph glyph-name="omacron" unicode="&#x14d;" horiz-adv-x="565" 
d="M137 596v68h292v-68h-292zM139 258c0 -166 49 -178 144 -178c100 0 144 13 144 178c0 179 -36 194 -144 194c-104 0 -144 -15 -144 -194zM47 258c0 217 60 278 236 278c180 0 236 -67 236 -278c0 -197 -55 -263 -236 -263c-180 0 -236 73 -236 263z" />
    <glyph glyph-name="kcommaaccent" unicode="&#x137;" horiz-adv-x="515" 
d="M215 -151v57c0 16 8 24 22 24h54c16 0 22 -11 22 -24v-90c0 -89 -94 -69 -94 -69v33c27 -1 28 17 28 26v20h-10c-12 0 -22 8 -22 23zM56 0v782h92v-437h37l189 186h123l-226 -227l226 -304h-112l-200 262h-37v-262h-92z" />
    <glyph glyph-name="uogonek" unicode="&#x173;" 
d="M434 0h44c-82 -66 -68 -118 4 -118v-65c-112 -19 -195 117 -48 183zM47 166v365h92v-366c0 -63 35 -89 81 -89c74 0 110 18 178 54v401h92v-531h-69l-23 60c-59 -34 -108 -69 -189 -69c-111 0 -162 83 -162 175z" />
    <glyph glyph-name="utilde" unicode="&#x169;" 
d="M98 641c38 33 76 65 119 65c49 -2 77 -34 107 -35c26 -1 61 19 91 37l23 -47c-31 -26 -71 -66 -115 -64c-54 2 -71 35 -108 34c-43 -1 -59 -19 -95 -35zM47 166v365h92v-366c0 -63 35 -89 81 -89c74 0 110 18 178 54v401h92v-531h-69l-23 60c-59 -34 -108 -69 -189 -69
c-111 0 -162 83 -162 175z" />
    <glyph glyph-name="umacron" unicode="&#x16b;" 
d="M122 596v68h292v-68h-292zM47 166v365h92v-366c0 -63 35 -89 81 -89c74 0 110 18 178 54v401h92v-531h-69l-23 60c-59 -34 -108 -69 -189 -69c-111 0 -162 83 -162 175z" />
    <glyph glyph-name="exclam.smcp" horiz-adv-x="270" 
d="M82 570h103l-9 -398h-86zM78 23v66c0 15 8 25 24 25h64c15 0 23 -11 23 -25v-66c0 -15 -9 -23 -23 -23h-64c-14 0 -24 9 -24 23z" />
    <glyph glyph-name="quotedbl.smcp" horiz-adv-x="396" 
d="M227 560v67h90v-67l-10 -134h-69zM79 560v67h91v-67l-10 -134h-69z" />
    <glyph glyph-name="numbersign.smcp" horiz-adv-x="577" 
d="M216 231h116l18 111h-116zM19 168l9 63h123l19 111h-124l9 63h125l29 168h64l-29 -168h116l28 168h64l-28 -168h136l-9 -63h-136l-19 -111h136l-9 -63h-137l-29 -169h-64l28 169h-115l-29 -169h-64l28 169h-122z" />
    <glyph glyph-name="dollar.smcp" horiz-adv-x="506" 
d="M47 384v32c0 127 82 158 170 159v67h71v-70c49 -4 115 -12 148 -16v-69s-193 1 -210 1c-48 0 -87 -8 -87 -72v-29c0 -42 29 -61 78 -61h86c110 0 155 -79 155 -147v-37c0 -111 -83 -153 -170 -149v-65h-71v68c-49 5 -133 12 -152 16v68c26 0 147 -1 222 -1
c30 0 78 11 78 64v34c0 39 -28 64 -72 64h-85c-120 0 -161 64 -161 143z" />
    <glyph glyph-name="percent.smcp" horiz-adv-x="843" 
d="M578 131c0 -45 13 -57 58 -57h46c54 0 60 15 60 57v60c0 47 -14 57 -58 57h-46c-53 0 -60 -13 -60 -57v-60zM504 126v70c0 85 29 126 130 126h53c98 0 129 -41 129 -126v-70c0 -85 -30 -126 -131 -126h-53c-98 0 -128 41 -128 126zM215 0l333 570h79l-332 -570h-80z
M101 378c0 -45 13 -57 58 -57h46c55 0 60 16 60 57v61c0 47 -14 57 -58 57h-46c-52 0 -60 -14 -60 -57v-61zM27 374v70c0 84 30 126 131 126h53c98 0 128 -42 128 -126v-70c0 -85 -29 -127 -130 -127h-53c-98 0 -129 42 -129 127z" />
    <glyph glyph-name="ampersand.smcp" horiz-adv-x="574" 
d="M139 113c20 -25 70 -54 114 -10l63 61l-93 114l-67 -53c-53 -42 -36 -89 -17 -112zM66 63c-59 81 -43 164 34 227l68 57l-40 50c-68 85 -11 163 50 172c76 12 156 3 238 -16v-65h-172c-60 0 -61 -25 -27 -66l164 -200l87 75l31 -35l-42 -84l-24 -23l119 -155h-105l-78 97
l-65 -63c-61 -55 -174 -61 -238 29z" />
    <glyph glyph-name="quotesingle.smcp" horiz-adv-x="249" 
d="M79 560v67h91v-67l-10 -134h-70z" />
    <glyph glyph-name="asterisk.smcp" horiz-adv-x="435" 
d="M248 412l119 76l23 -39l-92 -97zM203 313l43 66l110 -92l-24 -36zM173 558l43 16l73 -119l-71 -30zM111 254l25 136l75 -18l-59 -131zM47 406v44l139 28l4 -77z" />
    <glyph glyph-name="zero.smcp" horiz-adv-x="579" 
d="M157 170c0 -63 45 -81 89 -81h93c59 0 83 32 83 81v229c0 43 -15 82 -84 82h-93c-70 0 -88 -37 -88 -82v-229zM65 162v246c0 112 77 162 172 162h110c154 0 167 -114 167 -162v-246c0 -119 -68 -162 -167 -162h-110c-91 0 -172 42 -172 162z" />
    <glyph glyph-name="one.smcp" horiz-adv-x="340" 
d="M37 424v63l137 85h92v-572h-92v473z" />
    <glyph glyph-name="two.smcp" horiz-adv-x="512" 
d="M37 482v65c99 14 114 25 231 25c142 0 198 -73 198 -190c0 -157 -186 -262 -250 -293h246v-89h-418v83c99 72 326 162 326 299c0 68 -30 104 -121 101c-42 0 -212 -1 -212 -1z" />
    <glyph glyph-name="three.smcp" horiz-adv-x="509" 
d="M28 485v66c69 24 185 24 276 22c88 -2 136 -71 136 -144v-33c0 -56 -18 -100 -52 -112c35 -20 52 -60 52 -118v-25c0 -86 -42 -145 -141 -146c-89 -1 -197 -3 -266 21v67h235c37 0 78 8 78 64v23c0 57 -35 69 -74 70l-191 5v78l191 4c50 1 76 13 76 66v30
c0 45 -28 62 -76 62h-244z" />
    <glyph glyph-name="four.smcp" horiz-adv-x="546" 
d="M19 180l217 390h105l-189 -345h200v153l37 78h55v-231h84v-73l-84 -18v-132h-92v132h-297z" />
    <glyph glyph-name="five.smcp" horiz-adv-x="539" 
d="M71 23v69h245c62 0 76 27 76 68v51c0 30 1 64 -75 64h-92c-36 0 -69 -18 -69 -67h-84l17 362h369v-89h-283l-7 -155c16 19 40 32 65 32h92c118 0 159 -56 159 -146v-60c0 -114 -74 -152 -159 -153c-99 -1 -171 1 -254 24z" />
    <glyph glyph-name="six.smcp" horiz-adv-x="546" 
d="M153 262c0 -43 -3 -174 78 -174h113c32 0 55 7 55 52v78c0 37 -19 44 -55 44h-191zM61 300c0 220 87 275 158 276c79 1 177 -5 254 -15v-74h-245c-65 0 -75 -106 -75 -153c63 8 145 12 203 12c106 0 135 -58 135 -128v-86c0 -96 -65 -133 -138 -133h-128
c-91 0 -164 49 -164 301z" />
    <glyph glyph-name="seven.smcp" horiz-adv-x="476" 
d="M28 481v89h390l30 -52l-198 -518h-101l185 481h-306z" />
    <glyph glyph-name="eight.smcp" horiz-adv-x="573" 
d="M162 385c0 -46 30 -54 57 -54h138c52 0 56 28 56 53v42c0 52 -16 62 -57 62h-129c-45 0 -65 0 -65 -62v-41zM162 136c0 -36 14 -49 66 -49h126c33 0 58 11 58 49v57c0 41 -23 54 -56 54h-137c-33 0 -57 -9 -57 -53v-58zM70 130v70c0 58 36 68 67 78
c-50 17 -67 71 -67 112v43c0 109 48 142 138 142h166c84 0 130 -43 130 -142v-43c0 -17 -2 -81 -58 -93c42 -8 58 -63 58 -97v-70c0 -103 -74 -130 -129 -130h-168c-133 0 -137 86 -137 130z" />
    <glyph glyph-name="nine.smcp" horiz-adv-x="546" 
d="M148 357c0 -37 18 -44 55 -44h191c0 43 3 174 -78 174h-113c-33 0 -55 -7 -55 -53v-77zM56 356v87c0 96 65 133 138 133h128c90 -1 164 -49 164 -301c0 -220 -84 -275 -155 -276c-79 -1 -178 1 -257 15v74h245c65 0 75 106 75 153c-65 -8 -145 -12 -203 -12
c-106 0 -135 58 -135 127z" />
    <glyph glyph-name="question.smcp" horiz-adv-x="462" 
d="M136 23v66c0 15 8 25 24 25h62c18 0 25 -9 25 -25v-66c0 -18 -11 -23 -25 -23h-62c-14 0 -24 9 -24 23zM19 483v73c73 11 144 21 230 17c115 0 177 -64 177 -162v-41c0 -103 -89 -157 -192 -140c0 -2 -2 -55 0 -58h-85v132c44 0 64 -1 105 0c35 2 80 20 80 65v39
c0 45 -25 75 -91 75h-224z" />
    <glyph glyph-name="at.smcp" horiz-adv-x="850" 
d="M312 163c0 -21 26 -47 58 -46c54 -1 110 26 154 51v111l-156 -14c-37 -4 -56 -28 -56 -62v-40zM61 45v336c0 49 11 173 178 173h209c75 0 159 -28 159 -145v-367h-65l-16 62c-2 0 -80 -71 -172 -71c-76 -2 -128 53 -128 121v50c0 83 48 135 134 135c63 0 164 -1 164 0
c0 0 1 67 0 67c0 52 -27 63 -78 63h-207c-48 0 -94 -10 -94 -90v-331c0 -90 54 -105 94 -105h345c82 0 103 37 103 105v497c0 77 -42 114 -103 114h-404v58c48 10 166 28 292 27h112c107 -2 187 -62 187 -199v-497c0 -112 -46 -190 -186 -190h-346c-105 0 -178 61 -178 187z
" />
    <glyph glyph-name="a.smcp" horiz-adv-x="595" 
d="M221 227h162l-77 219zM33 0l224 570h99l207 -570h-99l-55 142h-219l-58 -142h-99z" />
    <glyph glyph-name="b.smcp" horiz-adv-x="546" 
d="M167 336h170c58 0 73 22 73 78c0 63 -44 71 -73 71h-170v-149zM167 87h170c32 0 75 7 75 80c0 51 -16 87 -75 87c0 0 -140 -1 -170 0v-167zM75 0v571h265c124 0 162 -78 162 -153c0 -74 -25 -108 -67 -127c35 -13 70 -53 70 -129c0 -93 -39 -162 -165 -162h-265z" />
    <glyph glyph-name="c.smcp" horiz-adv-x="518" 
d="M51 295c0 151 37 283 209 283c52 0 171 -12 226 -26v-70c-15 3 -152 12 -217 12c-102 0 -126 -76 -126 -199c0 -108 11 -213 126 -215c75 2 217 12 217 12v-68c-60 -15 -143 -28 -226 -28c-185 0 -209 155 -209 299z" />
    <glyph glyph-name="d.smcp" horiz-adv-x="598" 
d="M167 88h157c106 0 131 92 131 195c0 142 -55 201 -131 201h-157v-396zM75 0v572h253c177 -2 219 -161 219 -289c0 -284 -154 -283 -219 -283h-253z" />
    <glyph glyph-name="e.smcp" horiz-adv-x="515" 
d="M75 89v386c0 64 43 96 110 96c0 0 274 -10 288 -13v-74h-274c-30 0 -32 -8 -32 -32v-123l274 -8v-73l-274 -7v-123c0 -30 15 -32 36 -32h270v-73c-17 -4 -308 -15 -308 -15c-54 0 -90 34 -90 91z" />
    <glyph glyph-name="f.smcp" horiz-adv-x="515" 
d="M75 0v475c0 64 43 96 110 96c0 0 274 -10 288 -13v-74h-274c-30 0 -31 -11 -32 -32v-129l274 -8v-73l-274 -7v-235h-92z" />
    <glyph glyph-name="g.smcp" horiz-adv-x="575" 
d="M51 286c0 184 42 292 210 293c52 1 190 -12 249 -25v-72c-66 6 -145 12 -234 12c-97 0 -133 -34 -133 -206c0 -74 17 -207 127 -207c74 0 143 32 162 51v104h-157v57c40 11 101 23 182 23c21 0 43 -1 67 -3v-313h-70l-19 44c-48 -34 -112 -51 -175 -51
c-206 -1 -209 243 -209 293z" />
    <glyph glyph-name="h.smcp" horiz-adv-x="595" 
d="M75 -1v571h92v-250h281v250h92v-571h-92v231h-281v-231h-92z" />
    <glyph glyph-name="i.smcp" horiz-adv-x="222" 
d="M75 0v570h92v-570h-92z" />
    <glyph glyph-name="j.smcp" horiz-adv-x="333" 
d="M33 21l3 69c97 -14 147 -10 150 87v393h92v-405c0 -46 -5 -116 -58 -147c-62 -36 -138 -26 -187 3z" />
    <glyph glyph-name="k.smcp" horiz-adv-x="563" 
d="M75 -1v571h90v-248h69l186 248h111l-217 -290l217 -281h-111l-188 237h-67v-237h-90z" />
    <glyph glyph-name="l.smcp" horiz-adv-x="498" 
d="M75 95v475h92v-448c-1 -32 16 -33 44 -33h255v-89h-296c-57 0 -95 33 -95 95z" />
    <glyph glyph-name="m.smcp" horiz-adv-x="742" 
d="M51 0l55 571h116l151 -427l151 427h114l53 -571h-90l-39 419l-145 -419h-85l-148 419l-44 -419h-89z" />
    <glyph glyph-name="n.smcp" horiz-adv-x="602" 
d="M75 0v571h89l292 -402v402h91v-571h-88l-292 406v-406h-92z" />
    <glyph glyph-name="o.smcp" horiz-adv-x="606" 
d="M143 285c0 -182 48 -201 160 -201c89 0 160 4 160 203c0 198 -55 199 -160 199c-90 0 -160 2 -160 -201zM51 280c0 244 86 295 252 295c163 0 252 -32 252 -288c0 -245 -84 -292 -252 -292c-161 0 -252 36 -252 285z" />
    <glyph glyph-name="p.smcp" horiz-adv-x="528" 
d="M149 298h175c33 0 71 6 71 95c2 63 -36 90 -71 90h-175v-185zM56 0v569h273c75 0 158 -45 158 -167c0 -176 -93 -186 -155 -186c-5 -1 -182 11 -183 12v-228h-93z" />
    <glyph glyph-name="q.smcp" horiz-adv-x="606" 
d="M275 -33h60c53 -47 108 -42 166 -22v-89c-80 -26 -212 3 -226 111zM143 285c0 -182 48 -201 160 -201c89 0 160 4 160 203c0 198 -55 199 -160 199c-90 0 -160 2 -160 -201zM51 280c0 244 86 295 252 295c163 0 252 -32 252 -288c0 -245 -84 -292 -252 -292
c-161 0 -252 36 -252 285z" />
    <glyph glyph-name="r.smcp" 
d="M148 299h175c33 0 72 13 72 103c0 83 -62 83 -72 83h-175v-186zM56 0v571h270c69 0 161 -29 161 -166c0 -91 -28 -168 -103 -177l129 -228h-102l-119 218c-25 1 -143 12 -144 14v-232h-92z" />
    <glyph glyph-name="s.smcp" horiz-adv-x="546" 
d="M51 372v56c0 83 35 145 143 145c52 0 204 -10 274 -21v-69s-166 5 -267 5c-46 0 -58 -30 -58 -61v-51c0 -54 24 -52 58 -52h161c94 0 133 -59 133 -136v-64c0 -112 -72 -134 -133 -134c-48 0 -251 8 -289 23v67s182 -4 279 -4c38 0 51 49 51 49v61c0 33 -11 50 -51 50
h-160c-98 0 -141 40 -141 136z" />
    <glyph glyph-name="t.smcp" horiz-adv-x="517" 
d="M33 481v89h452v-89h-180v-481h-92v481h-180z" />
    <glyph glyph-name="u.smcp" horiz-adv-x="609" 
d="M75 260v310h93v-310c-1 -150 44 -176 149 -176c90 0 144 27 144 176v310h93v-310c0 -233 -116 -265 -237 -265c-136 0 -243 26 -242 265z" />
    <glyph glyph-name="v.smcp" horiz-adv-x="599" 
d="M33 570h99l171 -441l165 441h99l-214 -570h-100z" />
    <glyph glyph-name="w.smcp" horiz-adv-x="850" 
d="M33 570h99l155 -443l147 443h98l-61 -185l103 -258l150 443h94l-195 -570h-99l-97 249l-86 -249h-103z" />
    <glyph glyph-name="x.smcp" horiz-adv-x="570" 
d="M33 0l195 285l-193 285h116l135 -206l136 206h117l-196 -285l193 -285h-112l-139 206l-139 -206h-113z" />
    <glyph glyph-name="y.smcp" horiz-adv-x="573" 
d="M33 570h100l156 -281l151 281h101l-207 -378v-193h-92v193z" />
    <glyph glyph-name="z.smcp" horiz-adv-x="497" 
d="M33 0v89l311 392h-311v89h432v-89l-306 -392h306v-89h-432z" />
    <glyph glyph-name="grave.smcp" horiz-adv-x="242" 
d="M19 666h102l103 -135h-75z" />
    <glyph glyph-name="aogonek.smcp" horiz-adv-x="606" 
d="M221 227h162l-77 219zM33 0l224 570h99l207 -570h-25c-82 -66 -68 -117 5 -118v-64c-113 -19 -196 116 -49 182h-30l-55 142h-219l-58 -142h-99z" />
    <glyph glyph-name="rcommaaccent.smcp" 
d="M223 -151v57c0 16 8 24 22 24h54c16 0 22 -11 22 -24v-90c0 -89 -94 -69 -94 -69v33c27 -1 28 17 28 26v20h-10c-12 0 -22 8 -22 23zM148 299h175c33 0 72 13 72 103c0 83 -62 83 -72 83h-175v-186zM56 0v571h270c69 0 161 -29 161 -166c0 -91 -28 -168 -103 -177
l129 -228h-102l-119 218c-25 1 -143 12 -144 14v-232h-92z" />
    <glyph glyph-name="itilde.smcp" horiz-adv-x="222" 
d="M-59 675c37 33 75 65 118 65c50 -2 77 -34 107 -35c27 -1 61 19 92 37l22 -47c-31 -26 -71 -66 -114 -64c-54 2 -72 35 -109 34c-43 -1 -58 -19 -94 -35zM75 0v570h92v-570h-92z" />
    <glyph glyph-name="lcommaaccent.smcp" horiz-adv-x="498" 
d="M232 -151v57c0 16 8 24 22 24h54c16 0 22 -11 22 -24v-90c0 -89 -94 -69 -94 -69v33c27 -1 28 17 28 26v20h-10c-12 0 -22 8 -22 23zM75 95v475h92v-448c-1 -32 16 -33 44 -33h255v-89h-296c-57 0 -95 33 -95 95z" />
    <glyph glyph-name="dieresis.smcp" horiz-adv-x="453" 
d="M302 581c0 29 24 53 53 53s52 -24 52 -53s-23 -53 -52 -53s-53 24 -53 53zM47 581c0 29 24 53 53 53s52 -24 52 -53s-23 -53 -52 -53s-53 24 -53 53z" />
    <glyph glyph-name="scaron.smcp" horiz-adv-x="546" 
d="M123 764h78l76 -68l66 68h77l-104 -131h-80zM51 372v56c0 83 35 145 143 145c52 0 204 -10 274 -21v-69s-166 5 -267 5c-46 0 -58 -30 -58 -61v-51c0 -54 24 -52 58 -52h161c94 0 133 -59 133 -136v-64c0 -112 -72 -134 -133 -134c-48 0 -251 8 -289 23v67s182 -4 279 -4
c38 0 51 49 51 49v61c0 33 -11 50 -51 50h-160c-98 0 -141 40 -141 136z" />
    <glyph glyph-name="emacron.smcp" horiz-adv-x="515" 
d="M140 632v67h292v-67h-292zM75 89v386c0 64 43 96 110 96c0 0 274 -10 288 -13v-74h-274c-30 0 -32 -8 -32 -32v-123l274 -8v-73l-274 -7v-123c0 -30 15 -32 36 -32h270v-73c-17 -4 -308 -15 -308 -15c-54 0 -90 34 -90 91z" />
    <glyph glyph-name="gcommaaccent.smcp" horiz-adv-x="575" 
d="M51 286c0 184 49 292 222 293c52 1 178 -12 237 -25v-72c-14 2 -209 13 -217 13c-105 0 -149 -31 -149 -207c0 -119 25 -200 137 -205c81 -4 125 10 151 35v117h-170v58c40 11 114 23 195 23c21 0 43 -1 67 -3v-313c-9 -3 -58 3 -70 0l-19 36c-48 -35 -106 -43 -169 -43
c-222 0 -215 243 -215 293zM253 -152v57c0 16 8 25 22 25h54c17 0 22 -11 22 -25v-89c0 -89 -94 -69 -94 -69v33c27 -1 28 16 28 26v20h-10c-12 0 -22 7 -22 22z" />
    <glyph glyph-name="tbar.smcp" horiz-adv-x="489" 
d="M19 481v89h452v-89h-180v-135h95v-57h-95v-289h-92v289h-99v57h99v135h-180z" />
    <glyph glyph-name="zcaron.smcp" horiz-adv-x="497" 
d="M100 762h78l76 -68l66 68h77l-103 -132h-80zM33 0v89l311 392h-311v89h432v-89l-306 -392h306v-89h-432z" />
    <glyph glyph-name="macron.smcp" horiz-adv-x="385" 
d="M47 523v67h292v-67h-292z" />
    <glyph glyph-name="degree.smcp" horiz-adv-x="295" 
d="M97 467c0 -28 23 -51 51 -51s51 23 51 51s-23 51 -51 51s-51 -23 -51 -51zM47 467c0 57 45 103 101 103s101 -46 101 -103s-45 -103 -101 -103s-101 46 -101 103z" />
    <glyph glyph-name="acute.smcp" horiz-adv-x="242" 
d="M19 531l102 135h103l-130 -135h-75z" />
    <glyph glyph-name="caron.smcp" horiz-adv-x="389" 
d="M47 688h67l77 -85l83 85h69l-114 -157h-80z" />
    <glyph glyph-name="eng.smcp" horiz-adv-x="602" 
d="M74 0v571h89l292 -402v402h91v-571v-59c-3 -100 -81 -154 -198 -153v72c47 0 108 27 108 86v57l-290 403v-406h-92z" />
    <glyph glyph-name="amacron.smcp" horiz-adv-x="595" 
d="M160 630v68h292v-68h-292zM221 227h162l-77 219zM33 0l224 570h99l207 -570h-99l-55 142h-219l-58 -142h-99z" />
    <glyph glyph-name="aacute.smcp" horiz-adv-x="595" 
d="M269 630l103 134h102l-130 -134h-75zM221 227h162l-77 219zM33 0l224 570h99l207 -570h-99l-55 142h-219l-58 -142h-99z" />
    <glyph glyph-name="acircumflex.smcp" horiz-adv-x="595" 
d="M158 630l115 132h80l102 -132h-77l-68 68l-74 -68h-78zM221 227h162l-77 219zM33 0l224 570h99l207 -570h-99l-55 142h-219l-58 -142h-99z" />
    <glyph glyph-name="atilde.smcp" horiz-adv-x="595" 
d="M137 675c37 33 75 65 119 65c49 -2 77 -34 106 -35c27 -1 61 19 92 37l22 -47c-31 -26 -71 -66 -114 -64c-54 2 -72 35 -109 34c-43 -1 -58 -19 -94 -35zM221 227h162l-77 219zM33 0l224 570h99l207 -570h-99l-55 142h-219l-58 -142h-99z" />
    <glyph glyph-name="adieresis.smcp" horiz-adv-x="595" 
d="M381 683c0 29 24 53 53 53c30 0 53 -24 53 -53s-23 -53 -53 -53c-29 0 -53 24 -53 53zM126 683c0 29 24 53 54 53c29 0 52 -24 52 -53s-23 -53 -52 -53c-30 0 -54 24 -54 53zM221 227h162l-77 219zM33 0l224 570h99l207 -570h-99l-55 142h-219l-58 -142h-99z" />
    <glyph glyph-name="aring.smcp" horiz-adv-x="595" 
d="M256 667c0 -29 24 -51 52 -51c29 0 51 22 51 51c0 28 -22 52 -51 52c-28 0 -52 -24 -52 -52zM206 667c0 57 46 103 102 103s101 -46 101 -103c0 -46 -28 -84 -68 -97h15l207 -570h-99l-55 142h-219l-58 -142h-99l224 570h19c-40 13 -70 51 -70 97zM221 227h162l-77 219z
" />
    <glyph glyph-name="ae.smcp" horiz-adv-x="784" 
d="M237 234h115v236zM22 0l232 476c40 86 117 93 211 94c0 0 267 -10 281 -13v-73h-267c-31 0 -32 -11 -34 -33v-127l268 -7v-73l-268 -8v-120c0 -29 16 -31 38 -31l263 -1v-72c-17 -4 -297 -14 -297 -14c-59 -2 -97 30 -97 88v66h-153l-76 -152h-101z" />
    <glyph glyph-name="iogonek.smcp" horiz-adv-x="222" 
d="M75 0v570h92v-570h-19c-81 -66 -67 -117 5 -118v-64c-112 -19 -195 116 -49 182h-29z" />
    <glyph glyph-name="ccaron.smcp" horiz-adv-x="518" 
d="M142 774h78l75 -68l67 68h77l-104 -131h-80zM51 295c0 151 37 283 209 283c52 0 171 -12 226 -26v-70c-15 3 -152 12 -217 12c-102 0 -126 -76 -126 -199c0 -108 11 -213 126 -215c75 2 217 12 217 12v-68c-60 -15 -143 -28 -226 -28c-185 0 -209 155 -209 299z" />
    <glyph glyph-name="eacute.smcp" horiz-adv-x="515" 
d="M248 632l103 134h102l-130 -134h-75zM75 89v386c0 64 43 96 110 96c0 0 274 -10 288 -13v-74h-274c-30 0 -32 -8 -32 -32v-123l274 -8v-73l-274 -7v-123c0 -30 15 -32 36 -32h270v-73c-17 -4 -308 -15 -308 -15c-54 0 -90 34 -90 91z" />
    <glyph glyph-name="eogonek.smcp" horiz-adv-x="515" 
d="M75 89v386c0 64 43 96 110 96c0 0 274 -10 288 -13v-74h-274c-30 0 -32 -8 -32 -32v-123l274 -8v-73l-274 -7v-123c0 -30 15 -32 36 -32h270v-73c-82 -66 -68 -118 5 -118v-65c-111 -18 -193 112 -56 179c-88 -5 -257 -11 -257 -11c-54 0 -90 34 -90 91z" />
    <glyph glyph-name="edieresis.smcp" horiz-adv-x="515" 
d="M359 685c0 29 24 52 53 52c30 0 53 -23 53 -52s-23 -53 -53 -53c-29 0 -53 24 -53 53zM104 685c0 29 24 52 53 52c30 0 53 -23 53 -52s-23 -53 -53 -53c-29 0 -53 24 -53 53zM75 89v386c0 64 43 96 110 96c0 0 274 -10 288 -13v-74h-274c-30 0 -32 -8 -32 -32v-123
l274 -8v-73l-274 -7v-123c0 -30 15 -32 36 -32h270v-73c-17 -4 -308 -15 -308 -15c-54 0 -90 34 -90 91z" />
    <glyph glyph-name="edotaccent.smcp" horiz-adv-x="515" 
d="M242 655v60c0 15 8 25 24 25h56c15 0 23 -11 23 -25v-60c0 -15 -9 -23 -23 -23h-56c-14 0 -24 9 -24 23zM75 89v386c0 64 43 96 110 96c0 0 274 -10 288 -13v-74h-274c-30 0 -32 -8 -32 -32v-123l274 -8v-73l-274 -7v-123c0 -30 15 -32 36 -32h270v-73
c-17 -4 -308 -15 -308 -15c-54 0 -90 34 -90 91z" />
    <glyph glyph-name="iacute.smcp" horiz-adv-x="222" 
d="M89 630l102 134h103l-130 -134h-75zM75 0v570h92v-570h-92z" />
    <glyph glyph-name="icircumflex.smcp" horiz-adv-x="222" 
d="M-22 630l114 132h80l102 -132h-77l-67 68l-74 -68h-78zM75 0v570h92v-570h-92z" />
    <glyph glyph-name="imacron.smcp" horiz-adv-x="222" 
d="M-18 630v68h292v-68h-292zM75 0v570h92v-570h-92z" />
    <glyph glyph-name="dcroat.smcp" horiz-adv-x="594" 
d="M179 88h129c107 0 133 88 133 195c0 145 -51 198 -128 198h-134v-163h94v-56h-94v-174zM19 262v56h65v254c10 1 224 -1 245 -1c170 0 210 -160 210 -288c0 -285 -162 -283 -214 -283h-241v262h-65z" />
    <glyph glyph-name="ncommaaccent.smcp" horiz-adv-x="602" 
d="M262 -151v57c0 16 8 24 22 24h54c16 0 22 -11 22 -24v-90c0 -89 -94 -69 -94 -69v33c27 -1 28 17 28 26v20h-10c-12 0 -22 8 -22 23zM75 0v571h89l292 -402v402h91v-571h-88l-292 406v-406h-92z" />
    <glyph glyph-name="omacron.smcp" horiz-adv-x="606" 
d="M158 644v68h292v-68h-292zM143 285c0 -182 48 -201 160 -201c89 0 160 4 160 203c0 198 -55 199 -160 199c-90 0 -160 2 -160 -201zM51 280c0 244 86 295 252 295c163 0 252 -32 252 -288c0 -245 -84 -292 -252 -292c-161 0 -252 36 -252 285z" />
    <glyph glyph-name="kcommaaccent.smcp" horiz-adv-x="563" 
d="M238 -152v56c0 17 8 25 22 25h54c17 0 22 -11 22 -25v-89c0 -89 -94 -69 -94 -69v33c27 -1 28 17 28 27v19h-10c-12 0 -22 7 -22 23zM75 -1v571h90v-248h69l186 248h111l-217 -290l217 -281h-111l-188 237h-67v-237h-90z" />
    <glyph glyph-name="ocircumflex.smcp" horiz-adv-x="606" 
d="M152 631l114 131h80l102 -131h-77l-67 68l-74 -68h-78zM143 285c0 -182 48 -201 160 -201c89 0 160 4 160 203c0 198 -55 199 -160 199c-90 0 -160 2 -160 -201zM51 280c0 244 86 295 252 295c163 0 252 -32 252 -288c0 -245 -84 -292 -252 -292c-161 0 -252 36 -252 285
z" />
    <glyph glyph-name="otilde.smcp" horiz-adv-x="606" 
d="M146 680c37 33 75 65 118 65c50 -2 77 -34 107 -35c27 -1 61 19 92 37l22 -47c-31 -26 -71 -66 -114 -64c-54 2 -72 35 -109 34c-43 -1 -58 -20 -94 -35zM143 285c0 -182 48 -201 160 -201c89 0 160 4 160 203c0 198 -55 199 -160 199c-90 0 -160 2 -160 -201zM51 280
c0 244 86 295 252 295c163 0 252 -32 252 -288c0 -245 -84 -292 -252 -292c-161 0 -252 36 -252 285z" />
    <glyph glyph-name="odieresis.smcp" horiz-adv-x="606" 
d="M375 688c0 29 24 52 53 52s52 -23 52 -52s-23 -53 -52 -53s-53 24 -53 53zM120 688c0 29 24 52 53 52s52 -23 52 -52s-23 -53 -52 -53s-53 24 -53 53zM143 285c0 -182 48 -201 160 -201c89 0 160 4 160 203c0 198 -55 199 -160 199c-90 0 -160 2 -160 -201zM51 280
c0 244 86 295 252 295c163 0 252 -32 252 -288c0 -245 -84 -292 -252 -292c-161 0 -252 36 -252 285z" />
    <glyph glyph-name="oslash.smcp" horiz-adv-x="594" 
d="M187 109c25 -21 61 -25 112 -25c89 0 156 4 156 203c0 69 -7 113 -20 142c-77 -98 -173 -222 -248 -320zM144 285c0 -59 5 -101 16 -129c75 98 169 217 244 314c-25 16 -61 16 -105 16c-90 0 -155 2 -155 -201zM43 0c15 20 36 50 51 69c-28 43 -42 109 -42 211
c0 244 81 295 247 295c68 0 121 -5 161 -30c6 7 14 17 20 25h65c-14 -17 -33 -42 -46 -59c32 -42 48 -112 48 -224c0 -245 -80 -292 -248 -292c-73 0 -128 8 -169 38c-8 -10 -18 -24 -25 -33h-62z" />
    <glyph glyph-name="uogonek.smcp" horiz-adv-x="570" 
d="M75 260v310h93v-310c-1 -150 44 -176 149 -176c90 0 144 27 144 176v310h93v-310c0 -219 -103 -260 -216 -265c-78 -64 -63 -114 8 -115v-64c-111 -19 -193 112 -54 179c-124 4 -218 40 -217 265z" />
    <glyph glyph-name="uacute.smcp" horiz-adv-x="609" 
d="M277 630l102 134h103l-130 -134h-75zM75 260v310h93v-310c-1 -150 44 -176 149 -176c90 0 144 27 144 176v310h93v-310c0 -233 -116 -265 -237 -265c-136 0 -243 26 -242 265z" />
    <glyph glyph-name="ucircumflex.smcp" horiz-adv-x="609" 
d="M164 630l114 132h80l102 -132h-77l-67 68l-74 -68h-78zM75 260v310h93v-310c-1 -150 44 -176 149 -176c90 0 144 27 144 176v310h93v-310c0 -233 -116 -265 -237 -265c-136 0 -243 26 -242 265z" />
    <glyph glyph-name="udieresis.smcp" horiz-adv-x="609" 
d="M386 683c0 29 24 53 53 53s52 -24 52 -53s-23 -53 -52 -53s-53 24 -53 53zM131 683c0 29 24 53 53 53s52 -24 52 -53s-23 -53 -52 -53s-53 24 -53 53zM75 260v310h93v-310c-1 -150 44 -176 149 -176c90 0 144 27 144 176v310h93v-310c0 -233 -116 -265 -237 -265
c-136 0 -243 26 -242 265z" />
    <glyph glyph-name="utilde.smcp" horiz-adv-x="609" 
d="M75 260v310h93v-310c-1 -150 44 -176 149 -176c90 0 144 27 144 176v310h93v-310c0 -233 -116 -265 -237 -265c-136 0 -243 26 -242 265zM142 675c38 33 76 65 119 65c49 -2 77 -34 107 -35c26 -1 61 19 91 37l23 -47c-32 -26 -71 -66 -115 -64c-54 2 -72 35 -108 34
c-43 -1 -59 -19 -95 -35z" />
    <glyph glyph-name="umacron.smcp" horiz-adv-x="609" 
d="M75 260v310h93v-310c-1 -150 44 -176 149 -176c90 0 144 27 144 176v310h93v-310c0 -233 -116 -265 -237 -265c-136 0 -243 26 -242 265zM166 630v68h292v-68h-292z" />
    <glyph glyph-name="germandbls.smcp" horiz-adv-x="1020" 
d="M35 372c0 -96 42 -136 141 -136h151c39 0 51 -17 51 -50v-61c0 -28 -13 -49 -51 -49c-98 0 -270 4 -270 4v-67c37 -15 232 -23 280 -23c61 0 133 22 133 134v64c0 77 -40 136 -133 136h-152c-35 0 -58 -2 -58 52v58c0 31 11 54 58 54c100 0 258 -5 258 -5v69
c-70 10 -214 21 -266 21c-108 0 -142 -55 -142 -138v-63zM544 435c0 83 35 138 143 138c52 0 195 -11 266 -21v-69s-158 5 -259 5c-46 0 -58 -23 -58 -54v-58c0 -54 24 -52 58 -52h153c93 0 133 -59 133 -136v-64c0 -112 -73 -134 -133 -134c-49 0 -243 8 -281 23v67
s173 -4 270 -4c39 0 52 21 52 49v61c0 33 -12 50 -52 50h-151c-98 0 -141 40 -141 136v63z" />
    <glyph glyph-name="agrave.smcp" horiz-adv-x="595" 
d="M33 0l224 570h99l207 -570h-99l-55 142h-219l-58 -142h-99zM221 227h162l-77 219zM126 764h102l103 -134h-75z" />
    <glyph glyph-name="ccedilla.smcp" horiz-adv-x="518" 
d="M51 295c0 151 37 283 209 283c52 0 171 -12 226 -26v-70c-15 3 -152 12 -217 12c-102 0 -126 -76 -126 -199c0 -108 11 -213 126 -215c75 2 217 12 217 12v-68c-60 -15 -143 -28 -226 -28c-185 0 -209 155 -209 299zM187 -131l50 15c28 12 32 41 32 79h74
c0 -102 -22 -137 -104 -137h-52v43z" />
    <glyph glyph-name="eth.smcp" horiz-adv-x="594" 
d="M19 262v56h65v254c10 1 224 -1 245 -1c170 0 210 -160 210 -288c0 -285 -162 -283 -214 -283h-241v262h-65zM179 88h129c107 0 133 88 133 195c0 145 -51 198 -128 198h-134v-163h94v-56h-94v-174z" />
    <glyph glyph-name="egrave.smcp" horiz-adv-x="515" 
d="M75 89v386c0 64 43 96 110 96c0 0 274 -10 288 -13v-74h-274c-30 0 -32 -8 -32 -32v-123l274 -8v-73l-274 -7v-123c0 -30 15 -32 36 -32h270v-73c-17 -4 -308 -15 -308 -15c-54 0 -90 34 -90 91zM137 766h103l102 -134h-75z" />
    <glyph glyph-name="ecircumflex.smcp" horiz-adv-x="515" 
d="M75 89v386c0 64 43 96 110 96c0 0 274 -10 288 -13v-74h-274c-30 0 -32 -8 -32 -32v-123l274 -8v-73l-274 -7v-123c0 -30 15 -32 36 -32h270v-73c-17 -4 -308 -15 -308 -15c-54 0 -90 34 -90 91zM141 632l114 131h80l102 -131h-77l-67 68l-74 -68h-78zM335 763z" />
    <glyph glyph-name="igrave.smcp" horiz-adv-x="222" 
d="M75 0v570h92v-570h-92zM-40 764h102l103 -134h-75z" />
    <glyph glyph-name="idieresis.smcp" horiz-adv-x="222" 
d="M75 0v570h92v-570h-92zM-54 683c0 29 24 53 53 53s52 -24 52 -53s-23 -53 -52 -53s-53 24 -53 53zM201 683c0 29 24 53 53 53s52 -24 52 -53s-23 -53 -52 -53s-53 24 -53 53z" />
    <glyph glyph-name="ntilde.smcp" horiz-adv-x="602" 
d="M75 0v571h89l292 -402v402h91v-571h-88l-292 406v-406h-92zM132 676c38 33 76 65 119 65c49 -2 77 -34 107 -35c26 -1 60 19 91 37l23 -47c-32 -26 -72 -66 -115 -64c-54 2 -72 35 -108 34c-44 -1 -59 -20 -95 -35z" />
    <glyph glyph-name="ograve.smcp" horiz-adv-x="606" 
d="M51 280c0 244 86 295 252 295c163 0 252 -32 252 -288c0 -245 -84 -292 -252 -292c-161 0 -252 36 -252 285zM143 285c0 -182 48 -201 160 -201c89 0 160 4 160 203c0 198 -55 199 -160 199c-90 0 -160 2 -160 -201zM148 770h103l102 -135h-75z" />
    <glyph glyph-name="oacute.smcp" horiz-adv-x="606" 
d="M51 280c0 244 86 295 252 295c163 0 252 -32 252 -288c0 -245 -84 -292 -252 -292c-161 0 -252 36 -252 285zM143 285c0 -182 48 -201 160 -201c89 0 160 4 160 203c0 198 -55 199 -160 199c-90 0 -160 2 -160 -201zM277 635l103 135h102l-130 -135h-75z" />
    <glyph glyph-name="ugrave.smcp" horiz-adv-x="609" 
d="M75 260v310h93v-310c-1 -150 44 -176 149 -176c90 0 144 27 144 176v310h93v-310c0 -233 -116 -265 -237 -265c-136 0 -243 26 -242 265zM155 764h103l102 -134h-75z" />
    <glyph glyph-name="yacute.smcp" horiz-adv-x="573" 
d="M33 570h100l156 -281l151 281h101l-207 -378v-193h-92v193zM237 630l102 134h103l-130 -134h-75z" />
    <glyph glyph-name="thorn.smcp" horiz-adv-x="536" 
d="M70 0v569h91v-101h162c54 0 152 -23 152 -172c0 -171 -84 -188 -146 -188c-33 0 -117 2 -168 16v-124h-91zM161 198h156c47 0 66 17 66 98c0 64 -28 81 -66 86h-156v-184z" />
    <glyph glyph-name="quotesinglbase.smcp" horiz-adv-x="265" 
d="M74 29v73c0 21 10 32 29 32h70c22 0 28 -14 28 -32v-117c0 -117 -121 -94 -121 -94v43c35 -1 37 24 37 37v28h-14c-16 0 -29 9 -29 30z" />
    <glyph glyph-name="quotedblleft.smcp" horiz-adv-x="435" 
d="M240 368v117c0 118 123 94 123 94v-44c-35 1 -38 -24 -38 -37v-27h15c15 0 28 -9 28 -29v-74c0 -21 -9 -32 -28 -32h-70c-22 0 -30 14 -30 32zM67 368v117c0 118 121 94 121 94v-44c-35 1 -36 -24 -36 -37v-27h13c16 0 30 -9 30 -29v-74c0 -21 -11 -32 -30 -32h-70
c-21 0 -28 14 -28 32z" />
    <glyph glyph-name="quotedblright.smcp" horiz-adv-x="435" 
d="M67 476v73c0 21 9 32 29 32h70c21 0 29 -14 29 -32v-117c0 -118 -123 -94 -123 -94v43c35 -1 38 24 38 37v28h-14c-16 0 -29 9 -29 30zM240 476v73c0 21 11 32 30 32h70c21 0 28 -14 28 -32v-117c0 -118 -121 -94 -121 -94v43c35 -1 36 24 36 37v28h-13
c-15 0 -30 9 -30 30z" />
    <glyph glyph-name="quotedblbase.smcp" horiz-adv-x="435" 
d="M67 29v73c0 21 9 32 29 32h70c21 0 29 -14 29 -32v-117c0 -117 -123 -94 -123 -94v43c35 -1 38 24 38 37v28h-14c-16 0 -29 9 -29 30zM240 29v73c0 21 11 32 30 32h70c21 0 28 -14 28 -32v-117c0 -117 -121 -94 -121 -94v43c35 -1 36 24 36 37v28h-13c-15 0 -30 9 -30 30
z" />
    <glyph glyph-name="exclamdown.smcp" horiz-adv-x="270" 
d="M78 481v66c0 15 9 23 23 23h64c14 0 24 -9 24 -23v-66c0 -15 -8 -25 -24 -25h-64c-15 0 -23 11 -23 25zM83 0l8 398h86l9 -398h-103z" />
    <glyph glyph-name="ordmasculine.smcp" horiz-adv-x="420" 
d="M42 396c0 142 40 187 168 187c129 0 167 -45 167 -187c0 -128 -38 -177 -167 -177c-128 0 -168 49 -168 177zM54 129v61h311v-61h-311zM117 396c0 -104 35 -108 93 -108c62 0 91 2 93 108c1 114 -30 118 -93 118c-64 0 -93 -2 -93 -118z" />
    <glyph glyph-name="ordfeminine.smcp" horiz-adv-x="413" 
d="M57 131v61h329v-61h-329zM60 227l123 343h92l109 -343h-70l-26 86h-126l-28 -86h-74zM184 371h86l-40 133z" />
    <glyph glyph-name="Euro.smcp" horiz-adv-x="516" 
d="M15 198v52l65 5v53l-65 6v48l65 7c0 56 4 208 196 208c41 0 146 -12 205 -23v-74s-134 11 -198 11c-104 0 -110 -63 -110 -122l182 -6v-50l-182 -5v-53l182 -5v-52s-184 -4 -182 -6c0 -86 50 -108 110 -108c79 0 201 13 201 13v-74c-60 -19 -143 -28 -208 -28
c-56 0 -196 21 -196 197z" />
    <glyph glyph-name="lcaron.smcp" horiz-adv-x="496" 
d="M72 95v475h92v-448c-1 -32 17 -33 44 -33h255v-89h-296c-57 0 -95 33 -95 95zM232 544v67h80v-67l-10 -134h-59z" />
    <glyph glyph-name="sacute.smcp" horiz-adv-x="546" 
d="M51 372v56c0 83 35 145 143 145c52 0 204 -10 274 -21v-69s-166 5 -267 5c-46 0 -58 -30 -58 -61v-51c0 -54 24 -52 58 -52h161c94 0 133 -59 133 -136v-64c0 -112 -72 -134 -133 -134c-48 0 -251 8 -289 23v67s182 -4 279 -4c38 0 51 49 51 49v61c0 33 -11 50 -51 50
h-160c-98 0 -141 40 -141 136zM225 638l103 135h102l-130 -135h-75z" />
    <glyph glyph-name="scedilla.smcp" horiz-adv-x="546" 
d="M51 372v56c0 83 35 145 143 145c52 0 204 -10 274 -21v-69s-166 5 -267 5c-46 0 -58 -30 -58 -61v-51c0 -54 24 -52 58 -52h161c94 0 133 -59 133 -136v-64c0 -112 -72 -134 -133 -134c-48 0 -251 8 -289 23v67s182 -4 279 -4c38 0 51 49 51 49v61c0 33 -11 50 -51 50
h-160c-98 0 -141 40 -141 136zM127 -134l50 15c28 12 32 41 32 79h74c0 -102 -22 -137 -104 -137h-52v43z" />
    <glyph glyph-name="tcaron.smcp" horiz-adv-x="601" 
d="M107 481v89h452v-89h-180v-481h-92v481h-180zM184 773h78l75 -68l66 68h77l-103 -132h-80zM377 641z" />
    <glyph glyph-name="zacute.smcp" horiz-adv-x="497" 
d="M33 0v89l311 392h-311v89h432v-89l-306 -392h306v-89h-432zM213 630l103 134h102l-130 -134h-75z" />
    <glyph glyph-name="zdotaccent.smcp" horiz-adv-x="497" 
d="M33 0v89l311 392h-311v89h432v-89l-306 -392h306v-89h-432zM197 653v60c0 15 8 25 24 25h56c15 0 23 -11 23 -25v-60c0 -15 -9 -23 -23 -23h-56c-14 0 -24 9 -24 23z" />
    <glyph glyph-name="racute.smcp" 
d="M56 0v571h270c69 0 161 -29 161 -166c0 -91 -28 -168 -103 -177l129 -228h-102l-119 218c-25 1 -143 12 -144 14v-232h-92zM148 299h175c33 0 72 13 72 103c0 83 -62 83 -72 83h-175v-186zM227 631l102 134h103l-130 -134h-75z" />
    <glyph glyph-name="abreve.smcp" horiz-adv-x="595" 
d="M33 0l224 570h99l207 -570h-99l-55 142h-219l-58 -142h-99zM221 227h162l-77 219zM192 744h50c0 -38 31 -64 64 -64c38 0 66 24 66 64h50c0 -75 -59 -114 -116 -114c-58 0 -114 43 -114 114z" />
    <glyph glyph-name="lacute.smcp" horiz-adv-x="498" 
d="M75 95v475h92v-448c-1 -32 16 -33 44 -33h255v-89h-296c-57 0 -95 33 -95 95zM90 630l102 134h103l-130 -134h-75z" />
    <glyph glyph-name="cacute.smcp" horiz-adv-x="518" 
d="M51 295c0 151 37 283 209 283c52 0 171 -12 226 -26v-70c-15 3 -152 12 -217 12c-102 0 -126 -76 -126 -199c0 -108 11 -213 126 -215c75 2 217 12 217 12v-68c-60 -15 -143 -28 -226 -28c-185 0 -209 155 -209 299zM242 643l103 135h102l-130 -135h-75z" />
    <glyph glyph-name="ecaron.smcp" horiz-adv-x="515" 
d="M75 89v386c0 64 43 96 110 96c0 0 274 -10 288 -13v-74h-274c-30 0 -32 -8 -32 -32v-123l274 -8v-73l-274 -7v-123c0 -30 15 -32 36 -32h270v-73c-17 -4 -308 -15 -308 -15c-54 0 -90 34 -90 91zM131 762h78l76 -68l66 68h77l-103 -131h-80zM325 631z" />
    <glyph glyph-name="dcaron.smcp" horiz-adv-x="599" 
d="M126 0v572h253c177 -2 219 -161 219 -289c0 -284 -154 -283 -219 -283h-253zM218 88h156c107 0 132 92 132 195c0 142 -55 201 -132 201h-156v-396zM192 763h78l75 -68l66 68h77l-103 -131h-80zM385 632z" />
    <glyph glyph-name="nacute.smcp" horiz-adv-x="602" 
d="M75 0v571h89l292 -402v402h91v-571h-88l-292 406v-406h-92zM288 631l102 135h103l-130 -135h-75z" />
    <glyph glyph-name="ncaron.smcp" horiz-adv-x="602" 
d="M75 0v571h89l292 -402v402h91v-571h-88l-292 406v-406h-92zM165 762h78l76 -68l66 68h77l-103 -131h-80zM359 631z" />
    <glyph glyph-name="ohungarumlaut.smcp" horiz-adv-x="606" 
d="M51 280c0 244 86 295 252 295c163 0 252 -32 252 -288c0 -245 -84 -292 -252 -292c-161 0 -252 36 -252 285zM143 285c0 -182 48 -201 160 -201c89 0 160 4 160 203c0 198 -55 199 -160 199c-90 0 -160 2 -160 -201zM196 635l102 135h103l-130 -135h-75zM336 635l103 135
h102l-130 -135h-75z" />
    <glyph glyph-name="rcaron.smcp" 
d="M56 0v571h270c69 0 161 -29 161 -166c0 -91 -28 -168 -103 -177l129 -228h-102l-119 218c-25 1 -143 12 -144 14v-232h-92zM148 299h175c33 0 72 13 72 103c0 83 -62 83 -72 83h-175v-186zM111 762h77l76 -68l66 68h77l-103 -131h-80zM304 631z" />
    <glyph glyph-name="uring.smcp" horiz-adv-x="609" 
d="M75 260v310h93v-310c-1 -150 44 -176 149 -176c90 0 144 27 144 176v310h93v-310c0 -233 -116 -265 -237 -265c-136 0 -243 26 -242 265zM213 706c0 58 46 104 102 104s101 -46 101 -104c0 -56 -45 -102 -101 -102s-102 46 -102 102zM263 706c0 -28 23 -50 52 -50
c28 0 50 22 50 50c0 29 -22 52 -50 52c-29 0 -52 -23 -52 -52z" />
    <glyph glyph-name="uhungarumlaut.smcp" horiz-adv-x="609" 
d="M75 260v310h93v-310c-1 -150 44 -176 149 -176c90 0 144 27 144 176v310h93v-310c0 -233 -116 -265 -237 -265c-136 0 -243 26 -242 265zM202 630l103 134h102l-130 -134h-75zM343 630l103 134h102l-130 -134h-75z" />
    <glyph glyph-name="tcommaaccent.smcp" horiz-adv-x="517" 
d="M33 481v89h452v-89h-180v-481h-92v481h-180zM110 -140l50 15c28 12 32 41 32 79h74c0 -102 -22 -137 -104 -137h-52v43z" />
    <glyph glyph-name="lslash.smcp" horiz-adv-x="492" 
d="M19 224v68l64 26v252h92v-215l112 45v-67l-112 -46v-165c-1 -32 17 -33 44 -33h255v-89h-296c-57 0 -95 33 -95 95v155z" />
    <glyph glyph-name="questiondown.smcp" horiz-adv-x="492" 
d="M52 159v42c0 103 89 157 192 140c0 2 1 55 0 58h85v-133c-44 1 -64 2 -105 0c-35 -1 -80 -19 -80 -64v-40c0 -46 25 -76 91 -76h224v-72c-73 -11 -144 -21 -230 -17c-115 0 -177 64 -177 162zM231 482v66c0 18 11 23 25 23h62c14 0 24 -9 24 -23v-66
c0 -15 -8 -25 -24 -25h-62c-18 0 -25 9 -25 25z" />
    <glyph glyph-name="oe.smcp" horiz-adv-x="881" 
d="M37 280c0 244 86 295 252 295c79 0 138 -8 178 -47c16 28 49 43 92 43c0 0 274 -10 288 -13v-74h-274c-30 0 -32 -8 -32 -32v-123l274 -8v-73l-274 -7v-123c0 -30 15 -32 36 -32h270v-73c-17 -4 -308 -15 -308 -15c-36 0 -63 17 -76 45c-39 -38 -96 -48 -174 -48
c-161 0 -252 36 -252 285zM129 285c0 -182 48 -201 160 -201c89 0 160 4 160 203c0 198 -55 199 -160 199c-90 0 -160 2 -160 -201z" />
    <glyph glyph-name="ydieresis.smcp" horiz-adv-x="573" 
d="M33 570h100l156 -281l151 281h101l-207 -378v-193h-92v193zM106 683c0 29 25 53 54 53s52 -24 52 -53s-23 -53 -52 -53s-54 24 -54 53zM362 683c0 29 24 53 53 53s52 -24 52 -53s-23 -53 -52 -53s-53 24 -53 53z" />
    <glyph glyph-name="sterling.smcp" horiz-adv-x="515" 
d="M47 0v62l56 20v164h-56v50l57 16v74c0 92 35 185 197 185l169 -13v-74h-163c-91 0 -112 -32 -112 -100v-68l213 -15v-57h-213v-158h274v-86h-422z" />
    <glyph glyph-name="yen.smcp" horiz-adv-x="524" 
d="M19 571h103l140 -244l140 244h104l-184 -313h133v-60h-147v-29h147v-59h-147v-110h-92v110h-139v59h139v29h-139v60h123z" />
    <glyph glyph-name="perthousand.smcp" horiz-adv-x="1225" 
d="M27 374v70c0 84 30 126 131 126h53c98 0 128 -42 128 -126v-70c0 -85 -29 -127 -130 -127h-53c-98 0 -129 42 -129 127zM101 378c0 -45 13 -57 58 -57h46c55 0 60 16 60 57v61c0 47 -14 57 -58 57h-46c-52 0 -60 -14 -60 -57v-61zM215 0l333 570h79l-332 -570h-80z
M505 126v70c0 85 30 126 131 126h53c98 0 129 -41 129 -126v-70c0 -85 -30 -126 -131 -126h-53c-98 0 -129 41 -129 126zM579 131c0 -45 14 -57 59 -57h46c54 0 60 15 60 57v60c0 47 -15 57 -58 57h-46c-53 0 -61 -13 -61 -57v-60zM876 126v70c0 85 30 126 131 126h53
c98 0 129 -41 129 -126v-70c0 -85 -30 -126 -131 -126h-53c-98 0 -129 41 -129 126zM950 131c0 -45 14 -57 59 -57h45c55 0 61 15 61 57v60c0 47 -15 57 -59 57h-45c-53 0 -61 -13 -61 -57v-60z" />
    <glyph glyph-name="circumflex.smcp" horiz-adv-x="389" 
d="M47 531l114 131h80l102 -131h-77l-68 68l-73 -68h-78zM241 662z" />
    <glyph glyph-name="tilde.smcp" horiz-adv-x="432" 
d="M47 576c37 33 75 65 118 65c50 -2 77 -34 107 -35c27 -1 61 19 92 37l22 -47c-31 -26 -71 -66 -114 -64c-54 2 -72 35 -109 34c-43 -1 -58 -20 -94 -35z" />
    <glyph glyph-name="ring.smcp" horiz-adv-x="295" 
d="M47 632c0 57 45 103 101 103s101 -46 101 -103s-45 -103 -101 -103s-101 46 -101 103zM97 632c0 -28 23 -51 51 -51s51 23 51 51s-23 51 -51 51s-51 -23 -51 -51z" />
    <glyph glyph-name="hbar.smcp" horiz-adv-x="607" 
d="M31 400v54h49v116h92v-116h281v116h92v-116h47v-54h-47v-401h-92v232h-281v-232h-92v401h-49zM172 320h281v80h-281v-80z" />
    <glyph glyph-name="hcircumflex.smcp" horiz-adv-x="595" 
d="M75 -1v571h92v-250h281v250h92v-571h-92v231h-281v-231h-92zM154 630l115 132h80l102 -132h-77l-68 68l-74 -68h-78zM349 762z" />
    <glyph glyph-name="gbreve.smcp" horiz-adv-x="575" 
d="M51 286c0 184 42 292 210 293c52 1 190 -12 249 -25v-72c-66 6 -145 12 -234 12c-97 0 -133 -34 -133 -206c0 -74 17 -207 127 -207c74 0 143 32 162 51v104h-157v57c40 11 101 23 182 23c21 0 43 -1 67 -3v-313h-70l-19 44c-48 -34 -112 -51 -175 -51
c-206 -1 -209 243 -209 293zM202 753h50c0 -37 31 -64 64 -64c38 0 66 24 66 64h50c0 -74 -59 -114 -116 -114s-114 43 -114 114z" />
    <glyph glyph-name="jcircumflex.smcp" horiz-adv-x="333" 
d="M33 21l3 69c97 -14 147 -10 150 87v393h92v-405c0 -46 -5 -116 -58 -147c-62 -36 -138 -26 -187 3zM71 630l114 132h80l102 -132h-77l-67 68l-74 -68h-78zM265 762z" />
    <glyph glyph-name="cdotaccent.smcp" horiz-adv-x="518" 
d="M51 295c0 151 37 283 209 283c52 0 171 -12 226 -26v-70c-15 3 -152 12 -217 12c-102 0 -126 -76 -126 -199c0 -108 11 -213 126 -215c75 2 217 12 217 12v-68c-60 -15 -143 -28 -226 -28c-185 0 -209 155 -209 299zM255 666v60c0 15 8 25 24 25h56c15 0 23 -11 23 -25
v-60c0 -15 -9 -23 -23 -23h-56c-14 0 -24 9 -24 23z" />
    <glyph glyph-name="ccircumflex.smcp" horiz-adv-x="518" 
d="M51 295c0 151 37 283 209 283c52 0 171 -12 226 -26v-70c-15 3 -152 12 -217 12c-102 0 -126 -76 -126 -199c0 -108 11 -213 126 -215c75 2 217 12 217 12v-68c-60 -15 -143 -28 -226 -28c-185 0 -209 155 -209 299zM157 643l114 131h80l102 -131h-77l-68 68l-73 -68h-78
zM351 774z" />
    <glyph glyph-name="gdotaccent.smcp" horiz-adv-x="575" 
d="M51 286c0 184 42 292 210 293c52 1 190 -12 249 -25v-72c-66 6 -145 12 -234 12c-97 0 -133 -34 -133 -206c0 -74 17 -207 127 -207c74 0 143 32 162 51v104h-157v57c40 11 101 23 182 23c21 0 43 -1 67 -3v-313h-70l-19 44c-48 -34 -112 -51 -175 -51
c-206 -1 -209 243 -209 293zM263 662v60c0 15 8 25 24 25h56c15 0 23 -11 23 -25v-60c0 -15 -9 -23 -23 -23h-56c-14 0 -24 9 -24 23z" />
    <glyph glyph-name="gcircumflex.smcp" horiz-adv-x="575" 
d="M51 286c0 184 42 292 210 293c52 1 190 -12 249 -25v-72c-66 6 -145 12 -234 12c-97 0 -133 -34 -133 -206c0 -74 17 -207 127 -207c74 0 143 32 162 51v104h-157v57c40 11 101 23 182 23c21 0 43 -1 67 -3v-313h-70l-19 44c-48 -34 -112 -51 -175 -51
c-206 -1 -209 243 -209 293zM167 638l114 132h80l102 -132h-77l-68 68l-73 -68h-78zM361 770z" />
    <glyph glyph-name="ubreve.smcp" horiz-adv-x="609" 
d="M75 260v310h93v-310c-1 -150 44 -176 149 -176c90 0 144 27 144 176v310h93v-310c0 -233 -116 -265 -237 -265c-136 0 -243 26 -242 265zM200 744h50c0 -38 31 -64 64 -64c38 0 66 24 66 64h50c0 -75 -59 -114 -116 -114c-58 0 -114 43 -114 114z" />
    <glyph glyph-name="scircumflex.smcp" horiz-adv-x="546" 
d="M51 372v56c0 83 35 145 143 145c52 0 204 -10 274 -21v-69s-166 5 -267 5c-46 0 -58 -30 -58 -61v-51c0 -54 24 -52 58 -52h161c94 0 133 -59 133 -136v-64c0 -112 -72 -134 -133 -134c-48 0 -251 8 -289 23v67s182 -4 279 -4c38 0 51 49 51 49v61c0 33 -11 50 -51 50
h-160c-98 0 -141 40 -141 136zM110 638l115 132h80l102 -132h-77l-68 68l-74 -68h-78zM305 770z" />
    <glyph glyph-name="Idotaccent.smcp" horiz-adv-x="207" 
d="M52 661v60c0 15 8 25 24 25h56c15 0 23 -11 23 -25v-60c0 -15 -9 -23 -23 -23h-56c-14 0 -24 9 -24 23zM55 0v570h92v-570h-92z" />
    <glyph glyph-name="periodcentered.smcp" horiz-adv-x="269" 
d="M83 260v66c0 15 8 25 24 25h62c18 0 25 -9 25 -25v-66c0 -18 -11 -23 -25 -23h-62c-14 0 -24 9 -24 23z" />
    <glyph glyph-name="bullet.smcp" horiz-adv-x="311" 
d="M79 278v91c0 21 11 35 33 35h85c25 0 35 -13 35 -35v-91c0 -24 -15 -32 -35 -32h-85c-20 0 -33 12 -33 32z" />
    <glyph glyph-name="quoteleft.smcp" horiz-adv-x="276" 
d="M74 368v117c0 118 122 94 122 94v-44c-35 1 -37 -24 -37 -37v-28h14c16 0 28 -8 28 -28v-74c0 -21 -9 -32 -28 -32h-70c-22 0 -29 14 -29 32z" />
    <glyph glyph-name="quoteright.smcp" horiz-adv-x="276" 
d="M74 476v73c0 21 10 32 29 32h70c22 0 28 -14 28 -32v-117c0 -118 -121 -94 -121 -94v43c35 -1 37 24 37 37v28h-14c-16 0 -29 9 -29 30z" />
    <glyph glyph-name="uni1E02" unicode="&#x1e02;" horiz-adv-x="598" 
d="M75 0v732h287c148 0 195 -103 195 -192c0 -72 -23 -140 -95 -160c49 -10 101 -65 101 -173c0 -111 -46 -207 -200 -207h-288zM168 88h193c47 0 110 14 110 122c0 69 -32 130 -110 130h-193v-252zM168 426h192c68 0 105 37 105 111c0 89 -58 107 -105 107h-192v-218z
M255 817v60c0 15 8 25 24 25h56c15 0 23 -11 23 -25v-60c0 -15 -9 -23 -23 -23h-56c-14 0 -24 9 -24 23z" />
    <glyph glyph-name="uni1E03" unicode="&#x1e03;" horiz-adv-x="554" 
d="M55 0v785h90v-285c60 25 142 39 187 39c150 0 175 -132 175 -276c0 -133 -34 -269 -175 -269c-66 0 -158 42 -186 64l-21 -58h-70zM146 123c47 -21 104 -43 176 -43c60 0 93 58 93 184c0 156 -34 191 -93 191c-69 0 -116 -7 -176 -24v-308zM50 876v60c0 15 8 25 24 25h56
c15 0 23 -11 23 -25v-60c0 -15 -9 -23 -23 -23h-56c-14 0 -24 9 -24 23z" />
    <glyph glyph-name="uni1E0A" unicode="&#x1e0a;" horiz-adv-x="658" 
d="M75 0v732h282c221 0 259 -210 259 -369c0 -179 -70 -363 -259 -363h-282zM167 90h187c121 0 170 122 170 274c0 209 -64 280 -170 280h-187v-554zM266 824v60c0 15 8 25 24 25h56c15 0 23 -11 23 -25v-60c0 -15 -9 -23 -23 -23h-56c-14 0 -24 9 -24 23z" />
    <glyph glyph-name="Wgrave" unicode="&#x1e80;" horiz-adv-x="970" 
d="M42 732h99l200 -587l167 587h102l-63 -222l128 -370l173 592h99l-221 -732h-98l-127 354l-111 -354h-98zM335 927h103l102 -134h-75z" />
    <glyph glyph-name="Wacute" unicode="&#x1e82;" horiz-adv-x="970" 
d="M42 732h99l200 -587l167 587h102l-63 -222l128 -370l173 592h99l-221 -732h-98l-127 354l-111 -354h-98zM466 793l103 134h102l-130 -134h-75z" />
    <glyph glyph-name="uni1E0B" unicode="&#x1e0b;" horiz-adv-x="554" 
d="M47 263c0 145 24 276 174 276c45 0 127 -14 187 -39v285h91v-785h-70l-21 58c-28 -22 -120 -64 -187 -64c-141 0 -174 135 -174 269zM139 264c0 -126 33 -184 92 -184c72 0 129 22 177 43v308c-61 17 -108 24 -177 24c-58 0 -92 -35 -92 -191zM399 869v60
c0 15 8 25 24 25h56c15 0 23 -11 23 -25v-60c0 -15 -9 -23 -23 -23h-56c-14 0 -24 9 -24 23z" />
    <glyph glyph-name="Ygrave" unicode="&#x1ef2;" horiz-adv-x="637" 
d="M42 732h100l177 -375l195 375h100l-250 -481v-251h-92v251zM160 932h103l103 -135h-76z" />
    <glyph glyph-name="uni1E1E" unicode="&#x1e1e;" horiz-adv-x="567" 
d="M74 0v595c0 104 65 140 135 137c0 0 300 -14 318 -16v-74h-309c-52 0 -52 -29 -52 -56v-176l319 -10v-75l-319 -10v-315h-92zM264 817v60c0 15 8 25 24 25h56c15 0 23 -11 23 -25v-60c0 -15 -9 -23 -23 -23h-56c-14 0 -24 9 -24 23z" />
    <glyph glyph-name="uni1E1F" unicode="&#x1e1f;" horiz-adv-x="401" 
d="M19 448v66l93 17v99c0 64 12 156 132 156c49 0 91 -8 138 -24v-58c-1 0 -115 1 -115 1c-62 1 -63 -34 -63 -84v-90h140v-83h-140v-448h-92v448h-93zM203 887v60c0 15 8 25 24 25h56c15 0 23 -11 23 -25v-60c0 -15 -9 -23 -23 -23h-56c-14 0 -24 9 -24 23z" />
    <glyph glyph-name="uni1E40" unicode="&#x1e40;" horiz-adv-x="813" 
d="M51 0l53 732h127l175 -579l171 579h126l59 -732h-91l-46 568l-169 -568h-98l-174 568l-41 -568h-92zM352 820v60c0 15 8 25 24 25h56c15 0 23 -11 23 -25v-60c0 -15 -9 -23 -23 -23h-56c-14 0 -24 9 -24 23z" />
    <glyph glyph-name="uni1E41" unicode="&#x1e41;" horiz-adv-x="891" 
d="M56 0v531h69l23 -62c57 35 103 68 183 68c65 0 121 -28 144 -75c51 41 121 75 208 75c99 0 162 -71 162 -175v-362h-92v363c0 56 -34 90 -81 90c-72 0 -120 -12 -178 -52v-37v-364h-92v363c0 56 -35 90 -82 90c-71 0 -105 -18 -172 -53v-400h-92zM440 620v60
c0 15 8 25 24 25h56c15 0 23 -11 23 -25v-60c0 -15 -9 -23 -23 -23h-56c-14 0 -24 9 -24 23z" />
    <glyph glyph-name="uni1E56" unicode="&#x1e56;" horiz-adv-x="586" 
d="M58 0v732h304c83 0 183 -32 183 -216c0 -213 -106 -227 -183 -226c-40 1 -207 18 -212 20v-310h-92zM150 378h209c50 0 93 17 93 138c-2 119 -58 128 -93 128h-209v-266zM238 826v60c0 15 8 25 24 25h56c15 0 23 -11 23 -25v-60c0 -15 -9 -23 -23 -23h-56
c-14 0 -24 9 -24 23z" />
    <glyph glyph-name="wgrave" unicode="&#x1e81;" horiz-adv-x="807" 
d="M19 531h99l144 -407l126 407h96l-49 -163l108 -244l147 407h99l-194 -531h-97l-107 242l-80 -242h-101zM241 726h103l102 -134h-75z" />
    <glyph glyph-name="uni1E57" unicode="&#x1e57;" horiz-adv-x="554" 
d="M56 -270v801h70l21 -57c27 21 120 63 187 63c141 0 174 -137 174 -269c0 -141 -24 -276 -174 -276c-45 0 -128 14 -188 38v-300h-90zM147 100c60 -17 108 -24 177 -24c58 0 92 35 92 190c0 127 -33 185 -92 185c-72 0 -130 -22 -177 -43v-308zM245 630v60
c0 15 8 25 24 25h56c15 0 23 -11 23 -25v-60c0 -15 -9 -23 -23 -23h-56c-14 0 -24 9 -24 23z" />
    <glyph glyph-name="wacute" unicode="&#x1e83;" horiz-adv-x="807" 
d="M19 531h99l144 -407l126 407h96l-49 -163l108 -244l147 407h99l-194 -531h-97l-107 242l-80 -242h-101zM372 592l102 134h103l-130 -134h-75z" />
    <glyph glyph-name="uni1E60" unicode="&#x1e60;" horiz-adv-x="585" 
d="M61 492v65c0 145 86 181 198 181c67 1 215 -17 259 -25v-74c-64 4 -239 10 -249 10c-67 3 -116 -4 -116 -95v-58c0 -82 36 -90 95 -90h135c136 0 161 -97 161 -178v-63c0 -149 -103 -173 -202 -173c-70 0 -205 14 -259 26v74c40 -4 158 -11 251 -11c42 0 118 3 118 83v60
c0 53 -16 90 -78 90h-132c-165 0 -181 99 -181 178zM248 830v60c0 15 8 25 24 25h56c14 0 22 -11 22 -25v-60c0 -15 -8 -23 -22 -23h-56c-14 0 -24 9 -24 23z" />
    <glyph glyph-name="ygrave" unicode="&#x1ef3;" horiz-adv-x="560" 
d="M20 531h99l118 -403c17 -53 61 -39 63 -39l140 442h100l-221 -699l-74 -102h-61l89 270c-35 0 -99 12 -130 117zM121 730h102l103 -134h-75z" />
    <glyph glyph-name="Wdieresis" unicode="&#x1e84;" horiz-adv-x="970" 
d="M42 732h99l200 -587l167 587h102l-63 -222l128 -370l173 592h99l-221 -732h-98l-127 354l-111 -354h-98zM322 846c0 29 24 52 53 52s52 -23 52 -52s-23 -53 -52 -53s-53 24 -53 53zM577 846c0 29 24 52 53 52s52 -23 52 -52s-23 -53 -52 -53s-53 24 -53 53z" />
    <glyph glyph-name="wdieresis" unicode="&#x1e85;" horiz-adv-x="807" 
d="M19 531h99l144 -407l126 407h96l-49 -163l108 -244l147 407h99l-194 -531h-97l-107 242l-80 -242h-101zM229 645c0 29 24 52 53 52s52 -23 52 -52s-23 -53 -52 -53s-53 24 -53 53zM484 645c0 29 24 52 53 52s52 -23 52 -52s-23 -53 -52 -53s-53 24 -53 53z" />
    <glyph glyph-name="uni1E61" unicode="&#x1e61;" horiz-adv-x="506" 
d="M37 355v46c0 82 35 135 138 135c66 0 218 -9 267 -19v-66h-255c-56 0 -58 -21 -58 -52v-40c0 -50 25 -51 58 -51h149c91 0 133 -56 133 -132v-50c0 -109 -66 -131 -130 -131c-63 0 -242 12 -280 22v64h268c3 0 50 -5 50 48v42c0 32 -10 50 -50 50h-149
c-94 0 -141 31 -141 134zM220 629v60c0 15 8 25 24 25h56c15 0 23 -11 23 -25v-60c0 -15 -9 -23 -23 -23h-56c-14 0 -24 9 -24 23z" />
    <glyph glyph-name="Wcircumflex" unicode="&#x174;" horiz-adv-x="970" 
d="M42 732h99l200 -587l167 587h102l-63 -222l128 -370l173 592h99l-221 -732h-98l-127 354l-111 -354h-98zM356 793l114 131h80l103 -131h-77l-68 68l-74 -68h-78zM550 924z" />
    <glyph glyph-name="uni1E6A" unicode="&#x1e6a;" horiz-adv-x="582" 
d="M41 643v89h517v-89h-215v-643h-92v643h-210zM240 820v60c0 15 8 25 24 25h56c15 0 23 -11 23 -25v-60c0 -15 -9 -23 -23 -23h-56c-14 0 -24 9 -24 23z" />
    <glyph glyph-name="Ycircumflex" unicode="&#x176;" horiz-adv-x="637" 
d="M42 732h100l177 -375l195 375h100l-250 -481v-251h-92v251zM171 793l115 131h80l102 -131h-77l-68 68l-74 -68h-78zM366 924z" />
    <glyph glyph-name="ycircumflex" unicode="&#x177;" horiz-adv-x="560" 
d="M20 531h99l118 -403c17 -53 61 -39 63 -39l140 442h100l-221 -699l-74 -102h-61l89 270c-35 0 -99 12 -130 117zM132 596l114 132h80l102 -132h-77l-67 68l-74 -68h-78zM326 728z" />
    <glyph glyph-name="wcircumflex" unicode="&#x175;" horiz-adv-x="807" 
d="M19 531h99l144 -407l126 407h96l-49 -163l108 -244l147 407h99l-194 -531h-97l-107 242l-80 -242h-101zM262 592l114 131h80l102 -131h-77l-67 68l-74 -68h-78zM456 723z" />
    <glyph glyph-name="uni1E6B" unicode="&#x1e6b;" horiz-adv-x="379" 
d="M19 449v62l95 21l20 148h72v-148h145v-83h-145v-253c0 -85 22 -104 54 -112c0 0 76 -21 83 -21v-62h-97c-78 0 -132 48 -132 189v259h-95zM116 764v60c0 15 8 25 24 25h56c15 0 23 -11 23 -25v-60c0 -15 -9 -23 -23 -23h-56c-14 0 -24 9 -24 23z" />
    <glyph glyph-name="uni1E03.smcp" horiz-adv-x="546" 
d="M75 0v571h265c124 0 162 -78 162 -153c0 -74 -25 -108 -67 -127c35 -13 70 -53 70 -129c0 -93 -39 -162 -165 -162h-265zM167 87h170c32 0 75 7 75 80c0 51 -16 87 -75 87c0 0 -140 -1 -170 0v-167zM167 336h170c58 0 73 22 73 78c0 63 -44 71 -73 71h-170v-149zM224 654
v60c0 15 8 25 24 25h56c16 0 24 -11 24 -25v-60c0 -15 -10 -23 -24 -23h-56c-14 0 -24 9 -24 23z" />
    <glyph glyph-name="uni1E0B.smcp" horiz-adv-x="598" 
d="M75 0v572h253c177 -2 219 -161 219 -289c0 -284 -154 -283 -219 -283h-253zM167 88h157c106 0 131 92 131 195c0 142 -55 201 -131 201h-157v-396zM223 655v60c0 15 8 25 24 25h56c15 0 23 -11 23 -25v-60c0 -15 -9 -23 -23 -23h-56c-14 0 -24 9 -24 23z" />
    <glyph glyph-name="uni1E1F.smcp" horiz-adv-x="515" 
d="M75 0v475c0 64 43 96 110 96c0 0 274 -10 288 -13v-74h-274c-30 0 -31 -11 -32 -32v-129l274 -8v-73l-274 -7v-235h-92zM228 655v60c0 15 8 25 24 25h56c15 0 23 -11 23 -25v-60c0 -15 -9 -23 -23 -23h-56c-14 0 -24 9 -24 23z" />
    <glyph glyph-name="uni1E41.smcp" horiz-adv-x="742" 
d="M51 0l55 571h116l151 -427l151 427h114l53 -571h-90l-39 419l-145 -419h-85l-148 419l-44 -419h-89zM331 654v60c0 15 8 25 24 25h56c15 0 23 -11 23 -25v-60c0 -15 -9 -23 -23 -23h-56c-14 0 -24 9 -24 23z" />
    <glyph glyph-name="wgrave.smcp" horiz-adv-x="850" 
d="M33 570h99l155 -443l147 443h98l-61 -185l103 -258l150 443h94l-195 -570h-99l-97 249l-86 -249h-103zM262 765h103l102 -134h-75z" />
    <glyph glyph-name="uni1E57.smcp" horiz-adv-x="528" 
d="M56 0v569h273c75 0 158 -45 158 -167c0 -176 -93 -186 -155 -186c-5 -1 -182 11 -183 12v-228h-93zM149 298h175c33 0 71 6 71 95c2 63 -36 90 -71 90h-175v-185zM219 652v60c0 15 8 25 24 25h56c15 0 23 -11 23 -25v-60c0 -15 -9 -23 -23 -23h-56c-14 0 -24 9 -24 23z
" />
    <glyph glyph-name="wacute.smcp" horiz-adv-x="850" 
d="M33 570h99l155 -443l147 443h98l-61 -185l103 -258l150 443h94l-195 -570h-99l-97 249l-86 -249h-103zM392 631l103 134h102l-130 -134h-75z" />
    <glyph glyph-name="ygrave.smcp" horiz-adv-x="573" 
d="M33 570h100l156 -281l151 281h101l-207 -378v-193h-92v193zM122 764h103l103 -134h-76z" />
    <glyph glyph-name="wdieresis.smcp" horiz-adv-x="850" 
d="M33 570h99l155 -443l147 443h98l-61 -185l103 -258l150 443h94l-195 -570h-99l-97 249l-86 -249h-103zM249 684c0 29 24 52 53 52c30 0 53 -23 53 -52s-23 -53 -53 -53c-29 0 -53 24 -53 53zM504 684c0 29 24 52 53 52c30 0 53 -23 53 -52s-23 -53 -53 -53
c-29 0 -53 24 -53 53z" />
    <glyph glyph-name="uni1E61.smcp" horiz-adv-x="546" 
d="M51 372v56c0 83 35 145 143 145c52 0 204 -10 274 -21v-69s-166 5 -267 5c-46 0 -58 -30 -58 -61v-51c0 -54 24 -52 58 -52h161c94 0 133 -59 133 -136v-64c0 -112 -72 -134 -133 -134c-48 0 -251 8 -289 23v67s182 -4 279 -4c38 0 51 49 51 49v61c0 33 -11 50 -51 50
h-160c-98 0 -141 40 -141 136zM216 656v60c0 15 8 25 24 25h56c15 0 23 -11 23 -25v-60c0 -15 -9 -23 -23 -23h-56c-14 0 -24 9 -24 23z" />
    <glyph glyph-name="wcircumflex.smcp" horiz-adv-x="850" 
d="M33 570h99l155 -443l147 443h98l-61 -185l103 -258l150 443h94l-195 -570h-99l-97 249l-86 -249h-103zM284 631l115 131h80l102 -131h-77l-68 68l-74 -68h-78zM479 762z" />
    <glyph glyph-name="uni1E6B.smcp" horiz-adv-x="517" 
d="M33 481v89h452v-89h-180v-481h-92v481h-180zM207 653v60c0 15 8 25 24 25h56c15 0 23 -11 23 -25v-60c0 -15 -9 -23 -23 -23h-56c-14 0 -24 9 -24 23z" />
    <glyph glyph-name="ycircumflex.smcp" horiz-adv-x="573" 
d="M33 570h100l156 -281l151 281h101l-207 -378v-193h-92v193zM140 630l114 132h80l102 -132h-77l-67 68l-74 -68h-78zM334 762z" />
    <glyph glyph-name="uni0338" unicode="&#x338;" horiz-adv-x="639" 
d="M65 166v398c0 111 76 168 176 168h164c125 0 169 -78 169 -166v-400c0 -118 -67 -166 -170 -166h-164c-96 0 -175 46 -175 166zM157 191c0 -16 3 -35 9 -45l250 495c-6 2 -12 2 -20 2h-148c-67 0 -91 -41 -91 -83v-369zM212 95c12 -4 25 -6 37 -6h146c59 0 87 29 87 83
v372c0 19 -3 43 -14 57z" />
    <glyph glyph-name="afii61352" unicode="&#x2116;" horiz-adv-x="1073" 
d="M67 0v640c0 120 168 130 204 27l234 -569c7 -18 24 -12 24 3v467c0 122 76 167 168 167c63 0 205 -1 205 -1c102 -3 134 -57 134 -181c0 -110 -31 -171 -137 -172h-60c-105 1 -136 52 -136 228h74c0 -150 27 -155 68 -155h48c41 0 69 6 69 99c0 98 -22 104 -71 105
c0 0 -104 2 -173 2c-59 0 -97 -26 -97 -96v-472c0 -107 -162 -141 -200 -27l-237 575c-6 15 -25 10 -25 -7v-633h-92z" />
    <glyph glyph-name="afii61289" unicode="&#x2113;" horiz-adv-x="406" 
d="M28 250c19 16 38 36 57 56v314c1 75 56 119 131 119c81 0 131 -63 132 -149c1 -104 -75 -220 -171 -302v-90c1 -92 12 -105 66 -116c0 -1 83 -21 85 -20v-62c0 -1 -106 0 -106 0c-97 1 -137 52 -137 187v41c-10 -8 -20 -14 -31 -20zM177 402c59 78 98 162 78 224
c-9 35 -78 47 -78 -10v-214z" />
    <glyph glyph-name="estimated" unicode="&#x212e;" horiz-adv-x="714" 
d="M56 266c0 78 29 140 84 192c56 50 120 75 217 75c89 0 150 -21 208 -66s89 -120 93 -209h-479c-7 0 -12 2 -12 -11v-133c0 -27 76 -93 190 -93c76 0 148 36 191 84h56c-38 -40 -73 -67 -113 -83c-42 -16 -72 -22 -134 -22c-96 0 -163 23 -218 74s-83 114 -83 192z
M167 284c0 -9 4 -9 9 -9h357c12 0 13 -3 13 7v133c0 42 -104 99 -190 99c-108 0 -189 -70 -189 -93v-137z" />
    <glyph glyph-name="c_k" horiz-adv-x="1041" 
d="M37 266c0 229 73 272 175 272c52 0 158 -12 233 -29v-63s-127 8 -216 8c-62 0 -100 -11 -100 -191c0 -144 56 -185 149 -185c94 0 227 107 303 175v529h92v-449c11 11 222 199 222 199l128 -1c-9 -10 -245 -222 -253 -231l252 -300h-111l-207 241c-2 -1 -29 -26 -31 -27
v-214h-92v139c-123 -102 -220 -146 -303 -146c-111 0 -241 40 -241 273z" />
    <glyph glyph-name="N.salt" horiz-adv-x="689" 
d="M75 0v640c0 120 168 130 204 27l239 -569c7 -18 24 -12 24 3v631h92v-640c0 -107 -163 -141 -200 -27l-241 575c-7 15 -25 10 -25 -7v-633h-93z" />
    <glyph glyph-name="M.salt" horiz-adv-x="816" 
d="M51 0l39 644c1 114 177 128 200 21l105 -385c5 -19 22 -15 25 0l96 386c22 107 201 92 203 -20l47 -646h-93l-46 624c0 17 -23 21 -27 5l-95 -382c-19 -88 -170 -90 -192 1l-107 382c-4 16 -25 10 -26 -7l-38 -623h-91z" />
    <glyph glyph-name="uni1E40.salt" horiz-adv-x="816" 
d="M51 0l39 644c1 114 177 128 200 21l105 -385c5 -19 22 -15 25 0l96 386c22 107 201 92 203 -20l47 -646h-93l-46 624c0 17 -23 21 -27 5l-95 -382c-19 -88 -170 -90 -192 1l-107 382c-4 16 -25 10 -26 -7l-38 -623h-91zM362 823v60c0 15 8 25 24 25h56
c14 0 22 -11 22 -25v-60c0 -15 -8 -23 -22 -23h-56c-14 0 -24 9 -24 23z" />
    <glyph glyph-name="Ntilde.salt" horiz-adv-x="689" 
d="M75 0v640c0 120 168 130 204 27l239 -569c7 -18 24 -12 24 3v631h92v-640c0 -107 -163 -141 -200 -27l-241 575c-7 15 -25 10 -25 -7v-633h-93zM195 842c38 34 76 66 119 66c49 -3 77 -34 107 -35c26 -1 61 19 91 37l23 -47c-32 -26 -72 -66 -115 -65
c-54 3 -72 35 -108 35c-44 -1 -59 -20 -95 -35z" />
    <glyph glyph-name="Nacute.salt" horiz-adv-x="689" 
d="M75 0v640c0 120 168 130 204 27l239 -569c7 -18 24 -12 24 3v631h92v-640c0 -107 -163 -141 -200 -27l-241 575c-7 15 -25 10 -25 -7v-633h-93zM332 798l103 134h102l-130 -134h-75z" />
    <glyph glyph-name="Ncaron.salt" horiz-adv-x="689" 
d="M75 0v640c0 120 168 130 204 27l239 -569c7 -18 24 -12 24 3v631h92v-640c0 -107 -163 -141 -200 -27l-241 575c-7 15 -25 10 -25 -7v-633h-93zM217 929h78l76 -68l66 68h77l-104 -131h-80zM410 798z" />
    <glyph glyph-name="Ncommaaccent.salt" horiz-adv-x="689" 
d="M75 0v640c0 120 168 130 204 27l239 -569c7 -18 24 -12 24 3v631h92v-640c0 -107 -163 -141 -200 -27l-241 575c-7 15 -25 10 -25 -7v-633h-93zM292 -158v57c0 16 8 24 22 24h54c17 0 22 -11 22 -24v-89c0 -90 -94 -70 -94 -70v33c27 -1 28 17 28 27v20h-10
c-12 0 -22 7 -22 22z" />
    <glyph glyph-name="minus" unicode="&#x2212;" horiz-adv-x="456" 
d="M20 313v86h416v-86h-416z" />
    <glyph glyph-name="zero.numerator" horiz-adv-x="467" 
d="M56 368v250c0 84 47 114 121 114h117c86 0 116 -46 116 -113v-251c0 -94 -49 -113 -116 -113h-117c-65 0 -121 16 -121 113zM132 377c0 -39 11 -50 55 -50h96c47 0 54 15 54 50v233c0 34 -9 49 -53 49h-98c-49 0 -54 -21 -54 -49v-233z" />
    <glyph glyph-name="one.numerator" horiz-adv-x="270" 
d="M15 625v53l121 56h74v-478h-74v401z" />
    <glyph glyph-name="two.numerator" horiz-adv-x="391" 
d="M30 667c-2 0 -1 57 0 57c65 8 111 16 188 16c100 0 134 -59 134 -139c0 -119 -148 -238 -191 -273h191v-72h-319v68c65 51 242 169 242 272c0 50 -19 71 -76 71h-169z" />
    <glyph glyph-name="three.numerator" horiz-adv-x="407" 
d="M28 663v53c58 21 124 19 201 19c85 -1 123 -56 123 -118v-34c0 -47 -22 -79 -51 -89c30 -17 51 -46 51 -96v-26c0 -73 -31 -120 -128 -120c-75 0 -134 -2 -192 18l1 53c27 0 173 1 173 1c54 0 71 14 71 55v20c0 47 -31 62 -67 63l-138 5v57l138 7c45 2 68 21 68 58v20
c0 39 -24 54 -68 54h-182z" />
    <glyph glyph-name="four.numerator" horiz-adv-x="421" 
d="M15 400l198 332h83l-170 -287h151v116l27 49h48v-165h56v-61l-56 -11v-117h-75v114h-240z" />
    <glyph glyph-name="five.numerator" horiz-adv-x="418" 
d="M51 266v59h207c36 0 49 21 49 51v49c0 22 1 57 -48 57h-102c-25 0 -42 -13 -42 -46h-63l15 296h299v-73h-231l-7 -124c30 27 110 19 143 18c78 -1 111 -50 111 -122v-64c0 -83 -51 -116 -115 -116c-82 0 -127 -1 -216 15z" />
    <glyph glyph-name="six.numerator" horiz-adv-x="439" 
d="M51 507c2 194 60 226 124 231c67 5 153 -4 210 -13v-59h-195c-60 0 -63 -88 -64 -140c50 7 116 14 166 14c91 0 109 -51 109 -105v-72c0 -74 -45 -107 -110 -107h-106c-74 0 -135 38 -134 251zM126 469c0 -36 3 -141 65 -141h91c32 0 45 14 45 47v53c0 34 -15 41 -44 41
h-157z" />
    <glyph glyph-name="seven.numerator" horiz-adv-x="375" 
d="M14 661v73h327l20 -36l-183 -442h-83l168 405h-249z" />
    <glyph glyph-name="eight.numerator" horiz-adv-x="465" 
d="M62 360v55c0 46 26 65 55 73c-44 15 -55 56 -55 91v41c0 92 52 117 120 117h110c73 0 112 -31 112 -117v-38c1 -15 -2 -66 -49 -75c37 -7 49 -61 49 -89v-57c0 -88 -52 -107 -109 -107h-119c-99 0 -114 54 -114 106zM136 368c0 -30 10 -42 48 -42h101c28 0 44 11 44 42
v46c0 33 -15 47 -43 47h-103c-30 0 -47 -11 -47 -47v-46zM136 582c0 -40 24 -50 47 -50h99c44 0 47 28 47 50v30c0 44 -16 54 -51 54h-88c-41 0 -54 -12 -54 -54v-30z" />
    <glyph glyph-name="nine.numerator" horiz-adv-x="439" 
d="M42 559v71c0 75 46 108 110 108h106c75 0 136 -39 134 -252c-2 -195 -56 -226 -122 -231c-67 -6 -150 -2 -212 12v59h195c59 0 64 88 65 141c-51 -7 -117 -14 -166 -14c-92 0 -110 51 -110 106zM117 565c0 -34 14 -41 43 -41h158c0 37 -1 142 -63 142h-94
c-31 0 -44 -14 -44 -47v-54z" />
    <glyph glyph-name="zero.denominator" horiz-adv-x="467" 
d="M56 113v250c0 85 47 114 121 114h117c86 0 116 -46 116 -113v-251c0 -94 -49 -113 -116 -113h-117c-65 0 -121 16 -121 113zM132 122c0 -39 11 -50 55 -50h96c47 0 54 15 54 50v233c0 34 -9 49 -53 49h-98c-49 0 -54 -21 -54 -49v-233z" />
    <glyph glyph-name="one.denominator" horiz-adv-x="270" 
d="M15 370v54l121 54h74v-477h-74v401z" />
    <glyph glyph-name="two.denominator" horiz-adv-x="391" 
d="M30 412c-2 0 -1 57 0 57c65 8 111 16 188 16c100 0 134 -59 134 -139c0 -119 -148 -238 -191 -273h191v-72h-319v68c65 51 242 171 242 274c0 48 -19 69 -76 69h-169z" />
    <glyph glyph-name="three.denominator" horiz-adv-x="407" 
d="M28 408v53c58 21 124 19 201 19c85 0 123 -55 123 -118v-34c0 -47 -22 -79 -51 -89c30 -17 51 -46 51 -96v-26c0 -73 -31 -120 -128 -120c-75 0 -134 -2 -192 18l1 53c27 0 173 1 173 1c54 0 71 15 71 55v20c0 47 -31 62 -67 63l-138 5v57l138 7c45 2 68 21 68 58v20
c0 39 -24 54 -68 54h-182z" />
    <glyph glyph-name="four.denominator" horiz-adv-x="421" 
d="M15 145l198 332h83l-170 -287h151v116l27 49h48v-165h56v-61l-56 -14v-114h-75v114h-240z" />
    <glyph glyph-name="five.denominator" horiz-adv-x="418" 
d="M51 11v59h207c36 0 49 21 49 50v50c0 21 1 56 -48 56h-102c-25 0 -42 -12 -42 -44h-63l15 295h299v-73h-231l-7 -125c30 28 110 19 143 19c78 -1 111 -51 111 -122v-64c0 -83 -51 -116 -115 -116c-82 0 -127 -1 -216 15z" />
    <glyph glyph-name="six.denominator" horiz-adv-x="439" 
d="M51 252c2 194 60 225 124 230c67 5 150 -1 210 -12v-59h-195c-60 0 -63 -88 -64 -140c50 7 116 14 166 14c91 0 109 -51 109 -105v-72c0 -74 -45 -107 -110 -107h-106c-74 0 -135 38 -134 251zM126 214c0 -36 3 -141 65 -141h91c32 0 45 14 45 47v53c0 34 -15 41 -44 41
h-157z" />
    <glyph glyph-name="seven.denominator" horiz-adv-x="375" 
d="M14 406v72h327l20 -35l-183 -442h-83l168 405h-249z" />
    <glyph glyph-name="eight.denominator" horiz-adv-x="465" 
d="M62 105v55c0 46 26 65 55 73c-44 15 -55 56 -55 91v41c0 92 52 117 120 117h110c73 0 112 -31 112 -117v-38c1 -15 -2 -66 -49 -75c37 -7 49 -60 49 -89v-57c0 -88 -52 -107 -109 -107h-119c-99 0 -114 54 -114 106zM136 113c0 -30 10 -42 48 -42h101c28 0 44 11 44 42
v46c0 33 -15 47 -43 47h-103c-30 0 -47 -11 -47 -47v-46zM136 327c0 -40 24 -50 47 -50h99c44 0 47 29 47 50v30c0 44 -16 53 -51 53h-88c-41 0 -54 -11 -54 -53v-30z" />
    <glyph glyph-name="nine.denominator" horiz-adv-x="439" 
d="M42 303v71c0 75 46 108 110 108h106c75 0 136 -38 134 -251c-2 -194 -56 -225 -122 -230c-67 -6 -151 -1 -212 11v59h195c59 0 64 88 65 141c-51 -8 -117 -15 -166 -15c-92 0 -110 51 -110 106zM117 309c0 -33 14 -41 43 -41h158c0 37 -1 142 -63 142h-94
c-31 0 -44 -14 -44 -47v-54z" />
    <glyph glyph-name="c_h" horiz-adv-x="1050" 
d="M37 266c0 228 73 272 175 272c52 0 158 -12 233 -30v-62s-127 7 -216 7c-62 0 -100 -11 -100 -191c0 -147 29 -184 101 -184c189 0 331 -19 331 136v570h92v-314c52 32 106 70 189 70c110 0 162 -83 162 -174v-366h-92v366c0 62 -35 90 -81 90c-81 0 -123 -25 -178 -54
v-191c0 -264 -272 -212 -433 -218c-99 0 -183 40 -183 273z" />
    <glyph glyph-name="m.salt" horiz-adv-x="889" 
d="M56 0v480c108 48 159 60 276 60c49 0 92 -17 119 -43c84 33 137 43 230 43c106 0 162 -81 162 -170v-370h-92v364c0 62 -33 90 -81 90c-64 0 -100 -4 -178 -36c5 -16 7 -36 7 -53v-365h-92v364c0 62 -33 90 -82 90c-64 0 -99 -4 -177 -36v-418h-92z" />
    <glyph glyph-name="n.salt" 
d="M56 0v480c108 48 161 60 278 60c106 0 165 -81 165 -170v-370h-92v364c0 62 -33 90 -82 90c-64 0 -99 -4 -177 -36v-418h-92z" />
    <glyph glyph-name="ntilde.salt" 
d="M56 0v480c108 48 161 60 278 60c106 0 165 -81 165 -170v-370h-92v364c0 62 -33 90 -82 90c-64 0 -99 -4 -177 -36v-418h-92zM108 645c38 33 75 65 119 65c49 -2 77 -34 106 -35c27 -1 61 19 92 37l22 -47c-31 -26 -71 -66 -114 -64c-54 2 -72 35 -109 34
c-43 -1 -58 -19 -94 -35z" />
    <glyph glyph-name="ncommaaccent.salt" 
d="M56 0v480c108 48 161 60 278 60c106 0 165 -81 165 -170v-370h-92v364c0 62 -33 90 -82 90c-64 0 -99 -4 -177 -36v-418h-92zM229 -151v57c0 16 8 24 23 24h54c16 0 21 -11 21 -24v-90c0 -89 -93 -69 -93 -69v33c27 -1 28 17 28 26v20h-10c-13 0 -23 8 -23 23z" />
    <glyph glyph-name="ncaron.salt" 
d="M56 0v480c108 48 161 60 278 60c106 0 165 -81 165 -170v-370h-92v364c0 62 -33 90 -82 90c-64 0 -99 -4 -177 -36v-418h-92zM130 732h78l76 -68l66 68h77l-103 -132h-80zM324 600z" />
    <glyph glyph-name="nacute.salt" 
d="M56 0v480c108 48 161 60 278 60c106 0 165 -81 165 -170v-370h-92v364c0 62 -33 90 -82 90c-64 0 -99 -4 -177 -36v-418h-92zM249 600l103 134h102l-130 -134h-75z" />
    <glyph glyph-name="uni1E41.salt" horiz-adv-x="889" 
d="M56 0v480c108 48 159 60 276 60c49 0 92 -17 119 -43c84 33 137 43 230 43c106 0 162 -81 162 -170v-370h-92v364c0 62 -33 90 -81 90c-64 0 -100 -4 -178 -36c5 -16 7 -36 7 -53v-365h-92v364c0 62 -33 90 -82 90c-64 0 -99 -4 -177 -36v-418h-92zM421 623v60
c0 15 8 25 24 25h56c15 0 23 -11 23 -25v-60c0 -15 -9 -23 -23 -23h-56c-14 0 -24 9 -24 23z" />
    <glyph glyph-name="r.salt" horiz-adv-x="425" 
d="M56 0v482c111 51 187 70 350 56v-88c-95 9 -168 4 -258 -30v-420h-92z" />
    <glyph glyph-name="racute.salt" horiz-adv-x="425" 
d="M56 0v482c111 51 187 70 350 56v-88c-95 9 -168 4 -258 -30v-420h-92zM212 602l102 135h103l-130 -135h-75z" />
    <glyph glyph-name="rcaron.salt" horiz-adv-x="425" 
d="M56 0v482c111 51 187 70 350 56v-88c-95 9 -168 4 -258 -30v-420h-92zM103 734h78l75 -68l67 68h77l-104 -132h-80zM296 602z" />
    <glyph glyph-name="rcommaaccent.salt" horiz-adv-x="425" 
d="M55 0v482c111 51 187 70 350 56v-88c-95 9 -169 4 -258 -30v-420h-92zM54 -151v57c0 16 9 24 23 24h54c16 0 22 -11 22 -24v-90c0 -89 -94 -69 -94 -69v33c27 -1 28 17 28 26v20h-10c-13 0 -23 8 -23 23z" />
    <glyph glyph-name="x.salt" horiz-adv-x="553" 
d="M19 0l136 216c36 56 29 72 -9 127l-127 188h107l104 -157c38 -54 54 -126 17 -182l-121 -192h-107zM306 192c-37 55 -21 129 17 182l105 157h107l-128 -188c-38 -55 -45 -71 -9 -127l137 -216h-107z" />
    <glyph glyph-name="X.salt" horiz-adv-x="624" 
d="M19 0l170 305c35 61 25 91 -10 152l-160 275h101l146 -245c33 -55 51 -149 17 -206l-161 -281h-103zM341 281c-34 57 -16 151 17 206l146 245h102l-161 -275c-35 -61 -45 -91 -10 -152l171 -305h-103z" />
    <glyph glyph-name="a.salt" horiz-adv-x="535" 
d="M47 134v58c0 77 36 126 143 126h207c0 117 -27 136 -105 135c-68 0 -139 -6 -234 -12v65c79 15 149 32 252 31c145 -1 179 -74 179 -275v-103c0 -107 -49 -159 -155 -159h-144c-68 0 -143 21 -143 134zM139 137c0 -31 6 -54 58 -54h126c67 0 74 31 74 75v96l-200 -14
c-42 -3 -58 -16 -58 -48v-55z" />
    <glyph glyph-name="agrave.salt" horiz-adv-x="535" 
d="M47 134v58c0 77 36 126 143 126h207c0 117 -27 136 -105 135c-68 0 -139 -6 -234 -12v65c79 15 149 32 252 31c145 -1 179 -74 179 -275v-103c0 -107 -49 -159 -155 -159h-144c-68 0 -143 21 -143 134zM139 137c0 -31 6 -54 58 -54h126c67 0 74 31 74 75v96l-200 -14
c-42 -3 -58 -16 -58 -48v-55zM119 732h103l102 -135h-75z" />
    <glyph glyph-name="aacute.salt" horiz-adv-x="535" 
d="M47 134v58c0 77 36 126 143 126h207c0 117 -27 136 -105 135c-68 0 -139 -6 -234 -12v65c79 15 149 32 252 31c145 -1 179 -74 179 -275v-103c0 -107 -49 -159 -155 -159h-144c-68 0 -143 21 -143 134zM139 137c0 -31 6 -54 58 -54h126c67 0 74 31 74 75v96l-200 -14
c-42 -3 -58 -16 -58 -48v-55zM230 597l103 135h102l-130 -135h-75z" />
    <glyph glyph-name="atilde.salt" horiz-adv-x="535" 
d="M47 134v58c0 77 36 126 143 126h207c0 117 -27 136 -105 135c-68 0 -139 -6 -234 -12v65c79 15 149 32 252 31c145 -1 179 -74 179 -275v-103c0 -107 -49 -159 -155 -159h-144c-68 0 -143 21 -143 134zM139 137c0 -31 6 -54 58 -54h126c67 0 74 31 74 75v96l-200 -14
c-42 -3 -58 -16 -58 -48v-55zM105 642c38 33 75 65 119 65c49 -2 77 -34 107 -35c26 -1 60 19 91 37l22 -47c-31 -26 -71 -66 -114 -64c-54 2 -72 35 -108 34c-44 -1 -59 -19 -95 -35z" />
    <glyph glyph-name="aring.salt" horiz-adv-x="535" 
d="M47 134v58c0 77 36 126 143 126h207c0 117 -27 136 -105 135c-68 0 -139 -6 -234 -12v65c79 15 149 32 252 31c145 -1 179 -74 179 -275v-103c0 -107 -49 -159 -155 -159h-144c-68 0 -143 21 -143 134zM139 137c0 -31 6 -54 58 -54h126c67 0 74 31 74 75v96l-200 -14
c-42 -3 -58 -16 -58 -48v-55zM167 699c0 57 46 103 102 103s101 -46 101 -103s-45 -102 -101 -102s-102 45 -102 102zM217 699c0 -28 24 -51 52 -51c29 0 51 23 51 51s-22 52 -51 52c-28 0 -52 -24 -52 -52z" />
    <glyph glyph-name="acircumflex.salt" horiz-adv-x="535" 
d="M47 134v58c0 77 36 126 143 126h207c0 117 -27 136 -105 135c-68 0 -139 -6 -234 -12v65c79 15 149 32 252 31c145 -1 179 -74 179 -275v-103c0 -107 -49 -159 -155 -159h-144c-68 0 -143 21 -143 134zM139 137c0 -31 6 -54 58 -54h126c67 0 74 31 74 75v96l-200 -14
c-42 -3 -58 -16 -58 -48v-55zM120 597l115 132h80l102 -132h-77l-68 68l-74 -68h-78zM315 729z" />
    <glyph glyph-name="adieresis.salt" horiz-adv-x="535" 
d="M47 134v58c0 77 36 126 143 126h207c0 117 -27 136 -105 135c-68 0 -139 -6 -234 -12v65c79 15 149 32 252 31c145 -1 179 -74 179 -275v-103c0 -107 -49 -159 -155 -159h-144c-68 0 -143 21 -143 134zM139 137c0 -31 6 -54 58 -54h126c67 0 74 31 74 75v96l-200 -14
c-42 -3 -58 -16 -58 -48v-55zM97 650c0 29 24 53 53 53s52 -24 52 -53s-23 -53 -52 -53s-53 24 -53 53zM352 650c0 29 24 53 53 53s52 -24 52 -53s-23 -53 -52 -53s-53 24 -53 53z" />
    <glyph glyph-name="aogonek.salt" horiz-adv-x="551" 
d="M47 134v58c0 77 36 126 143 126h207c0 117 -27 136 -105 135c-68 0 -139 -6 -234 -12v65c79 15 149 32 252 31c145 -1 179 -74 179 -275v-103c0 -107 -49 -159 -155 -159h-144c-68 0 -143 21 -143 134zM139 137c0 -31 6 -54 58 -54h126c67 0 74 31 74 75v96l-200 -14
c-42 -3 -58 -16 -58 -48v-55zM385 22h43c-82 -66 -68 -117 5 -118v-65c-113 -18 -196 117 -48 183z" />
    <glyph glyph-name="abreve.salt" horiz-adv-x="535" 
d="M47 134v58c0 77 36 126 143 126h207c0 117 -27 136 -105 135c-68 0 -139 -6 -234 -12v65c79 15 149 32 252 31c145 -1 179 -74 179 -275v-103c0 -107 -49 -159 -155 -159h-144c-68 0 -143 21 -143 134zM139 137c0 -31 6 -54 58 -54h126c67 0 74 31 74 75v96l-200 -14
c-42 -3 -58 -16 -58 -48v-55zM156 711h50c0 -38 31 -64 64 -64c38 0 66 24 66 64h50c0 -75 -59 -114 -116 -114s-114 43 -114 114z" />
    <glyph glyph-name="amacron.salt" horiz-adv-x="535" 
d="M47 134v58c0 77 36 126 143 126h207c0 117 -27 136 -105 135c-68 0 -139 -6 -234 -12v65c79 15 149 32 252 31c145 -1 179 -74 179 -275v-103c0 -107 -49 -159 -155 -159h-144c-68 0 -143 21 -143 134zM139 137c0 -31 6 -54 58 -54h126c67 0 74 31 74 75v96l-200 -14
c-42 -3 -58 -16 -58 -48v-55zM127 597v68h292v-68h-292z" />
    <glyph glyph-name="u.salt" 
d="M47 162v370h92v-364c0 -62 33 -90 81 -90c64 0 135 5 178 14v440h92v-505c-86 -32 -158 -35 -275 -35c-111 0 -168 81 -168 170z" />
    <glyph glyph-name="uhungarumlaut.salt" 
d="M47 162v370h92v-364c0 -62 33 -90 81 -90c64 0 135 5 178 14v440h92v-505c-86 -32 -158 -35 -275 -35c-111 0 -168 81 -168 170zM160 596l103 134h102l-130 -134h-75zM301 596l103 134h102l-130 -134h-75z" />
    <glyph glyph-name="ugrave.salt" 
d="M47 162v370h92v-364c0 -62 33 -90 81 -90c64 0 135 5 178 14v440h92v-505c-86 -32 -158 -35 -275 -35c-111 0 -168 81 -168 170zM101 730h102l103 -134h-75z" />
    <glyph glyph-name="uacute.salt" 
d="M47 162v370h92v-364c0 -62 33 -90 81 -90c64 0 135 5 178 14v440h92v-505c-86 -32 -158 -35 -275 -35c-111 0 -168 81 -168 170zM231 596l102 134h103l-130 -134h-75z" />
    <glyph glyph-name="utilde.salt" 
d="M47 162v370h92v-364c0 -62 33 -90 81 -90c64 0 135 5 178 14v440h92v-505c-86 -32 -158 -35 -275 -35c-111 0 -168 81 -168 170zM98 641c38 33 76 65 119 65c49 -2 77 -34 107 -35c26 -1 61 19 91 37l23 -47c-31 -26 -71 -66 -115 -64c-54 2 -71 35 -108 34
c-43 -1 -59 -19 -95 -35z" />
    <glyph glyph-name="uring.salt" 
d="M47 162v370h92v-364c0 -62 33 -90 81 -90c64 0 135 5 178 14v440h92v-505c-86 -32 -158 -35 -275 -35c-111 0 -168 81 -168 170zM167 698c0 57 46 103 102 103s101 -46 101 -103s-45 -102 -101 -102s-102 45 -102 102zM217 698c0 -28 23 -51 52 -51c28 0 51 23 51 51
s-23 52 -51 52c-29 0 -52 -24 -52 -52z" />
    <glyph glyph-name="ucircumflex.salt" 
d="M47 162v370h92v-364c0 -62 33 -90 81 -90c64 0 135 5 178 14v440h92v-505c-86 -32 -158 -35 -275 -35c-111 0 -168 81 -168 170zM120 596l114 132h80l102 -132h-77l-67 68l-74 -68h-78zM314 728z" />
    <glyph glyph-name="udieresis.salt" 
d="M47 162v370h92v-364c0 -62 33 -90 81 -90c64 0 135 5 178 14v440h92v-505c-86 -32 -158 -35 -275 -35c-111 0 -168 81 -168 170zM88 649c0 29 24 53 53 53s52 -24 52 -53s-23 -53 -52 -53s-53 24 -53 53zM343 649c0 29 24 53 53 53s52 -24 52 -53s-23 -53 -52 -53
s-53 24 -53 53z" />
    <glyph glyph-name="uogonek.salt" horiz-adv-x="571" 
d="M47 162v370h92v-364c0 -62 33 -90 81 -90c64 0 135 5 178 14v440h92v-505c-86 -32 -158 -35 -275 -35c-111 0 -168 81 -168 170zM434 21h43c-82 -66 -68 -118 5 -118v-65c-113 -19 -196 117 -48 183z" />
    <glyph glyph-name="ubreve.salt" 
d="M47 162v370h92v-364c0 -62 33 -90 81 -90c64 0 135 5 178 14v440h92v-505c-86 -32 -158 -35 -275 -35c-111 0 -168 81 -168 170zM153 710h50c0 -38 31 -64 64 -64c38 0 66 24 66 64h50c0 -75 -58 -114 -116 -114c-57 0 -114 43 -114 114z" />
    <glyph glyph-name="umacron.salt" 
d="M47 162v370h92v-364c0 -62 33 -90 81 -90c64 0 135 5 178 14v440h92v-505c-86 -32 -158 -35 -275 -35c-111 0 -168 81 -168 170zM122 596v68h292v-68h-292z" />
    <glyph glyph-name="b.salt" horiz-adv-x="555" 
d="M56 13v771h92v-288c58 26 129 39 174 39c153 0 186 -115 186 -278c0 -173 -61 -269 -186 -269c-104 0 -218 15 -266 25zM148 71h166c100 0 102 122 102 185c0 90 3 195 -102 195c-66 0 -94 -4 -166 -24v-356z" />
    <glyph glyph-name="d.salt" horiz-adv-x="555" 
d="M47 257c0 163 34 278 187 278c45 0 115 -13 173 -39v288h92v-771c-48 -10 -161 -25 -265 -25c-125 0 -187 96 -187 269zM139 256c0 -63 2 -185 102 -185h166v356c-72 20 -100 24 -166 24c-105 0 -102 -105 -102 -195z" />
    <glyph glyph-name="f.salt" horiz-adv-x="374" 
d="M56 0v627c0 54 6 159 132 159c51 0 119 -8 168 -24v-58c-1 0 -144 1 -144 1c-61 0 -64 -32 -64 -84v-90h148v-83h-148v-448h-92z" />
    <glyph glyph-name="p.salt" horiz-adv-x="555" 
d="M56 -270v784c48 6 160 25 266 25c125 0 186 -97 186 -269c0 -163 -33 -278 -186 -278c-45 0 -116 12 -174 39v-301h-92zM148 100c72 -20 100 -24 166 -24c105 0 102 104 102 195c0 62 -2 185 -102 185h-166v-356z" />
    <glyph glyph-name="t.salt" horiz-adv-x="311" 
d="M56 190v490h92v-148h145v-83h-145v-253c0 -85 22 -104 54 -112c0 0 76 -21 83 -21v-62h-97c-77 0 -132 47 -132 189z" />
    <glyph glyph-name="uni1E03.salt" horiz-adv-x="555" 
d="M56 13v771h92v-288c58 26 129 39 174 39c153 0 186 -115 186 -278c0 -173 -61 -269 -186 -269c-104 0 -218 15 -266 25zM148 71h166c100 0 102 122 102 185c0 90 3 195 -102 195c-66 0 -94 -4 -166 -24v-356zM52 869v60c0 15 8 25 24 25h56c15 0 23 -11 23 -25v-60
c0 -15 -9 -23 -23 -23h-56c-14 0 -24 9 -24 23z" />
    <glyph glyph-name="uni1E0B.salt" horiz-adv-x="555" 
d="M47 257c0 163 34 278 187 278c45 0 115 -13 173 -39v288h92v-771c-48 -10 -161 -25 -265 -25c-125 0 -187 96 -187 269zM139 256c0 -63 2 -185 102 -185h166v356c-72 20 -100 24 -166 24c-105 0 -102 -105 -102 -195zM403 869v60c0 15 8 25 24 25h56c15 0 23 -11 23 -25
v-60c0 -15 -9 -23 -23 -23h-56c-14 0 -24 9 -24 23z" />
    <glyph glyph-name="uni1E1F.salt" horiz-adv-x="374" 
d="M56 0v627c0 54 6 159 132 159c51 0 119 -8 168 -24v-58c-1 0 -144 1 -144 1c-61 0 -64 -32 -64 -84v-90h148v-83h-148v-448h-92zM173 869v60c0 15 8 25 24 25h56c15 0 23 -11 23 -25v-60c0 -15 -9 -23 -23 -23h-56c-14 0 -24 9 -24 23z" />
    <glyph glyph-name="uni1E57.salt" horiz-adv-x="555" 
d="M56 -270v784c48 6 160 25 266 25c125 0 186 -97 186 -269c0 -163 -33 -278 -186 -278c-45 0 -116 12 -174 39v-301h-92zM148 100c72 -20 100 -24 166 -24c105 0 102 104 102 195c0 62 -2 185 -102 185h-166v-356zM230 622v60c0 15 8 25 24 25h56c15 0 23 -11 23 -25v-60
c0 -15 -9 -23 -23 -23h-56c-14 0 -24 9 -24 23z" />
    <glyph glyph-name="dcroat.salt" horiz-adv-x="567" 
d="M47 257c0 163 34 278 187 278c45 0 115 -13 173 -39v118h-115v58h115v112h92v-112h69v-58h-69v-601c-48 -10 -161 -25 -265 -25c-125 0 -187 96 -187 269zM139 256c0 -63 2 -185 102 -185h166v356c-72 20 -100 24 -166 24c-105 0 -102 -105 -102 -195z" />
    <glyph glyph-name="tbar.salt" horiz-adv-x="311" 
d="M56 190v490h92v-148h145v-83h-145v-125h98v-58h-98v-70c0 -85 22 -104 54 -112c0 0 76 -21 83 -21v-62h-97c-77 0 -132 47 -132 189z" />
    <glyph glyph-name="tcommaaccent.salt" horiz-adv-x="311" 
d="M56 190v490h92v-148h145v-83h-145v-253c0 -85 22 -104 54 -112c0 0 76 -21 83 -21v-62h-97c-77 0 -132 47 -132 189zM76 -146l50 15c28 12 32 42 32 80h74c0 -102 -22 -138 -104 -138h-52v43z" />
    <glyph glyph-name="tcaron.salt" horiz-adv-x="321" 
d="M56 190v490h92v-148h145v-83h-145v-253c0 -85 22 -104 54 -112c0 0 76 -21 83 -21v-62h-97c-77 0 -132 47 -132 189zM203 732v67h80v-67l-10 -134h-59z" />
    <glyph glyph-name="dcaron.salt" horiz-adv-x="598" 
d="M47 257c0 163 34 278 187 278c45 0 115 -13 173 -39v288h92v-771c-48 -10 -161 -25 -265 -25c-125 0 -187 96 -187 269zM139 256c0 -63 2 -185 102 -185h166v356c-72 20 -100 24 -166 24c-105 0 -102 -105 -102 -195zM548 717v67h80v-67l-10 -134h-59z" />
    <glyph glyph-name="hyphen.alt" horiz-adv-x="354" 
d="M20 317v86h314v-86h-314z" />
    <glyph glyph-name="uni00AD.alt" horiz-adv-x="354" 
d="M20 317v86h314v-86h-314z" />
    <glyph glyph-name="endash.alt" horiz-adv-x="513" 
d="M20 314v87h473v-87h-473z" />
    <glyph glyph-name="emdash.alt" horiz-adv-x="736" 
d="M20 316v87h696v-87h-696z" />
    <glyph glyph-name="hyphen.smcp" horiz-adv-x="354" 
d="M20 232v86h314v-86h-314z" />
    <glyph glyph-name="uni00AD.smcp" horiz-adv-x="354" 
d="M20 232v86h314v-86h-314z" />
    <glyph glyph-name="endash.smcp" horiz-adv-x="513" 
d="M20 229v87h473v-87h-473z" />
    <glyph glyph-name="emdash.smcp" horiz-adv-x="736" 
d="M20 233v87h696v-87h-696z" />
    <glyph glyph-name="parenleft.alt" horiz-adv-x="346" 
d="M70 336c0 288 164 534 164 534h94s-166 -259 -166 -534c0 -302 166 -536 166 -536h-94s-164 208 -164 536z" />
    <glyph glyph-name="parenright.alt" horiz-adv-x="346" 
d="M19 -200c0 0 166 234 166 536c0 275 -166 534 -166 534h94s164 -246 164 -534c0 -328 -164 -536 -164 -536h-94z" />
    <glyph glyph-name="parenleft.smcp" horiz-adv-x="305" 
d="M70 266c-1 124 57 285 121 366h92c-73 -101 -121 -256 -121 -366c0 -134 54 -274 109 -348h-94c-62 79 -106 221 -107 348z" />
    <glyph glyph-name="parenright.smcp" horiz-adv-x="305" 
d="M19 632h92c64 -81 122 -242 121 -366c-1 -127 -45 -269 -107 -348h-94c55 74 109 214 109 348c0 110 -48 265 -121 366z" />
    </font>
</defs>
</svg>
