<?xml version="1.0" standalone="no"?>
<!DOCTYPE svg PUBLIC "-//W3C//DTD SVG 1.1//EN" "http://www.w3.org/Graphics/SVG/1.1/DTD/svg11.dtd" >
<svg>
<metadata>
Created by FontForge 20110222 at Tue Sep  3 17:36:00 2013
 By Zoltan Hawryluk
Copyright (c) 2011 Natanael Gama (exo@ndiscovered.com), with Reserved Font Name "Exo"
</metadata>
<defs>
<font id="Exo-Light" horiz-adv-x="546" >
  <font-face 
    font-family="Exo"
    font-weight="300"
    font-stretch="normal"
    units-per-em="1000"
    panose-1="2 0 3 3 0 0 0 0 0 0"
    ascent="800"
    descent="-200"
    x-height="531"
    cap-height="732"
    bbox="-101 -272.63 1334 1002"
    underline-thickness="50"
    underline-position="-50"
    stemh="57"
    stemv="57"
    unicode-range="U+000D-FB06"
  />
<missing-glyph horiz-adv-x="771" 
d="M107 0v531h558v-531h-558zM642 518h-511l257 -242zM121 22l256 244l-256 241v-485zM134 13h507l-253 243zM651 506l-252 -240l252 -241v481z" />
    <glyph glyph-name="fi" unicode="fi" horiz-adv-x="603" 
d="M22 472v43l98 14v55c0 118 71 202 191 202c44 0 130 -14 185 -29v-37c-1 0 -172 10 -172 10c-74 4 -147 -32 -147 -146v-55l365 -9v-520h-58v472h-307v-472h-57v472h-98z" />
    <glyph glyph-name="fl" unicode="fl" horiz-adv-x="718" 
d="M22 474v42l99 15v53c0 108 43 202 163 202h259v-596c0 -111 31 -123 69 -132c0 0 77 -18 84 -18v-39h-81c-90 0 -129 51 -129 189v540h-189c-72 0 -119 -32 -119 -146v-53h146v-57h-147v-474h-57v474h-98z" />
    <glyph glyph-name=".notdef" horiz-adv-x="771" 
d="M107 0v531h558v-531h-558zM642 518h-511l257 -242zM121 22l256 244l-256 241v-485zM134 13h507l-253 243zM651 506l-252 -240l252 -241v481z" />
    <glyph glyph-name=".notdef" horiz-adv-x="771" 
d="M107 0v531h558v-531h-558zM642 518h-511l257 -242zM121 22l256 244l-256 241v-485zM134 13h507l-253 243zM651 506l-252 -240l252 -241v481z" />
    <glyph glyph-name="uni000D" unicode="&#xd;" horiz-adv-x="969" 
 />
    <glyph glyph-name="space" unicode=" " horiz-adv-x="260" 
 />
    <glyph glyph-name="exclam" unicode="!" horiz-adv-x="265" 
d="M98 731h66l-6 -535h-54zM92 19v59c0 13 6 21 20 21h40c12 0 19 -9 19 -21v-59c0 -12 -8 -19 -19 -19h-40c-12 0 -20 8 -20 19z" />
    <glyph glyph-name="quotedbl" unicode="&#x22;" horiz-adv-x="339" 
d="M203 665v67h58v-67l-9 -134h-40zM80 665v67h58v-67l-9 -134h-40z" />
    <glyph glyph-name="numbersign" unicode="#" horiz-adv-x="675" 
d="M233 277l171 -1l28 179h-171zM22 238l6 39h166l28 178h-166l7 39h165l38 238h39l-38 -238h172l38 238h38l-37 -238h177l-7 -39h-177l-28 -179h177l-6 -39h-177l-38 -237h-38l37 237l-172 1l-38 -238h-38l37 238h-165z" />
    <glyph glyph-name="dollar" unicode="$" horiz-adv-x="578" 
d="M61 494v66c2 144 84 178 196 178v86h45v-88c61 -5 146 -16 186 -20v-43c-55 1 -230 9 -230 9c-82 3 -140 -16 -140 -122v-66c0 -87 55 -106 119 -106h121c137 0 159 -82 159 -164v-68c0 -141 -108 -169 -215 -164v-81h-45v85c-62 5 -144 13 -174 18v41
c41 -1 141 -6 234 -6c60 0 143 12 143 107v68c0 67 -25 106 -102 106h-120c-150 0 -177 88 -177 164z" />
    <glyph glyph-name="percent" unicode="%" horiz-adv-x="954" 
d="M599 127c0 -61 21 -77 79 -77h101c64 0 81 17 81 77v133c0 59 -19 77 -79 77h-101c-65 0 -81 -17 -81 -77v-133zM551 127v133c0 85 28 125 129 125h101c98 0 127 -40 127 -125v-133c0 -85 -28 -125 -129 -125h-101c-98 0 -127 40 -127 125zM232 0l438 732h54l-438 -732
h-54zM95 474c0 -62 22 -77 79 -77h101c65 0 81 17 81 77v133c0 59 -19 77 -79 77h-101c-65 0 -81 -17 -81 -77v-133zM47 474v133c0 85 28 125 129 125h101c98 0 127 -40 127 -125v-133c0 -85 -28 -125 -129 -125h-101c-98 0 -127 40 -127 125z" />
    <glyph glyph-name="ampersand" unicode="&#x26;" horiz-adv-x="642" 
d="M130 114c48 -62 142 -89 204 -31l78 73l-175 236l-78 -65c-83 -69 -81 -145 -29 -213zM82 82c-76 97 -51 210 36 284l86 73l-63 85c-79 107 -1 194 70 204c96 12 194 0 266 -13v-38h-203c-88 0 -147 -40 -74 -139l254 -343l127 129l19 -19l-58 -99l-53 -55l109 -151h-69
l-82 111l-72 -67c-80 -75 -218 -64 -293 38z" />
    <glyph glyph-name="quotesingle" unicode="'" horiz-adv-x="160" 
d="M51 665v67h58v-67l-8 -134h-40z" />
    <glyph glyph-name="parenleft" unicode="(" horiz-adv-x="328" 
d="M84 326c0 274 159 534 159 534h62s-164 -262 -164 -534c0 -300 165 -536 165 -536h-63s-159 220 -159 536z" />
    <glyph glyph-name="parenright" unicode=")" horiz-adv-x="327" 
d="M22 -210c0 0 165 236 165 536c0 272 -165 534 -165 534h63s159 -260 159 -534c0 -316 -159 -536 -159 -536h-63z" />
    <glyph glyph-name="asterisk" unicode="*" horiz-adv-x="449" 
d="M262 565l117 78l15 -27l-94 -95zM219 482l31 49l112 -88l-16 -25zM186 719l30 12l73 -120l-53 -24zM128 412l27 135l57 -13l-55 -131zM56 575v31l140 20l3 -56z" />
    <glyph glyph-name="plus" unicode="+" horiz-adv-x="517" 
d="M56 328v56h174v175h57v-175h175v-56h-175v-175h-57v175h-174z" />
    <glyph glyph-name="comma" unicode="," horiz-adv-x="236" 
d="M80 21v57c0 15 7 22 20 22h37c15 0 20 -10 20 -22v-98c0 -76 -73 -61 -73 -61v23c24 -1 25 16 25 26v32h-9c-11 0 -20 7 -20 21z" />
    <glyph glyph-name="hyphen" unicode="-" horiz-adv-x="348" 
d="M22 262v56h304v-56h-304z" />
    <glyph glyph-name="period" unicode="." horiz-adv-x="238" 
d="M80 19v59c0 13 6 21 19 21h39c15 0 21 -8 21 -21v-59c0 -14 -9 -19 -21 -19h-39c-11 0 -19 8 -19 19z" />
    <glyph glyph-name="slash" unicode="/" horiz-adv-x="384" 
d="M22 -72l281 842h59l-281 -842h-59z" />
    <glyph glyph-name="zero" unicode="0" horiz-adv-x="649" 
d="M135 162c0 -76 53 -105 115 -105h154c78 0 110 40 110 105v408c0 61 -29 105 -110 105h-154c-76 0 -115 -43 -115 -105v-408zM78 162v408c0 108 77 162 172 162h154c122 0 167 -74 167 -162v-408c0 -119 -68 -162 -167 -162h-154c-91 0 -172 42 -172 162z" />
    <glyph glyph-name="one" unicode="1" horiz-adv-x="359" 
d="M45 608v39l168 85h57v-732h-57v667z" />
    <glyph glyph-name="two" unicode="2" horiz-adv-x="597" 
d="M45 684v41c102 13 203 17 294 17c145 0 203 -101 203 -210c0 -191 -318 -429 -383 -475h383v-57h-490v53c105 75 432 315 432 481c0 95 -49 150 -147 150h-292z" />
    <glyph glyph-name="three" unicode="3" horiz-adv-x="596" 
d="M33 677v35c79 24 191 24 308 22c113 -2 172 -73 172 -165v-69c0 -84 -48 -124 -85 -136c38 -19 85 -58 85 -144v-59c0 -109 -56 -168 -178 -168c-114 0 -224 -1 -296 22l2 36h289c62 0 124 15 124 110v59c0 85 -64 113 -119 115l-234 7v43l234 9c72 2 121 37 121 106v69
c0 77 -58 108 -120 108h-303z" />
    <glyph glyph-name="four" unicode="4" horiz-adv-x="593" 
d="M22 228l317 504h67l-298 -477h316v217l28 75h29v-292h90v-44l-90 -15v-194h-57v194h-375z" />
    <glyph glyph-name="five" unicode="5" horiz-adv-x="618" 
d="M85 15v41h304c70 0 107 49 107 112v105c0 39 -6 111 -107 111h-154c-46 0 -96 -34 -96 -92h-52l22 440h422v-57h-369l-14 -276c12 16 45 39 91 42c60 5 119 0 150 0c118 0 164 -69 164 -166v-109c0 -137 -102 -170 -164 -170c-124 0 -191 1 -304 19z" />
    <glyph glyph-name="six" unicode="6" horiz-adv-x="627" 
d="M130 363c0 -115 9 -307 131 -307h139c54 0 105 13 105 95v121c0 76 -49 91 -105 91h-270zM73 384c0 263 86 354 172 354c101 0 208 -5 292 -16v-41h-283c-103 0 -123 -185 -124 -278c85 10 196 17 270 17c135 0 161 -68 161 -148v-124c0 -112 -67 -149 -161 -149h-139
c-109 1 -188 74 -188 385z" />
    <glyph glyph-name="seven" unicode="7" horiz-adv-x="542" 
d="M33 675v57h452l24 -40l-256 -692h-68l251 675h-403z" />
    <glyph glyph-name="eight" unicode="8" horiz-adv-x="641" 
d="M141 494c0 -79 63 -92 108 -92h149c81 0 103 53 103 92v68c0 86 -35 118 -105 118h-136c-79 0 -119 -23 -119 -118v-68zM141 151c0 -64 42 -94 119 -94h135c49 0 106 26 106 94v105c0 74 -57 90 -103 90h-149c-46 0 -108 -21 -108 -90v-105zM84 154v98
c0 75 50 101 90 109c-72 20 -90 85 -90 138v65c0 134 73 173 176 173h136c107 0 162 -50 162 -173v-65c0 -33 -15 -106 -81 -117c59 -13 81 -80 81 -130v-98c0 -130 -99 -154 -163 -154h-135c-172 0 -176 113 -176 154z" />
    <glyph glyph-name="nine" unicode="9" horiz-adv-x="627" 
d="M123 463c0 -76 49 -91 105 -91h270c0 116 -10 307 -131 307h-139c-55 0 -105 -13 -105 -95v-121zM67 463v124c0 112 67 149 161 149h139c109 0 188 -74 188 -385c0 -262 -86 -354 -172 -354c-101 0 -214 2 -292 16v41h282c104 0 124 185 125 279
c-85 -10 -196 -18 -270 -18c-135 0 -161 69 -161 148z" />
    <glyph glyph-name="colon" unicode=":" horiz-adv-x="239" 
d="M80 452v59c0 12 6 20 19 20h39c15 0 21 -7 21 -20v-59c0 -15 -9 -19 -21 -19h-39c-11 0 -19 7 -19 19zM80 19v59c0 13 6 21 19 21h39c15 0 21 -8 21 -21v-59c0 -14 -9 -19 -21 -19h-39c-11 0 -19 8 -19 19z" />
    <glyph glyph-name="semicolon" unicode=";" horiz-adv-x="239" 
d="M81 452v59c0 13 7 21 20 21h39c14 0 20 -8 20 -21v-59c0 -14 -9 -19 -20 -19h-39c-12 0 -20 8 -20 19zM80 21v57c0 12 8 22 20 22h37c13 0 20 -10 20 -22v-98c0 -76 -73 -61 -73 -61v23c24 -1 25 16 25 26v32h-9c-11 0 -20 10 -20 21z" />
    <glyph glyph-name="less" unicode="&#x3c;" horiz-adv-x="476" 
d="M56 325v59l365 172v-62l-289 -140l289 -150v-64z" />
    <glyph glyph-name="equal" unicode="=" horiz-adv-x="471" 
d="M22 438v57h427v-57h-427zM22 212v57h427v-57h-427z" />
    <glyph glyph-name="greater" unicode="&#x3e;" horiz-adv-x="476" 
d="M56 140v64l289 150l-289 140v62l365 -172v-59z" />
    <glyph glyph-name="question" unicode="?" horiz-adv-x="537" 
d="M173 19v59c0 13 7 21 20 21h41c12 0 19 -9 19 -21v-59c0 -12 -8 -19 -19 -19h-41c-11 0 -20 8 -20 19zM22 681v41c94 12 168 20 272 17c154 1 199 -80 199 -185v-101c0 -135 -98 -177 -251 -157v-101h-58v148h129c68 2 124 31 124 110v101c0 92 -44 127 -150 127h-265z
" />
    <glyph glyph-name="at" unicode="@" horiz-adv-x="851" 
d="M285 114c0 -34 33 -67 78 -66c59 -1 135 33 185 57v150l-186 -14c-40 -3 -78 -26 -77 -82c-1 -1 -1 -44 0 -45zM73 0v348c0 36 2 164 168 164h210c71 0 153 -30 153 -140v-372h-43l-11 64c-2 0 -103 -73 -194 -73c-74 -2 -129 49 -128 117v53c0 80 46 133 129 133
c74 0 191 -1 191 0c0 0 1 76 0 76c0 65 -37 85 -100 85h-207c-61 0 -111 -19 -111 -107v-348c0 -100 61 -120 111 -120h339c89 0 120 40 120 120v512c0 83 -45 131 -120 131h-399v36c48 10 162 22 288 21h111c106 -2 177 -63 177 -188v-512c0 -98 -39 -178 -177 -178h-339
c-102 0 -168 62 -168 178z" />
    <glyph glyph-name="A" unicode="A" horiz-adv-x="666" 
d="M216 278h265l-130 371zM50 0l271 732h61l258 -732h-67l-72 221h-306l-76 -221h-69z" />
    <glyph glyph-name="B" unicode="B" horiz-adv-x="597" 
d="M147 412h215c81 0 132 45 133 132c1 105 -63 131 -133 131h-215v-263zM147 57h215c58 0 136 19 136 149c0 80 -50 149 -136 148h-215v-297zM90 0v732h272c146 0 190 -97 190 -188c0 -81 -37 -146 -105 -163c44 -10 108 -63 108 -177c0 -102 -39 -204 -193 -204h-272z" />
    <glyph glyph-name="C" unicode="C" horiz-adv-x="575" 
d="M61 368c0 233 44 372 244 372c52 0 164 -12 234 -25v-43c-1 0 -142 11 -234 11c-132 0 -187 -61 -187 -317c0 -186 48 -315 187 -315c105 0 234 9 234 9v-44c-70 -13 -182 -22 -234 -22c-185 0 -244 159 -244 374z" />
    <glyph glyph-name="D" unicode="D" horiz-adv-x="661" 
d="M147 59h208c144 0 203 153 203 305c0 221 -76 311 -203 311h-208v-616zM90 0v732h265c225 0 260 -219 260 -369c0 -166 -70 -363 -260 -363h-265z" />
    <glyph glyph-name="E" unicode="E" horiz-adv-x="572" 
d="M90 123v479c0 98 60 133 126 130l309 -14v-43h-309c-56 0 -69 -30 -69 -73v-209l338 -8v-44l-338 -8v-210c0 -66 41 -69 79 -69h299v-42l-299 -15c-66 -3 -136 13 -136 126z" />
    <glyph glyph-name="F" unicode="F" horiz-adv-x="572" 
d="M90 0v602c0 98 60 133 126 130l309 -14v-43h-309c-56 0 -69 -30 -69 -73v-209l338 -8v-44l-338 -8v-333h-57z" />
    <glyph glyph-name="G" unicode="G" horiz-adv-x="616" 
d="M61 370c0 200 30 370 229 370c52 0 182 -14 252 -27v-45c-6 0 -155 15 -252 15c-144 0 -172 -108 -172 -315c0 -231 41 -315 176 -317c77 0 208 48 208 48v232h-184v38c40 11 92 20 173 20c21 0 44 -1 68 -3v-386h-42l-13 51c-36 -20 -120 -56 -210 -56
c-207 -2 -233 165 -233 375z" />
    <glyph glyph-name="H" unicode="H" horiz-adv-x="646" 
d="M90 0v732h57v-350h380v350h57v-732h-57v326h-380v-326h-57z" />
    <glyph glyph-name="I" unicode="I" horiz-adv-x="209" 
d="M90 0v732h57v-732h-57z" />
    <glyph glyph-name="J" unicode="J" horiz-adv-x="355" 
d="M39 21l4 40c79 -21 192 -47 193 104v567h57v-567c0 -47 -4 -115 -52 -147c-50 -33 -150 -31 -202 3z" />
    <glyph glyph-name="K" unicode="K" horiz-adv-x="591" 
d="M90 0v732h57v-336h105l234 336h69l-250 -365l250 -367h-69l-234 338h-104v-338h-58z" />
    <glyph glyph-name="L" unicode="L" horiz-adv-x="557" 
d="M90 126v606h57v-606c0 -66 41 -69 79 -69h295v-57h-295c-66 0 -136 13 -136 126z" />
    <glyph glyph-name="M" unicode="M" horiz-adv-x="799" 
d="M61 0l60 732h79l201 -637l196 637h80l65 -732h-57l-57 634l-196 -634h-59l-202 634l-53 -634h-57z" />
    <glyph glyph-name="N" unicode="N" horiz-adv-x="674" 
d="M90 0v732h58l407 -625v625h57v-732h-57l-408 625v-625h-57z" />
    <glyph glyph-name="O" unicode="O" horiz-adv-x="675" 
d="M130 361c0 -271 56 -308 221 -308c161 0 221 43 221 308c0 307 -76 319 -221 319c-138 0 -221 -7 -221 -319zM73 361c0 343 109 376 278 376c173 0 278 -33 278 -376c0 -323 -98 -365 -278 -365s-278 32 -278 365z" />
    <glyph glyph-name="P" unicode="P" horiz-adv-x="582" 
d="M124 364h236c61 0 118 18 117 160c-1 139 -68 150 -117 150h-236v-310zM67 0v732h293c79 0 175 -29 175 -208c0 -207 -101 -218 -175 -218c-40 0 -231 14 -236 17v-323h-57z" />
    <glyph glyph-name="Q" unicode="Q" horiz-adv-x="675" 
d="M328 -33h39c51 -57 112 -55 170 -35v-61c-72 -27 -192 -2 -209 96zM130 361c0 -271 55 -308 220 -308c161 0 222 43 222 308c0 307 -78 319 -222 319c-138 0 -220 -7 -220 -319zM73 361c0 343 105 376 277 376c173 0 279 -33 279 -376c0 -323 -99 -365 -279 -365
s-277 32 -277 365z" />
    <glyph glyph-name="R" unicode="R" horiz-adv-x="586" 
d="M124 368h243c57 0 113 8 113 151c0 139 -58 155 -113 155h-243v-306zM67 0v732h300c89 0 171 -43 171 -213c0 -190 -95 -207 -138 -210l157 -309h-62l-156 307c-18 1 -213 12 -215 13v-320h-57z" />
    <glyph glyph-name="S" unicode="S" horiz-adv-x="584" 
d="M73 494v66c0 145 84 178 196 178c53 0 199 -16 241 -22v-44c-64 4 -241 9 -241 9c-82 3 -139 -14 -139 -121v-66c0 -95 46 -106 117 -106h133c133 0 158 -82 158 -164v-68c0 -142 -101 -164 -200 -164c-49 0 -199 14 -245 22v44c42 -4 152 -9 245 -9c58 0 143 9 143 107
v68c0 67 -25 106 -101 106h-131c-158 0 -176 82 -176 164z" />
    <glyph glyph-name="T" unicode="T" horiz-adv-x="586" 
d="M46 675v57h511v-57h-230v-675h-57v675h-224z" />
    <glyph glyph-name="U" unicode="U" horiz-adv-x="679" 
d="M90 320v412h57v-412c0 -271 85 -268 208 -268c108 0 204 7 204 268v412h57v-412c0 -323 -140 -325 -261 -325c-136 0 -265 -7 -265 325z" />
    <glyph glyph-name="V" unicode="V" horiz-adv-x="666" 
d="M50 732h63l227 -646l238 646h62l-270 -732h-61z" />
    <glyph glyph-name="W" unicode="W" horiz-adv-x="965" 
d="M50 732h63l226 -639l203 639h64l-80 -257l144 -386l207 643h62l-237 -732h-61l-145 381l-126 -381h-61z" />
    <glyph glyph-name="X" unicode="X" horiz-adv-x="585" 
d="M50 732h64l189 -320l192 320h64l-218 -364l213 -368h-64l-187 318l-186 -318h-64l213 368z" />
    <glyph glyph-name="Y" unicode="Y" horiz-adv-x="626" 
d="M50 732h63l202 -403l223 403h62l-256 -472v-260h-57v260z" />
    <glyph glyph-name="Z" unicode="Z" horiz-adv-x="558" 
d="M39 0v57l409 618h-409v57h483v-57l-409 -618h409v-57h-483z" />
    <glyph glyph-name="bracketleft" unicode="[" horiz-adv-x="323" 
d="M95 -38v708c0 60 15 172 136 172h70v-57h-70c-47 0 -79 -40 -79 -115v-708c0 -67 26 -115 79 -115h70v-57h-70c-121 0 -136 112 -136 172z" />
    <glyph glyph-name="backslash" unicode="\" horiz-adv-x="384" 
d="M22 770h59l281 -842h-59z" />
    <glyph glyph-name="bracketright" unicode="]" horiz-adv-x="323" 
d="M22 -153h70c53 0 79 48 79 115v708c0 75 -31 115 -79 115h-70v57h70c121 0 136 -112 136 -172v-708c0 -60 -15 -172 -136 -172h-70v57z" />
    <glyph glyph-name="asciicircum" unicode="^" horiz-adv-x="397" 
d="M56 531l122 130h54l109 -130h-53l-84 86l-94 -86h-54z" />
    <glyph glyph-name="underscore" unicode="_" horiz-adv-x="668" 
d="M22 -1v57h624v-57h-624z" />
    <glyph glyph-name="grave" unicode="`" horiz-adv-x="228" 
d="M22 664h72l112 -133h-51z" />
    <glyph glyph-name="a" unicode="a" horiz-adv-x="519" 
d="M102 131c0 -61 37 -80 76 -80c80 -1 229 54 229 54v172l-229 -14c-56 -4 -76 -38 -76 -80v-52zM45 126v61c0 82 50 133 133 133c0 0 229 -1 229 0c0 0 1 66 0 67c0 64 -31 99 -99 99c-72 0 -151 -6 -246 -16v41c66 18 149 29 249 30c83 1 153 -44 153 -154v-387h-42
l-15 64c-2 0 -136 -70 -229 -70c-73 0 -133 47 -133 132z" />
    <glyph glyph-name="b" unicode="b" horiz-adv-x="553" 
d="M123 100c54 -24 117 -49 196 -49c72 0 122 67 122 212c0 177 -51 219 -122 219c-77 0 -127 -9 -196 -27v-355zM67 0v785h55v-286c64 26 152 40 197 40c151 0 179 -140 179 -276c0 -122 -34 -269 -179 -269c-68 0 -170 44 -196 65l-16 -59h-40z" />
    <glyph glyph-name="c" unicode="c" horiz-adv-x="500" 
d="M56 266c0 232 73 270 175 270c52 0 150 -13 218 -26v-40s-129 9 -218 9c-71 0 -118 -19 -118 -217c0 -171 41 -210 118 -210c92 0 225 14 225 14v-42c-81 -23 -142 -28 -225 -29c-99 0 -175 38 -175 271z" />
    <glyph glyph-name="d" unicode="d" horiz-adv-x="553" 
d="M113 263c0 -147 49 -212 121 -212c79 0 143 25 196 49v355c-69 18 -119 27 -196 27c-71 0 -121 -40 -121 -219zM56 263c0 136 27 276 178 276c45 0 133 -14 197 -40v286h55v-785h-39l-17 59c-26 -21 -128 -65 -196 -65c-145 0 -178 147 -178 269z" />
    <glyph glyph-name="e" unicode="e" horiz-adv-x="525" 
d="M113 290h231c48 0 80 11 80 57c0 120 -34 131 -145 131c-122 0 -166 -11 -166 -188zM56 268c0 236 63 267 222 267c124 0 203 -12 203 -188c0 -78 -44 -113 -137 -113h-231c0 -152 37 -182 118 -182c92 0 165 2 240 13v-42c-81 -23 -157 -28 -240 -28
c-136 1 -175 69 -175 273z" />
    <glyph glyph-name="f" unicode="f" horiz-adv-x="394" 
d="M22 474v42l94 15v99c0 54 3 156 113 156c42 0 99 -6 143 -20v-36h-129c-66 1 -70 -42 -70 -100v-99h158v-57h-158v-474h-57v474h-94z" />
    <glyph glyph-name="g" unicode="g" horiz-adv-x="560" 
d="M110 344c0 -68 29 -130 109 -130h99c90 0 114 74 113 130c-2 85 -29 132 -99 132h-109c-92 0 -113 -62 -113 -132zM108 -116c0 -86 64 -97 101 -97h150c63 0 93 31 93 94v56c0 51 -17 83 -86 83h-201c-38 0 -57 15 -57 15v-151zM53 117c0 32 21 72 68 78
c-54 28 -68 94 -68 149c0 129 61 189 173 189h312v-42l-91 -15c13 -18 41 -45 41 -132c0 -60 -23 -187 -165 -187h-156c-16 0 -57 -4 -57 -39c0 -31 30 -42 54 -42h211c86 0 134 -54 134 -136v-59c0 -60 -19 -151 -150 -151h-150c-94 0 -159 52 -159 154v88l31 79
c-21 16 -28 43 -28 66z" />
    <glyph glyph-name="h" unicode="h" 
d="M67 0v784h57v-315c60 36 122 71 203 71c106 0 164 -82 164 -170v-370h-57v370c0 72 -42 113 -107 113c-83 0 -127 -20 -203 -58v-425h-57z" />
    <glyph glyph-name="i" unicode="i" horiz-adv-x="187" 
d="M64 0v531h57v-531h-57zM56 619v56c0 13 7 21 20 21h37c12 0 19 -9 19 -21v-56c0 -13 -8 -20 -19 -20h-37c-12 0 -20 8 -20 20z" />
    <glyph glyph-name="j" unicode="j" horiz-adv-x="210" 
d="M76 -270v801h57v-535c1 -86 0 -183 -20 -266h-37zM67 619v56c0 13 7 21 20 21h37c12 0 19 -9 19 -21v-56c0 -13 -8 -20 -19 -20h-37c-12 0 -20 8 -20 20z" />
    <glyph glyph-name="k" unicode="k" horiz-adv-x="499" 
d="M67 0v782h57v-448h47l225 197h81l-252 -226l252 -305h-73l-233 276h-47v-276h-57z" />
    <glyph glyph-name="l" unicode="l" horiz-adv-x="299" 
d="M67 189v594h57v-594c0 -111 36 -125 69 -132c0 0 77 -18 84 -18v-39h-81c-79 0 -129 51 -129 189z" />
    <glyph glyph-name="m" unicode="m" horiz-adv-x="909" 
d="M67 0v531h39l18 -63c60 36 119 70 198 70c66 0 122 -31 146 -79c52 41 136 79 221 79c97 0 164 -73 164 -171v-367h-57v367c0 66 -42 114 -107 114c-80 0 -140 -19 -207 -61c3 -8 5 -42 5 -51v-369h-57v367c0 66 -43 114 -108 114c-80 0 -122 -20 -198 -58v-423h-57z" />
    <glyph glyph-name="n" unicode="n" 
d="M67 0v531h39l18 -62c60 36 122 71 203 71c106 0 164 -82 164 -170v-370h-57v370c0 70 -43 113 -107 113c-83 0 -127 -20 -203 -58v-425h-57z" />
    <glyph glyph-name="o" unicode="o" horiz-adv-x="569" 
d="M113 258c0 -189 61 -206 172 -206c114 0 172 22 172 206c0 199 -54 221 -172 221c-115 0 -172 -16 -172 -221zM56 258c0 217 60 278 229 278c177 0 229 -75 229 -278c0 -196 -54 -263 -229 -263c-178 0 -229 73 -229 263z" />
    <glyph glyph-name="p" unicode="p" horiz-adv-x="553" 
d="M123 76c69 -18 119 -27 196 -27c71 0 122 42 122 219c0 145 -50 212 -122 212c-79 0 -143 -25 -196 -49v-355zM67 -269v800h40l16 -59c26 21 128 65 196 65c145 0 179 -147 179 -269c0 -136 -28 -276 -179 -276c-45 0 -133 14 -197 40v-301h-55z" />
    <glyph glyph-name="q" unicode="q" horiz-adv-x="556" 
d="M113 268c0 -112 10 -221 127 -221c74 0 109 6 192 27v406h-192c-111 0 -127 -124 -127 -212zM56 268c0 168 59 269 184 269c106 0 202 -14 249 -19v-788h-57v299c-64 -26 -147 -39 -192 -39c-153 0 -184 120 -184 278z" />
    <glyph glyph-name="r" unicode="r" horiz-adv-x="425" 
d="M67 0v531h39l18 -67c61 35 120 73 205 73c29 0 59 -2 74 -8v-56c-16 4 -45 6 -74 6c-83 0 -128 -24 -205 -61v-418h-57z" />
    <glyph glyph-name="s" unicode="s" horiz-adv-x="505" 
d="M45 360v46c0 82 35 130 138 130c52 0 199 -9 251 -14v-42h-251c-71 0 -81 -27 -81 -74v-46c0 -66 31 -68 81 -68h148c83 0 130 -48 130 -123v-49c0 -109 -66 -125 -130 -125c-49 0 -226 12 -264 16v41h264c16 0 73 -4 73 68v49c0 39 -20 67 -73 67h-148
c-94 0 -138 21 -138 124z" />
    <glyph glyph-name="t" unicode="t" horiz-adv-x="368" 
d="M22 475v42l94 15l15 148h42v-148h162v-57h-162v-286c0 -110 37 -125 69 -132c0 0 77 -17 84 -17v-40h-81c-79 0 -129 51 -129 189v286h-94z" />
    <glyph glyph-name="u" unicode="u" 
d="M56 161v370h57v-370c0 -70 43 -113 107 -113c83 0 127 21 203 59v424h57v-531h-39l-18 62c-60 -36 -122 -71 -203 -71c-106 0 -164 82 -164 170z" />
    <glyph glyph-name="v" unicode="v" horiz-adv-x="530" 
d="M22 531h62l180 -448l183 448h61l-216 -531h-58z" />
    <glyph glyph-name="w" unicode="w" horiz-adv-x="793" 
d="M22 531h63l170 -448l155 448h62l-61 -180l123 -268l175 448h62l-206 -531h-58l-124 275l-97 -275h-62z" />
    <glyph glyph-name="x" unicode="x" horiz-adv-x="509" 
d="M27 0l192 266l-192 265h71l155 -217l158 217h71l-193 -267l188 -264h-66l-156 216l-157 -216h-71z" />
    <glyph glyph-name="y" unicode="y" horiz-adv-x="545" 
d="M23 531h63l135 -415c25 -73 78 -57 78 -57l159 472h63l-234 -699l-65 -102h-34l91 270c-21 0 -87 4 -119 110z" />
    <glyph glyph-name="z" unicode="z" horiz-adv-x="462" 
d="M33 474v57h396v-57l-306 -416h306c1 -1 0 -57 0 -57h-380v57l309 416h-325z" />
    <glyph glyph-name="braceleft" unicode="{" horiz-adv-x="314" 
d="M22 307v53c33 3 90 7 90 60v236c0 96 47 186 180 186v-57c-71 0 -123 -27 -123 -129v-236c0 -48 -37 -78 -83 -86c46 -7 82 -41 82 -83v-289c0 -82 47 -118 124 -115v-57c-149 0 -181 94 -181 172v285c0 44 -49 63 -89 60z" />
    <glyph glyph-name="bar" unicode="|" horiz-adv-x="248" 
d="M96 -72v842h57v-842h-57z" />
    <glyph glyph-name="braceright" unicode="}" horiz-adv-x="314" 
d="M22 -153c78 -3 124 33 124 115v289c0 42 36 76 82 83c-46 8 -83 38 -83 86v236c0 102 -51 129 -123 129v57c133 0 180 -90 180 -186v-236c0 -53 57 -57 90 -60v-53c-40 3 -89 -16 -89 -60v-285c0 -78 -32 -172 -181 -172v57z" />
    <glyph glyph-name="asciitilde" unicode="~" horiz-adv-x="449" 
d="M56 572c38 32 65 65 113 65c43 0 76 -48 113 -48c39 0 71 27 96 44l16 -30c-29 -28 -63 -69 -112 -69c-44 0 -78 48 -115 48c-38 0 -60 -22 -96 -40z" />
    <glyph glyph-name="exclamdown" unicode="&#xa1;" horiz-adv-x="268" 
d="M99 -270l5 533h54l7 -533h-66zM93 386v56c0 12 8 18 20 19h36c10 -1 20 -9 20 -21v-54c-1 -10 -5 -22 -19 -22h-37c-13 0 -20 9 -20 22z" />
    <glyph glyph-name="cent" unicode="&#xa2;" horiz-adv-x="489" 
d="M45 266c0 239 75 275 191 271v92h46v-95c50 -5 110 -15 156 -24v-40s-129 10 -218 10c-71 0 -118 -20 -118 -218c0 -171 41 -211 118 -211c92 0 225 14 225 14v-42c-60 -18 -107 -24 -163 -27v-87h-46v85c-114 -2 -191 29 -191 272z" />
    <glyph glyph-name="sterling" unicode="&#xa3;" horiz-adv-x="597" 
d="M56 0v44l72 13v280h-72v34l72 14v120c0 214 97 227 228 227c57 0 186 -14 186 -14v-42h-184c-126 0 -173 -9 -173 -171v-120l278 -14v-34h-278v-280h356v-57h-485z" />
    <glyph glyph-name="currency" unicode="&#xa4;" horiz-adv-x="461" 
d="M110 313c0 -67 51 -124 117 -124c67 0 119 57 119 124c0 66 -53 118 -119 118c-64 0 -117 -53 -117 -118zM57 457l30 27l42 -44c27 22 62 34 98 34c40 0 75 -13 102 -35l47 46l27 -30l-46 -46c19 -25 31 -58 31 -94c0 -38 -12 -73 -32 -101l48 -48l-32 -28l-44 45
c-27 -23 -62 -37 -101 -37c-37 0 -71 14 -97 36l-45 -44l-27 31l43 42c-21 29 -33 65 -33 104c0 37 12 70 33 97z" />
    <glyph glyph-name="yen" unicode="&#xa5;" horiz-adv-x="594" 
d="M22 732h64l201 -354l220 354h65l-255 -411h189v-44h-190v-65h190v-44h-190v-168h-57v168h-180v44h180v65h-180v44h179z" />
    <glyph glyph-name="brokenbar" unicode="&#xa6;" horiz-adv-x="249" 
d="M96 429v341h57v-341h-57zM96 -72v328h57v-328h-57z" />
    <glyph glyph-name="section" unicode="&#xa7;" horiz-adv-x="554" 
d="M118 353c0 -56 22 -57 73 -57h169c73 0 75 16 75 58c1 1 0 62 0 62c0 45 -7 62 -75 62h-169c-53 0 -73 -4 -73 -64v-61zM62 353v62c0 49 10 83 48 93c-37 9 -49 47 -49 82v70c0 98 66 124 130 124c49 0 226 -12 264 -16v-41h-264c-50 0 -72 -21 -73 -67v-70
c0 -46 32 -56 73 -56h169c113 0 134 -44 133 -118v-62c0 -32 -2 -84 -45 -89c42 -7 44 -49 44 -82v-73c0 -109 -74 -118 -138 -118c-49 0 -218 12 -256 16v41h256c47 0 81 9 81 61v73c0 47 -15 55 -75 55h-169c-80 0 -129 13 -129 115z" />
    <glyph glyph-name="dieresis" unicode="&#xa8;" horiz-adv-x="445" 
d="M311 582c0 22 18 39 40 39c21 0 38 -17 38 -39s-17 -40 -38 -40c-22 0 -40 18 -40 40zM56 582c0 22 18 39 40 39c21 0 38 -17 38 -39s-17 -40 -38 -40c-22 0 -40 18 -40 40z" />
    <glyph glyph-name="copyright" unicode="&#xa9;" horiz-adv-x="829" 
d="M237 365c0 161 63 218 144 218c41 0 122 -12 178 -22v-37c-63 9 -145 12 -178 12c-62 0 -97 -54 -97 -174c0 -99 21 -168 97 -168c72 0 145 9 184 16v-37c-64 -18 -117 -26 -184 -26c-79 0 -144 41 -144 218zM108 368c0 -148 57 -320 185 -321h265c90 1 163 108 163 321
c0 144 -25 317 -163 317h-265c-96 0 -184 -65 -185 -317zM61 368c0 163 40 364 232 364h265c196 0 210 -240 210 -364c0 -193 -59 -368 -210 -368h-265c-184 0 -232 234 -232 368z" />
    <glyph glyph-name="ordfeminine" unicode="&#xaa;" horiz-adv-x="362" 
d="M80 473c0 -39 25 -53 59 -53c60 0 142 38 142 38v108l-142 -8c-34 -2 -59 -18 -59 -55v-30zM33 463v46c0 54 38 90 100 90c0 0 148 -1 148 0c0 0 1 31 0 32c0 45 -27 64 -77 64c-54 0 -91 -4 -159 -10v31c50 10 92 22 167 23c63 1 115 -30 115 -103v-258h-30l-15 49
c-2 0 -87 -53 -149 -53c-52 0 -100 31 -100 89zM33 276v43h296v-43h-296z" />
    <glyph glyph-name="guillemotleft" unicode="&#xab;" horiz-adv-x="548" 
d="M241 354l206 203l40 -40l-166 -163l172 -168l-41 -40zM56 354l205 203l41 -40l-166 -163l171 -168l-40 -40z" />
    <glyph glyph-name="logicalnot" unicode="&#xac;" horiz-adv-x="528" 
d="M56 264v58h417v-163h-57v105h-360z" />
    <glyph glyph-name="uni00AD" unicode="&#xad;" horiz-adv-x="358" 
d="M22 262v56h314v-56h-314z" />
    <glyph glyph-name="registered" unicode="&#xae;" horiz-adv-x="829" 
d="M316 372h136c58 0 78 14 78 80c0 70 -39 81 -78 81h-136v-161zM269 153v427h177c66 0 131 -21 131 -127c0 -116 -68 -118 -101 -123l97 -177h-53l-98 177l-106 10v-187h-47zM108 368c0 -148 57 -320 185 -321h265c90 1 163 108 163 321c0 144 -25 317 -163 317h-265
c-96 0 -184 -65 -185 -317zM61 368c0 163 40 364 232 364h265c196 0 210 -240 210 -364c0 -193 -59 -368 -210 -368h-265c-184 0 -232 234 -232 368z" />
    <glyph glyph-name="macron" unicode="&#xaf;" horiz-adv-x="390" 
d="M56 531v47h279v-47h-279z" />
    <glyph glyph-name="degree" unicode="&#xb0;" horiz-adv-x="314" 
d="M92 632c0 -36 30 -65 66 -65s65 29 65 65s-29 66 -65 66s-66 -30 -66 -66zM56 632c0 57 46 103 102 103s101 -46 101 -103s-45 -102 -101 -102s-102 45 -102 102z" />
    <glyph glyph-name="plusminus" unicode="&#xb1;" horiz-adv-x="529" 
d="M63 395v57h174v175h57v-175h175v-57h-175v-174h-57v174h-174zM63 104v57h406v-57h-406z" />
    <glyph glyph-name="twosuperior" unicode="&#xb2;" horiz-adv-x="395" 
d="M35 824c-2 0 -1 36 0 35c66 8 111 12 183 12c98 0 130 -58 130 -136c0 -124 -183 -266 -223 -299h222v-47h-309v43c67 54 261 189 261 300c0 58 -19 92 -90 92h-174z" />
    <glyph glyph-name="threesuperior" unicode="&#xb3;" horiz-adv-x="416" 
d="M33 820v31c54 17 120 15 196 15c87 0 121 -55 121 -115v-35c0 -50 -36 -81 -61 -89c25 -12 61 -41 61 -95v-28c0 -71 -28 -119 -127 -119c-74 0 -134 -1 -186 16l1 30c21 0 177 1 177 1c64 0 87 19 87 76v23c0 54 -42 75 -83 76l-142 5v34l142 6c51 2 85 27 85 71v26
c0 53 -35 71 -82 71h-189z" />
    <glyph glyph-name="acute" unicode="&#xb4;" horiz-adv-x="228" 
d="M22 531l112 133h72l-133 -133h-51z" />
    <glyph glyph-name="uni00B5" unicode="&#xb5;" horiz-adv-x="602" 
d="M101 161v370h57v-370c0 -70 43 -113 107 -113c83 0 127 21 203 59v424h57v-531h-39l-18 62c-60 -36 -122 -71 -203 -71c-46 0 -82 17 -107 43v-304h-57v431z" />
    <glyph glyph-name="paragraph" unicode="&#xb6;" horiz-adv-x="577" 
d="M102 501c0 -78 71 -89 99 -89h54v263h-54c-72 0 -99 -44 -99 -85v-89zM45 499v93c0 95 79 140 156 140h355v-59h-69v-673h-57v675h-118v-945h-57v640c-7 -3 -25 -16 -54 -15c-103 0 -156 66 -156 144z" />
    <glyph glyph-name="periodcentered" unicode="&#xb7;" horiz-adv-x="269" 
d="M95 361v42c0 13 7 21 20 21h39c14 0 20 -8 20 -21v-42c0 -14 -9 -19 -20 -19h-39c-11 0 -20 8 -20 19z" />
    <glyph glyph-name="cedilla" unicode="&#xb8;" horiz-adv-x="257" 
d="M56 -146l46 11c36 11 50 36 49 98h50c0 -101 -20 -136 -101 -136h-44v27z" />
    <glyph glyph-name="onesuperior" unicode="&#xb9;" horiz-adv-x="265" 
d="M18 775v35l128 55h47v-476h-47v424z" />
    <glyph glyph-name="ordmasculine" unicode="&#xba;" horiz-adv-x="386" 
d="M80 550c0 -117 36 -131 115 -131s111 10 112 131c1 127 -30 141 -112 141s-115 -9 -115 -141zM45 278v42h298v-42h-298zM33 550c0 142 35 187 162 187s158 -45 158 -187c0 -128 -31 -177 -158 -177s-162 49 -162 177z" />
    <glyph glyph-name="guillemotright" unicode="&#xbb;" horiz-adv-x="548" 
d="M241 186l172 168l-166 163l40 40l206 -203l-211 -208zM56 186l172 168l-167 163l40 40l206 -203l-210 -208z" />
    <glyph glyph-name="onequarter" unicode="&#xbc;" horiz-adv-x="893" 
d="M491 155l202 319h54l-182 -289h200v121l21 48h26v-169h59v-37l-59 -13v-135h-47v135h-258zM217 0l361 745h49l-361 -745h-49zM18 642v35l128 55h47v-476h-47v424z" />
    <glyph glyph-name="onehalf" unicode="&#xbd;" horiz-adv-x="963" 
d="M605 435c-2 0 -1 36 0 35c66 8 111 12 183 12c98 0 130 -58 130 -136c0 -124 -183 -265 -223 -299h222v-47h-309v43c67 54 261 190 261 300c0 59 -19 92 -90 92h-174zM210 0l360 745h50l-361 -745h-49zM18 642v35l128 55h47v-476h-47v424z" />
    <glyph glyph-name="threequarters" unicode="&#xbe;" horiz-adv-x="1012" 
d="M575 155l202 319h51l-182 -291h205v123l20 48h25v-171h59v-35l-59 -12v-136h-45v136h-260zM323 0l361 745h49l-361 -745h-49zM33 687v31c54 17 120 15 196 15c87 0 121 -55 121 -115v-35c0 -50 -36 -81 -61 -89c25 -12 61 -41 61 -95v-28c0 -71 -28 -119 -127 -119
c-74 0 -134 -1 -186 16l1 30c21 0 177 1 177 1c64 0 87 19 87 76v23c0 54 -42 75 -83 76l-142 5v34l142 6c51 2 85 27 85 71v26c0 53 -35 71 -82 71h-189z" />
    <glyph glyph-name="questiondown" unicode="&#xbf;" horiz-adv-x="538" 
d="M286 395v54c0 12 9 21 19 22h37c11 -1 20 -8 20 -20v-56c-1 -12 -7 -20 -18 -21h-41c-12 3 -17 10 -17 21zM44 21c-1 123 97 174 250 154c0 2 2 97 0 101h60l1 -148c-39 0 -93 1 -131 0c-68 -2 -111 -43 -114 -112c0 0 -1 -87 -1 -101c0 -74 39 -128 142 -126
c33 0 266 1 266 1c-2 0 0 -42 -2 -41c-94 -12 -167 -20 -272 -17c-165 -2 -199 91 -199 187v102z" />
    <glyph glyph-name="Agrave" unicode="&#xc0;" horiz-adv-x="666" 
d="M193 930h72l111 -133h-50zM216 278h265l-130 371zM50 0l271 732h61l258 -732h-67l-72 221h-306l-76 -221h-69z" />
    <glyph glyph-name="Aacute" unicode="&#xc1;" horiz-adv-x="666" 
d="M326 797l112 133h71l-133 -133h-50zM216 278h265l-130 371zM50 0l271 732h61l258 -732h-67l-72 221h-306l-76 -221h-69z" />
    <glyph glyph-name="Acircumflex" unicode="&#xc2;" horiz-adv-x="666" 
d="M209 797l122 130h53l110 -130h-53l-85 86l-94 -86h-53zM216 278h265l-130 371zM50 0l271 732h61l258 -732h-67l-72 221h-306l-76 -221h-69z" />
    <glyph glyph-name="Atilde" unicode="&#xc3;" horiz-adv-x="666" 
d="M182 835c38 32 74 62 114 62c47 -2 84 -48 114 -48c29 -1 65 24 94 41l16 -30c-33 -27 -70 -64 -112 -62c-51 2 -78 48 -113 47c-42 -1 -61 -22 -97 -40zM216 278h265l-130 371zM50 0l271 732h61l258 -732h-67l-72 221h-306l-76 -221h-69z" />
    <glyph glyph-name="Adieresis" unicode="&#xc4;" horiz-adv-x="666" 
d="M439 837c0 22 18 39 40 39s39 -17 39 -39s-17 -40 -39 -40s-40 18 -40 40zM185 837c0 22 17 39 39 39s39 -17 39 -39s-17 -40 -39 -40s-39 18 -39 40zM216 278h265l-130 371zM50 0l271 732h61l258 -732h-67l-72 221h-306l-76 -221h-69z" />
    <glyph glyph-name="Aring" unicode="&#xc5;" horiz-adv-x="666" 
d="M286 832c0 -36 30 -65 66 -65s65 29 65 65s-29 66 -65 66s-66 -30 -66 -66zM250 832c0 57 46 103 102 103s101 -46 101 -103c0 -50 -35 -91 -82 -100h11l258 -732h-67l-72 221h-306l-76 -221h-69l271 732h12c-47 9 -83 50 -83 100zM216 278h265l-130 371z" />
    <glyph glyph-name="AE" unicode="&#xc6;" horiz-adv-x="925" 
d="M255 292h196v362zM33 0l325 599c69 129 126 135 218 133l302 -14v-44h-302c-71 0 -67 -31 -68 -74v-210l330 -9v-43l-330 -9v-207c0 -67 41 -66 79 -66l290 -1v-45l-290 -14c-65 -4 -136 12 -136 125v115h-226l-128 -236h-64z" />
    <glyph glyph-name="Ccedilla" unicode="&#xc7;" horiz-adv-x="575" 
d="M216 -145l46 11c37 11 50 36 49 98h50c0 -101 -20 -136 -101 -136h-44v27zM61 368c0 233 44 372 244 372c52 0 164 -12 234 -25v-43c-1 0 -142 11 -234 11c-132 0 -187 -61 -187 -317c0 -186 48 -315 187 -315c105 0 234 9 234 9v-44c-70 -13 -182 -22 -234 -22
c-185 0 -244 159 -244 374z" />
    <glyph glyph-name="Egrave" unicode="&#xc8;" horiz-adv-x="572" 
d="M184 925h72l111 -133h-50zM90 123v479c0 98 60 133 126 130l309 -14v-43h-309c-56 0 -69 -30 -69 -73v-209l338 -8v-44l-338 -8v-210c0 -66 41 -69 79 -69h299v-42l-299 -15c-66 -3 -136 13 -136 126z" />
    <glyph glyph-name="Eacute" unicode="&#xc9;" horiz-adv-x="572" 
d="M302 792l112 133h72l-133 -133h-51zM90 123v479c0 98 60 133 126 130l309 -14v-43h-309c-56 0 -69 -30 -69 -73v-209l338 -8v-44l-338 -8v-210c0 -66 41 -69 79 -69h299v-42l-299 -15c-66 -3 -136 13 -136 126z" />
    <glyph glyph-name="Ecircumflex" unicode="&#xca;" horiz-adv-x="572" 
d="M180 797l122 130h54l109 -130h-53l-85 86l-93 -86h-54zM90 123v479c0 98 60 133 126 130l309 -14v-43h-309c-56 0 -69 -30 -69 -73v-209l338 -8v-44l-338 -8v-210c0 -66 41 -69 79 -69h299v-42l-299 -15c-66 -3 -136 13 -136 126z" />
    <glyph glyph-name="Edieresis" unicode="&#xcb;" horiz-adv-x="572" 
d="M407 843c0 22 18 39 40 39s39 -17 39 -39s-17 -40 -39 -40s-40 18 -40 40zM153 843c0 22 17 39 39 39s39 -17 39 -39s-17 -40 -39 -40s-39 18 -39 40zM90 123v479c0 98 60 133 126 130l309 -14v-43h-309c-56 0 -69 -30 -69 -73v-209l338 -8v-44l-338 -8v-210
c0 -66 41 -69 79 -69h299v-42l-299 -15c-66 -3 -136 13 -136 126z" />
    <glyph glyph-name="Igrave" unicode="&#xcc;" horiz-adv-x="209" 
d="M-40 930h71l112 -133h-50zM90 0v732h57v-732h-57z" />
    <glyph glyph-name="Iacute" unicode="&#xcd;" horiz-adv-x="209" 
d="M93 797l112 133h71l-133 -133h-50zM90 0v732h57v-732h-57z" />
    <glyph glyph-name="Icircumflex" unicode="&#xce;" horiz-adv-x="209" 
d="M-25 797l123 130h53l110 -130h-53l-85 86l-94 -86h-54zM90 0v732h57v-732h-57z" />
    <glyph glyph-name="Idieresis" unicode="&#xcf;" horiz-adv-x="209" 
d="M206 837c0 22 18 39 40 39s39 -17 39 -39s-17 -40 -39 -40s-40 18 -40 40zM-49 837c0 22 18 39 40 39s39 -17 39 -39s-17 -40 -39 -40s-40 18 -40 40zM90 0v732h57v-732h-57z" />
    <glyph glyph-name="Eth" unicode="&#xd0;" horiz-adv-x="661" 
d="M147 59h205c144 0 200 153 200 305c0 219 -78 308 -200 308l-205 -1v-278h145v-40h-145v-294zM25 353v40h65v338c0 1 223 1 262 1c226 0 259 -219 259 -369c0 -166 -68 -363 -259 -363h-262v353h-65z" />
    <glyph glyph-name="Ntilde" unicode="&#xd1;" horiz-adv-x="674" 
d="M182 835c38 32 73 62 114 62c46 -2 84 -48 113 -48c29 -1 65 24 94 41l17 -30c-33 -27 -70 -64 -112 -62c-51 2 -79 48 -114 47c-42 -1 -60 -22 -97 -40zM90 0v732h58l407 -625v625h57v-732h-57l-408 625v-625h-57z" />
    <glyph glyph-name="Ograve" unicode="&#xd2;" horiz-adv-x="675" 
d="M193 930h72l112 -133h-51zM130 361c0 -271 56 -308 221 -308c161 0 221 43 221 308c0 307 -76 319 -221 319c-138 0 -221 -7 -221 -319zM73 361c0 343 109 376 278 376c173 0 278 -33 278 -376c0 -323 -98 -365 -278 -365s-278 32 -278 365z" />
    <glyph glyph-name="Oacute" unicode="&#xd3;" horiz-adv-x="675" 
d="M326 797l112 133h72l-133 -133h-51zM130 361c0 -271 56 -308 221 -308c161 0 221 43 221 308c0 307 -76 319 -221 319c-138 0 -221 -7 -221 -319zM73 361c0 343 109 376 278 376c173 0 278 -33 278 -376c0 -323 -98 -365 -278 -365s-278 32 -278 365z" />
    <glyph glyph-name="Ocircumflex" unicode="&#xd4;" horiz-adv-x="675" 
d="M209 797l122 130h54l109 -130h-53l-85 86l-94 -86h-53zM130 361c0 -271 56 -308 221 -308c161 0 221 43 221 308c0 307 -76 319 -221 319c-138 0 -221 -7 -221 -319zM73 361c0 343 109 376 278 376c173 0 278 -33 278 -376c0 -323 -98 -365 -278 -365s-278 32 -278 365z
" />
    <glyph glyph-name="Otilde" unicode="&#xd5;" horiz-adv-x="675" 
d="M182 835c38 32 74 62 114 62c47 -2 84 -48 114 -48c29 -1 65 24 94 41l16 -30c-33 -27 -70 -64 -112 -62c-51 2 -78 48 -113 47c-42 -1 -61 -22 -97 -40zM130 361c0 -271 56 -308 221 -308c161 0 221 43 221 308c0 307 -76 319 -221 319c-138 0 -221 -7 -221 -319z
M73 361c0 343 109 376 278 376c173 0 278 -33 278 -376c0 -323 -98 -365 -278 -365s-278 32 -278 365z" />
    <glyph glyph-name="Odieresis" unicode="&#xd6;" horiz-adv-x="675" 
d="M439 837c0 22 18 39 40 39s39 -17 39 -39s-17 -40 -39 -40s-40 18 -40 40zM185 837c0 22 17 39 39 39s39 -17 39 -39s-17 -40 -39 -40s-39 18 -39 40zM130 361c0 -271 56 -308 221 -308c161 0 221 43 221 308c0 307 -76 319 -221 319c-138 0 -221 -7 -221 -319zM73 361
c0 343 109 376 278 376c173 0 278 -33 278 -376c0 -323 -98 -365 -278 -365s-278 32 -278 365z" />
    <glyph glyph-name="multiply" unicode="&#xd7;" horiz-adv-x="451" 
d="M63 233l123 122l-123 124l40 40l123 -123l124 123l40 -40l-124 -124l124 -122l-40 -41l-124 123l-122 -122z" />
    <glyph glyph-name="Oslash" unicode="&#xd8;" horiz-adv-x="675" 
d="M194 90c35 -30 85 -37 157 -37c161 0 221 43 221 308c0 130 -14 206 -41 252zM130 361c0 -121 11 -194 38 -239l337 523c-37 33 -88 35 -154 35c-138 0 -221 -7 -221 -319zM73 361c0 343 106 376 278 376c76 0 139 -6 185 -43l25 38h46l-43 -66c42 -54 65 -146 65 -305
c0 -323 -98 -365 -278 -365c-80 0 -143 6 -189 42l-25 -38h-47l43 67c-40 52 -60 141 -60 294z" />
    <glyph glyph-name="Ugrave" unicode="&#xd9;" horiz-adv-x="679" 
d="M195 930h71l112 -133h-50zM90 320v412h57v-412c0 -271 85 -268 208 -268c108 0 204 7 204 268v412h57v-412c0 -323 -140 -325 -261 -325c-136 0 -265 -7 -265 325z" />
    <glyph glyph-name="Uacute" unicode="&#xda;" horiz-adv-x="679" 
d="M328 797l112 133h71l-133 -133h-50zM90 320v412h57v-412c0 -271 85 -268 208 -268c108 0 204 7 204 268v412h57v-412c0 -323 -140 -325 -261 -325c-136 0 -265 -7 -265 325z" />
    <glyph glyph-name="Ucircumflex" unicode="&#xdb;" horiz-adv-x="679" 
d="M210 797l122 130h54l110 -130h-53l-85 86l-94 -86h-54zM90 320v412h57v-412c0 -271 85 -268 208 -268c108 0 204 7 204 268v412h57v-412c0 -323 -140 -325 -261 -325c-136 0 -265 -7 -265 325z" />
    <glyph glyph-name="Udieresis" unicode="&#xdc;" horiz-adv-x="679" 
d="M441 837c0 22 18 39 40 39s39 -17 39 -39s-17 -40 -39 -40s-40 18 -40 40zM186 837c0 22 18 39 40 39s39 -17 39 -39s-17 -40 -39 -40s-40 18 -40 40zM90 320v412h57v-412c0 -271 85 -268 208 -268c108 0 204 7 204 268v412h57v-412c0 -323 -140 -325 -261 -325
c-136 0 -265 -7 -265 325z" />
    <glyph glyph-name="Yacute" unicode="&#xdd;" horiz-adv-x="626" 
d="M300 797l112 133h71l-133 -133h-50zM50 732h63l202 -403l223 403h62l-256 -472v-260h-57v260z" />
    <glyph glyph-name="Thorn" unicode="&#xde;" horiz-adv-x="555" 
d="M124 206h204c66 -1 118 30 118 171c-1 142 -73 153 -118 153h-204v-324zM67 0v729h57v-141h204c79 -1 176 -34 176 -213c0 -204 -102 -226 -176 -226c-49 0 -107 -2 -204 16v-165h-57z" />
    <glyph glyph-name="germandbls" unicode="&#xdf;" horiz-adv-x="568" 
d="M67 0v566c0 116 76 211 218 211c295 0 247 -241 138 -317c-62 -50 -102 -68 -102 -112c0 -83 226 -20 226 -169v-47c1 -103 -84 -140 -158 -140c-68 0 -136 13 -173 18v44c39 -1 107 -5 176 -5c65 0 97 42 98 83v47c1 93 -226 22 -226 169c0 61 25 84 125 157
c32 23 57 61 60 105c8 82 -71 110 -164 110c-91 0 -161 -47 -161 -154v-566h-57z" />
    <glyph glyph-name="agrave" unicode="&#xe0;" horiz-adv-x="519" 
d="M110 734h71l112 -133h-50zM102 131c0 -61 37 -80 76 -80c80 -1 229 54 229 54v172l-229 -14c-56 -4 -76 -38 -76 -80v-52zM45 126v61c0 82 50 133 133 133c0 0 229 -1 229 0c0 0 1 66 0 67c0 64 -31 99 -99 99c-72 0 -151 -6 -246 -16v41c66 18 149 29 249 30
c83 1 153 -44 153 -154v-387h-42l-15 64c-2 0 -136 -70 -229 -70c-73 0 -133 47 -133 132z" />
    <glyph glyph-name="aacute" unicode="&#xe1;" horiz-adv-x="519" 
d="M238 601l111 133h72l-133 -133h-50zM102 131c0 -61 37 -80 76 -80c80 -1 229 54 229 54v172l-229 -14c-56 -4 -76 -38 -76 -80v-52zM45 126v61c0 82 50 133 133 133c0 0 229 -1 229 0c0 0 1 66 0 67c0 64 -31 99 -99 99c-72 0 -151 -6 -246 -16v41c66 18 149 29 249 30
c83 1 153 -44 153 -154v-387h-42l-15 64c-2 0 -136 -70 -229 -70c-73 0 -133 47 -133 132z" />
    <glyph glyph-name="acircumflex" unicode="&#xe2;" horiz-adv-x="519" 
d="M122 601l123 130h53l110 -130h-53l-85 86l-94 -86h-54zM102 131c0 -61 37 -80 76 -80c80 -1 229 54 229 54v172l-229 -14c-56 -4 -76 -38 -76 -80v-52zM45 126v61c0 82 50 133 133 133c0 0 229 -1 229 0c0 0 1 66 0 67c0 64 -31 99 -99 99c-72 0 -151 -6 -246 -16v41
c66 18 149 29 249 30c83 1 153 -44 153 -154v-387h-42l-15 64c-2 0 -136 -70 -229 -70c-73 0 -133 47 -133 132z" />
    <glyph glyph-name="atilde" unicode="&#xe3;" horiz-adv-x="519" 
d="M91 642c38 32 74 62 114 62c46 -2 84 -47 113 -48c30 -1 66 24 94 42l17 -30c-33 -28 -70 -64 -112 -63c-51 2 -78 48 -113 47c-42 0 -61 -22 -98 -40zM102 131c0 -61 37 -80 76 -80c80 -1 229 54 229 54v172l-229 -14c-56 -4 -76 -38 -76 -80v-52zM45 126v61
c0 82 50 133 133 133c0 0 229 -1 229 0c0 0 1 66 0 67c0 64 -31 99 -99 99c-72 0 -151 -6 -246 -16v41c66 18 149 29 249 30c83 1 153 -44 153 -154v-387h-42l-15 64c-2 0 -136 -70 -229 -70c-73 0 -133 47 -133 132z" />
    <glyph glyph-name="adieresis" unicode="&#xe4;" horiz-adv-x="519" 
d="M352 652c0 22 18 39 40 39c21 0 38 -17 38 -39s-17 -40 -38 -40c-22 0 -40 18 -40 40zM97 652c0 22 18 39 40 39c21 0 38 -17 38 -39s-17 -40 -38 -40c-22 0 -40 18 -40 40zM102 131c0 -61 37 -80 76 -80c80 -1 229 54 229 54v172l-229 -14c-56 -4 -76 -38 -76 -80v-52z
M45 126v61c0 82 50 133 133 133c0 0 229 -1 229 0c0 0 1 66 0 67c0 64 -31 99 -99 99c-72 0 -151 -6 -246 -16v41c66 18 149 29 249 30c83 1 153 -44 153 -154v-387h-42l-15 64c-2 0 -136 -70 -229 -70c-73 0 -133 47 -133 132z" />
    <glyph glyph-name="aring" unicode="&#xe5;" horiz-adv-x="519" 
d="M197 673c0 -36 31 -65 67 -65s65 29 65 65s-29 66 -65 66s-67 -30 -67 -66zM162 673c0 57 46 103 102 103s100 -46 100 -103s-44 -102 -100 -102s-102 45 -102 102zM102 131c0 -61 37 -80 76 -80c80 -1 229 54 229 54v172l-229 -14c-56 -4 -76 -38 -76 -80v-52zM45 126
v61c0 82 50 133 133 133c0 0 229 -1 229 0c0 0 1 66 0 67c0 64 -31 99 -99 99c-72 0 -151 -6 -246 -16v41c66 18 149 29 249 30c83 1 153 -44 153 -154v-387h-42l-15 64c-2 0 -136 -70 -229 -70c-73 0 -133 47 -133 132z" />
    <glyph glyph-name="ae" unicode="&#xe6;" horiz-adv-x="877" 
d="M465 298h230c51 0 80 11 80 57c0 120 -31 127 -145 127c-125 0 -165 -14 -165 -184zM102 135c0 -61 37 -80 76 -80c80 -1 229 56 229 56v148l-229 -13c-56 -3 -76 -38 -76 -80v-31zM45 130v36c0 82 50 133 133 133c0 0 229 -1 229 0c0 0 1 91 0 92c0 64 -31 99 -99 99
c-72 0 -149 -6 -246 -16v41c63 19 149 29 249 30c58 1 109 -22 134 -74c31 56 93 68 184 68c124 0 203 -8 203 -184c0 -78 -44 -113 -137 -113h-230c-1 -148 13 -186 118 -186c92 -1 164 2 239 13v-42c-81 -23 -156 -28 -239 -28c-102 0 -130 35 -157 69
c-2 0 -155 -70 -248 -70c-73 0 -133 47 -133 132z" />
    <glyph glyph-name="ccedilla" unicode="&#xe7;" horiz-adv-x="500" 
d="M170 -146l46 12c36 11 49 36 49 98h50c0 -102 -20 -136 -101 -136h-44v26zM56 266c0 232 73 271 175 271c52 0 150 -14 218 -27v-40s-129 10 -218 10c-71 0 -118 -20 -118 -218c0 -171 41 -211 118 -211c92 0 225 14 225 14v-42c-81 -23 -142 -28 -225 -29
c-99 0 -175 39 -175 272z" />
    <glyph glyph-name="egrave" unicode="&#xe8;" horiz-adv-x="525" 
d="M125 727h71l112 -133h-50zM113 290h231c48 0 80 11 80 57c0 120 -34 131 -145 131c-122 0 -166 -11 -166 -188zM56 268c0 236 63 267 222 267c124 0 203 -12 203 -188c0 -78 -44 -113 -137 -113h-231c0 -152 37 -182 118 -182c92 0 165 2 240 13v-42
c-81 -23 -157 -28 -240 -28c-136 1 -175 69 -175 273z" />
    <glyph glyph-name="eacute" unicode="&#xe9;" horiz-adv-x="525" 
d="M249 594l112 133h72l-133 -133h-51zM113 290h231c48 0 80 11 80 57c0 120 -34 131 -145 131c-122 0 -166 -11 -166 -188zM56 268c0 236 63 267 222 267c124 0 203 -12 203 -188c0 -78 -44 -113 -137 -113h-231c0 -152 37 -182 118 -182c92 0 165 2 240 13v-42
c-81 -23 -157 -28 -240 -28c-136 1 -175 69 -175 273z" />
    <glyph glyph-name="ecircumflex" unicode="&#xea;" horiz-adv-x="525" 
d="M130 594l122 130h54l110 -130h-53l-85 86l-94 -86h-54zM113 290h231c48 0 80 11 80 57c0 120 -34 131 -145 131c-122 0 -166 -11 -166 -188zM56 268c0 236 63 267 222 267c124 0 203 -12 203 -188c0 -78 -44 -113 -137 -113h-231c0 -152 37 -182 118 -182
c92 0 165 2 240 13v-42c-81 -23 -157 -28 -240 -28c-136 1 -175 69 -175 273z" />
    <glyph glyph-name="edieresis" unicode="&#xeb;" horiz-adv-x="525" 
d="M361 645c0 22 18 39 40 39s39 -17 39 -39s-17 -39 -39 -39s-40 17 -40 39zM107 645c0 22 17 39 39 39s39 -17 39 -39s-17 -39 -39 -39s-39 17 -39 39zM113 290h231c48 0 80 11 80 57c0 120 -34 131 -145 131c-122 0 -166 -11 -166 -188zM56 268c0 236 63 267 222 267
c124 0 203 -12 203 -188c0 -78 -44 -113 -137 -113h-231c0 -152 37 -182 118 -182c92 0 165 2 240 13v-42c-81 -23 -157 -28 -240 -28c-136 1 -175 69 -175 273z" />
    <glyph glyph-name="igrave" unicode="&#xec;" horiz-adv-x="191" 
d="M-63 729h72l112 -133h-51zM67 0v531h57v-531h-57z" />
    <glyph glyph-name="iacute" unicode="&#xed;" horiz-adv-x="191" 
d="M70 596l112 133h72l-133 -133h-51zM67 0v531h57v-531h-57z" />
    <glyph glyph-name="icircumflex" unicode="&#xee;" horiz-adv-x="191" 
d="M-47 596l122 130h54l109 -130h-53l-85 86l-93 -86h-54zM67 0v531h57v-531h-57z" />
    <glyph glyph-name="idieresis" unicode="&#xef;" horiz-adv-x="191" 
d="M184 636c0 22 18 39 39 39c22 0 39 -17 39 -39s-17 -40 -39 -40c-21 0 -39 18 -39 40zM-71 636c0 22 18 39 39 39c22 0 39 -17 39 -39s-17 -40 -39 -40c-21 0 -39 18 -39 40zM67 0v531h57v-531h-57z" />
    <glyph glyph-name="eth" unicode="&#xf0;" horiz-adv-x="538" 
d="M102 264c0 -186 50 -205 121 -205h90c99 0 123 83 123 205c0 136 -19 210 -123 210h-90c-74 0 -121 -33 -121 -210zM45 264c0 170 43 267 178 267h90c33 0 81 -16 93 -32c-13 50 -36 114 -83 161l-151 -60l-17 45l124 49c-44 29 -96 40 -150 39v50c93 0 158 -23 210 -66
l122 49l18 -45l-101 -40c99 -116 115 -302 115 -417c0 -199 -73 -264 -180 -264h-90c-137 0 -178 85 -178 264z" />
    <glyph glyph-name="ntilde" unicode="&#xf1;" 
d="M110 638c38 32 74 62 114 62c46 -2 84 -48 113 -48c30 -1 66 24 94 41l17 -30c-33 -27 -70 -64 -112 -62c-51 2 -78 48 -113 47c-42 -1 -61 -22 -98 -40zM67 0v531h39l18 -62c60 36 122 71 203 71c106 0 164 -82 164 -170v-370h-57v370c0 70 -43 113 -107 113
c-83 0 -127 -20 -203 -58v-425h-57z" />
    <glyph glyph-name="ograve" unicode="&#xf2;" horiz-adv-x="569" 
d="M133 729h72l111 -133h-50zM113 258c0 -189 61 -206 172 -206c114 0 172 22 172 206c0 199 -54 221 -172 221c-115 0 -172 -16 -172 -221zM56 258c0 217 60 278 229 278c177 0 229 -75 229 -278c0 -196 -54 -263 -229 -263c-178 0 -229 73 -229 263z" />
    <glyph glyph-name="oacute" unicode="&#xf3;" horiz-adv-x="569" 
d="M260 596l111 133h72l-133 -133h-50zM113 258c0 -189 61 -206 172 -206c114 0 172 22 172 206c0 199 -54 221 -172 221c-115 0 -172 -16 -172 -221zM56 258c0 217 60 278 229 278c177 0 229 -75 229 -278c0 -196 -54 -263 -229 -263c-178 0 -229 73 -229 263z" />
    <glyph glyph-name="ocircumflex" unicode="&#xf4;" horiz-adv-x="569" 
d="M145 596l122 130h54l110 -130h-53l-85 86l-94 -86h-54zM113 258c0 -189 61 -206 172 -206c114 0 172 22 172 206c0 199 -54 221 -172 221c-115 0 -172 -16 -172 -221zM56 258c0 217 60 278 229 278c177 0 229 -75 229 -278c0 -196 -54 -263 -229 -263
c-178 0 -229 73 -229 263z" />
    <glyph glyph-name="otilde" unicode="&#xf5;" horiz-adv-x="569" 
d="M122 634c38 32 73 62 114 62c46 -2 84 -48 113 -48c29 -1 65 24 94 41l17 -30c-33 -27 -70 -64 -112 -62c-52 2 -79 48 -114 47c-42 -1 -60 -22 -97 -40zM113 258c0 -189 61 -206 172 -206c114 0 172 22 172 206c0 199 -54 221 -172 221c-115 0 -172 -16 -172 -221z
M56 258c0 217 60 278 229 278c177 0 229 -75 229 -278c0 -196 -54 -263 -229 -263c-178 0 -229 73 -229 263z" />
    <glyph glyph-name="odieresis" unicode="&#xf6;" horiz-adv-x="569" 
d="M373 636c0 22 18 39 40 39s39 -17 39 -39s-17 -40 -39 -40s-40 18 -40 40zM119 636c0 22 17 39 39 39s39 -17 39 -39s-17 -40 -39 -40s-39 18 -39 40zM113 258c0 -189 61 -206 172 -206c114 0 172 22 172 206c0 199 -54 221 -172 221c-115 0 -172 -16 -172 -221zM56 258
c0 217 60 278 229 278c177 0 229 -75 229 -278c0 -196 -54 -263 -229 -263c-178 0 -229 73 -229 263z" />
    <glyph glyph-name="divide" unicode="&#xf7;" horiz-adv-x="527" 
d="M229 479v51c0 12 7 20 20 20h37c12 0 19 -9 19 -20v-51c0 -12 -8 -18 -19 -18h-37c-12 0 -20 7 -20 18zM229 168v50c0 13 7 21 20 21h37c12 0 19 -9 19 -21v-50c0 -12 -8 -19 -19 -19h-37c-12 0 -20 8 -20 19zM56 324v58h416v-58h-416z" />
    <glyph glyph-name="oslash" unicode="&#xf8;" horiz-adv-x="569" 
d="M164 78c29 -22 70 -26 121 -26c114 0 172 20 172 206c0 87 -10 140 -32 172zM113 258c0 -72 9 -119 27 -150l257 349c-28 18 -65 22 -112 22c-115 0 -172 -16 -172 -221zM56 258c0 217 60 278 229 278c63 0 111 -10 145 -32l21 27h50l-39 -53c38 -44 52 -115 52 -220
c0 -196 -54 -263 -229 -263c-70 0 -120 11 -155 36l-23 -31h-47l42 57c-34 42 -46 107 -46 201z" />
    <glyph glyph-name="ugrave" unicode="&#xf9;" 
d="M116 729h72l112 -133h-51zM56 161v370h57v-370c0 -70 43 -113 107 -113c83 0 127 21 203 59v424h57v-531h-39l-18 62c-60 -36 -122 -71 -203 -71c-106 0 -164 82 -164 170z" />
    <glyph glyph-name="uacute" unicode="&#xfa;" 
d="M243 596l112 133h71l-133 -133h-50zM56 161v370h57v-370c0 -70 43 -113 107 -113c83 0 127 21 203 59v424h57v-531h-39l-18 62c-60 -36 -122 -71 -203 -71c-106 0 -164 82 -164 170z" />
    <glyph glyph-name="ucircumflex" unicode="&#xfb;" 
d="M125 596l123 130h53l110 -130h-53l-85 86l-94 -86h-54zM56 161v370h57v-370c0 -70 43 -113 107 -113c83 0 127 21 203 59v424h57v-531h-39l-18 62c-60 -36 -122 -71 -203 -71c-106 0 -164 82 -164 170z" />
    <glyph glyph-name="udieresis" unicode="&#xfc;" 
d="M356 636c0 22 18 39 40 39s39 -17 39 -39s-17 -40 -39 -40s-40 18 -40 40zM101 636c0 22 18 39 40 39s39 -17 39 -39s-17 -40 -39 -40s-40 18 -40 40zM56 161v370h57v-370c0 -70 43 -113 107 -113c83 0 127 21 203 59v424h57v-531h-39l-18 62c-60 -36 -122 -71 -203 -71
c-106 0 -164 82 -164 170z" />
    <glyph glyph-name="yacute" unicode="&#xfd;" horiz-adv-x="545" 
d="M247 596l112 133h71l-133 -133h-50zM23 531h63l135 -415c25 -73 78 -57 78 -57l159 472h63l-234 -699l-65 -102h-34l91 270c-21 0 -87 4 -119 110z" />
    <glyph glyph-name="thorn" unicode="&#xfe;" horiz-adv-x="556" 
d="M135 73c82 -23 138 -24 202 -26c77 0 118 54 118 222c0 142 -47 214 -118 214c-67 -3 -140 -29 -202 -53v-357zM78 -270v1052h57v-311c26 19 134 69 202 69c136 0 175 -137 175 -273c0 -134 -21 -277 -175 -277c-45 0 -138 13 -202 39v-299h-57z" />
    <glyph glyph-name="ydieresis" unicode="&#xff;" horiz-adv-x="545" 
d="M360 636c0 22 18 39 40 39s39 -17 39 -39s-17 -40 -39 -40s-40 18 -40 40zM105 636c0 22 18 39 40 39s39 -17 39 -39s-17 -40 -39 -40s-40 18 -40 40zM23 531h63l135 -415c25 -73 78 -57 78 -57l159 472h63l-234 -699l-65 -102h-34l91 270c-21 0 -87 4 -119 110z" />
    <glyph glyph-name="bullet" unicode="&#x2022;" horiz-adv-x="315" 
d="M95 350v62c0 22 11 36 33 36h57c25 0 35 -14 35 -36v-62c0 -24 -15 -32 -35 -32h-57c-20 0 -33 12 -33 32z" />
    <glyph glyph-name="quoteleft" unicode="&#x2018;" horiz-adv-x="235" 
d="M75 568v101c0 85 81 68 81 68v-26c-28 1 -29 -18 -29 -28v-31h11c12 0 23 -8 23 -24v-60c0 -17 -8 -25 -23 -25h-41c-17 0 -22 11 -22 25z" />
    <glyph glyph-name="quoteright" unicode="&#x2019;" horiz-adv-x="235" 
d="M75 653v60c0 17 8 26 24 26h40c17 0 23 -12 23 -26l-1 -101c0 -85 -81 -68 -81 -68v25c28 -1 29 19 29 29v31h-11c-12 0 -23 8 -23 24z" />
    <glyph glyph-name="quotesinglbase" unicode="&#x201a;" horiz-adv-x="235" 
d="M75 23v60c0 17 8 26 23 26h41c17 0 22 -12 22 -26v-100c0 -86 -81 -69 -81 -69v25c28 -1 29 19 29 30v30h-11c-12 0 -23 8 -23 24z" />
    <glyph glyph-name="quotedblright" unicode="&#x201d;" horiz-adv-x="362" 
d="M208 653v60c0 17 8 26 24 26h41c16 0 21 -12 21 -26v-101c0 -85 -81 -68 -81 -68v25c28 -1 29 19 29 29v31h-10c-13 0 -24 8 -24 24zM68 653v60c0 17 8 26 23 26h41c17 0 23 -12 23 -26v-101c0 -85 -82 -68 -82 -68v25c28 -1 28 19 28 29v31h-10c-12 0 -23 8 -23 24z" />
    <glyph glyph-name="quotedblbase" unicode="&#x201e;" horiz-adv-x="362" 
d="M208 24v60c0 17 8 26 24 26h41c16 0 21 -12 21 -26v-101c0 -86 -81 -69 -81 -69v26c28 -1 29 19 29 29v31h-10c-13 0 -24 8 -24 24zM68 24v60c0 17 8 26 23 26h41c17 0 23 -12 23 -26v-101c0 -86 -82 -69 -82 -69v26c28 -1 28 19 28 29v31h-10c-12 0 -23 8 -23 24z" />
    <glyph glyph-name="exclamdown.alt" horiz-adv-x="265" 
d="M99 0l6 535h54l6 -535h-66zM92 653v59c0 12 8 19 19 19h40c12 0 20 -8 20 -19v-59c0 -13 -7 -21 -20 -21h-40c-13 0 -19 9 -19 21z" />
    <glyph glyph-name="zerosuperior" unicode="&#x2070;" horiz-adv-x="482" 
d="M115 502c0 -54 17 -67 73 -67h109c62 0 71 21 71 67v247c0 45 -14 67 -71 67h-109c-58 0 -73 -22 -73 -67v-247zM67 498v255c0 84 46 110 117 110h117c83 0 113 -43 113 -110v-255c0 -96 -49 -110 -113 -110h-117c-59 0 -117 10 -117 110z" />
    <glyph glyph-name="foursuperior" unicode="&#x2074;" horiz-adv-x="414" 
d="M18 544l202 319h54l-182 -289h200v121l21 48h26v-169h59v-37l-59 -12v-136h-47v136h-258z" />
    <glyph glyph-name="fivesuperior" unicode="&#x2075;" horiz-adv-x="430" 
d="M61 396v36h211c44 0 66 25 66 70v56c0 32 -1 70 -64 70h-113c-33 0 -59 -21 -59 -57h-41l15 292h295v-47h-251l-9 -170c29 40 116 29 165 29c77 0 109 -42 109 -113v-64c0 -82 -46 -114 -109 -114c-81 0 -145 0 -215 12z" />
    <glyph glyph-name="sixsuperior" unicode="&#x2076;" horiz-adv-x="450" 
d="M108 613c0 -81 16 -177 83 -177h106c42 0 61 20 61 63v65c0 43 -23 49 -61 49h-189zM61 639c2 197 59 226 123 230c67 4 153 -3 205 -10v-37h-203c-67 0 -77 -95 -78 -173c55 6 144 11 192 11c88 0 105 -42 105 -93v-73c0 -72 -44 -105 -105 -105h-107
c-72 0 -134 37 -132 250z" />
    <glyph glyph-name="sevensuperior" unicode="&#x2077;" horiz-adv-x="370" 
d="M17 818v47h321l15 -26l-182 -450h-53l175 429h-276z" />
    <glyph glyph-name="eightsuperior" unicode="&#x2078;" horiz-adv-x="480" 
d="M121 715c0 -47 31 -62 60 -62h118c45 0 62 29 62 62v32c0 60 -23 74 -70 74h-97c-53 0 -73 -16 -73 -74v-32zM121 495c0 -43 15 -60 66 -60h112c38 0 62 14 62 60v50c0 42 -29 60 -58 60h-118c-38 0 -64 -19 -64 -59v-51zM74 491v58c0 48 35 68 61 73
c-46 13 -61 55 -61 89v40c0 92 49 117 116 117h110c70 0 108 -31 108 -117v-40c0 -21 -9 -69 -56 -77c34 -6 56 -51 56 -85v-58c0 -84 -50 -104 -105 -104h-120c-92 0 -109 50 -109 104z" />
    <glyph glyph-name="ninesuperior" unicode="&#x2079;" horiz-adv-x="450" 
d="M97 694c0 -43 23 -49 61 -49h189c0 81 -14 177 -81 177h-108c-41 0 -61 -20 -61 -63v-65zM50 691v73c0 72 44 105 105 105h107c72 0 134 -37 132 -250c-2 -197 -56 -226 -122 -230s-146 -1 -206 10v37h203c67 0 77 95 78 173c-55 -6 -144 -12 -192 -12
c-88 0 -105 43 -105 94z" />
    <glyph glyph-name="zeroinferior" unicode="&#x2080;" horiz-adv-x="482" 
d="M115 -86c0 -54 17 -67 73 -67h109c62 0 71 21 71 67v247c0 45 -14 67 -71 67h-109c-58 0 -73 -22 -73 -67v-247zM67 -90v255c0 84 46 110 117 110h117c83 0 113 -43 113 -110v-255c0 -96 -49 -110 -113 -110h-117c-59 0 -117 10 -117 110z" />
    <glyph glyph-name="oneinferior" unicode="&#x2081;" horiz-adv-x="265" 
d="M18 187v35l128 55h47v-476h-47v424z" />
    <glyph glyph-name="twoinferior" unicode="&#x2082;" horiz-adv-x="395" 
d="M35 236c-2 0 -1 36 0 35c66 8 111 12 183 12c98 0 130 -58 130 -136c0 -124 -183 -266 -223 -299h222v-47h-309v43c67 54 261 189 261 300c0 58 -19 92 -90 92h-174z" />
    <glyph glyph-name="threeinferior" unicode="&#x2083;" horiz-adv-x="416" 
d="M33 232v31c54 17 120 15 196 15c87 0 121 -55 121 -115v-35c0 -50 -36 -81 -61 -89c25 -12 61 -41 61 -95v-28c0 -71 -28 -119 -127 -119c-74 0 -134 -1 -186 16l1 30c21 0 177 1 177 1c64 0 87 19 87 76v23c0 54 -42 75 -83 76l-142 5v34l142 6c51 2 85 27 85 71v26
c0 53 -35 71 -82 71h-189z" />
    <glyph glyph-name="fourinferior" unicode="&#x2084;" horiz-adv-x="414" 
d="M18 -44l202 319h54l-182 -289h200v121l21 48h26v-169h59v-37l-59 -12v-136h-47v136h-258z" />
    <glyph glyph-name="fiveinferior" unicode="&#x2085;" horiz-adv-x="430" 
d="M61 -17l15 292h295v-47h-251l-9 -170c29 40 116 29 165 29c77 0 109 -42 109 -113v-64c0 -82 -46 -114 -109 -114c-81 0 -145 0 -215 12v36h211c44 0 66 25 66 70v56c0 32 -1 70 -64 70h-113c-33 0 -59 -21 -59 -57h-41z" />
    <glyph glyph-name="sixinferior" unicode="&#x2086;" horiz-adv-x="450" 
d="M108 25c0 -81 16 -177 83 -177h106c42 0 61 20 61 63v65c0 43 -23 49 -61 49h-189zM61 51c2 197 59 226 123 230c66 3 149 0 205 -10v-37h-203c-67 0 -77 -95 -78 -173c55 6 144 11 192 11c88 0 105 -42 105 -93v-73c0 -72 -44 -105 -105 -105h-107
c-72 0 -134 37 -132 250z" />
    <glyph glyph-name="seveninferior" unicode="&#x2087;" horiz-adv-x="370" 
d="M17 230v47h321l15 -26l-182 -450h-53l175 429h-276z" />
    <glyph glyph-name="eightinferior" unicode="&#x2088;" horiz-adv-x="480" 
d="M121 127c0 -47 31 -62 60 -62h118c45 0 62 29 62 62v32c0 60 -23 74 -70 74h-97c-53 0 -73 -16 -73 -74v-32zM121 -42v-51c0 -43 15 -60 66 -60h112c38 0 62 14 62 60v50c0 42 -29 60 -58 60h-118c-38 0 -64 -19 -64 -59zM74 -39c0 48 35 68 61 73c-46 13 -61 55 -61 89
v40c0 92 49 117 116 117h110c70 0 108 -31 108 -117v-40c0 -21 -9 -69 -56 -77c34 -6 56 -51 56 -85v-58c0 -84 -50 -104 -105 -104h-120c-92 0 -109 50 -109 104v58z" />
    <glyph glyph-name="nineinferior" unicode="&#x2089;" horiz-adv-x="450" 
d="M97 106c0 -43 23 -49 61 -49h189c0 81 -14 177 -81 177h-108c-41 0 -61 -20 -61 -63v-65zM50 103v73c0 72 44 105 105 105h107c72 0 134 -37 132 -250c-2 -197 -56 -226 -122 -230s-148 -1 -206 10v37h203c67 0 77 95 78 173c-55 -6 -144 -12 -192 -12
c-88 0 -105 43 -105 94z" />
    <glyph glyph-name="zero.oldstyle" horiz-adv-x="649" 
d="M135 162c0 -76 53 -105 115 -105h154c78 0 110 40 110 105v307c0 61 -29 105 -110 105h-154c-76 0 -115 -43 -115 -105v-307zM78 162v307c0 108 77 162 172 162h154c122 0 167 -71 167 -162v-307c0 -119 -68 -162 -167 -162h-154c-91 0 -172 42 -172 162z" />
    <glyph glyph-name="one.oldstyle" horiz-adv-x="353" 
d="M33 508v39l168 85h57v-632h-57v567z" />
    <glyph glyph-name="two.oldstyle" horiz-adv-x="597" 
d="M46 581v40c82 12 177 22 292 17c140 0 203 -74 203 -187c0 -169 -313 -364 -371 -394h366v-57h-485v53c116 63 433 250 433 400c0 90 -53 130 -150 128h-288z" />
    <glyph glyph-name="three.oldstyle" horiz-adv-x="618" 
d="M56 580v35c79 24 191 24 308 22c113 -2 171 -73 171 -165v-69c0 -84 -48 -124 -85 -136c38 -19 85 -59 85 -144v-59c0 -109 -56 -168 -178 -168c-114 0 -224 -1 -295 22l1 36h290c61 0 123 18 123 110v59c0 85 -64 113 -119 115l-233 7v43l233 8c72 3 121 38 121 107v69
c0 77 -57 108 -119 108h-303z" />
    <glyph glyph-name="four.oldstyle" horiz-adv-x="593" 
d="M22 128l317 504h67l-298 -477h316v217l28 75h29v-292h90v-44l-90 -16v-193h-57v193h-375z" />
    <glyph glyph-name="five.oldstyle" horiz-adv-x="637" 
d="M85 -44h304c70 0 107 49 107 112v105c0 38 -6 111 -107 111h-154c-46 0 -96 -34 -96 -92h-52l22 440h422v-57h-369l-14 -277c12 17 45 40 91 43c60 4 119 0 150 0c118 0 164 -69 164 -166v-109c0 -137 -102 -170 -164 -170c-124 0 -191 0 -304 19v41z" />
    <glyph glyph-name="six.oldstyle" horiz-adv-x="627" 
d="M140 363c0 -115 9 -307 131 -307h139c54 0 105 13 105 95v121c0 76 -49 91 -105 91h-270zM83 384c0 263 86 354 172 354c101 0 208 -5 292 -16v-41h-283c-103 0 -123 -185 -124 -278c85 10 196 17 270 17c135 0 161 -68 161 -148v-124c0 -112 -67 -149 -161 -149h-139
c-109 1 -188 74 -188 385z" />
    <glyph glyph-name="seven.oldstyle" horiz-adv-x="542" 
d="M33 575v57h452l24 -40l-256 -692h-68l251 675h-403z" />
    <glyph glyph-name="eight.oldstyle" horiz-adv-x="641" 
d="M141 494c0 -79 63 -92 108 -92h149c81 0 103 53 103 92v68c0 86 -35 118 -105 118h-136c-79 0 -119 -23 -119 -118v-68zM141 151c0 -64 42 -94 119 -94h135c49 0 106 26 106 94v105c0 74 -57 90 -103 90h-149c-46 0 -108 -21 -108 -90v-105zM84 154v98
c0 75 50 101 90 109c-72 20 -90 85 -90 138v65c0 134 73 173 176 173h136c107 0 162 -50 162 -173v-65c0 -33 -15 -106 -81 -117c59 -13 81 -80 81 -130v-98c0 -130 -99 -154 -163 -154h-135c-172 0 -176 113 -176 154z" />
    <glyph glyph-name="nine.oldstyle" horiz-adv-x="627" 
d="M123 359c0 -76 49 -91 105 -91h270c0 115 -10 307 -131 307h-139c-55 0 -105 -13 -105 -95v-121zM67 359v124c0 112 67 149 161 149h139c109 -1 188 -74 188 -385c0 -263 -86 -354 -172 -354c-101 0 -207 1 -292 16v41h282c104 0 124 185 125 278
c-85 -10 -196 -17 -270 -17c-135 0 -161 68 -161 148z" />
    <glyph glyph-name="Euro" unicode="&#x20ac;" horiz-adv-x="605" 
d="M22 261v36l88 5v115l-88 6v33l88 7c0 72 -10 277 234 277c52 0 165 -14 235 -27v-43s-152 13 -235 13c-162 0 -177 -96 -177 -220l251 -5v-36l-251 -5v-115l251 -6v-36s-254 -3 -251 -5c-1 -135 69 -203 177 -204c101 -1 239 15 239 15v-42c-81 -21 -155 -30 -239 -30
c-77 0 -234 35 -234 261z" />
    <glyph glyph-name="endash" unicode="&#x2013;" horiz-adv-x="517" 
d="M22 258v58h473v-58h-473z" />
    <glyph glyph-name="emdash" unicode="&#x2014;" horiz-adv-x="740" 
d="M22 260v58h696v-58h-696z" />
    <glyph glyph-name="breve" unicode="&#x2d8;" horiz-adv-x="340" 
d="M56 644h36c0 -45 38 -79 78 -78c45 0 80 31 80 78h36c0 -76 -61 -114 -116 -114s-114 42 -114 114z" />
    <glyph glyph-name="ogonek" unicode="&#x2db;" horiz-adv-x="235" 
d="M137 0h30c-93 -60 -84 -136 13 -137v-44c-115 -16 -193 116 -43 181z" />
    <glyph glyph-name="caron" unicode="&#x2c7;" horiz-adv-x="397" 
d="M56 661h53l91 -86l88 86h53l-113 -130h-55z" />
    <glyph glyph-name="hungarumlaut" unicode="&#x2dd;" horiz-adv-x="367" 
d="M159 531l111 133h72l-133 -133h-50zM22 531l112 133h72l-133 -133h-51z" />
    <glyph glyph-name="dotaccent" unicode="&#x2d9;" horiz-adv-x="187" 
d="M54 563v57c0 13 7 21 20 21h37c12 0 19 -9 19 -21v-57c0 -12 -8 -19 -19 -19h-37c-12 0 -20 8 -20 19z" />
    <glyph glyph-name="Aogonek" unicode="&#x104;" horiz-adv-x="666" 
d="M216 278h265l-130 371zM50 0l271 732h61l258 -732h-16c-93 -60 -84 -136 13 -137v-44c-115 -16 -193 116 -43 181h-21l-72 221h-306l-76 -221h-69z" />
    <glyph glyph-name="Lcaron" unicode="&#x13d;" horiz-adv-x="557" 
d="M226 705v67h58v-67l-9 -134h-39zM90 126v606h57v-606c0 -66 41 -69 79 -69h295v-57h-295c-66 0 -136 13 -136 126z" />
    <glyph glyph-name="Sacute" unicode="&#x15a;" horiz-adv-x="584" 
d="M283 798l111 133h72l-133 -133h-50zM73 494v66c0 145 84 178 196 178c53 0 199 -16 241 -22v-44c-64 4 -241 9 -241 9c-82 3 -139 -14 -139 -121v-66c0 -95 46 -106 117 -106h133c133 0 158 -82 158 -164v-68c0 -142 -101 -164 -200 -164c-49 0 -199 14 -245 22v44
c42 -4 152 -9 245 -9c58 0 143 9 143 107v68c0 67 -25 106 -101 106h-131c-158 0 -176 82 -176 164z" />
    <glyph glyph-name="Scaron" unicode="&#x160;" horiz-adv-x="584" 
d="M168 928h53l91 -86l88 86h53l-113 -130h-54zM73 494v66c0 145 84 178 196 178c53 0 199 -16 241 -22v-44c-64 4 -241 9 -241 9c-82 3 -139 -14 -139 -121v-66c0 -95 46 -106 117 -106h133c133 0 158 -82 158 -164v-68c0 -142 -101 -164 -200 -164c-49 0 -199 14 -245 22
v44c42 -4 152 -9 245 -9c58 0 143 9 143 107v68c0 67 -25 106 -101 106h-131c-158 0 -176 82 -176 164z" />
    <glyph glyph-name="Scedilla" unicode="&#x15e;" horiz-adv-x="584" 
d="M200 -154l46 11c36 11 50 36 49 98h50c0 -101 -20 -136 -101 -136h-44v27zM73 494v66c0 145 84 178 196 178c53 0 199 -16 241 -22v-44c-64 4 -241 9 -241 9c-82 3 -139 -14 -139 -121v-66c0 -95 46 -106 117 -106h133c133 0 158 -82 158 -164v-68
c0 -142 -101 -164 -200 -164c-49 0 -199 14 -245 22v44c42 -4 152 -9 245 -9c58 0 143 9 143 107v68c0 67 -25 106 -101 106h-131c-158 0 -176 82 -176 164z" />
    <glyph glyph-name="Tcaron" unicode="&#x164;" horiz-adv-x="586" 
d="M152 927h53l91 -86l88 86h53l-113 -130h-54zM46 675v57h511v-57h-230v-675h-57v675h-224z" />
    <glyph glyph-name="Zacute" unicode="&#x179;" horiz-adv-x="558" 
d="M262 797l112 133h71l-133 -133h-50zM39 0v57l409 618h-409v57h483v-57l-409 -618h409v-57h-483z" />
    <glyph glyph-name="Zcaron" unicode="&#x17d;" horiz-adv-x="558" 
d="M138 927h53l91 -86l88 86h53l-113 -130h-55zM39 0v57l409 618h-409v57h483v-57l-409 -618h409v-57h-483z" />
    <glyph glyph-name="Zdotaccent" unicode="&#x17b;" horiz-adv-x="558" 
d="M243 816v57c0 13 6 21 19 21h37c13 0 19 -9 19 -21v-57c0 -12 -7 -19 -19 -19h-37c-11 0 -19 8 -19 19zM39 0v57l409 618h-409v57h483v-57l-409 -618h409v-57h-483z" />
    <glyph glyph-name="aogonek" unicode="&#x105;" horiz-adv-x="533" 
d="M108 131c0 -61 37 -80 76 -80c80 -1 229 54 229 54v172l-229 -14c-56 -4 -76 -38 -76 -80v-52zM51 126v61c0 82 51 133 133 133c0 0 229 -1 229 0c0 0 1 66 0 67c0 64 -31 99 -98 99c-72 0 -152 -6 -247 -16v41c66 18 150 29 249 30c83 1 153 -44 153 -154v-387h-5
c-92 -60 -84 -136 13 -137v-44c-115 -16 -192 116 -43 181h-6l-16 64c-2 0 -135 -70 -229 -70c-73 0 -133 47 -133 132z" />
    <glyph glyph-name="lcaron" unicode="&#x13e;" horiz-adv-x="299" 
d="M208 714v67h58v-67l-9 -134h-39zM67 189v594h57v-594c0 -103 22 -121 69 -132c0 0 77 -18 84 -18v-39h-83c-88 0 -127 48 -127 189z" />
    <glyph glyph-name="sacute" unicode="&#x15b;" horiz-adv-x="505" 
d="M228 601l112 133h71l-133 -133h-50zM45 360v46c0 82 35 130 138 130c52 0 199 -9 251 -14v-42h-251c-71 0 -81 -27 -81 -74v-46c0 -66 31 -68 81 -68h148c83 0 130 -48 130 -123v-49c0 -109 -66 -125 -130 -125c-49 0 -226 12 -264 16v41h264c16 0 73 -4 73 68v49
c0 39 -20 67 -73 67h-148c-94 0 -138 21 -138 124z" />
    <glyph glyph-name="scaron" unicode="&#x161;" horiz-adv-x="505" 
d="M115 731h53l91 -86l88 86h53l-113 -130h-55zM45 360v46c0 82 35 130 138 130c52 0 199 -9 251 -14v-42h-251c-71 0 -81 -27 -81 -74v-46c0 -66 31 -68 81 -68h148c83 0 130 -48 130 -123v-49c0 -109 -66 -125 -130 -125c-49 0 -226 12 -264 16v41h264c16 0 73 -4 73 68
v49c0 39 -20 67 -73 67h-148c-94 0 -138 21 -138 124z" />
    <glyph glyph-name="scedilla" unicode="&#x15f;" horiz-adv-x="505" 
d="M148 -148l46 11c36 11 50 36 49 98h50c0 -101 -20 -136 -101 -136h-44v27zM45 360v46c0 82 35 130 138 130c52 0 199 -9 251 -14v-42h-251c-71 0 -81 -27 -81 -74v-46c0 -66 31 -68 81 -68h148c83 0 130 -48 130 -123v-49c0 -109 -66 -125 -130 -125
c-49 0 -226 12 -264 16v41h264c16 0 73 -4 73 68v49c0 39 -20 67 -73 67h-148c-94 0 -138 21 -138 124z" />
    <glyph glyph-name="tcaron" unicode="&#x165;" horiz-adv-x="357" 
d="M243 777l49 22l9 -44l-8 -111l-37 -46l-10 89zM22 475v42l94 15l15 148h42v-148h162v-57h-162v-285c0 -110 33 -125 69 -132c0 0 77 -18 84 -18v-39h-83c-76 0 -127 48 -127 189v285h-94z" />
    <glyph glyph-name="zacute" unicode="&#x17a;" horiz-adv-x="462" 
d="M207 594l111 133h72l-133 -133h-50zM33 474v57h396v-57l-306 -416h306c1 -1 0 -57 0 -57h-380v57l309 416h-325z" />
    <glyph glyph-name="zcaron" unicode="&#x17e;" horiz-adv-x="462" 
d="M96 726h53l91 -86l88 86h53l-113 -130h-54zM33 474v57h396v-57l-306 -416h306c1 -1 0 -57 0 -57h-380v57l309 416h-325z" />
    <glyph glyph-name="zdotaccent" unicode="&#x17c;" horiz-adv-x="462" 
d="M193 615v57c0 13 7 21 20 21h37c13 0 19 -9 19 -21v-57c0 -12 -7 -19 -19 -19h-37c-11 0 -20 8 -20 19zM33 474v57h396v-57l-306 -416h306c1 -1 0 -57 0 -57h-380v57l309 416h-325z" />
    <glyph glyph-name="Racute" unicode="&#x154;" horiz-adv-x="586" 
d="M264 792l112 133h72l-133 -133h-51zM124 368h243c57 0 113 8 113 151c0 139 -58 155 -113 155h-243v-306zM67 0v732h300c89 0 171 -43 171 -213c0 -190 -95 -207 -138 -210l157 -309h-62l-156 307c-18 1 -213 12 -215 13v-320h-57z" />
    <glyph glyph-name="Abreve" unicode="&#x102;" horiz-adv-x="666" 
d="M239 911h36c0 -45 38 -79 78 -78c45 0 80 31 80 78h36c0 -76 -61 -114 -116 -114s-114 42 -114 114zM216 278h265l-130 371zM50 0l271 732h61l258 -732h-67l-72 221h-306l-76 -221h-69z" />
    <glyph glyph-name="Lacute" unicode="&#x139;" horiz-adv-x="557" 
d="M94 795l112 133h72l-133 -133h-51zM90 126v606h57v-606c0 -66 41 -69 79 -69h295v-57h-295c-66 0 -136 13 -136 126z" />
    <glyph glyph-name="Cacute" unicode="&#x106;" horiz-adv-x="575" 
d="M302 800l112 133h71l-133 -133h-50zM61 368c0 233 44 372 244 372c52 0 164 -12 234 -25v-43c-1 0 -142 11 -234 11c-132 0 -187 -61 -187 -317c0 -186 48 -315 187 -315c105 0 234 9 234 9v-44c-70 -13 -182 -22 -234 -22c-185 0 -244 159 -244 374z" />
    <glyph glyph-name="Ccaron" unicode="&#x10c;" horiz-adv-x="575" 
d="M193 930h53l91 -86l88 86h53l-113 -130h-55zM61 368c0 233 44 372 244 372c52 0 164 -12 234 -25v-43c-1 0 -142 11 -234 11c-132 0 -187 -61 -187 -317c0 -186 48 -315 187 -315c105 0 234 9 234 9v-44c-70 -13 -182 -22 -234 -22c-185 0 -244 159 -244 374z" />
    <glyph glyph-name="Eogonek" unicode="&#x118;" horiz-adv-x="572" 
d="M90 123v479c0 98 60 133 126 130l309 -14v-43h-309c-56 0 -69 -30 -69 -73v-209l338 -8v-44l-338 -8v-210c0 -66 41 -69 79 -69h299v-42v0c-93 -61 -84 -137 13 -137v-44c-114 -16 -191 114 -47 179l-265 -13c-66 -3 -136 13 -136 126z" />
    <glyph glyph-name="Ecaron" unicode="&#x11a;" horiz-adv-x="572" 
d="M181 922h53l91 -86l88 86h53l-113 -130h-54zM90 123v479c0 98 60 133 126 130l309 -14v-43h-309c-56 0 -69 -30 -69 -73v-209l338 -8v-44l-338 -8v-210c0 -66 41 -69 79 -69h299v-42l-299 -15c-66 -3 -136 13 -136 126z" />
    <glyph glyph-name="Dcaron" unicode="&#x10e;" horiz-adv-x="661" 
d="M189 922h53l91 -86l88 86h53l-114 -130h-54zM147 59h208c144 0 203 153 203 305c0 221 -76 311 -203 311h-208v-616zM90 0v732h265c225 0 260 -219 260 -369c0 -166 -70 -363 -260 -363h-265z" />
    <glyph glyph-name="Nacute" unicode="&#x143;" horiz-adv-x="674" 
d="M335 797l111 133h72l-133 -133h-50zM90 0v732h58l407 -625v625h57v-732h-57l-408 625v-625h-57z" />
    <glyph glyph-name="Ncaron" unicode="&#x147;" horiz-adv-x="674" 
d="M215 927h53l91 -86l88 86h53l-113 -130h-55zM90 0v732h58l407 -625v625h57v-732h-57l-408 625v-625h-57z" />
    <glyph glyph-name="Ohungarumlaut" unicode="&#x150;" horiz-adv-x="675" 
d="M394 797l112 133h72l-133 -133h-51zM258 797l112 133h71l-133 -133h-50zM130 361c0 -271 56 -308 221 -308c161 0 221 43 221 308c0 307 -76 319 -221 319c-138 0 -221 -7 -221 -319zM73 361c0 343 109 376 278 376c173 0 278 -33 278 -376c0 -323 -98 -365 -278 -365
s-278 32 -278 365z" />
    <glyph glyph-name="Rcaron" unicode="&#x158;" horiz-adv-x="586" 
d="M148 925h53l91 -86l88 86h53l-113 -130h-55zM124 368h243c57 0 113 8 113 151c0 139 -58 155 -113 155h-243v-306zM67 0v732h300c89 0 171 -43 171 -213c0 -190 -95 -207 -138 -210l157 -309h-62l-156 307c-18 1 -213 12 -215 13v-320h-57z" />
    <glyph glyph-name="Uring" unicode="&#x16e;" horiz-adv-x="679" 
d="M287 899c0 -36 30 -65 67 -65c36 0 64 29 64 65s-28 66 -64 66c-37 0 -67 -30 -67 -66zM252 899c0 57 46 103 102 103s100 -46 100 -103s-44 -102 -100 -102s-102 45 -102 102zM90 320v412h57v-412c0 -271 85 -268 208 -268c108 0 204 7 204 268v412h57v-412
c0 -323 -140 -325 -261 -325c-136 0 -265 -7 -265 325z" />
    <glyph glyph-name="Uhungarumlaut" unicode="&#x170;" horiz-adv-x="679" 
d="M396 797l112 133h71l-133 -133h-50zM260 797l111 133h72l-133 -133h-50zM90 320v412h57v-412c0 -271 85 -268 208 -268c108 0 204 7 204 268v412h57v-412c0 -323 -140 -325 -261 -325c-136 0 -265 -7 -265 325z" />
    <glyph glyph-name="Tcommaaccent" unicode="&#x162;" horiz-adv-x="586" 
d="M177 -157l46 12c37 10 50 36 49 97h50c0 -101 -20 -136 -101 -136h-44v27zM46 675v57h511v-57h-230v-675h-57v675h-224z" />
    <glyph glyph-name="racute" unicode="&#x155;" horiz-adv-x="425" 
d="M223 598l112 133h71l-133 -133h-50zM67 0v531h39l18 -67c61 35 120 73 205 73c29 0 59 -2 74 -8v-56c-16 4 -45 6 -74 6c-83 0 -128 -24 -205 -61v-418h-57z" />
    <glyph glyph-name="abreve" unicode="&#x103;" horiz-adv-x="519" 
d="M157 715h36c0 -45 38 -79 78 -78c45 0 80 31 80 78h36c0 -76 -61 -114 -116 -114s-114 42 -114 114zM102 131c0 -61 37 -80 76 -80c80 -1 229 54 229 54v172l-229 -14c-56 -4 -76 -38 -76 -80v-52zM45 126v61c0 82 50 133 133 133c0 0 229 -1 229 0c0 0 1 66 0 67
c0 64 -31 99 -99 99c-72 0 -151 -6 -246 -16v41c66 18 149 29 249 30c83 1 153 -44 153 -154v-387h-42l-15 64c-2 0 -136 -70 -229 -70c-73 0 -133 47 -133 132z" />
    <glyph glyph-name="lacute" unicode="&#x13a;" horiz-adv-x="299" 
d="M91 843l112 133h72l-133 -133h-51zM67 189v594h57v-594c0 -111 36 -125 69 -132c0 0 77 -18 84 -18v-39h-81c-79 0 -129 51 -129 189z" />
    <glyph glyph-name="cacute" unicode="&#x107;" horiz-adv-x="500" 
d="M245 597l111 133h72l-133 -133h-50zM56 266c0 232 73 270 175 270c52 0 150 -13 218 -26v-40s-129 9 -218 9c-71 0 -118 -19 -118 -217c0 -171 41 -210 118 -210c92 0 225 14 225 14v-42c-81 -23 -142 -28 -225 -29c-99 0 -175 38 -175 271z" />
    <glyph glyph-name="ccaron" unicode="&#x10d;" horiz-adv-x="500" 
d="M131 727h53l91 -86l88 86h53l-113 -130h-54zM56 266c0 232 73 270 175 270c52 0 150 -13 218 -26v-40s-129 9 -218 9c-71 0 -118 -19 -118 -217c0 -171 41 -210 118 -210c92 0 225 14 225 14v-42c-81 -23 -142 -28 -225 -29c-99 0 -175 38 -175 271z" />
    <glyph glyph-name="eogonek" unicode="&#x119;" horiz-adv-x="525" 
d="M113 290h231c48 0 80 11 80 57c0 120 -34 131 -145 131c-122 0 -166 -11 -166 -188zM56 268c0 236 63 267 222 267c124 0 203 -12 203 -188c0 -78 -44 -113 -137 -113h-231c0 -152 37 -182 118 -182c92 0 165 2 240 13v-42c-93 -60 -84 -136 12 -137v-44
c-107 -15 -182 100 -69 168c-60 -12 -120 -15 -183 -15c-136 1 -175 69 -175 273z" />
    <glyph glyph-name="ecaron" unicode="&#x11b;" horiz-adv-x="525" 
d="M138 723h53l91 -86l88 86h53l-113 -130h-55zM113 290h231c48 0 80 11 80 57c0 120 -34 131 -145 131c-122 0 -166 -11 -166 -188zM56 268c0 236 63 267 222 267c124 0 203 -12 203 -188c0 -78 -44 -113 -137 -113h-231c0 -152 37 -182 118 -182c92 0 165 2 240 13v-42
c-81 -23 -157 -28 -240 -28c-136 1 -175 69 -175 273z" />
    <glyph glyph-name="dcaron" unicode="&#x10f;" horiz-adv-x="553" 
d="M539 758l49 23l9 -45l-7 -111l-37 -45l-11 88zM113 263c0 -147 49 -212 121 -212c79 0 143 25 196 49v355c-69 18 -119 27 -196 27c-71 0 -121 -40 -121 -219zM56 263c0 136 27 276 178 276c45 0 133 -14 197 -40v286h55v-785h-39l-17 59c-26 -21 -128 -65 -196 -65
c-145 0 -178 147 -178 269z" />
    <glyph glyph-name="nacute" unicode="&#x144;" 
d="M252 600l111 133h72l-133 -133h-50zM67 0v531h39l18 -62c60 36 122 71 203 71c106 0 164 -82 164 -170v-370h-57v370c0 70 -43 113 -107 113c-83 0 -127 -20 -203 -58v-425h-57z" />
    <glyph glyph-name="ncaron" unicode="&#x148;" 
d="M144 730h53l91 -86l88 86h53l-114 -130h-54zM67 0v531h39l18 -62c60 36 122 71 203 71c106 0 164 -82 164 -170v-370h-57v370c0 70 -43 113 -107 113c-83 0 -127 -20 -203 -58v-425h-57z" />
    <glyph glyph-name="ohungarumlaut" unicode="&#x151;" horiz-adv-x="569" 
d="M328 596l111 133h72l-133 -133h-50zM191 596l112 133h72l-133 -133h-51zM113 258c0 -189 61 -206 172 -206c114 0 172 22 172 206c0 199 -54 221 -172 221c-115 0 -172 -16 -172 -221zM56 258c0 217 60 278 229 278c177 0 229 -75 229 -278c0 -196 -54 -263 -229 -263
c-178 0 -229 73 -229 263z" />
    <glyph glyph-name="rcaron" unicode="&#x159;" horiz-adv-x="425" 
d="M92 727h53l92 -86l88 86h53l-114 -130h-54zM67 0v531h39l18 -67c61 35 120 73 205 73c29 0 59 -2 74 -8v-56c-16 4 -45 6 -74 6c-83 0 -128 -24 -205 -61v-418h-57z" />
    <glyph glyph-name="uring" unicode="&#x16f;" 
d="M202 698c0 -36 31 -65 67 -65s65 29 65 65s-29 66 -65 66s-67 -30 -67 -66zM167 698c0 57 46 103 102 103s100 -46 100 -103s-44 -102 -100 -102s-102 45 -102 102zM56 161v370h57v-370c0 -70 43 -113 107 -113c83 0 127 21 203 59v424h57v-531h-39l-18 62
c-60 -36 -122 -71 -203 -71c-106 0 -164 82 -164 170z" />
    <glyph glyph-name="uhungarumlaut" unicode="&#x171;" 
d="M311 596l112 133h71l-133 -133h-50zM175 596l111 133h72l-133 -133h-50zM56 161v370h57v-370c0 -70 43 -113 107 -113c83 0 127 21 203 59v424h57v-531h-39l-18 62c-60 -36 -122 -71 -203 -71c-106 0 -164 82 -164 170z" />
    <glyph glyph-name="tcommaaccent" unicode="&#x163;" horiz-adv-x="368" 
d="M89 -160l45 11c37 11 50 36 49 98h50c0 -101 -20 -136 -101 -136h-43v27zM22 475v42l94 15l15 148h42v-148h162v-57h-162v-286c0 -110 37 -125 69 -132c0 0 77 -17 84 -17v-40h-81c-79 0 -129 51 -129 189v286h-94z" />
    <glyph glyph-name="Lslash" unicode="&#x141;" horiz-adv-x="557" 
d="M7 334v47l83 36v315h57v-290l133 57l-1 -47l-132 -58v-268c0 -66 41 -69 79 -69h295v-57h-295c-66 0 -136 13 -136 126v244z" />
    <glyph glyph-name="lslash" unicode="&#x142;" horiz-adv-x="319" 
d="M10 379v48l77 34v322h57v-296l140 64l-1 -46l-139 -65v-251c0 -103 28 -124 69 -132c0 0 77 -18 84 -18v-39h-83c-77 0 -127 48 -127 189v226z" />
    <glyph glyph-name="Dcroat" unicode="&#x110;" horiz-adv-x="661" 
d="M147 59h205c144 0 200 153 200 305c0 219 -78 308 -200 308l-205 -1v-278h145v-40h-145v-294zM25 353v40h65v338c0 1 223 1 262 1c226 0 259 -219 259 -369c0 -166 -68 -363 -259 -363h-262v353h-65z" />
    <glyph glyph-name="dcroat" unicode="&#x111;" horiz-adv-x="553" 
d="M113 263c0 -145 50 -212 122 -212c79 0 142 25 196 49v355c-69 18 -119 27 -196 27c-71 0 -122 -42 -122 -219zM56 263c0 136 28 276 179 276c45 0 132 -14 196 -40v125h-126v41h126v120h56v-120h75v-41h-75v-624h-40l-16 59c-26 -21 -128 -65 -196 -65
c-145 0 -179 147 -179 269z" />
    <glyph glyph-name="questiondown.alt" horiz-adv-x="537" 
d="M287 655v58c0 13 8 20 19 20h41c11 0 20 -8 20 -20v-58c0 -13 -7 -21 -20 -21h-41c-12 0 -19 9 -19 21zM45 179v101c0 135 98 177 251 157c0 2 1 97 0 101h58v-148c-38 0 -91 1 -130 0c-67 -2 -123 -31 -123 -110v-101c0 -93 44 -128 150 -128l265 1v-41
c-94 -12 -168 -20 -272 -17c-154 -1 -199 80 -199 185z" />
    <glyph glyph-name="at.alt" horiz-adv-x="853" 
d="M285 199c0 -34 33 -66 78 -66c59 -1 136 34 186 58v149l-187 -14c-40 -3 -77 -25 -77 -82v-45zM73 433c0 36 2 164 168 164h210c71 0 153 -30 153 -140v-372h-42l-12 64c-2 0 -103 -73 -194 -73c-74 -2 -129 49 -128 117v53c0 80 46 133 129 133c75 0 192 -1 192 0
c0 0 1 76 0 76c0 65 -38 85 -101 85h-207c-60 0 -111 -19 -111 -107v-348c0 -99 62 -120 111 -120h339c89 0 120 41 120 120v512c0 83 -44 131 -120 131h-399v36c48 10 162 22 288 21h111c106 -2 177 -63 177 -188v-512c0 -98 -39 -178 -177 -178h-339
c-102 0 -168 62 -168 178v348z" />
    <glyph glyph-name="oe" unicode="&#x153;" horiz-adv-x="924" 
d="M513 290h230c48 0 80 11 80 57c0 120 -34 131 -145 131c-122 0 -169 -17 -165 -188zM113 258c0 -189 61 -206 172 -206c134 0 171 38 171 213c0 180 -49 214 -171 214c-115 0 -172 -16 -172 -221zM56 258c0 217 60 278 229 278c105 0 165 -28 197 -93c30 78 92 92 195 92
c124 0 203 -12 203 -188c0 -78 -44 -113 -137 -113h-230c-2 -144 35 -182 117 -182c92 0 165 2 240 13v-42c-81 -23 -157 -28 -240 -28c-79 0 -125 26 -149 88c-31 -63 -92 -88 -196 -88c-178 0 -229 73 -229 263z" />
    <glyph glyph-name="OE" unicode="&#x152;" horiz-adv-x="1054" 
d="M73 361c0 343 108 376 278 376c103 0 181 -12 227 -98c12 70 62 96 119 93l300 -14v-43h-300c-55 0 -69 -30 -69 -73c0 0 0 -184 1 -209l328 -8v-44l-328 -8c0 -26 -1 -210 -1 -210c1 -66 41 -69 79 -69h290v-42l-290 -15c-60 -3 -117 11 -130 93
c-45 -79 -121 -94 -226 -94c-180 0 -278 32 -278 365zM130 361c0 -271 56 -308 221 -308c167 0 220 48 220 311c0 301 -74 316 -220 316c-138 0 -221 -7 -221 -319z" />
    <glyph glyph-name="Ydieresis" unicode="&#x178;" horiz-adv-x="626" 
d="M413 837c0 22 18 39 40 39s39 -17 39 -39s-17 -40 -39 -40s-40 18 -40 40zM159 837c0 22 17 39 39 39s39 -17 39 -39s-17 -40 -39 -40s-39 18 -39 40zM50 732h63l202 -403l223 403h62l-256 -472v-260h-57v260z" />
    <glyph glyph-name="g.salt" horiz-adv-x="557" 
d="M113 268c0 -117 12 -221 127 -221c74 0 111 7 194 28v405h-194c-109 0 -127 -120 -127 -212zM56 268c0 168 59 269 184 269c106 0 204 -16 251 -20v-621c0 -124 -90 -175 -159 -168l-248 24v37l248 -5c54 -1 102 33 102 112v133c-64 -26 -149 -39 -194 -39
c-153 0 -184 120 -184 278z" />
    <glyph glyph-name="guilsinglleft" unicode="&#x2039;" horiz-adv-x="355" 
d="M56 354l206 203l40 -40l-167 -163l172 -168l-40 -40z" />
    <glyph glyph-name="guilsinglright" unicode="&#x203a;" horiz-adv-x="355" 
d="M56 186l172 168l-167 163l40 40l206 -203l-211 -208z" />
    <glyph glyph-name="perthousand" unicode="&#x2030;" horiz-adv-x="1380" 
d="M1025 127c0 -61 21 -77 79 -77h101c64 0 81 17 81 77v133c0 59 -19 77 -79 77h-101c-66 0 -81 -17 -81 -77v-133zM977 127v133c0 85 28 125 129 125h101c98 0 127 -40 127 -125v-133c0 -85 -28 -125 -129 -125h-101c-98 0 -127 40 -127 125zM599 127c0 -61 21 -77 79 -77
h101c64 0 81 17 81 77v133c0 59 -19 77 -79 77h-101c-65 0 -81 -17 -81 -77v-133zM551 127v133c0 85 28 125 129 125h101c98 0 127 -40 127 -125v-133c0 -85 -28 -125 -129 -125h-101c-98 0 -127 40 -127 125zM232 0l438 732h54l-438 -732h-54zM95 474c0 -62 22 -77 79 -77
h101c65 0 81 17 81 77v133c0 59 -19 77 -79 77h-101c-65 0 -81 -17 -81 -77v-133zM47 474v133c0 85 28 125 129 125h101c98 0 127 -40 127 -125v-133c0 -85 -28 -125 -129 -125h-101c-98 0 -127 40 -127 125z" />
    <glyph glyph-name="dagger" unicode="&#x2020;" horiz-adv-x="388" 
d="M22 497v44l143 7l7 222h46l7 -222l141 -7v-44l-141 -8l-8 -561h-46l-6 561z" />
    <glyph glyph-name="daggerdbl" unicode="&#x2021;" horiz-adv-x="411" 
d="M22 181v43l144 8l-1 257l-143 8v44l143 7l7 222h46l7 -222l141 -7v-44l-141 -8l-3 -257l144 -8v-43l-145 -9l-4 -244h-46l-4 244z" />
    <glyph glyph-name="trademark" unicode="&#x2122;" horiz-adv-x="696" 
d="M320 383l27 349h46l110 -268l98 268h47l31 -349h-46l-21 241l-88 -241h-39l-100 242l-18 -242h-47zM22 685v47h259v-47h-105v-302h-47v302h-107z" />
    <glyph glyph-name="notequal" unicode="&#x2260;" horiz-adv-x="471" 
d="M22 212v60h143l99 163h-242v60h278l46 75h47l-46 -75h102v-60h-139l-99 -163h238v-60h-274l-52 -86h-47l52 86h-106z" />
    <glyph glyph-name="infinity" unicode="&#x221e;" horiz-adv-x="797" 
d="M424 342c36 -58 89 -116 159 -116c83 0 102 50 102 115c0 67 -10 116 -102 116c-56 0 -124 -61 -159 -115zM113 341c0 -71 21 -115 102 -115c75 0 127 67 159 116c-38 57 -102 115 -159 115c-90 0 -102 -43 -102 -116zM56 341c0 87 21 173 159 173c76 0 146 -62 184 -120
c36 57 108 120 184 120c138 0 159 -89 159 -173c0 -92 -32 -172 -159 -172c-81 0 -144 51 -185 123c-41 -75 -103 -123 -183 -123c-127 0 -159 80 -159 172z" />
    <glyph glyph-name="lessequal" unicode="&#x2264;" horiz-adv-x="487" 
d="M56 405v59l365 172v-62l-289 -140l289 -150v-64zM56 112v57h377v-57h-377z" />
    <glyph glyph-name="greaterequal" unicode="&#x2265;" horiz-adv-x="487" 
d="M68 220v64l289 150l-289 140v62l365 -172v-59zM56 112v57h377v-57h-377z" />
    <glyph glyph-name="circumflex" unicode="&#x2c6;" horiz-adv-x="397" 
d="M56 531l122 130h54l109 -130h-53l-85 86l-93 -86h-54z" />
    <glyph glyph-name="tilde" unicode="&#x2dc;" horiz-adv-x="449" 
d="M56 572c38 32 74 62 114 62c46 -2 84 -47 114 -48c29 -1 65 24 94 42l16 -30c-33 -28 -70 -64 -112 -63c-51 2 -78 48 -113 47c-42 0 -61 -22 -98 -40z" />
    <glyph glyph-name="ring" unicode="&#x2da;" horiz-adv-x="314" 
d="M92 632c0 -36 30 -65 66 -65s65 29 65 65s-29 66 -65 66s-66 -30 -66 -66zM56 632c0 57 46 103 102 103s101 -46 101 -103s-45 -102 -101 -102s-102 45 -102 102z" />
    <glyph glyph-name="ellipsis" unicode="&#x2026;" horiz-adv-x="813" 
d="M637 19v59c0 13 7 21 20 21h39c14 0 20 -8 20 -21v-59c0 -14 -9 -19 -20 -19h-39c-12 0 -20 8 -20 19zM365 19v59c0 13 7 21 20 21h39c14 0 20 -8 20 -21v-59c0 -14 -9 -19 -20 -19h-39c-12 0 -20 8 -20 19zM93 19v59c0 13 7 21 20 21h39c14 0 20 -8 20 -21v-59
c0 -14 -9 -19 -20 -19h-39c-12 0 -20 8 -20 19z" />
    <glyph glyph-name="fraction" unicode="&#x2044;" horiz-adv-x="208" 
d="M-101 0l361 745h49l-361 -745h-49z" />
    <glyph glyph-name="dotlessi" unicode="&#x131;" horiz-adv-x="191" 
d="M67 0v531h57v-531h-57z" />
    <glyph glyph-name="ampersand.salt" horiz-adv-x="943" 
d="M247 218h233c59 0 77 3 77 58c0 51 -14 59 -77 59h-129c-63 0 -104 -13 -104 -117zM106 286c0 -55 46 -68 84 -68c0 118 50 174 161 174h129c61 0 134 -3 134 -116c0 -97 -39 -115 -134 -115h-233c1 -101 60 -102 131 -104h154c91 0 176 29 176 130v288h-448
c-107 0 -154 -6 -154 -100v-89zM49 286v89c0 137 77 157 211 157h448l15 148h42v-149h155v-39l-155 -17v-288c0 -156 -130 -187 -233 -187h-154c-111 0 -188 21 -188 162c-60 0 -141 29 -141 124z" />
    <glyph glyph-name="a.superior" horiz-adv-x="369" 
d="M82 471c0 -37 27 -50 57 -50c60 0 141 43 141 43v104l-142 -11c-37 -3 -56 -22 -56 -52v-34zM35 463v46c0 54 38 90 100 90c0 0 145 0 145 1v31c0 45 -27 64 -74 64c-54 0 -93 -2 -159 -7v31c54 14 90 18 165 20c62 1 115 -30 115 -103v-258h-31l-16 52
c-2 0 -84 -56 -145 -56c-52 0 -100 31 -100 89z" />
    <glyph glyph-name="b.superior" horiz-adv-x="392" 
d="M89 459c37 -16 71 -38 130 -38c57 0 87 42 87 133c0 111 -28 138 -87 138c-58 0 -81 -8 -130 -19v-214zM42 378v524h47v-193c48 20 101 30 135 30c114 0 129 -94 129 -185c0 -82 -21 -180 -130 -180c-58 0 -114 38 -134 52l-16 -48h-31z" />
    <glyph glyph-name="c.superior" horiz-adv-x="360" 
d="M35 555c0 155 54 182 131 182c39 0 100 -10 152 -20v-35s-89 8 -148 8c-52 0 -88 -9 -88 -137c0 -104 25 -133 88 -133c72 0 153 10 153 10v-35c-54 -16 -95 -21 -157 -22c-74 0 -131 26 -131 182z" />
    <glyph glyph-name="d.superior" horiz-adv-x="390" 
d="M82 555c0 -91 29 -134 87 -134c59 0 92 22 128 38v214c-49 12 -71 20 -129 20c-59 0 -86 -27 -86 -138zM35 555c0 91 14 185 128 185c34 0 87 -10 135 -30v193h46v-525h-31l-16 48c-19 -14 -75 -52 -133 -52c-109 0 -129 99 -129 181z" />
    <glyph glyph-name="e.superior" horiz-adv-x="390" 
d="M82 577h161c37 0 61 7 61 35c0 62 -24 76 -108 76c-76 0 -114 -16 -114 -111zM35 557c0 118 29 178 161 178c82 0 156 -8 156 -128c0 -52 -35 -78 -106 -78h-164c0 -93 27 -109 91 -109c69 0 114 1 171 10v-34c-61 -17 -115 -23 -177 -23c-91 0 -132 38 -132 184z" />
    <glyph glyph-name="f.superior" horiz-adv-x="327" 
d="M29 679v36l75 10v73c0 36 6 105 96 105c37 0 64 -5 98 -13v-33l-84 2c-55 0 -63 -25 -63 -66v-67h115v-47h-117v-301h-47v301h-73z" />
    <glyph glyph-name="g.superior" horiz-adv-x="415" 
d="M87 603c-1 -42 21 -84 80 -84h58c57 0 79 42 79 84c0 45 -24 83 -73 83h-62c-66 0 -81 -42 -82 -83zM83 300c0 -57 32 -68 72 -68h97c46 0 64 21 64 63v5c0 39 -32 49 -68 53l-133 16c-7 1 -32 6 -32 6v-75zM37 291v42l20 52c-17 14 -21 37 -21 55c0 23 15 54 56 58
c-33 15 -53 61 -53 105c0 86 48 129 121 129h221v-28l-63 -17c12 -8 33 -42 33 -84c0 -53 -25 -131 -122 -131h-103c-11 0 -42 -3 -42 -28c-1 -20 10 -28 32 -30l147 -17c59 -7 98 -40 98 -94v-8c0 -41 -12 -109 -101 -109h-114c-64 0 -109 34 -109 105z" />
    <glyph glyph-name="h.superior" horiz-adv-x="398" 
d="M42 378v523h47v-216c42 25 85 54 146 54c81 0 120 -55 120 -114v-247h-47v240c0 49 -36 74 -77 74c-57 0 -89 -16 -142 -40v-274h-47z" />
    <glyph glyph-name="i.superior" horiz-adv-x="136" 
d="M43 378v356h47v-356h-47zM38 795v40c0 10 5 16 16 16h27c10 0 16 -7 16 -16v-40c0 -10 -6 -15 -16 -15h-27c-10 0 -16 5 -16 15z" />
    <glyph glyph-name="j.superior" horiz-adv-x="139" 
d="M43 196v537h49v-358c1 -58 -4 -120 -16 -179h-33zM39 798v39c0 10 5 17 16 17h28c10 0 15 -7 15 -17v-39c0 -10 -6 -16 -15 -16h-28c-10 0 -16 6 -16 16z" />
    <glyph glyph-name="k.superior" horiz-adv-x="373" 
d="M42 378v521h47v-301h38l147 133h67l-171 -155l172 -198h-62l-148 173h-43v-173h-47z" />
    <glyph glyph-name="l.superior" horiz-adv-x="238" 
d="M41 504v396h47v-391c0 -67 17 -79 54 -87c0 0 62 -12 65 -12v-32h-67c-72 0 -99 37 -99 126z" />
    <glyph glyph-name="m.superior" horiz-adv-x="660" 
d="M42 378v354h35l12 -48c42 25 85 53 143 53c50 0 90 -22 106 -56c37 29 94 56 158 56c72 0 121 -49 121 -114v-245h-47v238c0 47 -34 74 -76 74c-57 0 -96 -14 -141 -38c2 -6 3 -28 3 -34v-240h-47v238c0 47 -36 74 -78 74c-57 0 -89 -16 -142 -40v-272h-47z" />
    <glyph glyph-name="n.superior" horiz-adv-x="398" 
d="M42 378v354h32l15 -46c41 25 85 53 146 53c81 0 120 -55 120 -114v-247h-47v240c0 50 -35 75 -77 75c-57 0 -89 -17 -142 -41v-274h-47z" />
    <glyph glyph-name="o.superior" horiz-adv-x="395" 
d="M82 550c0 -109 37 -128 115 -128c81 0 111 26 111 128c0 113 -30 138 -113 138c-86 0 -113 -32 -113 -138zM35 550c0 119 33 185 162 185c126 0 158 -65 158 -185c0 -110 -32 -175 -158 -175c-128 0 -162 63 -162 175z" />
    <glyph glyph-name="p.superior" horiz-adv-x="390" 
d="M87 436c46 -12 78 -19 133 -19c56 0 84 27 84 139c0 91 -30 135 -85 135s-97 -23 -132 -39v-216zM42 194v539h31l14 -47c19 14 82 52 137 52c105 0 127 -99 127 -182c0 -92 -17 -186 -125 -186c-33 0 -92 10 -139 30v-206h-45z" />
    <glyph glyph-name="q.superior" horiz-adv-x="393" 
d="M82 556c0 -70 11 -142 99 -142c56 0 57 5 119 19v259h-119c-83 0 -99 -74 -99 -136zM35 556c0 114 45 183 139 183c80 0 138 -12 173 -15v-530h-47v203c-48 -20 -92 -30 -126 -30c-115 0 -139 96 -139 189z" />
    <glyph glyph-name="r.superior" horiz-adv-x="332" 
d="M42 378v354h33l14 -51c43 25 86 55 147 55c22 0 47 -2 56 -6v-45c-9 2 -34 4 -56 4c-59 0 -92 -16 -147 -40v-271h-47z" />
    <glyph glyph-name="s.superior" horiz-adv-x="375" 
d="M35 616v35c0 57 25 91 95 91c36 0 150 -9 186 -13v-35l-177 1c-53 0 -57 -20 -57 -52v-24c0 -41 18 -42 54 -42h113c59 0 88 -33 88 -86v-37c0 -73 -45 -87 -89 -87c-34 0 -170 13 -196 16v34l185 -2c11 0 53 -9 53 48v25c0 30 -13 41 -50 41h-112c-63 0 -93 16 -93 87z
" />
    <glyph glyph-name="t.superior" horiz-adv-x="310" 
d="M30 687v34l74 11l14 101h33v-99h112v-47h-112v-180c0 -66 11 -78 55 -85c0 0 56 -10 57 -10v-33h-59c-71 0 -100 32 -100 124v184h-74z" />
    <glyph glyph-name="u.superior" horiz-adv-x="394" 
d="M40 491v243h47v-240c0 -47 36 -74 77 -74c55 0 84 16 136 39v275h48v-354h-33l-15 47c-41 -26 -78 -54 -139 -54c-81 0 -121 59 -121 118z" />
    <glyph glyph-name="v.superior" horiz-adv-x="416" 
d="M28 732h53l129 -285l125 285h52l-157 -354h-41z" />
    <glyph glyph-name="w.superior" horiz-adv-x="616" 
d="M28 732h53l129 -285l125 285h52l-53 -118l76 -167l124 285h53l-157 -354h-41l-81 176l-78 -176h-41z" />
    <glyph glyph-name="x.superior" horiz-adv-x="393" 
d="M29 378l140 179l-140 175h58l110 -137l105 137h59l-136 -175l138 -179h-58l-108 142l-110 -142h-58z" />
    <glyph glyph-name="y.superior" horiz-adv-x="429" 
d="M28 733h52l109 -272c10 -22 22 -37 42 -37l116 309h52l-173 -469l-52 -68h-32l71 180c-33 4 -56 37 -68 66z" />
    <glyph glyph-name="z.superior" horiz-adv-x="375" 
d="M35 686v46h300v-40l-227 -267h226c1 -1 0 -46 0 -46h-288v46l224 261h-235z" />
    <glyph glyph-name="zero.tnum" horiz-adv-x="623" 
d="M122 162c0 -76 53 -105 115 -105h154c77 0 110 40 110 105v408c0 61 -29 105 -110 105h-154c-77 0 -115 -43 -115 -105v-408zM65 162v408c0 108 77 162 172 162h154c122 0 167 -74 167 -162v-408c0 -119 -68 -162 -167 -162h-154c-91 0 -172 42 -172 162z" />
    <glyph glyph-name="one.tnum" horiz-adv-x="623" 
d="M158 606v39l177 87h58v-674h169v-58h-404v58h177v609z" />
    <glyph glyph-name="two.tnum" horiz-adv-x="623" 
d="M63 684v41c102 13 203 17 294 17c145 0 203 -101 203 -210c0 -191 -318 -429 -383 -475h383v-57h-490v53c105 75 432 315 432 481c0 95 -49 150 -147 150h-292z" />
    <glyph glyph-name="three.tnum" horiz-adv-x="623" 
d="M74 677v35c78 24 191 24 308 22c113 -2 170 -73 170 -165v-69c0 -84 -48 -124 -84 -136c38 -19 84 -58 84 -144v-59c0 -109 -56 -168 -178 -168c-114 0 -223 -1 -294 22v36h290c62 0 123 15 123 110v59c0 85 -64 113 -119 115l-232 7v43l232 9c72 2 121 37 121 106v69
c0 77 -57 108 -119 108h-302z" />
    <glyph glyph-name="four.tnum" horiz-adv-x="623" 
d="M31 228l317 504h68l-298 -477h316v217l27 75h30v-292h90v-44l-90 -15v-194h-57v194h-376z" />
    <glyph glyph-name="five.tnum" horiz-adv-x="623" 
d="M85 15v41h304c70 0 107 49 107 112v105c0 39 -6 111 -107 111h-154c-46 0 -96 -34 -96 -92h-52l22 440h422v-57h-369l-14 -276c12 16 44 39 90 41c60 5 120 1 151 1c118 0 164 -69 164 -166v-109c0 -137 -102 -170 -164 -170c-124 0 -191 1 -304 19z" />
    <glyph glyph-name="six.tnum" horiz-adv-x="623" 
d="M125 363c0 -115 10 -307 131 -307h139c55 0 105 13 105 95v121c0 76 -49 91 -105 91h-270zM68 384c0 263 86 354 172 354c101 0 206 -5 292 -16v-41h-282c-104 0 -124 -185 -125 -278c85 10 196 17 270 17c135 0 161 -68 161 -148v-124c0 -112 -67 -149 -161 -149h-139
c-109 1 -188 74 -188 385z" />
    <glyph glyph-name="seven.tnum" horiz-adv-x="623" 
d="M75 675v57h452l23 -40l-256 -692h-67l251 675h-403z" />
    <glyph glyph-name="eight.tnum" horiz-adv-x="623" 
d="M133 494c0 -79 63 -92 108 -92h149c81 0 103 53 103 92v68c0 86 -34 118 -105 118h-136c-79 0 -119 -23 -119 -118v-68zM133 151c0 -64 42 -94 119 -94h135c49 0 106 26 106 94v105c0 74 -57 90 -103 90h-149c-46 0 -108 -21 -108 -90v-105zM76 154v98
c0 75 51 101 90 109c-71 20 -90 85 -90 138v65c0 134 73 173 176 173h136c107 0 162 -50 162 -173v-65c1 -33 -14 -106 -81 -117c60 -13 82 -80 81 -130v-98c0 -130 -99 -154 -163 -154h-135c-172 0 -176 113 -176 154z" />
    <glyph glyph-name="nine.tnum" horiz-adv-x="623" 
d="M124 463c0 -76 49 -91 105 -91h270c0 116 -9 307 -131 307h-139c-55 0 -105 -13 -105 -95v-121zM68 463v124c0 112 67 149 161 149h139c109 0 188 -74 188 -385c0 -262 -86 -354 -172 -354c-101 0 -204 2 -292 16v41h282c104 0 124 185 125 279
c-85 -10 -196 -18 -270 -18c-135 0 -161 69 -161 148z" />
    <glyph glyph-name="zero.tosf" horiz-adv-x="623" 
d="M122 162c0 -76 53 -105 115 -105h154c77 0 110 40 110 105v307c0 61 -29 105 -110 105h-154c-77 0 -115 -43 -115 -105v-307zM65 162v307c0 108 77 162 172 162h154c122 0 167 -71 167 -162v-307c0 -119 -68 -162 -167 -162h-154c-91 0 -172 42 -172 162z" />
    <glyph glyph-name="one.tosf" horiz-adv-x="623" 
d="M161 508v39l168 85h57v-574h163v-58h-390v58h170v509z" />
    <glyph glyph-name="two.tosf" horiz-adv-x="623" 
d="M63 581v40c82 12 177 22 292 17c140 0 203 -74 203 -187c0 -169 -313 -364 -371 -394h366v-57h-485v53c116 63 433 250 433 400c0 90 -53 130 -150 128h-288z" />
    <glyph glyph-name="three.tosf" horiz-adv-x="623" 
d="M74 579v35c78 25 191 24 308 22c113 -2 170 -73 170 -165v-69c0 -84 -48 -124 -84 -135c38 -19 84 -59 84 -145v-59c0 -109 -56 -168 -178 -168c-114 0 -223 -1 -294 23v35h290c62 0 123 15 123 110v59c0 86 -64 113 -119 115l-232 7v43l232 9c72 2 121 37 121 106v69
c0 77 -57 108 -119 108h-302z" />
    <glyph glyph-name="four.tosf" horiz-adv-x="623" 
d="M31 128l317 504h68l-298 -477h316v217l27 75h30v-292h90v-44l-90 -16v-193h-57v193h-376z" />
    <glyph glyph-name="five.tosf" horiz-adv-x="623" 
d="M85 -44h304c70 0 107 49 107 112v105c0 38 -6 111 -107 111h-154c-46 0 -96 -34 -96 -92h-52l22 440h422v-57h-369l-14 -277c12 17 45 40 91 43c60 4 119 0 150 0c118 0 164 -69 164 -166v-109c0 -137 -102 -170 -164 -170c-124 0 -191 0 -304 19v41z" />
    <glyph glyph-name="six.tosf" horiz-adv-x="623" 
d="M125 363c0 -115 10 -307 131 -307h139c55 0 105 13 105 95v121c0 76 -49 91 -105 91h-270zM68 384c0 263 86 354 172 354c101 0 206 -5 292 -16v-41h-282c-104 0 -124 -185 -125 -278c85 10 196 17 270 17c135 0 161 -68 161 -148v-124c0 -112 -67 -149 -161 -149h-139
c-109 1 -188 74 -188 385z" />
    <glyph glyph-name="seven.tosf" horiz-adv-x="623" 
d="M75 575v57h452l23 -40l-256 -692h-67l251 675h-403z" />
    <glyph glyph-name="eight.tosf" horiz-adv-x="623" 
d="M133 494c0 -79 63 -92 108 -92h149c81 0 103 53 103 92v68c0 86 -34 118 -105 118h-136c-79 0 -119 -23 -119 -118v-68zM133 151c0 -64 42 -94 119 -94h135c49 0 106 26 106 94v105c0 74 -57 90 -103 90h-149c-46 0 -108 -21 -108 -90v-105zM76 154v98
c0 75 51 101 90 109c-71 20 -90 85 -90 138v65c0 134 73 173 176 173h136c107 0 162 -50 162 -173v-65c1 -33 -14 -106 -81 -117c60 -13 82 -80 81 -130v-98c0 -130 -99 -154 -163 -154h-135c-172 0 -176 113 -176 154z" />
    <glyph glyph-name="nine.tosf" horiz-adv-x="623" 
d="M124 359c0 -76 49 -91 105 -91h270c0 115 -9 307 -131 307h-139c-55 0 -105 -13 -105 -95v-121zM68 359v124c0 112 67 149 161 149h139c109 -1 188 -74 188 -385c0 -263 -86 -354 -172 -354c-101 0 -207 1 -292 16v41h282c104 0 124 185 125 278
c-85 -10 -196 -17 -270 -17c-135 0 -161 68 -161 148z" />
    <glyph glyph-name="partialdiff" unicode="&#x2202;" horiz-adv-x="655" 
d="M121 229c0 -120 88 -177 185 -177c165 0 200 221 201 306c-34 19 -112 42 -188 42c-137 0 -198 -62 -198 -171zM64 227c0 151 88 229 255 229c51 0 124 -9 187 -56c-7 203 -64 283 -211 283c-74 0 -143 -30 -180 -53l-17 35c67 44 115 75 200 75c194 0 266 -137 266 -353
c0 -197 -73 -392 -256 -392c-131 0 -244 74 -244 232z" />
    <glyph glyph-name="summation" unicode="&#x2211;" horiz-adv-x="579" 
d="M45 -140l214 410l-214 405v57h512v-57h-444l213 -405l-213 -410h444v-60h-512v60z" />
    <glyph glyph-name="product" unicode="&#x220f;" horiz-adv-x="624" 
d="M22 675v57h581v-57h-87v-675h-57v675h-294v-675h-57v675h-86z" />
    <glyph glyph-name="pi" unicode="&#x3c0;" horiz-adv-x="626" 
d="M22 474v57h533v-57h-129v-308c0 -85 25 -113 78 -113h99v-34c-35 -15 -60 -24 -99 -24c-85 0 -135 39 -135 171v308h-204v-474h-57v474h-86z" />
    <glyph glyph-name="integral" unicode="&#x222b;" horiz-adv-x="445" 
d="M22 -147h92c79 0 79 111 80 235v418c0 159 13 294 130 294c61 0 77 -13 99 -20v-37h-91c-79 0 -80 -123 -81 -237v-418c0 -159 -8 -292 -128 -292c-41 0 -82 8 -101 20v37z" />
    <glyph glyph-name="Omega" unicode="&#x3a9;" horiz-adv-x="783" 
d="M72 388c0 154 58 351 320 351c248 0 314 -174 314 -356c0 -117 -21 -238 -143 -324l148 -11v-48h-228v60c142 94 166 192 166 325c0 155 -48 297 -257 297s-263 -142 -263 -302c0 -138 21 -204 169 -320v-60h-220v49l150 11c-153 105 -156 215 -156 328z" />
    <glyph glyph-name="radical" unicode="&#x221a;" horiz-adv-x="615" 
d="M22 301v57h123l133 -276l258 718h57l-285 -800h-51l-147 301h-88z" />
    <glyph glyph-name="florin" unicode="&#x192;" horiz-adv-x="595" 
d="M22 -183l6 36h85c83 0 108 136 123 235l49 317h-102l10 58h102l7 43c24 155 60 294 177 294c49 0 88 -19 94 -21l-6 -36h-88c-79 0 -100 -128 -118 -237l-7 -44h142l-10 -57h-142l-49 -317c-23 -144 -50 -292 -182 -292c-39 0 -85 17 -91 21z" />
    <glyph glyph-name="approxequal" unicode="&#x2248;" horiz-adv-x="511" 
d="M56 427c38 32 78 67 133 67c53 0 91 -50 141 -50c45 0 70 26 109 44l17 -30c-37 -29 -73 -69 -127 -69s-90 50 -141 50c-47 0 -73 -23 -117 -42zM56 250c38 32 78 67 133 67c53 0 91 -49 141 -49c45 0 70 25 109 43l17 -30c-37 -29 -73 -68 -127 -68s-90 50 -141 50
c-47 0 -73 -24 -117 -42z" />
    <glyph glyph-name="uni2206" unicode="&#x2206;" horiz-adv-x="728" 
d="M111 57h510l-250 597zM22 0l321 732h55l308 -732h-684z" />
    <glyph glyph-name="lozenge" unicode="&#x25ca;" horiz-adv-x="526" 
d="M90 373l176 -299l171 299l-171 290zM22 373l216 359h57l209 -359l-209 -373h-57z" />
    <glyph glyph-name="cdotaccent" unicode="&#x10b;" horiz-adv-x="500" 
d="M250 618v57c0 12 6 20 20 20h36c13 0 20 -9 20 -20v-57c0 -13 -8 -19 -20 -19h-36c-12 0 -20 7 -20 19zM56 266c0 232 73 270 175 270c52 0 150 -13 218 -26v-40s-129 9 -218 9c-71 0 -118 -19 -118 -217c0 -171 41 -210 118 -210c92 0 225 14 225 14v-42
c-81 -23 -142 -28 -225 -29c-99 0 -175 38 -175 271z" />
    <glyph glyph-name="ccircumflex" unicode="&#x109;" horiz-adv-x="500" 
d="M136 597l122 130h53l110 -130h-53l-85 86l-94 -86h-53zM56 266c0 232 73 270 175 270c52 0 150 -13 218 -26v-40s-129 9 -218 9c-71 0 -118 -19 -118 -217c0 -171 41 -210 118 -210c92 0 225 14 225 14v-42c-81 -23 -142 -28 -225 -29c-99 0 -175 38 -175 271z" />
    <glyph glyph-name="Hbar" unicode="&#x126;" horiz-adv-x="660" 
d="M147 382h380v141h-380v-141zM27 523v41h63v168h57v-168h380v168h57v-168h61v-41h-61v-523h-57v326h-380v-326h-57v523h-63z" />
    <glyph glyph-name="Hcircumflex" unicode="&#x124;" horiz-adv-x="646" 
d="M194 797l122 130h54l109 -130h-53l-84 86l-94 -86h-54zM90 0v732h57v-350h380v350h57v-732h-57v326h-380v-326h-57z" />
    <glyph glyph-name="Idotaccent" unicode="&#x130;" horiz-adv-x="209" 
d="M80 816v57c0 13 7 21 20 21h37c12 0 19 -9 19 -21v-57c0 -12 -8 -19 -19 -19h-37c-12 0 -20 8 -20 19zM90 0v732h57v-732h-57z" />
    <glyph glyph-name="Gbreve" unicode="&#x11e;" horiz-adv-x="616" 
d="M223 914h36c0 -45 38 -79 78 -78c45 0 80 31 80 78h36c0 -76 -61 -114 -116 -114s-114 42 -114 114zM61 370c0 200 30 370 229 370c52 0 182 -14 252 -27v-45c-6 0 -155 15 -252 15c-144 0 -172 -108 -172 -315c0 -231 41 -315 176 -317c77 0 208 48 208 48v232h-184v38
c40 11 92 20 173 20c21 0 44 -1 68 -3v-386h-42l-13 51c-36 -20 -120 -56 -210 -56c-207 -2 -233 165 -233 375z" />
    <glyph glyph-name="Jcircumflex" unicode="&#x134;" horiz-adv-x="355" 
d="M122 797l122 130h54l109 -130h-53l-85 86l-94 -86h-53zM39 21l4 40c79 -21 192 -47 193 104v567h57v-567c0 -47 -4 -115 -52 -147c-50 -33 -150 -31 -202 3z" />
    <glyph glyph-name="hbar" unicode="&#x127;" 
d="M-7 617v41h74v126h59v-126h138v-41h-138v-148c60 36 136 72 207 71c104 3 158 -81 158 -169v-371h-59v369c-2 68 -34 115 -110 115c-65 -2 -120 -21 -196 -59v-425h-59v617h-74z" />
    <glyph glyph-name="hcircumflex" unicode="&#x125;" 
d="M-43 844l122 130h54l109 -130h-53l-85 86l-93 -86h-54zM74 0v784h57v-315c60 36 122 71 203 71c106 0 164 -82 164 -170v-370h-57v370c0 72 -43 113 -107 113c-83 0 -127 -20 -203 -58v-425h-57z" />
    <glyph glyph-name="jcircumflex" unicode="&#x135;" horiz-adv-x="201" 
d="M69 -270v801h61v-535c1 -86 -3 -175 -21 -266h-40zM-47 598l122 150h54l109 -150h-45l-93 99l-100 -99h-47z" />
    <glyph glyph-name="Cdotaccent" unicode="&#x10a;" horiz-adv-x="575" 
d="M303 821v56c0 13 7 21 20 21h37c13 0 19 -9 19 -21v-56c0 -13 -7 -20 -19 -20h-37c-11 0 -20 8 -20 20zM61 368c0 233 44 372 244 372c52 0 164 -12 234 -25v-43c-1 0 -142 11 -234 11c-132 0 -187 -61 -187 -317c0 -186 48 -315 187 -315c105 0 234 9 234 9v-44
c-70 -13 -182 -22 -234 -22c-185 0 -244 159 -244 374z" />
    <glyph glyph-name="Ccircumflex" unicode="&#x108;" horiz-adv-x="575" 
d="M188 800l122 130h54l109 -130h-53l-85 86l-93 -86h-54zM61 368c0 233 44 372 244 372c52 0 164 -12 234 -25v-43c-1 0 -142 11 -234 11c-132 0 -187 -61 -187 -317c0 -186 48 -315 187 -315c105 0 234 9 234 9v-44c-70 -13 -182 -22 -234 -22c-185 0 -244 159 -244 374z
" />
    <glyph glyph-name="Gdotaccent" unicode="&#x120;" horiz-adv-x="616" 
d="M294 819v57c0 13 7 21 20 21h37c13 0 19 -9 19 -21v-57c0 -12 -7 -19 -19 -19h-37c-11 0 -20 8 -20 19zM61 370c0 200 30 370 229 370c52 0 182 -14 252 -27v-45c-6 0 -155 15 -252 15c-144 0 -172 -108 -172 -315c0 -231 41 -315 176 -317c77 0 208 48 208 48v232h-184
v38c40 11 92 20 173 20c21 0 44 -1 68 -3v-386h-42l-13 51c-36 -20 -120 -56 -210 -56c-207 -2 -233 165 -233 375z" />
    <glyph glyph-name="Gcircumflex" unicode="&#x11c;" horiz-adv-x="616" 
d="M61 370c0 200 30 370 229 370c52 0 182 -14 252 -27v-45c-6 0 -155 15 -252 15c-144 0 -172 -108 -172 -315c0 -231 41 -315 176 -317c77 0 208 48 208 48v232h-184v38c40 11 92 20 173 20c21 0 44 -1 68 -3v-386h-42l-13 51c-36 -20 -120 -56 -210 -56
c-207 -2 -233 165 -233 375zM190 800l122 130h54l110 -130h-53l-85 86l-94 -86h-54zM366 930z" />
    <glyph glyph-name="Ubreve" unicode="&#x16c;" horiz-adv-x="679" 
d="M90 320v412h57v-412c0 -271 85 -268 208 -268c108 0 204 7 204 268v412h57v-412c0 -323 -140 -325 -261 -325c-136 0 -265 -7 -265 325zM238 911h36c0 -45 38 -79 78 -78c45 0 80 31 80 78h36c0 -76 -61 -114 -116 -114s-114 42 -114 114z" />
    <glyph glyph-name="Scircumflex" unicode="&#x15c;" horiz-adv-x="584" 
d="M73 494v66c0 145 84 178 196 178c53 0 199 -16 241 -22v-44c-64 4 -241 9 -241 9c-82 3 -139 -14 -139 -121v-66c0 -95 46 -106 117 -106h133c133 0 158 -82 158 -164v-68c0 -142 -101 -164 -200 -164c-49 0 -199 14 -245 22v44c42 -4 152 -9 245 -9c58 0 143 9 143 107
v68c0 67 -25 106 -101 106h-131c-158 0 -176 82 -176 164zM168 798l122 130h54l109 -130h-53l-85 86l-93 -86h-54zM344 928z" />
    <glyph glyph-name="ubreve" unicode="&#x16d;" 
d="M56 161v370h57v-370c0 -70 43 -113 107 -113c83 0 127 21 203 59v424h57v-531h-39l-18 62c-60 -36 -122 -71 -203 -71c-106 0 -164 82 -164 170zM158 710h36c0 -45 38 -79 78 -78c45 0 81 31 81 78h35c0 -76 -61 -114 -116 -114s-114 42 -114 114z" />
    <glyph glyph-name="scircumflex" unicode="&#x15d;" horiz-adv-x="505" 
d="M45 360v46c0 82 35 130 138 130c52 0 199 -9 251 -14v-42h-251c-71 0 -81 -27 -81 -74v-46c0 -66 31 -68 81 -68h148c83 0 130 -48 130 -123v-49c0 -109 -66 -125 -130 -125c-49 0 -226 12 -264 16v41h264c16 0 73 -4 73 68v49c0 39 -20 67 -73 67h-148
c-94 0 -138 21 -138 124zM109 596l122 130h54l109 -130h-53l-85 86l-93 -86h-54zM285 726z" />
    <glyph glyph-name="gbreve" unicode="&#x11f;" horiz-adv-x="560" 
d="M53 117c0 32 21 72 68 78c-54 28 -68 94 -68 149c0 129 61 189 173 189h312v-42l-91 -15c13 -18 41 -45 41 -132c0 -60 -23 -187 -165 -187h-156c-16 0 -57 -4 -57 -39c0 -31 30 -42 54 -42h211c86 0 134 -54 134 -136v-59c0 -60 -19 -151 -150 -151h-150
c-94 0 -159 52 -159 154v88l31 79c-21 16 -28 43 -28 66zM108 -116c0 -86 64 -97 101 -97h150c63 0 93 31 93 94v56c0 51 -17 83 -86 83h-201c-38 0 -57 15 -57 15v-151zM110 344c0 -68 29 -130 109 -130h99c90 0 114 74 113 130c-2 85 -29 132 -99 132h-109
c-92 0 -113 -62 -113 -132zM161 711h35c0 -45 39 -79 79 -79c45 1 80 31 80 79h36c0 -76 -61 -114 -116 -114s-114 42 -114 114z" />
    <glyph glyph-name="gdotaccent" unicode="&#x121;" horiz-adv-x="560" 
d="M53 117c0 32 21 72 68 78c-54 28 -68 94 -68 149c0 129 61 189 173 189h312v-42l-91 -15c13 -18 41 -45 41 -132c0 -60 -23 -187 -165 -187h-156c-16 0 -57 -4 -57 -39c0 -31 30 -42 54 -42h211c86 0 134 -54 134 -136v-59c0 -60 -19 -151 -150 -151h-150
c-94 0 -159 52 -159 154v88l31 79c-21 16 -28 43 -28 66zM108 -116c0 -86 64 -97 101 -97h150c63 0 93 31 93 94v56c0 51 -17 83 -86 83h-201c-38 0 -57 15 -57 15v-151zM110 344c0 -68 29 -130 109 -130h99c90 0 114 74 113 130c-2 85 -29 132 -99 132h-109
c-92 0 -113 -62 -113 -132zM243 617v57c0 13 7 21 20 21h37c12 0 19 -9 19 -21v-57c0 -12 -8 -19 -19 -19h-37c-12 0 -20 8 -20 19z" />
    <glyph glyph-name="gcircumflex" unicode="&#x11d;" horiz-adv-x="560" 
d="M53 117c0 32 21 72 68 78c-54 28 -68 94 -68 149c0 129 61 189 173 189h312v-42l-91 -15c13 -18 41 -45 41 -132c0 -60 -23 -187 -165 -187h-156c-16 0 -57 -4 -57 -39c0 -31 30 -42 54 -42h211c86 0 134 -54 134 -136v-59c0 -60 -19 -151 -150 -151h-150
c-94 0 -159 52 -159 154v88l31 79c-21 16 -28 43 -28 66zM108 -116c0 -86 64 -97 101 -97h150c63 0 93 31 93 94v56c0 51 -17 83 -86 83h-201c-38 0 -57 15 -57 15v-151zM110 344c0 -68 29 -130 109 -130h99c90 0 114 74 113 130c-2 85 -29 132 -99 132h-109
c-92 0 -113 -62 -113 -132zM135 597l122 130h54l109 -130h-53l-85 86l-93 -86h-54zM311 727z" />
    <glyph glyph-name="gbreve.salt" horiz-adv-x="557" 
d="M56 268c0 168 59 269 184 269c106 0 204 -16 251 -20v-621c0 -124 -90 -175 -159 -168l-248 24v37l248 -5c54 -1 102 33 102 112v133c-64 -26 -149 -39 -194 -39c-153 0 -184 120 -184 278zM113 268c0 -117 12 -221 127 -221c74 0 111 7 194 28v405h-194
c-109 0 -127 -120 -127 -212zM177 707h36c0 -45 38 -79 78 -78c45 0 80 31 80 78h36c0 -76 -61 -114 -116 -114s-114 42 -114 114z" />
    <glyph glyph-name="gdotaccent.salt" horiz-adv-x="557" 
d="M56 268c0 168 59 269 184 269c106 0 204 -16 251 -20v-621c0 -124 -90 -175 -159 -168l-248 24v37l248 -5c54 -1 102 33 102 112v133c-64 -26 -149 -39 -194 -39c-153 0 -184 120 -184 278zM113 268c0 -117 12 -221 127 -221c74 0 111 7 194 28v405h-194
c-109 0 -127 -120 -127 -212zM256 615v57c0 12 7 20 20 20h37c13 0 19 -9 19 -20v-57c0 -13 -7 -19 -19 -19h-37c-11 0 -20 7 -20 19z" />
    <glyph glyph-name="gcircumflex.salt" horiz-adv-x="557" 
d="M56 268c0 168 59 269 184 269c106 0 204 -16 251 -20v-621c0 -124 -90 -175 -159 -168l-248 24v37l248 -5c54 -1 102 33 102 112v133c-64 -26 -149 -39 -194 -39c-153 0 -184 120 -184 278zM113 268c0 -117 12 -221 127 -221c74 0 111 7 194 28v405h-194
c-109 0 -127 -120 -127 -212zM155 594l122 130h53l110 -130h-53l-85 86l-94 -86h-53zM330 724z" />
    <glyph glyph-name="f_f" unicode="&#xfb00;" horiz-adv-x="772" 
d="M22 474v42l99 15v89c0 55 3 156 123 156c44 0 84 -9 130 -22v-37c-1 0 -117 3 -117 3c-65 2 -79 -35 -79 -100v-89h316v99c0 54 3 156 113 156c42 0 99 -9 143 -22v-37c-1 0 -129 3 -129 3c-66 2 -70 -45 -70 -100v-99h157v-57h-158v-475h-57v475h-317v-474h-57v474h-97z
" />
    <glyph glyph-name="f_f_i" unicode="&#xfb03;" horiz-adv-x="968" 
d="M22 474v42l99 15v89c0 55 3 156 123 156c44 0 84 -9 130 -22v-37c-1 0 -117 3 -117 3c-65 2 -79 -35 -79 -100l-2 -89h305v53c0 118 70 202 190 202c44 0 130 -14 185 -29v-37c-1 0 -172 10 -172 10c-74 4 -146 -32 -146 -146v-53l363 -9v-522h-58v474h-306v-474h-57v474
h-304v-474h-57v474h-97z" />
    <glyph glyph-name="ffl" unicode="&#xfb04;" horiz-adv-x="1076" 
d="M22 474v42l99 15v89c0 55 3 156 123 156c44 0 84 -9 130 -22v-37c-1 0 -117 3 -117 3c-65 2 -79 -35 -79 -100l-2 -89h304v53c0 108 43 201 163 201h259v-595c0 -111 30 -123 69 -132c0 0 77 -18 84 -18v-39h-81c-91 0 -129 51 -129 189v541h-188
c-72 0 -120 -33 -120 -147v-53h146v-57h-148v-474h-57v474h-302v-474h-57v474h-97z" />
    <glyph glyph-name="c_t" horiz-adv-x="836" 
d="M45 262c0 231 74 270 175 270h376l14 147h43v-148h162v-57h-162v-286c0 -118 30 -124 70 -132c0 0 74 -15 77 -15v-42h-74c-92 0 -130 52 -130 189v285h-376c-69 0 -118 -20 -118 -215c0 -171 41 -208 118 -208c92 0 225 14 225 14v-42c-81 -23 -142 -28 -225 -29
c-99 0 -175 36 -175 269z" />
    <glyph glyph-name="s_t" unicode="&#xfb06;" horiz-adv-x="872" 
d="M45 353v47c0 82 35 132 138 132h442l15 148h42v-148h162v-56h-162v-287c1 -119 30 -124 70 -132c0 0 74 -16 77 -16v-41h-75c-91 0 -129 52 -129 189v287h-442c-71 0 -81 -29 -81 -76v-47c0 -66 31 -65 81 -65h148c83 0 130 -48 130 -121v-45c0 -109 -66 -128 -130 -128
c-49 0 -226 12 -264 16v41h264c16 0 73 0 73 71v45c0 40 -20 64 -73 64h-148c-94 0 -138 19 -138 122z" />
    <glyph glyph-name="t_t" horiz-adv-x="727" 
d="M22 475v42l94 15l15 148h42v-148h314l14 148h43v-148h161v-57h-161v-285c0 -119 30 -124 70 -132c0 0 73 -16 76 -16v-41h-74c-91 0 -129 51 -129 189v285h-314v-286c1 -118 31 -123 71 -132c0 0 73 -15 76 -15v-42h-74c-91 0 -130 52 -130 189v286h-94z" />
    <glyph glyph-name="f_t" horiz-adv-x="756" 
d="M22 474v42l95 15v99c0 54 3 156 113 156c43 0 99 -6 144 -20v-36h-130c-65 1 -70 -42 -70 -100v-98h341l15 148h42v-148h162v-57h-162l1 -286c0 -118 30 -123 70 -132c0 0 73 -15 77 -15v-42h-75c-91 0 -129 52 -129 189l-1 286h-342v-475h-57v474h-94z" />
    <glyph glyph-name="t_y" horiz-adv-x="930" 
d="M22 475v42l94 15l15 148h42v-148h159c116 0 136 -30 165 -111l112 -304c23 -66 78 -56 78 -56l158 471h64l-233 -699l-66 -102h-38l97 270c-23 1 -86 10 -121 110l-107 290c-20 56 -42 74 -109 74h-159v-286c1 -118 31 -124 71 -132c0 0 73 -15 76 -15v-42h-74
c-91 0 -130 52 -130 189v286h-94z" />
    <glyph glyph-name="f_y" horiz-adv-x="954" 
d="M22 474v42l95 15v99c0 54 3 156 113 156c43 0 99 -13 144 -26v-37c-1 0 -130 7 -130 7c-65 4 -70 -42 -70 -100v-99h175c116 0 137 -30 168 -110l115 -303c23 -67 78 -57 78 -57l157 472h64l-233 -699l-66 -102h-37l97 270c-24 0 -87 10 -122 110l-109 289
c-21 56 -45 73 -112 73h-176v-474h-57v474h-94z" />
    <glyph glyph-name="kgreenlandic" unicode="&#x138;" horiz-adv-x="502" 
d="M67 0v531h57v-238h95l191 238h70l-210 -266l196 -265h-71l-178 236h-92l-1 -236h-57z" />
    <glyph glyph-name="Rcommaaccent" unicode="&#x156;" horiz-adv-x="586" 
d="M67 0v732h300c89 0 171 -43 171 -213c0 -190 -95 -207 -138 -210l157 -309h-62l-156 307c-18 1 -213 12 -215 13v-320h-57zM124 368h243c57 0 113 8 113 151c0 139 -58 155 -113 155h-243v-306zM262 -136v51c0 14 6 20 18 20h33c14 0 18 -9 18 -20v-88
c0 -68 -66 -55 -66 -55v21c22 -1 23 15 23 23v29h-8c-10 0 -18 6 -18 19z" />
    <glyph glyph-name="Itilde" unicode="&#x128;" horiz-adv-x="209" 
d="M90 0v732h57v-732h-57zM-51 835c38 32 74 62 114 62c46 -2 84 -48 113 -48c30 -1 66 24 94 41l17 -30c-33 -27 -70 -64 -112 -62c-51 2 -78 48 -113 47c-42 -1 -61 -22 -98 -40z" />
    <glyph glyph-name="Lcommaaccent" unicode="&#x13b;" horiz-adv-x="557" 
d="M90 126v606h57v-606c0 -66 41 -69 79 -69h295v-57h-295c-66 0 -136 13 -136 126zM278 -136v51c0 14 7 20 19 20h33c14 0 18 -9 18 -20v-88c0 -68 -66 -55 -66 -55v21c22 -1 23 15 23 23v29h-8c-11 0 -19 6 -19 19z" />
    <glyph glyph-name="Emacron" unicode="&#x112;" horiz-adv-x="572" 
d="M90 123v479c0 98 60 133 126 130l309 -14v-43h-309c-56 0 -69 -30 -69 -73v-209l338 -8v-44l-338 -8v-210c0 -66 41 -69 79 -69h299v-42l-299 -15c-66 -3 -136 13 -136 126zM185 795v47h278v-47h-278z" />
    <glyph glyph-name="Gcommaaccent" unicode="&#x122;" horiz-adv-x="616" 
d="M61 370c0 200 30 370 229 370c52 0 182 -14 252 -27v-45c-6 0 -155 15 -252 15c-144 0 -172 -108 -172 -315c0 -231 41 -315 176 -317c77 0 208 48 208 48v232h-184v38c40 11 92 20 173 20c21 0 44 -1 68 -3v-386h-42l-13 51c-36 -20 -120 -56 -210 -56
c-207 -2 -233 165 -233 375zM290 -141v51c0 14 6 20 18 20h34c13 0 17 -9 17 -20v-88c0 -68 -66 -55 -66 -55v21c23 -1 24 15 24 23v29h-9c-10 0 -18 6 -18 19z" />
    <glyph glyph-name="Tbar" unicode="&#x166;" horiz-adv-x="586" 
d="M39 675v57h511v-57h-230v-238h130v-40h-130v-397h-57v397h-123v40h123v238h-224z" />
    <glyph glyph-name="rcommaaccent" unicode="&#x157;" horiz-adv-x="425" 
d="M66 0v531h38l19 -67c61 35 120 73 205 73c29 0 59 -2 74 -8v-56c-16 4 -45 6 -74 6c-83 0 -128 -24 -205 -61v-418h-57zM60 -136v51c0 14 6 20 18 20h33c14 0 18 -9 18 -20v-88c0 -68 -66 -55 -66 -55v21c22 -1 23 15 23 23v29h-8c-10 0 -18 6 -18 19z" />
    <glyph glyph-name="itilde" unicode="&#x129;" horiz-adv-x="191" 
d="M67 0v531h57v-531h-57zM-73 634c38 32 73 62 114 62c46 -2 84 -48 113 -48c29 -1 65 24 94 41l17 -30c-33 -27 -70 -64 -112 -62c-52 2 -79 48 -114 47c-42 -1 -60 -22 -97 -40z" />
    <glyph glyph-name="lcommaaccent" unicode="&#x13c;" horiz-adv-x="299" 
d="M67 189v594h57v-594c0 -111 36 -125 69 -132c0 0 77 -18 84 -18v-39h-81c-79 0 -129 51 -129 189zM123 -136v51c0 14 7 20 19 20h33c14 0 18 -9 18 -20v-88c0 -68 -66 -55 -66 -55v21c22 -1 23 15 23 23v29h-8c-11 0 -19 6 -19 19z" />
    <glyph glyph-name="emacron" unicode="&#x113;" horiz-adv-x="525" 
d="M56 268c0 236 63 267 222 267c124 0 203 -12 203 -188c0 -78 -44 -113 -137 -113h-231c0 -152 37 -182 118 -182c92 0 165 2 240 13v-42c-81 -23 -157 -28 -240 -28c-136 1 -175 69 -175 273zM113 290h231c48 0 80 11 80 57c0 120 -34 131 -145 131
c-122 0 -166 -11 -166 -188zM134 595v47h278v-47h-278z" />
    <glyph glyph-name="gcommaaccent" unicode="&#x123;" horiz-adv-x="560" 
d="M243 613v87c0 69 66 55 66 55v-20c-22 0 -23 -15 -23 -23v-30h8c11 0 19 -6 19 -18v-51c0 -14 -7 -20 -19 -20h-33c-14 0 -18 8 -18 20zM53 116c0 34 21 73 68 79c-54 28 -68 94 -68 149c0 129 61 189 173 189h312v-42l-91 -15c13 -18 41 -45 41 -132
c0 -60 -23 -187 -165 -187h-156c-16 0 -57 -4 -57 -39c0 -31 35 -40 57 -43l197 -25c82 -10 145 -54 145 -133v-33c0 -60 -19 -154 -150 -154h-150c-94 0 -159 52 -159 154v88l31 78c-23 17 -28 45 -28 66zM108 -116c0 -86 64 -97 101 -97h150c63 0 93 34 93 97v28
c0 51 -38 75 -98 83l-182 24c-31 5 -64 16 -64 16v-151zM110 344c0 -68 29 -130 109 -130h99c90 0 114 74 113 130c-2 85 -29 132 -99 132h-109c-92 0 -113 -62 -113 -132z" />
    <glyph glyph-name="gcommaaccent.salt" horiz-adv-x="557" 
d="M257 613v87c0 69 67 55 67 55v-20c-23 0 -24 -15 -24 -23v-30h9c10 0 18 -6 18 -18v-51c0 -14 -6 -20 -18 -20h-34c-13 0 -18 8 -18 20zM56 268c0 168 59 269 184 269c106 0 204 -16 251 -20v-621c0 -124 -90 -175 -159 -168l-248 24v37l248 -5c54 -1 102 33 102 112v133
c-64 -26 -149 -39 -194 -39c-153 0 -184 120 -184 278zM113 268c0 -117 12 -221 127 -221c74 0 111 7 194 28v405h-194c-109 0 -127 -120 -127 -212z" />
    <glyph glyph-name="tbar" unicode="&#x167;" horiz-adv-x="357" 
d="M22 475v42l94 15l15 148h42v-148h162v-57h-162v-150h112v-40h-112v-95c1 -118 28 -123 71 -132c0 0 73 -16 76 -16v-41h-76c-89 0 -128 49 -128 189v95h-81v40h81v150h-94z" />
    <glyph glyph-name="Eng" unicode="&#x14a;" horiz-adv-x="673" 
d="M90 0v732h58l406 -618v618h57v-732v-84c0 -152 -79 -173 -197 -173v44c67 14 140 7 140 138v75l-406 625l-1 -625h-57z" />
    <glyph glyph-name="eng" unicode="&#x14b;" horiz-adv-x="558" 
d="M67 0v531h39l18 -62c61 35 119 71 200 71c106 0 167 -82 167 -170v-370l-1 -90c-5 -133 -97 -155 -159 -170l-24 30c53 20 125 51 127 138v92v370c0 68 -46 113 -110 113c-82 0 -129 -24 -200 -59v-424h-57z" />
    <glyph glyph-name="Amacron" unicode="&#x100;" horiz-adv-x="666" 
d="M50 0l271 732h61l258 -732h-67l-72 221h-306l-76 -221h-69zM216 278h265l-130 371zM212 797v47h279v-47h-279z" />
    <glyph glyph-name="Iogonek" unicode="&#x12e;" horiz-adv-x="209" 
d="M90 0v732h57v-732h-57zM105 0h30c-93 -60 -84 -136 13 -137v-44c-115 -16 -193 116 -43 181z" />
    <glyph glyph-name="Edotaccent" unicode="&#x116;" horiz-adv-x="572" 
d="M90 123v479c0 98 60 133 126 130l309 -14v-43h-309c-56 0 -69 -30 -69 -73v-209l338 -8v-44l-338 -8v-210c0 -66 41 -69 79 -69h299v-42l-299 -15c-66 -3 -136 13 -136 126zM287 814v57c0 13 7 21 20 21h37c12 0 19 -9 19 -21v-57c0 -12 -8 -19 -19 -19h-37
c-12 0 -20 8 -20 19z" />
    <glyph glyph-name="Imacron" unicode="&#x12a;" horiz-adv-x="209" 
d="M90 0v732h57v-732h-57zM-21 797v47h278v-47h-278z" />
    <glyph glyph-name="Ncommaaccent" unicode="&#x145;" horiz-adv-x="674" 
d="M90 0v732h58l407 -625v625h57v-732h-57l-408 625v-625h-57zM316 -138v51c0 14 6 20 18 20h34c13 0 18 -8 18 -20v-87c0 -69 -66 -56 -66 -56v21c22 0 23 15 23 23v30h-9c-10 0 -18 6 -18 18z" />
    <glyph glyph-name="Omacron" unicode="&#x14c;" horiz-adv-x="675" 
d="M73 361c0 343 109 376 278 376c173 0 278 -33 278 -376c0 -323 -98 -365 -278 -365s-278 32 -278 365zM130 361c0 -271 56 -308 221 -308c161 0 221 43 221 308c0 307 -76 319 -221 319c-138 0 -221 -7 -221 -319zM212 797v47h279v-47h-279z" />
    <glyph glyph-name="Kcommaaccent" unicode="&#x136;" horiz-adv-x="591" 
d="M90 0v732h57v-336h105l234 336h69l-250 -365l250 -367h-69l-234 338h-104v-338h-58zM276 -136v51c0 13 7 20 19 20h33c14 0 18 -9 18 -20v-88c0 -69 -66 -55 -66 -55v21c22 -1 23 14 23 23v29h-8c-11 0 -19 6 -19 19z" />
    <glyph glyph-name="Uogonek" unicode="&#x172;" horiz-adv-x="679" 
d="M90 320v412h57v-412c0 -271 85 -268 208 -268c108 0 204 7 204 268v412h57v-412c0 -323 -140 -325 -261 -325c-136 0 -265 -7 -265 325zM337 -4h29c-92 -60 -83 -136 13 -137v-44c-115 -16 -192 116 -42 181z" />
    <glyph glyph-name="Utilde" unicode="&#x168;" horiz-adv-x="679" 
d="M90 320v412h57v-412c0 -271 85 -268 208 -268c108 0 204 7 204 268v412h57v-412c0 -323 -140 -325 -261 -325c-136 0 -265 -7 -265 325zM184 831c38 32 73 62 114 62c46 -2 84 -47 113 -48c29 0 65 24 94 42l17 -30c-33 -28 -70 -64 -112 -63c-52 2 -79 48 -114 48
c-42 -1 -61 -22 -97 -40z" />
    <glyph glyph-name="Umacron" unicode="&#x16a;" horiz-adv-x="679" 
d="M90 320v412h57v-412c0 -271 85 -268 208 -268c108 0 204 7 204 268v412h57v-412c0 -323 -140 -325 -261 -325c-136 0 -265 -7 -265 325zM214 797v47h278v-47h-278z" />
    <glyph glyph-name="amacron" unicode="&#x101;" horiz-adv-x="519" 
d="M45 126v61c0 82 50 133 133 133c0 0 229 -1 229 0c0 0 1 66 0 67c0 64 -31 99 -99 99c-72 0 -151 -6 -246 -16v41c66 18 149 29 249 30c83 1 153 -44 153 -154v-387h-42l-15 64c-2 0 -136 -70 -229 -70c-73 0 -133 47 -133 132zM102 131c0 -61 37 -80 76 -80
c80 -1 229 54 229 54v172l-229 -14c-56 -4 -76 -38 -76 -80v-52zM131 601v47h279v-47h-279z" />
    <glyph glyph-name="iogonek" unicode="&#x12f;" horiz-adv-x="187" 
d="M63 619v56c0 13 6 21 19 21h37c13 0 19 -9 19 -21v-56c0 -13 -7 -20 -19 -20h-37c-11 0 -19 8 -19 20zM71 0v531h57v-531h-57zM88 0h30c-93 -60 -84 -136 12 -137v-44c-115 -16 -192 116 -42 181z" />
    <glyph glyph-name="edotaccent" unicode="&#x117;" horiz-adv-x="525" 
d="M56 268c0 236 63 267 222 267c124 0 203 -12 203 -188c0 -78 -44 -113 -137 -113h-231c0 -152 37 -182 118 -182c92 0 165 2 240 13v-42c-81 -23 -157 -28 -240 -28c-136 1 -175 69 -175 273zM113 290h231c48 0 80 11 80 57c0 120 -34 131 -145 131
c-122 0 -166 -11 -166 -188zM241 615v57c0 13 6 21 20 21h36c13 0 20 -9 20 -21v-57c0 -12 -8 -19 -20 -19h-36c-12 0 -20 8 -20 19z" />
    <glyph glyph-name="imacron" unicode="&#x12b;" horiz-adv-x="191" 
d="M67 0v531h57v-531h-57zM-44 596v47h279v-47h-279z" />
    <glyph glyph-name="ncommaaccent" unicode="&#x146;" 
d="M67 0v531h39l18 -62c60 36 122 71 203 71c106 0 164 -82 164 -170v-370h-57v370c0 70 -43 113 -107 113c-83 0 -127 -20 -203 -58v-425h-57zM245 -136v51c0 14 7 20 19 20h33c14 0 18 -9 18 -20v-88c0 -68 -66 -55 -66 -55v21c22 -1 23 15 23 23v29h-8
c-11 0 -19 6 -19 19z" />
    <glyph glyph-name="omacron" unicode="&#x14d;" horiz-adv-x="569" 
d="M56 258c0 217 60 278 229 278c177 0 229 -75 229 -278c0 -196 -54 -263 -229 -263c-178 0 -229 73 -229 263zM113 258c0 -189 61 -206 172 -206c114 0 172 22 172 206c0 199 -54 221 -172 221c-115 0 -172 -16 -172 -221zM145 596v47h279v-47h-279z" />
    <glyph glyph-name="kcommaaccent" unicode="&#x137;" horiz-adv-x="499" 
d="M67 0v782h57v-448h47l225 197h81l-252 -226l252 -305h-73l-233 276h-47v-276h-57zM230 -136v51c0 14 7 20 19 20h33c14 0 18 -9 18 -20v-88c0 -68 -66 -55 -66 -55v21c22 -1 23 15 23 23v29h-8c-11 0 -19 6 -19 19z" />
    <glyph glyph-name="uogonek" unicode="&#x173;" horiz-adv-x="574" 
d="M64 161v370h57v-370c0 -70 43 -113 107 -113c83 0 127 21 203 59v424h57v-531h-39l-18 62c-60 -36 -122 -71 -203 -71c-106 0 -164 82 -164 170zM454 0h30c-93 -60 -84 -136 13 -136v-45c-115 -16 -193 117 -43 181z" />
    <glyph glyph-name="utilde" unicode="&#x169;" 
d="M56 161v370h57v-370c0 -70 43 -113 107 -113c83 0 127 21 203 59v424h57v-531h-39l-18 62c-60 -36 -122 -71 -203 -71c-106 0 -164 82 -164 170zM99 634c38 32 74 62 114 62c46 -2 84 -48 113 -48c30 -1 66 24 94 41l17 -30c-33 -27 -70 -64 -112 -62
c-51 2 -78 48 -113 47c-42 -1 -61 -22 -98 -40z" />
    <glyph glyph-name="umacron" unicode="&#x16b;" 
d="M56 161v370h57v-370c0 -70 43 -113 107 -113c83 0 127 21 203 59v424h57v-531h-39l-18 62c-60 -36 -122 -71 -203 -71c-106 0 -164 82 -164 170zM129 596v47h278v-47h-278z" />
    <glyph glyph-name="exclam.smcp" horiz-adv-x="265" 
d="M92 19v59c0 13 6 21 20 21h40c12 0 19 -9 19 -21v-59c0 -12 -8 -19 -19 -19h-40c-12 0 -20 8 -20 19zM98 570h66l-6 -403h-54z" />
    <glyph glyph-name="quotedbl.smcp" horiz-adv-x="339" 
d="M80 555v67h57v-67l-9 -134h-39zM203 555v67h57v-67l-9 -134h-39z" />
    <glyph glyph-name="numbersign.smcp" horiz-adv-x="567" 
d="M22 180l6 38h129l23 132h-131l5 37h132l31 183h39l-31 -183h137l30 183h39l-31 -183h146l-5 -37h-146l-23 -132h148l-6 -38h-148l-30 -181h-39l30 181h-136l-31 -181h-39l31 181h-130zM196 218h138l22 132h-137z" />
    <glyph glyph-name="dollar.smcp" horiz-adv-x="514" 
d="M56 393v31c0 134 93 150 180 151v65h48v-67c42 -2 117 -10 151 -14v-42h-207c-76 0 -115 -21 -115 -93v-31c0 -58 45 -80 105 -80h82c106 0 155 -73 155 -138v-38c0 -105 -91 -147 -171 -143v-63h-48v66c-45 4 -138 11 -162 14v41c30 0 149 1 219 1c39 0 104 15 104 84
v38c0 49 -39 83 -97 83h-82c-119 0 -162 59 -162 135z" />
    <glyph glyph-name="percent.smcp" horiz-adv-x="799" 
d="M32 383v63c0 85 28 125 129 125h46c98 0 127 -40 127 -125v-63c0 -85 -28 -125 -129 -125h-46c-98 0 -127 40 -127 125zM80 383c0 -61 22 -77 79 -77h46c64 0 81 17 81 77v63c0 59 -19 77 -79 77h-46c-65 0 -81 -17 -81 -77v-63zM200 0l343 570h54l-343 -570h-54z
M465 125v62c0 85 28 125 129 125h46c98 0 127 -40 127 -125v-62c0 -85 -28 -125 -129 -125h-46c-98 0 -127 40 -127 125zM513 125c0 -62 22 -77 79 -77h46c64 0 81 17 81 77v62c0 59 -19 77 -79 77h-46c-65 0 -81 -17 -81 -77v-62z" />
    <glyph glyph-name="ampersand.smcp" horiz-adv-x="550" 
d="M72 62c-58 78 -45 160 31 223l71 58l-44 56c-67 87 -12 160 49 170c60 9 126 5 228 -12v-39h-178c-81 0 -86 -44 -45 -96l192 -242l93 87l18 -20l-49 -85l-27 -27l104 -135h-67l-78 98l-67 -64c-63 -58 -169 -59 -231 28zM119 94c31 -40 99 -67 150 -16l66 63l-124 158
l-68 -56c-66 -53 -54 -110 -24 -149z" />
    <glyph glyph-name="quotesingle.smcp" horiz-adv-x="216" 
d="M80 555v67h57v-67l-9 -134h-39z" />
    <glyph glyph-name="asterisk.smcp" horiz-adv-x="448" 
d="M56 423v31l140 21l3 -57zM128 260l27 135l57 -13l-56 -131zM186 567l30 12l73 -120l-53 -23zM219 331l31 49l112 -89l-16 -25zM262 413l116 78l16 -27l-94 -95z" />
    <glyph glyph-name="zero.smcp" horiz-adv-x="589" 
d="M78 162v246c0 112 77 162 172 162h94c154 0 167 -114 167 -162v-246c0 -119 -68 -162 -167 -162h-94c-91 0 -172 42 -172 162zM135 162c0 -79 58 -105 115 -105h94c83 0 110 47 110 105v246c0 60 -28 105 -110 105h-94c-80 0 -115 -41 -115 -105v-246z" />
    <glyph glyph-name="one.smcp" horiz-adv-x="340" 
d="M45 454v40l149 85h57v-579h-57v514z" />
    <glyph glyph-name="two.smcp" horiz-adv-x="518" 
d="M45 513v37c102 13 112 21 224 21c140 0 193 -74 193 -187c0 -159 -216 -282 -299 -327h294v-57h-406v53c107 74 351 188 351 332c0 80 -35 132 -142 129c-50 0 -215 -1 -215 -1z" />
    <glyph glyph-name="three.smcp" horiz-adv-x="519" 
d="M33 516v38c60 21 179 20 270 19c86 -1 133 -67 133 -143v-35c0 -66 -34 -102 -62 -111c30 -15 62 -53 62 -117v-28c0 -90 -43 -144 -138 -144c-89 0 -204 -2 -259 18v39h241c53 0 97 14 97 87v28c0 69 -49 87 -90 87l-200 6v48l200 4c50 0 92 18 92 83v35
c0 56 -33 86 -94 86h-252z" />
    <glyph glyph-name="four.smcp" horiz-adv-x="538" 
d="M22 180l223 390h67l-204 -362h261v173l28 75h29v-248h90v-44l-90 -16v-146h-57v146h-318z" />
    <glyph glyph-name="five.smcp" horiz-adv-x="556" 
d="M85 19v41h247c76 0 101 36 101 93v54c0 43 -3 87 -97 87h-101c-49 0 -96 -29 -96 -83h-53l17 359h361v-57h-305l-10 -205c16 21 48 43 86 43h101c118 0 154 -57 154 -142v-58c0 -113 -73 -151 -158 -152c-99 -1 -182 2 -247 20z" />
    <glyph glyph-name="six.smcp" horiz-adv-x="560" 
d="M73 300c0 220 86 275 154 276c79 1 171 -4 248 -13v-44h-248c-84 0 -97 -142 -97 -196c66 8 170 11 228 11c106 0 135 -49 135 -116v-92c0 -92 -62 -127 -135 -127h-125c-85 0 -160 49 -160 301zM130 277c0 -75 5 -221 103 -221h125c40 0 78 12 78 74v88
c0 47 -26 59 -78 59h-228z" />
    <glyph glyph-name="seven.smcp" horiz-adv-x="479" 
d="M33 513v57h390l24 -40l-200 -530h-63l193 513h-344z" />
    <glyph glyph-name="eight.smcp" horiz-adv-x="591" 
d="M84 132v58c0 69 44 84 74 91c-51 16 -74 67 -74 115v38c0 106 46 141 136 141h162c83 0 126 -46 126 -141v-38c0 -38 -18 -90 -68 -100c44 -7 68 -62 68 -107v-57c0 -101 -66 -132 -127 -132h-162c-133 0 -135 91 -135 132zM141 130c0 -50 21 -72 84 -72h150
c44 0 76 22 76 72v53c0 62 -39 77 -78 77h-152c-39 0 -80 -12 -80 -75v-55zM141 394c0 -64 46 -76 80 -76h152c61 0 79 37 79 76v38c0 66 -21 85 -76 85h-150c-59 0 -85 -6 -85 -85v-38z" />
    <glyph glyph-name="nine.smcp" horiz-adv-x="560" 
d="M67 355v92c0 92 62 127 135 127h126c85 -1 160 -49 160 -301c0 -220 -86 -275 -154 -276c-79 -1 -171 1 -249 13v44h248c85 0 98 142 98 196c-66 -8 -171 -11 -229 -11c-106 0 -135 49 -135 116zM124 355c0 -47 27 -59 78 -59h229c0 75 -6 221 -103 221h-126
c-39 0 -78 -11 -78 -74v-88z" />
    <glyph glyph-name="question.smcp" horiz-adv-x="465" 
d="M22 515v43c77 10 131 17 216 14c127 0 182 -62 182 -155v-47c0 -107 -96 -149 -201 -134c0 -1 -1 -67 0 -70h-59v121c29 -1 64 -2 93 0c49 1 110 19 110 83v47c0 69 -41 98 -129 98h-212zM150 19v59c0 13 7 21 20 21h39c14 0 20 -8 20 -21v-59c0 -14 -9 -19 -20 -19h-39
c-12 0 -20 8 -20 19z" />
    <glyph glyph-name="at.smcp" horiz-adv-x="851" 
d="M73 42v348c0 36 2 164 168 164h210c71 0 153 -30 153 -140v-372h-43l-11 64c-2 0 -103 -73 -194 -73c-74 -2 -129 49 -128 117v53c0 80 46 133 129 133c74 0 191 -1 191 0c0 0 1 76 0 76c0 65 -37 85 -100 85h-207c-61 0 -111 -19 -111 -107v-348
c0 -100 61 -120 111 -120h339c89 0 120 40 120 120v512c0 83 -45 131 -120 131h-399v36c48 10 162 22 288 21h111c106 -2 177 -63 177 -188v-512c0 -98 -39 -178 -177 -178h-339c-102 0 -168 62 -168 178zM285 156c0 -34 33 -67 78 -66c59 -1 135 33 185 57v150l-186 -14
c-40 -3 -78 -26 -77 -82c-1 -1 -1 -44 0 -45z" />
    <glyph glyph-name="a.smcp" horiz-adv-x="586" 
d="M39 0l236 570h57l218 -570h-62l-64 162h-254l-69 -162h-62zM193 219h211l-101 271z" />
    <glyph glyph-name="b.smcp" horiz-adv-x="547" 
d="M90 0v571h253c124 0 154 -84 154 -151c0 -82 -39 -111 -75 -129c26 -9 78 -49 78 -131c0 -85 -31 -160 -157 -160h-253zM147 58h196c43 0 100 9 100 102c0 62 -35 106 -100 106c0 0 -173 -2 -196 0v-208zM147 323h196c64 0 97 27 97 97c0 81 -56 94 -97 94h-196v-191z
" />
    <glyph glyph-name="c.smcp" horiz-adv-x="524" 
d="M61 295c0 145 34 283 204 283c43 0 172 -11 223 -23v-44c-15 3 -158 10 -223 10c-109 0 -147 -81 -147 -226c0 -139 28 -241 147 -242c73 2 223 10 223 10v-42c-58 -11 -146 -25 -223 -25c-181 0 -204 161 -204 299z" />
    <glyph glyph-name="d.smcp" horiz-adv-x="606" 
d="M90 0v572h240c176 -2 219 -166 219 -289c0 -282 -159 -283 -219 -283h-240zM147 57h183c129 0 162 103 162 226c0 167 -75 232 -162 232h-183v-458z" />
    <glyph glyph-name="e.smcp" horiz-adv-x="520" 
d="M90 83v398c0 59 40 90 104 90l280 -11v-45h-278c-44 0 -49 -17 -49 -44v-157l296 -7v-45l-296 -6v-158c0 -40 26 -43 44 -43h283v-44l-300 -13c-50 0 -84 33 -84 85z" />
    <glyph glyph-name="f.smcp" horiz-adv-x="520" 
d="M90 0v481c0 59 40 90 104 90l280 -11v-45h-278c-44 0 -48 -19 -49 -44v-158l296 -8v-45l-296 -6v-254h-57z" />
    <glyph glyph-name="g.smcp" horiz-adv-x="576" 
d="M61 286c0 184 41 293 213 293c43 0 170 -12 231 -25v-46c-62 6 -139 14 -231 14c-112 0 -156 -50 -156 -234c0 -111 39 -239 156 -239c81 0 166 38 188 55v150h-185v37c52 10 94 20 175 20c21 0 43 -1 67 -3v-308h-41l-14 47c-53 -34 -130 -54 -190 -54
c-207 -1 -213 243 -213 293z" />
    <glyph glyph-name="h.smcp" horiz-adv-x="601" 
d="M90 -1v571h57v-266h334v266h57v-571h-57v247h-334v-247h-57z" />
    <glyph glyph-name="i.smcp" horiz-adv-x="209" 
d="M90 0v570h57v-570h-57z" />
    <glyph glyph-name="j.smcp" horiz-adv-x="332" 
d="M39 21l4 40c94 -19 168 -24 170 105v404h57v-404c0 -46 -6 -116 -56 -148c-54 -35 -127 -24 -175 3z" />
    <glyph glyph-name="k.smcp" horiz-adv-x="550" 
d="M90 -1v571h57v-262h93l203 262h71l-224 -290l224 -281h-71l-204 251h-92v-251h-57z" />
    <glyph glyph-name="l.smcp" horiz-adv-x="504" 
d="M90 86v484h57v-472c-1 -35 19 -41 48 -41h273v-57h-292c-53 0 -86 31 -86 86z" />
    <glyph glyph-name="m.smcp" horiz-adv-x="735" 
d="M61 0l61 571h67l183 -474l184 474h64l58 -571h-55l-47 464l-179 -464h-47l-181 468l-54 -468h-54z" />
    <glyph glyph-name="n.smcp" horiz-adv-x="608" 
d="M90 0v571h54l346 -466v466h56v-571h-53l-346 469v-469h-57z" />
    <glyph glyph-name="o.smcp" horiz-adv-x="607" 
d="M61 280c0 244 78 295 244 295c164 0 245 -32 245 -288c0 -245 -77 -292 -245 -292c-161 0 -244 36 -244 285zM118 285c0 -206 54 -233 187 -233c120 0 190 23 188 235c-2 217 -55 231 -188 231c-115 0 -186 -12 -187 -233z" />
    <glyph glyph-name="p.smcp" horiz-adv-x="530" 
d="M67 0v569h264c70 0 152 -42 152 -159c0 -175 -91 -178 -154 -178l-204 11v-243h-58zM125 288h206c51 0 95 10 95 116c2 76 -45 108 -95 108h-206v-224z" />
    <glyph glyph-name="q.smcp" horiz-adv-x="607" 
d="M61 280c0 244 78 295 244 295c164 0 245 -32 245 -288c0 -245 -77 -292 -245 -292c-161 0 -244 36 -244 285zM118 285c0 -206 54 -233 187 -233c120 0 188 23 188 235c0 218 -57 231 -188 231c-114 0 -187 -12 -187 -233zM288 -33h39c51 -57 112 -55 171 -35v-61
c-72 -27 -193 -2 -210 96z" />
    <glyph glyph-name="r.smcp" horiz-adv-x="537" 
d="M67 0v571h264c60 0 153 -28 153 -162c0 -91 -41 -164 -120 -169l138 -240h-66l-131 234c-30 2 -180 12 -181 14v-248h-57zM124 291h210c35 0 93 17 93 117c0 97 -72 106 -96 106h-207v-223z" />
    <glyph glyph-name="s.smcp" horiz-adv-x="543" 
d="M61 374v62c0 82 35 137 138 137c52 0 193 -9 260 -18v-43s-162 5 -260 5c-60 0 -81 -33 -81 -81v-62c0 -68 33 -66 81 -66h157c87 0 130 -45 130 -120v-70c0 -109 -75 -128 -130 -128c-49 0 -236 8 -273 20v41s177 -4 273 -4c55 0 73 54 73 71v70c0 44 -20 64 -73 64
h-157c-94 0 -138 26 -138 122z" />
    <glyph glyph-name="t.smcp" horiz-adv-x="524" 
d="M39 513v57h449v-57h-196v-513h-57v513h-196z" />
    <glyph glyph-name="u.smcp" horiz-adv-x="618" 
d="M89 260v310h58v-310c0 -172 52 -208 178 -208c111 0 172 39 172 208v310h58v-310c0 -233 -110 -265 -230 -265c-134 0 -237 26 -236 265z" />
    <glyph glyph-name="v.smcp" horiz-adv-x="594" 
d="M39 570h63l199 -484l195 484h62l-229 -570h-55z" />
    <glyph glyph-name="w.smcp" horiz-adv-x="842" 
d="M39 570h63l181 -485l173 485h62l-65 -186l118 -299l176 485h59l-207 -570h-57l-119 306l-109 -306h-59z" />
    <glyph glyph-name="x.smcp" horiz-adv-x="557" 
d="M39 0l205 286l-203 284h74l165 -233l167 233h75l-206 -284l204 -286h-72l-168 234l-169 -234h-72z" />
    <glyph glyph-name="y.smcp" horiz-adv-x="564" 
d="M39 570h63l183 -320l180 320h63l-215 -380v-191h-57v191z" />
    <glyph glyph-name="z.smcp" horiz-adv-x="498" 
d="M39 0v57l348 456h-348v57h423v-57l-345 -456h345v-57h-423z" />
    <glyph glyph-name="grave.smcp" horiz-adv-x="228" 
d="M22 664h72l112 -133h-51z" />
    <glyph glyph-name="aogonek.smcp" horiz-adv-x="608" 
d="M45 0l236 570h57l218 -570h-63l-64 162h-253l-69 -162h-62zM199 219h211l-101 271zM512 0h30c-93 -60 -84 -136 13 -137v-44c-115 -16 -193 116 -43 181z" />
    <glyph glyph-name="rcommaaccent.smcp" horiz-adv-x="537" 
d="M67 0v571h264c60 0 153 -28 153 -162c0 -91 -41 -164 -120 -169l138 -240h-66l-131 234c-30 2 -180 12 -181 14v-248h-57zM124 291h210c35 0 93 17 93 117c0 97 -72 106 -96 106h-207v-223zM240 -136v51c0 14 6 20 18 20h34c13 0 17 -9 17 -20v-88c0 -68 -66 -55 -66 -55
v21c23 -1 24 15 24 23v29h-9c-10 0 -18 6 -18 19z" />
    <glyph glyph-name="itilde.smcp" horiz-adv-x="209" 
d="M90 0v570h57v-570h-57zM-57 668c38 32 74 62 114 62c46 -2 84 -48 113 -48c30 -1 66 24 95 41l16 -30c-33 -27 -70 -64 -112 -62c-51 2 -78 48 -113 47c-42 -1 -61 -22 -98 -40z" />
    <glyph glyph-name="lcommaaccent.smcp" horiz-adv-x="504" 
d="M90 86v484h57v-472c-1 -35 19 -41 48 -41h273v-57h-292c-53 0 -86 31 -86 86zM254 -136v51c0 14 7 20 18 20h34c13 0 18 -9 18 -20v-88c0 -68 -66 -55 -66 -55v21c22 -1 23 15 23 23v29h-9c-10 0 -18 6 -18 19z" />
    <glyph glyph-name="dieresis.smcp" horiz-adv-x="445" 
d="M56 581c0 22 18 40 40 40c21 0 39 -18 39 -40s-18 -39 -39 -39c-22 0 -40 17 -40 39zM311 581c0 22 18 40 40 40c21 0 38 -18 38 -40s-17 -39 -38 -39c-22 0 -40 17 -40 39z" />
    <glyph glyph-name="scaron.smcp" horiz-adv-x="543" 
d="M61 374v62c0 82 35 137 138 137c52 0 193 -9 260 -18v-43s-162 5 -260 5c-60 0 -81 -33 -81 -81v-62c0 -68 33 -66 81 -66h157c87 0 130 -45 130 -120v-70c0 -109 -75 -128 -130 -128c-49 0 -236 8 -273 20v41s177 -4 273 -4c55 0 73 54 73 71v70c0 44 -20 64 -73 64
h-157c-94 0 -138 26 -138 122zM132 763h53l91 -86l88 86h53l-113 -130h-55zM304 633z" />
    <glyph glyph-name="emacron.smcp" horiz-adv-x="520" 
d="M90 83v398c0 59 40 90 104 90l280 -11v-45h-278c-44 0 -49 -17 -49 -44v-157l296 -7v-45l-296 -6v-158c0 -40 26 -43 44 -43h283v-44l-300 -13c-50 0 -84 33 -84 85zM155 632v47h278v-47h-278z" />
    <glyph glyph-name="gcommaaccent.smcp" horiz-adv-x="576" 
d="M267 -137v51c0 13 6 20 18 20h33c14 0 18 -9 18 -20v-88c0 -69 -66 -55 -66 -55v21c23 -1 23 14 23 23v29h-8c-10 0 -18 6 -18 19zM61 286c0 184 46 293 222 293c43 0 157 -12 219 -25v-45c-22 2 -186 14 -215 14c-118 0 -168 -48 -168 -235c0 -146 45 -233 164 -237
c86 -3 148 21 176 43v159h-192v38c51 10 101 20 182 20c21 0 43 -1 67 -3v-308c-7 -2 -33 2 -42 0l-14 41c-52 -34 -121 -48 -181 -48c-220 0 -218 243 -218 293z" />
    <glyph glyph-name="tbar.smcp" horiz-adv-x="494" 
d="M22 513v57h450v-57h-196v-168h105v-40h-105v-305h-57v305h-109v40h109v168h-197z" />
    <glyph glyph-name="zcaron.smcp" horiz-adv-x="498" 
d="M39 0v57l348 456h-348v57h423v-57l-345 -456h345v-57h-423zM108 760h53l91 -86l88 86h53l-114 -130h-54zM279 630z" />
    <glyph glyph-name="macron.smcp" horiz-adv-x="403" 
d="M56 530v47h292v-47h-292z" />
    <glyph glyph-name="degree.smcp" horiz-adv-x="314" 
d="M56 469c0 57 45 103 101 103s101 -46 101 -103s-45 -103 -101 -103s-101 46 -101 103zM92 469c0 -36 29 -66 65 -66c37 0 65 30 65 66s-28 65 -65 65c-36 0 -65 -29 -65 -65z" />
    <glyph glyph-name="acute.smcp" horiz-adv-x="228" 
d="M22 531l112 133h72l-133 -133h-51z" />
    <glyph glyph-name="caron.smcp" horiz-adv-x="397" 
d="M56 681h45l93 -99l100 99h47l-122 -150h-54zM219 531z" />
    <glyph glyph-name="eng.smcp" horiz-adv-x="608" 
d="M90 0v571h54l346 -467v467h56v-571v-56c-2 -112 -68 -158 -178 -158v47c60 4 122 22 122 113v56l-343 467v-469h-57z" />
    <glyph glyph-name="amacron.smcp" horiz-adv-x="586" 
d="M39 0l236 570h57l218 -570h-62l-64 162h-254l-69 -162h-62zM193 219h211l-101 271zM165 630v47h278v-47h-278z" />
    <glyph glyph-name="aacute.smcp" horiz-adv-x="586" 
d="M39 0l236 570h57l218 -570h-62l-64 162h-254l-69 -162h-62zM193 219h211l-101 271zM279 630l112 133h71l-133 -133h-50z" />
    <glyph glyph-name="acircumflex.smcp" horiz-adv-x="586" 
d="M39 0l236 570h57l218 -570h-62l-64 162h-254l-69 -162h-62zM193 219h211l-101 271zM161 630l122 130h54l110 -130h-53l-85 86l-94 -86h-54zM337 760z" />
    <glyph glyph-name="atilde.smcp" horiz-adv-x="586" 
d="M39 0l236 570h57l218 -570h-62l-64 162h-254l-69 -162h-62zM193 219h211l-101 271zM135 668c38 32 74 62 114 62c46 -2 84 -48 113 -48c29 -1 65 24 94 41l17 -30c-33 -27 -70 -64 -112 -62c-51 2 -78 48 -113 47c-42 -1 -61 -22 -98 -40z" />
    <glyph glyph-name="adieresis.smcp" horiz-adv-x="586" 
d="M39 0l236 570h57l218 -570h-62l-64 162h-254l-69 -162h-62zM193 219h211l-101 271zM137 670c0 22 18 39 40 39s39 -17 39 -39s-17 -40 -39 -40s-40 18 -40 40zM392 670c0 22 18 39 40 39s39 -17 39 -39s-17 -40 -39 -40s-40 18 -40 40z" />
    <glyph glyph-name="aring.smcp" horiz-adv-x="586" 
d="M39 0l236 570h57l218 -570h-62l-64 162h-254l-69 -162h-62zM193 219h211l-101 271zM204 668c0 57 46 103 102 103s100 -46 100 -103s-44 -102 -100 -102s-102 45 -102 102zM239 668c0 -36 31 -65 67 -65s65 29 65 65s-29 66 -65 66s-67 -30 -67 -66z" />
    <glyph glyph-name="ae.smcp" horiz-adv-x="794" 
d="M26 0l271 482c42 74 86 84 181 87l271 -11v-45h-269c-44 0 -49 -12 -51 -44v-159l289 -7v-45l-289 -8v-155c0 -40 27 -42 46 -42h274v-44l-288 -13c-57 -1 -89 31 -89 84v96h-180l-102 -176h-64zM221 233h151v265z" />
    <glyph glyph-name="iogonek.smcp" horiz-adv-x="209" 
d="M92 0v570h57v-570h-57zM110 0h30c-93 -60 -84 -136 12 -137v-44c-115 -16 -192 116 -42 181z" />
    <glyph glyph-name="ccaron.smcp" horiz-adv-x="524" 
d="M61 295c0 145 34 283 204 283c43 0 172 -11 223 -23v-44c-15 3 -158 10 -223 10c-109 0 -147 -81 -147 -226c0 -139 28 -241 147 -242c73 2 223 10 223 10v-42c-58 -11 -146 -25 -223 -25c-181 0 -204 161 -204 299zM157 773h53l91 -86l88 86h53l-113 -130h-55zM329 643z
" />
    <glyph glyph-name="eacute.smcp" horiz-adv-x="520" 
d="M90 83v398c0 59 40 90 104 90l280 -11v-45h-278c-44 0 -49 -17 -49 -44v-157l296 -7v-45l-296 -6v-158c0 -40 26 -43 44 -43h283v-44l-300 -13c-50 0 -84 33 -84 85zM270 632l112 133h71l-133 -133h-50z" />
    <glyph glyph-name="eogonek.smcp" horiz-adv-x="520" 
d="M90 83v398c0 59 40 90 104 90l280 -11v-45h-278c-44 0 -49 -17 -49 -44v-157l296 -7v-45l-296 -6v-158c0 -40 26 -43 44 -43h283v-44l-300 -13c-50 0 -84 33 -84 85zM444 11h30c-93 -60 -84 -136 13 -137v-44c-115 -16 -193 116 -43 181z" />
    <glyph glyph-name="edieresis.smcp" horiz-adv-x="520" 
d="M90 83v398c0 59 40 90 104 90l280 -11v-45h-278c-44 0 -49 -17 -49 -44v-157l296 -7v-45l-296 -6v-158c0 -40 26 -43 44 -43h283v-44l-300 -13c-50 0 -84 33 -84 85zM124 683c0 22 18 39 40 39s38 -17 38 -39s-16 -40 -38 -40s-40 18 -40 40zM379 683c0 22 18 39 40 39
s39 -17 39 -39s-17 -40 -39 -40s-40 18 -40 40z" />
    <glyph glyph-name="edotaccent.smcp" horiz-adv-x="520" 
d="M90 83v398c0 59 40 90 104 90l280 -11v-45h-278c-44 0 -49 -17 -49 -44v-157l296 -7v-45l-296 -6v-158c0 -40 26 -43 44 -43h283v-44l-300 -13c-50 0 -84 33 -84 85zM262 651v57c0 12 6 20 20 20h36c13 0 20 -9 20 -20v-57c0 -13 -8 -19 -20 -19h-36c-12 0 -20 7 -20 19z
" />
    <glyph glyph-name="iacute.smcp" horiz-adv-x="209" 
d="M90 0v570h57v-570h-57zM99 630l112 133h71l-133 -133h-50z" />
    <glyph glyph-name="icircumflex.smcp" horiz-adv-x="209" 
d="M90 0v570h57v-570h-57zM-20 630l122 130h53l110 -130h-53l-85 86l-94 -86h-53zM155 760z" />
    <glyph glyph-name="imacron.smcp" horiz-adv-x="209" 
d="M93 0v570h57v-570h-57zM-13 630v47h279v-47h-279z" />
    <glyph glyph-name="dcroat.smcp" horiz-adv-x="598" 
d="M22 270v40h67v262c8 1 214 -1 231 -1c170 0 211 -165 211 -288c0 -283 -165 -283 -215 -283h-227v270h-67zM148 58h158c130 0 164 99 164 225c0 169 -73 229 -160 229h-162v-202h108v-40h-108v-212z" />
    <glyph glyph-name="ncommaaccent.smcp" horiz-adv-x="608" 
d="M90 0v571h54l346 -466v466h56v-571h-53l-346 469v-469h-57zM285 -136v51c0 13 6 20 18 20h34c13 0 17 -9 17 -20v-88c0 -69 -66 -55 -66 -55v21c23 -1 24 14 24 23v29h-9c-10 0 -18 6 -18 19z" />
    <glyph glyph-name="omacron.smcp" horiz-adv-x="607" 
d="M61 280c0 244 78 295 244 295c164 0 245 -32 245 -288c0 -245 -77 -292 -245 -292c-161 0 -244 36 -244 285zM118 285c0 -206 54 -233 187 -233c120 0 190 23 188 235c-2 217 -55 231 -188 231c-115 0 -186 -12 -187 -233zM167 642v47h279v-47h-279z" />
    <glyph glyph-name="kcommaaccent.smcp" horiz-adv-x="550" 
d="M90 -1v571h57v-262h93l203 262h71l-224 -290l224 -281h-71l-204 251h-92v-251h-57zM251 -137v51c0 14 7 20 19 20h33c14 0 18 -8 18 -20v-87c0 -69 -66 -56 -66 -56v21c22 0 23 15 23 23v30h-8c-11 0 -19 6 -19 18z" />
    <glyph glyph-name="ocircumflex.smcp" horiz-adv-x="607" 
d="M61 280c0 244 78 295 244 295c164 0 245 -32 245 -288c0 -245 -77 -292 -245 -292c-161 0 -244 36 -244 285zM118 285c0 -206 54 -233 187 -233c120 0 190 23 188 235c-2 217 -55 231 -188 231c-115 0 -186 -12 -187 -233zM161 632l122 130h54l109 -130h-53l-85 86
l-94 -86h-53zM337 762z" />
    <glyph glyph-name="otilde.smcp" horiz-adv-x="607" 
d="M61 280c0 244 78 295 244 295c164 0 245 -32 245 -288c0 -245 -77 -292 -245 -292c-161 0 -244 36 -244 285zM118 285c0 -206 54 -233 187 -233c120 0 190 23 188 235c-2 217 -55 231 -188 231c-115 0 -186 -12 -187 -233zM146 673c38 32 74 62 114 62
c46 -2 84 -48 114 -48c29 -1 65 24 94 41l16 -30c-33 -27 -70 -64 -112 -62c-51 2 -78 48 -113 47c-42 -1 -61 -22 -98 -40z" />
    <glyph glyph-name="odieresis.smcp" horiz-adv-x="607" 
d="M61 280c0 244 78 295 244 295c164 0 245 -32 245 -288c0 -245 -77 -292 -245 -292c-161 0 -244 36 -244 285zM118 285c0 -206 54 -233 187 -233c120 0 190 23 188 235c-2 217 -55 231 -188 231c-115 0 -186 -12 -187 -233zM137 675c0 22 17 39 39 39s39 -17 39 -39
s-17 -40 -39 -40s-39 18 -39 40zM391 675c0 22 18 39 40 39s39 -17 39 -39s-17 -40 -39 -40s-40 18 -40 40z" />
    <glyph glyph-name="oslash.smcp" horiz-adv-x="597" 
d="M54 0c11 15 38 51 49 67c-28 42 -42 109 -42 213c0 244 75 295 241 295c70 0 124 -5 164 -33c4 6 16 22 21 28h47c-10 -13 -30 -40 -41 -54c34 -41 51 -111 51 -229c0 -245 -74 -292 -242 -292c-77 0 -134 8 -174 44c-6 -8 -23 -32 -28 -39h-46zM118 285
c0 -79 8 -131 25 -166c58 76 229 301 287 376c-29 21 -72 23 -128 23c-115 0 -184 -13 -184 -233zM165 87c29 -28 73 -35 137 -35c118 0 185 22 185 235c0 92 -10 147 -33 180c-60 -75 -231 -303 -289 -380z" />
    <glyph glyph-name="uogonek.smcp" horiz-adv-x="567" 
d="M102 260v310h58v-310c-1 -172 52 -208 177 -208c111 0 173 39 173 208v310h58v-310c0 -233 -110 -265 -231 -265c-133 0 -236 26 -235 265zM325 -2h30c-92 -60 -84 -136 13 -136v-45c-115 -16 -192 117 -43 181z" />
    <glyph glyph-name="uacute.smcp" horiz-adv-x="618" 
d="M89 260v310h58v-310c0 -172 52 -208 178 -208c111 0 172 39 172 208v310h58v-310c0 -233 -110 -265 -230 -265c-134 0 -237 26 -236 265zM297 630l112 133h71l-133 -133h-50z" />
    <glyph glyph-name="ucircumflex.smcp" horiz-adv-x="618" 
d="M89 260v310h58v-310c0 -172 52 -208 178 -208c111 0 172 39 172 208v310h58v-310c0 -233 -110 -265 -230 -265c-134 0 -237 26 -236 265zM178 630l122 130h54l109 -130h-53l-85 86l-93 -86h-54zM354 760z" />
    <glyph glyph-name="udieresis.smcp" horiz-adv-x="618" 
d="M89 260v310h58v-310c0 -172 52 -208 178 -208c111 0 172 39 172 208v310h58v-310c0 -233 -110 -265 -230 -265c-134 0 -237 26 -236 265zM153 670c0 22 18 39 40 39s39 -17 39 -39s-17 -40 -39 -40s-40 18 -40 40zM408 670c0 22 18 39 40 39s39 -17 39 -39
s-17 -40 -39 -40s-40 18 -40 40z" />
    <glyph glyph-name="utilde.smcp" horiz-adv-x="618" 
d="M89 260v310h58v-310c0 -172 52 -208 178 -208c111 0 172 39 172 208v310h58v-310c0 -233 -110 -265 -230 -265c-134 0 -237 26 -236 265zM152 668c38 32 73 62 114 62c46 -2 84 -48 113 -48c29 -1 65 24 94 41l17 -30c-33 -27 -70 -64 -112 -62c-52 2 -79 48 -114 47
c-42 -1 -60 -22 -97 -40z" />
    <glyph glyph-name="umacron.smcp" horiz-adv-x="618" 
d="M89 260v310h58v-310c0 -172 52 -208 178 -208c111 0 172 39 172 208v310h58v-310c0 -233 -110 -265 -230 -265c-134 0 -237 26 -236 265zM181 630v47h279v-47h-279z" />
    <glyph glyph-name="germandbls.smcp" horiz-adv-x="1007" 
d="M41 374c0 -96 44 -122 138 -122h150c54 0 73 -20 73 -64v-70c0 -37 -18 -71 -73 -71c-96 0 -266 4 -266 4v-41c37 -12 217 -20 266 -20c55 0 130 19 130 128v70c0 75 -43 120 -130 120h-150c-48 0 -81 -2 -81 66v67c0 48 21 76 81 76c98 0 253 -5 253 -5v43
c-67 9 -201 18 -253 18c-103 0 -138 -50 -138 -132v-67zM540 441c0 82 35 132 138 132c52 0 186 -9 253 -18v-43s-155 5 -253 5c-61 0 -81 -28 -81 -76v-67c0 -68 33 -66 81 -66h150c87 0 130 -45 130 -120v-70c0 -109 -75 -128 -130 -128c-49 0 -229 8 -266 20v41
s170 -4 266 -4c55 0 73 34 73 71v70c0 44 -19 64 -73 64h-150c-94 0 -138 26 -138 122v67z" />
    <glyph glyph-name="agrave.smcp" horiz-adv-x="586" 
d="M39 0l236 570h57l218 -570h-62l-64 162h-254l-69 -162h-62zM193 219h211l-101 271zM128 763h72l111 -133h-50z" />
    <glyph glyph-name="ccedilla.smcp" horiz-adv-x="524" 
d="M61 295c0 145 34 283 204 283c43 0 172 -11 223 -23v-44c-15 3 -158 10 -223 10c-109 0 -147 -81 -147 -226c0 -139 28 -241 147 -242c73 2 223 10 223 10v-42c-58 -11 -146 -25 -223 -25c-181 0 -204 161 -204 299zM188 -147l45 11c37 11 50 36 49 98h50
c0 -101 -20 -136 -101 -136h-43v27z" />
    <glyph glyph-name="eth.smcp" horiz-adv-x="600" 
d="M28 270v40h66v262c8 1 214 -1 231 -1c170 0 212 -165 212 -288c0 -283 -165 -283 -215 -283h-228v270h-66zM154 58h158c129 0 163 99 163 225c0 169 -72 229 -159 229h-162v-202h108v-40h-108v-212z" />
    <glyph glyph-name="egrave.smcp" horiz-adv-x="520" 
d="M90 83v398c0 59 40 90 104 90l280 -11v-45h-278c-44 0 -49 -17 -49 -44v-157l296 -7v-45l-296 -6v-158c0 -40 26 -43 44 -43h283v-44l-300 -13c-50 0 -84 33 -84 85zM150 765h71l112 -133h-50z" />
    <glyph glyph-name="ecircumflex.smcp" horiz-adv-x="520" 
d="M90 83v398c0 59 40 90 104 90l280 -11v-45h-278c-44 0 -49 -17 -49 -44v-157l296 -7v-45l-296 -6v-158c0 -40 26 -43 44 -43h283v-44l-300 -13c-50 0 -84 33 -84 85zM153 632l122 130h54l109 -130h-53l-85 86l-94 -86h-53zM329 762z" />
    <glyph glyph-name="igrave.smcp" horiz-adv-x="209" 
d="M90 0v570h57v-570h-57zM-33 763h72l112 -133h-51z" />
    <glyph glyph-name="idieresis.smcp" horiz-adv-x="209" 
d="M90 0v570h57v-570h-57zM-45 670c0 22 17 39 39 39s39 -17 39 -39s-17 -40 -39 -40s-39 18 -39 40zM209 670c0 22 18 39 40 39s39 -17 39 -39s-17 -40 -39 -40s-40 18 -40 40z" />
    <glyph glyph-name="ntilde.smcp" horiz-adv-x="608" 
d="M90 0v571h54l346 -466v466h56v-571h-53l-346 469v-469h-57zM142 669c38 32 73 62 114 62c46 -2 84 -48 113 -48c29 -1 65 24 94 41l17 -30c-33 -27 -70 -64 -112 -62c-51 2 -79 48 -114 47c-42 -1 -60 -22 -97 -40z" />
    <glyph glyph-name="ograve.smcp" horiz-adv-x="607" 
d="M61 280c0 244 78 295 244 295c164 0 245 -32 245 -288c0 -245 -77 -292 -245 -292c-161 0 -244 36 -244 285zM118 285c0 -206 54 -233 187 -233c120 0 190 23 188 235c-2 217 -55 231 -188 231c-115 0 -186 -12 -187 -233zM157 768h72l112 -133h-51z" />
    <glyph glyph-name="oacute.smcp" horiz-adv-x="607" 
d="M61 280c0 244 78 295 244 295c164 0 245 -32 245 -288c0 -245 -77 -292 -245 -292c-161 0 -244 36 -244 285zM118 285c0 -206 54 -233 187 -233c120 0 190 23 188 235c-2 217 -55 231 -188 231c-115 0 -186 -12 -187 -233zM290 635l112 133h71l-133 -133h-50z" />
    <glyph glyph-name="ugrave.smcp" horiz-adv-x="618" 
d="M89 260v310h58v-310c0 -172 52 -208 178 -208c111 0 172 39 172 208v310h58v-310c0 -233 -110 -265 -230 -265c-134 0 -237 26 -236 265zM171 763h71l112 -133h-50z" />
    <glyph glyph-name="yacute.smcp" horiz-adv-x="564" 
d="M39 570h63l183 -320l180 320h63l-215 -380v-191h-57v191zM249 630l112 133h71l-133 -133h-50z" />
    <glyph glyph-name="thorn.smcp" 
d="M84 0v569h56v-103h187c49 0 146 -23 146 -172c0 -171 -84 -185 -146 -185c-33 0 -136 0 -187 14v-123h-56zM140 169h187c58 0 89 23 89 126c0 77 -35 111 -89 114h-187v-240z" />
    <glyph glyph-name="quotesinglbase.smcp" horiz-adv-x="232" 
d="M74 24v65c0 18 8 28 25 28h45c18 0 24 -12 24 -28v-107c0 -93 -89 -75 -89 -75v27c30 -1 31 21 31 32v33h-11c-13 0 -25 8 -25 25z" />
    <glyph glyph-name="quotedblleft.smcp" horiz-adv-x="373" 
d="M212 394v107c0 94 91 75 91 75v-28c-30 1 -33 -20 -33 -31v-33h13c13 0 24 -8 24 -25v-65c0 -18 -8 -27 -24 -27h-46c-18 0 -25 11 -25 27zM67 394v107c0 94 89 75 89 75v-28c-30 1 -31 -20 -31 -31v-33h11c13 0 26 -8 26 -25v-65c0 -18 -9 -27 -26 -27h-44
c-19 0 -25 11 -25 27z" />
    <glyph glyph-name="quotedblright.smcp" horiz-adv-x="373" 
d="M67 485v65c0 18 8 27 25 27h45c18 0 25 -11 25 -27v-108c0 -93 -90 -74 -90 -74v27c30 -1 32 20 32 31v34h-12c-14 0 -25 7 -25 25zM212 485v65c0 18 9 27 26 27h45c18 0 24 -11 24 -27v-108c0 -93 -89 -74 -89 -74v27c30 -1 31 20 31 31v34h-11c-13 0 -26 7 -26 25z" />
    <glyph glyph-name="quotedblbase.smcp" horiz-adv-x="373" 
d="M67 24v66c0 18 8 27 25 27h45c18 0 25 -12 25 -27v-108c0 -93 -90 -75 -90 -75v28c30 -1 32 20 32 31v33h-12c-14 0 -25 8 -25 25zM212 24v66c0 18 9 27 26 27h45c18 0 24 -12 24 -27v-108c0 -93 -89 -75 -89 -75v28c30 -1 31 20 31 31v33h-11c-13 0 -26 8 -26 25z" />
    <glyph glyph-name="exclamdown.smcp" horiz-adv-x="265" 
d="M92 492v59c0 12 7 19 19 19h40c12 0 20 -8 20 -19v-59c0 -13 -7 -21 -20 -21h-40c-13 0 -19 9 -19 21zM99 0l6 403h54l6 -403h-66z" />
    <glyph glyph-name="ordmasculine.smcp" horiz-adv-x="424" 
d="M50 395c0 142 36 187 163 187s161 -45 161 -187c0 -128 -34 -177 -161 -177s-163 49 -163 177zM61 145v44h301v-44h-301zM97 395c0 -118 40 -130 116 -130c79 0 112 11 114 130c1 129 -34 140 -114 140c-84 0 -116 -13 -116 -140z" />
    <glyph glyph-name="ordfeminine.smcp" horiz-adv-x="416" 
d="M67 147v44h317v-44h-317zM71 225l135 346h57l119 -346h-45l-34 99h-147l-37 -99h-48zM172 365h116l-53 161z" />
    <glyph glyph-name="Euro.smcp" horiz-adv-x="513" 
d="M18 205v34l68 6v71l-68 6v32l68 7c0 56 3 216 193 216c41 0 139 -13 194 -23v-45s-130 11 -194 11c-125 0 -135 -86 -135 -159l185 -6v-34l-185 -5v-71l185 -5v-35s-187 -4 -185 -6c0 -102 56 -145 135 -145c80 0 197 14 197 14v-45c-63 -18 -132 -28 -197 -28
c-68 0 -193 37 -193 204z" />
    <glyph glyph-name="lcaron.smcp" horiz-adv-x="504" 
d="M90 86v484h57v-472c-1 -35 19 -41 48 -41h273v-57h-292c-53 0 -86 31 -86 86zM223 544v67h57v-67l-8 -134h-39z" />
    <glyph glyph-name="sacute.smcp" horiz-adv-x="543" 
d="M61 374v62c0 82 35 137 138 137c52 0 193 -9 260 -18v-43s-162 5 -260 5c-60 0 -81 -33 -81 -81v-62c0 -68 33 -66 81 -66h157c87 0 130 -45 130 -120v-70c0 -109 -75 -128 -130 -128c-49 0 -236 8 -273 20v41s177 -4 273 -4c55 0 73 54 73 71v70c0 44 -20 64 -73 64
h-157c-94 0 -138 26 -138 122zM239 639l112 133h72l-133 -133h-51z" />
    <glyph glyph-name="scedilla.smcp" horiz-adv-x="543" 
d="M61 374v62c0 82 35 137 138 137c52 0 193 -9 260 -18v-43s-162 5 -260 5c-60 0 -81 -33 -81 -81v-62c0 -68 33 -66 81 -66h157c87 0 130 -45 130 -120v-70c0 -109 -75 -128 -130 -128c-49 0 -236 8 -273 20v41s177 -4 273 -4c55 0 73 54 73 71v70c0 44 -20 64 -73 64
h-157c-94 0 -138 26 -138 122zM153 -150l46 12c37 11 50 36 49 98h50c0 -102 -20 -136 -101 -136h-44v26z" />
    <glyph glyph-name="tcaron.smcp" horiz-adv-x="584" 
d="M93 513v57h449v-57h-196v-513h-57v513h-196zM176 773h53l92 -86l88 86h53l-114 -130h-54zM348 643z" />
    <glyph glyph-name="zacute.smcp" horiz-adv-x="498" 
d="M39 0v57l348 456h-348v57h423v-57l-345 -456h345v-57h-423zM227 630l112 133h71l-133 -133h-50z" />
    <glyph glyph-name="zdotaccent.smcp" horiz-adv-x="498" 
d="M39 0v57l348 456h-348v57h423v-57l-345 -456h345v-57h-423zM212 649v57c0 13 7 21 20 21h37c13 0 19 -9 19 -21v-57c0 -12 -7 -19 -19 -19h-37c-11 0 -20 8 -20 19z" />
    <glyph glyph-name="racute.smcp" horiz-adv-x="537" 
d="M67 0v571h264c60 0 153 -28 153 -162c0 -91 -41 -164 -120 -169l138 -240h-66l-131 234c-30 2 -180 12 -181 14v-248h-57zM124 291h210c35 0 93 17 93 117c0 97 -72 106 -96 106h-207v-223zM243 631l112 133h72l-133 -133h-51z" />
    <glyph glyph-name="abreve.smcp" horiz-adv-x="586" 
d="M39 0l236 570h57l218 -570h-62l-64 162h-254l-69 -162h-62zM193 219h211l-101 271zM189 744h36c0 -45 38 -79 78 -78c45 0 80 31 80 78h36c0 -76 -61 -114 -116 -114s-114 42 -114 114z" />
    <glyph glyph-name="lacute.smcp" horiz-adv-x="504" 
d="M90 86v484h57v-472c-1 -35 19 -41 48 -41h273v-57h-292c-53 0 -86 31 -86 86zM99 630l112 133h71l-133 -133h-50z" />
    <glyph glyph-name="cacute.smcp" horiz-adv-x="524" 
d="M61 295c0 145 34 283 204 283c43 0 172 -11 223 -23v-44c-15 3 -158 10 -223 10c-109 0 -147 -81 -147 -226c0 -139 28 -241 147 -242c73 2 223 10 223 10v-42c-58 -11 -146 -25 -223 -25c-181 0 -204 161 -204 299zM256 643l112 133h71l-133 -133h-50z" />
    <glyph glyph-name="ecaron.smcp" horiz-adv-x="520" 
d="M90 83v398c0 59 40 90 104 90l280 -11v-45h-278c-44 0 -49 -17 -49 -44v-157l296 -7v-45l-296 -6v-158c0 -40 26 -43 44 -43h283v-44l-300 -13c-50 0 -84 33 -84 85zM146 761h53l91 -86l88 86h53l-113 -130h-55zM318 631z" />
    <glyph glyph-name="dcaron.smcp" horiz-adv-x="603" 
d="M128 0v572h240c176 -2 219 -166 219 -289c0 -282 -159 -283 -219 -283h-240zM185 57h183c130 0 162 103 162 226c0 167 -75 232 -162 232h-183v-458zM197 762h53l91 -86l88 86h53l-114 -130h-54zM368 632z" />
    <glyph glyph-name="nacute.smcp" horiz-adv-x="608" 
d="M90 0v571h54l346 -466v466h56v-571h-53l-346 469v-469h-57zM304 631l111 133h72l-133 -133h-50z" />
    <glyph glyph-name="ncaron.smcp" horiz-adv-x="608" 
d="M90 0v571h54l346 -466v466h56v-571h-53l-346 469v-469h-57zM177 761h53l92 -86l88 86h53l-114 -130h-54zM349 631z" />
    <glyph glyph-name="ohungarumlaut.smcp" horiz-adv-x="607" 
d="M61 280c0 244 78 295 244 295c164 0 245 -32 245 -288c0 -245 -77 -292 -245 -292c-161 0 -244 36 -244 285zM118 285c0 -206 54 -233 187 -233c120 0 190 23 188 235c-2 217 -55 231 -188 231c-115 0 -186 -12 -187 -233zM213 635l111 133h72l-133 -133h-50zM349 635
l112 133h71l-133 -133h-50z" />
    <glyph glyph-name="rcaron.smcp" horiz-adv-x="537" 
d="M67 0v571h264c60 0 153 -28 153 -162c0 -91 -41 -164 -120 -169l138 -240h-66l-131 234c-30 2 -180 12 -181 14v-248h-57zM124 291h210c35 0 93 17 93 117c0 97 -72 106 -96 106h-207v-223zM123 761h53l91 -86l88 86h53l-113 -130h-55zM295 631z" />
    <glyph glyph-name="uring.smcp" horiz-adv-x="618" 
d="M89 260v310h58v-310c0 -172 52 -208 178 -208c111 0 172 39 172 208v310h58v-310c0 -233 -110 -265 -230 -265c-134 0 -237 26 -236 265zM221 712c0 57 46 103 102 103s101 -46 101 -103s-45 -102 -101 -102s-102 45 -102 102zM257 712c0 -36 30 -65 66 -65s65 29 65 65
s-29 66 -65 66s-66 -30 -66 -66z" />
    <glyph glyph-name="uhungarumlaut.smcp" horiz-adv-x="618" 
d="M89 260v310h58v-310c0 -172 52 -208 178 -208c111 0 172 39 172 208v310h58v-310c0 -233 -110 -265 -230 -265c-134 0 -237 26 -236 265zM226 630l112 133h71l-133 -133h-50zM362 630l112 133h72l-133 -133h-51z" />
    <glyph glyph-name="tcommaaccent.smcp" horiz-adv-x="524" 
d="M39 513v57h449v-57h-196v-513h-57v513h-196zM134 -156l46 11c36 11 49 36 49 98h50c0 -101 -20 -136 -101 -136h-44v27z" />
    <glyph glyph-name="lslash.smcp" horiz-adv-x="498" 
d="M30 241v50l63 26v253h57v-230l118 48l-1 -49l-117 -48v-193c0 -35 20 -41 49 -41h273v-57h-293c-53 0 -86 31 -86 86v182z" />
    <glyph glyph-name="questiondown.smcp" horiz-adv-x="499" 
d="M63 152v48c0 107 96 149 201 134c0 2 1 67 0 70h59v-120c-29 0 -64 1 -93 0c-49 -2 -110 -19 -110 -84v-48c0 -69 41 -97 129 -97h212v-44c-77 -9 -131 -16 -216 -14c-127 0 -182 62 -182 155zM254 492v59c0 14 9 19 20 19h39c12 0 20 -8 20 -19v-59
c0 -13 -6 -21 -20 -21h-39c-14 0 -20 8 -20 21z" />
    <glyph glyph-name="oe.smcp" horiz-adv-x="898" 
d="M45 280c0 244 78 295 244 295c93 0 156 -11 193 -68c10 43 45 64 99 64l276 -11v-45h-274c-44 0 -49 -17 -49 -44v-157l292 -7v-45l-292 -6v-158c0 -40 26 -43 44 -43h279v-44l-296 -13c-46 0 -74 27 -80 68c-35 -54 -100 -71 -192 -71c-161 0 -244 36 -244 285zM102 285
c0 -206 54 -233 187 -233c119 0 188 23 188 235c0 218 -58 231 -188 231c-115 0 -187 -12 -187 -233z" />
    <glyph glyph-name="ydieresis.smcp" horiz-adv-x="564" 
d="M39 570h63l183 -320l180 320h63l-215 -380v-191h-57v191zM117 670c0 22 18 39 40 39c21 0 38 -17 38 -39s-17 -40 -38 -40c-22 0 -40 18 -40 40zM372 670c0 22 18 39 40 39c21 0 38 -17 38 -39s-17 -40 -38 -40c-22 0 -40 18 -40 40z" />
    <glyph glyph-name="sterling.smcp" horiz-adv-x="527" 
d="M56 0v36l56 16v206h-56v32l57 12v89c0 91 37 180 196 180l164 -12v-43h-163c-110 0 -141 -46 -141 -127v-84l242 -13v-36h-242v-200h303v-56h-416z" />
    <glyph glyph-name="yen.smcp" horiz-adv-x="509" 
d="M22 571h65l168 -269l165 269h67l-194 -313h155v-44h-165v-45h165v-44h-165v-125h-57v125h-156v44h156v45h-156v44h145z" />
    <glyph glyph-name="perthousand.smcp" horiz-adv-x="1168" 
d="M32 383v63c0 85 28 125 129 125h46c98 0 127 -40 127 -125v-63c0 -85 -28 -125 -129 -125h-46c-98 0 -127 40 -127 125zM80 383c0 -61 22 -77 79 -77h46c64 0 81 17 81 77v63c0 59 -19 77 -79 77h-46c-65 0 -81 -17 -81 -77v-63zM200 0l343 570h54l-343 -570h-54z
M467 125v62c0 85 28 125 129 125h45c98 0 127 -40 127 -125v-62c0 -85 -28 -125 -129 -125h-45c-98 0 -127 40 -127 125zM515 125c0 -62 21 -77 79 -77h45c64 0 81 17 81 77v62c0 59 -19 77 -79 77h-45c-66 0 -81 -17 -81 -77v-62zM823 125v62c0 85 28 125 129 125h45
c98 0 127 -40 127 -125v-62c0 -85 -28 -125 -129 -125h-45c-98 0 -127 40 -127 125zM871 125c0 -62 21 -77 79 -77h45c65 0 81 17 81 77v62c0 59 -19 77 -79 77h-45c-65 0 -81 -17 -81 -77v-62z" />
    <glyph glyph-name="circumflex.smcp" horiz-adv-x="397" 
d="M56 531l122 130h54l109 -130h-53l-85 86l-93 -86h-54zM232 661z" />
    <glyph glyph-name="tilde.smcp" horiz-adv-x="449" 
d="M56 572c38 32 74 62 114 62c46 -2 84 -47 114 -48c29 -1 65 24 94 42l16 -30c-33 -28 -70 -64 -112 -63c-51 2 -78 48 -113 47c-42 0 -61 -22 -98 -40z" />
    <glyph glyph-name="ring.smcp" horiz-adv-x="314" 
d="M56 632c0 57 45 103 101 103s101 -46 101 -103s-45 -103 -101 -103s-101 46 -101 103zM92 632c0 -36 29 -65 65 -65c37 0 65 29 65 65s-28 66 -65 66c-36 0 -65 -30 -65 -66z" />
    <glyph glyph-name="hbar.smcp" horiz-adv-x="601" 
d="M41 406v37h49v127h57v-127h334v127h57v-127h49v-37h-49v-407h-57v248h-334v-248h-57v407h-49zM147 304h334v102h-334v-102z" />
    <glyph glyph-name="hcircumflex.smcp" horiz-adv-x="601" 
d="M90 -1v571h57v-266h334v266h57v-571h-57v247h-334v-247h-57zM168 630l122 130h53l110 -130h-53l-85 86l-94 -86h-53zM343 760z" />
    <glyph glyph-name="gbreve.smcp" horiz-adv-x="576" 
d="M61 286c0 184 41 293 213 293c43 0 170 -12 231 -25v-46c-62 6 -139 14 -231 14c-112 0 -156 -50 -156 -234c0 -111 39 -239 156 -239c81 0 166 38 188 55v150h-185v37c52 10 94 20 175 20c21 0 43 -1 67 -3v-308h-41l-14 47c-53 -34 -130 -54 -190 -54
c-207 -1 -213 243 -213 293zM194 753h36c0 -45 38 -79 78 -78c45 0 80 31 80 78h36c0 -76 -61 -114 -116 -114s-114 42 -114 114z" />
    <glyph glyph-name="jcircumflex.smcp" horiz-adv-x="332" 
d="M39 21l4 40c94 -19 168 -24 170 105v404h57v-404c0 -46 -6 -116 -56 -148c-54 -35 -127 -24 -175 3zM87 630l122 130h54l109 -130h-53l-85 86l-93 -86h-54zM263 760z" />
    <glyph glyph-name="cdotaccent.smcp" horiz-adv-x="524" 
d="M61 295c0 145 34 283 204 283c43 0 172 -11 223 -23v-44c-15 3 -158 10 -223 10c-109 0 -147 -81 -147 -226c0 -139 28 -241 147 -242c73 2 223 10 223 10v-42c-58 -11 -146 -25 -223 -25c-181 0 -204 161 -204 299zM267 662v57c0 13 7 21 20 21h37c12 0 19 -9 19 -21
v-57c0 -12 -8 -19 -19 -19h-37c-12 0 -20 8 -20 19z" />
    <glyph glyph-name="ccircumflex.smcp" horiz-adv-x="524" 
d="M61 295c0 145 34 283 204 283c43 0 172 -11 223 -23v-44c-15 3 -158 10 -223 10c-109 0 -147 -81 -147 -226c0 -139 28 -241 147 -242c73 2 223 10 223 10v-42c-58 -11 -146 -25 -223 -25c-181 0 -204 161 -204 299zM165 643l122 130h54l110 -130h-53l-85 86l-94 -86h-54
zM341 773z" />
    <glyph glyph-name="gdotaccent.smcp" horiz-adv-x="576" 
d="M61 286c0 184 41 293 213 293c43 0 170 -12 231 -25v-46c-62 6 -139 14 -231 14c-112 0 -156 -50 -156 -234c0 -111 39 -239 156 -239c81 0 166 38 188 55v150h-185v37c52 10 94 20 175 20c21 0 43 -1 67 -3v-308h-41l-14 47c-53 -34 -130 -54 -190 -54
c-207 -1 -213 243 -213 293zM275 658v57c0 13 7 21 20 21h37c13 0 19 -9 19 -21v-57c0 -12 -7 -19 -19 -19h-37c-11 0 -20 8 -20 19z" />
    <glyph glyph-name="gcircumflex.smcp" horiz-adv-x="576" 
d="M61 286c0 184 41 293 213 293c43 0 170 -12 231 -25v-46c-62 6 -139 14 -231 14c-112 0 -156 -50 -156 -234c0 -111 39 -239 156 -239c81 0 166 38 188 55v150h-185v37c52 10 94 20 175 20c21 0 43 -1 67 -3v-308h-41l-14 47c-53 -34 -130 -54 -190 -54
c-207 -1 -213 243 -213 293zM172 638l122 130h54l110 -130h-53l-85 86l-94 -86h-54zM348 768z" />
    <glyph glyph-name="ubreve.smcp" horiz-adv-x="618" 
d="M89 260v310h58v-310c0 -172 52 -208 178 -208c111 0 172 39 172 208v310h58v-310c0 -233 -110 -265 -230 -265c-134 0 -237 26 -236 265zM208 744h35c0 -45 38 -79 79 -78c45 0 80 31 80 78h36c0 -76 -61 -114 -116 -114s-114 42 -114 114z" />
    <glyph glyph-name="scircumflex.smcp" horiz-adv-x="543" 
d="M61 374v62c0 82 35 137 138 137c52 0 193 -9 260 -18v-43s-162 5 -260 5c-60 0 -81 -33 -81 -81v-62c0 -68 33 -66 81 -66h157c87 0 130 -45 130 -120v-70c0 -109 -75 -128 -130 -128c-49 0 -236 8 -273 20v41s177 -4 273 -4c55 0 73 54 73 71v70c0 44 -20 64 -73 64
h-157c-94 0 -138 26 -138 122zM115 637l123 130h53l110 -130h-53l-85 86l-94 -86h-54zM291 767z" />
    <glyph glyph-name="Idotaccent.smcp" horiz-adv-x="198" 
d="M70 669v57c0 13 7 21 20 21h37c12 0 19 -9 19 -21v-57c0 -12 -8 -19 -19 -19h-37c-12 0 -20 8 -20 19zM78 0v570h57v-570h-57z" />
    <glyph glyph-name="periodcentered.smcp" horiz-adv-x="269" 
d="M100 284v41c0 13 6 21 19 21h40c14 0 20 -8 20 -21v-41c0 -15 -9 -20 -20 -20h-40c-11 0 -19 8 -19 20z" />
    <glyph glyph-name="bullet.smcp" horiz-adv-x="315" 
d="M95 291v63c0 21 11 35 33 35h57c25 0 35 -13 35 -35v-63c0 -24 -15 -32 -35 -32h-57c-20 0 -33 12 -33 32z" />
    <glyph glyph-name="quoteleft.smcp" horiz-adv-x="242" 
d="M74 394v107c0 94 90 75 90 75v-28c-30 1 -32 -20 -32 -31v-33h12c13 0 24 -8 24 -25v-65c0 -18 -8 -27 -24 -27h-45c-19 0 -25 11 -25 27z" />
    <glyph glyph-name="quoteright.smcp" horiz-adv-x="242" 
d="M74 485v65c0 18 8 27 25 27h45c18 0 24 -11 24 -27v-108c0 -93 -89 -74 -89 -74v27c30 -1 31 20 31 31v34h-11c-13 0 -25 7 -25 25z" />
    <glyph glyph-name="uni1E02" unicode="&#x1e02;" horiz-adv-x="597" 
d="M90 0v732h272c146 0 190 -97 190 -188c0 -81 -37 -146 -105 -163c44 -10 108 -63 108 -177c0 -102 -39 -204 -193 -204h-272zM147 57h215c58 0 136 19 136 149c0 80 -50 149 -136 148h-215v-297zM147 412h215c81 0 132 45 133 132c1 105 -63 131 -133 131h-215v-263z
M273 814v56c0 13 6 21 20 21h36c13 0 20 -9 20 -21v-56c0 -13 -8 -20 -20 -20h-36c-12 0 -20 8 -20 20z" />
    <glyph glyph-name="uni1E03" unicode="&#x1e03;" horiz-adv-x="553" 
d="M67 0v785h55v-286c64 26 152 40 197 40c151 0 179 -140 179 -276c0 -122 -34 -269 -179 -269c-68 0 -170 44 -196 65l-16 -59h-40zM123 100c54 -24 117 -49 196 -49c72 0 122 67 122 212c0 177 -51 219 -122 219c-77 0 -127 -9 -196 -27v-355zM59 870v57c0 13 6 21 20 21
h36c13 0 20 -9 20 -21v-57c0 -12 -8 -19 -20 -19h-36c-12 0 -20 8 -20 19z" />
    <glyph glyph-name="uni1E0A" unicode="&#x1e0a;" horiz-adv-x="661" 
d="M90 0v732h265c225 0 260 -219 260 -369c0 -166 -70 -363 -260 -363h-265zM147 59h208c144 0 203 153 203 305c0 221 -76 311 -203 311h-208v-616zM288 820v56c0 13 7 21 20 21h37c12 0 19 -9 19 -21v-56c0 -13 -8 -20 -19 -20h-37c-12 0 -20 8 -20 20z" />
    <glyph glyph-name="Wgrave" unicode="&#x1e80;" horiz-adv-x="965" 
d="M50 732h63l226 -639l203 639h64l-80 -257l144 -386l207 643h62l-237 -732h-61l-145 381l-126 -381h-61zM343 927h71l112 -133h-50z" />
    <glyph glyph-name="Wacute" unicode="&#x1e82;" horiz-adv-x="965" 
d="M50 732h63l226 -639l203 639h64l-80 -257l144 -386l207 643h62l-237 -732h-61l-145 381l-126 -381h-61zM477 794l111 133h72l-133 -133h-50z" />
    <glyph glyph-name="uni1E0B" unicode="&#x1e0b;" horiz-adv-x="553" 
d="M56 263c0 136 27 276 178 276c45 0 133 -14 197 -40v286h55v-785h-39l-17 59c-26 -21 -128 -65 -196 -65c-145 0 -178 147 -178 269zM113 263c0 -147 49 -212 121 -212c79 0 143 25 196 49v355c-69 18 -119 27 -196 27c-71 0 -121 -40 -121 -219zM419 865v57
c0 12 7 20 20 20h37c12 0 19 -9 19 -20v-57c0 -13 -8 -19 -19 -19h-37c-12 0 -20 7 -20 19z" />
    <glyph glyph-name="Ygrave" unicode="&#x1ef2;" horiz-adv-x="626" 
d="M50 732h63l202 -403l223 403h62l-256 -472v-260h-57v260zM167 930h72l111 -133h-50z" />
    <glyph glyph-name="uni1E1E" unicode="&#x1e1e;" horiz-adv-x="572" 
d="M90 0v602c0 98 60 133 126 130l309 -14v-43h-309c-56 0 -69 -30 -69 -73v-209l338 -8v-44l-338 -8v-333h-57zM275 823v57c0 13 6 21 20 21h36c13 0 20 -9 20 -21v-57c0 -12 -8 -19 -20 -19h-36c-12 0 -20 8 -20 19z" />
    <glyph glyph-name="uni1E1F" unicode="&#x1e1f;" horiz-adv-x="394" 
d="M22 474v42l94 15v99c0 54 3 156 113 156c42 0 99 -6 143 -20v-36h-129c-66 1 -70 -42 -70 -100v-99h158v-57h-158v-474h-57v474h-94zM215 879v57c0 12 6 20 20 20h36c13 0 20 -9 20 -20v-57c0 -13 -8 -19 -20 -19h-36c-12 0 -20 8 -20 19z" />
    <glyph glyph-name="uni1E40" unicode="&#x1e40;" horiz-adv-x="799" 
d="M61 0l60 732h79l201 -637l196 637h80l65 -732h-57l-57 634l-196 -634h-59l-202 634l-53 -634h-57zM361 816v57c0 13 6 21 20 21h36c13 0 20 -9 20 -21v-57c0 -12 -8 -19 -20 -19h-36c-12 0 -20 8 -20 19z" />
    <glyph glyph-name="uni1E41" unicode="&#x1e41;" horiz-adv-x="909" 
d="M67 0v531h39l18 -63c60 36 119 70 198 70c66 0 122 -31 146 -79c52 41 136 79 221 79c97 0 164 -73 164 -171v-367h-57v367c0 66 -42 114 -107 114c-80 0 -140 -19 -207 -61c3 -8 5 -42 5 -51v-369h-57v367c0 66 -43 114 -108 114c-80 0 -122 -20 -198 -58v-423h-57z
M445 617v57c0 13 7 21 20 21h37c13 0 19 -9 19 -21v-57c0 -12 -7 -19 -19 -19h-37c-11 0 -20 8 -20 19z" />
    <glyph glyph-name="uni1E56" unicode="&#x1e56;" horiz-adv-x="582" 
d="M67 0v732h293c79 0 175 -29 175 -208c0 -207 -101 -218 -175 -218c-40 0 -231 14 -236 17v-323h-57zM124 364h236c61 0 118 18 117 160c-1 139 -68 150 -117 150h-236v-310zM258 834v57c0 13 7 21 20 21h37c12 0 19 -9 19 -21v-57c0 -12 -8 -19 -19 -19h-37
c-12 0 -20 8 -20 19z" />
    <glyph glyph-name="wgrave" unicode="&#x1e81;" horiz-adv-x="793" 
d="M22 531h63l170 -448l155 448h62l-61 -180l123 -268l175 448h62l-206 -531h-58l-124 275l-97 -275h-62zM245 726h72l111 -133h-50z" />
    <glyph glyph-name="uni1E57" unicode="&#x1e57;" horiz-adv-x="553" 
d="M67 -269v800h40l16 -59c26 21 128 65 196 65c145 0 179 -147 179 -269c0 -136 -28 -276 -179 -276c-45 0 -133 14 -197 40v-301h-55zM123 76c69 -18 119 -27 196 -27c71 0 122 42 122 219c0 145 -50 212 -122 212c-79 0 -143 -25 -196 -49v-355zM256 624v57
c0 13 6 20 20 20h36c13 0 20 -8 20 -20v-57c0 -12 -8 -19 -20 -19h-36c-12 0 -20 8 -20 19z" />
    <glyph glyph-name="wacute" unicode="&#x1e83;" horiz-adv-x="793" 
d="M22 531h63l170 -448l155 448h62l-61 -180l123 -268l175 448h62l-206 -531h-58l-124 275l-97 -275h-62zM379 593l111 133h72l-133 -133h-50z" />
    <glyph glyph-name="uni1E60" unicode="&#x1e60;" horiz-adv-x="584" 
d="M73 494v66c0 145 84 178 196 178c53 0 199 -16 241 -22v-44c-64 4 -241 9 -241 9c-82 3 -139 -14 -139 -121v-66c0 -95 46 -106 117 -106h133c133 0 158 -82 158 -164v-68c0 -142 -101 -164 -200 -164c-49 0 -199 14 -245 22v44c42 -4 152 -9 245 -9c58 0 143 9 143 107
v68c0 67 -25 106 -101 106h-131c-158 0 -176 82 -176 164zM267 824v57c0 12 7 20 20 20h37c13 0 19 -9 19 -20v-57c0 -13 -7 -19 -19 -19h-37c-11 0 -20 7 -20 19z" />
    <glyph glyph-name="ygrave" unicode="&#x1ef3;" horiz-adv-x="545" 
d="M23 531h63l135 -415c25 -73 79 -57 78 -57l159 472h63l-234 -699l-65 -102h-34l91 270c-21 0 -87 4 -119 110zM121 729h71l112 -133h-50z" />
    <glyph glyph-name="Wdieresis" unicode="&#x1e84;" horiz-adv-x="965" 
d="M50 732h63l226 -639l203 639h64l-80 -257l144 -386l207 643h62l-237 -732h-61l-145 381l-126 -381h-61zM335 833c0 22 17 39 39 39s39 -17 39 -39c0 -21 -17 -39 -39 -39s-39 18 -39 39zM589 833c0 22 18 39 40 39s39 -17 39 -39c0 -21 -17 -39 -39 -39s-40 18 -40 39z
" />
    <glyph glyph-name="wdieresis" unicode="&#x1e85;" horiz-adv-x="793" 
d="M22 531h63l170 -448l155 448h62l-61 -180l123 -268l175 448h62l-206 -531h-58l-124 275l-97 -275h-62zM237 632c0 22 17 39 39 39s39 -17 39 -39c0 -21 -17 -39 -39 -39s-39 18 -39 39zM492 632c0 22 17 39 39 39s39 -17 39 -39c0 -21 -17 -39 -39 -39s-39 18 -39 39z
" />
    <glyph glyph-name="uni1E61" unicode="&#x1e61;" horiz-adv-x="505" 
d="M45 360v46c0 82 35 130 138 130c52 0 199 -9 251 -14v-42h-251c-71 0 -81 -27 -81 -74v-46c0 -66 31 -68 81 -68h148c83 0 130 -48 130 -123v-49c0 -109 -66 -125 -130 -125c-49 0 -226 12 -264 16v41h264c16 0 73 -4 73 68v49c0 39 -20 67 -73 67h-148
c-94 0 -138 21 -138 124zM230 623v57c0 13 7 20 20 20h37c13 0 19 -8 19 -20v-57c0 -12 -7 -19 -19 -19h-37c-11 0 -20 8 -20 19z" />
    <glyph glyph-name="Wcircumflex" unicode="&#x174;" horiz-adv-x="965" 
d="M50 732h63l226 -639l203 639h64l-80 -257l144 -386l207 643h62l-237 -732h-61l-145 381l-126 -381h-61zM359 794l122 130h53l110 -130h-53l-85 86l-94 -86h-53zM534 924z" />
    <glyph glyph-name="uni1E6A" unicode="&#x1e6a;" horiz-adv-x="586" 
d="M46 675v57h511v-57h-230v-675h-57v675h-224zM256 816v57c0 13 7 21 20 21h37c13 0 19 -9 19 -21v-57c0 -12 -7 -19 -19 -19h-37c-11 0 -20 8 -20 19z" />
    <glyph glyph-name="Ycircumflex" unicode="&#x176;" horiz-adv-x="626" 
d="M50 732h63l202 -403l223 403h62l-256 -472v-260h-57v260zM176 794l122 130h54l109 -130h-53l-85 86l-93 -86h-54zM352 924z" />
    <glyph glyph-name="ycircumflex" unicode="&#x177;" horiz-adv-x="545" 
d="M23 531h63l135 -415c25 -73 79 -57 78 -57l159 472h63l-234 -699l-65 -102h-34l91 270c-21 0 -87 4 -119 110zM130 596l122 130h54l109 -130h-53l-85 86l-94 -86h-53zM306 726z" />
    <glyph glyph-name="wcircumflex" unicode="&#x175;" horiz-adv-x="793" 
d="M22 531h63l170 -448l155 448h62l-61 -180l123 -268l175 448h62l-206 -531h-58l-124 275l-97 -275h-62zM261 593l122 130h54l109 -130h-53l-85 86l-94 -86h-53zM437 723z" />
    <glyph glyph-name="uni1E6B" unicode="&#x1e6b;" horiz-adv-x="368" 
d="M22 475v42l94 15l15 148h42v-148h162v-57h-162v-286c0 -110 37 -125 69 -132c0 0 77 -17 84 -17v-40h-81c-79 0 -129 51 -129 189v286h-94zM114 760v57c0 12 7 20 20 20h37c12 0 19 -9 19 -20v-57c0 -13 -8 -19 -19 -19h-37c-12 0 -20 7 -20 19z" />
    <glyph glyph-name="uni1E03.smcp" horiz-adv-x="547" 
d="M90 0v571h253c124 0 154 -84 154 -151c0 -82 -39 -111 -75 -129c26 -9 78 -49 78 -131c0 -85 -31 -160 -157 -160h-253zM147 58h196c43 0 100 9 100 102c0 62 -35 106 -100 106c0 0 -173 -2 -196 0v-208zM147 323h196c64 0 97 27 97 97c0 81 -56 94 -97 94h-196v-191z
M245 650v57c0 13 6 21 20 21h36c13 0 20 -9 20 -21v-57c0 -12 -8 -19 -20 -19h-36c-12 0 -20 8 -20 19z" />
    <glyph glyph-name="uni1E0B.smcp" horiz-adv-x="606" 
d="M90 0v572h240c176 -2 219 -166 219 -289c0 -282 -159 -283 -219 -283h-240zM147 57h183c129 0 162 103 162 226c0 167 -75 232 -162 232h-183v-458zM249 651v57c0 13 7 21 20 21h37c12 0 19 -9 19 -21v-57c0 -12 -8 -19 -19 -19h-37c-12 0 -20 8 -20 19z" />
    <glyph glyph-name="uni1E1F.smcp" horiz-adv-x="520" 
d="M90 0v481c0 59 40 90 104 90l280 -11v-45h-278c-44 0 -48 -19 -49 -44v-158l296 -8v-45l-296 -6v-254h-57zM251 651v57c0 12 6 20 19 20h37c13 0 19 -9 19 -20v-57c0 -13 -7 -19 -19 -19h-37c-11 0 -19 7 -19 19z" />
    <glyph glyph-name="uni1E41.smcp" horiz-adv-x="735" 
d="M61 0l61 571h67l183 -474l184 474h64l58 -571h-55l-47 464l-179 -464h-47l-181 468l-54 -468h-54zM343 650v57c0 13 7 21 20 21h37c12 0 19 -9 19 -21v-57c0 -12 -8 -19 -19 -19h-37c-12 0 -20 8 -20 19z" />
    <glyph glyph-name="wgrave.smcp" horiz-adv-x="842" 
d="M39 570h63l181 -485l173 485h62l-65 -186l118 -299l176 485h59l-207 -570h-57l-119 306l-109 -306h-59zM268 764h72l112 -133h-51z" />
    <glyph glyph-name="uni1E57.smcp" horiz-adv-x="530" 
d="M67 0v569h264c70 0 152 -42 152 -159c0 -175 -91 -178 -154 -178l-204 11v-243h-58zM125 288h206c51 0 95 10 95 116c2 76 -45 108 -95 108h-206v-224zM235 648v57c0 13 7 21 20 21h37c13 0 19 -9 19 -21v-57c0 -12 -7 -19 -19 -19h-37c-11 0 -20 8 -20 19z" />
    <glyph glyph-name="wacute.smcp" horiz-adv-x="842" 
d="M39 570h63l181 -485l173 485h62l-65 -186l118 -299l176 485h59l-207 -570h-57l-119 306l-109 -306h-59zM401 631l112 133h72l-133 -133h-51z" />
    <glyph glyph-name="ygrave.smcp" horiz-adv-x="564" 
d="M39 570h63l183 -320l180 320h63l-215 -380v-191h-57v191zM129 763h72l111 -133h-50z" />
    <glyph glyph-name="wdieresis.smcp" horiz-adv-x="842" 
d="M39 570h63l181 -485l173 485h62l-65 -186l118 -299l176 485h59l-207 -570h-57l-119 306l-109 -306h-59zM259 670c0 22 18 39 40 39s39 -17 39 -39c0 -21 -17 -39 -39 -39s-40 18 -40 39zM514 670c0 22 18 39 40 39s39 -17 39 -39c0 -21 -17 -39 -39 -39s-40 18 -40 39z
" />
    <glyph glyph-name="uni1E61.smcp" horiz-adv-x="543" 
d="M61 374v62c0 82 35 137 138 137c52 0 193 -9 260 -18v-43s-162 5 -260 5c-60 0 -81 -33 -81 -81v-62c0 -68 33 -66 81 -66h157c87 0 130 -45 130 -120v-70c0 -109 -75 -128 -130 -128c-49 0 -236 8 -273 20v41s177 -4 273 -4c55 0 73 54 73 71v70c0 44 -20 64 -73 64
h-157c-94 0 -138 26 -138 122zM229 652v57c0 13 7 21 20 21h37c12 0 19 -9 19 -21v-57c0 -12 -8 -19 -19 -19h-37c-12 0 -20 8 -20 19z" />
    <glyph glyph-name="wcircumflex.smcp" horiz-adv-x="842" 
d="M39 570h63l181 -485l173 485h62l-65 -186l118 -299l176 485h59l-207 -570h-57l-119 306l-109 -306h-59zM284 631l122 130h54l109 -130h-53l-85 86l-93 -86h-54zM460 761z" />
    <glyph glyph-name="uni1E6B.smcp" horiz-adv-x="524" 
d="M39 513v57h449v-57h-196v-513h-57v513h-196zM225 649v57c0 13 7 21 20 21h37c12 0 19 -9 19 -21v-57c0 -12 -8 -19 -19 -19h-37c-12 0 -20 8 -20 19z" />
    <glyph glyph-name="ycircumflex.smcp" horiz-adv-x="564" 
d="M39 570h63l183 -320l180 320h63l-215 -380v-191h-57v191zM141 630l122 130h54l109 -130h-53l-85 86l-93 -86h-54zM317 760z" />
    <glyph glyph-name="uni0338" unicode="&#x338;" horiz-adv-x="648" 
d="M78 162v408c0 108 77 162 172 162h154c122 0 167 -74 167 -162v-408c0 -119 -68 -162 -167 -162h-154c-91 0 -172 42 -172 162zM135 162c0 -23 5 -43 15 -58l305 557c-13 10 -29 14 -51 14h-154c-76 0 -115 -43 -115 -105v-408zM187 75c17 -12 39 -18 63 -18h154
c78 0 110 40 110 105v408c0 27 -5 51 -19 69z" />
    <glyph glyph-name="afii61352" unicode="&#x2116;" horiz-adv-x="1074" 
d="M80 0v651c0 102 131 116 167 29l256 -606c13 -33 53 -24 55 12v482c0 122 63 167 151 167c49 0 189 -1 189 -1c102 -3 132 -60 132 -181c0 -107 -29 -172 -132 -172h-66c-103 0 -132 58 -132 234h47c0 -166 31 -187 89 -187h58c55 0 89 23 89 125c0 121 -37 130 -91 131
c0 0 -113 1 -185 1c-62 0 -92 -45 -92 -115v-491c0 -88 -125 -125 -164 -30l-258 608c-13 35 -55 24 -55 -12v-645h-58z" />
    <glyph glyph-name="afii61289" unicode="&#x2113;" horiz-adv-x="396" 
d="M33 248c19 17 39 36 58 56v328c1 67 51 107 112 107c80 0 124 -66 124 -141c-1 -100 -80 -214 -180 -304v-105c1 -112 22 -123 70 -132c0 -1 81 -19 84 -18v-39c0 -1 -83 0 -83 0c-90 0 -127 52 -127 189v59c-11 -9 -27 -20 -38 -25zM147 372c63 77 142 180 115 268
c-16 56 -115 61 -115 -14v-254z" />
    <glyph glyph-name="estimated" unicode="&#x212e;" horiz-adv-x="736" 
d="M67 266c0 78 29 140 84 192c56 50 120 75 217 75c89 0 150 -21 208 -66s89 -120 93 -209h-479c-7 0 -12 2 -12 -11v-133c0 -27 76 -93 190 -93c76 0 148 36 191 84h56c-38 -40 -73 -67 -113 -83c-42 -16 -72 -22 -134 -22c-96 0 -163 23 -218 74s-83 114 -83 192z
M178 284c0 -9 4 -9 9 -9h357c12 0 13 -3 13 7v133c0 42 -104 99 -190 99c-108 0 -189 -70 -189 -93v-137z" />
    <glyph glyph-name="c_k" horiz-adv-x="1005" 
d="M45 266c0 232 73 271 175 271c52 0 150 -14 218 -27v-40s-129 10 -218 10c-71 0 -118 -20 -118 -218c0 -171 67 -211 157 -211c98 0 239 120 315 190v541h57v-491l268 241l81 -1l-253 -230l255 -301h-70l-226 264l-55 -50v-214h-57v164c-131 -114 -230 -171 -315 -170
c-99 0 -214 39 -214 272z" />
    <glyph glyph-name="N.salt" horiz-adv-x="683" 
d="M90 0v652c0 102 129 115 165 28l254 -605c14 -35 54 -24 55 8v649h57v-653c0 -90 -126 -123 -163 -29l-256 609c-12 31 -55 24 -55 -12v-647h-57z" />
    <glyph glyph-name="M.salt" horiz-adv-x="803" 
d="M61 0l40 652c0 102 135 118 162 28l123 -410c8 -27 32 -23 38 0l111 411c27 89 160 74 162 -28l49 -653h-57l-50 651c-2 33 -42 40 -51 9l-110 -410c-19 -72 -122 -74 -145 0l-124 409c-10 33 -48 23 -50 -8l-42 -651h-56z" />
    <glyph glyph-name="uni1E40.salt" horiz-adv-x="803" 
d="M61 0l40 652c0 102 135 118 162 28l123 -410c8 -27 32 -23 38 0l111 411c27 89 160 74 162 -28l49 -653h-57l-50 651c-2 33 -42 40 -51 9l-110 -410c-19 -72 -122 -74 -145 0l-124 409c-10 33 -48 23 -50 -8l-42 -651h-56zM374 819v57c0 12 7 20 20 20h37
c13 0 19 -9 19 -20v-57c0 -13 -7 -19 -19 -19h-37c-11 0 -20 7 -20 19z" />
    <glyph glyph-name="Ntilde.salt" horiz-adv-x="683" 
d="M90 0v652c0 102 129 115 165 28l254 -605c14 -35 54 -24 55 8v649h57v-653c0 -90 -126 -123 -163 -29l-256 609c-12 31 -55 24 -55 -12v-647h-57zM197 838c38 32 74 62 114 62c46 -2 84 -47 113 -48c30 -1 66 24 95 42l16 -30c-33 -28 -70 -64 -112 -63
c-51 2 -78 48 -113 47c-42 0 -61 -22 -98 -40z" />
    <glyph glyph-name="Nacute.salt" horiz-adv-x="683" 
d="M90 0v652c0 102 129 115 165 28l254 -605c14 -35 54 -24 55 8v649h57v-653c0 -90 -126 -123 -163 -29l-256 609c-12 31 -55 24 -55 -12v-647h-57zM349 797l112 133h71l-133 -133h-50z" />
    <glyph glyph-name="Ncaron.salt" horiz-adv-x="683" 
d="M90 0v652c0 102 129 115 165 28l254 -605c14 -35 54 -24 55 8v649h57v-653c0 -90 -126 -123 -163 -29l-256 609c-12 31 -55 24 -55 -12v-647h-57zM229 927h53l91 -86l88 86h53l-113 -130h-55zM401 797z" />
    <glyph glyph-name="Ncommaaccent.salt" horiz-adv-x="683" 
d="M90 0v652c0 102 129 115 165 28l254 -605c14 -35 54 -24 55 8v649h57v-653c0 -90 -126 -123 -163 -29l-256 609c-12 31 -55 24 -55 -12v-647h-57zM305 -143v51c0 14 7 20 19 20h33c14 0 18 -8 18 -20v-87c0 -69 -66 -56 -66 -56v21c22 0 23 15 23 23v30h-8
c-11 0 -19 6 -19 18z" />
    <glyph glyph-name="minus" unicode="&#x2212;" horiz-adv-x="450" 
d="M22 328v56h406v-56h-406z" />
    <glyph glyph-name="zero.numerator" horiz-adv-x="482" 
d="M67 365v255c0 84 46 110 117 110h117c83 0 113 -43 113 -110v-255c0 -96 -49 -110 -113 -110h-117c-59 0 -117 10 -117 110zM115 369c0 -54 17 -67 73 -67h109c62 0 71 21 71 67v247c0 45 -14 67 -71 67h-109c-58 0 -73 -22 -73 -67v-247z" />
    <glyph glyph-name="one.numerator" horiz-adv-x="265" 
d="M18 642v35l128 55h47v-476h-47v424z" />
    <glyph glyph-name="two.numerator" horiz-adv-x="395" 
d="M35 691c-2 0 -1 36 0 35c66 8 111 12 183 12c98 0 130 -58 130 -136c0 -124 -183 -266 -223 -299h222v-47h-309v43c67 54 261 189 261 300c0 58 -19 92 -90 92h-174z" />
    <glyph glyph-name="three.numerator" horiz-adv-x="416" 
d="M33 687v31c54 17 120 15 196 15c87 0 121 -55 121 -115v-35c0 -50 -36 -81 -61 -89c25 -12 61 -41 61 -95v-28c0 -71 -28 -119 -127 -119c-74 0 -134 -1 -186 16l1 30c21 0 177 1 177 1c64 0 87 19 87 76v23c0 54 -42 75 -83 76l-142 5v34l142 6c51 2 85 27 85 71v26
c0 53 -35 71 -82 71h-189z" />
    <glyph glyph-name="four.numerator" horiz-adv-x="414" 
d="M18 411l202 319h54l-182 -289h200v121l21 48h26v-169h59v-37l-59 -12v-136h-47v136h-258z" />
    <glyph glyph-name="five.numerator" horiz-adv-x="430" 
d="M61 263v36h211c44 0 66 25 66 70v56c0 32 -1 70 -64 70h-113c-33 0 -59 -21 -59 -57h-41l15 292h295v-47h-251l-9 -170c29 40 116 29 165 29c77 0 109 -42 109 -113v-64c0 -82 -46 -114 -109 -114c-81 0 -145 0 -215 12z" />
    <glyph glyph-name="six.numerator" horiz-adv-x="450" 
d="M61 506c2 197 59 226 123 230c66 3 155 -3 205 -10v-37h-203c-67 0 -77 -95 -78 -173c55 6 144 11 192 11c88 0 105 -42 105 -93v-73c0 -72 -44 -105 -105 -105h-107c-72 0 -134 37 -132 250zM108 480c0 -81 16 -177 83 -177h106c42 0 61 20 61 63v65c0 43 -23 49 -61 49
h-189z" />
    <glyph glyph-name="seven.numerator" horiz-adv-x="370" 
d="M17 685v47h321l15 -26l-182 -450h-53l175 429h-276z" />
    <glyph glyph-name="eight.numerator" horiz-adv-x="480" 
d="M74 358v58c0 48 35 68 61 73c-46 13 -61 55 -61 89v40c0 92 49 117 116 117h110c70 0 108 -31 108 -117v-40c0 -21 -9 -69 -56 -77c34 -6 56 -51 56 -85v-58c0 -84 -50 -104 -105 -104h-120c-92 0 -109 50 -109 104zM121 362c0 -43 15 -60 66 -60h112c38 0 62 14 62 60
v50c0 42 -29 60 -58 60h-118c-38 0 -64 -19 -64 -59v-51zM121 582c0 -47 31 -62 60 -62h118c45 0 62 29 62 62v32c0 60 -23 74 -70 74h-97c-53 0 -73 -16 -73 -74v-32z" />
    <glyph glyph-name="nine.numerator" horiz-adv-x="450" 
d="M50 558v73c0 72 44 105 105 105h107c72 0 134 -37 132 -250c-2 -197 -56 -226 -122 -230s-151 -1 -206 10v37h203c67 0 77 95 78 173c-55 -6 -144 -12 -192 -12c-88 0 -105 43 -105 94zM97 561c0 -43 23 -49 61 -49h189c0 81 -14 177 -81 177h-108c-41 0 -61 -20 -61 -63
v-65z" />
    <glyph glyph-name="zero.denominator" horiz-adv-x="482" 
d="M67 110v255c0 84 46 110 117 110h117c83 0 113 -43 113 -110v-255c0 -96 -49 -110 -113 -110h-117c-59 0 -117 10 -117 110zM115 114c0 -54 17 -67 73 -67h109c62 0 71 21 71 67v247c0 45 -14 67 -71 67h-109c-58 0 -73 -22 -73 -67v-247z" />
    <glyph glyph-name="one.denominator" horiz-adv-x="265" 
d="M18 387v35l128 55h47v-476h-47v424z" />
    <glyph glyph-name="two.denominator" horiz-adv-x="395" 
d="M35 436c-2 0 -1 36 0 35c66 8 111 12 183 12c98 0 130 -58 130 -136c0 -124 -183 -266 -223 -299h222v-47h-309v43c67 54 261 189 261 300c0 58 -19 92 -90 92h-174z" />
    <glyph glyph-name="three.denominator" horiz-adv-x="416" 
d="M33 432v31c54 17 120 15 196 15c87 0 121 -55 121 -115v-35c0 -50 -36 -81 -61 -89c25 -12 61 -41 61 -95v-28c0 -71 -28 -119 -127 -119c-74 0 -134 -1 -186 16l1 30c21 0 177 1 177 1c64 0 87 19 87 76v23c0 54 -42 75 -83 76l-142 5v34l142 6c51 2 85 27 85 71v26
c0 53 -35 71 -82 71h-189z" />
    <glyph glyph-name="four.denominator" horiz-adv-x="414" 
d="M18 156l202 319h54l-182 -289h200v121l21 48h26v-169h59v-37l-59 -12v-136h-47v136h-258z" />
    <glyph glyph-name="five.denominator" horiz-adv-x="430" 
d="M61 8v36h211c44 0 66 25 66 70v56c0 32 -1 70 -64 70h-113c-33 0 -59 -21 -59 -57h-41l15 292h295v-47h-251l-9 -170c29 40 116 29 165 29c77 0 109 -42 109 -113v-64c0 -82 -46 -114 -109 -114c-81 0 -145 0 -215 12z" />
    <glyph glyph-name="six.denominator" horiz-adv-x="450" 
d="M61 251c2 197 59 226 123 230c66 3 152 -1 205 -10v-37h-203c-67 0 -77 -95 -78 -173c55 6 144 11 192 11c88 0 105 -42 105 -93v-73c0 -72 -44 -105 -105 -105h-107c-72 0 -134 37 -132 250zM108 225c0 -81 16 -177 83 -177h106c42 0 61 20 61 63v65c0 43 -23 49 -61 49
h-189z" />
    <glyph glyph-name="seven.denominator" horiz-adv-x="370" 
d="M17 430v47h321l15 -26l-182 -450h-53l175 429h-276z" />
    <glyph glyph-name="eight.denominator" horiz-adv-x="480" 
d="M74 103v58c0 48 35 68 61 73c-46 13 -61 55 -61 89v40c0 92 49 117 116 117h110c70 0 108 -31 108 -117v-40c0 -21 -9 -69 -56 -77c34 -6 56 -51 56 -85v-58c0 -84 -50 -104 -105 -104h-120c-92 0 -109 50 -109 104zM121 107c0 -43 15 -60 66 -60h112c38 0 62 14 62 60
v50c0 42 -29 60 -58 60h-118c-38 0 -64 -19 -64 -59v-51zM121 327c0 -47 31 -62 60 -62h118c45 0 62 29 62 62v32c0 60 -23 74 -70 74h-97c-53 0 -73 -16 -73 -74v-32z" />
    <glyph glyph-name="nine.denominator" horiz-adv-x="450" 
d="M50 303v73c0 72 44 105 105 105h107c72 0 134 -37 132 -250c-2 -197 -56 -226 -122 -230s-152 -1 -206 10v37h203c67 0 77 95 78 173c-55 -6 -144 -12 -192 -12c-88 0 -105 43 -105 94zM97 306c0 -43 23 -49 61 -49h189c0 81 -14 177 -81 177h-108c-41 0 -61 -20 -61 -63
v-65z" />
    <glyph glyph-name="c_h" horiz-adv-x="1045" 
d="M45 266c0 232 73 271 175 271c52 0 150 -14 218 -27v-40s-129 10 -218 10c-71 0 -118 -20 -118 -218c0 -171 41 -211 118 -211c181 0 346 -25 346 155v578h57v-315c56 34 120 71 203 71c106 0 164 -82 164 -170v-370h-58v370c0 72 -43 113 -106 113
c-88 0 -137 -25 -203 -58v-219c0 -250 -236 -208 -403 -212c-101 0 -175 39 -175 272z" />
    <glyph glyph-name="m.salt" horiz-adv-x="898" 
d="M67 0v483c111 44 152 57 260 57c50 0 89 -18 116 -46c91 35 138 46 236 46c106 0 164 -82 164 -170v-370h-57v370c0 70 -44 113 -107 113c-70 0 -118 -6 -205 -38c12 -22 17 -49 17 -75v-370h-57v370c0 70 -44 113 -107 113c-71 0 -114 -6 -203 -39v-444h-57z" />
    <glyph glyph-name="n.salt" 
d="M67 0v483c111 44 152 57 260 57c106 0 164 -82 164 -170v-370h-57v370c0 70 -44 113 -107 113c-71 0 -114 -6 -203 -39v-444h-57z" />
    <glyph glyph-name="ntilde.salt" 
d="M67 0v483c111 44 152 57 260 57c106 0 164 -82 164 -170v-370h-57v370c0 70 -44 113 -107 113c-71 0 -114 -6 -203 -39v-444h-57zM110 638c38 32 74 62 114 62c46 -2 84 -48 113 -48c30 -1 66 24 94 41l17 -30c-33 -27 -70 -64 -112 -62c-51 2 -78 48 -113 47
c-42 -1 -61 -22 -98 -40z" />
    <glyph glyph-name="ncommaaccent.salt" 
d="M67 0v483c111 44 152 57 260 57c106 0 164 -82 164 -170v-370h-57v370c0 70 -44 113 -107 113c-71 0 -114 -6 -203 -39v-444h-57zM241 -136v51c0 14 6 20 18 20h33c14 0 18 -9 18 -20v-88c0 -68 -66 -55 -66 -55v21c23 -1 23 15 23 23v29h-8c-10 0 -18 6 -18 19z" />
    <glyph glyph-name="ncaron.salt" 
d="M67 0v483c111 44 152 57 260 57c106 0 164 -82 164 -170v-370h-57v370c0 70 -44 113 -107 113c-71 0 -114 -6 -203 -39v-444h-57zM134 730h53l92 -86l88 86h53l-114 -130h-54zM306 600z" />
    <glyph glyph-name="nacute.salt" 
d="M67 0v483c111 44 152 57 260 57c106 0 164 -82 164 -170v-370h-57v370c0 70 -44 113 -107 113c-71 0 -114 -6 -203 -39v-444h-57zM260 600l112 133h71l-133 -133h-50z" />
    <glyph glyph-name="uni1E41.salt" horiz-adv-x="898" 
d="M67 0v483c111 44 152 57 260 57c50 0 89 -18 116 -46c91 35 138 46 236 46c106 0 164 -82 164 -170v-370h-57v370c0 70 -44 113 -107 113c-70 0 -118 -6 -205 -38c12 -22 17 -49 17 -75v-370h-57v370c0 70 -44 113 -107 113c-71 0 -114 -6 -203 -39v-444h-57zM430 619v57
c0 13 7 21 20 21h37c12 0 19 -9 19 -21v-57c0 -12 -8 -19 -19 -19h-37c-12 0 -20 8 -20 19z" />
    <glyph glyph-name="r.salt" horiz-adv-x="428" 
d="M67 0v483c104 44 175 69 338 55v-58c-101 10 -182 1 -281 -36v-444h-57z" />
    <glyph glyph-name="racute.salt" horiz-adv-x="428" 
d="M67 0v483c104 44 175 69 338 55v-58c-101 10 -182 1 -281 -36v-444h-57zM224 602l112 133h72l-133 -133h-51z" />
    <glyph glyph-name="rcaron.salt" horiz-adv-x="428" 
d="M67 0v483c104 44 175 69 338 55v-58c-101 10 -182 1 -281 -36v-444h-57zM107 732h53l91 -86l88 86h53l-114 -130h-54zM278 602z" />
    <glyph glyph-name="rcommaaccent.salt" horiz-adv-x="428" 
d="M64 0v483c104 44 175 69 338 55v-58c-101 10 -182 1 -281 -36v-444h-57zM58 -136v51c0 13 6 20 18 20h34c13 0 18 -9 18 -20v-88c0 -69 -67 -55 -67 -55v21c23 -1 24 14 24 23v29h-9c-10 0 -18 6 -18 19z" />
    <glyph glyph-name="x.salt" horiz-adv-x="529" 
d="M22 0l149 214c42 60 33 78 -10 135l-139 182h70l117 -155c51 -66 65 -115 18 -182l-135 -194h-70zM303 194c-47 68 -34 115 18 182l117 155h69l-138 -182c-45 -59 -51 -75 -10 -135l148 -214h-69z" />
    <glyph glyph-name="X.salt" horiz-adv-x="609" 
d="M22 0l190 302c38 60 26 103 -13 161l-177 269h66l162 -245c41 -63 63 -138 20 -203l-182 -284h-66zM340 284c-43 65 -21 140 20 203l162 245h66l-177 -269c-39 -58 -51 -101 -13 -161l190 -302h-66z" />
    <glyph glyph-name="a.salt" horiz-adv-x="537" 
d="M56 131v64c0 77 41 122 137 122h231c0 147 -47 164 -121 163c-72 0 -147 -6 -236 -11v41c72 12 140 28 239 27c140 -1 176 -67 176 -272v-109c0 -104 -49 -156 -155 -156h-134c-61 0 -137 18 -137 131zM113 131c0 -46 17 -74 80 -74h134c84 0 97 42 97 99v119l-231 -14
c-53 -3 -80 -18 -80 -66v-64z" />
    <glyph glyph-name="agrave.salt" horiz-adv-x="537" 
d="M56 131v64c0 77 41 122 137 122h231c0 147 -47 164 -121 163c-72 0 -147 -6 -236 -11v41c72 12 140 28 239 27c140 -1 176 -67 176 -272v-109c0 -104 -49 -156 -155 -156h-134c-61 0 -137 18 -137 131zM113 131c0 -46 17 -74 80 -74h134c84 0 97 42 97 99v119l-231 -14
c-53 -3 -80 -18 -80 -66v-64zM130 730h72l112 -133h-51z" />
    <glyph glyph-name="aacute.salt" horiz-adv-x="537" 
d="M56 131v64c0 77 41 122 137 122h231c0 147 -47 164 -121 163c-72 0 -147 -6 -236 -11v41c72 12 140 28 239 27c140 -1 176 -67 176 -272v-109c0 -104 -49 -156 -155 -156h-134c-61 0 -137 18 -137 131zM113 131c0 -46 17 -74 80 -74h134c84 0 97 42 97 99v119l-231 -14
c-53 -3 -80 -18 -80 -66v-64zM249 597l112 133h71l-133 -133h-50z" />
    <glyph glyph-name="atilde.salt" horiz-adv-x="537" 
d="M56 131v64c0 77 41 122 137 122h231c0 147 -47 164 -121 163c-72 0 -147 -6 -236 -11v41c72 12 140 28 239 27c140 -1 176 -67 176 -272v-109c0 -104 -49 -156 -155 -156h-134c-61 0 -137 18 -137 131zM113 131c0 -46 17 -74 80 -74h134c84 0 97 42 97 99v119l-231 -14
c-53 -3 -80 -18 -80 -66v-64zM110 635c38 32 74 62 114 62c46 -2 84 -48 114 -48c29 -1 65 24 94 41l16 -30c-33 -27 -70 -64 -112 -62c-51 2 -78 48 -113 47c-42 -1 -61 -22 -98 -40z" />
    <glyph glyph-name="aring.salt" horiz-adv-x="537" 
d="M56 131v64c0 77 41 122 137 122h231c0 147 -47 164 -121 163c-72 0 -147 -6 -236 -11v41c72 12 140 28 239 27c140 -1 176 -67 176 -272v-109c0 -104 -49 -156 -155 -156h-134c-61 0 -137 18 -137 131zM113 131c0 -46 17 -74 80 -74h134c84 0 97 42 97 99v119l-231 -14
c-53 -3 -80 -18 -80 -66v-64zM173 699c0 57 46 103 102 103s101 -46 101 -103s-45 -102 -101 -102s-102 45 -102 102zM209 699c0 -36 30 -65 66 -65s65 29 65 65s-29 66 -65 66s-66 -30 -66 -66z" />
    <glyph glyph-name="acircumflex.salt" horiz-adv-x="537" 
d="M56 131v64c0 77 41 122 137 122h231c0 147 -47 164 -121 163c-72 0 -147 -6 -236 -11v41c72 12 140 28 239 27c140 -1 176 -67 176 -272v-109c0 -104 -49 -156 -155 -156h-134c-61 0 -137 18 -137 131zM113 131c0 -46 17 -74 80 -74h134c84 0 97 42 97 99v119l-231 -14
c-53 -3 -80 -18 -80 -66v-64zM132 597l122 130h54l109 -130h-53l-85 86l-94 -86h-53zM308 727z" />
    <glyph glyph-name="adieresis.salt" horiz-adv-x="537" 
d="M56 131v64c0 77 41 122 137 122h231c0 147 -47 164 -121 163c-72 0 -147 -6 -236 -11v41c72 12 140 28 239 27c140 -1 176 -67 176 -272v-109c0 -104 -49 -156 -155 -156h-134c-61 0 -137 18 -137 131zM113 131c0 -46 17 -74 80 -74h134c84 0 97 42 97 99v119l-231 -14
c-53 -3 -80 -18 -80 -66v-64zM108 637c0 22 17 39 39 39s39 -17 39 -39s-17 -40 -39 -40s-39 18 -39 40zM362 637c0 22 18 39 40 39s39 -17 39 -39s-17 -40 -39 -40s-40 18 -40 40z" />
    <glyph glyph-name="aogonek.salt" horiz-adv-x="558" 
d="M64 131v64c0 77 41 122 137 122h231c0 147 -47 164 -121 163c-72 0 -147 -6 -236 -11v41c72 12 140 28 239 27c140 -1 176 -67 176 -272v-109c0 -104 -49 -156 -155 -156h-134c-61 0 -137 18 -137 131zM121 131c0 -46 17 -74 80 -74h134c85 0 97 42 97 99v119l-231 -14
c-53 -3 -80 -18 -80 -66v-64zM397 20h30c-93 -60 -84 -136 13 -136v-45c-116 -16 -193 117 -43 181z" />
    <glyph glyph-name="abreve.salt" horiz-adv-x="537" 
d="M56 131v64c0 77 41 122 137 122h231c0 147 -47 164 -121 163c-72 0 -147 -6 -236 -11v41c72 12 140 28 239 27c140 -1 176 -67 176 -272v-109c0 -104 -49 -156 -155 -156h-134c-61 0 -137 18 -137 131zM113 131c0 -46 17 -74 80 -74h134c84 0 97 42 97 99v119l-231 -14
c-53 -3 -80 -18 -80 -66v-64zM158 711h36c0 -45 38 -79 78 -78c45 0 80 31 80 78h36c0 -76 -61 -114 -116 -114s-114 42 -114 114z" />
    <glyph glyph-name="amacron.salt" horiz-adv-x="537" 
d="M56 131v64c0 77 41 122 137 122h231c0 147 -47 164 -121 163c-72 0 -147 -6 -236 -11v41c72 12 140 28 239 27c140 -1 176 -67 176 -272v-109c0 -104 -49 -156 -155 -156h-134c-61 0 -137 18 -137 131zM113 131c0 -46 17 -74 80 -74h134c84 0 97 42 97 99v119l-231 -14
c-53 -3 -80 -18 -80 -66v-64zM135 597v47h278v-47h-278z" />
    <glyph glyph-name="u.salt" 
d="M56 162v370h57v-370c0 -71 44 -113 107 -113c71 0 142 6 203 22v461h57v-503c-97 -32 -152 -37 -260 -37c-106 0 -164 82 -164 170z" />
    <glyph glyph-name="uhungarumlaut.salt" 
d="M56 162v370h57v-370c0 -71 44 -113 107 -113c71 0 142 6 203 22v461h57v-503c-97 -32 -152 -37 -260 -37c-106 0 -164 82 -164 170zM175 596l111 133h72l-133 -133h-50zM311 596l112 133h71l-133 -133h-50z" />
    <glyph glyph-name="ugrave.salt" 
d="M56 162v370h57v-370c0 -71 44 -113 107 -113c71 0 142 6 203 22v461h57v-503c-97 -32 -152 -37 -260 -37c-106 0 -164 82 -164 170zM110 729h71l112 -133h-50z" />
    <glyph glyph-name="uacute.salt" 
d="M56 162v370h57v-370c0 -71 44 -113 107 -113c71 0 142 6 203 22v461h57v-503c-97 -32 -152 -37 -260 -37c-106 0 -164 82 -164 170zM243 596l112 133h71l-133 -133h-50z" />
    <glyph glyph-name="utilde.salt" 
d="M56 162v370h57v-370c0 -71 44 -113 107 -113c71 0 142 6 203 22v461h57v-503c-97 -32 -152 -37 -260 -37c-106 0 -164 82 -164 170zM99 634c38 32 74 62 114 62c46 -2 84 -48 113 -48c30 -1 66 24 94 41l17 -30c-33 -27 -70 -64 -112 -62c-51 2 -78 48 -113 47
c-42 -1 -61 -22 -98 -40z" />
    <glyph glyph-name="uring.salt" 
d="M56 162v370h57v-370c0 -71 44 -113 107 -113c71 0 142 6 203 22v461h57v-503c-97 -32 -152 -37 -260 -37c-106 0 -164 82 -164 170zM167 698c0 57 46 103 102 103s100 -46 100 -103s-44 -102 -100 -102s-102 45 -102 102zM202 698c0 -36 31 -65 67 -65s65 29 65 65
s-29 66 -65 66s-67 -30 -67 -66z" />
    <glyph glyph-name="ucircumflex.salt" 
d="M56 162v370h57v-370c0 -71 44 -113 107 -113c71 0 142 6 203 22v461h57v-503c-97 -32 -152 -37 -260 -37c-106 0 -164 82 -164 170zM125 596l123 130h53l110 -130h-53l-85 86l-94 -86h-54zM301 726z" />
    <glyph glyph-name="udieresis.salt" 
d="M56 162v370h57v-370c0 -71 44 -113 107 -113c71 0 142 6 203 22v461h57v-503c-97 -32 -152 -37 -260 -37c-106 0 -164 82 -164 170zM101 636c0 22 18 39 40 39s39 -17 39 -39s-17 -40 -39 -40s-40 18 -40 40zM356 636c0 22 18 39 40 39s39 -17 39 -39s-17 -40 -39 -40
s-40 18 -40 40z" />
    <glyph glyph-name="uogonek.salt" horiz-adv-x="596" 
d="M64 162v370h57v-370c0 -71 44 -113 107 -113c71 0 142 6 203 22v461h57v-503c-97 -32 -152 -37 -260 -37c-106 0 -164 82 -164 170zM458 30h30c-92 -60 -84 -136 13 -136v-45c-115 -16 -192 117 -43 181z" />
    <glyph glyph-name="ubreve.salt" 
d="M56 162v370h57v-370c0 -71 44 -113 107 -113c71 0 142 6 203 22v461h57v-503c-97 -32 -152 -37 -260 -37c-106 0 -164 82 -164 170zM153 710h36c0 -45 38 -79 78 -78c45 0 80 31 80 78h36c0 -76 -61 -114 -116 -114s-114 42 -114 114z" />
    <glyph glyph-name="umacron.salt" 
d="M56 162v370h57v-370c0 -71 44 -113 107 -113c71 0 142 6 203 22v461h57v-503c-97 -32 -152 -37 -260 -37c-106 0 -164 82 -164 170zM129 596v47h278v-47h-278z" />
    <glyph glyph-name="b.salt" horiz-adv-x="557" 
d="M67 7v776h57v-288c64 26 149 39 194 39c153 0 184 -120 184 -278c0 -168 -59 -269 -184 -269c-106 0 -203 14 -251 20zM124 44h194c111 0 127 124 127 212c0 112 -10 221 -127 221c-74 0 -111 -6 -194 -27v-406z" />
    <glyph glyph-name="d.salt" horiz-adv-x="557" 
d="M56 256c0 158 31 278 184 278c45 0 130 -13 194 -39v288h57v-776c-48 -6 -145 -20 -251 -20c-125 0 -184 101 -184 269zM113 256c0 -88 16 -212 127 -212h194v406c-83 21 -120 27 -194 27c-117 0 -127 -109 -127 -221z" />
    <glyph glyph-name="f.salt" horiz-adv-x="373" 
d="M67 0v630c0 54 4 156 124 156c49 0 111 -5 160 -20v-36c-1 0 -147 1 -147 1c-73 0 -80 -46 -80 -101v-108h164v-56h-164v-466h-57z" />
    <glyph glyph-name="p.salt" horiz-adv-x="557" 
d="M67 -270v791c48 5 145 19 251 19c125 0 184 -101 184 -269c0 -158 -31 -278 -184 -278c-45 0 -130 13 -194 39v-302h-57zM124 77c83 -21 120 -27 194 -27c117 0 127 109 127 221c0 89 -16 212 -127 212h-194v-406z" />
    <glyph glyph-name="t.salt" horiz-adv-x="318" 
d="M67 190v490h57v-148h172v-57h-172v-285c0 -94 27 -123 75 -132c0 0 77 -18 84 -18v-39h-83c-78 0 -133 48 -133 189z" />
    <glyph glyph-name="uni1E03.salt" horiz-adv-x="557" 
d="M67 7v776h57v-288c64 26 149 39 194 39c153 0 184 -120 184 -278c0 -168 -59 -269 -184 -269c-106 0 -203 14 -251 20zM124 44h194c111 0 127 124 127 212c0 112 -10 221 -127 221c-74 0 -111 -6 -194 -27v-406zM59 863v56c0 13 6 21 19 21h37c13 0 19 -9 19 -21v-56
c0 -13 -7 -20 -19 -20h-37c-11 0 -19 8 -19 20z" />
    <glyph glyph-name="uni1E0B.salt" horiz-adv-x="557" 
d="M56 256c0 158 31 278 184 278c45 0 130 -13 194 -39v288h57v-776c-48 -6 -145 -20 -251 -20c-125 0 -184 101 -184 269zM113 256c0 -88 16 -212 127 -212h194v406c-83 21 -120 27 -194 27c-117 0 -127 -109 -127 -221zM423 863v56c0 13 7 21 20 21h37c12 0 19 -9 19 -21
v-56c0 -13 -8 -20 -19 -20h-37c-12 0 -20 8 -20 20z" />
    <glyph glyph-name="uni1E1F.salt" horiz-adv-x="373" 
d="M67 0v630c0 54 4 156 124 156c49 0 111 -5 160 -20v-36c-1 0 -147 1 -147 1c-73 0 -80 -46 -80 -101v-108h164v-56h-164v-466h-57zM188 865v57c0 13 6 21 20 21h36c13 0 20 -9 20 -21v-57c0 -12 -8 -19 -20 -19h-36c-12 0 -20 8 -20 19z" />
    <glyph glyph-name="uni1E57.salt" horiz-adv-x="557" 
d="M67 -270v791c48 5 145 19 251 19c125 0 184 -101 184 -269c0 -158 -31 -278 -184 -278c-45 0 -130 13 -194 39v-302h-57zM124 77c83 -21 120 -27 194 -27c117 0 127 109 127 221c0 89 -16 212 -127 212h-194v-406zM246 620v56c0 13 7 21 20 21h37c12 0 19 -9 19 -21v-56
c0 -13 -8 -20 -19 -20h-37c-12 0 -20 8 -20 20z" />
    <glyph glyph-name="dcroat.salt" horiz-adv-x="559" 
d="M56 256c0 158 31 278 184 278c45 0 130 -13 194 -39v129h-131v41h131v118h57v-118h68v-41h-68v-617c-48 -6 -145 -20 -251 -20c-125 0 -184 101 -184 269zM113 256c0 -88 16 -212 127 -212h194v406c-83 21 -120 27 -194 27c-117 0 -127 -109 -127 -221z" />
    <glyph glyph-name="tbar.salt" horiz-adv-x="318" 
d="M67 190v490h57v-148h172v-57h-172v-160h121v-40h-121v-85c0 -94 27 -123 75 -132c0 0 77 -18 84 -18v-39h-83c-78 0 -133 48 -133 189z" />
    <glyph glyph-name="tcommaaccent.salt" horiz-adv-x="318" 
d="M67 190v490h57v-148h172v-57h-172v-285c0 -94 27 -123 75 -132c0 0 77 -18 84 -18v-39h-83c-78 0 -133 48 -133 189zM90 -163l46 11c36 11 50 36 49 98h50c0 -101 -20 -136 -101 -136h-44v27z" />
    <glyph glyph-name="tcaron.salt" horiz-adv-x="318" 
d="M67 190v490h57v-148h172v-57h-172v-285c0 -94 27 -123 75 -132c0 0 77 -18 84 -18v-39h-83c-78 0 -133 48 -133 189zM190 735v67h57v-67l-9 -134h-39z" />
    <glyph glyph-name="dcaron.salt" horiz-adv-x="582" 
d="M56 256c0 158 31 278 184 278c45 0 130 -13 194 -39v288h57v-776c-48 -6 -145 -20 -251 -20c-125 0 -184 101 -184 269zM113 256c0 -88 16 -212 127 -212h194v406c-83 21 -120 27 -194 27c-117 0 -127 -109 -127 -221zM548 716v67h57v-67l-8 -134h-39z" />
    <glyph glyph-name="hyphen.alt" horiz-adv-x="358" 
d="M22 332v56h314v-56h-314z" />
    <glyph glyph-name="uni00AD.alt" horiz-adv-x="358" 
d="M22 332v56h314v-56h-314z" />
    <glyph glyph-name="endash.alt" horiz-adv-x="517" 
d="M22 328v58h473v-58h-473z" />
    <glyph glyph-name="emdash.alt" horiz-adv-x="740" 
d="M22 330v58h696v-58h-696z" />
    <glyph glyph-name="hyphen.smcp" horiz-adv-x="358" 
d="M22 246v58h314v-58h-314z" />
    <glyph glyph-name="uni00AD.smcp" horiz-adv-x="358" 
d="M22 246v58h314v-58h-314z" />
    <glyph glyph-name="endash.smcp" horiz-adv-x="517" 
d="M22 244v58h473v-58h-473z" />
    <glyph glyph-name="emdash.smcp" horiz-adv-x="740" 
d="M22 248v58h696v-58h-696z" />
    <glyph glyph-name="parenleft.alt" horiz-adv-x="328" 
d="M84 336c0 274 159 534 159 534h62s-164 -262 -164 -534c0 -300 165 -536 165 -536h-63s-159 220 -159 536z" />
    <glyph glyph-name="parenright.alt" horiz-adv-x="327" 
d="M22 -200c0 0 165 236 165 536c0 272 -165 534 -165 534h63s159 -260 159 -534c0 -316 -159 -536 -159 -536h-63z" />
    <glyph glyph-name="parenleft.smcp" horiz-adv-x="288" 
d="M84 266c-2 116 53 282 118 366h60c-72 -101 -122 -256 -122 -366c0 -134 56 -274 110 -348h-62c-62 82 -104 228 -104 348z" />
    <glyph glyph-name="parenright.smcp" horiz-adv-x="288" 
d="M22 632h61c65 -84 119 -250 118 -366c-1 -120 -42 -266 -104 -348h-63c55 74 110 214 110 348c0 110 -49 265 -122 366z" />
    <glyph glyph-name="quotedblleft" unicode="&#x201c;" horiz-adv-x="362" 
d="M208 568v101c0 85 82 68 82 68v-26c-28 1 -29 -18 -29 -28v-31h11c12 0 22 -8 22 -24v-60c0 -17 -7 -25 -22 -25h-41c-17 0 -23 11 -23 25zM68 568v101c0 85 82 68 82 68v-26c-28 1 -29 -18 -29 -28v-31h10c13 0 24 -8 24 -24v-60c0 -17 -9 -25 -24 -25h-41
c-17 0 -22 11 -22 25z" />
    </font>
</defs>
</svg>
