<?xml version="1.0" standalone="no"?>
<!DOCTYPE svg PUBLIC "-//W3C//DTD SVG 1.1//EN" "http://www.w3.org/Graphics/SVG/1.1/DTD/svg11.dtd" >
<svg>
<metadata>
Created by FontForge 20110222 at Tue Sep  3 17:35:59 2013
 By Zoltan Hawryluk
Copyright (c) 2011 Natanael Gama (exo@ndiscovered.com), with Reserved Font Name "Exo"
</metadata>
<defs>
<font id="Exo-ExtraBold-Italic" horiz-adv-x="548" >
  <font-face 
    font-family="Exo"
    font-weight="800"
    font-style="italic"
    font-stretch="normal"
    units-per-em="1000"
    panose-1="2 0 8 3 0 0 0 0 0 0"
    ascent="800"
    descent="-200"
    x-height="531"
    cap-height="732"
    bbox="-61 -308.437 1407.82 998"
    underline-thickness="50"
    underline-position="-50"
    stemh="149"
    stemv="123"
    unicode-range="U+000D-FB06"
  />
<missing-glyph horiz-adv-x="758" 
d="M392 266l252 -241v481zM127 13h507l-253 243zM124 518l257 -242l254 242h-511zM114 22l256 244l-256 241v-485zM100 0v531h558v-531h-558z" />
    <glyph glyph-name="fi" unicode="fi" horiz-adv-x="606" 
d="M40 412l17 102l81 17l12 57c19 123 112 195 253 198c50 1 206 -8 245 -26l-16 -96l-187 4c-52 0 -123 -13 -139 -110l-4 -27l341 -10l-83 -521h-164l65 412h-178l-65 -412h-164l65 412h-79z" />
    <glyph glyph-name="fl" unicode="fl" horiz-adv-x="690" 
d="M78 412l16 102l82 17l9 46c28 178 133 209 252 209l299 -3l-89 -564c-12 -77 2 -89 27 -100c0 0 48 -20 53 -20l-16 -99h-98c-92 0 -157 48 -135 189l76 477c-34 0 -115 1 -115 1c-55 0 -83 -23 -95 -98l-4 -38h114l-18 -119h-115l-67 -412h-164l66 412h-78z" />
    <glyph glyph-name=".notdef" horiz-adv-x="758" 
d="M392 266l252 -241v481zM127 13h507l-253 243zM124 518l257 -242l254 242h-511zM114 22l256 244l-256 241v-485zM100 0v531h558v-531h-558z" />
    <glyph glyph-name=".notdef" horiz-adv-x="758" 
d="M392 266l252 -241v481zM127 13h507l-253 243zM124 518l257 -242l254 242h-511zM114 22l256 244l-256 241v-485zM100 0v531h558v-531h-558z" />
    <glyph glyph-name="uni000D" unicode="&#xd;" horiz-adv-x="1000" 
 />
    <glyph glyph-name="space" unicode=" " horiz-adv-x="250" 
 />
    <glyph glyph-name="exclam" unicode="!" horiz-adv-x="274" 
d="M101 197l69 534h161l-102 -534h-128zM64 23l16 102c2 15 12 25 28 25h100c16 0 22 -11 20 -25l-17 -102c-2 -15 -12 -23 -26 -23h-100c-14 0 -23 9 -21 23z" />
    <glyph glyph-name="quotedbl" unicode="&#x22;" horiz-adv-x="468" 
d="M349 531l11 134l10 67h157l-11 -67l-31 -134h-136zM153 531l9 134l11 67h157l-11 -67l-31 -134h-135z" />
    <glyph glyph-name="numbersign" unicode="#" horiz-adv-x="733" 
d="M342 314l111 -1l35 106h-112zM45 202l35 112h150l34 105h-151l36 112h155l69 201h112l-69 -201h107l69 201h112l-69 -201h170l-35 -112h-170l-35 -106h171l-34 -112h-179l-69 -201h-112l69 201l-108 1l-69 -202h-112l69 202h-146z" />
    <glyph glyph-name="dollar" unicode="$" horiz-adv-x="568" 
d="M64 24l20 126c39 -3 137 -10 230 -10c42 0 78 12 85 54l4 29c6 36 3 58 -51 58h-78c-178 0 -168 166 -160 221l9 62c21 144 119 170 229 174l14 86h95l-13 -87c70 -3 122 -15 169 -30l-20 -127c-60 5 -167 9 -217 9c-58 1 -87 -6 -96 -59l-4 -25c-6 -40 1 -60 62 -60h81
c148 0 160 -141 147 -221l-6 -42c-28 -170 -135 -190 -234 -190l-13 -82h-95l13 83c-82 3 -110 11 -171 31z" />
    <glyph glyph-name="percent" unicode="%" horiz-adv-x="965" 
d="M701 157c-4 -29 0 -45 37 -45h62c40 0 49 17 53 45l11 73c6 37 -3 45 -36 45h-63c-31 0 -47 -8 -53 -45zM588 142l18 118c13 85 53 125 157 125h101c96 0 127 -57 114 -143l-17 -118c-13 -88 -57 -122 -159 -122h-102c-92 0 -125 56 -112 140zM200 0l566 732h110
l-560 -732h-116zM218 504c-5 -29 -1 -45 35 -45h64c39 0 48 17 53 45l11 73c5 37 -4 45 -37 45h-63c-31 0 -47 -8 -52 -45zM104 493l18 118c14 84 54 121 158 121h101c95 0 127 -55 113 -142l-18 -118c-14 -86 -56 -123 -157 -123h-101c-92 0 -127 59 -114 144z" />
    <glyph glyph-name="ampersand" unicode="&#x26;" horiz-adv-x="689" 
d="M215 174c21 -33 59 -46 100 -12l53 44l-63 105l-57 -41c-50 -40 -50 -70 -33 -96zM82 85c-58 100 -34 201 72 280l89 67l-36 64c-63 108 19 220 106 233c120 19 216 -1 292 -19l-19 -120h-151c-79 0 -91 -18 -50 -89l115 -201l136 116l48 -71l-70 -122l-46 -44l103 -179
h-181l-50 88l-76 -58c-69 -54 -217 -57 -282 55z" />
    <glyph glyph-name="quotesingle" unicode="'" horiz-adv-x="238" 
d="M132 531l10 134l11 67h165l-11 -67l-31 -134h-144z" />
    <glyph glyph-name="parenleft" unicode="(" horiz-adv-x="392" 
d="M102 304c56 350 264 511 264 511h150s-202 -241 -250 -534c-53 -317 80 -536 80 -536h-148s-157 184 -96 559z" />
    <glyph glyph-name="parenright" unicode=")" horiz-adv-x="394" 
d="M-20 -255c0 0 199 223 251 535c50 298 -81 535 -81 535h148s154 -205 97 -557c-60 -374 -249 -513 -249 -513h-166z" />
    <glyph glyph-name="asterisk" unicode="*" horiz-adv-x="422" 
d="M325 571l132 80l27 -52l-114 -97zM276 721l62 20l45 -124l-88 -33zM257 463l61 75l98 -90l-44 -50zM152 417l46 137l84 -22l-74 -134zM122 566l10 62l143 22l-9 -89z" />
    <glyph glyph-name="plus" unicode="+" horiz-adv-x="471" 
d="M73 289l21 134h140l22 141h134l-22 -141h142l-21 -134h-142l-23 -141h-134l23 141h-140z" />
    <glyph glyph-name="comma" unicode="," horiz-adv-x="257" 
d="M48 -88l9 54c30 0 33 14 35 24l1 10h-11c-14 0 -24 8 -21 25l16 99c3 18 13 27 29 27h96c18 0 22 -12 20 -27l-22 -135c-18 -117 -152 -77 -152 -77z" />
    <glyph glyph-name="hyphen" unicode="-" horiz-adv-x="353" 
d="M61 223l21 134h314l-21 -134h-314z" />
    <glyph glyph-name="period" unicode="." horiz-adv-x="259" 
d="M60 23l17 102c2 15 12 25 28 25h98c18 0 24 -9 21 -25l-17 -102c-3 -18 -14 -23 -28 -23h-98c-14 0 -23 9 -21 23z" />
    <glyph glyph-name="slash" unicode="/" horiz-adv-x="477" 
d="M2 -72l414 842h169l-414 -842h-169z" />
    <glyph glyph-name="zero" unicode="0" horiz-adv-x="624" 
d="M244 215c-10 -65 28 -66 56 -66h73c41 0 66 11 75 65l49 304c7 48 -11 65 -49 65h-84c-59 0 -69 -44 -72 -65zM75 184l57 356c20 126 82 192 203 192h164c139 0 181 -90 166 -184l-57 -364c-19 -118 -78 -184 -196 -184h-164c-120 0 -192 64 -173 184z" />
    <glyph glyph-name="one" unicode="1" horiz-adv-x="374" 
d="M112 544l16 106c26 0 110 41 146 82h162l-116 -732h-164l91 570c-37 -26 -111 -26 -135 -26z" />
    <glyph glyph-name="two" unicode="2" horiz-adv-x="583" 
d="M34 0l23 143c102 62 397 267 412 365c11 66 -21 84 -105 84h-243l19 122c90 17 166 28 302 28c150 0 210 -118 190 -250c-20 -150 -224 -287 -299 -343h243l-24 -149h-518z" />
    <glyph glyph-name="three" unicode="3" horiz-adv-x="579" 
d="M29 21l20 122h238c71 0 103 7 111 59l3 22c9 60 -24 62 -85 65l-182 9l22 133l184 8c69 3 99 12 107 62l3 23c10 57 -35 61 -87 61h-251l19 121c93 31 214 30 331 28c106 -2 174 -82 156 -195l-8 -47c-12 -74 -47 -118 -102 -128c57 -18 68 -90 56 -166l-6 -37
c-19 -118 -98 -168 -220 -168c-114 0 -226 -3 -309 28z" />
    <glyph glyph-name="four" unicode="4" horiz-adv-x="627" 
d="M48 224l319 508h179l-259 -430h141l25 153l43 77h134l-37 -230h68l-20 -126l-72 -26l-23 -148h-164l22 148h-334z" />
    <glyph glyph-name="five" unicode="5" horiz-adv-x="594" 
d="M54 20l21 130h274c64 0 73 38 76 63l8 49c5 32 2 65 -48 65h-71c-34 0 -56 -16 -62 -53h-156l94 458h453l-24 -149h-293l-28 -137c26 17 55 21 74 23c32 3 74 0 91 -1c109 -7 151 -92 137 -197l-16 -113c-22 -137 -126 -162 -222 -162c-125 0 -178 1 -308 24z" />
    <glyph glyph-name="six" unicode="6" horiz-adv-x="604" 
d="M258 309c-18 -108 -12 -161 62 -161h54c33 0 56 9 63 55l8 46c8 47 2 60 -41 60h-146zM104 399c42 265 140 325 229 335c103 12 232 -2 321 -20l-20 -125h-236c-90 0 -108 -84 -121 -159c52 16 102 20 183 20c144 1 163 -98 148 -194l-16 -108
c-20 -126 -100 -149 -210 -149h-140c-116 0 -188 85 -138 400z" />
    <glyph glyph-name="seven" unicode="7" horiz-adv-x="557" 
d="M112 583l24 149h476l30 -70l-342 -662h-177l305 583h-316z" />
    <glyph glyph-name="eight" unicode="8" horiz-adv-x="620" 
d="M292 494c-7 -46 16 -54 50 -54h78c52 0 60 22 66 54l5 40c9 56 -13 62 -47 62h-76c-43 0 -62 -10 -70 -62zM245 195c-7 -41 7 -53 51 -53h76c42 0 61 17 66 53l9 57c5 33 -6 55 -46 55h-80c-43 0 -62 -20 -67 -55zM77 188l10 64c9 56 43 93 98 101
c-68 33 -65 103 -56 161l10 65c22 139 113 158 218 158h154c113 0 169 -65 150 -189l-8 -49c-4 -26 -27 -91 -95 -101c64 -15 62 -111 54 -154l-12 -82c-26 -158 -115 -162 -207 -162h-153c-184 0 -172 130 -163 188z" />
    <glyph glyph-name="nine" unicode="9" horiz-adv-x="603" 
d="M277 484c-8 -47 -3 -60 41 -60h146c17 108 10 162 -64 162h-53c-33 0 -56 -10 -63 -55zM67 20l20 124h236c90 0 109 84 122 160c-52 -17 -103 -21 -184 -21c-143 -1 -161 106 -146 201l15 94c19 126 97 156 208 156h140c120 0 188 -100 138 -414
c-42 -266 -138 -310 -227 -321c-103 -12 -229 1 -322 21z" />
    <glyph glyph-name="colon" unicode=":" horiz-adv-x="260" 
d="M121 404l16 102c2 15 12 25 28 25h98c18 0 23 -9 21 -25l-16 -102c-3 -18 -14 -23 -28 -23h-98c-14 0 -23 9 -21 23zM60 23l17 102c2 15 12 25 28 25h98c18 0 24 -9 21 -25l-17 -102c-3 -18 -14 -23 -28 -23h-98c-14 0 -23 9 -21 23z" />
    <glyph glyph-name="semicolon" unicode=";" horiz-adv-x="260" 
d="M122 404l16 102c2 16 12 26 28 26h98c18 0 24 -10 21 -26l-16 -102c-3 -18 -15 -22 -29 -22h-98c-14 0 -22 8 -20 22zM48 -88l9 54c30 0 33 14 35 24l1 10h-11c-14 0 -24 9 -21 25l16 99c3 17 13 27 29 27h96c17 0 22 -12 20 -27l-22 -135c-18 -117 -152 -77 -152 -77z
" />
    <glyph glyph-name="less" unicode="&#x3c;" horiz-adv-x="441" 
d="M77 278l24 148l397 138l-24 -148l-221 -68l199 -69l-23 -147z" />
    <glyph glyph-name="equal" unicode="=" horiz-adv-x="467" 
d="M81 391l21 134h428l-22 -134h-427zM47 174l21 134h427l-21 -134h-427z" />
    <glyph glyph-name="greater" unicode="&#x3e;" horiz-adv-x="441" 
d="M54 132l24 148l223 80l-202 58l23 146l353 -138l-23 -148z" />
    <glyph glyph-name="question" unicode="?" horiz-adv-x="543" 
d="M162 23l16 102c2 15 12 25 28 25h98c18 0 24 -9 21 -25l-17 -102c-2 -18 -14 -23 -28 -23h-98c-14 0 -22 9 -20 23zM106 590l20 122c93 20 172 32 286 27c148 0 206 -109 190 -207l-10 -79c-19 -140 -95 -182 -252 -172c0 -1 -13 -85 -13 -86h-127l32 207h105
c49 2 84 20 93 76l5 37c9 54 -19 75 -88 75h-241z" />
    <glyph glyph-name="at" unicode="@" horiz-adv-x="907" 
d="M394 269c-11 -74 -16 -149 56 -147c56 2 92 20 112 68l34 222c-37 7 -68 8 -96 8c-56 0 -90 -33 -106 -151zM46 46l75 475c26 163 123 208 273 208h360c156 0 190 -111 170 -253l-48 -316c-13 -95 -57 -157 -201 -157h-106l-24 53c-19 -26 -52 -61 -125 -60
c-122 2 -181 102 -152 292c34 222 141 258 237 258c107 0 175 -19 227 -68l-50 -348c48 0 62 8 74 90l40 271c14 95 -14 111 -78 111h-352c-94 0 -111 -60 -119 -111l-73 -459c-9 -58 1 -100 87 -100h386l-16 -99c-50 -10 -166 -27 -292 -27h-91c-185 0 -220 120 -202 240z
" />
    <glyph glyph-name="A" unicode="A" horiz-adv-x="698" 
d="M344 289h139l-33 235zM30 0l355 732h190l115 -732h-168l-26 147h-215l-69 -147h-182z" />
    <glyph glyph-name="B" unicode="B" horiz-adv-x="600" 
d="M290 450h126c41 0 67 27 73 69c9 57 -18 71 -51 71h-126zM240 142h134c41 0 70 22 80 85c8 46 -2 89 -52 89h-134zM54 0l116 732h302c153 0 198 -99 181 -213c-11 -72 -59 -131 -128 -139c62 -10 105 -83 92 -183c-24 -171 -104 -197 -258 -197h-305z" />
    <glyph glyph-name="C" unicode="C" horiz-adv-x="569" 
d="M95 391c37 233 110 349 309 349c121 0 176 -10 254 -38l-21 -128c-6 1 -109 18 -211 17c-76 0 -131 4 -167 -225c-27 -164 -10 -221 95 -223c90 -1 182 6 217 9l-20 -128c-71 -26 -137 -32 -264 -30c-185 2 -228 170 -192 397z" />
    <glyph glyph-name="D" unicode="D" horiz-adv-x="651" 
d="M240 142h128c80 0 120 79 142 222c30 186 -4 226 -78 226h-121zM54 0l116 732h305c205 0 229 -193 198 -392c-40 -263 -129 -340 -301 -340h-318z" />
    <glyph glyph-name="E" unicode="E" horiz-adv-x="558" 
d="M72 160l67 420c21 132 111 153 196 152c0 0 221 -4 307 -16l-22 -137h-264c-52 0 -57 -29 -61 -56l-12 -80l266 -11l-22 -135l-269 -9l-14 -86c-8 -53 25 -52 54 -52h255l-22 -136c-80 -10 -303 -17 -303 -17c-72 -3 -177 25 -156 163z" />
    <glyph glyph-name="F" unicode="F" horiz-adv-x="559" 
d="M50 0l89 564c21 133 111 169 198 168c0 0 220 -4 307 -16l-22 -137h-264c-51 0 -57 -29 -61 -56l-13 -83l267 -10l-21 -136l-271 -9l-45 -285h-164z" />
    <glyph glyph-name="G" unicode="G" horiz-adv-x="615" 
d="M99 399c44 233 103 341 302 341c131 0 167 -6 281 -37l-20 -125c-19 2 -131 20 -238 20c-84 0 -130 -32 -160 -231c-26 -163 -18 -221 77 -221c66 0 107 49 107 49l18 104h-79l16 103c47 20 109 24 179 24c21 0 44 0 68 -2l-68 -424h-117l-37 51
c-34 -35 -69 -53 -148 -57c-203 -9 -219 207 -181 405z" />
    <glyph glyph-name="H" unicode="H" horiz-adv-x="636" 
d="M55 0l116 732h164l-48 -304h215l48 304h164l-116 -732h-164l44 280h-215l-44 -280h-164z" />
    <glyph glyph-name="I" unicode="I" horiz-adv-x="267" 
d="M56 0l116 732h164l-116 -732h-164z" />
    <glyph glyph-name="J" unicode="J" horiz-adv-x="355" 
d="M27 24l21 129c96 -5 129 4 143 95l77 484h164l-90 -567c-8 -47 -22 -115 -77 -147c-58 -34 -191 -28 -238 6z" />
    <glyph glyph-name="K" unicode="K" horiz-adv-x="638" 
d="M54 0l116 732h156l-47 -298h44l215 298h198l-270 -380l154 -352h-186l-117 292h-60l-46 -292h-157z" />
    <glyph glyph-name="L" unicode="L" horiz-adv-x="527" 
d="M76 148l93 584h164l-84 -531c-8 -53 25 -52 54 -52h231l-24 -149h-299c-85 0 -152 40 -135 148z" />
    <glyph glyph-name="M" unicode="M" horiz-adv-x="837" 
d="M41 0l187 732h226l23 -460l167 460h231l-43 -732h-161l28 449l-166 -449h-189l-26 449l-112 -449h-165z" />
    <glyph glyph-name="N" unicode="N" horiz-adv-x="672" 
d="M54 0l116 732h165l182 -433l68 433h164l-116 -732h-163l-184 425l-67 -425h-165z" />
    <glyph glyph-name="O" unicode="O" horiz-adv-x="666" 
d="M263 361c-28 -179 -11 -216 99 -216c100 0 141 37 169 216c32 202 1 227 -98 227s-137 -18 -170 -227zM99 380c54 343 185 357 355 357c173 0 294 -55 241 -395c-50 -323 -175 -346 -353 -346c-176 0 -296 51 -243 384z" />
    <glyph glyph-name="P" unicode="P" horiz-adv-x="598" 
d="M279 402h127c42 0 68 26 79 97c11 70 -13 91 -49 91h-127zM52 0l116 732h306c96 0 207 -53 176 -253c-35 -233 -164 -224 -251 -219c-40 3 -134 17 -139 20l-44 -280h-164z" />
    <glyph glyph-name="Q" unicode="Q" horiz-adv-x="667" 
d="M287 -33h90c11 -57 94 -45 156 -31l-20 -125c-114 -21 -243 18 -226 156zM264 361c-28 -179 -12 -216 100 -216c100 0 140 37 168 216c32 202 2 227 -98 227c-99 0 -137 -18 -170 -227zM100 384c54 342 185 353 355 353c173 0 294 -59 241 -399
c-50 -322 -175 -340 -353 -342c-176 0 -296 54 -243 388z" />
    <glyph glyph-name="R" unicode="R" horiz-adv-x="601" 
d="M281 407h123c52 0 72 28 81 94c8 66 -4 89 -50 89h-125zM52 0l116 732h308c119 0 200 -72 174 -250s-109 -193 -147 -199l103 -283h-186l-81 275l-79 7l-44 -282h-164z" />
    <glyph glyph-name="S" unicode="S" horiz-adv-x="582" 
d="M68 24l20 128c40 -5 154 -11 247 -11c43 0 78 9 85 53l4 29c6 36 1 58 -51 58h-87c-183 0 -178 151 -170 205l10 80c22 148 119 171 230 172c124 2 216 -8 282 -31l-20 -128c-60 5 -184 10 -234 10c-59 1 -86 -3 -95 -59l-4 -25c-8 -50 8 -60 61 -60h91
c145 0 163 -122 152 -202l-4 -65c-11 -178 -149 -186 -243 -186c-128 0 -194 4 -274 32z" />
    <glyph glyph-name="T" unicode="T" horiz-adv-x="592" 
d="M116 583l24 149h553l-24 -149h-198l-92 -583h-164l92 583h-191z" />
    <glyph glyph-name="U" unicode="U" horiz-adv-x="653" 
d="M104 338l63 394h165l-66 -416c-19 -118 -11 -172 90 -172c99 0 125 60 142 172l66 416h165l-62 -439c-44 -278 -182 -298 -333 -298c-144 0 -279 38 -230 343z" />
    <glyph glyph-name="V" unicode="V" horiz-adv-x="691" 
d="M135 732h173l58 -524l232 524h182l-348 -732h-194z" />
    <glyph glyph-name="W" unicode="W" horiz-adv-x="1013" 
d="M135 732h172l60 -516l209 516h174l-81 -184l48 -333l213 517h173l-317 -732h-188l-42 274l-118 -274h-200z" />
    <glyph glyph-name="X" unicode="X" horiz-adv-x="659" 
d="M30 0l269 378l-155 354h180l88 -228l160 228h184l-275 -386l152 -346h-181l-84 220l-154 -220h-184z" />
    <glyph glyph-name="Y" unicode="Y" horiz-adv-x="666" 
d="M135 732h178l68 -338l188 338h186l-318 -517l-35 -215h-164l35 215z" />
    <glyph glyph-name="Z" unicode="Z" horiz-adv-x="555" 
d="M24 0l24 149l378 434h-310l24 149h508l-24 -149l-364 -434h296l-24 -149h-508z" />
    <glyph glyph-name="bracketleft" unicode="[" horiz-adv-x="339" 
d="M57 -24l106 650c20 121 74 171 217 171h80l-22 -134h-42c-38 0 -64 -17 -74 -79l-101 -622c-11 -66 6 -83 47 -83h46l-21 -134h-92c-147 0 -160 137 -144 231z" />
    <glyph glyph-name="backslash" unicode="\" horiz-adv-x="470" 
d="M134 770h165l148 -842h-165z" />
    <glyph glyph-name="bracketright" unicode="]" horiz-adv-x="334" 
d="M-20 -255l21 134h43c38 0 64 17 75 79l98 622c11 66 -8 83 -49 83h-42l21 134h83c135 0 168 -105 152 -219l-96 -662c-14 -94 -54 -171 -211 -171h-95z" />
    <glyph glyph-name="asciicircum" unicode="^" horiz-adv-x="381" 
d="M118 531l126 138h116l72 -138h-100l-37 58l-57 -58h-120z" />
    <glyph glyph-name="underscore" unicode="_" horiz-adv-x="673" 
d="M26 -1l22 134h634l-22 -134h-634z" />
    <glyph glyph-name="grave" unicode="`" horiz-adv-x="245" 
d="M119 672h131l66 -141h-98z" />
    <glyph glyph-name="a" unicode="a" horiz-adv-x="544" 
d="M234 279c-13 -87 -13 -150 44 -150c50 0 77 19 96 51l34 227c-22 9 -58 13 -83 7c-38 -8 -74 -22 -91 -135zM74 304c44 220 164 234 263 237c79 2 195 -13 246 -62l-70 -477h-128l-25 52c-26 -38 -93 -60 -152 -60c-100 0 -176 98 -134 310z" />
    <glyph glyph-name="b" unicode="b" horiz-adv-x="557" 
d="M230 158c18 -18 50 -28 94 -28c40 0 62 27 80 140c18 116 8 146 -36 146c-38 0 -73 -5 -100 -18zM40 0l124 785h164l-44 -279c47 21 107 33 152 33c147 0 158 -135 131 -306c-29 -175 -86 -241 -216 -239c-61 1 -107 28 -138 58l-35 -52h-138z" />
    <glyph glyph-name="c" unicode="c" horiz-adv-x="490" 
d="M75 288c35 220 117 252 217 252c52 0 170 -7 246 -34l-16 -99s-79 7 -168 7c-66 0 -92 -4 -116 -150c-21 -129 0 -143 70 -143c92 0 178 9 178 9l-16 -100c-76 -30 -141 -37 -261 -35c-100 1 -168 87 -134 293z" />
    <glyph glyph-name="d" unicode="d" horiz-adv-x="549" 
d="M240 270c-18 -112 -2 -140 36 -140c43 0 78 10 102 28l38 240c-22 13 -57 18 -95 18c-36 0 -61 -20 -81 -146zM74 293c26 149 71 246 217 246c45 0 103 -12 143 -33l44 279h164l-125 -785h-137l-20 52c-40 -30 -91 -58 -152 -58c-125 0 -163 134 -134 299z" />
    <glyph glyph-name="e" unicode="e" horiz-adv-x="528" 
d="M244 307c0 0 134 -28 149 55c7 42 -14 53 -58 52c-71 -1 -81 -50 -91 -107zM76 308c30 163 76 232 271 233c110 1 220 -29 214 -153c-11 -250 -293 -202 -330 -187c-11 -66 9 -81 80 -81c53 -1 149 8 205 18l-20 -116c-78 -24 -165 -38 -286 -29
c-128 8 -170 121 -134 315z" />
    <glyph glyph-name="f" unicode="f" horiz-adv-x="405" 
d="M78 412l16 102l82 17l13 83c21 130 81 172 200 172c47 0 93 -8 124 -24l-15 -96c-1 0 -83 1 -83 1c-55 1 -57 -23 -69 -98l-6 -38h114l-18 -119h-115l-67 -412h-164l66 412h-78z" />
    <glyph glyph-name="g" unicode="g" horiz-adv-x="558" 
d="M242 285c-16 -101 -23 -159 44 -159c34 0 55 4 87 20l44 276h-81c-70 0 -85 -80 -94 -137zM13 -248l17 109h213c51 0 90 31 100 95l13 84c-36 -27 -77 -38 -122 -38c-155 0 -186 118 -157 302c29 183 116 238 238 238c106 0 232 -16 282 -33l-91 -575
c-23 -141 -100 -223 -262 -206z" />
    <glyph glyph-name="h" unicode="h" horiz-adv-x="552" 
d="M40 0l124 782h164l-49 -306c43 31 89 64 170 64c130 0 143 -86 126 -192l-55 -348h-164l55 350c7 48 -7 64 -37 64c-48 0 -78 -13 -110 -42l-60 -372h-164z" />
    <glyph glyph-name="i" unicode="i" horiz-adv-x="237" 
d="M130 607l15 101c2 15 12 25 28 25h125c15 0 20 -11 18 -25l-15 -101c-2 -15 -13 -23 -27 -23h-124c-14 0 -22 9 -20 23zM37 0l84 531h164l-84 -531h-164z" />
    <glyph glyph-name="j" unicode="j" horiz-adv-x="253" 
d="M137 607l16 101c2 15 12 25 28 25h125c15 0 21 -11 19 -25l-16 -101c-2 -15 -13 -23 -27 -23h-124c-14 0 -23 9 -21 23zM2 -270l128 801h164l-86 -535c-12 -86 -30 -184 -82 -266h-124z" />
    <glyph glyph-name="k" unicode="k" horiz-adv-x="545" 
d="M40 0l124 782h164l-69 -436c74 29 149 95 177 185h172c-38 -140 -121 -210 -180 -243l148 -288h-180l-116 235l-38 -1l-38 -234h-164z" />
    <glyph glyph-name="l" unicode="l" horiz-adv-x="314" 
d="M68 189l94 594h164l-89 -564c-12 -77 2 -89 27 -100c0 0 47 -20 52 -20l-15 -99h-98c-95 0 -157 51 -135 189z" />
    <glyph glyph-name="m" unicode="m" horiz-adv-x="867" 
d="M40 0l84 531h135l21 -55c48 34 86 63 167 63c67 0 107 -26 122 -67c51 32 113 67 195 67c124 0 143 -83 126 -193l-56 -346h-164l56 350c8 46 -9 63 -37 63c-46 0 -81 -9 -111 -37c-1 -6 -4 -23 -5 -30l-55 -346h-164l55 350c7 46 -9 63 -37 63c-48 0 -76 -13 -109 -42
l-59 -371h-164z" />
    <glyph glyph-name="n" unicode="n" horiz-adv-x="552" 
d="M40 0l84 531h135l21 -55c45 32 88 64 169 64c130 0 143 -86 126 -192l-55 -348h-164l55 350c7 48 -8 64 -37 64c-48 0 -78 -13 -110 -42l-60 -372h-164z" />
    <glyph glyph-name="o" unicode="o" horiz-adv-x="555" 
d="M237 258c-20 -122 -4 -136 60 -136c67 0 82 9 103 136c20 129 14 154 -58 154s-84 -22 -105 -154zM73 277c34 217 107 261 289 261c181 0 234 -94 202 -299c-32 -197 -98 -244 -285 -244c-183 0 -236 92 -206 282z" />
    <glyph glyph-name="p" unicode="p" horiz-adv-x="556" 
d="M226 134c19 -15 50 -23 83 -20c52 3 74 32 94 158c14 82 11 145 -48 145h-82zM-2 -270l125 776c64 19 187 30 286 30c135 0 185 -115 157 -294c-26 -178 -90 -252 -239 -252c-45 0 -90 11 -117 39l-48 -299h-164z" />
    <glyph glyph-name="q" unicode="q" horiz-adv-x="553" 
d="M240 273c-17 -112 -21 -159 45 -159c33 0 55 4 87 20l44 287h-82c-68 0 -84 -87 -94 -148zM75 290c31 192 115 250 241 250c106 0 229 -15 278 -33l-122 -777h-164l47 299c-37 -28 -78 -39 -123 -39c-153 0 -186 117 -157 300z" />
    <glyph glyph-name="r" unicode="r" horiz-adv-x="414" 
d="M40 0l84 531h142l12 -67c34 36 87 72 147 72c21 0 39 0 53 -6l-25 -157c-15 1 -47 1 -77 1c-50 0 -94 -5 -122 -59l-50 -315h-164z" />
    <glyph glyph-name="s" unicode="s" horiz-adv-x="509" 
d="M53 26l15 100h242c13 0 29 3 33 26l3 17c3 18 -2 27 -25 27h-108c-94 0 -149 60 -133 162l8 47c14 83 59 132 162 132c120 0 254 0 286 -31l-16 -100h-232c-26 0 -35 -9 -38 -28l-2 -17c-6 -29 12 -26 28 -26h113c106 0 137 -77 125 -155l-10 -60
c-16 -110 -90 -126 -152 -126c-120 0 -268 0 -299 32z" />
    <glyph glyph-name="t" unicode="t" horiz-adv-x="375" 
d="M71 413l13 86l87 33l49 148h138l-23 -148h105l-18 -119h-106l-31 -193c-12 -78 1 -90 26 -102c0 0 48 -20 53 -20l-15 -99h-107c-84 0 -147 53 -125 191l35 223h-81z" />
    <glyph glyph-name="u" unicode="u" horiz-adv-x="551" 
d="M62 184l56 347h164l-56 -351c-8 -50 8 -62 37 -62c48 0 78 12 111 42l58 371h164l-84 -531h-135l-20 54c-48 -38 -88 -63 -169 -63c-130 0 -143 85 -126 193z" />
    <glyph glyph-name="v" unicode="v" horiz-adv-x="542" 
d="M80 531h174l40 -351l106 229c12 27 28 65 34 123h154c12 -66 -14 -135 -36 -178l-181 -354h-199z" />
    <glyph glyph-name="w" unicode="w" horiz-adv-x="839" 
d="M80 531h173l40 -350l105 227c13 27 29 65 34 124h154c8 -46 -1 -93 -17 -134l-11 -28l34 -188l107 227c13 27 29 65 34 123h153c13 -66 -13 -135 -36 -178l-185 -354h-185l-31 176l-81 -176h-196z" />
    <glyph glyph-name="x" unicode="x" horiz-adv-x="590" 
d="M16 0l223 277l-139 254h196l59 -143l105 143h198l-224 -284l134 -247h-190l-60 136l-102 -136h-200z" />
    <glyph glyph-name="y" unicode="y" horiz-adv-x="568" 
d="M80 531h170l22 -356c3 -35 33 -38 45 -39l113 273c11 27 20 65 26 123h154c13 -66 -9 -134 -29 -180l-153 -352c-113 -258 -268 -284 -338 -295v115c92 46 137 107 174 180c-94 0 -142 52 -150 144z" />
    <glyph glyph-name="z" unicode="z" horiz-adv-x="480" 
d="M35 1l21 133l260 263h-232l20 134h441l-20 -134l-248 -262h205c1 -1 -21 -134 -21 -134h-426z" />
    <glyph glyph-name="braceleft" unicode="{" horiz-adv-x="320" 
d="M56 231l19 120c33 2 69 9 75 50l38 233c18 119 97 163 252 163l-20 -134c-49 0 -68 -22 -82 -112l-25 -161c-11 -68 -55 -94 -116 -100c59 -12 92 -46 83 -99l-34 -211c-12 -77 -4 -110 48 -108l-20 -127c-168 0 -215 86 -196 205l36 226c6 36 -18 58 -58 55z" />
    <glyph glyph-name="bar" unicode="|" horiz-adv-x="248" 
d="M46 -72l132 842h134l-132 -842h-134z" />
    <glyph glyph-name="braceright" unicode="}" horiz-adv-x="320" 
d="M-20 -255l20 127c52 -1 69 30 80 101l34 208c8 55 52 87 114 99c-60 5 -94 34 -83 100l25 164c16 96 5 120 -44 119l21 134c159 0 206 -99 187 -215l-24 -190c-4 -38 25 -54 60 -55l-20 -119c-38 2 -68 -13 -74 -51l-43 -254c-22 -128 -88 -168 -253 -168z" />
    <glyph glyph-name="asciitilde" unicode="~" horiz-adv-x="411" 
d="M126 592c35 35 78 72 134 72c44 0 60 -35 100 -35c40 -1 73 19 100 40l14 -66c-28 -31 -73 -72 -124 -72c-44 0 -70 35 -109 35s-63 -14 -99 -35z" />
    <glyph glyph-name="exclamdown" unicode="&#xa1;" horiz-adv-x="278" 
d="M119 338l16 100c2 14 14 22 28 23h97c12 -1 22 -12 20 -26l-15 -97c-2 -12 -9 -25 -25 -26h-102c-12 0 -21 9 -19 26zM14 -270l103 534h129l-68 -534h-164z" />
    <glyph glyph-name="cent" unicode="&#xa2;" horiz-adv-x="484" 
d="M68 288c36 221 117 250 221 248l16 98h96l-16 -100c46 -5 99 -14 146 -32l-16 -98s-79 6 -167 6c-66 0 -92 0 -117 -146c-21 -129 0 -143 70 -143c92 0 178 9 178 9l-16 -100c-53 -28 -111 -35 -167 -36l-14 -89h-96l15 90c-100 1 -166 89 -133 293z" />
    <glyph glyph-name="sterling" unicode="&#xa3;" horiz-adv-x="578" 
d="M34 0l20 126l68 23l25 159h-65l14 82l68 24l13 84c36 225 139 234 303 234c56 0 178 -16 178 -16l-21 -132h-185c-76 0 -100 -11 -112 -92l-12 -78l200 -16l-14 -90h-203l-25 -159h282l-24 -149h-510z" />
    <glyph glyph-name="currency" unicode="&#xa4;" horiz-adv-x="443" 
d="M198 310c-7 -41 21 -74 61 -74c45 0 78 32 85 73c8 40 -19 75 -62 75c-43 -1 -77 -34 -84 -74zM66 181l56 49c-10 24 -15 50 -10 80c4 28 14 55 30 77l-42 47l60 54l40 -46c28 17 60 28 93 28c32 0 61 -10 84 -26l54 47l48 -51l-58 -51c10 -23 13 -52 9 -81
c-6 -34 -20 -67 -43 -93l40 -45l-59 -56l-46 52c-22 -11 -49 -17 -75 -17c-31 0 -59 10 -81 26l-54 -48z" />
    <glyph glyph-name="yen" unicode="&#xa5;" horiz-adv-x="646" 
d="M124 134l14 89h128l4 31h-127l15 90h79l-109 388h178l66 -326l181 326h195l-251 -388h88l-15 -90h-136l-4 -31h135l-14 -89h-135l-20 -134h-164l20 134h-128z" />
    <glyph glyph-name="brokenbar" unicode="&#xa6;" horiz-adv-x="249" 
d="M124 429l54 341h134l-54 -341h-134zM46 -72l52 328h134l-52 -328h-134z" />
    <glyph glyph-name="section" unicode="&#xa7;" horiz-adv-x="536" 
d="M259 371c-5 -33 9 -37 35 -37h52c38 0 45 10 49 38c1 1 5 29 5 29c4 24 4 39 -37 39h-52c-38 0 -43 -14 -47 -41zM75 11l18 115h227c25 0 37 5 41 27l4 27c3 21 -5 28 -31 28h-103c-94 0 -157 44 -142 138l4 24c6 36 13 86 86 108c-58 32 -53 95 -48 127l5 40
c12 97 73 139 169 139c86 0 222 -5 279 -19l-18 -115h-229c-25 0 -35 -10 -39 -30l-3 -22c-3 -17 4 -31 30 -31h102c106 0 157 -47 144 -133l-4 -24c-6 -37 -21 -90 -83 -108c54 -10 52 -86 47 -119l-7 -51c-20 -123 -90 -140 -164 -140c-95 0 -234 4 -285 19z" />
    <glyph glyph-name="dieresis" unicode="&#xa8;" horiz-adv-x="444" 
d="M380 582c6 34 38 61 72 61s58 -27 52 -61s-38 -62 -72 -62s-57 28 -52 62zM126 582c5 34 37 61 71 61s57 -27 52 -61s-37 -62 -71 -62s-58 28 -52 62z" />
    <glyph glyph-name="copyright" unicode="&#xa9;" horiz-adv-x="794" 
d="M277 378c27 165 90 205 178 205c41 0 127 -5 181 -24l-12 -82c-62 9 -120 12 -154 12c-54 0 -77 -29 -92 -127c-14 -84 5 -121 58 -121c63 0 119 9 159 16l-13 -82c-58 -25 -122 -28 -189 -28c-79 0 -143 59 -116 231zM195 368c-25 -155 6 -274 120 -274h209
c87 0 160 70 192 274c18 120 33 270 -98 270h-217c-89 0 -171 -48 -206 -270zM94 383c30 191 101 349 320 349h216c200 0 218 -194 187 -386c-39 -243 -146 -346 -297 -346h-215c-193 0 -242 190 -211 383z" />
    <glyph glyph-name="ordfeminine" unicode="&#xaa;" horiz-adv-x="362" 
d="M203 562c-9 -56 -7 -91 29 -91c32 0 59 13 72 36l19 132c-15 7 -47 9 -63 5c-23 -6 -48 -17 -57 -82zM92 577c30 148 114 155 178 157c52 1 139 -10 173 -42l-47 -319h-84l-18 45c-18 -33 -70 -50 -109 -50c-63 0 -122 71 -93 209zM61 260l11 74h327l-11 -74h-327z" />
    <glyph glyph-name="guillemotleft" unicode="&#xab;" horiz-adv-x="586" 
d="M314 354l238 203l73 -85l-149 -127l111 -129l-95 -70zM90 354l238 203l72 -85l-148 -127l111 -129l-95 -70z" />
    <glyph glyph-name="logicalnot" unicode="&#xac;" horiz-adv-x="481" 
d="M64 234l20 126h427c-9 -57 -23 -144 -32 -201h-127l12 75h-300z" />
    <glyph glyph-name="uni00AD" unicode="&#xad;" horiz-adv-x="353" 
d="M55 223l21 134h314l-21 -134h-314z" />
    <glyph glyph-name="registered" unicode="&#xae;" horiz-adv-x="794" 
d="M404 394h60c52 0 57 6 64 50c6 39 -10 42 -50 42h-59zM265 153l68 427h184c63 0 129 -26 113 -137c-13 -89 -48 -116 -93 -129l60 -161h-109l-56 155l-39 12l-27 -167h-101zM195 368c-25 -155 6 -274 120 -274h209c87 0 160 70 192 274c18 120 33 270 -98 270h-217
c-89 0 -171 -48 -206 -270zM94 383c30 191 101 349 320 349h216c200 0 218 -194 187 -386c-39 -243 -146 -346 -297 -346h-215c-193 0 -242 190 -211 383z" />
    <glyph glyph-name="macron" unicode="&#xaf;" horiz-adv-x="359" 
d="M118 531l13 85h292l-13 -85h-292z" />
    <glyph glyph-name="degree" unicode="&#xb0;" horiz-adv-x="267" 
d="M193 632c-2 -22 16 -40 38 -40c23 0 41 18 42 40c2 22 -14 41 -37 41c-22 0 -42 -19 -43 -41zM132 632c3 57 52 100 108 100s98 -43 94 -100c-3 -57 -50 -98 -106 -98s-100 41 -96 98z" />
    <glyph glyph-name="plusminus" unicode="&#xb1;" horiz-adv-x="491" 
d="M99 380l21 134h140l22 140h134l-22 -140h142l-21 -134h-142l-23 -142h-134l23 142h-140zM48 64l21 134h416l-21 -134h-416z" />
    <glyph glyph-name="twosuperior" unicode="&#xb2;" horiz-adv-x="403" 
d="M64 355l18 109c63 38 252 158 261 219c7 41 -14 49 -69 49h-154l16 94c60 12 109 20 202 20c104 0 145 -82 133 -160c-16 -103 -125 -182 -171 -217h135l-18 -114h-353z" />
    <glyph glyph-name="threesuperior" unicode="&#xb3;" horiz-adv-x="408" 
d="M66 371l16 93h154c48 0 68 5 72 34l1 9c5 29 -17 34 -57 36l-117 4l16 101l119 5c46 2 65 7 69 33l1 9c5 28 -19 33 -58 33h-163l14 92c64 22 144 23 224 21c77 -1 122 -57 110 -131l-5 -28c-8 -49 -32 -80 -73 -87c42 -13 51 -61 43 -109l-4 -22
c-12 -78 -64 -114 -153 -114c-79 0 -153 -2 -209 21z" />
    <glyph glyph-name="acute" unicode="&#xb4;" horiz-adv-x="243" 
d="M97 531l107 141h133l-141 -141h-99z" />
    <glyph glyph-name="uni00B5" unicode="&#xb5;" horiz-adv-x="585" 
d="M18 -270l72 454l55 347h164l-56 -351c-8 -48 8 -62 37 -62c48 0 78 12 111 42l59 371h164l-84 -531h-135l-21 54c-38 -21 -69 -43 -110 -52c-17 -4 -33 -4 -50 -2l-42 -270h-164z" />
    <glyph glyph-name="paragraph" unicode="&#xb6;" horiz-adv-x="575" 
d="M219 514c-7 -46 16 -48 43 -48h48l24 155h-46c-46 0 -54 -13 -61 -55zM105 516l14 92c16 100 89 124 179 124h380l-18 -114h-47l-98 -618h-111l98 620h-56l-141 -890h-111l101 642c-6 -2 -24 -17 -57 -17c-113 0 -144 87 -133 161z" />
    <glyph glyph-name="periodcentered" unicode="&#xb7;" horiz-adv-x="259" 
d="M109 334l17 102c2 16 12 26 28 26h98c18 0 24 -10 21 -26l-17 -102c-3 -18 -14 -22 -28 -22h-98c-14 0 -23 8 -21 22z" />
    <glyph glyph-name="cedilla" unicode="&#xb8;" horiz-adv-x="241" 
d="M6 -180l11 68l43 15c30 12 32 22 38 60h105c-16 -102 -50 -143 -139 -143h-58z" />
    <glyph glyph-name="onesuperior" unicode="&#xb9;" horiz-adv-x="280" 
d="M108 696l12 86c20 0 87 30 111 58h123l-77 -485h-125l58 360c-25 -20 -83 -19 -102 -19z" />
    <glyph glyph-name="ordmasculine" unicode="&#xba;" horiz-adv-x="385" 
d="M229 549c-12 -73 -1 -79 41 -80c44 0 53 3 65 80c13 80 11 89 -39 89s-55 -10 -67 -89zM112 561c23 143 76 173 198 173c120 0 164 -57 142 -198c-21 -130 -68 -163 -197 -163c-122 0 -163 62 -143 188zM75 261l11 73h328l-11 -73h-328z" />
    <glyph glyph-name="guillemotright" unicode="&#xbb;" horiz-adv-x="584" 
d="M295 233l151 132l-104 117l90 75l175 -204l-235 -207zM70 233l150 132l-103 117l90 75l175 -204l-236 -207z" />
    <glyph glyph-name="onequarter" unicode="&#xbc;" horiz-adv-x="991" 
d="M577 144l212 339h133l-168 -277h91l15 96l31 50h97l-23 -146h45l-16 -97l-49 -19l-12 -89h-120l13 88h-227zM199 0l513 770h121l-513 -770h-121zM108 596l12 86c20 0 87 30 111 58h123l-77 -485h-125l58 360c-25 -20 -83 -19 -102 -19z" />
    <glyph glyph-name="onehalf" unicode="&#xbd;" horiz-adv-x="1026" 
d="M648 -1l17 109c63 38 251 158 261 219c7 41 -13 49 -68 49h-154l14 94c62 12 110 20 203 20c104 0 145 -82 133 -160c-16 -103 -125 -182 -172 -217h136l-18 -114h-352zM196 0l512 770h122l-514 -770h-120zM108 596l12 86c20 0 87 30 111 58h123l-77 -485h-125l58 360
c-25 -20 -83 -19 -102 -19z" />
    <glyph glyph-name="threequarters" unicode="&#xbe;" horiz-adv-x="1102" 
d="M668 144l212 339h133l-169 -277h91l15 96l31 50h98l-23 -146h44l-15 -97l-50 -19l-11 -89h-121l14 88h-228zM300 0l513 770h121l-513 -770h-121zM66 271l16 93h154c48 0 68 5 72 34l1 9c5 29 -17 34 -57 36l-117 4l16 101l119 5c46 2 65 7 69 33l1 9c5 28 -19 33 -58 33
h-163l14 92c64 22 144 23 224 21c77 -1 122 -57 110 -131l-5 -28c-8 -49 -32 -80 -73 -87c42 -13 51 -61 43 -109l-4 -22c-12 -78 -64 -114 -153 -114c-79 0 -153 -2 -209 21z" />
    <glyph glyph-name="questiondown" unicode="&#xbf;" horiz-adv-x="541" 
d="M293 346l16 102c3 18 14 23 28 23h99c14 0 22 -9 20 -23l-16 -102c-2 -15 -12 -25 -28 -25h-98c-18 0 -24 10 -21 25zM15 -51l10 63c21 140 95 188 251 178c0 1 14 85 14 86h128l-33 -207c-15 1 -90 1 -105 0c-49 -2 -84 -20 -92 -76l-6 -37c-9 -54 20 -75 88 -75h241
l-19 -121c-94 -21 -173 -33 -287 -28c-148 0 -206 119 -190 217z" />
    <glyph glyph-name="Agrave" unicode="&#xc0;" horiz-adv-x="698" 
d="M342 938h131l67 -141h-99zM344 289h139l-33 235zM30 0l355 732h190l115 -732h-168l-26 147h-215l-69 -147h-182z" />
    <glyph glyph-name="Aacute" unicode="&#xc1;" horiz-adv-x="698" 
d="M441 797l107 141h132l-140 -141h-99zM344 289h139l-33 235zM30 0l355 732h190l115 -732h-168l-26 147h-215l-69 -147h-182z" />
    <glyph glyph-name="Acircumflex" unicode="&#xc2;" horiz-adv-x="698" 
d="M333 797l126 137h116l73 -137h-100l-37 59l-66 -59h-112zM344 289h139l-33 235zM30 0l355 732h190l115 -732h-168l-26 147h-215l-69 -147h-182z" />
    <glyph glyph-name="Atilde" unicode="&#xc3;" horiz-adv-x="698" 
d="M328 858c34 35 81 71 133 71c45 -1 63 -35 100 -35c36 -2 79 20 100 39l14 -66c-31 -32 -75 -70 -124 -70c-47 1 -70 35 -108 35c-41 0 -65 -14 -100 -35zM344 289h139l-33 235zM30 0l355 732h190l115 -732h-168l-26 147h-215l-69 -147h-182z" />
    <glyph glyph-name="Adieresis" unicode="&#xc4;" horiz-adv-x="698" 
d="M567 859c5 34 37 61 71 61s58 -27 52 -61c-5 -34 -37 -62 -71 -62s-58 28 -52 62zM312 859c5 34 37 61 71 61s58 -27 52 -61c-5 -34 -37 -62 -71 -62s-58 28 -52 62zM344 289h139l-33 235zM30 0l355 732h190l115 -732h-168l-26 147h-215l-69 -147h-182z" />
    <glyph glyph-name="Aring" unicode="&#xc5;" horiz-adv-x="698" 
d="M452 831c-2 -22 14 -39 36 -39c21 0 39 17 41 39c2 21 -13 39 -35 39c-21 0 -40 -18 -42 -39zM389 831c5 57 53 100 109 100s99 -43 94 -100c-4 -50 -41 -90 -87 -99h70l115 -732h-168l-26 147h-215l-69 -147h-182l355 732h79c-46 9 -79 49 -75 99zM344 289h139l-33 235z
" />
    <glyph glyph-name="AE" unicode="&#xc6;" horiz-adv-x="1050" 
d="M413 324h93l32 198zM20 0l367 565c104 160 231 172 355 167c0 0 222 -4 307 -16l-21 -137h-265c-51 0 -56 -28 -61 -55l-13 -85l267 -11l-21 -135l-271 -9l-13 -83c-8 -53 25 -52 54 -52h255l-22 -135c-79 -11 -300 -18 -300 -18c-70 -4 -181 19 -164 127l10 60h-161
l-120 -183h-183z" />
    <glyph glyph-name="Ccedilla" unicode="&#xc7;" horiz-adv-x="569" 
d="M171 -180l11 69l43 15c31 11 33 22 39 60h105c-16 -102 -51 -144 -139 -144h-59zM95 391c37 233 110 349 309 349c121 0 176 -10 254 -38l-21 -128c-6 1 -109 18 -211 17c-76 0 -131 4 -167 -225c-26 -164 -10 -221 95 -223c90 -1 182 6 217 9l-20 -128
c-71 -26 -137 -32 -264 -30c-185 2 -228 170 -192 397z" />
    <glyph glyph-name="Egrave" unicode="&#xc8;" horiz-adv-x="558" 
d="M273 932h131l66 -140h-98zM72 160l67 420c21 132 111 153 196 152c0 0 221 -4 307 -16l-22 -137h-264c-52 0 -57 -29 -61 -56l-12 -80l266 -11l-22 -135l-269 -9l-14 -86c-8 -53 25 -52 54 -52h255l-22 -136c-80 -10 -303 -17 -303 -17c-72 -3 -177 25 -156 163z" />
    <glyph glyph-name="Eacute" unicode="&#xc9;" horiz-adv-x="558" 
d="M376 792l106 140h133l-141 -140h-98zM72 160l67 420c21 132 111 153 196 152c0 0 221 -4 307 -16l-22 -137h-264c-52 0 -57 -29 -61 -56l-12 -80l266 -11l-22 -135l-269 -9l-14 -86c-8 -53 25 -52 54 -52h255l-22 -136c-80 -10 -303 -17 -303 -17
c-72 -3 -177 25 -156 163z" />
    <glyph glyph-name="Ecircumflex" unicode="&#xca;" horiz-adv-x="558" 
d="M272 792l126 138h116l72 -138h-100l-37 58l-57 -58h-120zM72 160l67 420c21 132 111 153 196 152c0 0 221 -4 307 -16l-22 -137h-264c-52 0 -57 -29 -61 -56l-12 -80l266 -11l-22 -135l-269 -9l-14 -86c-8 -53 25 -52 54 -52h255l-22 -136c-80 -10 -303 -17 -303 -17
c-72 -3 -177 25 -156 163z" />
    <glyph glyph-name="Edieresis" unicode="&#xcb;" horiz-adv-x="558" 
d="M492 843c5 34 38 61 72 61s57 -27 51 -61c-5 -34 -37 -62 -71 -62s-58 28 -52 62zM237 843c5 34 37 61 71 61s58 -27 52 -61c-5 -34 -37 -62 -71 -62s-58 28 -52 62zM72 160l67 420c21 132 111 153 196 152c0 0 221 -4 307 -16l-22 -137h-264c-52 0 -57 -29 -61 -56
l-12 -80l266 -11l-22 -135l-269 -9l-14 -86c-8 -53 25 -52 54 -52h255l-22 -136c-80 -10 -303 -17 -303 -17c-72 -3 -177 25 -156 163z" />
    <glyph glyph-name="Igrave" unicode="&#xcc;" horiz-adv-x="267" 
d="M117 938h130l67 -141h-99zM56 0l116 732h164l-116 -732h-164z" />
    <glyph glyph-name="Iacute" unicode="&#xcd;" horiz-adv-x="267" 
d="M215 797l107 141h133l-141 -141h-99zM56 0l116 732h164l-116 -732h-164z" />
    <glyph glyph-name="Icircumflex" unicode="&#xce;" horiz-adv-x="267" 
d="M107 797l126 137h116l73 -137h-100l-37 59l-66 -59h-112zM56 0l116 732h164l-116 -732h-164z" />
    <glyph glyph-name="Idieresis" unicode="&#xcf;" horiz-adv-x="267" 
d="M340 859c6 34 38 61 72 61s57 -27 52 -61c-6 -34 -38 -62 -72 -62s-57 28 -52 62zM85 859c6 34 38 61 72 61s57 -27 52 -61c-6 -34 -38 -62 -72 -62s-57 28 -52 62zM56 0l116 732h164l-116 -732h-164z" />
    <glyph glyph-name="Eth" unicode="&#xd0;" horiz-adv-x="647" 
d="M240 142h132c75 0 114 79 137 222c30 186 0 226 -67 226h-131l-29 -182h102l-12 -70h-101zM42 338l11 70h65l52 324h310c206 0 224 -206 193 -392c-40 -245 -121 -340 -294 -340h-325l53 338h-65z" />
    <glyph glyph-name="Ntilde" unicode="&#xd1;" horiz-adv-x="672" 
d="M305 856c34 36 81 72 133 72c46 -1 63 -35 100 -35c36 -2 79 20 100 39l14 -66c-31 -32 -75 -70 -124 -70c-46 0 -70 35 -108 35c-40 -1 -65 -14 -100 -35zM54 0l116 732h165l182 -433l68 433h164l-116 -732h-163l-184 425l-67 -425h-165z" />
    <glyph glyph-name="Ograve" unicode="&#xd2;" horiz-adv-x="666" 
d="M316 938h130l67 -141h-99zM263 361c-28 -179 -11 -216 99 -216c100 0 141 37 169 216c32 202 1 227 -98 227s-137 -18 -170 -227zM99 380c54 343 185 357 355 357c173 0 294 -55 241 -395c-50 -323 -175 -346 -353 -346c-176 0 -296 51 -243 384z" />
    <glyph glyph-name="Oacute" unicode="&#xd3;" horiz-adv-x="666" 
d="M414 797l107 141h133l-141 -141h-99zM263 361c-28 -179 -11 -216 99 -216c100 0 141 37 169 216c32 202 1 227 -98 227s-137 -18 -170 -227zM99 380c54 343 185 357 355 357c173 0 294 -55 241 -395c-50 -323 -175 -346 -353 -346c-176 0 -296 51 -243 384z" />
    <glyph glyph-name="Ocircumflex" unicode="&#xd4;" horiz-adv-x="666" 
d="M307 797l126 137h116l72 -137h-99l-38 59l-66 -59h-111zM263 361c-28 -179 -11 -216 99 -216c100 0 141 37 169 216c32 202 1 227 -98 227s-137 -18 -170 -227zM99 380c54 343 185 357 355 357c173 0 294 -55 241 -395c-50 -323 -175 -346 -353 -346
c-176 0 -296 51 -243 384z" />
    <glyph glyph-name="Otilde" unicode="&#xd5;" horiz-adv-x="666" 
d="M300 858c35 35 81 71 133 71c46 -1 63 -35 100 -35c36 -2 79 20 100 39l15 -66c-31 -32 -76 -70 -125 -70c-46 1 -70 35 -108 35c-40 0 -65 -14 -99 -35zM263 361c-28 -179 -11 -216 99 -216c100 0 141 37 169 216c32 202 1 227 -98 227s-137 -18 -170 -227zM99 380
c54 343 185 357 355 357c173 0 294 -55 241 -395c-50 -323 -175 -346 -353 -346c-176 0 -296 51 -243 384z" />
    <glyph glyph-name="Odieresis" unicode="&#xd6;" horiz-adv-x="666" 
d="M540 859c5 34 38 61 72 61s57 -27 51 -61c-5 -34 -37 -62 -71 -62s-58 28 -52 62zM285 859c5 34 38 61 72 61s57 -27 51 -61c-5 -34 -37 -62 -71 -62s-58 28 -52 62zM263 361c-28 -179 -11 -216 99 -216c100 0 141 37 169 216c32 202 1 227 -98 227s-137 -18 -170 -227z
M99 380c54 343 185 357 355 357c173 0 294 -55 241 -395c-50 -323 -175 -346 -353 -346c-176 0 -296 51 -243 384z" />
    <glyph glyph-name="multiply" unicode="&#xd7;" horiz-adv-x="462" 
d="M78 256l114 100l-82 99l103 91l83 -99l123 104l79 -95l-124 -106l84 -100l-102 -84l-81 95l-115 -103z" />
    <glyph glyph-name="Oslash" unicode="&#xd8;" horiz-adv-x="666" 
d="M266 177c16 -25 46 -32 96 -32c100 0 139 37 168 216c10 63 13 107 9 139zM262 361c-8 -46 -10 -79 -8 -105l264 312c-18 17 -48 20 -86 20c-100 0 -138 -18 -170 -227zM33 0l77 89c-26 54 -34 161 -12 295c54 342 186 353 355 353c72 0 135 -7 179 -38l28 33h80l-66 -77
c33 -55 43 -168 20 -317c-51 -322 -176 -342 -354 -342c-79 0 -147 6 -193 44l-34 -40h-80z" />
    <glyph glyph-name="Ugrave" unicode="&#xd9;" horiz-adv-x="653" 
d="M310 938h131l67 -141h-99zM104 338l63 394h165l-66 -416c-19 -118 -11 -172 90 -172c99 0 125 60 142 172l66 416h165l-62 -439c-44 -278 -182 -298 -333 -298c-144 0 -279 38 -230 343z" />
    <glyph glyph-name="Uacute" unicode="&#xda;" horiz-adv-x="653" 
d="M409 797l107 141h132l-140 -141h-99zM104 338l63 394h165l-66 -416c-19 -118 -11 -172 90 -172c99 0 125 60 142 172l66 416h165l-62 -439c-44 -278 -182 -298 -333 -298c-144 0 -279 38 -230 343z" />
    <glyph glyph-name="Ucircumflex" unicode="&#xdb;" horiz-adv-x="653" 
d="M301 797l126 137h116l73 -137h-100l-37 59l-66 -59h-112zM104 338l63 394h165l-66 -416c-19 -118 -11 -172 90 -172c99 0 125 60 142 172l66 416h165l-62 -439c-44 -278 -182 -298 -333 -298c-144 0 -279 38 -230 343z" />
    <glyph glyph-name="Udieresis" unicode="&#xdc;" horiz-adv-x="653" 
d="M535 859c5 34 38 61 72 61s57 -27 51 -61c-5 -34 -37 -62 -71 -62s-58 28 -52 62zM280 859c5 34 38 61 72 61s57 -27 51 -61c-5 -34 -37 -62 -71 -62s-58 28 -52 62zM104 338l63 394h165l-66 -416c-19 -118 -11 -172 90 -172c99 0 125 60 142 172l66 416h165l-62 -439
c-44 -278 -182 -298 -333 -298c-144 0 -279 38 -230 343z" />
    <glyph glyph-name="Yacute" unicode="&#xdd;" horiz-adv-x="666" 
d="M406 797l107 141h132l-140 -141h-99zM135 732h178l68 -338l188 338h186l-318 -517l-35 -215h-164l35 215z" />
    <glyph glyph-name="Thorn" unicode="&#xde;" horiz-adv-x="542" 
d="M251 292h69c54 0 72 7 84 81c10 71 -22 73 -60 73h-69zM40 0c38 243 78 486 116 729h164l-22 -141h129c75 0 169 -44 142 -223c-30 -205 -133 -213 -210 -215c-45 -1 -82 -2 -127 20l-28 -170h-164z" />
    <glyph glyph-name="germandbls" unicode="&#xdf;" horiz-adv-x="573" 
d="M40 0l90 566c18 116 97 216 280 216c284 0 262 -231 145 -352c-35 -35 -74 -42 -80 -81c-9 -57 131 -59 112 -179l-4 -25c-19 -125 -109 -153 -197 -153c-68 0 -102 10 -136 19l18 113c33 -3 63 -6 90 -6c28 0 58 13 64 53l3 14c10 65 -124 53 -107 165
c10 67 38 93 98 134c34 27 46 52 50 78c9 62 -20 74 -70 74c-68 0 -96 -33 -113 -138l-79 -498h-164z" />
    <glyph glyph-name="agrave" unicode="&#xe0;" horiz-adv-x="544" 
d="M204 742h130l67 -141h-99zM234 279c-13 -87 -13 -150 44 -150c50 0 77 19 96 51l34 227c-22 9 -58 13 -83 7c-38 -8 -74 -22 -91 -135zM74 304c44 220 164 234 263 237c79 2 195 -13 246 -62l-70 -477h-128l-25 52c-26 -38 -93 -60 -152 -60c-100 0 -176 98 -134 310z
" />
    <glyph glyph-name="aacute" unicode="&#xe1;" horiz-adv-x="544" 
d="M303 601l107 141h132l-140 -141h-99zM234 279c-13 -87 -13 -150 44 -150c50 0 77 19 96 51l34 227c-22 9 -58 13 -83 7c-38 -8 -74 -22 -91 -135zM74 304c44 220 164 234 263 237c79 2 195 -13 246 -62l-70 -477h-128l-25 52c-26 -38 -93 -60 -152 -60
c-100 0 -176 98 -134 310z" />
    <glyph glyph-name="acircumflex" unicode="&#xe2;" horiz-adv-x="544" 
d="M193 601l126 138h116l73 -138h-100l-37 59l-66 -59h-112zM234 279c-13 -87 -13 -150 44 -150c50 0 77 19 96 51l34 227c-22 9 -58 13 -83 7c-38 -8 -74 -22 -91 -135zM74 304c44 220 164 234 263 237c79 2 195 -13 246 -62l-70 -477h-128l-25 52
c-26 -38 -93 -60 -152 -60c-100 0 -176 98 -134 310z" />
    <glyph glyph-name="atilde" unicode="&#xe3;" horiz-adv-x="544" 
d="M192 662c35 35 81 71 134 71c45 0 63 -34 100 -34c36 -2 79 20 100 38l14 -66c-31 -31 -75 -70 -125 -69c-46 0 -69 35 -108 34c-40 0 -65 -13 -99 -35zM234 279c-13 -87 -13 -150 44 -150c50 0 77 19 96 51l34 227c-22 9 -58 13 -83 7c-38 -8 -74 -22 -91 -135zM74 304
c44 220 164 234 263 237c79 2 195 -13 246 -62l-70 -477h-128l-25 52c-26 -38 -93 -60 -152 -60c-100 0 -176 98 -134 310z" />
    <glyph glyph-name="adieresis" unicode="&#xe4;" horiz-adv-x="544" 
d="M430 664c5 34 37 61 71 61s58 -27 52 -61c-5 -34 -37 -63 -71 -63s-58 29 -52 63zM175 664c5 34 37 61 71 61s58 -27 52 -61c-5 -34 -37 -63 -71 -63s-58 29 -52 63zM234 279c-13 -87 -13 -150 44 -150c50 0 77 19 96 51l34 227c-22 9 -58 13 -83 7
c-38 -8 -74 -22 -91 -135zM74 304c44 220 164 234 263 237c79 2 195 -13 246 -62l-70 -477h-128l-25 52c-26 -38 -93 -60 -152 -60c-100 0 -176 98 -134 310z" />
    <glyph glyph-name="aring" unicode="&#xe5;" horiz-adv-x="544" 
d="M330 702c-2 -22 14 -38 36 -38c21 0 39 16 41 38s-13 39 -35 39c-21 0 -40 -17 -42 -39zM267 702c5 57 54 101 110 101s98 -44 93 -101s-52 -101 -108 -101s-100 44 -95 101zM234 279c-13 -87 -13 -150 44 -150c50 0 77 19 96 51l34 227c-22 9 -58 13 -83 7
c-38 -8 -74 -22 -91 -135zM74 304c44 220 164 234 263 237c79 2 195 -13 246 -62l-70 -477h-128l-25 52c-26 -38 -93 -60 -152 -60c-100 0 -176 98 -134 310z" />
    <glyph glyph-name="ae" unicode="&#xe6;" horiz-adv-x="830" 
d="M532 307c0 0 134 -28 149 55c8 42 -15 53 -59 52c-71 -1 -80 -50 -90 -107zM217 277c-13 -87 -16 -149 43 -149c39 0 77 12 92 33c-3 41 1 91 11 147c7 38 16 72 28 99c-24 9 -61 12 -84 7c-38 -8 -73 -24 -90 -137zM56 307c46 224 155 231 254 234c52 2 128 -6 177 -26
c36 17 73 25 137 26c110 1 231 -29 225 -153c-11 -250 -293 -202 -330 -187c-10 -66 9 -81 81 -81c53 -1 141 8 197 18l-20 -116c-79 -24 -158 -38 -279 -29c-56 4 -96 27 -119 69c-44 -56 -136 -69 -188 -69c-101 0 -177 107 -135 314z" />
    <glyph glyph-name="ccedilla" unicode="&#xe7;" horiz-adv-x="491" 
d="M122 -181l10 68l44 15c30 12 33 22 39 60h104c-16 -102 -49 -143 -139 -143h-58zM75 288c36 220 117 248 217 248c52 0 157 0 246 -34l-16 -98s-78 6 -167 6c-66 0 -92 0 -117 -146c-21 -129 0 -143 70 -143c92 0 178 9 178 9l-16 -100c-83 -45 -178 -35 -260 -35
c-100 0 -168 87 -135 293z" />
    <glyph glyph-name="egrave" unicode="&#xe8;" horiz-adv-x="528" 
d="M211 742h130l67 -141h-99zM244 307c0 0 134 -28 149 55c7 42 -14 53 -58 52c-71 -1 -81 -50 -91 -107zM76 308c30 163 76 232 271 233c110 1 220 -29 214 -153c-11 -250 -293 -202 -330 -187c-11 -66 9 -81 80 -81c53 -1 149 8 205 18l-20 -116
c-78 -24 -165 -38 -286 -29c-128 8 -170 121 -134 315z" />
    <glyph glyph-name="eacute" unicode="&#xe9;" horiz-adv-x="528" 
d="M309 601l107 141h133l-141 -141h-99zM244 307c0 0 134 -28 149 55c7 42 -14 53 -58 52c-71 -1 -81 -50 -91 -107zM76 308c30 163 76 232 271 233c110 1 220 -29 214 -153c-11 -250 -293 -202 -330 -187c-11 -66 9 -81 80 -81c53 -1 149 8 205 18l-20 -116
c-78 -24 -165 -38 -286 -29c-128 8 -170 121 -134 315z" />
    <glyph glyph-name="ecircumflex" unicode="&#xea;" horiz-adv-x="528" 
d="M202 601l126 137h116l72 -137h-99l-38 59l-66 -59h-111zM244 307c0 0 134 -28 149 55c7 42 -14 53 -58 52c-71 -1 -81 -50 -91 -107zM76 308c30 163 76 232 271 233c110 1 220 -29 214 -153c-11 -250 -293 -202 -330 -187c-11 -66 9 -81 80 -81c53 -1 149 8 205 18
l-20 -116c-78 -24 -165 -38 -286 -29c-128 8 -170 121 -134 315z" />
    <glyph glyph-name="edieresis" unicode="&#xeb;" horiz-adv-x="528" 
d="M434 663c6 34 38 61 72 61s57 -27 52 -61c-6 -34 -38 -62 -72 -62s-57 28 -52 62zM179 663c6 34 38 61 72 61s57 -27 52 -61c-6 -34 -38 -62 -72 -62s-57 28 -52 62zM244 307c0 0 134 -28 149 55c7 42 -14 53 -58 52c-71 -1 -81 -50 -91 -107zM76 308
c30 163 76 232 271 233c110 1 220 -29 214 -153c-11 -250 -293 -202 -330 -187c-11 -66 9 -81 80 -81c53 -1 149 8 205 18l-20 -116c-78 -24 -165 -38 -286 -29c-128 8 -170 121 -134 315z" />
    <glyph glyph-name="igrave" unicode="&#xec;" horiz-adv-x="237" 
d="M57 739h130l67 -141h-99zM30 0l84 531h164l-84 -531h-164z" />
    <glyph glyph-name="iacute" unicode="&#xed;" horiz-adv-x="237" 
d="M155 598l107 141h132l-140 -141h-99zM30 0l84 531h164l-84 -531h-164z" />
    <glyph glyph-name="icircumflex" unicode="&#xee;" horiz-adv-x="237" 
d="M47 598l126 138h116l73 -138h-100l-37 59l-66 -59h-112zM30 0l84 531h164l-84 -531h-164z" />
    <glyph glyph-name="idieresis" unicode="&#xef;" horiz-adv-x="237" 
d="M279 660c6 34 38 62 72 62s57 -28 52 -62c-6 -34 -38 -62 -72 -62s-57 28 -52 62zM24 660c6 34 38 62 72 62s57 -28 52 -62c-6 -34 -38 -62 -72 -62s-57 28 -52 62zM30 0l84 531h164l-84 -531h-164z" />
    <glyph glyph-name="eth" unicode="&#xf0;" horiz-adv-x="540" 
d="M231 262c-15 -94 -7 -112 39 -112h47c43 0 58 12 74 112c17 104 13 120 -38 120h-45c-42 0 -61 -20 -77 -120zM67 280c28 174 97 251 231 251h41c6 0 59 0 77 -7c-5 34 -18 62 -38 84l-111 -52l-21 56l63 30c-34 9 -77 10 -123 8l22 133c123 0 206 -21 264 -61l88 42
l22 -57l-64 -29c72 -94 63 -271 37 -438c-31 -193 -117 -240 -231 -240h-110c-136 0 -174 112 -147 280z" />
    <glyph glyph-name="ntilde" unicode="&#xf1;" horiz-adv-x="552" 
d="M210 660c34 36 81 72 133 72c46 -1 63 -34 100 -35c36 -1 79 21 100 39l14 -66c-31 -32 -75 -70 -124 -70c-46 0 -70 35 -108 35c-40 0 -65 -13 -99 -35zM40 0l84 531h135l21 -55c45 32 88 64 169 64c130 0 143 -86 126 -192l-55 -348h-164l55 350c7 48 -8 64 -37 64
c-48 0 -78 -13 -110 -42l-60 -372h-164z" />
    <glyph glyph-name="ograve" unicode="&#xf2;" horiz-adv-x="555" 
d="M215 739h131l67 -141h-99zM237 258c-20 -122 -4 -136 60 -136c67 0 82 9 103 136c20 129 14 154 -58 154s-84 -22 -105 -154zM73 277c34 217 107 261 289 261c181 0 234 -94 202 -299c-32 -197 -98 -244 -285 -244c-183 0 -236 92 -206 282z" />
    <glyph glyph-name="oacute" unicode="&#xf3;" horiz-adv-x="555" 
d="M318 598l107 141h133l-141 -141h-99zM237 258c-20 -122 -4 -136 60 -136c67 0 82 9 103 136c20 129 14 154 -58 154s-84 -22 -105 -154zM73 277c34 217 107 261 289 261c181 0 234 -94 202 -299c-32 -197 -98 -244 -285 -244c-183 0 -236 92 -206 282z" />
    <glyph glyph-name="ocircumflex" unicode="&#xf4;" horiz-adv-x="555" 
d="M203 598l126 138h116l73 -138h-100l-37 59l-66 -59h-112zM237 258c-20 -122 -4 -136 60 -136c67 0 82 9 103 136c20 129 14 154 -58 154s-84 -22 -105 -154zM73 277c34 217 107 261 289 261c181 0 234 -94 202 -299c-32 -197 -98 -244 -285 -244c-183 0 -236 92 -206 282
z" />
    <glyph glyph-name="otilde" unicode="&#xf5;" horiz-adv-x="555" 
d="M200 659c35 35 81 71 134 71c45 0 63 -34 100 -34c36 -2 79 20 100 38l14 -66c-31 -32 -75 -70 -125 -70c-46 1 -69 36 -108 35c-40 0 -65 -13 -99 -35zM237 258c-20 -122 -4 -136 60 -136c67 0 82 9 103 136c20 129 14 154 -58 154s-84 -22 -105 -154zM73 277
c34 217 107 261 289 261c181 0 234 -94 202 -299c-32 -197 -98 -244 -285 -244c-183 0 -236 92 -206 282z" />
    <glyph glyph-name="odieresis" unicode="&#xf6;" horiz-adv-x="555" 
d="M442 660c5 34 37 62 71 62s58 -28 52 -62c-5 -34 -37 -62 -71 -62s-58 28 -52 62zM187 660c5 34 37 62 71 62s58 -28 52 -62c-5 -34 -37 -62 -71 -62s-58 28 -52 62zM237 258c-20 -122 -4 -136 60 -136c67 0 82 9 103 136c20 129 14 154 -58 154s-84 -22 -105 -154z
M73 277c34 217 107 261 289 261c181 0 234 -94 202 -299c-32 -197 -98 -244 -285 -244c-183 0 -236 92 -206 282z" />
    <glyph glyph-name="divide" unicode="&#xf7;" horiz-adv-x="490" 
d="M252 480l12 72c2 14 12 24 28 24h82c17 0 23 -9 20 -24l-11 -72c-3 -17 -14 -23 -28 -23h-83c-14 0 -22 9 -20 23zM199 148l12 72c2 14 12 24 28 24h83c17 0 23 -9 20 -24l-12 -72c-3 -17 -14 -23 -28 -23h-82c-14 0 -23 9 -21 23zM78 286l21 134h425l-22 -134h-424z" />
    <glyph glyph-name="oslash" unicode="&#xf8;" horiz-adv-x="556" 
d="M239 142c9 -18 29 -20 59 -20c68 0 81 9 103 136c4 26 5 44 3 56zM238 221l162 170c-9 15 -27 19 -56 19c-73 0 -84 -20 -106 -152c-2 -17 -3 -29 0 -37zM19 0l68 70c-23 42 -26 121 -13 205c34 217 108 261 289 261c66 0 115 -10 149 -31l26 26h80l-66 -69
c25 -44 28 -128 13 -222c-31 -197 -98 -245 -285 -245c-68 0 -119 11 -154 33l-28 -28h-79z" />
    <glyph glyph-name="ugrave" unicode="&#xf9;" horiz-adv-x="551" 
d="M219 739h131l67 -141h-99zM62 184l56 347h164l-56 -351c-8 -50 8 -62 37 -62c48 0 78 12 111 42l58 371h164l-84 -531h-135l-20 54c-48 -38 -88 -63 -169 -63c-130 0 -143 85 -126 193z" />
    <glyph glyph-name="uacute" unicode="&#xfa;" horiz-adv-x="551" 
d="M318 598l107 141h132l-140 -141h-99zM62 184l56 347h164l-56 -351c-8 -50 8 -62 37 -62c48 0 78 12 111 42l58 371h164l-84 -531h-135l-20 54c-48 -38 -88 -63 -169 -63c-130 0 -143 85 -126 193z" />
    <glyph glyph-name="ucircumflex" unicode="&#xfb;" horiz-adv-x="551" 
d="M211 598l126 138h116l72 -138h-99l-38 59l-66 -59h-111zM62 184l56 347h164l-56 -351c-8 -50 8 -62 37 -62c48 0 78 12 111 42l58 371h164l-84 -531h-135l-20 54c-48 -38 -88 -63 -169 -63c-130 0 -143 85 -126 193z" />
    <glyph glyph-name="udieresis" unicode="&#xfc;" horiz-adv-x="551" 
d="M443 660c6 34 38 62 72 62s57 -28 52 -62c-6 -34 -38 -62 -72 -62s-57 28 -52 62zM188 660c6 34 38 62 72 62s57 -28 52 -62c-6 -34 -38 -62 -72 -62s-57 28 -52 62zM62 184l56 347h164l-56 -351c-8 -50 8 -62 37 -62c48 0 78 12 111 42l58 371h164l-84 -531h-135l-20 54
c-48 -38 -88 -63 -169 -63c-130 0 -143 85 -126 193z" />
    <glyph glyph-name="yacute" unicode="&#xfd;" horiz-adv-x="568" 
d="M314 595l107 140h133l-141 -140h-99zM80 531h170l22 -356c3 -35 33 -38 45 -39l113 273c11 27 20 65 26 123h154c13 -66 -9 -134 -29 -180l-153 -352c-113 -258 -268 -284 -338 -295v115c92 46 137 107 174 180c-94 0 -142 52 -150 144z" />
    <glyph glyph-name="thorn" unicode="&#xfe;" horiz-adv-x="556" 
d="M232 126c25 -14 60 -16 92 -17c36 0 64 20 84 147c16 112 0 142 -37 140c-40 0 -75 -10 -102 -29zM4 -270l168 1052h164l-50 -308c40 30 96 58 157 58c119 0 157 -116 129 -288c-24 -151 -64 -258 -216 -258c-45 0 -103 12 -141 36l-47 -292h-164z" />
    <glyph glyph-name="ydieresis" unicode="&#xff;" horiz-adv-x="568" 
d="M442 642c5 34 37 61 71 61s57 -27 52 -61s-37 -62 -71 -62s-58 28 -52 62zM186 642c6 34 38 61 72 61s58 -27 52 -61s-38 -62 -72 -62s-57 28 -52 62zM80 531h170l22 -356c3 -35 33 -38 45 -39l113 273c11 27 20 65 26 123h154c13 -66 -9 -134 -29 -180l-153 -352
c-113 -258 -268 -284 -338 -295v115c92 46 137 107 174 180c-94 0 -142 52 -150 144z" />
    <glyph glyph-name="bullet" unicode="&#x2022;" horiz-adv-x="307" 
d="M107 315l20 132c3 21 17 35 39 35h126c26 0 32 -13 30 -35l-21 -132c-4 -24 -21 -32 -41 -32h-126c-20 0 -30 12 -27 32z" />
    <glyph glyph-name="quoteleft" unicode="&#x2018;" horiz-adv-x="254" 
d="M133 499l22 145c20 125 158 94 158 94l-10 -63c-31 0 -35 -21 -37 -32l-3 -18h11c15 0 25 -8 22 -26l-16 -100c-3 -19 -14 -28 -30 -28h-98c-18 0 -22 13 -19 28z" />
    <glyph glyph-name="quoteright" unicode="&#x2019;" horiz-adv-x="254" 
d="M134 474l10 64c30 -1 34 21 36 31l4 18h-12c-14 0 -24 9 -21 26l16 100c3 19 13 28 29 28h98c18 0 22 -13 20 -28l-23 -145c-20 -124 -157 -94 -157 -94z" />
    <glyph glyph-name="quotesinglbase" unicode="&#x201a;" horiz-adv-x="254" 
d="M41 -113l9 63c31 0 35 21 37 32l3 18h-11c-14 0 -24 8 -21 26l16 100c3 18 13 28 30 28h97c18 0 23 -13 20 -28l-23 -145c-20 -125 -157 -94 -157 -94z" />
    <glyph glyph-name="quotedblleft" unicode="&#x201c;" horiz-adv-x="427" 
d="M311 498l23 144c20 125 157 94 157 94l-10 -63c-31 1 -35 -21 -37 -31l-2 -19h11c14 0 25 -8 21 -25l-15 -100c-3 -19 -15 -28 -31 -28h-97c-19 0 -22 12 -20 28zM128 498l22 144c20 125 158 94 158 94l-10 -63c-31 1 -35 -21 -37 -31l-3 -19h12c14 0 24 -8 21 -25
l-15 -100c-4 -19 -15 -28 -31 -28h-97c-19 0 -22 12 -20 28z" />
    <glyph glyph-name="quotedblright" unicode="&#x201d;" horiz-adv-x="427" 
d="M312 473l10 63c30 0 34 21 36 32l4 18h-12c-14 0 -24 8 -21 26l16 100c3 18 13 28 30 28h97c18 0 23 -13 20 -28l-23 -145c-20 -125 -157 -94 -157 -94zM129 473l9 63c31 0 35 21 37 32l3 18h-11c-14 0 -24 8 -21 26l16 100c3 18 13 28 30 28h97c18 0 23 -13 20 -28
l-23 -145c-20 -125 -157 -94 -157 -94z" />
    <glyph glyph-name="quotedblbase" unicode="&#x201e;" horiz-adv-x="426" 
d="M219 -113l10 63c31 0 35 22 37 32l3 18h-11c-15 0 -25 8 -22 26l16 100c3 18 13 28 30 28h97c19 0 23 -13 21 -28l-24 -145c-20 -125 -157 -94 -157 -94zM36 -113l10 63c30 0 34 22 36 32l4 18h-12c-14 0 -24 8 -21 26l16 100c3 18 13 28 29 28h98c18 0 22 -13 20 -28
l-23 -145c-20 -125 -157 -94 -157 -94z" />
    <glyph glyph-name="zerosuperior" unicode="&#x2070;" horiz-adv-x="434" 
d="M190 508c-6 -36 12 -39 36 -39h48c28 0 43 5 48 38l33 180c5 29 -5 38 -32 38h-56c-35 0 -41 -15 -45 -38zM60 478l37 233c13 85 59 128 145 128h118c98 0 131 -57 120 -123l-37 -238c-14 -83 -55 -123 -138 -123h-119c-80 0 -139 40 -126 123z" />
    <glyph glyph-name="foursuperior" unicode="&#x2074;" horiz-adv-x="470" 
d="M98 500l211 339h133l-168 -277h91l15 96l31 50h98l-23 -146h44l-15 -97l-50 -19l-12 -89h-121l15 88h-227z" />
    <glyph glyph-name="fivesuperior" unicode="&#x2075;" horiz-adv-x="415" 
d="M74 369l15 99h185c36 0 46 8 48 34l4 25c2 19 1 36 -32 36h-49c-22 0 -33 -9 -37 -29h-107l63 305h316l-19 -114h-199l-14 -70c31 21 72 18 105 16c91 -6 105 -80 98 -135l-11 -74c-9 -94 -82 -110 -150 -110c-86 0 -127 0 -216 17z" />
    <glyph glyph-name="sixsuperior" unicode="&#x2076;" horiz-adv-x="408" 
d="M204 560c-7 -48 -6 -91 42 -91h38c25 0 36 7 39 29l5 30c4 25 0 32 -27 32h-97zM87 620c29 182 89 215 152 222c73 9 171 -1 240 -14l-15 -95h-168c-64 0 -70 -47 -78 -89c35 12 69 16 124 16c99 0 120 -67 109 -133l-11 -69c-13 -85 -68 -103 -149 -103h-87
c-82 0 -150 59 -117 265z" />
    <glyph glyph-name="sevensuperior" unicode="&#x2077;" horiz-adv-x="440" 
d="M106 726l18 114h362l24 -52l-252 -433h-136l216 371h-232z" />
    <glyph glyph-name="eightsuperior" unicode="&#x2078;" horiz-adv-x="431" 
d="M270 684c-4 -26 8 -31 30 -31h54c34 0 38 13 41 31l3 19c5 30 -10 33 -31 33h-52c-25 0 -37 -4 -42 -33zM239 492c-3 -22 3 -29 33 -29h53c29 0 37 9 39 29l5 28c3 19 -3 31 -29 31h-56c-29 0 -37 -10 -40 -31zM111 480l6 40c6 37 30 60 69 66c-48 24 -47 70 -41 108
l7 44c15 93 81 105 154 105h113c78 0 121 -43 108 -124l-5 -32c-3 -17 -18 -59 -68 -66c47 -11 46 -75 41 -104l-8 -53c-16 -105 -77 -109 -146 -109h-113c-123 0 -124 80 -117 125z" />
    <glyph glyph-name="ninesuperior" unicode="&#x2079;" horiz-adv-x="443" 
d="M254 678c-4 -26 -1 -33 25 -33h97c8 51 6 88 -42 88h-38c-25 0 -34 -8 -38 -32zM100 363l15 96h168c64 0 71 48 79 93c-34 -12 -69 -15 -124 -15c-99 -1 -118 72 -108 140l9 60c13 86 67 111 148 109l94 -1c85 0 145 -68 111 -279c-30 -186 -88 -209 -152 -217
c-73 -9 -175 1 -240 14z" />
    <glyph glyph-name="zeroinferior" unicode="&#x2080;" horiz-adv-x="457" 
d="M220 -48c-6 -36 13 -39 36 -39h48c28 0 44 5 49 38l32 180c5 29 -5 38 -32 38h-56c-35 0 -41 -15 -45 -38zM91 -78l36 233c14 85 60 128 145 128h118c98 0 131 -57 120 -123l-37 -238c-13 -83 -55 -123 -138 -123h-118c-81 0 -140 40 -126 123z" />
    <glyph glyph-name="oneinferior" unicode="&#x2081;" horiz-adv-x="284" 
d="M26 140l13 86c20 0 86 30 110 58h123l-76 -485h-126l59 360c-25 -20 -84 -19 -103 -19z" />
    <glyph glyph-name="twoinferior" unicode="&#x2082;" horiz-adv-x="442" 
d="M36 -201l17 109c63 38 251 158 261 219c7 41 -14 49 -69 49h-154l15 94c62 12 110 20 203 20c104 0 145 -82 133 -160c-16 -103 -125 -182 -172 -217h136l-18 -114h-352z" />
    <glyph glyph-name="threeinferior" unicode="&#x2083;" horiz-adv-x="398" 
d="M-7 -185l15 93h154c49 0 68 5 72 34l2 9c4 29 -16 34 -58 36l-116 4l16 101l119 5c45 2 65 7 69 33l1 9c5 28 -19 33 -59 33h-162l14 92c64 22 144 23 224 21c77 -1 122 -57 110 -131l-4 -28c-8 -49 -33 -80 -74 -87c42 -13 50 -61 43 -109l-4 -22
c-13 -78 -64 -114 -153 -114c-79 0 -152 -2 -209 21z" />
    <glyph glyph-name="fourinferior" unicode="&#x2084;" horiz-adv-x="437" 
d="M-5 -56l211 339h134l-168 -277h90l16 96l30 50h98l-23 -146h45l-16 -97l-50 -19l-12 -89h-120l14 88h-227z" />
    <glyph glyph-name="fiveinferior" unicode="&#x2085;" horiz-adv-x="414" 
d="M2 -187l15 99h185c36 0 46 8 48 34l4 25c2 19 1 36 -32 36h-49c-22 0 -33 -9 -37 -29h-107l63 305h316l-19 -114h-199l-14 -70c31 21 72 18 105 16c91 -6 105 -80 98 -135l-11 -74c-9 -94 -82 -110 -150 -110c-86 0 -127 0 -216 17z" />
    <glyph glyph-name="sixinferior" unicode="&#x2086;" horiz-adv-x="408" 
d="M132 4c-7 -48 -6 -91 42 -91h38c25 0 36 7 39 29l5 30c4 25 0 32 -27 32h-97zM15 64c29 182 89 215 152 222c73 9 173 -1 240 -14l-15 -95h-168c-64 0 -70 -47 -78 -89c35 12 69 16 124 16c99 0 120 -67 109 -133l-11 -69c-13 -85 -68 -103 -149 -103h-87
c-82 0 -150 59 -117 265z" />
    <glyph glyph-name="seveninferior" unicode="&#x2087;" horiz-adv-x="440" 
d="M34 170l18 114h362l24 -52l-252 -433h-136l216 371h-232z" />
    <glyph glyph-name="eightinferior" unicode="&#x2088;" horiz-adv-x="431" 
d="M198 128c-4 -26 8 -31 30 -31h54c34 0 38 13 41 31l3 19c5 30 -10 33 -31 33h-52c-25 0 -37 -4 -42 -33zM167 -64c-3 -22 3 -29 33 -29h53c29 0 37 9 39 29l5 28c3 19 -3 31 -29 31h-56c-29 0 -37 -10 -40 -31zM39 -76l6 40c6 37 30 60 69 66c-48 24 -47 70 -41 108l7 44
c15 93 81 105 154 105h113c78 0 121 -43 108 -124l-5 -32c-3 -17 -18 -59 -68 -66c47 -11 46 -75 41 -104l-8 -53c-16 -105 -77 -109 -146 -109h-113c-123 0 -124 80 -117 125z" />
    <glyph glyph-name="nineinferior" unicode="&#x2089;" horiz-adv-x="442" 
d="M182 122c-4 -26 -1 -33 25 -33h97c8 51 6 88 -42 88h-38c-25 0 -34 -8 -38 -32zM28 -193l15 96h168c64 0 71 48 79 93c-34 -12 -69 -15 -124 -15c-99 -1 -118 72 -108 140l9 60c13 86 67 111 148 109l94 -1c85 0 145 -68 111 -279c-30 -186 -88 -209 -152 -217
c-73 -9 -177 1 -240 14z" />
    <glyph glyph-name="zero.oldstyle" horiz-adv-x="610" 
d="M244 215c-10 -65 28 -66 56 -66h73c41 0 67 11 76 65l33 204c7 48 -10 65 -49 65h-83c-57 0 -70 -44 -74 -65zM75 184l41 256c20 126 83 192 204 192h164c154 0 182 -90 167 -184l-43 -264c-19 -118 -78 -184 -196 -184h-164c-120 0 -193 64 -173 184z" />
    <glyph glyph-name="one.oldstyle" horiz-adv-x="367" 
d="M72 445l16 106c25 0 109 41 145 82l163 -1l-92 -632h-162l68 471c-38 -26 -114 -26 -138 -26z" />
    <glyph glyph-name="two.oldstyle" horiz-adv-x="588" 
d="M34 0l23 143c115 51 389 169 404 262c11 64 -16 79 -101 79h-243l19 122c90 17 163 28 301 28c157 0 211 -102 192 -230c-20 -147 -164 -222 -239 -255h186l-24 -149h-518z" />
    <glyph glyph-name="three.oldstyle" horiz-adv-x="584" 
d="M34 -78l20 122h238c71 0 102 8 110 60l4 22c9 60 -24 61 -85 65l-182 8l22 133l184 9c69 3 99 11 107 61l3 24c10 57 -35 60 -87 60h-251l19 122c93 30 214 30 331 28c106 -2 174 -82 156 -196l-8 -46c-12 -75 -47 -119 -102 -128c57 -18 68 -91 56 -167l-7 -37
c-18 -118 -97 -168 -219 -168c-114 0 -226 -2 -309 28z" />
    <glyph glyph-name="four.oldstyle" horiz-adv-x="614" 
d="M28 124l318 508h179l-259 -430h142l24 153l43 77h134l-37 -230h68l-20 -126l-72 -26l-22 -148h-165l23 148h-334z" />
    <glyph glyph-name="five.oldstyle" horiz-adv-x="601" 
d="M42 -80l21 130h274c64 0 73 39 76 63l8 49c5 32 2 65 -48 65h-71c-33 0 -56 -16 -62 -53h-156l94 458h453l-24 -149h-293l-28 -137c27 17 56 21 74 23c33 2 74 0 91 -1c109 -7 151 -92 137 -197l-16 -112c-22 -137 -126 -161 -222 -163c-124 -2 -178 1 -308 24z" />
    <glyph glyph-name="six.oldstyle" horiz-adv-x="603" 
d="M258 309c-18 -108 -11 -161 62 -161h54c33 0 56 9 64 55l7 46c8 47 2 60 -41 60h-146zM105 399c42 265 139 325 229 335c102 12 228 -4 320 -20l-19 -125h-237c-90 0 -108 -84 -121 -159c52 16 102 20 184 20c143 1 162 -98 147 -194l-16 -108
c-20 -126 -99 -149 -210 -149h-140c-115 0 -187 85 -137 400z" />
    <glyph glyph-name="seven.oldstyle" horiz-adv-x="568" 
d="M88 483l24 149h476l30 -70l-342 -662h-177l305 583h-316z" />
    <glyph glyph-name="eight.oldstyle" horiz-adv-x="618" 
d="M316 494c-8 -46 15 -54 49 -54h79c51 0 60 22 65 54l6 40c9 56 -13 62 -47 62h-76c-43 0 -63 -10 -71 -62zM268 195c-6 -41 8 -53 52 -53h75c43 0 61 17 67 53l8 57c6 33 -5 55 -46 55h-80c-43 0 -62 -20 -67 -55zM101 188l9 64c10 56 44 93 98 101
c-67 33 -65 103 -56 161l11 65c21 139 112 158 218 158h153c114 0 170 -65 150 -189l-8 -49c-3 -26 -27 -91 -95 -101c64 -15 62 -111 55 -154l-13 -82c-25 -158 -115 -162 -207 -162h-152c-185 0 -172 130 -163 188z" />
    <glyph glyph-name="nine.oldstyle" horiz-adv-x="594" 
d="M278 383c-8 -47 -3 -60 40 -60h146c18 108 10 161 -63 161h-53c-33 0 -56 -9 -64 -55zM68 -82l19 125h237c90 0 109 84 122 159c-52 -16 -103 -20 -185 -20c-143 -1 -161 105 -146 201l15 93c20 126 98 157 208 157h140c120 0 188 -100 138 -415
c-42 -265 -138 -310 -227 -320c-102 -12 -229 4 -321 20z" />
    <glyph glyph-name="Euro" unicode="&#x20ac;" horiz-adv-x="699" 
d="M51 248l13 76l74 8l8 56l-71 8l11 72l74 10c12 72 47 262 291 262c52 0 184 -10 262 -38l-19 -118s-138 14 -220 14c-128 0 -137 -45 -150 -120l234 -8l-13 -76l-235 -6l-8 -56l232 -8l-12 -76s-238 -6 -235 -8c-17 -104 45 -112 113 -112c88 0 230 24 230 24l-19 -116
c-77 -34 -165 -42 -278 -42c-77 0 -246 20 -210 246z" />
    <glyph glyph-name="endash" unicode="&#x2013;" horiz-adv-x="452" 
d="M59 220l22 135h473l-22 -135h-473z" />
    <glyph glyph-name="emdash" unicode="&#x2014;" horiz-adv-x="736" 
d="M62 222l22 135h696l-22 -135h-696z" />
    <glyph glyph-name="breve" unicode="&#x2d8;" horiz-adv-x="247" 
d="M55 644h62c-4 -33 13 -52 45 -52c40 0 57 18 61 52h61c-7 -71 -52 -112 -122 -112c-66 0 -113 42 -107 112z" />
    <glyph glyph-name="ogonek" unicode="&#x2db;" horiz-adv-x="207" 
d="M215 0h62c-87 -57 -55 -112 -7 -106l-12 -82c-108 -30 -194 114 -43 188z" />
    <glyph glyph-name="caron" unicode="&#x2c7;" horiz-adv-x="374" 
d="M16 668h100l40 -58l63 58h112l-126 -137h-113z" />
    <glyph glyph-name="hungarumlaut" unicode="&#x2dd;" horiz-adv-x="469" 
d="M302 531l108 141h132l-140 -141h-100zM139 531l107 141h132l-140 -141h-99z" />
    <glyph glyph-name="dotaccent" unicode="&#x2d9;" horiz-adv-x="147" 
d="M97 541l14 84c2 15 12 25 28 25h80c15 0 21 -11 19 -25l-14 -84c-2 -15 -12 -23 -26 -23h-80c-14 0 -23 9 -21 23z" />
    <glyph glyph-name="Aogonek" unicode="&#x104;" horiz-adv-x="722" 
d="M369 289h140l-33 235zM56 0l354 732h191l115 -732h-50c-86 -56 -54 -111 -6 -105l-12 -83c-108 -29 -193 113 -44 188h-56l-26 147h-215l-70 -147h-181z" />
    <glyph glyph-name="Lcaron" unicode="&#x13d;" horiz-adv-x="527" 
d="M374 571l10 134l10 67h104l-10 -67l-31 -134h-83zM76 148l93 584h164l-84 -531c-8 -53 25 -52 54 -52h231l-24 -149h-299c-85 0 -152 40 -135 148z" />
    <glyph glyph-name="Sacute" unicode="&#x15a;" horiz-adv-x="582" 
d="M359 799l107 140h132l-140 -140h-99zM65 24l20 128c40 -5 154 -11 247 -11c42 0 78 9 85 53l5 29c6 36 0 58 -52 58h-87c-183 0 -178 151 -171 205l11 80c21 148 119 171 230 172c124 2 217 -8 283 -31l-21 -128c-59 5 -184 10 -233 10c-60 1 -87 -3 -96 -59l-4 -25
c-8 -50 8 -60 62 -60h90c144 0 163 -122 152 -202l-4 -65c-11 -178 -148 -186 -243 -186c-128 0 -194 4 -274 32z" />
    <glyph glyph-name="Scaron" unicode="&#x160;" horiz-adv-x="582" 
d="M278 936h99l41 -59l63 59h111l-126 -137h-112zM68 24l20 128c40 -5 154 -11 247 -11c43 0 78 9 85 53l4 29c6 36 1 58 -51 58h-87c-183 0 -178 151 -170 205l10 80c22 148 119 171 230 172c124 2 216 -8 282 -31l-20 -128c-60 5 -184 10 -234 10c-59 1 -86 -3 -95 -59
l-4 -25c-8 -50 8 -60 61 -60h91c145 0 163 -122 152 -202l-4 -65c-11 -178 -149 -186 -243 -186c-128 0 -194 4 -274 32z" />
    <glyph glyph-name="Scedilla" unicode="&#x15e;" horiz-adv-x="582" 
d="M184 -188l11 68l43 15c30 12 32 22 38 60h105c-16 -102 -50 -143 -139 -143h-58zM68 24l20 128c40 -5 154 -11 247 -11c43 0 78 9 85 53l4 29c6 36 1 58 -51 58h-87c-183 0 -178 151 -170 205l10 80c22 148 119 171 230 172c124 2 216 -8 282 -31l-20 -128
c-60 5 -184 10 -234 10c-59 1 -86 -3 -95 -59l-4 -25c-8 -50 8 -60 61 -60h91c145 0 163 -122 152 -202l-4 -65c-11 -178 -149 -186 -243 -186c-128 0 -194 4 -274 32z" />
    <glyph glyph-name="Tcaron" unicode="&#x164;" horiz-adv-x="592" 
d="M291 934h99l41 -58l63 58h111l-126 -137h-112zM116 583l24 149h553l-24 -149h-198l-92 -583h-164l92 583h-191z" />
    <glyph glyph-name="Zacute" unicode="&#x179;" horiz-adv-x="555" 
d="M380 796l107 140h133l-141 -140h-99zM50 0l24 149l378 434h-310l24 149h508l-24 -149l-364 -434h296l-24 -149h-508z" />
    <glyph glyph-name="Zcaron" unicode="&#x17d;" horiz-adv-x="555" 
d="M269 934h99l41 -58l63 58h111l-126 -137h-112zM24 0l24 149l378 434h-310l24 149h508l-24 -149l-364 -434h296l-24 -149h-508z" />
    <glyph glyph-name="Zdotaccent" unicode="&#x17b;" horiz-adv-x="555" 
d="M344 820l14 84c2 15 12 25 28 25h80c15 0 21 -11 19 -25l-14 -84c-2 -15 -12 -23 -26 -23h-80c-14 0 -23 9 -21 23zM24 0l24 149l378 434h-310l24 149h508l-24 -149l-364 -434h296l-24 -149h-508z" />
    <glyph glyph-name="aogonek" unicode="&#x105;" horiz-adv-x="523" 
d="M410 1h62c-88 -57 -55 -112 -7 -106l-13 -83c-107 -29 -193 114 -42 189zM228 279c-12 -87 -13 -150 44 -150c51 0 78 19 97 51l33 227c-21 9 -58 13 -83 7c-38 -8 -74 -22 -91 -135zM68 304c44 220 165 234 264 237c78 2 194 -13 245 -62l-70 -477h-128l-25 52
c-25 -38 -92 -60 -152 -60c-99 0 -176 98 -134 310z" />
    <glyph glyph-name="lcaron" unicode="&#x13e;" horiz-adv-x="390" 
d="M367 581l10 134l11 67h104l-11 -67l-31 -134h-83zM69 189l94 594h164l-90 -564c-12 -77 2 -89 27 -100c0 0 48 -20 53 -20l-15 -99h-106c-92 0 -149 48 -127 189z" />
    <glyph glyph-name="sacute" unicode="&#x15b;" horiz-adv-x="509" 
d="M297 600l107 140h132l-140 -140h-99zM57 26l16 100h242c13 0 28 3 32 26l3 17c3 18 -1 27 -24 27h-108c-94 0 -149 60 -133 162l8 47c13 83 58 132 161 132c120 0 254 0 286 -31l-16 -100h-232c-26 0 -34 -9 -37 -28l-3 -17c-5 -29 13 -26 29 -26h112
c107 0 138 -77 125 -155l-9 -60c-17 -110 -91 -126 -153 -126c-120 0 -267 0 -299 32z" />
    <glyph glyph-name="scaron" unicode="&#x161;" horiz-adv-x="509" 
d="M206 737h100l40 -59l63 59h111l-126 -137h-112zM53 26l15 100h242c13 0 29 3 33 26l3 17c3 18 -2 27 -25 27h-108c-94 0 -149 60 -133 162l8 47c14 83 59 132 162 132c120 0 254 0 286 -31l-16 -100h-232c-26 0 -35 -9 -38 -28l-2 -17c-6 -29 12 -26 28 -26h113
c106 0 137 -77 125 -155l-10 -60c-16 -110 -90 -126 -152 -126c-120 0 -268 0 -299 32z" />
    <glyph glyph-name="scedilla" unicode="&#x15f;" horiz-adv-x="509" 
d="M140 -182l11 68l43 15c30 12 32 22 38 60h105c-16 -102 -50 -143 -139 -143h-58zM53 26l15 100h242c13 0 29 3 33 26l3 17c3 18 -2 27 -25 27h-108c-94 0 -149 60 -133 162l8 47c14 83 59 132 162 132c120 0 254 0 286 -31l-16 -100h-232c-26 0 -35 -9 -38 -28l-2 -17
c-6 -29 12 -26 28 -26h113c106 0 137 -77 125 -155l-10 -60c-16 -110 -90 -126 -152 -126c-120 0 -268 0 -299 32z" />
    <glyph glyph-name="tcaron" unicode="&#x165;" horiz-adv-x="391" 
d="M406 600l10 134l11 67h104l-11 -67l-31 -134h-83zM72 413l13 86l86 33l49 148h139l-24 -148h106l-19 -119h-106l-30 -193c-12 -78 1 -90 26 -102c0 0 47 -20 53 -20l-16 -98h-107c-80 0 -147 49 -125 190l35 223h-80z" />
    <glyph glyph-name="zacute" unicode="&#x17a;" horiz-adv-x="480" 
d="M297 597l107 141h133l-141 -141h-99zM47 1l20 133l261 263h-232l20 134h441l-21 -134l-247 -262h205c1 -1 -21 -134 -21 -134h-426z" />
    <glyph glyph-name="zcaron" unicode="&#x17e;" horiz-adv-x="480" 
d="M200 736h100l40 -59l63 59h112l-126 -138h-113zM35 1l21 133l260 263h-232l20 134h441l-20 -134l-248 -262h205c1 -1 -21 -134 -21 -134h-426z" />
    <glyph glyph-name="zdotaccent" unicode="&#x17c;" horiz-adv-x="480" 
d="M276 621l13 84c2 15 12 25 28 25h80c15 0 21 -11 19 -25l-13 -84c-2 -15 -12 -23 -26 -23h-80c-14 0 -23 9 -21 23zM35 1l21 133l260 263h-232l20 134h441l-20 -134l-248 -262h205c1 -1 -21 -134 -21 -134h-426z" />
    <glyph glyph-name="Racute" unicode="&#x154;" horiz-adv-x="601" 
d="M360 793l107 141h132l-140 -141h-99zM272 407h123c52 0 73 28 81 94s-4 89 -50 89h-125zM43 0l116 732h308c119 0 200 -72 174 -250s-109 -193 -147 -199l103 -283h-186l-81 275l-79 7l-44 -282h-164z" />
    <glyph glyph-name="Abreve" unicode="&#x102;" horiz-adv-x="698" 
d="M394 910h62c-4 -34 13 -53 45 -53c39 0 57 19 61 53h61c-7 -72 -52 -113 -123 -113c-65 0 -112 43 -106 113zM344 289h139l-33 235zM30 0l355 732h190l115 -732h-168l-26 147h-215l-69 -147h-182z" />
    <glyph glyph-name="Lacute" unicode="&#x139;" horiz-adv-x="527" 
d="M159 792l107 140h133l-141 -140h-99zM30 148l93 584h164l-85 -531c-8 -53 26 -52 55 -52h231l-24 -149h-299c-85 0 -152 40 -135 148z" />
    <glyph glyph-name="Cacute" unicode="&#x106;" horiz-adv-x="569" 
d="M406 800l107 140h133l-141 -140h-99zM95 391c37 233 110 349 309 349c121 0 176 -10 254 -38l-21 -128c-6 1 -109 18 -211 17c-76 0 -131 4 -167 -225c-27 -164 -10 -221 95 -223c90 -1 182 6 217 9l-20 -128c-71 -26 -137 -32 -264 -30c-185 2 -228 170 -192 397z" />
    <glyph glyph-name="Ccaron" unicode="&#x10c;" horiz-adv-x="569" 
d="M326 938h100l40 -60l63 60h112l-126 -138h-112zM95 391c37 233 110 349 309 349c121 0 176 -10 254 -38l-21 -128c-6 1 -109 18 -211 17c-76 0 -131 4 -167 -225c-27 -164 -10 -221 95 -223c90 -1 182 6 217 9l-20 -128c-71 -26 -137 -32 -264 -30
c-185 2 -228 170 -192 397z" />
    <glyph glyph-name="Eogonek" unicode="&#x118;" horiz-adv-x="556" 
d="M74 160l66 420c21 132 111 153 196 152c0 0 221 -4 307 -16l-22 -137h-264c-51 0 -57 -29 -61 -56l-12 -80l266 -11l-22 -135l-269 -9l-14 -86c-8 -53 25 -52 55 -52h254l-22 -136h-1c-87 -57 -54 -111 -6 -106l-13 -82c-104 -29 -188 105 -55 181
c-97 -6 -228 -10 -227 -10c-73 -3 -178 25 -156 163z" />
    <glyph glyph-name="Ecaron" unicode="&#x11a;" horiz-adv-x="558" 
d="M292 934h99l41 -58l63 58h111l-126 -137h-112zM72 160l67 420c21 132 111 153 196 152c0 0 221 -4 307 -16l-22 -137h-264c-52 0 -57 -29 -61 -56l-12 -80l266 -11l-22 -135l-269 -9l-14 -86c-8 -53 25 -52 54 -52h255l-22 -136c-80 -10 -303 -17 -303 -17
c-72 -3 -177 25 -156 163z" />
    <glyph glyph-name="Dcaron" unicode="&#x10e;" horiz-adv-x="651" 
d="M303 933h100l40 -59l63 59h112l-126 -137h-112zM244 142h128c80 0 120 79 142 222c30 186 -4 226 -78 226h-121zM58 0l116 732h305c205 0 229 -193 198 -392c-40 -263 -129 -340 -301 -340h-318z" />
    <glyph glyph-name="Nacute" unicode="&#x143;" horiz-adv-x="672" 
d="M420 797l107 141h132l-140 -141h-99zM54 0l116 732h165l182 -433l68 433h164l-116 -732h-163l-184 425l-67 -425h-165z" />
    <glyph glyph-name="Ncaron" unicode="&#x147;" horiz-adv-x="672" 
d="M334 934h100l40 -58l63 58h112l-126 -137h-113zM54 0l116 732h165l182 -433l68 433h164l-116 -732h-163l-184 425l-67 -425h-165z" />
    <glyph glyph-name="Ohungarumlaut" unicode="&#x150;" horiz-adv-x="666" 
d="M496 797l107 141h133l-141 -141h-99zM333 797l107 141h132l-140 -141h-99zM263 361c-28 -179 -11 -216 99 -216c100 0 141 37 169 216c32 202 1 227 -98 227s-137 -18 -170 -227zM99 380c54 343 185 357 355 357c173 0 294 -55 241 -395c-50 -323 -175 -346 -353 -346
c-176 0 -296 51 -243 384z" />
    <glyph glyph-name="Rcaron" unicode="&#x158;" horiz-adv-x="601" 
d="M290 934h99l41 -58l63 58h111l-126 -137h-112zM281 407h123c52 0 72 28 81 94c8 66 -4 89 -50 89h-125zM52 0l116 732h308c119 0 200 -72 174 -250s-109 -193 -147 -199l103 -283h-186l-81 275l-79 7l-44 -282h-164z" />
    <glyph glyph-name="Uring" unicode="&#x16e;" horiz-adv-x="653" 
d="M436 898c-2 -22 14 -39 35 -39c22 0 40 17 42 39c2 21 -13 39 -35 39c-21 0 -40 -18 -42 -39zM373 898c5 56 53 100 109 100s99 -44 94 -100c-5 -58 -52 -101 -108 -101s-100 43 -95 101zM104 338l63 394h165l-66 -416c-19 -118 -11 -172 90 -172c99 0 125 60 142 172
l66 416h165l-62 -439c-44 -278 -182 -298 -333 -298c-144 0 -279 38 -230 343z" />
    <glyph glyph-name="Uhungarumlaut" unicode="&#x170;" horiz-adv-x="653" 
d="M491 797l107 141h132l-140 -141h-99zM327 797l107 141h133l-141 -141h-99zM104 338l63 394h165l-66 -416c-19 -118 -11 -172 90 -172c99 0 125 60 142 172l66 416h165l-62 -439c-44 -278 -182 -298 -333 -298c-144 0 -279 38 -230 343z" />
    <glyph glyph-name="Tcommaaccent" unicode="&#x162;" horiz-adv-x="592" 
d="M124 -182l12 68l42 16c30 12 33 22 39 60h105c-16 -102 -50 -144 -139 -144h-59zM94 583l24 149h552l-24 -149h-197l-92 -583h-164l92 583h-191z" />
    <glyph glyph-name="racute" unicode="&#x155;" horiz-adv-x="414" 
d="M282 598l107 141h133l-141 -141h-99zM60 0l84 531h142l11 -67c34 36 88 72 148 72c21 0 39 0 53 -6l-25 -157c-15 1 -47 1 -77 1c-50 0 -94 -5 -122 -59l-50 -315h-164z" />
    <glyph glyph-name="abreve" unicode="&#x103;" horiz-adv-x="544" 
d="M261 715h62c-4 -33 13 -52 45 -52c39 0 57 19 61 52h61c-7 -71 -52 -112 -123 -112c-65 0 -112 43 -106 112zM234 279c-13 -87 -13 -150 44 -150c50 0 77 19 96 51l34 227c-22 9 -58 13 -83 7c-38 -8 -74 -22 -91 -135zM74 304c44 220 164 234 263 237
c79 2 195 -13 246 -62l-70 -477h-128l-25 52c-26 -38 -93 -60 -152 -60c-100 0 -176 98 -134 310z" />
    <glyph glyph-name="lacute" unicode="&#x13a;" horiz-adv-x="314" 
d="M197 843l107 141h133l-141 -141h-99zM61 189l94 594h164l-89 -564c-12 -77 2 -89 27 -100c0 0 47 -20 53 -20l-16 -99h-98c-95 0 -156 51 -135 189z" />
    <glyph glyph-name="cacute" unicode="&#x107;" horiz-adv-x="490" 
d="M306 599l107 140h133l-141 -140h-99zM75 288c36 220 117 252 217 252c52 0 170 -7 246 -34l-16 -99s-78 7 -167 7c-66 0 -92 -4 -117 -150c-21 -129 0 -143 70 -143c92 0 178 9 178 9l-16 -100c-76 -30 -141 -37 -260 -35c-100 1 -168 87 -135 293z" />
    <glyph glyph-name="ccaron" unicode="&#x10d;" horiz-adv-x="490" 
d="M225 736h100l40 -59l63 59h112l-126 -137h-112zM75 288c35 220 117 252 217 252c52 0 170 -7 246 -34l-16 -99s-79 7 -168 7c-66 0 -92 -4 -116 -150c-21 -129 0 -143 70 -143c92 0 178 9 178 9l-16 -100c-76 -30 -141 -37 -261 -35c-100 1 -168 87 -134 293z" />
    <glyph glyph-name="eogonek" unicode="&#x119;" horiz-adv-x="528" 
d="M244 307c0 0 134 -28 149 55c8 42 -14 53 -58 52c-71 -1 -81 -50 -91 -107zM76 308c31 163 76 232 272 233c110 1 220 -29 214 -153c-11 -250 -294 -202 -331 -187c-10 -66 9 -81 81 -81c53 -1 149 8 205 18l-20 -116c-87 -57 -55 -112 -6 -106l-13 -82
c-97 -27 -177 88 -80 165c-54 -9 -114 -11 -188 -6c-127 8 -170 121 -134 315z" />
    <glyph glyph-name="ecaron" unicode="&#x11b;" horiz-adv-x="528" 
d="M226 738h100l40 -58l63 58h112l-126 -137h-113zM244 307c0 0 134 -28 149 55c7 42 -14 53 -58 52c-71 -1 -81 -50 -91 -107zM76 308c30 163 76 232 271 233c110 1 220 -29 214 -153c-11 -250 -293 -202 -330 -187c-11 -66 9 -81 80 -81c53 -1 149 8 205 18l-20 -116
c-78 -24 -165 -38 -286 -29c-128 8 -170 121 -134 315z" />
    <glyph glyph-name="dcaron" unicode="&#x10f;" horiz-adv-x="746" 
d="M678 580l11 134l10 68h104l-10 -68l-31 -134h-84zM240 270c-18 -112 -3 -140 36 -140c42 0 78 10 102 28l38 240c-22 13 -57 18 -95 18c-36 0 -61 -20 -81 -146zM74 279c29 183 71 260 217 260c45 0 103 -12 143 -33l44 279h164l-125 -785h-137l-20 52
c-40 -30 -91 -58 -152 -58c-125 0 -163 104 -134 285z" />
    <glyph glyph-name="nacute" unicode="&#x144;" horiz-adv-x="552" 
d="M326 600l107 140h132l-140 -140h-99zM40 0l84 531h135l21 -55c45 32 88 64 169 64c130 0 143 -86 126 -192l-55 -348h-164l55 350c7 48 -8 64 -37 64c-48 0 -78 -13 -110 -42l-60 -372h-164z" />
    <glyph glyph-name="ncaron" unicode="&#x148;" horiz-adv-x="552" 
d="M241 738h99l41 -60l63 60h111l-126 -138h-112zM40 0l84 531h135l21 -55c45 32 88 64 169 64c130 0 143 -86 126 -192l-55 -348h-164l55 350c7 48 -8 64 -37 64c-48 0 -78 -13 -110 -42l-60 -372h-164z" />
    <glyph glyph-name="ohungarumlaut" unicode="&#x151;" horiz-adv-x="555" 
d="M404 598l107 141h132l-140 -141h-99zM240 598l107 141h133l-141 -141h-99zM237 258c-20 -122 -4 -136 60 -136c67 0 82 9 103 136c20 129 14 154 -58 154s-84 -22 -105 -154zM73 277c34 217 107 261 289 261c181 0 234 -94 202 -299c-32 -197 -98 -244 -285 -244
c-183 0 -236 92 -206 282z" />
    <glyph glyph-name="rcaron" unicode="&#x159;" horiz-adv-x="414" 
d="M177 736h99l41 -59l63 59h111l-126 -138h-112zM40 0l84 531h142l12 -67c34 36 87 72 147 72c21 0 39 0 53 -6l-25 -157c-15 1 -47 1 -77 1c-50 0 -94 -5 -122 -59l-50 -315h-164z" />
    <glyph glyph-name="uring" unicode="&#x16f;" horiz-adv-x="551" 
d="M344 699c-2 -22 14 -39 36 -39s39 17 42 39c2 21 -14 39 -35 39c-22 0 -41 -18 -43 -39zM281 699c5 57 54 101 110 101s98 -44 93 -101s-51 -101 -107 -101s-101 44 -96 101zM62 184l56 347h164l-56 -351c-8 -50 8 -62 37 -62c48 0 78 12 111 42l58 371h164l-84 -531
h-135l-20 54c-48 -38 -88 -63 -169 -63c-130 0 -143 85 -126 193z" />
    <glyph glyph-name="uhungarumlaut" unicode="&#x171;" horiz-adv-x="551" 
d="M400 598l107 141h133l-141 -141h-99zM237 598l107 141h132l-140 -141h-99zM62 184l56 347h164l-56 -351c-8 -50 8 -62 37 -62c48 0 78 12 111 42l58 371h164l-84 -531h-135l-20 54c-48 -38 -88 -63 -169 -63c-130 0 -143 85 -126 193z" />
    <glyph glyph-name="tcommaaccent" unicode="&#x163;" horiz-adv-x="375" 
d="M70 -183l11 68l43 15c30 12 32 22 38 60h105c-16 -102 -50 -143 -139 -143h-58zM53 413l13 86l87 33l49 148h138l-23 -148h105l-18 -119h-106l-31 -193c-12 -78 1 -90 26 -102c0 0 48 -20 53 -20l-15 -99h-107c-84 0 -147 53 -125 191l35 223h-81z" />
    <glyph glyph-name="Lslash" unicode="&#x141;" horiz-adv-x="529" 
d="M24 300l13 76l81 32l51 324h164l-40 -254l109 44l-12 -76l-109 -44l-32 -201c-8 -53 25 -52 54 -52h231l-23 -149h-299c-85 0 -152 40 -135 148l29 184z" />
    <glyph glyph-name="lslash" unicode="&#x142;" horiz-adv-x="338" 
d="M39 344l13 76l76 30l54 333h164l-41 -263l112 46l-12 -76l-112 -46l-37 -225c-13 -77 2 -89 26 -100c0 0 48 -20 54 -20l-16 -99h-98c-92 0 -157 48 -135 189l30 185z" />
    <glyph glyph-name="Dcroat" unicode="&#x110;" horiz-adv-x="647" 
d="M254 142h132c75 0 115 79 137 222c30 186 1 226 -66 226h-132l-29 -182h102l-11 -70h-102zM56 338l12 70h64l52 324h310c206 0 224 -206 194 -392c-40 -245 -122 -340 -295 -340h-325l53 338h-65z" />
    <glyph glyph-name="dcroat" unicode="&#x111;" horiz-adv-x="554" 
d="M240 270c-18 -112 -3 -140 36 -140c42 0 78 10 102 28l38 240c-22 13 -57 18 -95 18c-36 0 -61 -20 -81 -146zM74 280c29 184 71 259 217 259c45 0 103 -12 143 -33l14 95h-100l11 69h101l18 115h164l-18 -115h62l-12 -69h-62l-95 -601h-137l-20 52
c-40 -30 -91 -58 -152 -58c-125 0 -163 105 -134 286z" />
    <glyph glyph-name="at.alt" horiz-adv-x="830" 
d="M410 329c-10 -74 -15 -149 57 -147c55 2 92 20 111 68l34 222c-36 7 -68 8 -96 8c-56 0 -89 -33 -106 -151zM62 106l76 475c26 163 122 208 273 208h360c155 0 190 -111 169 -253l-47 -316c-14 -95 -57 -157 -201 -157h-107l-23 53c-20 -26 -53 -61 -126 -60
c-121 2 -180 102 -152 292c34 222 141 258 238 258c106 0 175 -19 226 -68l-50 -348c48 0 62 8 74 90l41 271c13 95 -15 111 -78 111h-352c-95 0 -112 -60 -120 -111l-73 -459c-8 -58 2 -100 88 -100h386l-16 -99c-50 -10 -166 -27 -292 -27h-91c-186 0 -221 120 -203 240z
" />
    <glyph glyph-name="questiondown.alt" horiz-adv-x="541" 
d="M334 608l16 102c2 18 14 23 28 23h98c14 0 23 -9 21 -23l-16 -102c-2 -15 -12 -25 -28 -25h-99c-17 0 -23 10 -20 25zM56 212l10 63c21 137 94 187 251 177c0 1 14 85 14 86h127l-32 -207c-15 1 -90 1 -105 0c-49 -2 -83 -20 -92 -76l-7 -37c-8 -51 20 -75 89 -75h241
l-20 -121c-93 -21 -172 -33 -286 -28c-148 0 -206 120 -190 218z" />
    <glyph glyph-name="oe" unicode="&#x153;" horiz-adv-x="853" 
d="M576 307c0 0 134 -28 149 55c7 42 -14 53 -58 52c-71 -1 -81 -50 -91 -107zM232 258c-20 -122 -5 -136 59 -136c67 0 82 9 103 136c21 129 14 154 -57 154c-73 0 -84 -22 -105 -154zM68 278c34 216 106 260 288 260c66 0 115 -14 146 -41c39 29 94 43 177 44
c111 1 221 -29 215 -153c-11 -250 -294 -202 -331 -187c-11 -66 9 -81 80 -81c54 0 149 8 206 18l-20 -116c-79 -24 -166 -38 -287 -29c-40 2 -69 15 -90 39c-42 -28 -99 -37 -178 -37c-184 0 -236 93 -206 283z" />
    <glyph glyph-name="OE" unicode="&#x152;" horiz-adv-x="1024" 
d="M245 361c-29 -179 -12 -216 99 -216c100 0 140 37 169 216c32 202 1 227 -98 227s-137 -18 -170 -227zM81 380c54 343 185 357 355 357c72 0 133 -9 176 -47c37 38 88 45 138 42c0 0 222 -4 308 -16l-22 -137h-264c-52 0 -58 -29 -62 -56l-12 -80l266 -11l-20 -135
l-270 -9l-14 -86c-8 -53 24 -52 54 -52h254l-21 -136c-80 -10 -303 -17 -303 -17c-37 -2 -86 7 -118 39c-56 -35 -124 -40 -203 -40c-175 0 -295 51 -242 384z" />
    <glyph glyph-name="Ydieresis" unicode="&#x178;" horiz-adv-x="666" 
d="M520 858c6 34 38 61 72 61s57 -27 52 -61c-6 -34 -38 -62 -72 -62s-57 28 -52 62zM265 858c6 34 38 61 72 61s57 -27 52 -61c-6 -34 -38 -62 -72 -62s-57 28 -52 62zM124 732h178l68 -338l188 338h186l-318 -517l-34 -215h-164l34 215z" />
    <glyph glyph-name="g.salt" horiz-adv-x="517" 
d="M250 344c-8 -49 -8 -76 39 -76h33c42 0 52 41 58 76c9 55 6 70 -35 70h-33c-44 0 -53 -18 -62 -70zM178 -94c-7 -37 4 -47 40 -47h68c32 0 41 15 45 40l2 15c5 33 -7 40 -38 46l-104 16zM12 -101l42 215c5 36 27 86 77 86c-56 34 -53 114 -45 166c22 142 117 169 214 167
l98 -2c68 -1 173 -38 146 -209c-12 -78 -69 -174 -211 -174h-72c-16 0 -41 5 -45 -16c-5 -20 17 -23 37 -26l125 -23c68 -15 138 -57 122 -159l-8 -48c-14 -84 -50 -146 -197 -146h-116c-144 0 -186 73 -167 169z" />
    <glyph glyph-name="guilsinglleft" unicode="&#x2039;" horiz-adv-x="283" 
d="M13 354l238 203l73 -85l-141 -120l103 -121l-95 -85z" />
    <glyph glyph-name="guilsinglright" unicode="&#x203a;" horiz-adv-x="357" 
d="M90 233l141 121l-101 120l97 83l174 -204l-241 -207z" />
    <glyph glyph-name="perthousand" unicode="&#x2030;" horiz-adv-x="1336" 
d="M1084 157c-5 -29 -1 -45 36 -45h63c39 0 48 17 53 45l11 73c5 37 -3 45 -36 45h-63c-32 0 -48 -8 -53 -45zM970 146l18 118c14 84 54 121 158 121h101c95 0 127 -57 113 -143l-18 -118c-14 -88 -56 -122 -158 -122h-100c-93 0 -127 59 -114 144zM670 157
c-4 -29 0 -45 36 -45h63c39 0 49 17 53 45l11 73c6 37 -3 45 -36 45h-63c-31 0 -47 -8 -53 -45zM556 146l19 118c13 84 53 121 157 121h101c95 0 127 -57 114 -143l-19 -118c-13 -88 -55 -122 -157 -122h-102c-92 0 -126 59 -113 144zM168 0l566 732h111l-561 -732h-116z
M186 504c-4 -29 0 -45 36 -45h64c39 0 48 17 52 45l12 73c5 37 -4 45 -37 45h-63c-31 0 -47 -8 -52 -45zM72 493l19 118c13 84 54 121 157 121h102c94 0 126 -57 113 -144l-19 -118c-13 -87 -55 -121 -156 -121h-102c-92 0 -126 59 -114 144z" />
    <glyph glyph-name="dagger" unicode="&#x2020;" horiz-adv-x="539" 
d="M101 440l20 127l135 13l42 190h146l-19 -190l130 -13l-20 -127l-134 -14l-92 -498h-146l69 498z" />
    <glyph glyph-name="daggerdbl" unicode="&#x2021;" horiz-adv-x="509" 
d="M83 136l20 127l138 17l21 146l-131 14l20 127l135 13l42 190h145l-17 -190l129 -13l-20 -127l-135 -14l-26 -147l133 -16l-20 -127l-143 -15l-35 -193h-145l26 192z" />
    <glyph glyph-name="trademark" unicode="&#x2122;" horiz-adv-x="625" 
d="M291 383l97 349h105l15 -187l70 187h111l-9 -349h-102l10 178l-55 -178h-91l-7 177l-43 -177h-101zM34 646l14 86h289l-14 -86h-93l-41 -263h-102l41 263h-94z" />
    <glyph glyph-name="notequal" unicode="&#x2260;" horiz-adv-x="538" 
d="M115 174l21 136h152l60 80h-198l21 135h275l47 62h76l-47 -62h76l-22 -135h-152l-60 -80h200l-22 -136h-277l-54 -73h-76l54 73h-74z" />
    <glyph glyph-name="infinity" unicode="&#x221e;" horiz-adv-x="662" 
d="M459 340c15 -30 38 -60 81 -60c46 0 66 26 71 61s3 62 -51 62c-43 0 -76 -31 -101 -63zM162 341c-5 -33 2 -61 50 -61c42 0 73 31 98 61c-15 31 -44 62 -78 62c-55 0 -66 -27 -70 -62zM44 356c12 89 57 158 195 158c73 0 122 -32 157 -92c48 64 116 92 192 92
c136 0 154 -101 142 -188c-14 -94 -68 -157 -197 -157c-63 0 -122 15 -165 91c-54 -72 -106 -91 -184 -91c-125 0 -153 98 -140 187z" />
    <glyph glyph-name="lessequal" unicode="&#x2264;" horiz-adv-x="522" 
d="M129 361l23 147l395 124l-24 -148l-218 -56l201 -54l-23 -144zM84 73l18 119h375l-19 -119h-374z" />
    <glyph glyph-name="greaterequal" unicode="&#x2265;" horiz-adv-x="420" 
d="M68 230l24 148l222 62l-205 48l23 142l356 -122l-24 -148zM44 73l19 119h375l-18 -119h-376z" />
    <glyph glyph-name="circumflex" unicode="&#x2c6;" horiz-adv-x="311" 
d="M44 531l126 137h116l73 -137h-100l-37 59l-66 -59h-112z" />
    <glyph glyph-name="tilde" unicode="&#x2dc;" horiz-adv-x="413" 
d="M118 592c34 35 80 71 133 71c45 -1 63 -35 100 -35c36 -2 79 20 100 39l14 -66c-31 -32 -75 -70 -125 -70c-46 1 -69 35 -108 35c-40 0 -64 -14 -99 -35z" />
    <glyph glyph-name="ring" unicode="&#x2da;" horiz-adv-x="268" 
d="M189 632c-2 -22 14 -38 36 -38s40 16 42 38s-13 39 -35 39s-41 -17 -43 -39zM127 632c5 57 53 101 109 101s99 -44 94 -101s-52 -100 -108 -100s-100 43 -95 100z" />
    <glyph glyph-name="ellipsis" unicode="&#x2026;" horiz-adv-x="790" 
d="M673 23l16 102c2 15 12 25 28 25h98c18 0 24 -9 21 -25l-16 -102c-3 -18 -14 -23 -28 -23h-98c-14 0 -23 9 -21 23zM401 23l16 102c2 15 12 25 28 25h98c18 0 24 -9 21 -25l-16 -102c-3 -18 -14 -23 -28 -23h-98c-14 0 -23 9 -21 23zM129 23l16 102c2 15 12 25 28 25h98
c18 0 24 -9 21 -25l-16 -102c-3 -18 -14 -23 -28 -23h-98c-14 0 -23 9 -21 23z" />
    <glyph glyph-name="fraction" unicode="&#x2044;" horiz-adv-x="354" 
d="M-61 0l482 760h115l-482 -760h-115z" />
    <glyph glyph-name="dotlessi" unicode="&#x131;" horiz-adv-x="237" 
d="M30 0l84 531h164l-84 -531h-164z" />
    <glyph glyph-name="exclamdown.alt" horiz-adv-x="325" 
d="M182 406l16 100c2 14 14 22 28 23h98c12 -1 22 -12 20 -26l-16 -97c-2 -13 -9 -26 -25 -26h-101c-13 0 -22 8 -20 26zM78 -202l101 534h129l-68 -534h-162z" />
    <glyph glyph-name="ampersand.salt" horiz-adv-x="990" 
d="M446 286h84c21 0 29 2 33 26c3 21 -4 24 -25 24h-43c-27 0 -41 -2 -49 -50zM246 338c-7 -38 1 -50 36 -50c19 122 102 164 224 164h54c98 0 184 -31 165 -156c-20 -126 -105 -126 -211 -126h-86c-5 -30 10 -39 43 -40h160c83 0 113 40 123 102l42 265h-419
c-96 -1 -109 -20 -119 -81zM82 347l12 84c24 178 122 196 297 197h426l36 116h146l-18 -117h95l-18 -110l-98 -19l-42 -291c-30 -187 -165 -209 -308 -209h-162c-101 1 -204 46 -186 167c-116 0 -201 49 -180 182z" />
    <glyph glyph-name="a.superior" horiz-adv-x="400" 
d="M218 555c-8 -55 -8 -93 28 -93c34 0 61 14 74 34l20 135c-22 6 -46 9 -64 5c-22 -3 -48 -14 -58 -81zM102 574c31 149 122 156 190 156c58 2 145 -10 180 -44l-46 -321h-95l-20 45c-18 -32 -53 -50 -109 -50c-76 0 -127 75 -100 214z" />
    <glyph glyph-name="b.superior" horiz-adv-x="410" 
d="M233 484c14 -10 31 -16 61 -16c27 0 46 18 55 84c11 77 -1 88 -27 88c-27 0 -46 -4 -66 -13zM90 368l83 523h124l-29 -182c34 16 75 25 108 25c106 0 113 -95 96 -208c-17 -122 -64 -162 -155 -162c-45 0 -73 20 -96 42l-28 -38h-103z" />
    <glyph glyph-name="c.superior" horiz-adv-x="351" 
d="M111 560c23 145 81 165 154 165c37 0 119 -6 173 -25l-12 -76s-52 4 -112 4c-46 0 -64 -1 -78 -85c-13 -76 1 -83 51 -83c63 0 119 5 119 5l-13 -74c-55 -23 -97 -28 -183 -27c-72 1 -121 59 -99 196z" />
    <glyph glyph-name="d.superior" horiz-adv-x="410" 
d="M237 552c-10 -70 1 -84 27 -84c31 0 49 6 67 19l23 141c-19 9 -35 12 -62 12c-26 0 -43 -11 -55 -88zM112 567c16 100 49 167 155 167c33 0 71 -8 101 -25l28 182h124l-83 -523h-103l-16 38c-30 -24 -62 -42 -107 -42c-93 0 -118 97 -99 203z" />
    <glyph glyph-name="e.superior" horiz-adv-x="384" 
d="M232 568c0 0 97 -26 108 30c6 27 -17 32 -44 32c-51 0 -58 -25 -64 -62zM113 568c20 110 53 159 189 160c78 0 162 -23 156 -106c-10 -158 -208 -130 -232 -119c-6 -37 16 -45 59 -45c36 -1 101 4 139 10l-15 -86c-55 -18 -116 -30 -201 -21c-88 8 -118 77 -95 207z" />
    <glyph glyph-name="f.superior" horiz-adv-x="309" 
d="M116 632l13 78l55 16l10 49c16 74 56 117 146 117c36 0 65 -4 94 -18l-12 -73c-1 0 -61 1 -61 1c-41 0 -41 -21 -47 -54l-3 -24h81l-15 -92h-81l-42 -264h-125l42 264h-55z" />
    <glyph glyph-name="g.superior" horiz-adv-x="403" 
d="M243 556c-10 -60 -13 -98 34 -98c24 0 35 1 58 10l27 173h-56c-49 0 -56 -48 -63 -85zM76 196l14 85h154c39 0 65 19 71 59l8 52c-27 -21 -55 -29 -89 -29c-108 0 -137 83 -116 208c21 128 83 162 174 162c79 0 170 -12 207 -25l-61 -389c-16 -97 -74 -151 -191 -139z
" />
    <glyph glyph-name="h.superior" horiz-adv-x="414" 
d="M92 368l83 521h124l-33 -205c32 22 64 48 123 48c95 0 105 -58 93 -130l-36 -234h-126l36 225c5 31 -6 41 -26 41c-32 0 -51 -7 -75 -26l-38 -240h-125z" />
    <glyph glyph-name="i.superior" horiz-adv-x="191" 
d="M154 771l12 77c2 11 10 19 22 19h94c11 0 16 -8 14 -19l-13 -77c-2 -11 -8 -17 -19 -17h-95c-11 0 -17 6 -15 17zM90 368l56 356h126l-56 -356h-126z" />
    <glyph glyph-name="j.superior" horiz-adv-x="191" 
d="M154 770l13 78c2 10 9 18 21 18h94c12 0 16 -8 14 -18l-12 -78c-2 -11 -9 -17 -20 -17h-94c-12 0 -18 6 -16 17zM63 185l85 537h126l-58 -358c-8 -58 -20 -125 -58 -179h-95z" />
    <glyph glyph-name="k.superior" horiz-adv-x="409" 
d="M92 368l83 520h125l-48 -290c60 20 107 64 128 124h130c-25 -93 -86 -141 -125 -162l101 -192h-138l-78 158l-28 -1l-25 -157h-125z" />
    <glyph glyph-name="l.superior" horiz-adv-x="240" 
d="M112 495l62 395h126l-59 -368c-8 -48 -1 -58 18 -66c0 0 35 -14 40 -14l-11 -74h-77c-68 0 -114 33 -99 127z" />
    <glyph glyph-name="m.superior" horiz-adv-x="643" 
d="M90 368l56 353h102l12 -42c36 25 63 48 122 48c52 0 81 -19 93 -49c37 24 82 49 141 49c89 0 106 -56 95 -128l-37 -231h-125l36 222c4 30 -7 40 -27 40c-30 0 -54 -6 -76 -23c-1 -3 -3 -15 -4 -20l-34 -219h-125l35 222c5 30 -6 40 -27 40c-31 0 -51 -7 -75 -26
l-37 -236h-125z" />
    <glyph glyph-name="n.superior" horiz-adv-x="414" 
d="M92 368l56 353h101l13 -41c34 24 64 48 124 48c97 0 108 -58 96 -128l-36 -232h-126l36 223c5 31 -6 41 -26 41c-32 0 -52 -8 -76 -27l-37 -237h-125z" />
    <glyph glyph-name="o.superior" horiz-adv-x="391" 
d="M228 540c-12 -74 0 -80 41 -80c48 0 53 4 65 80c13 78 12 89 -38 89c-51 0 -56 -9 -68 -89zM112 552c21 143 65 173 198 173s162 -60 141 -198c-20 -131 -58 -163 -195 -163c-133 0 -164 61 -144 188z" />
    <glyph glyph-name="p.superior" horiz-adv-x="406" 
d="M232 463c16 -10 32 -13 54 -13c38 0 50 20 62 98c8 49 8 90 -33 90h-55zM63 184l83 522c48 16 119 24 212 24c91 0 132 -70 114 -195c-16 -110 -51 -180 -161 -180c-32 0 -72 8 -92 30l-32 -201h-124z" />
    <glyph glyph-name="q.superior" horiz-adv-x="408" 
d="M238 548c-10 -60 -12 -98 34 -98c24 -1 34 2 57 12l28 176h-54c-49 0 -59 -52 -65 -90zM114 563c22 133 84 167 175 167c79 0 166 -11 203 -24l-82 -525h-126l32 203c-26 -21 -55 -29 -87 -29c-108 0 -136 83 -115 208z" />
    <glyph glyph-name="r.superior" horiz-adv-x="304" 
d="M90 368l56 353h108l4 -51c24 27 62 55 106 55c15 0 28 -1 37 -5l-19 -120c-10 1 -31 1 -52 1c-35 0 -64 -3 -84 -36l-31 -197h-125z" />
    <glyph glyph-name="s.superior" horiz-adv-x="356" 
d="M100 388l12 75h164c9 0 21 1 22 17l2 6c0 12 -1 17 -17 17h-74c-63 0 -99 44 -89 107l4 30c8 54 39 86 108 86c82 0 174 0 195 -23l-11 -77h-158c-17 0 -24 -4 -25 -15l-1 -10c-2 -15 7 -17 20 -17h76c72 0 94 -48 88 -92l-7 -40c-13 -76 -59 -90 -103 -90
c-80 0 -185 2 -206 26z" />
    <glyph glyph-name="t.superior" horiz-adv-x="284" 
d="M116 633l11 73l63 20l32 97h106l-16 -99h72l-14 -91h-72l-19 -115c-8 -48 0 -55 19 -62c0 0 32 -13 36 -13l-12 -75h-80c-60 0 -106 32 -92 123l22 142h-56z" />
    <glyph glyph-name="u.superior" horiz-adv-x="413" 
d="M106 490l37 231h125l-36 -224c-4 -30 7 -40 27 -40c31 0 50 7 73 26l38 238h125l-56 -353h-101l-13 43c-37 -30 -62 -51 -123 -51c-96 0 -107 59 -96 130z" />
    <glyph glyph-name="v.superior" horiz-adv-x="391" 
d="M129 721h120l29 -225l70 144c10 17 19 43 22 82h119c10 -44 -9 -90 -25 -120l-134 -234h-133z" />
    <glyph glyph-name="w.superior" horiz-adv-x="603" 
d="M129 721h119l29 -223l71 142c9 18 18 43 22 82h118c8 -29 2 -60 -9 -87c-2 -3 -13 -23 -15 -27l25 -110l70 142c10 17 19 43 23 82h118c10 -44 -9 -90 -25 -120l-133 -234h-130l-27 111l-55 -111h-134z" />
    <glyph glyph-name="x.superior" horiz-adv-x="409" 
d="M74 366l150 186l-95 168h133l42 -94l70 94h136l-152 -188l92 -166h-129l-41 94l-70 -94h-136z" />
    <glyph glyph-name="y.superior" horiz-adv-x="419" 
d="M142 160v78c66 38 104 92 123 128c-67 1 -101 42 -105 94l-30 262h124l20 -236c2 -20 14 -27 28 -28l75 165c8 22 15 53 20 99h119c10 -44 -6 -91 -20 -122l-106 -234c-88 -188 -205 -200 -248 -206z" />
    <glyph glyph-name="z.superior" horiz-adv-x="352" 
d="M92 368l16 102l164 148h-150l16 103h306l-14 -89l-166 -161h140c0 -1 -16 -103 -16 -103h-296z" />
    <glyph glyph-name="zero.tnum" horiz-adv-x="609" 
d="M236 215c-10 -65 28 -66 57 -66h72c41 0 67 11 76 65l48 304c8 48 -10 65 -49 65h-84c-58 0 -68 -44 -72 -65zM67 184l57 356c20 126 83 192 204 192h164c139 0 181 -90 166 -184l-58 -364c-19 -118 -78 -184 -195 -184h-164c-120 0 -193 64 -174 184z" />
    <glyph glyph-name="one.tnum" horiz-adv-x="609" 
d="M90 0l22 135h137l70 435c-38 -26 -111 -26 -135 -26l16 106c25 0 110 41 146 82h162l-95 -597h139l-22 -135h-440z" />
    <glyph glyph-name="two.tnum" horiz-adv-x="609" 
d="M44 0l23 143c102 62 397 267 412 365c11 66 -21 84 -105 84h-243l19 122c90 17 166 28 302 28c150 0 210 -118 190 -250c-20 -150 -224 -287 -299 -343h243l-24 -149h-518z" />
    <glyph glyph-name="three.tnum" horiz-adv-x="609" 
d="M53 21l20 122h238c71 0 102 7 110 59l3 22c10 60 -23 62 -84 65l-182 9l22 133l184 8c69 3 99 12 106 62l4 23c10 57 -35 61 -87 61h-251l19 121c93 31 213 30 331 28c106 -2 174 -82 156 -195l-8 -47c-12 -74 -48 -118 -102 -128c57 -18 68 -90 56 -166l-7 -37
c-18 -118 -97 -168 -219 -168c-114 0 -226 -3 -309 28z" />
    <glyph glyph-name="four.tnum" horiz-adv-x="609" 
d="M54 224l318 508h180l-260 -430h142l25 153l42 77h135l-37 -230h67l-19 -126l-72 -26l-23 -148h-165l23 148h-334z" />
    <glyph glyph-name="five.tnum" horiz-adv-x="609" 
d="M64 21l21 130h274c64 0 73 38 76 63l8 49c5 32 2 65 -48 65h-71c-33 0 -56 -16 -62 -53h-156l94 457h453l-24 -148h-293l-28 -138c26 17 55 22 74 23c32 3 74 1 91 0c109 -7 151 -93 137 -197l-16 -113c-22 -137 -126 -161 -222 -162c-124 -2 -178 1 -308 24z" />
    <glyph glyph-name="six.tnum" horiz-adv-x="609" 
d="M254 309c-17 -108 -11 -161 63 -161h54c33 0 56 9 63 55l8 46c8 47 2 60 -42 60h-146zM101 399c42 265 140 325 229 335c102 12 228 -1 321 -20l-20 -125h-236c-90 0 -109 -84 -121 -159c52 16 102 20 183 20c143 1 163 -98 148 -194l-17 -108
c-20 -126 -99 -149 -209 -149h-141c-115 0 -187 85 -137 400z" />
    <glyph glyph-name="seven.tnum" horiz-adv-x="609" 
d="M137 583l24 149h476l30 -70l-342 -662h-177l305 583h-316z" />
    <glyph glyph-name="eight.tnum" horiz-adv-x="609" 
d="M287 494c-7 -46 16 -54 50 -54h79c51 0 60 22 65 54l5 40c10 56 -13 62 -47 62h-75c-44 0 -63 -10 -71 -62zM240 195c-7 -41 7 -53 52 -53h75c43 0 61 17 67 53l8 57c6 33 -6 55 -46 55h-80c-43 0 -62 -20 -67 -55zM72 188l10 64c9 56 43 93 98 101
c-68 33 -65 103 -56 161l10 65c22 139 113 158 218 158h154c113 0 169 -65 150 -189l-8 -49c-4 -26 -27 -91 -95 -101c64 -15 62 -111 55 -154l-13 -82c-25 -158 -115 -162 -207 -162h-152c-185 0 -172 130 -164 188z" />
    <glyph glyph-name="nine.tnum" horiz-adv-x="609" 
d="M277 484c-7 -47 -3 -60 41 -60h146c17 108 10 162 -64 162h-52c-34 0 -56 -10 -64 -55zM68 20l19 124h237c89 0 108 84 121 160c-51 -17 -103 -21 -184 -21c-143 -1 -161 106 -146 201l15 94c19 126 98 156 208 156h140c120 0 188 -100 138 -414
c-42 -266 -138 -310 -227 -321c-103 -12 -232 1 -321 21z" />
    <glyph glyph-name="zero.tosf" horiz-adv-x="609" 
d="M236 215c-10 -65 28 -66 57 -66h72c41 0 67 11 77 65l32 204c8 48 -10 65 -48 65h-84c-56 0 -70 -44 -73 -65zM67 184l42 256c20 126 83 192 203 192h164c154 0 182 -90 167 -184l-43 -264c-19 -118 -78 -184 -195 -184h-164c-120 0 -193 64 -174 184z" />
    <glyph glyph-name="one.tosf" horiz-adv-x="609" 
d="M107 0l21 135h134l50 335c-38 -26 -114 -26 -138 -26l16 106c26 0 110 41 146 82h162l-69 -497h134l-21 -135h-435z" />
    <glyph glyph-name="two.tosf" horiz-adv-x="609" 
d="M44 0l23 143c115 51 389 169 404 262c11 64 -16 79 -101 79h-243l19 122c90 17 163 28 301 28c157 0 211 -102 192 -230c-20 -147 -164 -222 -239 -255h186l-24 -149h-518z" />
    <glyph glyph-name="three.tosf" horiz-adv-x="609" 
d="M38 -78l20 122h238c70 0 102 8 110 60l4 22c9 60 -24 61 -85 65l-182 8l22 133l184 9c69 3 99 11 107 61l3 24c10 57 -35 60 -87 60h-251l19 122c93 30 214 30 330 28c107 -2 175 -82 157 -196l-8 -46c-13 -75 -47 -119 -103 -128c58 -18 68 -91 56 -167l-6 -37
c-18 -118 -98 -168 -220 -168c-114 0 -225 -2 -308 28z" />
    <glyph glyph-name="four.tosf" horiz-adv-x="609" 
d="M38 124l318 508h180l-260 -430h142l25 153l42 77h135l-37 -230h67l-19 -126l-72 -26l-23 -148h-165l23 148h-334z" />
    <glyph glyph-name="five.tosf" horiz-adv-x="609" 
d="M38 -80l21 130h274c64 0 73 39 76 63l8 49c5 32 2 65 -48 65h-71c-33 0 -56 -16 -62 -53h-156l94 458h453l-24 -149h-293l-28 -137c26 17 55 21 74 23c32 3 74 0 91 -1c109 -7 151 -92 137 -197l-16 -112c-22 -137 -126 -161 -222 -163c-124 -2 -178 1 -308 24z" />
    <glyph glyph-name="six.tosf" horiz-adv-x="609" 
d="M254 309c-17 -108 -11 -161 63 -161h54c33 0 56 9 63 55l8 46c8 47 2 60 -42 60h-146zM101 399c42 265 140 325 229 335c102 12 226 -1 321 -20l-20 -125h-236c-90 0 -109 -84 -121 -159c52 16 102 20 183 20c143 1 163 -98 148 -194l-17 -108
c-20 -126 -99 -149 -209 -149h-141c-115 0 -187 85 -137 400z" />
    <glyph glyph-name="seven.tosf" horiz-adv-x="609" 
d="M121 483l24 149h476l30 -70l-342 -662h-177l305 583h-316z" />
    <glyph glyph-name="eight.tosf" horiz-adv-x="609" 
d="M287 494c-7 -46 16 -54 50 -54h79c51 0 60 22 65 54l5 40c10 56 -13 62 -47 62h-75c-44 0 -63 -10 -71 -62zM240 195c-7 -41 7 -53 52 -53h75c43 0 61 17 67 53l8 57c6 33 -6 55 -46 55h-80c-43 0 -62 -20 -67 -55zM72 188l10 64c9 56 43 93 98 101
c-68 33 -65 103 -56 161l10 65c22 139 113 158 218 158h154c113 0 169 -65 150 -189l-8 -49c-4 -26 -27 -91 -95 -101c64 -15 62 -111 55 -154l-13 -82c-25 -158 -115 -162 -207 -162h-152c-185 0 -172 130 -164 188z" />
    <glyph glyph-name="nine.tosf" horiz-adv-x="609" 
d="M261 383c-7 -47 -3 -60 41 -60h146c17 108 10 161 -64 161h-52c-34 0 -56 -9 -64 -55zM52 -82l19 125h237c89 0 108 84 121 159c-51 -16 -103 -20 -184 -20c-143 -1 -161 105 -146 201l15 93c19 126 98 157 208 157h140c120 0 188 -100 138 -415
c-42 -265 -138 -310 -227 -320c-103 -12 -228 -1 -321 20z" />
    <glyph glyph-name="partialdiff" unicode="&#x2202;" horiz-adv-x="628" 
d="M236 230c-9 -58 32 -88 81 -88c83 0 119 113 127 154c-18 11 -50 22 -92 22c-74 0 -108 -38 -116 -88zM73 242c24 151 129 223 271 223c51 0 108 -14 130 -57c18 130 -11 183 -90 183c-77 0 -156 -28 -197 -51l-3 122c74 44 141 78 228 78c186 0 258 -168 224 -383
c-36 -230 -133 -362 -339 -362c-133 0 -247 97 -224 247z" />
    <glyph glyph-name="summation" unicode="&#x2211;" horiz-adv-x="566" 
d="M-5 -200l24 152l264 318l-164 313l24 149h526l-24 -149h-329l168 -317l-249 -314h310l-24 -152h-526z" />
    <glyph glyph-name="product" unicode="&#x220f;" horiz-adv-x="653" 
d="M84 0l92 583h-71l24 149h627l-24 -149h-72l-92 -583h-164l92 583h-156l-92 -583h-164z" />
    <glyph glyph-name="pi" unicode="&#x3c0;" horiz-adv-x="646" 
d="M73 382l24 149h573l-24 -149h-77l-29 -186c-10 -63 8 -74 58 -74h55l-15 -96c-28 -17 -63 -31 -128 -31c-100 0 -157 61 -136 193l31 194h-97l-60 -382h-164l60 382h-71z" />
    <glyph glyph-name="integral" unicode="&#x222b;" horiz-adv-x="443" 
d="M-15 -179l17 101h52c70 0 86 89 99 166l66 418c26 166 91 294 208 294c85 0 108 -18 125 -25l-16 -101h-50c-70 0 -88 -78 -103 -168l-66 -418c-28 -179 -85 -292 -205 -292c-65 0 -108 11 -127 25z" />
    <glyph glyph-name="Omega" unicode="&#x3a9;" horiz-adv-x="757" 
d="M49 0l22 136l105 10c-75 58 -86 177 -68 280c25 153 119 313 381 313c243 0 311 -167 283 -349c-20 -116 -57 -180 -133 -246l97 -10l-21 -134h-258l23 146c88 65 111 139 127 239c13 85 5 205 -135 205c-144 0 -191 -120 -205 -210c-15 -98 -16 -159 56 -234l-24 -146
h-250z" />
    <glyph glyph-name="radical" unicode="&#x221a;" horiz-adv-x="670" 
d="M48 224l24 149h174l44 -150l315 577h179l-434 -800h-162l-79 224h-61z" />
    <glyph glyph-name="florin" unicode="&#x192;" horiz-adv-x="556" 
d="M-15 -179l31 101h52c70 0 97 89 117 166l76 279h-81l34 119h82l4 20c41 150 112 286 228 294c81 6 124 -19 138 -25l-30 -101h-50c-70 0 -96 -78 -121 -168l-5 -20h107l-35 -119h-106l-76 -279c-42 -154 -111 -283 -233 -292c-65 -5 -117 14 -132 25z" />
    <glyph glyph-name="approxequal" unicode="&#x2248;" horiz-adv-x="501" 
d="M104 446c39 32 94 71 158 71c60 0 83 -37 143 -37c47 0 74 14 119 39l15 -70c-42 -36 -91 -74 -153 -74c-48 0 -83 38 -143 38c-51 0 -79 -23 -130 -38zM75 264c39 32 94 70 158 70c60 0 83 -36 143 -36c47 0 74 14 120 38l14 -69c-42 -36 -91 -75 -152 -75
c-49 0 -84 38 -144 38c-50 0 -79 -22 -130 -38z" />
    <glyph glyph-name="uni2206" unicode="&#x2206;" horiz-adv-x="711" 
d="M258 142h281l-87 340zM13 0l427 732h75l183 -732h-685z" />
    <glyph glyph-name="lozenge" unicode="&#x25ca;" horiz-adv-x="508" 
d="M223 367l59 -161l126 175l-62 149zM72 373l264 359h74l144 -359l-260 -373h-74z" />
    <glyph glyph-name="cdotaccent" unicode="&#x10b;" horiz-adv-x="490" 
d="M289 622l13 84c2 15 12 25 28 25h80c15 0 21 -11 19 -25l-13 -84c-2 -15 -12 -23 -26 -23h-80c-14 0 -23 9 -21 23zM75 288c35 220 117 252 217 252c52 0 170 -7 246 -34l-16 -99s-79 7 -168 7c-66 0 -92 -4 -116 -150c-21 -129 0 -143 70 -143c92 0 178 9 178 9
l-16 -100c-76 -30 -141 -37 -261 -35c-100 1 -168 87 -134 293z" />
    <glyph glyph-name="ccircumflex" unicode="&#x109;" horiz-adv-x="490" 
d="M192 598l126 138h116l73 -138h-100l-37 59l-66 -59h-112zM75 288c35 220 117 252 217 252c52 0 170 -7 246 -34l-16 -99s-79 7 -168 7c-66 0 -92 -4 -116 -150c-21 -129 0 -143 70 -143c92 0 178 9 178 9l-16 -100c-76 -30 -141 -37 -261 -35c-100 1 -168 87 -134 293z
" />
    <glyph glyph-name="Hbar" unicode="&#x126;" horiz-adv-x="669" 
d="M288 429h215l14 87h-215zM56 0l82 516h-64l10 70h64l24 146h164l-24 -146h215l24 146h164l-24 -146h63l-10 -70h-63l-82 -516h-164l44 280h-215l-44 -280h-164z" />
    <glyph glyph-name="Hcircumflex" unicode="&#x124;" horiz-adv-x="636" 
d="M295 797l126 137h116l73 -137h-100l-37 59l-66 -59h-112zM55 0l116 732h164l-48 -304h215l48 304h164l-116 -732h-164l44 280h-215l-44 -280h-164z" />
    <glyph glyph-name="Idotaccent" unicode="&#x130;" horiz-adv-x="267" 
d="M204 820l14 84c2 15 12 25 28 25h80c15 0 21 -11 19 -25l-14 -84c-2 -15 -12 -23 -26 -23h-80c-14 0 -23 9 -21 23zM56 0l116 732h164l-116 -732h-164z" />
    <glyph glyph-name="Gbreve" unicode="&#x11e;" horiz-adv-x="615" 
d="M343 912h61c-3 -33 13 -52 46 -52c39 0 57 19 60 52h62c-7 -71 -53 -112 -123 -112c-65 0 -112 43 -106 112zM99 399c44 233 103 341 302 341c131 0 167 -6 281 -37l-20 -125c-19 2 -131 20 -238 20c-84 0 -130 -32 -160 -231c-26 -163 -18 -221 77 -221
c66 0 107 49 107 49l18 104h-79l16 103c47 20 109 24 179 24c21 0 44 0 68 -2l-68 -424h-117l-37 51c-34 -35 -69 -53 -148 -57c-203 -9 -219 207 -181 405z" />
    <glyph glyph-name="Jcircumflex" unicode="&#x134;" horiz-adv-x="355" 
d="M202 797l126 137h116l73 -137h-100l-37 59l-66 -59h-112zM27 24l21 129c96 -5 129 4 143 95l77 484h164l-90 -567c-8 -47 -22 -115 -77 -147c-58 -34 -191 -28 -238 6z" />
    <glyph glyph-name="hbar" unicode="&#x127;" horiz-adv-x="570" 
d="M60 0l96 602h-65l11 70h64l18 110h164l-18 -110h105l-11 -70h-104l-20 -126c54 31 90 64 167 64c130 0 143 -86 125 -192l-55 -348h-164l55 350c8 48 -7 64 -36 64c-42 -1 -76 -13 -108 -42l-59 -372h-165z" />
    <glyph glyph-name="hcircumflex" unicode="&#x125;" horiz-adv-x="552" 
d="M49 842l126 138h116l73 -138h-100l-37 60l-66 -60h-112zM-2 0l124 782h164l-49 -306c42 31 89 64 170 64c130 0 143 -86 125 -192l-55 -348h-164l55 350c8 48 -7 64 -36 64c-48 0 -78 -13 -111 -42l-59 -372h-164z" />
    <glyph glyph-name="jcircumflex" unicode="&#x135;" horiz-adv-x="251" 
d="M61 595l126 138h116l73 -138h-101l-44 58l-65 -58h-105zM6 -270l128 801h165l-85 -535c-13 -86 -31 -184 -83 -266h-125z" />
    <glyph glyph-name="Cdotaccent" unicode="&#x10a;" horiz-adv-x="569" 
d="M384 823l13 84c2 15 12 25 28 25h80c15 0 21 -11 19 -25l-13 -84c-2 -15 -12 -23 -26 -23h-80c-14 0 -23 9 -21 23zM95 391c37 233 110 349 309 349c121 0 176 -10 254 -38l-21 -128c-6 1 -109 18 -211 17c-76 0 -131 4 -167 -225c-27 -164 -10 -221 95 -223
c90 -1 182 6 217 9l-20 -128c-71 -26 -137 -32 -264 -30c-185 2 -228 170 -192 397z" />
    <glyph glyph-name="Ccircumflex" unicode="&#x108;" horiz-adv-x="569" 
d="M284 800l126 138h116l73 -138h-100l-37 59l-66 -59h-112zM95 391c37 233 110 349 309 349c121 0 176 -10 254 -38l-21 -128c-6 1 -109 18 -211 17c-76 0 -131 4 -167 -225c-27 -164 -10 -221 95 -223c90 -1 182 6 217 9l-20 -128c-71 -26 -137 -32 -264 -30
c-185 2 -228 170 -192 397z" />
    <glyph glyph-name="Gdotaccent" unicode="&#x120;" horiz-adv-x="615" 
d="M384 823l14 84c2 15 12 25 28 25h80c15 0 21 -11 19 -25l-14 -84c-2 -15 -12 -23 -26 -23h-80c-14 0 -23 9 -21 23zM99 399c44 233 103 341 302 341c131 0 167 -6 281 -37l-20 -125c-19 2 -131 20 -238 20c-84 0 -130 -32 -160 -231c-26 -163 -18 -221 77 -221
c66 0 107 49 107 49l18 104h-79l16 103c47 20 109 24 179 24c21 0 44 0 68 -2l-68 -424h-117l-37 51c-34 -35 -69 -53 -148 -57c-203 -9 -219 207 -181 405z" />
    <glyph glyph-name="Gcircumflex" unicode="&#x11c;" horiz-adv-x="615" 
d="M283 800l126 137h116l73 -137h-100l-37 59l-66 -59h-112zM99 399c44 233 103 341 302 341c131 0 167 -6 281 -37l-20 -125c-19 2 -131 20 -238 20c-84 0 -130 -32 -160 -231c-26 -163 -18 -221 77 -221c66 0 107 49 107 49l18 104h-79l16 103c47 20 109 24 179 24
c21 0 44 0 68 -2l-68 -424h-117l-37 51c-34 -35 -69 -53 -148 -57c-203 -9 -219 207 -181 405z" />
    <glyph glyph-name="Ubreve" unicode="&#x16c;" horiz-adv-x="653" 
d="M362 910h62c-4 -34 13 -53 45 -53c39 0 57 19 61 53h61c-7 -72 -52 -113 -123 -113c-65 0 -112 43 -106 113zM104 338l63 394h165l-66 -416c-19 -118 -11 -172 90 -172c99 0 125 60 142 172l66 416h165l-62 -439c-44 -278 -182 -298 -333 -298c-144 0 -279 38 -230 343z
" />
    <glyph glyph-name="Scircumflex" unicode="&#x15c;" horiz-adv-x="582" 
d="M253 799l126 137h116l72 -137h-99l-38 59l-66 -59h-111zM68 24l20 128c40 -5 154 -11 247 -11c43 0 78 9 85 53l4 29c6 36 1 58 -51 58h-87c-183 0 -178 151 -170 205l10 80c22 148 119 171 230 172c124 2 216 -8 282 -31l-20 -128c-60 5 -184 10 -234 10
c-59 1 -86 -3 -95 -59l-4 -25c-8 -50 8 -60 61 -60h91c145 0 163 -122 152 -202l-4 -65c-11 -178 -149 -186 -243 -186c-128 0 -194 4 -274 32z" />
    <glyph glyph-name="ubreve" unicode="&#x16d;" horiz-adv-x="551" 
d="M271 711h62c-4 -33 13 -53 45 -53c40 0 57 19 61 53h62c-8 -71 -53 -113 -123 -113c-65 0 -113 43 -107 113zM62 184l56 347h164l-56 -351c-8 -50 8 -62 37 -62c48 0 78 12 111 42l58 371h164l-84 -531h-135l-20 54c-48 -38 -88 -63 -169 -63c-130 0 -143 85 -126 193z
" />
    <glyph glyph-name="scircumflex" unicode="&#x15d;" horiz-adv-x="509" 
d="M187 600l126 137h116l72 -137h-99l-38 58l-66 -58h-111zM53 26l15 100h242c13 0 29 3 33 26l3 17c3 18 -2 27 -25 27h-108c-94 0 -149 60 -133 162l8 47c14 83 59 132 162 132c120 0 254 0 286 -31l-16 -100h-232c-26 0 -35 -9 -38 -28l-2 -17c-6 -29 12 -26 28 -26h113
c106 0 137 -77 125 -155l-10 -60c-16 -110 -90 -126 -152 -126c-120 0 -268 0 -299 32z" />
    <glyph glyph-name="gbreve" unicode="&#x11f;" horiz-adv-x="558" 
d="M273 714h62c-4 -33 13 -52 45 -52c40 0 57 18 61 52h62c-8 -71 -53 -112 -123 -112c-65 0 -113 42 -107 112zM242 285c-16 -101 -23 -159 44 -159c34 0 55 4 87 20l44 276h-81c-70 0 -85 -80 -94 -137zM13 -248l17 109h213c51 0 90 31 100 95l13 84
c-36 -27 -77 -38 -122 -38c-155 0 -186 118 -157 302c29 183 116 238 238 238c106 0 232 -16 282 -33l-91 -575c-23 -141 -100 -223 -262 -206z" />
    <glyph glyph-name="gdotaccent" unicode="&#x121;" horiz-adv-x="558" 
d="M312 624l14 84c2 16 12 26 28 26h80c15 0 21 -12 19 -26l-14 -84c-2 -14 -12 -22 -26 -22h-80c-14 0 -23 8 -21 22zM242 285c-16 -101 -23 -159 44 -159c34 0 55 4 87 20l44 276h-81c-70 0 -85 -80 -94 -137zM13 -248l17 109h213c51 0 90 31 100 95l13 84
c-36 -27 -77 -38 -122 -38c-155 0 -186 118 -157 302c29 183 116 238 238 238c106 0 232 -16 282 -33l-91 -575c-23 -141 -100 -223 -262 -206z" />
    <glyph glyph-name="gcircumflex" unicode="&#x11d;" horiz-adv-x="558" 
d="M216 602l126 137h116l72 -137h-99l-38 58l-66 -58h-111zM242 285c-16 -101 -23 -159 44 -159c34 0 55 4 87 20l44 276h-81c-70 0 -85 -80 -94 -137zM13 -248l17 109h213c51 0 90 31 100 95l13 84c-36 -27 -77 -38 -122 -38c-155 0 -186 118 -157 302
c29 183 116 238 238 238c106 0 232 -16 282 -33l-91 -575c-23 -141 -100 -223 -262 -206z" />
    <glyph glyph-name="gbreve.salt" horiz-adv-x="517" 
d="M238 711h61c-3 -33 13 -53 46 -53c39 0 57 19 60 53h62c-7 -71 -53 -113 -123 -113c-65 0 -112 43 -106 113zM250 344c-8 -49 -8 -76 39 -76h33c42 0 52 41 58 76c9 55 6 70 -35 70h-33c-44 0 -53 -18 -62 -70zM178 -94c-7 -37 4 -47 40 -47h68c32 0 41 15 45 40l2 15
c5 33 -7 40 -38 46l-104 16zM12 -101l42 215c5 36 27 86 77 86c-56 34 -53 114 -45 166c22 142 117 169 214 167l98 -2c68 -1 173 -38 146 -209c-12 -78 -69 -174 -211 -174h-72c-16 0 -41 5 -45 -16c-5 -20 17 -23 37 -26l125 -23c68 -15 138 -57 122 -159l-8 -48
c-14 -84 -50 -146 -197 -146h-116c-144 0 -186 73 -167 169z" />
    <glyph glyph-name="gdotaccent.salt" horiz-adv-x="517" 
d="M289 621l14 84c2 15 12 25 28 25h80c15 0 21 -11 19 -25l-14 -84c-2 -15 -12 -23 -26 -23h-80c-14 0 -23 9 -21 23zM250 344c-8 -49 -8 -76 39 -76h33c42 0 52 41 58 76c9 55 6 70 -35 70h-33c-44 0 -53 -18 -62 -70zM178 -94c-7 -37 4 -47 40 -47h68c32 0 41 15 45 40
l2 15c5 33 -7 40 -38 46l-104 16zM12 -101l42 215c5 36 27 86 77 86c-56 34 -53 114 -45 166c22 142 117 169 214 167l98 -2c68 -1 173 -38 146 -209c-12 -78 -69 -174 -211 -174h-72c-16 0 -41 5 -45 -16c-5 -20 17 -23 37 -26l125 -23c68 -15 138 -57 122 -159l-8 -48
c-14 -84 -50 -146 -197 -146h-116c-144 0 -186 73 -167 169z" />
    <glyph glyph-name="gcircumflex.salt" horiz-adv-x="517" 
d="M183 598l126 138h116l72 -138h-99l-38 59l-66 -59h-111zM250 344c-8 -49 -8 -76 39 -76h33c42 0 52 41 58 76c9 55 6 70 -35 70h-33c-44 0 -53 -18 -62 -70zM178 -94c-7 -37 4 -47 40 -47h68c32 0 41 15 45 40l2 15c5 33 -7 40 -38 46l-104 16zM12 -101l42 215
c5 36 27 86 77 86c-56 34 -53 114 -45 166c22 142 117 169 214 167l98 -2c68 -1 173 -38 146 -209c-12 -78 -69 -174 -211 -174h-72c-16 0 -41 5 -45 -16c-5 -20 17 -23 37 -26l125 -23c68 -15 138 -57 122 -159l-8 -48c-14 -84 -50 -146 -197 -146h-116
c-144 0 -186 73 -167 169z" />
    <glyph glyph-name="f_f" unicode="&#xfb00;" horiz-adv-x="802" 
d="M78 412l16 102l102 17l14 89c10 68 58 156 178 156c48 0 97 -6 135 -24l-15 -96c-1 0 -77 1 -77 1c-50 1 -55 -29 -63 -77l-8 -49h213l15 99c17 104 74 156 194 156c49 0 89 -5 128 -24l-16 -95l-85 1c-53 0 -55 -24 -64 -83l-8 -54h110l-19 -119h-110l-66 -412h-164
l66 412h-215l-65 -412h-164l65 412h-97z" />
    <glyph glyph-name="f_f_i" unicode="&#xfb03;" horiz-adv-x="1020" 
d="M78 412l16 102l102 17l14 89c10 68 58 156 178 156c48 0 97 -6 135 -24l-15 -96c-1 0 -77 1 -77 1c-50 1 -54 -29 -64 -77l-9 -49h200l6 35c19 123 119 217 259 220c55 1 206 -5 245 -24l-15 -95c-1 0 -187 1 -187 1c-54 0 -124 -14 -139 -110l-5 -27l340 -10l-82 -521
h-164l65 412h-178l-65 -412h-164l65 412h-199l-66 -412h-164l65 412h-97z" />
    <glyph glyph-name="ffl" unicode="&#xfb04;" horiz-adv-x="1108" 
d="M78 412l16 102l102 17l14 89c10 68 58 156 178 156c48 0 97 -6 135 -24l-15 -96c-1 0 -77 1 -77 1c-50 1 -55 -29 -64 -77l-9 -49h204l7 43c26 165 121 211 242 212l308 -2l-89 -565c-12 -73 1 -88 26 -100c0 0 48 -21 56 -21l-16 -98h-103c-95 0 -154 48 -132 189
l76 478c-34 0 -113 1 -113 1c-54 0 -80 -21 -91 -94l-7 -43h110l-19 -119h-111l-65 -412h-164l65 412h-202l-66 -412h-164l65 412h-97z" />
    <glyph glyph-name="c_t" horiz-adv-x="853" 
d="M67 285c39 237 126 247 226 247h363l49 147h138l-23 -148h106l-19 -119h-106l-31 -193c-12 -78 0 -90 26 -101c0 0 48 -20 54 -20l-16 -99h-110c-83 0 -144 49 -122 190l35 223l-281 -1c-60 0 -99 10 -126 -153c-22 -133 3 -138 73 -138c92 0 178 8 178 8l-16 -99
c-83 -29 -143 -36 -261 -36c-102 1 -173 67 -137 292z" />
    <glyph glyph-name="s_t" unicode="&#xfb06;" horiz-adv-x="888" 
d="M53 26l15 99h242c13 0 29 4 33 27l3 16c3 18 -2 27 -25 27h-108c-94 0 -146 59 -130 162l5 46c10 84 66 128 168 128h431l49 148h138l-23 -148h106l-20 -118h-105l-30 -194c-12 -78 0 -90 26 -101c0 0 47 -20 52 -20l-16 -99h-109c-84 0 -145 49 -123 190l35 215h-379
c-26 0 -35 -10 -38 -28l-2 -16c-6 -29 12 -26 28 -26h113c106 0 135 -78 122 -156l-7 -59c-13 -109 -90 -125 -152 -125c-82 0 -268 0 -299 32z" />
    <glyph glyph-name="t_t" horiz-adv-x="762" 
d="M78 413l14 86l86 33l50 148h138l-24 -148h221l49 148h139l-24 -148h106l-19 -119h-106l-30 -193c-12 -78 1 -90 26 -102c0 0 47 -20 53 -20l-16 -98h-107c-80 0 -147 49 -125 190l35 223h-220l-32 -193c-12 -78 2 -90 26 -102c0 0 48 -20 54 -20l-16 -98h-107
c-81 0 -147 49 -125 190l36 223h-82z" />
    <glyph glyph-name="f_t" horiz-adv-x="757" 
d="M78 412l16 102l81 17l16 99c17 104 74 156 194 156c49 0 89 -5 127 -24l-15 -95c-1 0 -85 1 -85 1c-54 0 -55 -24 -64 -83l-9 -53h221l48 148h139l-23 -148h105l-19 -119h-105l-30 -193c-12 -78 1 -90 25 -102c0 0 48 -20 53 -20l-15 -98h-107c-81 0 -147 49 -125 190
l35 223h-221l-65 -413h-164l65 412h-78z" />
    <glyph glyph-name="t_y" horiz-adv-x="947" 
d="M78 413l14 86l86 33l50 148h138l-24 -148h142c114 0 166 -49 172 -135l16 -221c3 -36 32 -38 48 -39l114 272c11 28 21 65 26 124h155c12 -66 -10 -135 -30 -180l-153 -352c-114 -258 -268 -284 -338 -296v115c92 47 137 107 174 180c-98 0 -145 52 -153 145l-21 195
c-5 60 -26 73 -85 73h-85l-31 -193c-13 -78 1 -90 25 -102c0 0 48 -20 54 -20l-16 -99h-107c-81 0 -147 50 -125 191l36 223h-82z" />
    <glyph glyph-name="f_y" horiz-adv-x="957" 
d="M78 412l16 102l81 17l16 99c17 104 74 156 194 156c49 0 89 -5 127 -24l-15 -95c-1 0 -85 1 -85 1c-54 0 -55 -24 -64 -83l-9 -54h155c118 1 170 -49 176 -135l17 -221c3 -36 34 -39 46 -39l111 272c11 28 21 65 26 124h155c13 -66 -10 -135 -29 -180l-154 -352
c-113 -258 -268 -284 -338 -296v116c92 46 138 106 175 180c-93 0 -141 52 -150 144l-21 195c-5 61 -26 74 -86 73h-102l-65 -412h-164l65 412h-78z" />
    <glyph glyph-name="kgreenlandic" unicode="&#x138;" horiz-adv-x="582" 
d="M40 0l84 531h165l-33 -209h41l167 209h190l-215 -281l120 -250h-181l-92 204h-48l-33 -204h-165z" />
    <glyph glyph-name="Rcommaaccent" unicode="&#x156;" horiz-adv-x="601" 
d="M218 -274l8 49c27 -1 29 12 31 21l1 9h-9c-13 0 -22 7 -19 23l14 89c2 16 12 24 26 24h86c16 0 20 -11 18 -24l-19 -122c-17 -105 -137 -69 -137 -69zM281 407h123c52 0 72 28 81 94c8 66 -4 89 -50 89h-125zM52 0l116 732h308c119 0 200 -72 174 -250
s-109 -193 -147 -199l103 -283h-186l-81 275l-79 7l-44 -282h-164z" />
    <glyph glyph-name="Itilde" unicode="&#x128;" horiz-adv-x="267" 
d="M101 858c35 35 81 71 134 71c45 -1 63 -35 100 -35c36 -2 79 20 100 39l14 -66c-31 -32 -75 -70 -125 -70c-46 1 -69 35 -108 35c-40 0 -65 -14 -99 -35zM56 0l116 732h164l-116 -732h-164z" />
    <glyph glyph-name="Lcommaaccent" unicode="&#x13b;" horiz-adv-x="527" 
d="M193 -274l8 49c27 -1 29 12 31 21l1 9h-10c-12 0 -21 7 -19 23l14 89c3 16 12 24 27 24h86c16 0 20 -11 18 -24l-20 -122c-16 -105 -136 -69 -136 -69zM76 148l93 584h164l-84 -531c-8 -53 25 -52 54 -52h231l-24 -149h-299c-85 0 -152 40 -135 148z" />
    <glyph glyph-name="Emacron" unicode="&#x112;" horiz-adv-x="558" 
d="M276 792l14 86h292l-14 -86h-292zM72 160l67 420c21 132 111 153 196 152c0 0 221 -4 307 -16l-22 -137h-264c-52 0 -57 -29 -61 -56l-12 -80l266 -11l-22 -135l-269 -9l-14 -86c-8 -53 25 -52 54 -52h255l-22 -136c-80 -10 -303 -17 -303 -17c-72 -3 -177 25 -156 163z
" />
    <glyph glyph-name="Gcommaaccent" unicode="&#x122;" horiz-adv-x="615" 
d="M239 -279l8 49c27 -1 29 12 31 21l2 9h-10c-13 0 -22 7 -19 22l14 90c3 16 12 24 26 24h87c16 0 19 -11 17 -24l-19 -122c-17 -105 -137 -69 -137 -69zM99 399c44 233 103 341 302 341c131 0 167 -6 281 -37l-20 -125c-19 2 -131 20 -238 20c-84 0 -130 -32 -160 -231
c-26 -163 -18 -221 77 -221c66 0 107 49 107 49l18 104h-79l16 103c47 20 109 24 179 24c21 0 44 0 68 -2l-68 -424h-117l-37 51c-34 -35 -69 -53 -148 -57c-203 -9 -219 207 -181 405z" />
    <glyph glyph-name="Tbar" unicode="&#x166;" horiz-adv-x="607" 
d="M116 583l24 149h553l-24 -149h-198l-24 -154h90l-11 -69h-90l-57 -360h-164l57 360h-90l11 69h90l24 154h-191z" />
    <glyph glyph-name="rcommaaccent" unicode="&#x157;" horiz-adv-x="414" 
d="M42 -274l8 49c27 -1 29 12 31 21l2 9h-10c-13 0 -22 7 -19 23l14 89c3 16 12 24 26 24h87c16 0 19 -11 17 -24l-19 -122c-17 -105 -137 -69 -137 -69zM62 0l84 531h142l12 -67c34 36 87 72 147 72c21 0 39 0 53 -6l-25 -157c-15 1 -47 1 -77 1c-50 0 -94 -5 -122 -59
l-50 -315h-164z" />
    <glyph glyph-name="itilde" unicode="&#x129;" horiz-adv-x="237" 
d="M33 659c34 35 81 71 133 71c45 0 63 -34 100 -34c36 -2 79 20 100 38l14 -66c-31 -32 -75 -70 -124 -70c-47 1 -70 36 -108 35c-41 0 -65 -13 -100 -35zM30 0l84 531h164l-84 -531h-164z" />
    <glyph glyph-name="lcommaaccent" unicode="&#x13c;" horiz-adv-x="314" 
d="M69 -274l8 49c27 -1 29 12 31 21l2 9h-10c-13 0 -22 7 -19 23l14 89c3 16 12 24 26 24h87c16 0 19 -11 17 -24l-19 -122c-17 -105 -137 -69 -137 -69zM68 189l94 594h164l-89 -564c-12 -77 2 -89 27 -100c0 0 47 -20 52 -20l-15 -99h-98c-95 0 -157 51 -135 189z" />
    <glyph glyph-name="emacron" unicode="&#x113;" horiz-adv-x="528" 
d="M209 594l14 85h292l-14 -85h-292zM244 307c0 0 134 -28 149 55c7 42 -14 53 -58 52c-71 -1 -81 -50 -91 -107zM76 308c30 163 76 232 271 233c110 1 220 -29 214 -153c-11 -250 -293 -202 -330 -187c-11 -66 9 -81 80 -81c53 -1 149 8 205 18l-20 -116
c-78 -24 -165 -38 -286 -29c-128 8 -170 121 -134 315z" />
    <glyph glyph-name="gcommaaccent" unicode="&#x123;" horiz-adv-x="625" 
d="M333 628l19 121c17 105 137 69 137 69l-8 -49c-27 1 -30 -12 -31 -21l-2 -9h10c13 0 21 -7 19 -22l-13 -89c-4 -16 -13 -24 -28 -24h-86c-16 0 -19 10 -17 24zM259 285c-16 -101 -23 -159 45 -159c33 0 54 4 86 20l45 276h-81c-70 0 -86 -80 -95 -137zM30 -248l18 109
h212c52 0 90 31 100 95l14 84c-36 -27 -78 -38 -122 -38c-155 0 -186 118 -158 302c30 183 116 238 238 238c106 0 232 -16 282 -33l-91 -575c-22 -141 -100 -223 -261 -206z" />
    <glyph glyph-name="gcommaaccent.salt" horiz-adv-x="517" 
d="M293 620l19 122c17 105 136 69 136 69l-6 -49c-28 0 -31 -12 -32 -22l-2 -8h10c14 0 22 -8 20 -22l-14 -90c-4 -16 -13 -24 -27 -24h-87c-16 0 -19 10 -17 24zM250 344c-8 -49 -8 -76 39 -76h33c42 0 52 41 58 76c9 55 6 70 -35 70h-33c-44 0 -53 -18 -62 -70zM178 -94
c-7 -37 4 -46 40 -46h68c32 0 41 14 45 39l2 15c5 33 -7 40 -38 46l-104 16zM12 -101l42 215c5 36 27 86 77 86c-56 34 -53 114 -45 166c22 142 117 169 214 167l98 -2c68 -1 173 -38 146 -209c-12 -78 -69 -174 -211 -174h-72c-16 0 -41 5 -45 -16c-5 -20 17 -23 37 -26
l125 -23c68 -15 138 -57 122 -159l-8 -48c-14 -84 -50 -146 -197 -146h-116c-144 0 -186 73 -167 169z" />
    <glyph glyph-name="tbar" unicode="&#x167;" horiz-adv-x="373" 
d="M60 253l11 69h67l14 91h-81l13 86l87 33l48 148h139l-23 -148h105l-18 -119h-106l-14 -91h74l-11 -69h-75l-5 -33c-12 -78 1 -90 26 -102c0 0 48 -20 53 -20l-15 -98h-107c-81 0 -147 49 -125 190l9 63h-66z" />
    <glyph glyph-name="Eng" unicode="&#x14a;" horiz-adv-x="672" 
d="M54 0l116 732h165l182 -429l68 429h164l-116 -731l-11 -70c-29 -183 -179 -198 -297 -188l19 117c54 5 103 4 114 78l11 64l-183 420l-67 -422h-165z" />
    <glyph glyph-name="eng" unicode="&#x14b;" horiz-adv-x="559" 
d="M40 0l84 531h135l21 -55c54 31 88 64 169 64c130 0 143 -86 126 -192l-55 -348l-11 -60c-29 -167 -175 -204 -241 -208l-23 90c54 18 85 30 100 114l11 64l55 350c7 48 -8 64 -37 64c-48 0 -78 -13 -110 -42l-60 -372h-164z" />
    <glyph glyph-name="Amacron" unicode="&#x100;" horiz-adv-x="698" 
d="M345 797l13 85h292l-13 -85h-292zM344 289h139l-33 235zM30 0l355 732h190l115 -732h-168l-26 147h-215l-69 -147h-182z" />
    <glyph glyph-name="Iogonek" unicode="&#x12e;" horiz-adv-x="267" 
d="M56 0l116 732h164l-116 -732h-46c-85 -56 -53 -111 -5 -105l-13 -83c-106 -29 -192 113 -43 188h-57z" />
    <glyph glyph-name="Edotaccent" unicode="&#x116;" horiz-adv-x="558" 
d="M371 820l14 84c2 15 12 25 28 25h80c15 0 21 -11 19 -25l-14 -84c-2 -15 -12 -23 -26 -23h-80c-14 0 -23 9 -21 23zM72 160l67 420c21 132 111 153 196 152c0 0 221 -4 307 -16l-22 -137h-264c-52 0 -57 -29 -61 -56l-12 -80l266 -11l-22 -135l-269 -9l-14 -86
c-8 -53 25 -52 54 -52h255l-22 -136c-80 -10 -303 -17 -303 -17c-72 -3 -177 25 -156 163z" />
    <glyph glyph-name="Imacron" unicode="&#x12a;" horiz-adv-x="267" 
d="M104 796l13 85h292l-13 -85h-292zM44 0l116 732h164l-116 -732h-164z" />
    <glyph glyph-name="Ncommaaccent" unicode="&#x145;" horiz-adv-x="672" 
d="M251 -274l8 49c27 -1 29 12 31 21l1 9h-9c-13 0 -22 7 -19 23l14 89c2 16 11 24 26 24h86c17 0 20 -11 18 -24l-19 -122c-17 -105 -137 -69 -137 -69zM54 0l116 732h165l182 -433l68 433h164l-116 -732h-163l-184 425l-67 -425h-165z" />
    <glyph glyph-name="Omacron" unicode="&#x14c;" horiz-adv-x="666" 
d="M320 796l14 85h292l-14 -85h-292zM263 361c-28 -179 -11 -216 99 -216c100 0 141 37 169 216c32 202 1 227 -98 227s-137 -18 -170 -227zM99 380c54 343 185 357 355 357c173 0 294 -55 241 -395c-50 -323 -175 -346 -353 -346c-176 0 -296 51 -243 384z" />
    <glyph glyph-name="Kcommaaccent" unicode="&#x136;" horiz-adv-x="638" 
d="M221 -274l8 49c27 -1 29 12 31 21l1 9h-10c-12 0 -21 7 -19 23l14 89c3 16 12 24 27 24h86c16 0 20 -11 18 -24l-20 -122c-16 -105 -136 -69 -136 -69zM54 0l116 732h156l-47 -298h44l215 298h198l-270 -380l154 -352h-186l-117 292h-60l-46 -292h-157z" />
    <glyph glyph-name="Uogonek" unicode="&#x172;" horiz-adv-x="653" 
d="M104 338l63 394h165l-66 -416c-19 -118 -11 -172 90 -172c99 0 125 60 142 172l66 416h165l-62 -439c-41 -259 -163 -294 -302 -298c-77 -54 -45 -105 2 -100l-13 -83c-105 -28 -190 108 -53 184c-130 6 -242 60 -197 342z" />
    <glyph glyph-name="Utilde" unicode="&#x168;" horiz-adv-x="653" 
d="M295 858c34 35 81 71 133 71c46 -1 63 -35 100 -35c36 -2 79 20 100 39l14 -66c-31 -32 -75 -70 -124 -70c-46 1 -70 35 -108 35c-40 0 -65 -14 -99 -35zM104 338l63 394h165l-66 -416c-19 -118 -11 -172 90 -172c99 0 125 60 142 172l66 416h165l-62 -439
c-44 -278 -182 -298 -333 -298c-144 0 -279 38 -230 343z" />
    <glyph glyph-name="Umacron" unicode="&#x16a;" horiz-adv-x="653" 
d="M104 338l63 394h165l-66 -416c-19 -118 -11 -172 90 -172c99 0 125 60 142 172l66 416h165l-62 -439c-44 -278 -182 -298 -333 -298c-144 0 -279 38 -230 343zM313 797l13 85h292l-13 -85h-292z" />
    <glyph glyph-name="amacron" unicode="&#x101;" horiz-adv-x="544" 
d="M74 304c44 220 164 234 263 237c79 2 195 -13 246 -62l-70 -477h-128l-25 52c-26 -38 -93 -60 -152 -60c-100 0 -176 98 -134 310zM234 279c-13 -87 -13 -150 44 -150c50 0 77 19 96 51l34 227c-22 9 -58 13 -83 7c-38 -8 -74 -22 -91 -135zM205 601l13 86h292l-13 -86
h-292z" />
    <glyph glyph-name="iogonek" unicode="&#x12f;" horiz-adv-x="237" 
d="M37 0l84 531h164l-84 -531h-164zM130 607l15 101c2 15 12 25 28 25h125c15 0 20 -11 18 -25l-15 -101c-2 -15 -13 -23 -27 -23h-124c-14 0 -22 9 -20 23zM88 4h62c-87 -57 -55 -112 -6 -106l-13 -83c-108 -29 -194 114 -43 189z" />
    <glyph glyph-name="edotaccent" unicode="&#x117;" horiz-adv-x="528" 
d="M76 308c30 163 76 232 271 233c110 1 220 -29 214 -153c-11 -250 -293 -202 -330 -187c-11 -66 9 -81 80 -81c53 -1 149 8 205 18l-20 -116c-78 -24 -165 -38 -286 -29c-128 8 -170 121 -134 315zM244 307c0 0 134 -28 149 55c7 42 -14 53 -58 52
c-71 -1 -81 -50 -91 -107zM298 624l14 84c2 15 12 25 28 25h80c15 0 21 -11 19 -25l-14 -84c-2 -15 -12 -23 -26 -23h-80c-14 0 -23 9 -21 23z" />
    <glyph glyph-name="imacron" unicode="&#x12b;" horiz-adv-x="237" 
d="M30 0l84 531h164l-84 -531h-164zM56 598l14 86h292l-14 -86h-292z" />
    <glyph glyph-name="ncommaaccent" unicode="&#x146;" horiz-adv-x="552" 
d="M40 0l84 531h135l21 -55c45 32 88 64 169 64c130 0 143 -86 126 -192l-55 -348h-164l55 350c7 48 -8 64 -37 64c-48 0 -78 -13 -110 -42l-60 -372h-164zM180 -274l8 49c27 -1 30 12 31 21l2 9h-10c-13 0 -22 7 -19 23l14 89c3 16 12 24 26 24h87c16 0 19 -11 18 -24
l-20 -122c-17 -105 -137 -69 -137 -69z" />
    <glyph glyph-name="omacron" unicode="&#x14d;" horiz-adv-x="555" 
d="M73 277c34 217 107 261 289 261c181 0 234 -94 202 -299c-32 -197 -98 -244 -285 -244c-183 0 -236 92 -206 282zM237 258c-20 -122 -4 -136 60 -136c67 0 82 9 103 136c20 129 14 154 -58 154s-84 -22 -105 -154zM226 598l13 86h292l-13 -86h-292z" />
    <glyph glyph-name="kcommaaccent" unicode="&#x137;" horiz-adv-x="545" 
d="M40 -2l124 782h164l-69 -436c74 29 149 95 177 185h172c-38 -140 -121 -210 -180 -243l148 -288h-180l-116 235l-38 -1l-38 -234h-164zM200 -274l8 49c27 -1 29 12 31 21l1 9h-9c-13 0 -22 7 -19 23l14 89c2 16 12 24 26 24h86c16 0 20 -11 18 -24l-19 -122
c-17 -105 -137 -69 -137 -69z" />
    <glyph glyph-name="uogonek" unicode="&#x173;" horiz-adv-x="561" 
d="M62 184l56 347h164l-56 -351c-8 -50 8 -62 37 -62c48 0 78 12 111 42l58 371h164l-84 -531h-135l-20 54c-48 -38 -88 -63 -169 -63c-130 0 -143 85 -126 193zM413 -2h61c-86 -56 -54 -111 -6 -106l-13 -82c-107 -30 -193 114 -42 188z" />
    <glyph glyph-name="utilde" unicode="&#x169;" horiz-adv-x="551" 
d="M62 184l56 347h164l-56 -351c-8 -50 8 -62 37 -62c48 0 78 12 111 42l58 371h164l-84 -531h-135l-20 54c-48 -38 -88 -63 -169 -63c-130 0 -143 85 -126 193zM204 659c35 35 81 71 133 71c46 0 63 -34 100 -34c36 -2 79 20 100 38l15 -66c-31 -32 -76 -70 -125 -70
c-46 1 -70 36 -108 35c-40 0 -65 -13 -99 -35z" />
    <glyph glyph-name="umacron" unicode="&#x16b;" horiz-adv-x="551" 
d="M62 184l56 347h164l-56 -351c-8 -50 8 -62 37 -62c48 0 78 12 111 42l58 371h164l-84 -531h-135l-20 54c-48 -38 -88 -63 -169 -63c-130 0 -143 85 -126 193zM222 598l14 86h292l-14 -86h-292z" />
    <glyph glyph-name="exclam.smcp" horiz-adv-x="272" 
d="M63 23l17 102c2 15 12 25 28 25h100c15 0 21 -11 19 -25l-17 -102c-2 -15 -12 -23 -26 -23h-100c-14 0 -23 9 -21 23zM99 190l47 380h159l-79 -380h-127z" />
    <glyph glyph-name="quotedbl.smcp" horiz-adv-x="467" 
d="M130 386l9 134l11 68h156l-10 -68l-32 -134h-134zM326 386l10 134l11 68h157l-11 -68l-31 -134h-136z" />
    <glyph glyph-name="numbersign.smcp" horiz-adv-x="625" 
d="M35 142l35 112h119l28 85h-120l35 112h120l44 136h112l-44 -136h86l43 136h112l-43 -136h123l-34 -112h-124l-28 -85h123l-34 -112h-124l-46 -142h-112l45 142h-85l-46 -142h-112l46 142h-119zM301 254h86l27 85h-85z" />
    <glyph glyph-name="dollar.smcp" horiz-adv-x="526" 
d="M56 15l18 115c8 0 136 -5 231 -5c27 0 44 16 47 33l4 20c4 26 -10 33 -35 33h-94c-127 0 -149 91 -135 178l5 35c16 100 74 148 192 150l12 78h97l-12 -82c55 -4 122 -12 167 -20l-18 -117s-140 7 -226 7c-25 0 -44 -11 -49 -38l-2 -17c-4 -24 7 -33 35 -33h103
c121 0 138 -101 124 -186l-5 -32c-23 -147 -101 -143 -221 -143l-12 -76h-97l12 79c-58 4 -123 10 -141 21z" />
    <glyph glyph-name="percent.smcp" horiz-adv-x="996" 
d="M72 347l16 105c13 85 48 126 152 126h90c95 0 132 -54 119 -140l-17 -106c-13 -87 -48 -125 -150 -125h-89c-93 0 -134 55 -121 140zM185 362c-4 -29 0 -45 37 -45h52c39 0 48 17 52 45l10 60c6 38 -4 46 -36 46h-53c-31 0 -47 -9 -52 -46zM299 0l370 570h111l-365 -570
h-116zM638 140l16 106c13 84 48 125 152 125h89c95 0 133 -54 120 -140l-17 -106c-12 -87 -48 -125 -149 -125h-90c-92 0 -134 56 -121 140zM752 155c-4 -29 -2 -45 35 -45h52c39 0 49 17 53 45l9 61c6 37 -3 45 -36 45h-52c-31 0 -47 -9 -53 -45z" />
    <glyph glyph-name="ampersand.smcp" horiz-adv-x="594" 
d="M66 84c-46 100 -4 167 78 231l55 42l-19 32c-48 84 18 171 88 181c78 12 180 -5 226 -20l-18 -114h-100c-34 0 -55 -13 -35 -47l73 -126l122 80l52 -71l-72 -95l-36 -27l92 -150h-165l-40 64l-41 -32c-56 -43 -204 -70 -260 52zM197 153c13 -20 32 -30 61 -9l41 32
l-39 68l-44 -32c-29 -20 -31 -39 -19 -59z" />
    <glyph glyph-name="quotesingle.smcp" horiz-adv-x="269" 
d="M129 386l10 134l11 68h156l-10 -68l-32 -134h-135z" />
    <glyph glyph-name="asterisk.smcp" horiz-adv-x="422" 
d="M96 397l10 62l142 22l-9 -89zM126 248l46 137l83 -22l-73 -134zM230 294l61 75l98 -90l-44 -50zM249 552l63 20l45 -124l-88 -33zM299 402l131 80l28 -52l-114 -97z" />
    <glyph glyph-name="zero.smcp" horiz-adv-x="559" 
d="M72 177l36 246c16 113 99 147 198 147h134c146 0 146 -121 137 -177l-35 -246c-17 -119 -92 -147 -193 -147h-134c-91 0 -162 57 -143 177zM240 202c-9 -52 12 -53 41 -53h48c39 0 50 22 55 54l26 158c5 35 9 60 -39 60h-49c-46 0 -53 -27 -58 -59z" />
    <glyph glyph-name="one.smcp" horiz-adv-x="366" 
d="M86 382l16 106c22 0 102 41 138 82h162l-87 -570h-164l63 408c-37 -26 -104 -26 -128 -26z" />
    <glyph glyph-name="two.smcp" horiz-adv-x="518" 
d="M34 0l23 143c87 33 307 130 321 221c8 48 -7 63 -92 63h-191l19 121c85 20 114 29 245 29c152 0 206 -89 186 -219c-19 -120 -121 -184 -182 -209h146l-24 -149h-451z" />
    <glyph glyph-name="three.smcp" horiz-adv-x="504" 
d="M27 16l19 124h221c25 0 46 5 50 31l1 10c5 29 -10 33 -39 34l-171 5l20 129l173 4c35 1 47 5 52 34l2 11c5 26 -9 30 -41 30h-227l20 123c73 24 196 24 291 22c90 -2 138 -69 125 -151l-3 -27c-9 -57 -25 -100 -79 -113c44 -22 49 -71 40 -130l-3 -18
c-14 -94 -60 -136 -176 -139c-90 -3 -210 -3 -275 21z" />
    <glyph glyph-name="four.smcp" horiz-adv-x="561" 
d="M44 198l232 372h172l-187 -309h104l17 105l52 90h126l-31 -195h60l-19 -127l-64 -18l-18 -114h-164l18 114h-267z" />
    <glyph glyph-name="five.smcp" horiz-adv-x="525" 
d="M54 23l20 123h230c31 0 44 8 48 36l3 20c5 27 3 37 -33 37h-50c-20 0 -46 -6 -51 -37h-137l75 368h393l-24 -149h-254l-20 -83c23 21 52 25 76 26c9 2 21 1 49 1c118 0 155 -69 139 -173l-7 -48c-19 -119 -98 -144 -190 -145c-99 -1 -188 1 -267 24z" />
    <glyph glyph-name="six.smcp" horiz-adv-x="534" 
d="M89 315c34 221 133 261 220 261c79 0 181 1 257 -15l-21 -135h-214c-55 0 -65 -42 -70 -77c54 10 91 11 149 12c100 0 132 -80 119 -161l-9 -56c-18 -111 -81 -145 -160 -145h-117c-115 0 -193 64 -154 316zM243 238c-7 -49 -10 -89 31 -89h49c23 0 34 5 38 33l3 27
c4 25 -3 29 -26 29h-95z" />
    <glyph glyph-name="seven.smcp" horiz-adv-x="477" 
d="M87 421l23 149h392l35 -70l-263 -500h-176l223 421h-234z" />
    <glyph glyph-name="eight.smcp" horiz-adv-x="554" 
d="M71 145l9 55c8 58 48 70 81 78c-47 17 -56 71 -51 112l4 43c20 122 80 142 172 142h166c84 0 141 -43 122 -157l-6 -36c-4 -16 -16 -73 -74 -85c40 -10 48 -71 44 -105l-12 -70c-17 -113 -100 -122 -160 -122h-178c-122 0 -127 87 -117 145zM238 170c-5 -31 4 -35 36 -35
h53c28 0 37 5 41 33l4 27c4 26 -2 34 -28 34h-62c-21 0 -34 -5 -39 -31zM272 381c-4 -22 3 -34 28 -34h65c31 0 34 17 36 31l5 30c4 26 -4 32 -28 32h-60c-24 0 -37 -3 -42 -32z" />
    <glyph glyph-name="nine.smcp" horiz-adv-x="533" 
d="M60 14l22 135h214c55 0 65 41 70 77c-73 -11 -102 -12 -157 -12c-101 0 -123 83 -111 164l9 56c18 111 80 142 159 142h118c114 0 192 -67 154 -319c-35 -221 -132 -258 -220 -258c-79 0 -181 -1 -258 15zM262 366c-4 -26 2 -29 26 -29h96c7 49 8 89 -33 89h-49
c-22 0 -32 -6 -36 -34z" />
    <glyph glyph-name="question.smcp" horiz-adv-x="463" 
d="M80 420l20 133c64 11 156 24 240 20c119 0 179 -61 160 -190l-4 -26c-17 -109 -97 -154 -204 -133c0 -1 -6 -34 -5 -35h-121l22 145h98c31 1 41 8 46 34l2 15c4 31 -10 37 -48 37h-206zM124 23l17 102c2 15 12 25 28 25h98c18 0 24 -9 21 -25l-16 -102
c-4 -18 -15 -23 -29 -23h-98c-14 0 -23 9 -21 23z" />
    <glyph glyph-name="at.smcp" horiz-adv-x="906" 
d="M52 64l75 475c27 163 123 200 273 200h360c156 0 190 -104 170 -245l-47 -317c-14 -94 -57 -156 -201 -156h-107l-24 52c-19 -25 -52 -61 -125 -59c-122 2 -181 102 -152 292c34 221 141 257 238 257c106 0 175 -18 226 -67l-50 -349c48 0 62 9 74 90l40 272
c14 95 -14 110 -77 110h-352c-95 0 -112 -60 -120 -110l-73 -460c-9 -57 2 -99 88 -99h386l-17 -99c-50 -10 -166 -27 -292 -27h-90c-186 0 -221 120 -203 240zM400 287c-11 -74 -15 -149 57 -147c55 2 91 20 111 68l34 222c-36 7 -68 8 -96 8c-56 0 -89 -33 -106 -151z" />
    <glyph glyph-name="a.smcp" horiz-adv-x="612" 
d="M24 0l278 570h201l87 -570h-159l-18 103h-168l-49 -103h-172zM303 230h97l-24 145z" />
    <glyph glyph-name="b.smcp" horiz-adv-x="549" 
d="M54 0l90 571h270c124 0 186 -53 169 -161c-13 -83 -57 -116 -105 -119c45 -7 80 -63 68 -144c-20 -126 -95 -147 -221 -147h-271zM240 135h92c21 0 45 7 51 52c5 35 -3 52 -35 52h-92zM274 351h92c34 0 44 13 49 45c5 30 -6 41 -35 41h-93z" />
    <glyph glyph-name="c.smcp" horiz-adv-x="512" 
d="M84 322c28 174 91 256 272 256c87 0 156 -6 220 -32l-17 -112c-15 3 -114 18 -179 18c-102 0 -116 -52 -132 -157c-14 -90 -35 -171 80 -173c81 1 184 17 184 17l-18 -109c-73 -31 -124 -34 -230 -34c-202 0 -206 160 -180 326z" />
    <glyph glyph-name="d.smcp" horiz-adv-x="582" 
d="M54 0l91 572h274c182 -2 194 -163 176 -312c-34 -274 -179 -260 -264 -260h-277zM240 142h92c67 0 87 67 99 141c17 108 -5 147 -53 147h-92z" />
    <glyph glyph-name="e.smcp" horiz-adv-x="510" 
d="M71 113l53 338c14 87 76 119 153 120c0 0 225 -3 293 -16l-20 -125h-233c-30 0 -33 -8 -37 -32l-8 -46l225 -8l-19 -121l-227 -7l-7 -44c-5 -30 10 -32 31 -32h229l-20 -125c-88 -19 -317 -17 -317 -17c-68 2 -109 37 -96 115z" />
    <glyph glyph-name="f.smcp" horiz-adv-x="511" 
d="M54 0l71 451c14 87 76 119 153 120c0 0 225 -3 292 -16l-19 -125h-233c-30 0 -33 -9 -38 -32l-9 -62l225 -8l-19 -120l-228 -8l-31 -200h-164z" />
    <glyph glyph-name="g.smcp" horiz-adv-x="563" 
d="M82 314c29 184 88 258 245 265c85 5 213 -3 274 -25l-18 -114c-82 10 -136 12 -201 12c-86 0 -111 -10 -135 -164c-10 -60 -28 -146 55 -147c44 0 82 19 91 45l7 47h-72l13 87c42 11 92 17 173 17c21 0 42 -1 66 -3l-53 -334h-123l-31 44c-35 -36 -73 -51 -147 -51
c-199 0 -152 271 -144 321z" />
    <glyph glyph-name="h.smcp" horiz-adv-x="581" 
d="M53 -1l90 571h164l-35 -220h161l35 220h164l-90 -571h-164l32 201h-161l-32 -201h-164z" />
    <glyph glyph-name="i.smcp" horiz-adv-x="257" 
d="M54 0l90 570h164l-90 -570h-164z" />
    <glyph glyph-name="j.smcp" horiz-adv-x="336" 
d="M27 21l21 129c95 -4 110 16 121 75l55 345h164l-64 -405c-7 -46 -32 -123 -92 -149c-74 -33 -161 -24 -205 5z" />
    <glyph glyph-name="k.smcp" horiz-adv-x="578" 
d="M53 -1l90 571h156l-35 -224h48l155 224h179l-195 -300l112 -271h-175l-88 213h-57l-34 -213h-156z" />
    <glyph glyph-name="l.smcp" horiz-adv-x="503" 
d="M74 131l70 439h164l-58 -364c-9 -58 18 -57 59 -57h195l-23 -149h-296c-73 0 -125 39 -111 131z" />
    <glyph glyph-name="m.smcp" horiz-adv-x="776" 
d="M37 0l143 571h214l28 -346l137 346h219l-38 -571h-161l19 330l-123 -330h-167l-26 329l-80 -329h-165z" />
    <glyph glyph-name="n.smcp" horiz-adv-x="601" 
d="M54 0l90 571h161l140 -293l44 293h163l-90 -571h-160l-138 290l-46 -290h-164z" />
    <glyph glyph-name="o.smcp" horiz-adv-x="594" 
d="M81 299c39 244 137 276 303 276c163 0 260 -51 219 -307c-39 -245 -136 -273 -304 -273c-161 0 -257 55 -218 304zM246 285c-19 -119 -7 -141 73 -141c71 0 101 18 120 143c21 128 2 139 -75 139c-66 0 -98 -10 -118 -141z" />
    <glyph glyph-name="p.smcp" horiz-adv-x="529" 
d="M40 0l90 569h279c105 0 173 -53 153 -199c-24 -184 -135 -183 -199 -184c-25 -1 -125 7 -127 12l-31 -198h-165zM253 304h89c26 0 45 12 54 65c7 43 -1 66 -34 66h-88z" />
    <glyph glyph-name="q.smcp" horiz-adv-x="594" 
d="M81 295c39 244 137 280 303 280c163 0 260 -47 219 -303c-39 -245 -136 -277 -304 -277c-161 0 -257 51 -218 300zM246 285c-19 -119 -7 -141 73 -141c71 0 101 18 120 143c21 128 2 139 -75 139c-66 0 -98 -10 -118 -141zM250 -33h89c11 -57 95 -45 156 -31l-20 -125
c-115 -21 -243 18 -225 156z" />
    <glyph glyph-name="r.smcp" 
d="M40 0l90 570h269c101 0 181 -60 161 -209c-15 -111 -55 -141 -104 -155l70 -206h-172l-51 192c-7 1 -67 7 -67 8l-32 -200h-164zM253 305h87c26 0 45 13 54 65c8 47 -8 66 -34 66h-86z" />
    <glyph glyph-name="s.smcp" horiz-adv-x="538" 
d="M61 15l18 115s143 -6 245 -6c29 0 36 20 38 28l5 28c4 24 -6 29 -29 29h-115c-114 0 -143 72 -129 169l7 43c13 87 59 152 187 152c52 0 194 -5 274 -24l-18 -117s-130 8 -240 8c-25 0 -37 -16 -40 -35l-4 -23c-4 -26 6 -31 30 -31h122c118 0 133 -88 120 -174l-7 -40
c-19 -123 -87 -147 -169 -147c-46 0 -258 1 -295 25z" />
    <glyph glyph-name="t.smcp" horiz-adv-x="522" 
d="M90 421l24 149h476l-24 -149h-156l-67 -421h-164l67 421h-156z" />
    <glyph glyph-name="u.smcp" horiz-adv-x="595" 
d="M93 282l49 288h165l-49 -310c-16 -100 14 -116 71 -116c55 0 87 18 102 116l49 310h165l-49 -332c-37 -234 -162 -243 -284 -243c-136 0 -258 49 -219 287z" />
    <glyph glyph-name="v.smcp" horiz-adv-x="614" 
d="M114 570h170l52 -372l169 372h176l-269 -570h-201z" />
    <glyph glyph-name="w.smcp" horiz-adv-x="848" 
d="M114 570h170l31 -373l143 373h170l-63 -148l38 -225l143 373h171l-242 -570h-201l-21 153l-66 -153h-202z" />
    <glyph glyph-name="x.smcp" horiz-adv-x="600" 
d="M24 0l220 292l-127 278h196l57 -156l99 156h199l-228 -295l133 -275h-189l-66 147l-96 -147h-198z" />
    <glyph glyph-name="y.smcp" horiz-adv-x="595" 
d="M114 570h172l68 -196l125 196h183l-246 -372l-31 -199h-164l31 199z" />
    <glyph glyph-name="z.smcp" horiz-adv-x="502" 
d="M24 0l24 149l288 272h-245l23 149h456l-23 -149l-277 -272h234l-24 -149h-456z" />
    <glyph glyph-name="grave.smcp" horiz-adv-x="245" 
d="M119 672h131l66 -141h-98z" />
    <glyph glyph-name="aogonek.smcp" horiz-adv-x="638" 
d="M24 0l278 570h201l87 -570h-159l-18 103h-168l-49 -103h-172zM303 230h97l-24 145zM488 1h62c-88 -57 -55 -112 -7 -106l-13 -83c-107 -29 -193 114 -42 189z" />
    <glyph glyph-name="rcommaaccent.smcp" 
d="M40 0l90 570h269c101 0 181 -60 161 -209c-15 -111 -55 -141 -104 -155l70 -206h-172l-51 192c-7 1 -67 7 -67 8l-32 -200h-164zM253 305h87c26 0 45 13 54 65c8 47 -8 66 -34 66h-86zM185 -270l8 49c27 -1 30 12 31 21l2 9h-10c-13 0 -22 7 -19 22l14 89
c3 17 12 25 26 25h87c16 0 19 -11 18 -25l-20 -121c-17 -105 -137 -69 -137 -69z" />
    <glyph glyph-name="itilde.smcp" horiz-adv-x="257" 
d="M54 0l90 570h164l-90 -570h-164zM71 690c35 36 81 72 133 72c46 -1 64 -34 100 -35s80 21 100 39l15 -66c-31 -32 -75 -70 -125 -70c-46 0 -70 35 -108 35c-40 0 -65 -13 -99 -35z" />
    <glyph glyph-name="lcommaaccent.smcp" horiz-adv-x="503" 
d="M74 131l70 439h164l-58 -364c-9 -58 18 -57 59 -57h195l-23 -149h-296c-73 0 -125 39 -111 131zM174 -282l8 49c27 -1 29 12 31 21l1 10h-9c-13 0 -22 7 -19 22l14 89c2 16 12 24 26 24h86c16 0 20 -10 18 -24l-19 -121c-17 -105 -137 -70 -137 -70z" />
    <glyph glyph-name="dieresis.smcp" horiz-adv-x="444" 
d="M126 582c5 34 37 61 71 61s57 -27 52 -61s-37 -62 -71 -62s-58 28 -52 62zM380 582c6 34 38 61 72 61s58 -27 52 -61s-38 -62 -72 -62s-57 28 -52 62z" />
    <glyph glyph-name="scaron.smcp" horiz-adv-x="538" 
d="M61 15l18 115s143 -6 245 -6c29 0 36 20 38 28l5 28c4 24 -6 29 -29 29h-115c-114 0 -143 72 -129 169l7 43c13 87 59 152 187 152c52 0 194 -5 274 -24l-18 -117s-130 8 -240 8c-25 0 -37 -16 -40 -35l-4 -23c-4 -26 6 -31 30 -31h122c118 0 133 -88 120 -174l-7 -40
c-19 -123 -87 -147 -169 -147c-46 0 -258 1 -295 25zM227 770h99l41 -58l63 58h111l-126 -137h-112z" />
    <glyph glyph-name="emacron.smcp" horiz-adv-x="510" 
d="M71 113l53 338c14 87 76 119 153 120c0 0 225 -3 293 -16l-20 -125h-233c-30 0 -33 -8 -37 -32l-8 -46l225 -8l-19 -121l-227 -7l-7 -44c-5 -30 10 -32 31 -32h229l-20 -125c-88 -19 -317 -17 -317 -17c-68 2 -109 37 -96 115zM221 632l14 86h292l-14 -86h-292z" />
    <glyph glyph-name="gcommaaccent.smcp" horiz-adv-x="563" 
d="M82 314c29 184 88 258 245 265c85 5 213 -3 274 -25l-18 -114c-82 10 -136 12 -201 12c-86 0 -111 -10 -135 -164c-10 -60 -28 -146 55 -147c44 0 82 19 91 45l7 47h-72l13 87c42 11 92 17 173 17c21 0 42 -1 66 -3l-53 -334h-123l-31 44c-35 -36 -73 -51 -147 -51
c-199 0 -152 271 -144 321zM227 -180l14 89c3 16 12 24 27 24h86c16 0 20 -10 18 -24l-20 -121c-16 -105 -136 -70 -136 -70l8 49c27 -1 29 12 31 21l1 10h-10c-12 0 -21 7 -19 22z" />
    <glyph glyph-name="tbar.smcp" horiz-adv-x="517" 
d="M33 422l24 148h471l-24 -148h-154l-16 -100h90l-12 -69h-89l-41 -253h-164l41 253h-93l12 69h92l16 100h-153z" />
    <glyph glyph-name="zcaron.smcp" horiz-adv-x="502" 
d="M24 0l24 149l288 272h-245l23 149h456l-23 -149l-277 -272h234l-24 -149h-456zM212 768h99l41 -59l63 59h111l-126 -137h-112z" />
    <glyph glyph-name="macron.smcp" horiz-adv-x="359" 
d="M111 493l14 86h292l-14 -86h-292z" />
    <glyph glyph-name="degree.smcp" horiz-adv-x="267" 
d="M106 468c6 58 56 99 112 99s96 -45 90 -101c-6 -58 -55 -98 -111 -98s-97 44 -91 100zM168 467c-2 -22 14 -38 36 -38s39 16 42 38c2 22 -12 39 -34 39s-41 -17 -44 -39z" />
    <glyph glyph-name="acute.smcp" horiz-adv-x="243" 
d="M97 531l107 141h133l-141 -141h-99z" />
    <glyph glyph-name="caron.smcp" horiz-adv-x="377" 
d="M140 676h98l40 -61l69 61h103l-122 -145h-116z" />
    <glyph glyph-name="eng.smcp" horiz-adv-x="600" 
d="M47 -1l90 572h161l140 -277l43 277h163l-90 -569l-8 -49c-22 -134 -110 -173 -266 -165l19 111c47 0 75 6 88 71l5 32l-136 278l-46 -281h-163z" />
    <glyph glyph-name="amacron.smcp" horiz-adv-x="612" 
d="M24 0l278 570h201l87 -570h-159l-18 103h-168l-49 -103h-172zM303 230h97l-24 145zM263 630l14 86h292l-14 -86h-292z" />
    <glyph glyph-name="aacute.smcp" horiz-adv-x="612" 
d="M24 0l278 570h201l87 -570h-159l-18 103h-168l-49 -103h-172zM303 230h97l-24 145zM363 630l107 140h132l-140 -140h-99z" />
    <glyph glyph-name="acircumflex.smcp" horiz-adv-x="612" 
d="M24 0l278 570h201l87 -570h-159l-18 103h-168l-49 -103h-172zM303 230h97l-24 145zM255 630l126 138h116l73 -138h-100l-37 59l-66 -59h-112z" />
    <glyph glyph-name="atilde.smcp" horiz-adv-x="612" 
d="M24 0l278 570h201l87 -570h-159l-18 103h-168l-49 -103h-172zM303 230h97l-24 145zM249 690c35 36 81 72 134 72c45 -1 63 -34 100 -35c36 -1 79 21 100 39l14 -66c-31 -32 -75 -70 -125 -70c-46 0 -69 35 -108 35c-40 0 -65 -13 -99 -35z" />
    <glyph glyph-name="adieresis.smcp" horiz-adv-x="612" 
d="M24 0l278 570h201l87 -570h-159l-18 103h-168l-49 -103h-172zM303 230h97l-24 145zM233 692c6 34 38 62 72 62s57 -28 52 -62c-6 -34 -38 -62 -72 -62s-57 28 -52 62zM488 692c6 34 38 62 72 62s57 -28 52 -62c-6 -34 -38 -62 -72 -62s-57 28 -52 62z" />
    <glyph glyph-name="aring.smcp" horiz-adv-x="612" 
d="M24 0l278 570h201l87 -570h-159l-18 103h-168l-49 -103h-172zM303 230h97l-24 145zM311 668c5 58 53 101 109 101s99 -43 94 -101c-5 -56 -52 -100 -108 -100s-100 44 -95 100zM373 668c-2 -21 14 -38 36 -38s40 17 42 38c2 22 -13 40 -35 40s-41 -18 -43 -40z" />
    <glyph glyph-name="ae.smcp" horiz-adv-x="803" 
d="M16 0l257 454c68 122 215 115 309 116c0 0 214 -3 282 -16l-20 -124h-223c-30 0 -33 -10 -37 -33l-8 -47l216 -8l-19 -120l-219 -8l-6 -44c-5 -29 10 -31 31 -31l219 -1l-20 -124c-88 -20 -298 -17 -298 -17c-57 -1 -119 25 -106 107l3 25h-109l-74 -129h-178zM330 240
h64l26 156z" />
    <glyph glyph-name="iogonek.smcp" horiz-adv-x="257" 
d="M54 0l90 570h164l-90 -570h-164zM109 1h61c-87 -57 -54 -112 -6 -106l-13 -83c-107 -29 -193 114 -42 189z" />
    <glyph glyph-name="ccaron.smcp" horiz-adv-x="512" 
d="M84 322c28 174 91 256 272 256c87 0 156 -6 220 -32l-17 -112c-15 3 -114 18 -179 18c-102 0 -116 -52 -132 -157c-14 -90 -35 -171 80 -173c81 1 184 17 184 17l-18 -109c-73 -31 -124 -34 -230 -34c-202 0 -206 160 -180 326zM237 779h99l41 -59l63 59h112l-126 -137
h-113z" />
    <glyph glyph-name="eacute.smcp" horiz-adv-x="510" 
d="M71 113l53 338c14 87 76 119 153 120c0 0 225 -3 293 -16l-20 -125h-233c-30 0 -33 -8 -37 -32l-8 -46l225 -8l-19 -121l-227 -7l-7 -44c-5 -30 10 -32 31 -32h229l-20 -125c-88 -19 -317 -17 -317 -17c-68 2 -109 37 -96 115zM325 631l107 141h132l-140 -141h-99z" />
    <glyph glyph-name="eogonek.smcp" horiz-adv-x="510" 
d="M71 113l53 338c14 87 76 119 153 120c0 0 225 -3 293 -16l-20 -125h-233c-30 0 -33 -8 -37 -32l-8 -46l225 -8l-19 -121l-227 -7l-7 -44c-5 -30 10 -32 31 -32h229l-20 -125c-88 -19 -317 -17 -317 -17c-68 2 -109 37 -96 115zM422 15h61c-87 -57 -55 -111 -6 -106
l-13 -82c-108 -30 -193 114 -42 188z" />
    <glyph glyph-name="edieresis.smcp" horiz-adv-x="510" 
d="M71 113l53 338c14 87 76 119 153 120c0 0 225 -3 293 -16l-20 -125h-233c-30 0 -33 -8 -37 -32l-8 -46l225 -8l-19 -121l-227 -7l-7 -44c-5 -30 10 -32 31 -32h229l-20 -125c-88 -19 -317 -17 -317 -17c-68 2 -109 37 -96 115zM187 683c6 34 38 61 72 61s57 -27 52 -61
c-6 -34 -38 -63 -72 -63s-57 29 -52 63zM442 683c6 34 38 61 72 61s57 -27 52 -61c-6 -34 -38 -63 -72 -63s-57 29 -52 63z" />
    <glyph glyph-name="edotaccent.smcp" horiz-adv-x="510" 
d="M71 113l53 338c14 87 76 119 153 120c0 0 225 -3 293 -16l-20 -125h-233c-30 0 -33 -8 -37 -32l-8 -46l225 -8l-19 -121l-227 -7l-7 -44c-5 -30 10 -32 31 -32h229l-20 -125c-88 -19 -317 -17 -317 -17c-68 2 -109 37 -96 115zM310 654l13 84c2 15 12 25 28 25h80
c15 0 21 -11 19 -25l-14 -84c-2 -15 -12 -23 -26 -23h-80c-14 0 -22 9 -20 23z" />
    <glyph glyph-name="iacute.smcp" horiz-adv-x="257" 
d="M54 0l90 570h164l-90 -570h-164zM174 630l107 140h132l-140 -140h-99z" />
    <glyph glyph-name="icircumflex.smcp" horiz-adv-x="257" 
d="M54 0l90 570h164l-90 -570h-164zM74 630l126 138h116l72 -138h-99l-38 59l-66 -59h-111z" />
    <glyph glyph-name="imacron.smcp" horiz-adv-x="257" 
d="M54 0l90 570h164l-90 -570h-164zM89 630l13 86h292l-13 -86h-292z" />
    <glyph glyph-name="dcroat.smcp" horiz-adv-x="604" 
d="M54 256l11 68h61l39 248h267c182 -2 202 -162 178 -310c-46 -290 -177 -262 -263 -262h-273l41 256h-61zM261 142h87c66 0 86 67 98 141c18 108 -4 147 -52 147h-87l-17 -106h71l-11 -68h-71z" />
    <glyph glyph-name="ncommaaccent.smcp" horiz-adv-x="601" 
d="M54 0l90 571h161l140 -293l44 293h163l-90 -571h-160l-138 290l-46 -290h-164zM208 -270l8 49c27 -1 29 12 31 21l1 9h-10c-12 0 -21 7 -19 22l14 89c3 17 12 25 27 25h86c16 0 20 -11 18 -25l-20 -121c-16 -105 -136 -69 -136 -69z" />
    <glyph glyph-name="omacron.smcp" horiz-adv-x="594" 
d="M81 299c39 244 137 276 303 276c163 0 260 -51 219 -307c-39 -245 -136 -273 -304 -273c-161 0 -257 55 -218 304zM246 285c-19 -119 -7 -141 73 -141c71 0 101 18 120 143c21 128 2 139 -75 139c-66 0 -98 -10 -118 -141zM248 635l14 85h292l-14 -85h-292z" />
    <glyph glyph-name="kcommaaccent.smcp" horiz-adv-x="578" 
d="M53 -1l90 571h156l-35 -224h48l155 224h179l-195 -300l112 -271h-175l-88 213h-57l-34 -213h-156zM199 -270l8 49c27 -1 29 12 31 21l2 9h-10c-13 0 -22 7 -19 22l14 89c3 17 12 25 26 25h87c16 0 19 -11 17 -25l-19 -121c-17 -105 -137 -69 -137 -69z" />
    <glyph glyph-name="ocircumflex.smcp" horiz-adv-x="594" 
d="M81 299c39 244 137 276 303 276c163 0 260 -51 219 -307c-39 -245 -136 -273 -304 -273c-161 0 -257 55 -218 304zM246 285c-19 -119 -7 -141 73 -141c71 0 101 18 120 143c21 128 2 139 -75 139c-66 0 -98 -10 -118 -141zM237 635l126 137h116l72 -137h-99l-38 59
l-66 -59h-111z" />
    <glyph glyph-name="otilde.smcp" horiz-adv-x="594" 
d="M81 299c39 244 137 276 303 276c163 0 260 -51 219 -307c-39 -245 -136 -273 -304 -273c-161 0 -257 55 -218 304zM246 285c-19 -119 -7 -141 73 -141c71 0 101 18 120 143c21 128 2 139 -75 139c-66 0 -98 -10 -118 -141zM231 696c34 35 81 71 133 71
c46 -1 63 -35 100 -35c36 -2 79 20 100 39l14 -66c-31 -32 -75 -70 -124 -70c-46 1 -70 35 -108 35c-40 0 -65 -14 -99 -35z" />
    <glyph glyph-name="odieresis.smcp" horiz-adv-x="594" 
d="M81 299c39 244 137 276 303 276c163 0 260 -51 219 -307c-39 -245 -136 -273 -304 -273c-161 0 -257 55 -218 304zM246 285c-19 -119 -7 -141 73 -141c71 0 101 18 120 143c21 128 2 139 -75 139c-66 0 -98 -10 -118 -141zM215 697c5 34 38 61 72 61s57 -27 51 -61
c-5 -34 -37 -62 -71 -62s-58 28 -52 62zM470 697c5 34 38 61 72 61s57 -27 51 -61c-5 -34 -37 -62 -71 -62s-58 28 -52 62z" />
    <glyph glyph-name="oslash.smcp" horiz-adv-x="595" 
d="M43 0l60 68c-25 42 -33 124 -16 227c39 244 138 280 304 280c57 0 107 -4 144 -22l15 18l80 -1l-48 -54c30 -42 40 -128 22 -244c-40 -245 -137 -277 -305 -277c-61 0 -115 6 -154 31l-22 -26h-80zM252 285c-4 -23 -5 -41 -4 -55l170 192c-13 4 -28 4 -47 4
c-65 0 -99 -9 -119 -141zM262 156c12 -9 31 -12 58 -12c72 0 100 18 120 143c5 34 7 58 5 75z" />
    <glyph glyph-name="uogonek.smcp" horiz-adv-x="583" 
d="M93 282l49 288h165l-49 -310c-16 -100 14 -116 71 -116c55 0 87 18 102 116l49 310h165l-49 -332c-37 -234 -162 -243 -284 -243c-136 0 -258 49 -219 287zM285 -1h61c-86 -57 -54 -112 -6 -106l-13 -83c-107 -29 -193 114 -42 189z" />
    <glyph glyph-name="uacute.smcp" horiz-adv-x="595" 
d="M93 282l49 288h165l-49 -310c-16 -100 14 -116 71 -116c55 0 87 18 102 116l49 310h165l-49 -332c-37 -234 -162 -243 -284 -243c-136 0 -258 49 -219 287zM354 630l107 140h132l-140 -140h-99z" />
    <glyph glyph-name="ucircumflex.smcp" horiz-adv-x="595" 
d="M93 282l49 288h165l-49 -310c-16 -100 14 -116 71 -116c55 0 87 18 102 116l49 310h165l-49 -332c-37 -234 -162 -243 -284 -243c-136 0 -258 49 -219 287zM246 630l126 138h116l72 -138h-99l-38 59l-66 -59h-111z" />
    <glyph glyph-name="udieresis.smcp" horiz-adv-x="595" 
d="M93 282l49 288h165l-49 -310c-16 -100 14 -116 71 -116c55 0 87 18 102 116l49 310h165l-49 -332c-37 -234 -162 -243 -284 -243c-136 0 -258 49 -219 287zM224 692c6 34 38 62 72 62s57 -28 52 -62c-6 -34 -38 -62 -72 -62s-57 28 -52 62zM479 692c6 34 38 62 72 62
s57 -28 52 -62c-6 -34 -38 -62 -72 -62s-57 28 -52 62z" />
    <glyph glyph-name="utilde.smcp" horiz-adv-x="595" 
d="M93 282l49 288h165l-49 -310c-16 -100 14 -116 71 -116c55 0 87 18 102 116l49 310h165l-49 -332c-37 -234 -162 -243 -284 -243c-136 0 -258 49 -219 287zM240 690c34 36 81 72 133 72c46 -1 63 -34 100 -35c36 -1 79 21 100 39l14 -66c-31 -32 -75 -70 -124 -70
c-46 0 -70 35 -108 35c-40 0 -65 -13 -99 -35z" />
    <glyph glyph-name="umacron.smcp" horiz-adv-x="595" 
d="M93 282l49 288h165l-49 -310c-16 -100 14 -116 71 -116c55 0 87 18 102 116l49 310h165l-49 -332c-37 -234 -162 -243 -284 -243c-136 0 -258 49 -219 287zM257 630l14 86h292l-14 -86h-292z" />
    <glyph glyph-name="germandbls.smcp" horiz-adv-x="1033" 
d="M562 16l18 115s143 -6 245 -6c29 0 37 20 38 28l5 28c4 24 -5 29 -29 29h-115c-114 0 -143 72 -128 169l6 43c14 87 59 152 187 152c52 0 194 -5 274 -24l-18 -117s-129 8 -239 8c-26 0 -37 -16 -40 -35l-4 -24c-4 -25 6 -30 30 -30h122c118 0 132 -88 119 -174l-7 -40
c-19 -123 -86 -147 -169 -147c-46 0 -257 1 -295 25zM49 15l18 115s143 -6 245 -6c29 0 36 20 38 28l5 28c4 24 -6 29 -29 29h-115c-114 0 -143 72 -129 169l7 43c13 87 59 152 187 152c52 0 194 -5 274 -24l-18 -117s-130 8 -240 8c-25 0 -37 -16 -40 -35l-4 -23
c-4 -26 6 -31 30 -31h122c118 0 133 -88 120 -174l-7 -40c-19 -123 -87 -147 -169 -147c-46 0 -258 1 -295 25z" />
    <glyph glyph-name="agrave.smcp" horiz-adv-x="612" 
d="M24 0l278 570h201l87 -570h-159l-18 103h-168l-49 -103h-172zM303 230h97l-24 145zM264 770h131l67 -140h-99z" />
    <glyph glyph-name="ccedilla.smcp" horiz-adv-x="512" 
d="M84 322c28 174 91 256 272 256c87 0 156 -6 220 -32l-17 -112c-15 3 -114 18 -179 18c-102 0 -116 -52 -132 -157c-14 -90 -35 -171 80 -173c81 1 184 17 184 17l-18 -109c-73 -31 -124 -34 -230 -34c-202 0 -206 160 -180 326zM164 -182l11 68l43 15c30 12 32 22 38 60
h105c-16 -102 -50 -143 -139 -143h-58z" />
    <glyph glyph-name="eth.smcp" horiz-adv-x="607" 
d="M43 256l11 68h62l39 248h267c182 -2 202 -162 178 -310c-46 -290 -178 -262 -263 -262h-273l40 256h-61zM250 142h88c66 0 86 67 98 141c17 108 -4 147 -52 147h-87l-17 -106h70l-10 -68h-72z" />
    <glyph glyph-name="egrave.smcp" horiz-adv-x="510" 
d="M71 113l53 338c14 87 76 119 153 120c0 0 225 -3 293 -16l-20 -125h-233c-30 0 -33 -8 -37 -32l-8 -46l225 -8l-19 -121l-227 -7l-7 -44c-5 -30 10 -32 31 -32h229l-20 -125c-88 -19 -317 -17 -317 -17c-68 2 -109 37 -96 115zM225 772h130l67 -141h-99z" />
    <glyph glyph-name="ecircumflex.smcp" horiz-adv-x="510" 
d="M71 113l53 338c14 87 76 119 153 120c0 0 225 -3 293 -16l-20 -125h-233c-30 0 -33 -8 -37 -32l-8 -46l225 -8l-19 -121l-227 -7l-7 -44c-5 -30 10 -32 31 -32h229l-20 -125c-88 -19 -317 -17 -317 -17c-68 2 -109 37 -96 115zM216 631l126 137h116l72 -137h-99l-38 59
l-66 -59h-111z" />
    <glyph glyph-name="igrave.smcp" horiz-adv-x="257" 
d="M54 0l90 570h164l-90 -570h-164zM68 770h131l67 -140h-99z" />
    <glyph glyph-name="idieresis.smcp" horiz-adv-x="257" 
d="M38 0l90 570h164l-90 -570h-164zM20 692c6 34 38 62 72 62s57 -28 52 -62c-6 -34 -38 -62 -72 -62s-57 28 -52 62zM275 692c6 34 38 62 72 62s57 -28 52 -62c-6 -34 -38 -62 -72 -62s-57 28 -52 62z" />
    <glyph glyph-name="ntilde.smcp" horiz-adv-x="601" 
d="M54 0l90 571h161l140 -293l44 293h163l-90 -571h-160l-138 290l-46 -290h-164zM220 692c35 35 81 71 134 71c45 -1 63 -35 100 -35c36 -2 79 20 100 39l14 -66c-31 -32 -75 -70 -125 -70c-46 1 -69 35 -108 35c-40 0 -65 -14 -99 -35z" />
    <glyph glyph-name="ograve.smcp" horiz-adv-x="594" 
d="M81 299c39 244 137 276 303 276c163 0 260 -51 219 -307c-39 -245 -136 -273 -304 -273c-161 0 -257 55 -218 304zM246 285c-19 -119 -7 -141 73 -141c71 0 101 18 120 143c21 128 2 139 -75 139c-66 0 -98 -10 -118 -141zM242 776h130l67 -141h-99z" />
    <glyph glyph-name="oacute.smcp" horiz-adv-x="594" 
d="M81 299c39 244 137 276 303 276c163 0 260 -51 219 -307c-39 -245 -136 -273 -304 -273c-161 0 -257 55 -218 304zM246 285c-19 -119 -7 -141 73 -141c71 0 101 18 120 143c21 128 2 139 -75 139c-66 0 -98 -10 -118 -141zM341 635l107 141h133l-141 -141h-99z" />
    <glyph glyph-name="ugrave.smcp" horiz-adv-x="595" 
d="M93 282l49 288h165l-49 -310c-16 -100 14 -116 71 -116c55 0 87 18 102 116l49 310h165l-49 -332c-37 -234 -162 -243 -284 -243c-136 0 -258 49 -219 287zM246 770h130l67 -140h-99z" />
    <glyph glyph-name="yacute.smcp" horiz-adv-x="595" 
d="M114 570h172l68 -196l125 196h183l-246 -372l-31 -199h-164l31 199zM341 630l107 140h133l-141 -140h-99z" />
    <glyph glyph-name="thorn.smcp" horiz-adv-x="529" 
d="M50 0l90 569h163l-15 -95h98c76 0 171 -35 148 -193c-24 -172 -122 -179 -184 -179c-32 0 -69 2 -118 16l-19 -118h-163zM252 240h66c34 0 44 8 51 52c6 37 -3 48 -35 48h-67z" />
    <glyph glyph-name="quotesinglbase.smcp" horiz-adv-x="244" 
d="M39 -112l10 62c31 0 35 22 37 32l3 18h-11c-14 0 -25 9 -22 26l16 100c3 19 14 28 30 28h97c19 0 23 -12 21 -28l-24 -144c-20 -125 -157 -94 -157 -94z" />
    <glyph glyph-name="quotedblleft.smcp" horiz-adv-x="424" 
d="M100 335l23 145c20 125 157 94 157 94l-10 -63c-30 1 -34 -21 -36 -31l-3 -19h11c14 0 25 -8 22 -25l-16 -101c-3 -18 -14 -27 -31 -27h-97c-19 0 -22 12 -20 27zM282 335l23 145c20 125 157 94 157 94l-10 -63c-30 1 -34 -21 -36 -31l-3 -19h11c14 0 25 -8 22 -25
l-16 -101c-3 -18 -14 -27 -31 -27h-97c-18 0 -22 12 -20 27z" />
    <glyph glyph-name="quotedblright.smcp" horiz-adv-x="424" 
d="M102 311l10 63c30 0 34 21 36 32l4 18h-12c-14 0 -24 8 -21 25l16 101c3 18 13 28 29 28h98c18 0 22 -13 20 -28l-23 -145c-20 -125 -157 -94 -157 -94zM284 311l10 63c30 0 34 21 36 32l4 18h-12c-14 0 -24 8 -21 25l16 101c3 18 13 28 29 28h98c18 0 22 -13 20 -28
l-23 -145c-20 -125 -157 -94 -157 -94z" />
    <glyph glyph-name="quotedblbase.smcp" horiz-adv-x="424" 
d="M35 -112l10 63c31 -1 35 21 37 31l3 19h-11c-14 0 -25 8 -22 25l16 101c3 18 14 27 30 27h97c19 0 23 -12 21 -27l-24 -145c-20 -125 -157 -94 -157 -94zM217 -112l10 63c31 -1 35 21 37 31l3 19h-11c-14 0 -25 8 -22 25l16 101c3 18 14 27 30 27h98c18 0 22 -12 20 -27
l-24 -145c-20 -125 -157 -94 -157 -94z" />
    <glyph glyph-name="exclamdown.smcp" horiz-adv-x="273" 
d="M57 0l75 380h127l-43 -380h-159zM134 445l16 102c2 15 12 23 26 23h99c14 0 23 -9 21 -23l-16 -102c-2 -15 -12 -25 -28 -25h-100c-14 0 -20 11 -18 25z" />
    <glyph glyph-name="ordmasculine.smcp" horiz-adv-x="414" 
d="M62 121l12 73h328l-12 -73h-328zM90 403c23 142 72 178 206 178c129 1 173 -51 150 -193c-20 -130 -66 -168 -206 -168c-130 0 -170 57 -150 183zM215 396c-12 -74 1 -80 40 -80s54 4 67 80c12 80 6 88 -40 89c-44 0 -54 -12 -67 -89z" />
    <glyph glyph-name="ordfeminine.smcp" horiz-adv-x="411" 
d="M62 122l11 74h350l-11 -74h-350zM77 228l158 343h149l45 -343h-112l-7 64h-81l-31 -64h-121zM260 373h44l-8 87z" />
    <glyph glyph-name="Euro.smcp" horiz-adv-x="520" 
d="M41 195l11 70l54 5l4 29l-52 6l11 66l54 7c11 80 39 199 240 199c41 0 142 -9 219 -23l-18 -122s-122 11 -186 11c-58 0 -82 -21 -90 -65l170 -6l-12 -68l-170 -5l-5 -29l169 -5l-11 -70s-173 -4 -171 -6c-9 -57 34 -57 70 -57c75 0 192 13 192 13l-19 -122
c-54 -22 -166 -28 -231 -28c-89 0 -198 34 -177 194z" />
    <glyph glyph-name="lcaron.smcp" horiz-adv-x="493" 
d="M62 131l69 439h164l-57 -364c-10 -58 17 -57 58 -57h195l-23 -149h-296c-72 0 -124 39 -110 131zM332 412l10 134l10 66h104l-10 -66l-32 -134h-82z" />
    <glyph glyph-name="sacute.smcp" horiz-adv-x="538" 
d="M61 15l18 115s143 -6 245 -6c29 0 36 20 38 28l5 28c4 24 -6 29 -29 29h-115c-114 0 -143 72 -129 169l7 43c13 87 59 152 187 152c52 0 194 -5 274 -24l-18 -117s-130 8 -240 8c-25 0 -37 -16 -40 -35l-4 -23c-4 -26 6 -31 30 -31h122c118 0 133 -88 120 -174l-7 -40
c-19 -123 -87 -147 -169 -147c-46 0 -258 1 -295 25zM309 633l107 141h133l-141 -141h-99z" />
    <glyph glyph-name="scedilla.smcp" horiz-adv-x="538" 
d="M61 15l18 115s143 -6 245 -6c29 0 36 20 38 28l5 28c4 24 -6 29 -29 29h-115c-114 0 -143 72 -129 169l7 43c13 87 59 152 187 152c52 0 194 -5 274 -24l-18 -117s-130 8 -240 8c-25 0 -37 -16 -40 -35l-4 -23c-4 -26 6 -31 30 -31h122c118 0 133 -88 120 -174l-7 -40
c-19 -123 -87 -147 -169 -147c-46 0 -258 1 -295 25zM155 -178l11 68l44 15c30 12 32 22 38 60h104c-16 -102 -49 -143 -138 -143h-59z" />
    <glyph glyph-name="tcaron.smcp" horiz-adv-x="583" 
d="M138 421l24 149h476l-24 -149h-156l-67 -421h-164l67 421h-156zM272 773h100l40 -59l63 59h111l-126 -137h-112z" />
    <glyph glyph-name="zacute.smcp" horiz-adv-x="502" 
d="M24 0l24 149l288 272h-245l23 149h456l-23 -149l-277 -272h234l-24 -149h-456zM299 630l107 140h133l-141 -140h-99z" />
    <glyph glyph-name="zdotaccent.smcp" horiz-adv-x="502" 
d="M24 0l24 149l288 272h-245l23 149h456l-23 -149l-277 -272h234l-24 -149h-456zM292 653l13 84c2 15 12 25 28 25h80c15 0 21 -11 19 -25l-13 -84c-2 -15 -12 -23 -26 -23h-80c-14 0 -23 9 -21 23z" />
    <glyph glyph-name="racute.smcp" 
d="M40 0l90 570h269c101 0 181 -60 161 -209c-15 -111 -55 -141 -104 -155l70 -206h-172l-51 192c-7 1 -67 7 -67 8l-32 -200h-164zM253 305h87c26 0 45 13 54 65c8 47 -8 66 -34 66h-86zM324 630l107 140h132l-140 -140h-99z" />
    <glyph glyph-name="abreve.smcp" horiz-adv-x="612" 
d="M24 0l278 570h201l87 -570h-159l-18 103h-168l-49 -103h-172zM303 230h97l-24 145zM313 742h62c-4 -33 13 -52 45 -52c40 0 57 19 61 52h62c-8 -71 -53 -112 -123 -112c-65 0 -113 43 -107 112z" />
    <glyph glyph-name="lacute.smcp" horiz-adv-x="503" 
d="M74 131l70 439h164l-58 -364c-9 -58 18 -57 59 -57h195l-23 -149h-296c-73 0 -125 39 -111 131zM186 630l107 140h132l-140 -140h-99z" />
    <glyph glyph-name="cacute.smcp" horiz-adv-x="512" 
d="M84 322c28 174 91 256 272 256c87 0 156 -6 220 -32l-17 -112c-15 3 -114 18 -179 18c-102 0 -116 -52 -132 -157c-14 -90 -35 -171 80 -173c81 1 184 17 184 17l-18 -109c-73 -31 -124 -34 -230 -34c-202 0 -206 160 -180 326zM316 643l107 141h132l-140 -141h-99z" />
    <glyph glyph-name="ecaron.smcp" horiz-adv-x="510" 
d="M71 113l53 338c14 87 76 119 153 120c0 0 225 -3 293 -16l-20 -125h-233c-30 0 -33 -8 -37 -32l-8 -46l225 -8l-19 -121l-227 -7l-7 -44c-5 -30 10 -32 31 -32h229l-20 -125c-88 -19 -317 -17 -317 -17c-68 2 -109 37 -96 115zM237 768h100l40 -58l63 58h112l-126 -137
h-112z" />
    <glyph glyph-name="dcaron.smcp" horiz-adv-x="584" 
d="M76 0l91 572h274c182 -2 194 -163 176 -312c-34 -274 -179 -260 -264 -260h-277zM262 142h92c67 0 87 67 99 141c17 108 -5 147 -53 147h-92zM265 770h99l41 -60l63 60h111l-126 -138h-112z" />
    <glyph glyph-name="nacute.smcp" horiz-adv-x="601" 
d="M54 0l90 571h161l140 -293l44 293h163l-90 -571h-160l-138 290l-46 -290h-164zM358 631l107 141h133l-141 -141h-99z" />
    <glyph glyph-name="ncaron.smcp" horiz-adv-x="601" 
d="M54 0l90 571h161l140 -293l44 293h163l-90 -571h-160l-138 290l-46 -290h-164zM273 768h99l41 -58l63 58h111l-126 -137h-112z" />
    <glyph glyph-name="ohungarumlaut.smcp" horiz-adv-x="594" 
d="M81 299c39 244 137 276 303 276c163 0 260 -51 219 -307c-39 -245 -136 -273 -304 -273c-161 0 -257 55 -218 304zM246 285c-19 -119 -7 -141 73 -141c71 0 101 18 120 143c21 128 2 139 -75 139c-66 0 -98 -10 -118 -141zM263 635l107 141h132l-140 -141h-99zM426 635
l107 141h133l-141 -141h-99z" />
    <glyph glyph-name="rcaron.smcp" 
d="M40 0l90 570h269c101 0 181 -60 161 -209c-15 -111 -55 -141 -104 -155l70 -206h-172l-51 192c-7 1 -67 7 -67 8l-32 -200h-164zM253 305h87c26 0 45 13 54 65c8 47 -8 66 -34 66h-86zM219 767h100l40 -59l63 59h112l-126 -137h-113z" />
    <glyph glyph-name="uring.smcp" horiz-adv-x="595" 
d="M93 282l49 288h165l-49 -310c-16 -100 14 -116 71 -116c55 0 87 18 102 116l49 310h165l-49 -332c-37 -234 -162 -243 -284 -243c-136 0 -258 49 -219 287zM317 730c5 58 54 101 110 101s98 -43 93 -101c-5 -56 -52 -100 -108 -100s-100 44 -95 100zM380 730
c-2 -21 14 -38 36 -38s39 17 41 38c3 22 -13 40 -34 40c-22 0 -41 -18 -43 -40z" />
    <glyph glyph-name="uhungarumlaut.smcp" horiz-adv-x="595" 
d="M93 282l49 288h165l-49 -310c-16 -100 14 -116 71 -116c55 0 87 18 102 116l49 310h165l-49 -332c-37 -234 -162 -243 -284 -243c-136 0 -258 49 -219 287zM272 630l107 140h132l-140 -140h-99zM435 630l107 140h133l-141 -140h-99z" />
    <glyph glyph-name="tcommaaccent.smcp" horiz-adv-x="522" 
d="M93 421l24 149h476l-24 -149h-156l-67 -421h-164l67 421h-156zM112 -190l11 68l43 15c30 12 32 22 38 60h105c-16 -102 -50 -143 -139 -143h-58z" />
    <glyph glyph-name="lslash.smcp" horiz-adv-x="514" 
d="M45 224l13 77l64 24l39 245h164l-28 -178l91 35l-12 -76l-91 -35l-17 -110c-10 -58 17 -57 58 -57h195l-23 -149h-296c-72 0 -124 39 -110 131l18 118z" />
    <glyph glyph-name="questiondown.smcp" horiz-adv-x="484" 
d="M65 179l4 26c17 109 96 165 204 145c0 0 5 33 5 34h121l-23 -145c-44 1 -71 1 -98 0c-30 -1 -41 -7 -45 -34l-2 -15c-4 -30 9 -36 47 -36h207l-21 -134c-63 -11 -155 -23 -240 -19c-118 0 -178 50 -159 178zM276 448l17 102c3 18 15 24 29 24h98c14 0 22 -10 20 -24
l-16 -102c-2 -14 -12 -24 -28 -24h-98c-18 0 -24 8 -22 24z" />
    <glyph glyph-name="oe.smcp" horiz-adv-x="842" 
d="M70 296c39 244 138 279 304 279c61 0 112 -6 149 -30c23 18 55 27 91 26c0 0 224 -3 292 -16l-20 -125h-232c-30 0 -33 -8 -37 -32l-7 -46l224 -8l-19 -121l-227 -7l-7 -44c-5 -30 10 -32 31 -32h228l-20 -125c-88 -19 -317 -17 -317 -17c-26 0 -47 7 -61 20
c-42 -18 -93 -23 -153 -23c-161 0 -258 52 -219 301zM235 285c-19 -119 -7 -141 73 -141c71 0 101 18 121 143c20 128 1 139 -75 139c-67 0 -98 -10 -119 -141z" />
    <glyph glyph-name="ydieresis.smcp" horiz-adv-x="595" 
d="M114 570h172l68 -196l125 196h183l-246 -372l-31 -199h-164l31 199zM218 692c6 34 38 62 72 62s57 -28 52 -62c-6 -34 -38 -62 -72 -62s-57 28 -52 62zM473 692c6 34 38 62 72 62s57 -28 52 -62c-6 -34 -38 -62 -72 -62s-57 28 -52 62z" />
    <glyph glyph-name="sterling.smcp" horiz-adv-x="513" 
d="M34 0l18 116l59 20l15 92h-56l13 86l59 16l7 38c16 103 63 202 235 203c16 0 184 -13 184 -13l-20 -134h-162c-56 0 -68 -18 -74 -58l-6 -32l163 -15l-15 -93h-164l-14 -86h226l-22 -140h-446z" />
    <glyph glyph-name="yen.smcp" horiz-adv-x="549" 
d="M106 104l10 65h102l5 23h-103l10 66h75l-102 313h174l46 -206l117 206h186l-203 -313h85l-10 -66h-111l-5 -23h112l-10 -65h-111l-17 -104h-164l17 104h-103z" />
    <glyph glyph-name="perthousand.smcp" horiz-adv-x="1393" 
d="M72 338l17 106c13 84 53 132 157 132h90c95 0 127 -46 114 -132l-17 -106c-13 -87 -55 -132 -157 -132h-90c-92 0 -126 47 -114 132zM186 360c-4 -28 -1 -44 36 -44h52c39 0 49 16 53 44l9 61c6 37 -4 45 -36 45h-53c-31 0 -47 -8 -52 -45zM288 0l370 570h112l-366 -570
h-116zM613 135l17 105c12 85 54 133 158 133h88c96 0 128 -46 114 -133l-16 -105c-13 -87 -56 -133 -158 -133h-89c-93 0 -127 48 -114 133zM727 158c-4 -29 -1 -46 35 -46h53c39 0 49 17 53 46l8 60c6 37 -2 45 -35 45h-53c-31 0 -47 -8 -52 -45zM1029 135l16 105
c13 85 53 133 157 133h90c95 0 126 -46 113 -133l-16 -105c-13 -87 -56 -133 -157 -133h-91c-92 0 -125 48 -112 133zM1142 158c-4 -29 0 -46 36 -46h52c39 0 49 17 53 46l9 60c6 37 -4 45 -37 45h-51c-32 0 -48 -8 -53 -45z" />
    <glyph glyph-name="circumflex.smcp" horiz-adv-x="381" 
d="M118 531l126 137h116l72 -137h-100l-44 58l-66 -58h-104z" />
    <glyph glyph-name="tilde.smcp" horiz-adv-x="412" 
d="M126 592c35 35 78 72 134 72c44 0 60 -35 100 -35c40 -1 73 19 100 40l14 -66c-28 -31 -73 -72 -124 -72c-44 0 -70 35 -109 35s-63 -14 -99 -35z" />
    <glyph glyph-name="ring.smcp" horiz-adv-x="267" 
d="M132 632c6 57 56 103 112 103s96 -46 90 -103s-55 -102 -111 -102s-97 45 -91 102zM194 632c-2 -22 14 -38 36 -38s39 16 42 38c2 22 -12 39 -34 39s-41 -17 -44 -39z" />
    <glyph glyph-name="hbar.smcp" horiz-adv-x="642" 
d="M79 -1l65 407h-54l10 66h54l15 98h164l-15 -98h156l16 98h164l-16 -98h48l-10 -66h-48l-64 -407h-164l32 202h-157l-32 -202h-164zM298 350h157l9 56h-156z" />
    <glyph glyph-name="hcircumflex.smcp" horiz-adv-x="581" 
d="M53 -1l90 571h164l-35 -220h161l35 220h164l-90 -571h-164l32 201h-161l-32 -201h-164zM240 630l126 138h116l73 -138h-100l-37 59l-66 -59h-112z" />
    <glyph glyph-name="gbreve.smcp" horiz-adv-x="563" 
d="M82 314c29 184 88 258 245 265c85 5 213 -3 274 -25l-18 -114c-82 10 -136 12 -201 12c-86 0 -111 -10 -135 -164c-10 -60 -28 -146 55 -147c44 0 82 19 91 45l7 47h-72l13 87c42 11 92 17 173 17c21 0 42 -1 66 -3l-53 -334h-123l-31 44c-35 -36 -73 -51 -147 -51
c-199 0 -152 271 -144 321zM300 753h61c-3 -33 13 -52 46 -52c39 -1 57 18 60 52h62c-7 -71 -53 -113 -123 -113c-65 0 -112 44 -106 113z" />
    <glyph glyph-name="jcircumflex.smcp" horiz-adv-x="336" 
d="M27 21l21 129c95 -4 110 16 121 75l55 345h164l-64 -405c-7 -46 -32 -123 -92 -149c-74 -33 -161 -24 -205 5zM156 630l126 138h116l72 -138h-99l-38 59l-66 -59h-111z" />
    <glyph glyph-name="cdotaccent.smcp" horiz-adv-x="512" 
d="M84 322c28 174 91 256 272 256c87 0 156 -6 220 -32l-17 -112c-15 3 -114 18 -179 18c-102 0 -116 -52 -132 -157c-14 -90 -35 -171 80 -173c81 1 184 17 184 17l-18 -109c-73 -31 -124 -34 -230 -34c-202 0 -206 160 -180 326zM311 666l13 84c2 15 12 25 28 25h80
c15 0 21 -11 19 -25l-13 -84c-2 -15 -12 -23 -26 -23h-80c-14 0 -23 9 -21 23z" />
    <glyph glyph-name="ccircumflex.smcp" horiz-adv-x="512" 
d="M84 322c28 174 91 256 272 256c87 0 156 -6 220 -32l-17 -112c-15 3 -114 18 -179 18c-102 0 -116 -52 -132 -157c-14 -90 -35 -171 80 -173c81 1 184 17 184 17l-18 -109c-73 -31 -124 -34 -230 -34c-202 0 -206 160 -180 326zM219 643l126 137h116l73 -137h-100l-37 59
l-66 -59h-112z" />
    <glyph glyph-name="gdotaccent.smcp" horiz-adv-x="563" 
d="M82 314c29 184 88 258 245 265c85 5 213 -3 274 -25l-18 -114c-82 10 -136 12 -201 12c-86 0 -111 -10 -135 -164c-10 -60 -28 -146 55 -147c44 0 82 19 91 45l7 47h-72l13 87c42 11 92 17 173 17c21 0 42 -1 66 -3l-53 -334h-123l-31 44c-35 -36 -73 -51 -147 -51
c-199 0 -152 271 -144 321zM333 664l13 84c2 14 12 24 28 24h80c15 0 21 -10 19 -24l-13 -84c-2 -16 -12 -24 -26 -24h-80c-14 0 -23 10 -21 24z" />
    <glyph glyph-name="gcircumflex.smcp" horiz-adv-x="563" 
d="M82 314c29 184 88 258 245 265c85 5 213 -3 274 -25l-18 -114c-82 10 -136 12 -201 12c-86 0 -111 -10 -135 -164c-10 -60 -28 -146 55 -147c44 0 82 19 91 45l7 47h-72l13 87c42 11 92 17 173 17c21 0 42 -1 66 -3l-53 -334h-123l-31 44c-35 -36 -73 -51 -147 -51
c-199 0 -152 271 -144 321zM228 640l126 138h116l72 -138h-100l-37 60l-66 -60h-111z" />
    <glyph glyph-name="ubreve.smcp" horiz-adv-x="595" 
d="M93 282l49 288h165l-49 -310c-16 -100 14 -116 71 -116c55 0 87 18 102 116l49 310h165l-49 -332c-37 -234 -162 -243 -284 -243c-136 0 -258 49 -219 287zM300 742h61c-3 -33 13 -52 46 -52c39 0 57 19 60 52h62c-7 -71 -53 -112 -123 -112c-65 0 -112 43 -106 112z" />
    <glyph glyph-name="scircumflex.smcp" horiz-adv-x="538" 
d="M61 15l18 115s143 -6 245 -6c29 0 36 20 38 28l5 28c4 24 -6 29 -29 29h-115c-114 0 -143 72 -129 169l7 43c13 87 59 152 187 152c52 0 194 -5 274 -24l-18 -117s-130 8 -240 8c-25 0 -37 -16 -40 -35l-4 -23c-4 -26 6 -31 30 -31h122c118 0 133 -88 120 -174l-7 -40
c-19 -123 -87 -147 -169 -147c-46 0 -258 1 -295 25zM202 633l126 137h116l72 -137h-99l-38 59l-66 -59h-111z" />
    <glyph glyph-name="Idotaccent.smcp" horiz-adv-x="254" 
d="M157 640l13 84c2 15 12 25 28 25h80c16 0 22 -11 20 -25l-14 -84c-2 -15 -12 -23 -26 -23h-80c-14 0 -23 9 -21 23zM37 0l90 570h164l-90 -570h-164z" />
    <glyph glyph-name="periodcentered.smcp" horiz-adv-x="259" 
d="M97 241l17 102c2 15 12 25 28 25h98c18 0 24 -9 20 -25l-16 -102c-3 -18 -14 -23 -28 -23h-98c-14 0 -23 9 -21 23z" />
    <glyph glyph-name="bullet.smcp" horiz-adv-x="307" 
d="M98 256l20 132c3 21 17 35 39 35h127c24 0 32 -13 28 -35l-20 -132c-4 -24 -21 -32 -41 -32h-126c-20 0 -30 12 -27 32z" />
    <glyph glyph-name="quoteleft.smcp" horiz-adv-x="252" 
d="M105 338l23 144c20 125 157 94 157 94l-10 -63c-31 1 -35 -21 -37 -31l-2 -19h11c14 0 25 -8 21 -25l-15 -100c-3 -19 -15 -28 -31 -28h-97c-19 0 -22 12 -20 28z" />
    <glyph glyph-name="quoteright.smcp" horiz-adv-x="252" 
d="M106 313l10 63c30 0 34 21 36 32l4 18h-12c-14 0 -24 8 -21 26l16 100c3 18 13 28 30 28h97c18 0 23 -13 20 -28l-23 -145c-20 -125 -157 -94 -157 -94z" />
    <glyph glyph-name="uni1E02" unicode="&#x1e02;" horiz-adv-x="600" 
d="M54 0l116 732h302c153 0 198 -99 181 -213c-11 -72 -59 -131 -128 -139c62 -10 105 -83 92 -183c-24 -171 -104 -197 -258 -197h-305zM240 142h134c41 0 70 22 80 85c8 46 -2 89 -52 89h-134zM290 450h126c41 0 67 27 73 69c9 57 -18 71 -51 71h-126zM357 820l13 84
c2 15 12 25 28 25h80c15 0 21 -11 19 -25l-13 -84c-2 -15 -12 -23 -26 -23h-80c-14 0 -23 9 -21 23z" />
    <glyph glyph-name="uni1E03" unicode="&#x1e03;" horiz-adv-x="557" 
d="M33 0l124 785h163l-43 -279c46 21 106 33 151 33c148 0 159 -135 132 -306c-29 -175 -86 -241 -216 -239c-62 1 -107 28 -138 58l-35 -52h-138zM222 158c18 -18 51 -28 94 -28c40 0 63 27 80 140c18 116 8 146 -35 146c-38 0 -73 -5 -100 -18zM186 870l13 84
c2 15 12 25 28 25h80c15 0 21 -11 19 -25l-13 -84c-2 -15 -12 -23 -26 -23h-80c-14 0 -23 9 -21 23z" />
    <glyph glyph-name="uni1E0A" unicode="&#x1e0a;" horiz-adv-x="651" 
d="M54 0l116 732h305c205 0 229 -193 198 -392c-40 -263 -129 -340 -301 -340h-318zM240 142h128c80 0 120 79 142 222c30 186 -4 226 -78 226h-121zM358 809l14 84c2 15 12 25 28 25h80c15 0 21 -11 19 -25l-14 -84c-2 -15 -12 -23 -26 -23h-80c-14 0 -23 9 -21 23z" />
    <glyph glyph-name="Wgrave" unicode="&#x1e80;" horiz-adv-x="1013" 
d="M135 732h172l60 -516l209 516h174l-81 -184l48 -333l213 517h173l-317 -732h-188l-42 274l-118 -274h-200zM481 938h131l67 -141h-99z" />
    <glyph glyph-name="Wacute" unicode="&#x1e82;" horiz-adv-x="1013" 
d="M135 732h172l60 -516l209 516h174l-81 -184l48 -333l213 517h173l-317 -732h-188l-42 274l-118 -274h-200zM580 797l107 141h132l-140 -141h-99z" />
    <glyph glyph-name="uni1E0B" unicode="&#x1e0b;" horiz-adv-x="549" 
d="M74 293c26 149 71 246 217 246c45 0 103 -12 143 -33l44 279h164l-125 -785h-137l-20 52c-40 -30 -91 -58 -152 -58c-125 0 -163 134 -134 299zM240 270c-18 -112 -2 -140 36 -140c43 0 78 10 102 28l38 240c-22 13 -57 18 -95 18c-36 0 -61 -20 -81 -146zM509 868l13 84
c2 15 12 25 28 25h80c15 0 21 -11 19 -25l-13 -84c-2 -15 -12 -23 -26 -23h-80c-14 0 -23 9 -21 23z" />
    <glyph glyph-name="Ygrave" unicode="&#x1ef2;" horiz-adv-x="666" 
d="M135 732h178l68 -338l188 338h186l-318 -517l-35 -215h-164l35 215zM307 938h131l67 -141h-99z" />
    <glyph glyph-name="uni1E1E" unicode="&#x1e1e;" horiz-adv-x="559" 
d="M50 0l89 564c21 133 111 169 198 168c0 0 220 -4 307 -16l-22 -137h-264c-51 0 -57 -29 -61 -56l-13 -83l267 -10l-21 -136l-271 -9l-45 -285h-164zM364 820l14 84c2 15 12 25 28 25h80c15 0 21 -11 19 -25l-14 -84c-2 -15 -12 -23 -26 -23h-80c-14 0 -23 9 -21 23z" />
    <glyph glyph-name="uni1E1F" unicode="&#x1e1f;" horiz-adv-x="405" 
d="M78 412l16 102l82 17l13 83c21 130 81 172 200 172c47 0 93 -8 124 -24l-15 -96c-1 0 -83 1 -83 1c-55 1 -57 -23 -69 -98l-6 -38h114l-18 -119h-115l-67 -412h-164l66 412h-78zM324 869l14 84c2 15 12 25 28 25h80c15 0 21 -11 19 -25l-14 -84c-2 -15 -12 -23 -26 -23
h-80c-14 0 -23 9 -21 23z" />
    <glyph glyph-name="uni1E40" unicode="&#x1e40;" horiz-adv-x="837" 
d="M41 0l187 732h226l23 -460l167 460h231l-43 -732h-161l28 449l-166 -449h-189l-26 449l-112 -449h-165zM501 820l14 84c2 15 12 25 28 25h80c15 0 21 -11 19 -25l-14 -84c-2 -15 -12 -23 -26 -23h-80c-14 0 -23 9 -21 23z" />
    <glyph glyph-name="uni1E41" unicode="&#x1e41;" horiz-adv-x="867" 
d="M40 0l84 531h135l21 -55c48 34 86 63 167 63c67 0 107 -26 122 -67c51 32 113 67 195 67c124 0 143 -83 126 -193l-56 -346h-164l56 350c8 46 -9 63 -37 63c-46 0 -81 -9 -111 -37c-1 -6 -4 -23 -5 -30l-55 -346h-164l55 350c7 46 -9 63 -37 63c-48 0 -76 -13 -109 -42
l-59 -371h-164zM460 622l13 84c2 15 12 25 28 25h80c15 0 21 -11 19 -25l-13 -84c-2 -15 -12 -23 -26 -23h-80c-14 0 -23 9 -21 23z" />
    <glyph glyph-name="uni1E56" unicode="&#x1e56;" horiz-adv-x="598" 
d="M52 0l116 732h306c96 0 207 -53 176 -253c-35 -233 -164 -224 -251 -219c-40 3 -134 17 -139 20l-44 -280h-164zM279 402h127c42 0 68 26 79 97c11 70 -13 91 -49 91h-127zM356 820l13 84c2 15 12 25 28 25h80c15 0 21 -11 19 -25l-13 -84c-2 -15 -12 -23 -26 -23h-80
c-14 0 -23 9 -21 23z" />
    <glyph glyph-name="wgrave" unicode="&#x1e81;" horiz-adv-x="839" 
d="M80 531h173l40 -350l105 227c13 27 29 65 34 124h154c8 -46 -1 -93 -17 -134l-11 -28l34 -188l107 227c13 27 29 65 34 123h153c13 -66 -13 -135 -36 -178l-185 -354h-185l-31 176l-81 -176h-196zM360 736h130l67 -140h-99z" />
    <glyph glyph-name="uni1E57" unicode="&#x1e57;" horiz-adv-x="556" 
d="M-2 -270l125 776c64 19 187 30 286 30c135 0 185 -115 157 -294c-26 -178 -90 -252 -239 -252c-45 0 -90 11 -117 39l-48 -299h-164zM226 134c19 -15 50 -23 83 -20c52 3 74 32 94 158c14 82 11 145 -48 145h-82zM294 627l13 84c2 15 12 25 28 25h80c15 0 21 -11 19 -25
l-14 -84c-2 -15 -12 -23 -26 -23h-80c-14 0 -22 9 -20 23z" />
    <glyph glyph-name="wacute" unicode="&#x1e83;" horiz-adv-x="839" 
d="M80 531h173l40 -350l105 227c13 27 29 65 34 124h154c8 -46 -1 -93 -17 -134l-11 -28l34 -188l107 227c13 27 29 65 34 123h153c13 -66 -13 -135 -36 -178l-185 -354h-185l-31 176l-81 -176h-196zM466 592l107 141h132l-140 -141h-99z" />
    <glyph glyph-name="uni1E60" unicode="&#x1e60;" horiz-adv-x="582" 
d="M68 24l20 128c40 -5 154 -11 247 -11c43 0 78 9 85 53l4 29c6 36 1 58 -51 58h-87c-183 0 -178 151 -170 205l10 80c22 148 119 171 230 172c124 2 216 -8 282 -31l-20 -128c-60 5 -184 10 -234 10c-59 1 -86 -3 -95 -59l-4 -25c-8 -50 8 -60 61 -60h91
c145 0 163 -122 152 -202l-4 -65c-11 -178 -149 -186 -243 -186c-128 0 -194 4 -274 32zM352 824l14 84c2 15 12 25 28 25h80c15 0 21 -11 19 -25l-14 -84c-2 -15 -12 -23 -26 -23h-80c-14 0 -23 9 -21 23z" />
    <glyph glyph-name="ygrave" unicode="&#x1ef3;" horiz-adv-x="568" 
d="M80 531h170l22 -356c3 -35 33 -38 45 -39l113 273c11 27 20 65 26 123h154c13 -66 -9 -134 -29 -180l-153 -352c-113 -258 -268 -284 -338 -295v115c92 46 137 107 174 180c-94 0 -142 52 -150 144zM217 736h131l67 -140h-99z" />
    <glyph glyph-name="Wdieresis" unicode="&#x1e84;" horiz-adv-x="1013" 
d="M135 732h172l60 -516l209 516h174l-81 -184l48 -333l213 517h173l-317 -732h-188l-42 274l-118 -274h-200zM458 859c5 34 37 61 71 61s58 -27 52 -61c-5 -34 -37 -62 -71 -62s-58 28 -52 62zM713 859c5 34 37 61 71 61s58 -27 52 -61c-5 -34 -37 -62 -71 -62
s-58 28 -52 62z" />
    <glyph glyph-name="wdieresis" unicode="&#x1e85;" horiz-adv-x="839" 
d="M80 531h173l40 -350l105 227c13 27 29 65 34 124h154c8 -46 -1 -93 -17 -134l-11 -28l34 -188l107 227c13 27 29 65 34 123h153c13 -66 -13 -135 -36 -178l-185 -354h-185l-31 176l-81 -176h-196zM332 658c6 34 38 62 72 62s57 -28 52 -62c-6 -34 -38 -62 -72 -62
s-57 28 -52 62zM587 658c6 34 38 62 72 62s57 -28 52 -62c-6 -34 -38 -62 -72 -62s-57 28 -52 62z" />
    <glyph glyph-name="uni1E61" unicode="&#x1e61;" horiz-adv-x="509" 
d="M53 26l15 100h242c13 0 29 3 33 26l3 17c3 18 -2 27 -25 27h-108c-94 0 -149 60 -133 162l8 47c14 83 59 132 162 132c120 0 254 0 286 -31l-16 -100h-232c-26 0 -35 -9 -38 -28l-2 -17c-6 -29 12 -26 28 -26h113c106 0 137 -77 125 -155l-10 -60
c-16 -110 -90 -126 -152 -126c-120 0 -268 0 -299 32zM267 620l13 84c2 15 12 25 28 25h80c15 0 21 -11 19 -25l-13 -84c-2 -15 -12 -23 -26 -23h-80c-14 0 -23 9 -21 23z" />
    <glyph glyph-name="Wcircumflex" unicode="&#x174;" horiz-adv-x="1013" 
d="M135 732h172l60 -516l209 516h174l-81 -184l48 -333l213 517h173l-317 -732h-188l-42 274l-118 -274h-200zM440 797l126 137h116l73 -137h-100l-37 59l-66 -59h-112z" />
    <glyph glyph-name="uni1E6A" unicode="&#x1e6a;" horiz-adv-x="592" 
d="M116 583l24 149h553l-24 -149h-198l-92 -583h-164l92 583h-191zM366 820l14 84c2 15 12 25 28 25h80c15 0 21 -11 19 -25l-14 -84c-2 -15 -12 -23 -26 -23h-80c-14 0 -23 9 -21 23z" />
    <glyph glyph-name="Ycircumflex" unicode="&#x176;" horiz-adv-x="666" 
d="M135 732h178l68 -338l188 338h186l-318 -517l-35 -215h-164l35 215zM298 797l126 137h116l72 -137h-99l-38 59l-66 -59h-111z" />
    <glyph glyph-name="ycircumflex" unicode="&#x177;" horiz-adv-x="568" 
d="M80 531h170l22 -356c3 -35 33 -38 45 -39l113 273c11 27 20 65 26 123h154c13 -66 -9 -134 -29 -180l-153 -352c-113 -258 -268 -284 -338 -295v115c92 46 137 107 174 180c-94 0 -142 52 -150 144zM196 596l126 138h116l73 -138h-100l-37 59l-66 -59h-112z" />
    <glyph glyph-name="wcircumflex" unicode="&#x175;" horiz-adv-x="839" 
d="M80 531h173l40 -350l105 227c13 27 29 65 34 124h154c8 -46 -1 -93 -17 -134l-11 -28l34 -188l107 227c13 27 29 65 34 123h153c13 -66 -13 -135 -36 -178l-185 -354h-185l-31 176l-81 -176h-196zM339 596l126 138h116l72 -138h-99l-38 59l-66 -59h-111z" />
    <glyph glyph-name="uni1E6B" unicode="&#x1e6b;" horiz-adv-x="375" 
d="M71 413l13 86l87 33l49 148h138l-23 -148h105l-18 -119h-106l-31 -193c-12 -78 1 -90 26 -102c0 0 48 -20 53 -20l-15 -99h-107c-84 0 -147 53 -125 191l35 223h-81zM247 763l13 84c2 15 12 25 28 25h80c15 0 21 -11 19 -25l-13 -84c-2 -15 -12 -23 -26 -23h-80
c-14 0 -23 9 -21 23z" />
    <glyph glyph-name="uni1E03.smcp" horiz-adv-x="549" 
d="M54 0l90 571h270c124 0 186 -53 169 -161c-13 -83 -57 -116 -105 -119c45 -7 80 -63 68 -144c-20 -126 -95 -147 -221 -147h-271zM240 135h92c21 0 45 7 51 52c5 35 -3 52 -35 52h-92zM274 351h92c34 0 44 13 49 45c5 30 -6 41 -35 41h-93zM300 654l14 84
c2 15 12 25 28 25h80c15 0 21 -11 19 -25l-14 -84c-2 -15 -12 -23 -26 -23h-80c-14 0 -23 9 -21 23z" />
    <glyph glyph-name="uni1E0B.smcp" horiz-adv-x="582" 
d="M54 0l91 572h274c182 -2 194 -163 176 -312c-34 -274 -179 -260 -264 -260h-277zM240 142h92c67 0 87 67 99 141c17 108 -5 147 -53 147h-92zM310 655l13 84c2 15 12 25 28 25h80c15 0 21 -11 19 -25l-13 -84c-2 -15 -12 -23 -26 -23h-80c-14 0 -23 9 -21 23z" />
    <glyph glyph-name="uni1E1F.smcp" horiz-adv-x="511" 
d="M54 0l71 451c14 87 76 119 153 120c0 0 225 -3 292 -16l-19 -125h-233c-30 0 -33 -9 -38 -32l-9 -62l225 -8l-19 -120l-228 -8l-31 -200h-164zM303 654l14 84c2 15 12 25 28 25h80c15 0 21 -11 19 -25l-14 -84c-2 -15 -12 -23 -26 -23h-80c-14 0 -23 9 -21 23z" />
    <glyph glyph-name="uni1E41.smcp" horiz-adv-x="776" 
d="M37 0l143 571h214l28 -346l137 346h219l-38 -571h-161l19 330l-123 -330h-167l-26 329l-80 -329h-165zM429 654l13 84c2 15 12 25 28 25h80c15 0 21 -11 19 -25l-13 -84c-2 -15 -12 -23 -26 -23h-80c-14 0 -23 9 -21 23z" />
    <glyph glyph-name="wgrave.smcp" horiz-adv-x="848" 
d="M114 570h170l31 -373l143 373h170l-63 -148l38 -225l143 373h171l-242 -570h-201l-21 153l-66 -153h-202zM379 770h130l67 -140h-99z" />
    <glyph glyph-name="uni1E57.smcp" horiz-adv-x="529" 
d="M40 0l90 569h279c105 0 173 -53 153 -199c-24 -184 -135 -183 -199 -184c-25 -1 -125 7 -127 12l-31 -198h-165zM253 304h89c26 0 45 12 54 65c7 43 -1 66 -34 66h-88zM295 652l13 84c2 15 12 25 28 25h80c15 0 21 -11 19 -25l-13 -84c-2 -15 -12 -23 -26 -23h-80
c-14 0 -23 9 -21 23z" />
    <glyph glyph-name="wacute.smcp" horiz-adv-x="848" 
d="M114 570h170l31 -373l143 373h170l-63 -148l38 -225l143 373h171l-242 -570h-201l-21 153l-66 -153h-202zM486 630l107 140h132l-140 -140h-99z" />
    <glyph glyph-name="ygrave.smcp" horiz-adv-x="595" 
d="M114 570h172l68 -196l125 196h183l-246 -372l-31 -199h-164l31 199zM242 770h131l67 -140h-99z" />
    <glyph glyph-name="wdieresis.smcp" horiz-adv-x="848" 
d="M114 570h170l31 -373l143 373h170l-63 -148l38 -225l143 373h171l-242 -570h-201l-21 153l-66 -153h-202zM346 692c6 34 38 62 72 62s57 -28 52 -62c-6 -34 -38 -62 -72 -62s-57 28 -52 62zM601 692c6 34 38 62 72 62s57 -28 52 -62c-6 -34 -38 -62 -72 -62
s-57 28 -52 62z" />
    <glyph glyph-name="uni1E61.smcp" horiz-adv-x="538" 
d="M61 15l18 115s143 -6 245 -6c29 0 36 20 38 28l5 28c4 24 -6 29 -29 29h-115c-114 0 -143 72 -129 169l7 43c13 87 59 152 187 152c52 0 194 -5 274 -24l-18 -117s-130 8 -240 8c-25 0 -37 -16 -40 -35l-4 -23c-4 -26 6 -31 30 -31h122c118 0 133 -88 120 -174l-7 -40
c-19 -123 -87 -147 -169 -147c-46 0 -258 1 -295 25zM295 656l13 84c2 15 12 25 28 25h80c15 0 21 -11 19 -25l-13 -84c-2 -15 -12 -23 -26 -23h-80c-14 0 -23 9 -21 23z" />
    <glyph glyph-name="wcircumflex.smcp" horiz-adv-x="848" 
d="M114 570h170l31 -373l143 373h170l-63 -148l38 -225l143 373h171l-242 -570h-201l-21 153l-66 -153h-202zM368 630l126 138h116l72 -138h-99l-38 59l-66 -59h-111z" />
    <glyph glyph-name="uni1E6B.smcp" horiz-adv-x="522" 
d="M90 421l24 149h476l-24 -149h-156l-67 -421h-164l67 421h-156zM299 653l14 84c2 15 12 25 28 25h80c15 0 21 -11 19 -25l-14 -84c-2 -15 -12 -23 -26 -23h-80c-14 0 -23 9 -21 23z" />
    <glyph glyph-name="ycircumflex.smcp" horiz-adv-x="595" 
d="M114 570h172l68 -196l125 196h183l-246 -372l-31 -199h-164l31 199zM241 630l126 138h116l72 -138h-99l-38 59l-66 -59h-111z" />
    <glyph glyph-name="uni0338" unicode="&#x338;" horiz-adv-x="623" 
d="M75 200l53 355c21 126 101 177 222 177h164c139 0 164 -102 149 -200l-55 -362c-18 -120 -94 -170 -210 -170h-164c-121 0 -178 80 -159 200zM258 305c0 -4 -6 -41 -6 -44l221 317c-7 3 -15 5 -25 5h-84c-59 0 -69 -44 -72 -65zM262 157c11 -7 26 -8 39 -8h73
c40 0 66 11 75 65l36 226c1 6 5 39 3 43z" />
    <glyph glyph-name="afii61352" unicode="&#x2116;" horiz-adv-x="1122" 
d="M48 0l95 605c29 184 350 182 347 10l26 -457c0 -20 24 -12 26 2c0 0 57 362 64 406c20 124 101 167 194 168h272c100 0 132 -46 111 -181c-19 -121 -43 -168 -165 -172h-36c-109 4 -167 28 -139 204h122c-13 -85 -5 -89 24 -89h24c29 0 40 2 48 57c9 57 3 63 -40 63
c0 0 -68 2 -129 2c-80 0 -115 -8 -126 -77c-8 -45 -66 -413 -66 -413c-27 -172 -345 -182 -342 12l-25 450c-1 16 -26 10 -29 -7l-92 -583h-164z" />
    <glyph glyph-name="afii61289" unicode="&#x2113;" horiz-adv-x="488" 
d="M60 256c22 16 43 36 65 56l43 260c16 108 93 168 228 167c84 -1 160 -59 140 -186c-20 -131 -167 -237 -254 -289l-4 -29c-10 -65 -10 -107 83 -123c0 0 57 -12 62 -12l-16 -99h-150c-97 0 -171 45 -151 179l2 18c-12 -8 -25 -14 -37 -20zM308 426c54 56 86 106 92 146
c12 43 -56 61 -65 4z" />
    <glyph glyph-name="estimated" unicode="&#x212e;" horiz-adv-x="680" 
d="M50 266c0 78 29 140 84 192c56 50 120 75 217 75c89 0 150 -21 208 -66s89 -120 93 -209h-479c-7 0 -12 2 -12 -11v-133c0 -27 76 -93 190 -93c76 0 148 36 191 84h56c-38 -40 -73 -67 -113 -83c-42 -16 -72 -22 -134 -22c-96 0 -163 23 -218 74s-83 114 -83 192z
M161 284c0 -9 4 -9 9 -9h357c12 0 13 -3 13 7v133c0 42 -104 99 -190 99c-108 0 -189 -70 -189 -93v-137z" />
    <glyph glyph-name="c_k" horiz-adv-x="1020" 
d="M69 288c34 214 116 248 218 248c52 0 169 -7 245 -34l-16 -98s-78 6 -168 6c-66 0 -92 -2 -115 -146c-21 -130 19 -142 85 -143c58 -1 147 29 238 74l92 587h164l-76 -482c96 71 175 159 182 231h173c-18 -91 -94 -190 -175 -261l143 -270h-180l-93 174
c-19 -12 -57 -36 -78 -47l-20 -127h-164l9 50c-78 -30 -156 -52 -224 -52c-201 0 -274 76 -240 290z" />
    <glyph glyph-name="N.salt" horiz-adv-x="726" 
d="M54 0l92 597c31 197 352 181 350 10l27 -449c1 -20 22 -14 24 3l91 571h164l-92 -596c-30 -186 -348 -193 -347 4l-26 450c-1 16 -23 10 -26 -7l-93 -583h-164z" />
    <glyph glyph-name="M.salt" horiz-adv-x="879" 
d="M37 0l129 613c32 162 339 165 320 -15l-14 -276c-2 -19 26 -15 29 0l71 285c35 173 346 166 332 14l-60 -621h-166l58 535c2 17 -23 13 -27 -3l-71 -269c-36 -135 -322 -142 -316 7l11 269c1 17 -24 13 -27 -6l-106 -533h-163z" />
    <glyph glyph-name="uni1E40.salt" horiz-adv-x="879" 
d="M37 0l129 613c32 162 339 165 320 -15l-14 -276c-2 -19 26 -15 29 0l71 285c35 173 346 166 332 14l-60 -621h-166l58 535c2 17 -23 13 -27 -3l-71 -269c-36 -135 -322 -142 -316 7l11 269c1 17 -24 13 -27 -6l-106 -533h-163zM490 823l13 84c2 15 12 25 28 25h80
c15 0 21 -11 19 -25l-13 -84c-2 -15 -12 -23 -26 -23h-80c-14 0 -23 9 -21 23z" />
    <glyph glyph-name="Ntilde.salt" horiz-adv-x="726" 
d="M54 0l92 597c31 197 352 181 350 10l27 -449c1 -20 22 -14 24 3l91 571h164l-92 -596c-30 -186 -348 -193 -347 4l-26 450c-1 16 -23 10 -26 -7l-93 -583h-164zM312 858c34 35 80 71 133 71c45 -1 63 -35 100 -35c36 -2 79 20 100 39l14 -66c-31 -32 -75 -70 -125 -70
c-46 1 -69 35 -108 35c-40 0 -64 -14 -99 -35z" />
    <glyph glyph-name="Nacute.salt" horiz-adv-x="726" 
d="M54 0l92 597c31 197 352 181 350 10l27 -449c1 -20 22 -14 24 3l91 571h164l-92 -596c-30 -186 -348 -193 -347 4l-26 450c-1 16 -23 10 -26 -7l-93 -583h-164zM476 800l106 140h133l-141 -140h-98z" />
    <glyph glyph-name="Ncaron.salt" horiz-adv-x="726" 
d="M54 0l92 597c31 197 352 181 350 10l27 -449c1 -20 22 -14 24 3l91 571h164l-92 -596c-30 -186 -348 -193 -347 4l-26 450c-1 16 -23 10 -26 -7l-93 -583h-164zM364 938h100l40 -60l63 60h112l-126 -138h-113z" />
    <glyph glyph-name="Ncommaaccent.salt" horiz-adv-x="726" 
d="M54 0l92 597c31 197 352 181 350 10l27 -449c1 -20 22 -14 24 3l91 571h164l-92 -596c-30 -186 -348 -193 -347 4l-26 450c-1 16 -23 10 -26 -7l-93 -583h-164zM280 -302l8 53c30 -1 32 13 34 23l2 10h-11c-14 0 -23 8 -21 24l16 97c3 17 12 26 28 26h94
c17 0 21 -12 19 -26l-21 -132c-18 -114 -148 -75 -148 -75z" />
    <glyph glyph-name="minus" unicode="&#x2212;" horiz-adv-x="453" 
d="M73 289l18 134h416l-18 -134h-416z" />
    <glyph glyph-name="zero.numerator" horiz-adv-x="461" 
d="M100 378l36 233c14 85 60 128 145 128h118c98 0 131 -57 120 -123l-37 -238c-14 -83 -55 -123 -138 -123h-118c-80 0 -140 40 -126 123zM229 408c-6 -36 13 -39 36 -39h49c28 0 42 5 48 38l32 180c5 29 -5 38 -32 38h-56c-35 0 -41 -15 -45 -38z" />
    <glyph glyph-name="one.numerator" horiz-adv-x="280" 
d="M108 596l12 86c20 0 87 30 111 58h123l-77 -485h-125l58 360c-25 -20 -83 -19 -102 -19z" />
    <glyph glyph-name="two.numerator" horiz-adv-x="403" 
d="M64 255l18 109c63 38 252 158 261 219c7 41 -14 49 -69 49h-154s15 94 16 94c60 12 109 20 202 20c104 0 145 -82 133 -160c-16 -103 -125 -182 -171 -217h135l-18 -114h-353z" />
    <glyph glyph-name="three.numerator" horiz-adv-x="408" 
d="M66 271l16 93h154c48 0 68 5 72 34l1 9c5 29 -17 34 -57 36l-117 4l16 101l119 5c46 2 65 7 69 33l1 9c5 28 -19 33 -58 33h-163l14 92c64 22 144 23 224 21c77 -1 122 -57 110 -131l-5 -28c-8 -49 -32 -80 -73 -87c42 -13 51 -61 43 -109l-4 -22
c-12 -78 -64 -114 -153 -114c-79 0 -153 -2 -209 21z" />
    <glyph glyph-name="four.numerator" horiz-adv-x="442" 
d="M74 400l211 339h133l-168 -277h91l15 96l31 50h98l-23 -146h44l-15 -97l-50 -19l-12 -89h-121l15 88h-227z" />
    <glyph glyph-name="five.numerator" horiz-adv-x="414" 
d="M79 269l15 99h185c37 0 46 8 49 34l2 25c3 19 2 36 -31 36h-49c-22 0 -34 -9 -37 -29h-107l63 305h315l-18 -114h-198l-16 -70c32 21 73 18 106 16c91 -6 105 -80 98 -135l-10 -74c-10 -94 -84 -110 -151 -110c-86 0 -127 0 -216 17z" />
    <glyph glyph-name="six.numerator" horiz-adv-x="435" 
d="M114 520c29 182 89 215 152 222c73 9 174 -1 240 -14l-15 -95h-168c-64 0 -70 -47 -77 -89c34 12 68 16 123 16c99 0 120 -67 109 -133l-10 -69c-14 -85 -68 -103 -150 -103h-87c-82 0 -149 59 -117 265zM231 460c-7 -48 -6 -91 42 -91h39c24 0 35 7 38 29l5 30
c4 25 0 32 -27 32h-97z" />
    <glyph glyph-name="seven.numerator" horiz-adv-x="414" 
d="M108 626l18 114h363l23 -52l-251 -433h-137l216 371h-232z" />
    <glyph glyph-name="eight.numerator" horiz-adv-x="462" 
d="M102 380l6 40c6 37 31 60 70 66c-49 24 -47 70 -42 108l8 44c14 93 80 105 154 105h113c78 0 121 -43 108 -124l-5 -32c-3 -17 -19 -59 -68 -66c47 -11 46 -75 41 -104l-9 -53c-16 -105 -77 -109 -146 -109h-112c-123 0 -125 80 -118 125zM230 392c-3 -22 5 -29 34 -29
h52c29 0 37 9 40 29l5 28c3 19 -3 31 -30 31h-56c-28 0 -37 -10 -39 -31zM261 584c-4 -26 8 -31 31 -31h54c34 0 38 13 40 31l4 19c5 30 -10 33 -32 33h-52c-25 0 -37 -4 -42 -33z" />
    <glyph glyph-name="nine.numerator" horiz-adv-x="436" 
d="M89 263l15 96h168c64 0 71 48 79 93c-35 -12 -69 -15 -124 -15c-99 -1 -118 72 -107 140l8 60c13 86 67 111 148 109l94 -1c85 0 144 -68 111 -279c-30 -186 -88 -209 -152 -217c-73 -9 -175 3 -240 14zM243 578c-4 -26 -1 -33 25 -33h98c8 51 4 88 -44 88h-37
c-25 0 -34 -8 -38 -32z" />
    <glyph glyph-name="zero.denominator" horiz-adv-x="460" 
d="M59 122l36 233c14 85 60 128 145 128h118c98 0 131 -57 120 -123l-37 -238c-13 -83 -55 -123 -138 -123h-118c-81 0 -140 40 -126 123zM188 152c-6 -36 13 -39 36 -39h48c28 0 44 5 49 38l32 180c5 29 -5 38 -32 38h-56c-35 0 -41 -15 -45 -38z" />
    <glyph glyph-name="one.denominator" horiz-adv-x="280" 
d="M67 340l13 86c20 0 86 30 110 58h123l-77 -485h-124l58 360c-26 -20 -84 -19 -103 -19z" />
    <glyph glyph-name="two.denominator" horiz-adv-x="403" 
d="M24 -1l18 109c63 38 252 158 261 219c7 41 -14 49 -69 49h-154s15 94 16 94c60 12 109 20 202 20c104 0 145 -82 133 -160c-16 -103 -125 -182 -171 -217h135l-18 -114h-353z" />
    <glyph glyph-name="three.denominator" horiz-adv-x="409" 
d="M26 15l16 93h154c48 0 68 5 72 34l1 9c5 29 -17 34 -57 36l-117 4l16 101l119 5c46 2 65 7 69 33l1 9c5 28 -19 33 -58 33h-163l14 92c64 22 144 23 224 21c77 -1 122 -57 110 -131l-5 -28c-8 -49 -32 -80 -73 -87c42 -13 51 -61 43 -109l-4 -22
c-12 -78 -64 -114 -153 -114c-79 0 -153 -2 -209 21z" />
    <glyph glyph-name="four.denominator" horiz-adv-x="443" 
d="M34 144l211 339h133l-168 -277h91l15 96l31 50h98l-23 -146h44l-16 -97l-49 -19l-12 -89h-121l15 88h-228z" />
    <glyph glyph-name="five.denominator" horiz-adv-x="414" 
d="M39 13l15 99h185c37 0 46 8 49 34l2 25c3 19 2 36 -31 36h-49c-22 0 -34 -9 -37 -29h-107l63 305h315l-18 -114h-198l-16 -70c32 21 73 18 106 16c91 -6 105 -80 98 -135l-10 -74c-10 -94 -84 -110 -151 -110c-86 0 -127 0 -216 17z" />
    <glyph glyph-name="six.denominator" horiz-adv-x="435" 
d="M74 264c29 182 89 215 152 222c72 9 174 -2 240 -14l-16 -95h-168c-63 0 -70 -47 -76 -89c34 12 68 16 123 16c99 0 120 -67 109 -133l-11 -69c-13 -85 -68 -103 -149 -103h-87c-82 0 -150 59 -117 265zM191 204c-7 -48 -6 -91 42 -91h39c24 0 35 7 38 29l5 30
c3 25 -1 32 -27 32h-97z" />
    <glyph glyph-name="seven.denominator" horiz-adv-x="415" 
d="M68 370l18 114h362l24 -52l-252 -433h-136l216 371h-232z" />
    <glyph glyph-name="eight.denominator" horiz-adv-x="461" 
d="M61 124l7 40c5 37 30 60 69 66c-49 24 -47 70 -41 108l6 44c16 93 82 105 154 105h114c78 0 120 -43 108 -124l-6 -32c-2 -17 -18 -59 -67 -66c47 -11 45 -75 41 -104l-8 -53c-17 -105 -78 -109 -146 -109h-113c-123 0 -125 80 -118 125zM190 136c-4 -22 3 -29 32 -29h54
c28 0 36 9 39 29l5 28c3 19 -3 31 -30 31h-56c-28 0 -36 -10 -40 -31zM220 328c-4 -26 8 -31 31 -31h54c33 0 38 13 40 31l4 19c5 30 -10 33 -32 33h-51c-26 0 -38 -4 -42 -33z" />
    <glyph glyph-name="nine.denominator" horiz-adv-x="436" 
d="M48 7l16 96h168c63 0 70 48 78 93c-34 -12 -69 -15 -124 -15c-99 -1 -118 72 -107 140l9 60c12 86 66 111 147 109l94 -1c85 0 145 -68 111 -279c-30 -186 -88 -209 -152 -217c-72 -9 -176 1 -240 14zM202 322c-4 -26 -1 -33 26 -33h97c8 51 5 88 -43 88h-38
c-25 0 -34 -8 -38 -32z" />
    <glyph glyph-name="c_h" horiz-adv-x="1066" 
d="M68 288c34 214 116 248 218 248c52 0 156 0 245 -34l-15 -98s-79 6 -168 6c-66 0 -93 -2 -116 -148c-20 -124 6 -142 78 -142c189 0 263 1 283 125l85 537h163l-49 -306c39 30 89 64 170 64c130 0 143 -86 126 -192l-54 -348h-164l55 350c7 48 -9 64 -38 64
c-50 0 -82 -15 -110 -42l-23 -141c-45 -290 -329 -236 -514 -238c-99 0 -209 63 -172 295z" />
    <glyph glyph-name="m.salt" horiz-adv-x="864" 
d="M40 0l74 468c105 62 161 72 312 72c48 0 104 -16 126 -41c68 29 133 41 209 41c106 0 145 -76 130 -170l-59 -370h-164l54 340c7 46 0 66 -38 66c-37 0 -72 -3 -107 -30c1 -4 -1 -25 -2 -30l-55 -346h-164l53 340c7 46 -1 66 -38 66c-36 0 -68 -2 -107 -30l-60 -376h-164
z" />
    <glyph glyph-name="n.salt" horiz-adv-x="552" 
d="M40 0l74 468c105 62 168 72 320 72c106 0 159 -76 144 -170l-58 -370h-164l53 340c7 46 -1 66 -38 66c-36 0 -68 -2 -107 -30l-60 -376h-164z" />
    <glyph glyph-name="ntilde.salt" horiz-adv-x="552" 
d="M40 0l74 468c105 62 168 72 320 72c106 0 159 -76 144 -170l-58 -370h-164l53 340c7 46 -1 66 -38 66c-36 0 -68 -2 -107 -30l-60 -376h-164zM212 660c34 36 81 72 133 72c46 -1 63 -34 100 -35c36 -1 79 21 100 39l14 -66c-31 -32 -75 -70 -124 -70
c-46 0 -70 35 -108 35c-40 0 -65 -13 -99 -35z" />
    <glyph glyph-name="ncommaaccent.salt" horiz-adv-x="552" 
d="M40 0l74 468c105 62 168 72 320 72c106 0 159 -76 144 -170l-58 -370h-164l53 340c7 46 -1 66 -38 66c-36 0 -68 -2 -107 -30l-60 -376h-164zM180 -275l8 49c27 -1 29 12 31 21l2 9h-10c-13 0 -22 7 -19 23l14 89c3 16 12 24 26 24h87c16 0 19 -11 17 -24l-19 -122
c-17 -105 -137 -69 -137 -69z" />
    <glyph glyph-name="ncaron.salt" horiz-adv-x="552" 
d="M40 0l74 468c105 62 168 72 320 72c106 0 159 -76 144 -170l-58 -370h-164l53 340c7 46 -1 66 -38 66c-36 0 -68 -2 -107 -30l-60 -376h-164zM239 738h100l40 -60l63 60h112l-126 -138h-112z" />
    <glyph glyph-name="nacute.salt" horiz-adv-x="552" 
d="M40 0l74 468c105 62 168 72 320 72c106 0 159 -76 144 -170l-58 -370h-164l53 340c7 46 -1 66 -38 66c-36 0 -68 -2 -107 -30l-60 -376h-164zM321 600l107 140h132l-140 -140h-99z" />
    <glyph glyph-name="uni1E41.salt" horiz-adv-x="864" 
d="M40 0l74 468c105 62 161 72 312 72c48 0 104 -16 126 -41c68 29 133 41 209 41c106 0 145 -76 130 -170l-59 -370h-164l54 340c7 46 0 66 -38 66c-37 0 -72 -3 -107 -30c1 -4 -1 -25 -2 -30l-55 -346h-164l53 340c7 46 -1 66 -38 66c-36 0 -68 -2 -107 -30l-60 -376h-164
zM461 623l13 84c2 15 12 25 28 25h80c15 0 21 -11 19 -25l-13 -84c-2 -15 -12 -23 -26 -23h-80c-14 0 -23 9 -21 23z" />
    <glyph glyph-name="r.salt" horiz-adv-x="410" 
d="M40 0l76 476c90 63 205 76 366 62l-23 -142c-66 12 -139 10 -194 -12l-61 -384h-164z" />
    <glyph glyph-name="racute.salt" horiz-adv-x="410" 
d="M40 0l76 476c90 63 205 76 366 62l-23 -142c-66 12 -139 10 -194 -12l-61 -384h-164zM257 603l107 140h133l-141 -140h-99z" />
    <glyph glyph-name="rcaron.salt" horiz-adv-x="410" 
d="M40 0l76 476c90 63 205 76 366 62l-23 -142c-66 12 -139 10 -194 -12l-61 -384h-164zM180 740h100l40 -59l64 59h111l-126 -137h-112z" />
    <glyph glyph-name="rcommaaccent.salt" horiz-adv-x="410" 
d="M40 0l75 476c91 63 205 76 366 62l-22 -142c-67 12 -140 10 -195 -12l-60 -384h-164zM23 -274l8 49c27 -1 29 12 31 21l1 9h-9c-13 0 -22 7 -19 23l14 89c2 16 11 24 26 24h86c17 0 20 -11 18 -24l-19 -122c-17 -105 -137 -69 -137 -69z" />
    <glyph glyph-name="x.salt" horiz-adv-x="598" 
d="M13 0l147 230c29 43 30 56 12 104l-75 197h170l64 -183c10 -20 -7 -146 -20 -163l-115 -185h-183zM349 185c-8 16 16 159 30 175l109 171h182l-139 -213c-33 -47 -37 -60 -21 -103l76 -215h-172z" />
    <glyph glyph-name="X.salt" horiz-adv-x="673" 
d="M13 0l189 312c38 63 42 85 21 152l-94 268h177l81 -252c8 -20 -14 -204 -27 -221l-160 -259h-187zM399 259c-7 17 24 203 37 221l160 252h180l-182 -282c-42 -68 -46 -90 -27 -152l93 -298h-178z" />
    <glyph glyph-name="a.salt" 
d="M74 287c28 194 106 251 246 251c115 0 204 -25 261 -67l-61 -447c-43 -27 -190 -32 -260 -32c-151 0 -219 89 -186 295zM235 256c-12 -83 -13 -144 48 -144c19 0 83 1 83 1l44 289c-20 8 -45 14 -75 14c-63 0 -81 -35 -100 -160z" />
    <glyph glyph-name="agrave.salt" 
d="M74 287c28 194 106 251 246 251c115 0 204 -25 261 -67l-61 -447c-43 -27 -190 -32 -260 -32c-151 0 -219 89 -186 295zM235 256c-12 -83 -13 -144 48 -144c19 0 83 1 83 1l44 289c-20 8 -45 14 -75 14c-63 0 -81 -35 -100 -160zM198 740h130l68 -140h-100z" />
    <glyph glyph-name="aacute.salt" 
d="M74 287c28 194 106 251 246 251c115 0 204 -25 261 -67l-61 -447c-43 -27 -190 -32 -260 -32c-151 0 -219 89 -186 295zM235 256c-12 -83 -13 -144 48 -144c19 0 83 1 83 1l44 289c-20 8 -45 14 -75 14c-63 0 -81 -35 -100 -160zM310 600l107 140h132l-140 -140h-99z" />
    <glyph glyph-name="atilde.salt" 
d="M74 287c28 194 106 251 246 251c115 0 204 -25 261 -67l-61 -447c-43 -27 -190 -32 -260 -32c-151 0 -219 89 -186 295zM235 256c-12 -83 -13 -144 48 -144c19 0 83 1 83 1l44 289c-20 8 -45 14 -75 14c-63 0 -81 -35 -100 -160zM193 659c35 35 81 71 134 71
c45 0 63 -34 100 -34c36 -2 79 20 100 38l14 -66c-31 -32 -75 -70 -125 -70c-46 1 -69 36 -108 35c-40 0 -65 -13 -99 -35z" />
    <glyph glyph-name="aring.salt" 
d="M74 287c28 194 106 251 246 251c115 0 204 -25 261 -67l-61 -447c-43 -27 -190 -32 -260 -32c-151 0 -219 89 -186 295zM235 256c-12 -83 -13 -144 48 -144c19 0 83 1 83 1l44 289c-20 8 -45 14 -75 14c-63 0 -81 -35 -100 -160zM275 699c5 57 54 101 110 101
s98 -44 93 -101s-52 -101 -108 -101s-100 44 -95 101zM338 699c-2 -22 14 -39 36 -39c21 0 39 17 41 39c3 21 -13 39 -34 39c-22 0 -41 -18 -43 -39z" />
    <glyph glyph-name="acircumflex.salt" 
d="M74 287c28 194 106 251 246 251c115 0 204 -25 261 -67l-61 -447c-43 -27 -190 -32 -260 -32c-151 0 -219 89 -186 295zM235 256c-12 -83 -13 -144 48 -144c19 0 83 1 83 1l44 289c-20 8 -45 14 -75 14c-63 0 -81 -35 -100 -160zM199 598l126 138h116l73 -138h-100
l-37 59l-66 -59h-112z" />
    <glyph glyph-name="adieresis.salt" 
d="M74 287c28 194 106 251 246 251c115 0 204 -25 261 -67l-61 -447c-43 -27 -190 -32 -260 -32c-151 0 -219 89 -186 295zM235 256c-12 -83 -13 -144 48 -144c19 0 83 1 83 1l44 289c-20 8 -45 14 -75 14c-63 0 -81 -35 -100 -160zM170 660c6 34 38 62 72 62s57 -28 52 -62
c-6 -34 -38 -62 -72 -62s-57 28 -52 62zM425 660c6 34 38 62 72 62s57 -28 52 -62c-6 -34 -38 -62 -72 -62s-57 28 -52 62z" />
    <glyph glyph-name="aogonek.salt" horiz-adv-x="619" 
d="M74 287c28 194 106 251 246 251c115 0 204 -25 261 -67l-61 -447c-43 -27 -190 -32 -260 -32c-151 0 -219 89 -186 295zM235 256c-12 -83 -13 -144 48 -144c19 0 83 1 83 1l44 289c-20 8 -45 14 -75 14c-63 0 -81 -35 -100 -160zM449 24h61c-86 -57 -54 -112 -6 -106
l-13 -83c-107 -29 -193 114 -42 189z" />
    <glyph glyph-name="abreve.salt" 
d="M74 287c28 194 106 251 246 251c115 0 204 -25 261 -67l-61 -447c-43 -27 -190 -32 -260 -32c-151 0 -219 89 -186 295zM235 256c-12 -83 -13 -144 48 -144c19 0 83 1 83 1l44 289c-20 8 -45 14 -75 14c-63 0 -81 -35 -100 -160zM257 711h62c-4 -33 13 -53 45 -53
c40 0 57 19 61 53h62c-8 -71 -53 -113 -123 -113c-65 0 -113 43 -107 113z" />
    <glyph glyph-name="amacron.salt" 
d="M74 287c28 194 106 251 246 251c115 0 204 -25 261 -67l-61 -447c-43 -27 -190 -32 -260 -32c-151 0 -219 89 -186 295zM235 256c-12 -83 -13 -144 48 -144c19 0 83 1 83 1l44 289c-20 8 -45 14 -75 14c-63 0 -81 -35 -100 -160zM212 598l14 86h292l-14 -86h-292z" />
    <glyph glyph-name="u.salt" 
d="M58 185l56 348h164l-54 -340c-7 -47 1 -66 38 -66c36 0 80 3 107 23l60 383h164l-72 -483c-94 -52 -147 -57 -298 -57c-133 0 -179 98 -165 192z" />
    <glyph glyph-name="ugrave.salt" 
d="M58 185l56 348h164l-54 -340c-7 -47 1 -66 38 -66c36 0 80 3 107 23l60 383h164l-72 -483c-94 -52 -147 -57 -298 -57c-133 0 -179 98 -165 192zM216 739h130l67 -141h-99z" />
    <glyph glyph-name="uacute.salt" 
d="M58 185l56 348h164l-54 -340c-7 -47 1 -66 38 -66c36 0 80 3 107 23l60 383h164l-72 -483c-94 -52 -147 -57 -298 -57c-133 0 -179 98 -165 192zM314 598l107 141h133l-141 -141h-99z" />
    <glyph glyph-name="utilde.salt" 
d="M58 185l56 348h164l-54 -340c-7 -47 1 -66 38 -66c36 0 80 3 107 23l60 383h164l-72 -483c-94 -52 -147 -57 -298 -57c-133 0 -179 98 -165 192zM201 659c35 35 81 71 133 71c46 0 63 -34 100 -34c36 -2 79 20 100 38l15 -66c-31 -32 -76 -70 -125 -70
c-46 1 -70 36 -108 35c-40 0 -65 -13 -99 -35z" />
    <glyph glyph-name="uhungarumlaut.salt" 
d="M58 185l56 348h164l-54 -340c-7 -47 1 -66 38 -66c36 0 80 3 107 23l60 383h164l-72 -483c-94 -52 -147 -57 -298 -57c-133 0 -179 98 -165 192zM233 598l107 141h132l-140 -141h-99zM396 598l107 141h133l-141 -141h-99z" />
    <glyph glyph-name="uring.salt" 
d="M58 185l56 348h164l-54 -340c-7 -47 1 -66 38 -66c36 0 80 3 107 23l60 383h164l-72 -483c-94 -52 -147 -57 -298 -57c-133 0 -179 98 -165 192zM278 699c5 57 54 101 110 101s98 -44 93 -101s-51 -101 -107 -101s-101 44 -96 101zM341 699c-2 -22 14 -39 36 -39
s39 17 41 39c3 21 -13 39 -34 39c-22 0 -41 -18 -43 -39z" />
    <glyph glyph-name="ucircumflex.salt" 
d="M58 185l56 348h164l-54 -340c-7 -47 1 -66 38 -66c36 0 80 3 107 23l60 383h164l-72 -483c-94 -52 -147 -57 -298 -57c-133 0 -179 98 -165 192zM207 598l126 138h116l72 -138h-99l-38 59l-66 -59h-111z" />
    <glyph glyph-name="udieresis.salt" 
d="M58 185l56 348h164l-54 -340c-7 -47 1 -66 38 -66c36 0 80 3 107 23l60 383h164l-72 -483c-94 -52 -147 -57 -298 -57c-133 0 -179 98 -165 192zM185 660c6 34 38 62 72 62s57 -28 52 -62c-6 -34 -38 -62 -72 -62s-57 28 -52 62zM440 660c6 34 38 62 72 62s57 -28 52 -62
c-6 -34 -38 -62 -72 -62s-57 28 -52 62z" />
    <glyph glyph-name="uogonek.salt" horiz-adv-x="569" 
d="M58 185l56 348h164l-54 -340c-7 -47 1 -66 38 -66c36 0 80 3 107 23l60 383h164l-72 -483c-94 -52 -147 -57 -298 -57c-133 0 -179 98 -165 192zM413 24h61c-87 -56 -54 -111 -6 -106l-13 -82c-107 -30 -193 114 -42 188z" />
    <glyph glyph-name="ubreve.salt" 
d="M58 185l56 348h164l-54 -340c-7 -47 1 -66 38 -66c36 0 80 3 107 23l60 383h164l-72 -483c-94 -52 -147 -57 -298 -57c-133 0 -179 98 -165 192zM267 711h62c-4 -33 13 -53 45 -53c40 0 57 19 61 53h62c-8 -71 -53 -113 -123 -113c-65 0 -113 43 -107 113z" />
    <glyph glyph-name="umacron.salt" 
d="M58 185l56 348h164l-54 -340c-7 -47 1 -66 38 -66c36 0 80 3 107 23l60 383h164l-72 -483c-94 -52 -147 -57 -298 -57c-133 0 -179 98 -165 192zM223 597l14 86h292l-14 -86h-292z" />
    <glyph glyph-name="b.salt" horiz-adv-x="555" 
d="M44 24l120 758h164l-45 -283c37 28 104 39 133 39c152 0 174 -117 147 -301c-30 -196 -115 -246 -241 -246c-96 0 -226 5 -278 33zM222 110h82c70 0 84 84 94 144c17 106 23 160 -45 160c-33 0 -55 -4 -87 -20z" />
    <glyph glyph-name="d.salt" horiz-adv-x="554" 
d="M74 282c27 185 89 256 227 256c45 0 101 -11 129 -39l44 283h164l-120 -758c-55 -28 -192 -33 -289 -33c-121 0 -185 97 -155 291zM237 254c-9 -60 -22 -144 48 -144h82l46 284c-27 16 -47 20 -81 20c-67 0 -78 -54 -95 -160z" />
    <glyph glyph-name="f.salt" horiz-adv-x="375" 
d="M40 0l98 615c9 54 42 171 188 171c60 0 112 -5 157 -24l-15 -94h-105c-50 0 -55 -16 -66 -83l-8 -54h111l-18 -119h-112l-66 -412h-164z" />
    <glyph glyph-name="p.salt" horiz-adv-x="555" 
d="M-2 -270l123 775c55 17 183 33 289 33c126 0 187 -91 155 -292c-29 -188 -87 -256 -242 -256c-45 0 -86 11 -113 40l-48 -300h-164zM226 134c28 -16 47 -20 80 -20c68 0 79 54 96 160c10 60 22 144 -48 144h-82z" />
    <glyph glyph-name="t.salt" horiz-adv-x="317" 
d="M68 190l78 490h164l-23 -148h102l-19 -119h-103l-30 -193c-11 -75 2 -90 25 -102c0 0 49 -20 56 -20l-16 -98h-112c-74 0 -146 42 -122 190z" />
    <glyph glyph-name="uni1E03.salt" horiz-adv-x="555" 
d="M44 24l120 758h164l-45 -283c37 28 104 39 133 39c152 0 174 -117 147 -301c-30 -196 -115 -246 -241 -246c-96 0 -226 5 -278 33zM222 110h82c70 0 84 84 94 144c17 106 23 160 -45 160c-33 0 -55 -4 -87 -20zM190 865l14 84c2 15 12 25 28 25h80c15 0 21 -11 19 -25
l-14 -84c-2 -15 -12 -23 -26 -23h-80c-14 0 -23 9 -21 23z" />
    <glyph glyph-name="uni1E0B.salt" horiz-adv-x="554" 
d="M74 282c27 185 89 256 227 256c45 0 101 -11 129 -39l44 283h164l-120 -758c-55 -28 -192 -33 -289 -33c-121 0 -185 97 -155 291zM237 254c-9 -60 -22 -144 48 -144h82l46 284c-27 16 -47 20 -81 20c-67 0 -78 -54 -95 -160zM501 866l14 84c2 14 12 24 28 24h80
c15 0 21 -10 19 -24l-14 -84c-2 -16 -12 -24 -26 -24h-80c-14 0 -23 10 -21 24z" />
    </font>
</defs>
</svg>
